G04 #@! TF.GenerationSoftware,KiCad,Pcbnew,9.0.2*
G04 #@! TF.CreationDate,2025-06-22T18:57:44-04:00*
G04 #@! TF.ProjectId,t41_2_power_amplifier,7434315f-325f-4706-9f77-65725f616d70,1.7*
G04 #@! TF.SameCoordinates,Original*
G04 #@! TF.FileFunction,Legend,Top*
G04 #@! TF.FilePolarity,Positive*
%FSLAX46Y46*%
G04 Gerber Fmt 4.6, Leading zero omitted, Abs format (unit mm)*
G04 Created by KiCad (PCBNEW 9.0.2) date 2025-06-22 18:57:44*
%MOMM*%
%LPD*%
G01*
G04 APERTURE LIST*
G04 Aperture macros list*
%AMRoundRect*
0 Rectangle with rounded corners*
0 $1 Rounding radius*
0 $2 $3 $4 $5 $6 $7 $8 $9 X,Y pos of 4 corners*
0 Add a 4 corners polygon primitive as box body*
4,1,4,$2,$3,$4,$5,$6,$7,$8,$9,$2,$3,0*
0 Add four circle primitives for the rounded corners*
1,1,$1+$1,$2,$3*
1,1,$1+$1,$4,$5*
1,1,$1+$1,$6,$7*
1,1,$1+$1,$8,$9*
0 Add four rect primitives between the rounded corners*
20,1,$1+$1,$2,$3,$4,$5,0*
20,1,$1+$1,$4,$5,$6,$7,0*
20,1,$1+$1,$6,$7,$8,$9,0*
20,1,$1+$1,$8,$9,$2,$3,0*%
G04 Aperture macros list end*
%ADD10C,0.150000*%
%ADD11C,0.300000*%
%ADD12C,0.200000*%
%ADD13C,0.120000*%
%ADD14C,0.100000*%
%ADD15C,0.127000*%
%ADD16C,0.152400*%
%ADD17RoundRect,0.250000X0.650000X-0.325000X0.650000X0.325000X-0.650000X0.325000X-0.650000X-0.325000X0*%
%ADD18RoundRect,0.250000X0.625000X-0.312500X0.625000X0.312500X-0.625000X0.312500X-0.625000X-0.312500X0*%
%ADD19RoundRect,0.250000X-0.650000X0.325000X-0.650000X-0.325000X0.650000X-0.325000X0.650000X0.325000X0*%
%ADD20RoundRect,0.250000X-1.500000X-0.550000X1.500000X-0.550000X1.500000X0.550000X-1.500000X0.550000X0*%
%ADD21C,1.440000*%
%ADD22C,2.000000*%
%ADD23C,2.200000*%
%ADD24RoundRect,0.250000X0.325000X0.650000X-0.325000X0.650000X-0.325000X-0.650000X0.325000X-0.650000X0*%
%ADD25RoundRect,0.250000X0.312500X0.625000X-0.312500X0.625000X-0.312500X-0.625000X0.312500X-0.625000X0*%
%ADD26RoundRect,0.250000X-0.312500X-0.625000X0.312500X-0.625000X0.312500X0.625000X-0.312500X0.625000X0*%
%ADD27RoundRect,0.250000X-1.400000X-1.000000X1.400000X-1.000000X1.400000X1.000000X-1.400000X1.000000X0*%
%ADD28RoundRect,0.102000X-0.785000X-1.410000X0.785000X-1.410000X0.785000X1.410000X-0.785000X1.410000X0*%
%ADD29RoundRect,0.250000X-0.325000X-0.650000X0.325000X-0.650000X0.325000X0.650000X-0.325000X0.650000X0*%
%ADD30RoundRect,0.250000X-0.550000X1.500000X-0.550000X-1.500000X0.550000X-1.500000X0.550000X1.500000X0*%
%ADD31C,1.905000*%
%ADD32C,7.500000*%
%ADD33R,0.508000X1.320800*%
%ADD34C,2.100000*%
%ADD35RoundRect,0.102000X0.735000X-1.385000X0.735000X1.385000X-0.735000X1.385000X-0.735000X-1.385000X0*%
%ADD36C,2.600000*%
%ADD37C,2.500000*%
%ADD38RoundRect,0.102000X-1.385000X-0.735000X1.385000X-0.735000X1.385000X0.735000X-1.385000X0.735000X0*%
%ADD39RoundRect,0.250001X-0.949999X0.949999X-0.949999X-0.949999X0.949999X-0.949999X0.949999X0.949999X0*%
%ADD40C,2.400000*%
%ADD41RoundRect,0.150000X0.150000X-0.512500X0.150000X0.512500X-0.150000X0.512500X-0.150000X-0.512500X0*%
%ADD42RoundRect,0.250000X-0.275000X-0.700000X0.275000X-0.700000X0.275000X0.700000X-0.275000X0.700000X0*%
G04 APERTURE END LIST*
D10*
X168341541Y-62108628D02*
X168627255Y-62108628D01*
X168627255Y-62108628D02*
X168770112Y-62180057D01*
X168770112Y-62180057D02*
X168912969Y-62322914D01*
X168912969Y-62322914D02*
X168984398Y-62608628D01*
X168984398Y-62608628D02*
X168984398Y-63108628D01*
X168984398Y-63108628D02*
X168912969Y-63394342D01*
X168912969Y-63394342D02*
X168770112Y-63537200D01*
X168770112Y-63537200D02*
X168627255Y-63608628D01*
X168627255Y-63608628D02*
X168341541Y-63608628D01*
X168341541Y-63608628D02*
X168198684Y-63537200D01*
X168198684Y-63537200D02*
X168055826Y-63394342D01*
X168055826Y-63394342D02*
X167984398Y-63108628D01*
X167984398Y-63108628D02*
X167984398Y-62608628D01*
X167984398Y-62608628D02*
X168055826Y-62322914D01*
X168055826Y-62322914D02*
X168198684Y-62180057D01*
X168198684Y-62180057D02*
X168341541Y-62108628D01*
X169627255Y-62108628D02*
X169627255Y-63322914D01*
X169627255Y-63322914D02*
X169698684Y-63465771D01*
X169698684Y-63465771D02*
X169770113Y-63537200D01*
X169770113Y-63537200D02*
X169912970Y-63608628D01*
X169912970Y-63608628D02*
X170198684Y-63608628D01*
X170198684Y-63608628D02*
X170341541Y-63537200D01*
X170341541Y-63537200D02*
X170412970Y-63465771D01*
X170412970Y-63465771D02*
X170484398Y-63322914D01*
X170484398Y-63322914D02*
X170484398Y-62108628D01*
X170984399Y-62108628D02*
X171841542Y-62108628D01*
X171412970Y-63608628D02*
X171412970Y-62108628D01*
X172341541Y-63608628D02*
X172341541Y-62108628D01*
X172341541Y-62108628D02*
X172912970Y-62108628D01*
X172912970Y-62108628D02*
X173055827Y-62180057D01*
X173055827Y-62180057D02*
X173127256Y-62251485D01*
X173127256Y-62251485D02*
X173198684Y-62394342D01*
X173198684Y-62394342D02*
X173198684Y-62608628D01*
X173198684Y-62608628D02*
X173127256Y-62751485D01*
X173127256Y-62751485D02*
X173055827Y-62822914D01*
X173055827Y-62822914D02*
X172912970Y-62894342D01*
X172912970Y-62894342D02*
X172341541Y-62894342D01*
X173841541Y-62108628D02*
X173841541Y-63322914D01*
X173841541Y-63322914D02*
X173912970Y-63465771D01*
X173912970Y-63465771D02*
X173984399Y-63537200D01*
X173984399Y-63537200D02*
X174127256Y-63608628D01*
X174127256Y-63608628D02*
X174412970Y-63608628D01*
X174412970Y-63608628D02*
X174555827Y-63537200D01*
X174555827Y-63537200D02*
X174627256Y-63465771D01*
X174627256Y-63465771D02*
X174698684Y-63322914D01*
X174698684Y-63322914D02*
X174698684Y-62108628D01*
X175198685Y-62108628D02*
X176055828Y-62108628D01*
X175627256Y-63608628D02*
X175627256Y-62108628D01*
D11*
X115873558Y-127677733D02*
X117397368Y-127677733D01*
X116635463Y-128439638D02*
X116635463Y-126915828D01*
D10*
X123516541Y-137758628D02*
X122659398Y-137758628D01*
X123087969Y-137758628D02*
X123087969Y-136258628D01*
X123087969Y-136258628D02*
X122945112Y-136472914D01*
X122945112Y-136472914D02*
X122802255Y-136615771D01*
X122802255Y-136615771D02*
X122659398Y-136687200D01*
X124016540Y-136258628D02*
X124945112Y-136258628D01*
X124945112Y-136258628D02*
X124445112Y-136830057D01*
X124445112Y-136830057D02*
X124659397Y-136830057D01*
X124659397Y-136830057D02*
X124802255Y-136901485D01*
X124802255Y-136901485D02*
X124873683Y-136972914D01*
X124873683Y-136972914D02*
X124945112Y-137115771D01*
X124945112Y-137115771D02*
X124945112Y-137472914D01*
X124945112Y-137472914D02*
X124873683Y-137615771D01*
X124873683Y-137615771D02*
X124802255Y-137687200D01*
X124802255Y-137687200D02*
X124659397Y-137758628D01*
X124659397Y-137758628D02*
X124230826Y-137758628D01*
X124230826Y-137758628D02*
X124087969Y-137687200D01*
X124087969Y-137687200D02*
X124016540Y-137615771D01*
X125587968Y-137615771D02*
X125659397Y-137687200D01*
X125659397Y-137687200D02*
X125587968Y-137758628D01*
X125587968Y-137758628D02*
X125516540Y-137687200D01*
X125516540Y-137687200D02*
X125587968Y-137615771D01*
X125587968Y-137615771D02*
X125587968Y-137758628D01*
X126516540Y-136901485D02*
X126373683Y-136830057D01*
X126373683Y-136830057D02*
X126302254Y-136758628D01*
X126302254Y-136758628D02*
X126230826Y-136615771D01*
X126230826Y-136615771D02*
X126230826Y-136544342D01*
X126230826Y-136544342D02*
X126302254Y-136401485D01*
X126302254Y-136401485D02*
X126373683Y-136330057D01*
X126373683Y-136330057D02*
X126516540Y-136258628D01*
X126516540Y-136258628D02*
X126802254Y-136258628D01*
X126802254Y-136258628D02*
X126945112Y-136330057D01*
X126945112Y-136330057D02*
X127016540Y-136401485D01*
X127016540Y-136401485D02*
X127087969Y-136544342D01*
X127087969Y-136544342D02*
X127087969Y-136615771D01*
X127087969Y-136615771D02*
X127016540Y-136758628D01*
X127016540Y-136758628D02*
X126945112Y-136830057D01*
X126945112Y-136830057D02*
X126802254Y-136901485D01*
X126802254Y-136901485D02*
X126516540Y-136901485D01*
X126516540Y-136901485D02*
X126373683Y-136972914D01*
X126373683Y-136972914D02*
X126302254Y-137044342D01*
X126302254Y-137044342D02*
X126230826Y-137187200D01*
X126230826Y-137187200D02*
X126230826Y-137472914D01*
X126230826Y-137472914D02*
X126302254Y-137615771D01*
X126302254Y-137615771D02*
X126373683Y-137687200D01*
X126373683Y-137687200D02*
X126516540Y-137758628D01*
X126516540Y-137758628D02*
X126802254Y-137758628D01*
X126802254Y-137758628D02*
X126945112Y-137687200D01*
X126945112Y-137687200D02*
X127016540Y-137615771D01*
X127016540Y-137615771D02*
X127087969Y-137472914D01*
X127087969Y-137472914D02*
X127087969Y-137187200D01*
X127087969Y-137187200D02*
X127016540Y-137044342D01*
X127016540Y-137044342D02*
X126945112Y-136972914D01*
X126945112Y-136972914D02*
X126802254Y-136901485D01*
X128659397Y-136258628D02*
X129159397Y-137758628D01*
X129159397Y-137758628D02*
X129659397Y-136258628D01*
X130445111Y-136258628D02*
X130730825Y-136258628D01*
X130730825Y-136258628D02*
X130873682Y-136330057D01*
X130873682Y-136330057D02*
X131016539Y-136472914D01*
X131016539Y-136472914D02*
X131087968Y-136758628D01*
X131087968Y-136758628D02*
X131087968Y-137258628D01*
X131087968Y-137258628D02*
X131016539Y-137544342D01*
X131016539Y-137544342D02*
X130873682Y-137687200D01*
X130873682Y-137687200D02*
X130730825Y-137758628D01*
X130730825Y-137758628D02*
X130445111Y-137758628D01*
X130445111Y-137758628D02*
X130302254Y-137687200D01*
X130302254Y-137687200D02*
X130159396Y-137544342D01*
X130159396Y-137544342D02*
X130087968Y-137258628D01*
X130087968Y-137258628D02*
X130087968Y-136758628D01*
X130087968Y-136758628D02*
X130159396Y-136472914D01*
X130159396Y-136472914D02*
X130302254Y-136330057D01*
X130302254Y-136330057D02*
X130445111Y-136258628D01*
X132445111Y-137758628D02*
X131730825Y-137758628D01*
X131730825Y-137758628D02*
X131730825Y-136258628D01*
X132730826Y-136258628D02*
X133587969Y-136258628D01*
X133159397Y-137758628D02*
X133159397Y-136258628D01*
X134016540Y-137687200D02*
X134230826Y-137758628D01*
X134230826Y-137758628D02*
X134587968Y-137758628D01*
X134587968Y-137758628D02*
X134730826Y-137687200D01*
X134730826Y-137687200D02*
X134802254Y-137615771D01*
X134802254Y-137615771D02*
X134873683Y-137472914D01*
X134873683Y-137472914D02*
X134873683Y-137330057D01*
X134873683Y-137330057D02*
X134802254Y-137187200D01*
X134802254Y-137187200D02*
X134730826Y-137115771D01*
X134730826Y-137115771D02*
X134587968Y-137044342D01*
X134587968Y-137044342D02*
X134302254Y-136972914D01*
X134302254Y-136972914D02*
X134159397Y-136901485D01*
X134159397Y-136901485D02*
X134087968Y-136830057D01*
X134087968Y-136830057D02*
X134016540Y-136687200D01*
X134016540Y-136687200D02*
X134016540Y-136544342D01*
X134016540Y-136544342D02*
X134087968Y-136401485D01*
X134087968Y-136401485D02*
X134159397Y-136330057D01*
X134159397Y-136330057D02*
X134302254Y-136258628D01*
X134302254Y-136258628D02*
X134659397Y-136258628D01*
X134659397Y-136258628D02*
X134873683Y-136330057D01*
D11*
X115873558Y-132677733D02*
X117397368Y-132677733D01*
D10*
X132110588Y-118444819D02*
X131539160Y-118444819D01*
X131824874Y-118444819D02*
X131824874Y-117444819D01*
X131824874Y-117444819D02*
X131729636Y-117587676D01*
X131729636Y-117587676D02*
X131634398Y-117682914D01*
X131634398Y-117682914D02*
X131539160Y-117730533D01*
X132729636Y-117444819D02*
X132824874Y-117444819D01*
X132824874Y-117444819D02*
X132920112Y-117492438D01*
X132920112Y-117492438D02*
X132967731Y-117540057D01*
X132967731Y-117540057D02*
X133015350Y-117635295D01*
X133015350Y-117635295D02*
X133062969Y-117825771D01*
X133062969Y-117825771D02*
X133062969Y-118063866D01*
X133062969Y-118063866D02*
X133015350Y-118254342D01*
X133015350Y-118254342D02*
X132967731Y-118349580D01*
X132967731Y-118349580D02*
X132920112Y-118397200D01*
X132920112Y-118397200D02*
X132824874Y-118444819D01*
X132824874Y-118444819D02*
X132729636Y-118444819D01*
X132729636Y-118444819D02*
X132634398Y-118397200D01*
X132634398Y-118397200D02*
X132586779Y-118349580D01*
X132586779Y-118349580D02*
X132539160Y-118254342D01*
X132539160Y-118254342D02*
X132491541Y-118063866D01*
X132491541Y-118063866D02*
X132491541Y-117825771D01*
X132491541Y-117825771D02*
X132539160Y-117635295D01*
X132539160Y-117635295D02*
X132586779Y-117540057D01*
X132586779Y-117540057D02*
X132634398Y-117492438D01*
X132634398Y-117492438D02*
X132729636Y-117444819D01*
X134110589Y-117444819D02*
X134443922Y-118444819D01*
X134443922Y-118444819D02*
X134777255Y-117444819D01*
X135301065Y-117444819D02*
X135491541Y-117444819D01*
X135491541Y-117444819D02*
X135586779Y-117492438D01*
X135586779Y-117492438D02*
X135682017Y-117587676D01*
X135682017Y-117587676D02*
X135729636Y-117778152D01*
X135729636Y-117778152D02*
X135729636Y-118111485D01*
X135729636Y-118111485D02*
X135682017Y-118301961D01*
X135682017Y-118301961D02*
X135586779Y-118397200D01*
X135586779Y-118397200D02*
X135491541Y-118444819D01*
X135491541Y-118444819D02*
X135301065Y-118444819D01*
X135301065Y-118444819D02*
X135205827Y-118397200D01*
X135205827Y-118397200D02*
X135110589Y-118301961D01*
X135110589Y-118301961D02*
X135062970Y-118111485D01*
X135062970Y-118111485D02*
X135062970Y-117778152D01*
X135062970Y-117778152D02*
X135110589Y-117587676D01*
X135110589Y-117587676D02*
X135205827Y-117492438D01*
X135205827Y-117492438D02*
X135301065Y-117444819D01*
X136634398Y-118444819D02*
X136158208Y-118444819D01*
X136158208Y-118444819D02*
X136158208Y-117444819D01*
X136824875Y-117444819D02*
X137396303Y-117444819D01*
X137110589Y-118444819D02*
X137110589Y-117444819D01*
X137682018Y-118397200D02*
X137824875Y-118444819D01*
X137824875Y-118444819D02*
X138062970Y-118444819D01*
X138062970Y-118444819D02*
X138158208Y-118397200D01*
X138158208Y-118397200D02*
X138205827Y-118349580D01*
X138205827Y-118349580D02*
X138253446Y-118254342D01*
X138253446Y-118254342D02*
X138253446Y-118159104D01*
X138253446Y-118159104D02*
X138205827Y-118063866D01*
X138205827Y-118063866D02*
X138158208Y-118016247D01*
X138158208Y-118016247D02*
X138062970Y-117968628D01*
X138062970Y-117968628D02*
X137872494Y-117921009D01*
X137872494Y-117921009D02*
X137777256Y-117873390D01*
X137777256Y-117873390D02*
X137729637Y-117825771D01*
X137729637Y-117825771D02*
X137682018Y-117730533D01*
X137682018Y-117730533D02*
X137682018Y-117635295D01*
X137682018Y-117635295D02*
X137729637Y-117540057D01*
X137729637Y-117540057D02*
X137777256Y-117492438D01*
X137777256Y-117492438D02*
X137872494Y-117444819D01*
X137872494Y-117444819D02*
X138110589Y-117444819D01*
X138110589Y-117444819D02*
X138253446Y-117492438D01*
X117955826Y-80508628D02*
X117955826Y-79008628D01*
X118670112Y-80508628D02*
X118670112Y-79008628D01*
X118670112Y-79008628D02*
X119527255Y-80508628D01*
X119527255Y-80508628D02*
X119527255Y-79008628D01*
X120241541Y-80508628D02*
X120241541Y-79008628D01*
X120241541Y-79008628D02*
X120812970Y-79008628D01*
X120812970Y-79008628D02*
X120955827Y-79080057D01*
X120955827Y-79080057D02*
X121027256Y-79151485D01*
X121027256Y-79151485D02*
X121098684Y-79294342D01*
X121098684Y-79294342D02*
X121098684Y-79508628D01*
X121098684Y-79508628D02*
X121027256Y-79651485D01*
X121027256Y-79651485D02*
X120955827Y-79722914D01*
X120955827Y-79722914D02*
X120812970Y-79794342D01*
X120812970Y-79794342D02*
X120241541Y-79794342D01*
X121741541Y-79008628D02*
X121741541Y-80222914D01*
X121741541Y-80222914D02*
X121812970Y-80365771D01*
X121812970Y-80365771D02*
X121884399Y-80437200D01*
X121884399Y-80437200D02*
X122027256Y-80508628D01*
X122027256Y-80508628D02*
X122312970Y-80508628D01*
X122312970Y-80508628D02*
X122455827Y-80437200D01*
X122455827Y-80437200D02*
X122527256Y-80365771D01*
X122527256Y-80365771D02*
X122598684Y-80222914D01*
X122598684Y-80222914D02*
X122598684Y-79008628D01*
X123098685Y-79008628D02*
X123955828Y-79008628D01*
X123527256Y-80508628D02*
X123527256Y-79008628D01*
X126241541Y-60908628D02*
X126527255Y-60908628D01*
X126527255Y-60908628D02*
X126670112Y-60980057D01*
X126670112Y-60980057D02*
X126812969Y-61122914D01*
X126812969Y-61122914D02*
X126884398Y-61408628D01*
X126884398Y-61408628D02*
X126884398Y-61908628D01*
X126884398Y-61908628D02*
X126812969Y-62194342D01*
X126812969Y-62194342D02*
X126670112Y-62337200D01*
X126670112Y-62337200D02*
X126527255Y-62408628D01*
X126527255Y-62408628D02*
X126241541Y-62408628D01*
X126241541Y-62408628D02*
X126098684Y-62337200D01*
X126098684Y-62337200D02*
X125955826Y-62194342D01*
X125955826Y-62194342D02*
X125884398Y-61908628D01*
X125884398Y-61908628D02*
X125884398Y-61408628D01*
X125884398Y-61408628D02*
X125955826Y-61122914D01*
X125955826Y-61122914D02*
X126098684Y-60980057D01*
X126098684Y-60980057D02*
X126241541Y-60908628D01*
X127527255Y-62408628D02*
X127527255Y-60908628D01*
X127527255Y-60908628D02*
X128098684Y-60908628D01*
X128098684Y-60908628D02*
X128241541Y-60980057D01*
X128241541Y-60980057D02*
X128312970Y-61051485D01*
X128312970Y-61051485D02*
X128384398Y-61194342D01*
X128384398Y-61194342D02*
X128384398Y-61408628D01*
X128384398Y-61408628D02*
X128312970Y-61551485D01*
X128312970Y-61551485D02*
X128241541Y-61622914D01*
X128241541Y-61622914D02*
X128098684Y-61694342D01*
X128098684Y-61694342D02*
X127527255Y-61694342D01*
X129027255Y-61622914D02*
X129527255Y-61622914D01*
X129741541Y-62408628D02*
X129027255Y-62408628D01*
X129027255Y-62408628D02*
X129027255Y-60908628D01*
X129027255Y-60908628D02*
X129741541Y-60908628D01*
X130384398Y-62408628D02*
X130384398Y-60908628D01*
X130384398Y-60908628D02*
X131241541Y-62408628D01*
X131241541Y-62408628D02*
X131241541Y-60908628D01*
X133098684Y-62408628D02*
X133098684Y-60908628D01*
X133098684Y-61622914D02*
X133955827Y-61622914D01*
X133955827Y-62408628D02*
X133955827Y-60908628D01*
X134598685Y-61980057D02*
X135312971Y-61980057D01*
X134455828Y-62408628D02*
X134955828Y-60908628D01*
X134955828Y-60908628D02*
X135455828Y-62408628D01*
X136812970Y-62408628D02*
X136312970Y-61694342D01*
X135955827Y-62408628D02*
X135955827Y-60908628D01*
X135955827Y-60908628D02*
X136527256Y-60908628D01*
X136527256Y-60908628D02*
X136670113Y-60980057D01*
X136670113Y-60980057D02*
X136741542Y-61051485D01*
X136741542Y-61051485D02*
X136812970Y-61194342D01*
X136812970Y-61194342D02*
X136812970Y-61408628D01*
X136812970Y-61408628D02*
X136741542Y-61551485D01*
X136741542Y-61551485D02*
X136670113Y-61622914D01*
X136670113Y-61622914D02*
X136527256Y-61694342D01*
X136527256Y-61694342D02*
X135955827Y-61694342D01*
X137455827Y-62408628D02*
X137455827Y-60908628D01*
X137455827Y-60908628D02*
X137812970Y-60908628D01*
X137812970Y-60908628D02*
X138027256Y-60980057D01*
X138027256Y-60980057D02*
X138170113Y-61122914D01*
X138170113Y-61122914D02*
X138241542Y-61265771D01*
X138241542Y-61265771D02*
X138312970Y-61551485D01*
X138312970Y-61551485D02*
X138312970Y-61765771D01*
X138312970Y-61765771D02*
X138241542Y-62051485D01*
X138241542Y-62051485D02*
X138170113Y-62194342D01*
X138170113Y-62194342D02*
X138027256Y-62337200D01*
X138027256Y-62337200D02*
X137812970Y-62408628D01*
X137812970Y-62408628D02*
X137455827Y-62408628D01*
X138812970Y-60908628D02*
X139170113Y-62408628D01*
X139170113Y-62408628D02*
X139455827Y-61337200D01*
X139455827Y-61337200D02*
X139741542Y-62408628D01*
X139741542Y-62408628D02*
X140098685Y-60908628D01*
X140598685Y-61980057D02*
X141312971Y-61980057D01*
X140455828Y-62408628D02*
X140955828Y-60908628D01*
X140955828Y-60908628D02*
X141455828Y-62408628D01*
X142812970Y-62408628D02*
X142312970Y-61694342D01*
X141955827Y-62408628D02*
X141955827Y-60908628D01*
X141955827Y-60908628D02*
X142527256Y-60908628D01*
X142527256Y-60908628D02*
X142670113Y-60980057D01*
X142670113Y-60980057D02*
X142741542Y-61051485D01*
X142741542Y-61051485D02*
X142812970Y-61194342D01*
X142812970Y-61194342D02*
X142812970Y-61408628D01*
X142812970Y-61408628D02*
X142741542Y-61551485D01*
X142741542Y-61551485D02*
X142670113Y-61622914D01*
X142670113Y-61622914D02*
X142527256Y-61694342D01*
X142527256Y-61694342D02*
X141955827Y-61694342D01*
X143455827Y-61622914D02*
X143955827Y-61622914D01*
X144170113Y-62408628D02*
X143455827Y-62408628D01*
X143455827Y-62408628D02*
X143455827Y-60908628D01*
X143455827Y-60908628D02*
X144170113Y-60908628D01*
X132255826Y-59708628D02*
X132255826Y-58208628D01*
X133112969Y-59708628D02*
X132470112Y-58851485D01*
X133112969Y-58208628D02*
X132255826Y-59065771D01*
X134255826Y-58922914D02*
X133755826Y-58922914D01*
X133755826Y-59708628D02*
X133755826Y-58208628D01*
X133755826Y-58208628D02*
X134470112Y-58208628D01*
X135755826Y-58208628D02*
X135041540Y-58208628D01*
X135041540Y-58208628D02*
X134970112Y-58922914D01*
X134970112Y-58922914D02*
X135041540Y-58851485D01*
X135041540Y-58851485D02*
X135184398Y-58780057D01*
X135184398Y-58780057D02*
X135541540Y-58780057D01*
X135541540Y-58780057D02*
X135684398Y-58851485D01*
X135684398Y-58851485D02*
X135755826Y-58922914D01*
X135755826Y-58922914D02*
X135827255Y-59065771D01*
X135827255Y-59065771D02*
X135827255Y-59422914D01*
X135827255Y-59422914D02*
X135755826Y-59565771D01*
X135755826Y-59565771D02*
X135684398Y-59637200D01*
X135684398Y-59637200D02*
X135541540Y-59708628D01*
X135541540Y-59708628D02*
X135184398Y-59708628D01*
X135184398Y-59708628D02*
X135041540Y-59637200D01*
X135041540Y-59637200D02*
X134970112Y-59565771D01*
X136470111Y-59708628D02*
X136470111Y-58208628D01*
X136470111Y-58208628D02*
X137327254Y-59708628D01*
X137327254Y-59708628D02*
X137327254Y-58208628D01*
D12*
X115988720Y-119356028D02*
X115988720Y-117856028D01*
X116703006Y-119356028D02*
X116703006Y-117856028D01*
X116703006Y-117856028D02*
X117560149Y-119356028D01*
X117560149Y-119356028D02*
X117560149Y-117856028D01*
D10*
X129841541Y-67208628D02*
X130341541Y-68708628D01*
X130341541Y-68708628D02*
X130841541Y-67208628D01*
X132127255Y-68708628D02*
X131270112Y-68708628D01*
X131698683Y-68708628D02*
X131698683Y-67208628D01*
X131698683Y-67208628D02*
X131555826Y-67422914D01*
X131555826Y-67422914D02*
X131412969Y-67565771D01*
X131412969Y-67565771D02*
X131270112Y-67637200D01*
X132770111Y-68565771D02*
X132841540Y-68637200D01*
X132841540Y-68637200D02*
X132770111Y-68708628D01*
X132770111Y-68708628D02*
X132698683Y-68637200D01*
X132698683Y-68637200D02*
X132770111Y-68565771D01*
X132770111Y-68565771D02*
X132770111Y-68708628D01*
X133341540Y-67208628D02*
X134341540Y-67208628D01*
X134341540Y-67208628D02*
X133698683Y-68708628D01*
X118241541Y-64908628D02*
X119098684Y-64908628D01*
X118670112Y-66408628D02*
X118670112Y-64908628D01*
X120241541Y-65408628D02*
X120241541Y-66408628D01*
X119884398Y-64837200D02*
X119527255Y-65908628D01*
X119527255Y-65908628D02*
X120455826Y-65908628D01*
X121812969Y-66408628D02*
X120955826Y-66408628D01*
X121384397Y-66408628D02*
X121384397Y-64908628D01*
X121384397Y-64908628D02*
X121241540Y-65122914D01*
X121241540Y-65122914D02*
X121098683Y-65265771D01*
X121098683Y-65265771D02*
X120955826Y-65337200D01*
X122455825Y-65837200D02*
X123598683Y-65837200D01*
X124241540Y-65051485D02*
X124312968Y-64980057D01*
X124312968Y-64980057D02*
X124455826Y-64908628D01*
X124455826Y-64908628D02*
X124812968Y-64908628D01*
X124812968Y-64908628D02*
X124955826Y-64980057D01*
X124955826Y-64980057D02*
X125027254Y-65051485D01*
X125027254Y-65051485D02*
X125098683Y-65194342D01*
X125098683Y-65194342D02*
X125098683Y-65337200D01*
X125098683Y-65337200D02*
X125027254Y-65551485D01*
X125027254Y-65551485D02*
X124170111Y-66408628D01*
X124170111Y-66408628D02*
X125098683Y-66408628D01*
X126884396Y-66408628D02*
X126884396Y-64908628D01*
X126884396Y-64908628D02*
X127455825Y-64908628D01*
X127455825Y-64908628D02*
X127598682Y-64980057D01*
X127598682Y-64980057D02*
X127670111Y-65051485D01*
X127670111Y-65051485D02*
X127741539Y-65194342D01*
X127741539Y-65194342D02*
X127741539Y-65408628D01*
X127741539Y-65408628D02*
X127670111Y-65551485D01*
X127670111Y-65551485D02*
X127598682Y-65622914D01*
X127598682Y-65622914D02*
X127455825Y-65694342D01*
X127455825Y-65694342D02*
X126884396Y-65694342D01*
X128670111Y-64908628D02*
X128955825Y-64908628D01*
X128955825Y-64908628D02*
X129098682Y-64980057D01*
X129098682Y-64980057D02*
X129241539Y-65122914D01*
X129241539Y-65122914D02*
X129312968Y-65408628D01*
X129312968Y-65408628D02*
X129312968Y-65908628D01*
X129312968Y-65908628D02*
X129241539Y-66194342D01*
X129241539Y-66194342D02*
X129098682Y-66337200D01*
X129098682Y-66337200D02*
X128955825Y-66408628D01*
X128955825Y-66408628D02*
X128670111Y-66408628D01*
X128670111Y-66408628D02*
X128527254Y-66337200D01*
X128527254Y-66337200D02*
X128384396Y-66194342D01*
X128384396Y-66194342D02*
X128312968Y-65908628D01*
X128312968Y-65908628D02*
X128312968Y-65408628D01*
X128312968Y-65408628D02*
X128384396Y-65122914D01*
X128384396Y-65122914D02*
X128527254Y-64980057D01*
X128527254Y-64980057D02*
X128670111Y-64908628D01*
X129812968Y-64908628D02*
X130170111Y-66408628D01*
X130170111Y-66408628D02*
X130455825Y-65337200D01*
X130455825Y-65337200D02*
X130741540Y-66408628D01*
X130741540Y-66408628D02*
X131098683Y-64908628D01*
X131670111Y-65622914D02*
X132170111Y-65622914D01*
X132384397Y-66408628D02*
X131670111Y-66408628D01*
X131670111Y-66408628D02*
X131670111Y-64908628D01*
X131670111Y-64908628D02*
X132384397Y-64908628D01*
X133884397Y-66408628D02*
X133384397Y-65694342D01*
X133027254Y-66408628D02*
X133027254Y-64908628D01*
X133027254Y-64908628D02*
X133598683Y-64908628D01*
X133598683Y-64908628D02*
X133741540Y-64980057D01*
X133741540Y-64980057D02*
X133812969Y-65051485D01*
X133812969Y-65051485D02*
X133884397Y-65194342D01*
X133884397Y-65194342D02*
X133884397Y-65408628D01*
X133884397Y-65408628D02*
X133812969Y-65551485D01*
X133812969Y-65551485D02*
X133741540Y-65622914D01*
X133741540Y-65622914D02*
X133598683Y-65694342D01*
X133598683Y-65694342D02*
X133027254Y-65694342D01*
X135598683Y-65980057D02*
X136312969Y-65980057D01*
X135455826Y-66408628D02*
X135955826Y-64908628D01*
X135955826Y-64908628D02*
X136455826Y-66408628D01*
X136955825Y-66408628D02*
X136955825Y-64908628D01*
X136955825Y-64908628D02*
X137455825Y-65980057D01*
X137455825Y-65980057D02*
X137955825Y-64908628D01*
X137955825Y-64908628D02*
X137955825Y-66408628D01*
X138670111Y-66408628D02*
X138670111Y-64908628D01*
X138670111Y-64908628D02*
X139241540Y-64908628D01*
X139241540Y-64908628D02*
X139384397Y-64980057D01*
X139384397Y-64980057D02*
X139455826Y-65051485D01*
X139455826Y-65051485D02*
X139527254Y-65194342D01*
X139527254Y-65194342D02*
X139527254Y-65408628D01*
X139527254Y-65408628D02*
X139455826Y-65551485D01*
X139455826Y-65551485D02*
X139384397Y-65622914D01*
X139384397Y-65622914D02*
X139241540Y-65694342D01*
X139241540Y-65694342D02*
X138670111Y-65694342D01*
X140884397Y-66408628D02*
X140170111Y-66408628D01*
X140170111Y-66408628D02*
X140170111Y-64908628D01*
X141384397Y-66408628D02*
X141384397Y-64908628D01*
X142598683Y-65622914D02*
X142098683Y-65622914D01*
X142098683Y-66408628D02*
X142098683Y-64908628D01*
X142098683Y-64908628D02*
X142812969Y-64908628D01*
X143384397Y-66408628D02*
X143384397Y-64908628D01*
X144098683Y-65622914D02*
X144598683Y-65622914D01*
X144812969Y-66408628D02*
X144098683Y-66408628D01*
X144098683Y-66408628D02*
X144098683Y-64908628D01*
X144098683Y-64908628D02*
X144812969Y-64908628D01*
X146312969Y-66408628D02*
X145812969Y-65694342D01*
X145455826Y-66408628D02*
X145455826Y-64908628D01*
X145455826Y-64908628D02*
X146027255Y-64908628D01*
X146027255Y-64908628D02*
X146170112Y-64980057D01*
X146170112Y-64980057D02*
X146241541Y-65051485D01*
X146241541Y-65051485D02*
X146312969Y-65194342D01*
X146312969Y-65194342D02*
X146312969Y-65408628D01*
X146312969Y-65408628D02*
X146241541Y-65551485D01*
X146241541Y-65551485D02*
X146170112Y-65622914D01*
X146170112Y-65622914D02*
X146027255Y-65694342D01*
X146027255Y-65694342D02*
X145455826Y-65694342D01*
X115821541Y-109228628D02*
X116678684Y-109228628D01*
X116250112Y-110728628D02*
X116250112Y-109228628D01*
X117035826Y-109228628D02*
X118035826Y-110728628D01*
X118035826Y-109228628D02*
X117035826Y-110728628D01*
X119464397Y-110728628D02*
X118964397Y-110014342D01*
X118607254Y-110728628D02*
X118607254Y-109228628D01*
X118607254Y-109228628D02*
X119178683Y-109228628D01*
X119178683Y-109228628D02*
X119321540Y-109300057D01*
X119321540Y-109300057D02*
X119392969Y-109371485D01*
X119392969Y-109371485D02*
X119464397Y-109514342D01*
X119464397Y-109514342D02*
X119464397Y-109728628D01*
X119464397Y-109728628D02*
X119392969Y-109871485D01*
X119392969Y-109871485D02*
X119321540Y-109942914D01*
X119321540Y-109942914D02*
X119178683Y-110014342D01*
X119178683Y-110014342D02*
X118607254Y-110014342D01*
X119964397Y-109228628D02*
X120964397Y-110728628D01*
X120964397Y-109228628D02*
X119964397Y-110728628D01*
X156257142Y-90409580D02*
X156209523Y-90457200D01*
X156209523Y-90457200D02*
X156066666Y-90504819D01*
X156066666Y-90504819D02*
X155971428Y-90504819D01*
X155971428Y-90504819D02*
X155828571Y-90457200D01*
X155828571Y-90457200D02*
X155733333Y-90361961D01*
X155733333Y-90361961D02*
X155685714Y-90266723D01*
X155685714Y-90266723D02*
X155638095Y-90076247D01*
X155638095Y-90076247D02*
X155638095Y-89933390D01*
X155638095Y-89933390D02*
X155685714Y-89742914D01*
X155685714Y-89742914D02*
X155733333Y-89647676D01*
X155733333Y-89647676D02*
X155828571Y-89552438D01*
X155828571Y-89552438D02*
X155971428Y-89504819D01*
X155971428Y-89504819D02*
X156066666Y-89504819D01*
X156066666Y-89504819D02*
X156209523Y-89552438D01*
X156209523Y-89552438D02*
X156257142Y-89600057D01*
X157209523Y-90504819D02*
X156638095Y-90504819D01*
X156923809Y-90504819D02*
X156923809Y-89504819D01*
X156923809Y-89504819D02*
X156828571Y-89647676D01*
X156828571Y-89647676D02*
X156733333Y-89742914D01*
X156733333Y-89742914D02*
X156638095Y-89790533D01*
X157780952Y-89933390D02*
X157685714Y-89885771D01*
X157685714Y-89885771D02*
X157638095Y-89838152D01*
X157638095Y-89838152D02*
X157590476Y-89742914D01*
X157590476Y-89742914D02*
X157590476Y-89695295D01*
X157590476Y-89695295D02*
X157638095Y-89600057D01*
X157638095Y-89600057D02*
X157685714Y-89552438D01*
X157685714Y-89552438D02*
X157780952Y-89504819D01*
X157780952Y-89504819D02*
X157971428Y-89504819D01*
X157971428Y-89504819D02*
X158066666Y-89552438D01*
X158066666Y-89552438D02*
X158114285Y-89600057D01*
X158114285Y-89600057D02*
X158161904Y-89695295D01*
X158161904Y-89695295D02*
X158161904Y-89742914D01*
X158161904Y-89742914D02*
X158114285Y-89838152D01*
X158114285Y-89838152D02*
X158066666Y-89885771D01*
X158066666Y-89885771D02*
X157971428Y-89933390D01*
X157971428Y-89933390D02*
X157780952Y-89933390D01*
X157780952Y-89933390D02*
X157685714Y-89981009D01*
X157685714Y-89981009D02*
X157638095Y-90028628D01*
X157638095Y-90028628D02*
X157590476Y-90123866D01*
X157590476Y-90123866D02*
X157590476Y-90314342D01*
X157590476Y-90314342D02*
X157638095Y-90409580D01*
X157638095Y-90409580D02*
X157685714Y-90457200D01*
X157685714Y-90457200D02*
X157780952Y-90504819D01*
X157780952Y-90504819D02*
X157971428Y-90504819D01*
X157971428Y-90504819D02*
X158066666Y-90457200D01*
X158066666Y-90457200D02*
X158114285Y-90409580D01*
X158114285Y-90409580D02*
X158161904Y-90314342D01*
X158161904Y-90314342D02*
X158161904Y-90123866D01*
X158161904Y-90123866D02*
X158114285Y-90028628D01*
X158114285Y-90028628D02*
X158066666Y-89981009D01*
X158066666Y-89981009D02*
X157971428Y-89933390D01*
X160057142Y-109354819D02*
X159723809Y-108878628D01*
X159485714Y-109354819D02*
X159485714Y-108354819D01*
X159485714Y-108354819D02*
X159866666Y-108354819D01*
X159866666Y-108354819D02*
X159961904Y-108402438D01*
X159961904Y-108402438D02*
X160009523Y-108450057D01*
X160009523Y-108450057D02*
X160057142Y-108545295D01*
X160057142Y-108545295D02*
X160057142Y-108688152D01*
X160057142Y-108688152D02*
X160009523Y-108783390D01*
X160009523Y-108783390D02*
X159961904Y-108831009D01*
X159961904Y-108831009D02*
X159866666Y-108878628D01*
X159866666Y-108878628D02*
X159485714Y-108878628D01*
X161009523Y-109354819D02*
X160438095Y-109354819D01*
X160723809Y-109354819D02*
X160723809Y-108354819D01*
X160723809Y-108354819D02*
X160628571Y-108497676D01*
X160628571Y-108497676D02*
X160533333Y-108592914D01*
X160533333Y-108592914D02*
X160438095Y-108640533D01*
X161485714Y-109354819D02*
X161676190Y-109354819D01*
X161676190Y-109354819D02*
X161771428Y-109307200D01*
X161771428Y-109307200D02*
X161819047Y-109259580D01*
X161819047Y-109259580D02*
X161914285Y-109116723D01*
X161914285Y-109116723D02*
X161961904Y-108926247D01*
X161961904Y-108926247D02*
X161961904Y-108545295D01*
X161961904Y-108545295D02*
X161914285Y-108450057D01*
X161914285Y-108450057D02*
X161866666Y-108402438D01*
X161866666Y-108402438D02*
X161771428Y-108354819D01*
X161771428Y-108354819D02*
X161580952Y-108354819D01*
X161580952Y-108354819D02*
X161485714Y-108402438D01*
X161485714Y-108402438D02*
X161438095Y-108450057D01*
X161438095Y-108450057D02*
X161390476Y-108545295D01*
X161390476Y-108545295D02*
X161390476Y-108783390D01*
X161390476Y-108783390D02*
X161438095Y-108878628D01*
X161438095Y-108878628D02*
X161485714Y-108926247D01*
X161485714Y-108926247D02*
X161580952Y-108973866D01*
X161580952Y-108973866D02*
X161771428Y-108973866D01*
X161771428Y-108973866D02*
X161866666Y-108926247D01*
X161866666Y-108926247D02*
X161914285Y-108878628D01*
X161914285Y-108878628D02*
X161961904Y-108783390D01*
X160809523Y-111054819D02*
X160238095Y-111054819D01*
X160523809Y-111054819D02*
X160523809Y-110054819D01*
X160523809Y-110054819D02*
X160428571Y-110197676D01*
X160428571Y-110197676D02*
X160333333Y-110292914D01*
X160333333Y-110292914D02*
X160238095Y-110340533D01*
X161428571Y-110054819D02*
X161523809Y-110054819D01*
X161523809Y-110054819D02*
X161619047Y-110102438D01*
X161619047Y-110102438D02*
X161666666Y-110150057D01*
X161666666Y-110150057D02*
X161714285Y-110245295D01*
X161714285Y-110245295D02*
X161761904Y-110435771D01*
X161761904Y-110435771D02*
X161761904Y-110673866D01*
X161761904Y-110673866D02*
X161714285Y-110864342D01*
X161714285Y-110864342D02*
X161666666Y-110959580D01*
X161666666Y-110959580D02*
X161619047Y-111007200D01*
X161619047Y-111007200D02*
X161523809Y-111054819D01*
X161523809Y-111054819D02*
X161428571Y-111054819D01*
X161428571Y-111054819D02*
X161333333Y-111007200D01*
X161333333Y-111007200D02*
X161285714Y-110959580D01*
X161285714Y-110959580D02*
X161238095Y-110864342D01*
X161238095Y-110864342D02*
X161190476Y-110673866D01*
X161190476Y-110673866D02*
X161190476Y-110435771D01*
X161190476Y-110435771D02*
X161238095Y-110245295D01*
X161238095Y-110245295D02*
X161285714Y-110150057D01*
X161285714Y-110150057D02*
X161333333Y-110102438D01*
X161333333Y-110102438D02*
X161428571Y-110054819D01*
X129757142Y-119959580D02*
X129709523Y-120007200D01*
X129709523Y-120007200D02*
X129566666Y-120054819D01*
X129566666Y-120054819D02*
X129471428Y-120054819D01*
X129471428Y-120054819D02*
X129328571Y-120007200D01*
X129328571Y-120007200D02*
X129233333Y-119911961D01*
X129233333Y-119911961D02*
X129185714Y-119816723D01*
X129185714Y-119816723D02*
X129138095Y-119626247D01*
X129138095Y-119626247D02*
X129138095Y-119483390D01*
X129138095Y-119483390D02*
X129185714Y-119292914D01*
X129185714Y-119292914D02*
X129233333Y-119197676D01*
X129233333Y-119197676D02*
X129328571Y-119102438D01*
X129328571Y-119102438D02*
X129471428Y-119054819D01*
X129471428Y-119054819D02*
X129566666Y-119054819D01*
X129566666Y-119054819D02*
X129709523Y-119102438D01*
X129709523Y-119102438D02*
X129757142Y-119150057D01*
X130138095Y-119150057D02*
X130185714Y-119102438D01*
X130185714Y-119102438D02*
X130280952Y-119054819D01*
X130280952Y-119054819D02*
X130519047Y-119054819D01*
X130519047Y-119054819D02*
X130614285Y-119102438D01*
X130614285Y-119102438D02*
X130661904Y-119150057D01*
X130661904Y-119150057D02*
X130709523Y-119245295D01*
X130709523Y-119245295D02*
X130709523Y-119340533D01*
X130709523Y-119340533D02*
X130661904Y-119483390D01*
X130661904Y-119483390D02*
X130090476Y-120054819D01*
X130090476Y-120054819D02*
X130709523Y-120054819D01*
X131328571Y-119054819D02*
X131423809Y-119054819D01*
X131423809Y-119054819D02*
X131519047Y-119102438D01*
X131519047Y-119102438D02*
X131566666Y-119150057D01*
X131566666Y-119150057D02*
X131614285Y-119245295D01*
X131614285Y-119245295D02*
X131661904Y-119435771D01*
X131661904Y-119435771D02*
X131661904Y-119673866D01*
X131661904Y-119673866D02*
X131614285Y-119864342D01*
X131614285Y-119864342D02*
X131566666Y-119959580D01*
X131566666Y-119959580D02*
X131519047Y-120007200D01*
X131519047Y-120007200D02*
X131423809Y-120054819D01*
X131423809Y-120054819D02*
X131328571Y-120054819D01*
X131328571Y-120054819D02*
X131233333Y-120007200D01*
X131233333Y-120007200D02*
X131185714Y-119959580D01*
X131185714Y-119959580D02*
X131138095Y-119864342D01*
X131138095Y-119864342D02*
X131090476Y-119673866D01*
X131090476Y-119673866D02*
X131090476Y-119435771D01*
X131090476Y-119435771D02*
X131138095Y-119245295D01*
X131138095Y-119245295D02*
X131185714Y-119150057D01*
X131185714Y-119150057D02*
X131233333Y-119102438D01*
X131233333Y-119102438D02*
X131328571Y-119054819D01*
X130504761Y-121354819D02*
X129933333Y-121354819D01*
X130219047Y-121354819D02*
X130219047Y-120354819D01*
X130219047Y-120354819D02*
X130123809Y-120497676D01*
X130123809Y-120497676D02*
X130028571Y-120592914D01*
X130028571Y-120592914D02*
X129933333Y-120640533D01*
X131361904Y-120688152D02*
X131361904Y-121354819D01*
X130933333Y-120688152D02*
X130933333Y-121211961D01*
X130933333Y-121211961D02*
X130980952Y-121307200D01*
X130980952Y-121307200D02*
X131076190Y-121354819D01*
X131076190Y-121354819D02*
X131219047Y-121354819D01*
X131219047Y-121354819D02*
X131314285Y-121307200D01*
X131314285Y-121307200D02*
X131361904Y-121259580D01*
X132171428Y-120831009D02*
X131838095Y-120831009D01*
X131838095Y-121354819D02*
X131838095Y-120354819D01*
X131838095Y-120354819D02*
X132314285Y-120354819D01*
X178633333Y-119559580D02*
X178585714Y-119607200D01*
X178585714Y-119607200D02*
X178442857Y-119654819D01*
X178442857Y-119654819D02*
X178347619Y-119654819D01*
X178347619Y-119654819D02*
X178204762Y-119607200D01*
X178204762Y-119607200D02*
X178109524Y-119511961D01*
X178109524Y-119511961D02*
X178061905Y-119416723D01*
X178061905Y-119416723D02*
X178014286Y-119226247D01*
X178014286Y-119226247D02*
X178014286Y-119083390D01*
X178014286Y-119083390D02*
X178061905Y-118892914D01*
X178061905Y-118892914D02*
X178109524Y-118797676D01*
X178109524Y-118797676D02*
X178204762Y-118702438D01*
X178204762Y-118702438D02*
X178347619Y-118654819D01*
X178347619Y-118654819D02*
X178442857Y-118654819D01*
X178442857Y-118654819D02*
X178585714Y-118702438D01*
X178585714Y-118702438D02*
X178633333Y-118750057D01*
X179109524Y-119654819D02*
X179300000Y-119654819D01*
X179300000Y-119654819D02*
X179395238Y-119607200D01*
X179395238Y-119607200D02*
X179442857Y-119559580D01*
X179442857Y-119559580D02*
X179538095Y-119416723D01*
X179538095Y-119416723D02*
X179585714Y-119226247D01*
X179585714Y-119226247D02*
X179585714Y-118845295D01*
X179585714Y-118845295D02*
X179538095Y-118750057D01*
X179538095Y-118750057D02*
X179490476Y-118702438D01*
X179490476Y-118702438D02*
X179395238Y-118654819D01*
X179395238Y-118654819D02*
X179204762Y-118654819D01*
X179204762Y-118654819D02*
X179109524Y-118702438D01*
X179109524Y-118702438D02*
X179061905Y-118750057D01*
X179061905Y-118750057D02*
X179014286Y-118845295D01*
X179014286Y-118845295D02*
X179014286Y-119083390D01*
X179014286Y-119083390D02*
X179061905Y-119178628D01*
X179061905Y-119178628D02*
X179109524Y-119226247D01*
X179109524Y-119226247D02*
X179204762Y-119273866D01*
X179204762Y-119273866D02*
X179395238Y-119273866D01*
X179395238Y-119273866D02*
X179490476Y-119226247D01*
X179490476Y-119226247D02*
X179538095Y-119178628D01*
X179538095Y-119178628D02*
X179585714Y-119083390D01*
X181033333Y-118988152D02*
X181033333Y-119654819D01*
X180795238Y-118607200D02*
X180557143Y-119321485D01*
X180557143Y-119321485D02*
X181176190Y-119321485D01*
X181461905Y-118654819D02*
X182128571Y-118654819D01*
X182128571Y-118654819D02*
X181700000Y-119654819D01*
X182938095Y-118988152D02*
X182938095Y-119654819D01*
X182509524Y-118988152D02*
X182509524Y-119511961D01*
X182509524Y-119511961D02*
X182557143Y-119607200D01*
X182557143Y-119607200D02*
X182652381Y-119654819D01*
X182652381Y-119654819D02*
X182795238Y-119654819D01*
X182795238Y-119654819D02*
X182890476Y-119607200D01*
X182890476Y-119607200D02*
X182938095Y-119559580D01*
X183747619Y-119131009D02*
X183414286Y-119131009D01*
X183414286Y-119654819D02*
X183414286Y-118654819D01*
X183414286Y-118654819D02*
X183890476Y-118654819D01*
X129657142Y-74154819D02*
X129323809Y-73678628D01*
X129085714Y-74154819D02*
X129085714Y-73154819D01*
X129085714Y-73154819D02*
X129466666Y-73154819D01*
X129466666Y-73154819D02*
X129561904Y-73202438D01*
X129561904Y-73202438D02*
X129609523Y-73250057D01*
X129609523Y-73250057D02*
X129657142Y-73345295D01*
X129657142Y-73345295D02*
X129657142Y-73488152D01*
X129657142Y-73488152D02*
X129609523Y-73583390D01*
X129609523Y-73583390D02*
X129561904Y-73631009D01*
X129561904Y-73631009D02*
X129466666Y-73678628D01*
X129466666Y-73678628D02*
X129085714Y-73678628D01*
X130609523Y-74154819D02*
X130038095Y-74154819D01*
X130323809Y-74154819D02*
X130323809Y-73154819D01*
X130323809Y-73154819D02*
X130228571Y-73297676D01*
X130228571Y-73297676D02*
X130133333Y-73392914D01*
X130133333Y-73392914D02*
X130038095Y-73440533D01*
X131561904Y-74154819D02*
X130990476Y-74154819D01*
X131276190Y-74154819D02*
X131276190Y-73154819D01*
X131276190Y-73154819D02*
X131180952Y-73297676D01*
X131180952Y-73297676D02*
X131085714Y-73392914D01*
X131085714Y-73392914D02*
X130990476Y-73440533D01*
X130009524Y-74550057D02*
X130057143Y-74502438D01*
X130057143Y-74502438D02*
X130152381Y-74454819D01*
X130152381Y-74454819D02*
X130390476Y-74454819D01*
X130390476Y-74454819D02*
X130485714Y-74502438D01*
X130485714Y-74502438D02*
X130533333Y-74550057D01*
X130533333Y-74550057D02*
X130580952Y-74645295D01*
X130580952Y-74645295D02*
X130580952Y-74740533D01*
X130580952Y-74740533D02*
X130533333Y-74883390D01*
X130533333Y-74883390D02*
X129961905Y-75454819D01*
X129961905Y-75454819D02*
X130580952Y-75454819D01*
X131009524Y-75454819D02*
X131009524Y-74454819D01*
X131104762Y-75073866D02*
X131390476Y-75454819D01*
X131390476Y-74788152D02*
X131009524Y-75169104D01*
X145333333Y-76654819D02*
X145000000Y-76178628D01*
X144761905Y-76654819D02*
X144761905Y-75654819D01*
X144761905Y-75654819D02*
X145142857Y-75654819D01*
X145142857Y-75654819D02*
X145238095Y-75702438D01*
X145238095Y-75702438D02*
X145285714Y-75750057D01*
X145285714Y-75750057D02*
X145333333Y-75845295D01*
X145333333Y-75845295D02*
X145333333Y-75988152D01*
X145333333Y-75988152D02*
X145285714Y-76083390D01*
X145285714Y-76083390D02*
X145238095Y-76131009D01*
X145238095Y-76131009D02*
X145142857Y-76178628D01*
X145142857Y-76178628D02*
X144761905Y-76178628D01*
X145904762Y-76083390D02*
X145809524Y-76035771D01*
X145809524Y-76035771D02*
X145761905Y-75988152D01*
X145761905Y-75988152D02*
X145714286Y-75892914D01*
X145714286Y-75892914D02*
X145714286Y-75845295D01*
X145714286Y-75845295D02*
X145761905Y-75750057D01*
X145761905Y-75750057D02*
X145809524Y-75702438D01*
X145809524Y-75702438D02*
X145904762Y-75654819D01*
X145904762Y-75654819D02*
X146095238Y-75654819D01*
X146095238Y-75654819D02*
X146190476Y-75702438D01*
X146190476Y-75702438D02*
X146238095Y-75750057D01*
X146238095Y-75750057D02*
X146285714Y-75845295D01*
X146285714Y-75845295D02*
X146285714Y-75892914D01*
X146285714Y-75892914D02*
X146238095Y-75988152D01*
X146238095Y-75988152D02*
X146190476Y-76035771D01*
X146190476Y-76035771D02*
X146095238Y-76083390D01*
X146095238Y-76083390D02*
X145904762Y-76083390D01*
X145904762Y-76083390D02*
X145809524Y-76131009D01*
X145809524Y-76131009D02*
X145761905Y-76178628D01*
X145761905Y-76178628D02*
X145714286Y-76273866D01*
X145714286Y-76273866D02*
X145714286Y-76464342D01*
X145714286Y-76464342D02*
X145761905Y-76559580D01*
X145761905Y-76559580D02*
X145809524Y-76607200D01*
X145809524Y-76607200D02*
X145904762Y-76654819D01*
X145904762Y-76654819D02*
X146095238Y-76654819D01*
X146095238Y-76654819D02*
X146190476Y-76607200D01*
X146190476Y-76607200D02*
X146238095Y-76559580D01*
X146238095Y-76559580D02*
X146285714Y-76464342D01*
X146285714Y-76464342D02*
X146285714Y-76273866D01*
X146285714Y-76273866D02*
X146238095Y-76178628D01*
X146238095Y-76178628D02*
X146190476Y-76131009D01*
X146190476Y-76131009D02*
X146095238Y-76083390D01*
X145261904Y-77054819D02*
X144785714Y-77054819D01*
X144785714Y-77054819D02*
X144738095Y-77531009D01*
X144738095Y-77531009D02*
X144785714Y-77483390D01*
X144785714Y-77483390D02*
X144880952Y-77435771D01*
X144880952Y-77435771D02*
X145119047Y-77435771D01*
X145119047Y-77435771D02*
X145214285Y-77483390D01*
X145214285Y-77483390D02*
X145261904Y-77531009D01*
X145261904Y-77531009D02*
X145309523Y-77626247D01*
X145309523Y-77626247D02*
X145309523Y-77864342D01*
X145309523Y-77864342D02*
X145261904Y-77959580D01*
X145261904Y-77959580D02*
X145214285Y-78007200D01*
X145214285Y-78007200D02*
X145119047Y-78054819D01*
X145119047Y-78054819D02*
X144880952Y-78054819D01*
X144880952Y-78054819D02*
X144785714Y-78007200D01*
X144785714Y-78007200D02*
X144738095Y-77959580D01*
X146261904Y-78054819D02*
X145690476Y-78054819D01*
X145976190Y-78054819D02*
X145976190Y-77054819D01*
X145976190Y-77054819D02*
X145880952Y-77197676D01*
X145880952Y-77197676D02*
X145785714Y-77292914D01*
X145785714Y-77292914D02*
X145690476Y-77340533D01*
X145333333Y-71459580D02*
X145285714Y-71507200D01*
X145285714Y-71507200D02*
X145142857Y-71554819D01*
X145142857Y-71554819D02*
X145047619Y-71554819D01*
X145047619Y-71554819D02*
X144904762Y-71507200D01*
X144904762Y-71507200D02*
X144809524Y-71411961D01*
X144809524Y-71411961D02*
X144761905Y-71316723D01*
X144761905Y-71316723D02*
X144714286Y-71126247D01*
X144714286Y-71126247D02*
X144714286Y-70983390D01*
X144714286Y-70983390D02*
X144761905Y-70792914D01*
X144761905Y-70792914D02*
X144809524Y-70697676D01*
X144809524Y-70697676D02*
X144904762Y-70602438D01*
X144904762Y-70602438D02*
X145047619Y-70554819D01*
X145047619Y-70554819D02*
X145142857Y-70554819D01*
X145142857Y-70554819D02*
X145285714Y-70602438D01*
X145285714Y-70602438D02*
X145333333Y-70650057D01*
X145904762Y-70983390D02*
X145809524Y-70935771D01*
X145809524Y-70935771D02*
X145761905Y-70888152D01*
X145761905Y-70888152D02*
X145714286Y-70792914D01*
X145714286Y-70792914D02*
X145714286Y-70745295D01*
X145714286Y-70745295D02*
X145761905Y-70650057D01*
X145761905Y-70650057D02*
X145809524Y-70602438D01*
X145809524Y-70602438D02*
X145904762Y-70554819D01*
X145904762Y-70554819D02*
X146095238Y-70554819D01*
X146095238Y-70554819D02*
X146190476Y-70602438D01*
X146190476Y-70602438D02*
X146238095Y-70650057D01*
X146238095Y-70650057D02*
X146285714Y-70745295D01*
X146285714Y-70745295D02*
X146285714Y-70792914D01*
X146285714Y-70792914D02*
X146238095Y-70888152D01*
X146238095Y-70888152D02*
X146190476Y-70935771D01*
X146190476Y-70935771D02*
X146095238Y-70983390D01*
X146095238Y-70983390D02*
X145904762Y-70983390D01*
X145904762Y-70983390D02*
X145809524Y-71031009D01*
X145809524Y-71031009D02*
X145761905Y-71078628D01*
X145761905Y-71078628D02*
X145714286Y-71173866D01*
X145714286Y-71173866D02*
X145714286Y-71364342D01*
X145714286Y-71364342D02*
X145761905Y-71459580D01*
X145761905Y-71459580D02*
X145809524Y-71507200D01*
X145809524Y-71507200D02*
X145904762Y-71554819D01*
X145904762Y-71554819D02*
X146095238Y-71554819D01*
X146095238Y-71554819D02*
X146190476Y-71507200D01*
X146190476Y-71507200D02*
X146238095Y-71459580D01*
X146238095Y-71459580D02*
X146285714Y-71364342D01*
X146285714Y-71364342D02*
X146285714Y-71173866D01*
X146285714Y-71173866D02*
X146238095Y-71078628D01*
X146238095Y-71078628D02*
X146190476Y-71031009D01*
X146190476Y-71031009D02*
X146095238Y-70983390D01*
X144957143Y-71954819D02*
X145052381Y-71954819D01*
X145052381Y-71954819D02*
X145147619Y-72002438D01*
X145147619Y-72002438D02*
X145195238Y-72050057D01*
X145195238Y-72050057D02*
X145242857Y-72145295D01*
X145242857Y-72145295D02*
X145290476Y-72335771D01*
X145290476Y-72335771D02*
X145290476Y-72573866D01*
X145290476Y-72573866D02*
X145242857Y-72764342D01*
X145242857Y-72764342D02*
X145195238Y-72859580D01*
X145195238Y-72859580D02*
X145147619Y-72907200D01*
X145147619Y-72907200D02*
X145052381Y-72954819D01*
X145052381Y-72954819D02*
X144957143Y-72954819D01*
X144957143Y-72954819D02*
X144861905Y-72907200D01*
X144861905Y-72907200D02*
X144814286Y-72859580D01*
X144814286Y-72859580D02*
X144766667Y-72764342D01*
X144766667Y-72764342D02*
X144719048Y-72573866D01*
X144719048Y-72573866D02*
X144719048Y-72335771D01*
X144719048Y-72335771D02*
X144766667Y-72145295D01*
X144766667Y-72145295D02*
X144814286Y-72050057D01*
X144814286Y-72050057D02*
X144861905Y-72002438D01*
X144861905Y-72002438D02*
X144957143Y-71954819D01*
X145719048Y-72859580D02*
X145766667Y-72907200D01*
X145766667Y-72907200D02*
X145719048Y-72954819D01*
X145719048Y-72954819D02*
X145671429Y-72907200D01*
X145671429Y-72907200D02*
X145719048Y-72859580D01*
X145719048Y-72859580D02*
X145719048Y-72954819D01*
X146719047Y-72954819D02*
X146147619Y-72954819D01*
X146433333Y-72954819D02*
X146433333Y-71954819D01*
X146433333Y-71954819D02*
X146338095Y-72097676D01*
X146338095Y-72097676D02*
X146242857Y-72192914D01*
X146242857Y-72192914D02*
X146147619Y-72240533D01*
X147576190Y-72288152D02*
X147576190Y-72954819D01*
X147147619Y-72288152D02*
X147147619Y-72811961D01*
X147147619Y-72811961D02*
X147195238Y-72907200D01*
X147195238Y-72907200D02*
X147290476Y-72954819D01*
X147290476Y-72954819D02*
X147433333Y-72954819D01*
X147433333Y-72954819D02*
X147528571Y-72907200D01*
X147528571Y-72907200D02*
X147576190Y-72859580D01*
X148385714Y-72431009D02*
X148052381Y-72431009D01*
X148052381Y-72954819D02*
X148052381Y-71954819D01*
X148052381Y-71954819D02*
X148528571Y-71954819D01*
X134438095Y-81454819D02*
X135009523Y-81454819D01*
X134723809Y-82454819D02*
X134723809Y-81454819D01*
X135866666Y-82454819D02*
X135295238Y-82454819D01*
X135580952Y-82454819D02*
X135580952Y-81454819D01*
X135580952Y-81454819D02*
X135485714Y-81597676D01*
X135485714Y-81597676D02*
X135390476Y-81692914D01*
X135390476Y-81692914D02*
X135295238Y-81740533D01*
X126257142Y-112159580D02*
X126209523Y-112207200D01*
X126209523Y-112207200D02*
X126066666Y-112254819D01*
X126066666Y-112254819D02*
X125971428Y-112254819D01*
X125971428Y-112254819D02*
X125828571Y-112207200D01*
X125828571Y-112207200D02*
X125733333Y-112111961D01*
X125733333Y-112111961D02*
X125685714Y-112016723D01*
X125685714Y-112016723D02*
X125638095Y-111826247D01*
X125638095Y-111826247D02*
X125638095Y-111683390D01*
X125638095Y-111683390D02*
X125685714Y-111492914D01*
X125685714Y-111492914D02*
X125733333Y-111397676D01*
X125733333Y-111397676D02*
X125828571Y-111302438D01*
X125828571Y-111302438D02*
X125971428Y-111254819D01*
X125971428Y-111254819D02*
X126066666Y-111254819D01*
X126066666Y-111254819D02*
X126209523Y-111302438D01*
X126209523Y-111302438D02*
X126257142Y-111350057D01*
X127209523Y-112254819D02*
X126638095Y-112254819D01*
X126923809Y-112254819D02*
X126923809Y-111254819D01*
X126923809Y-111254819D02*
X126828571Y-111397676D01*
X126828571Y-111397676D02*
X126733333Y-111492914D01*
X126733333Y-111492914D02*
X126638095Y-111540533D01*
X128066666Y-111588152D02*
X128066666Y-112254819D01*
X127828571Y-111207200D02*
X127590476Y-111921485D01*
X127590476Y-111921485D02*
X128209523Y-111921485D01*
X129057143Y-111244819D02*
X129152381Y-111244819D01*
X129152381Y-111244819D02*
X129247619Y-111292438D01*
X129247619Y-111292438D02*
X129295238Y-111340057D01*
X129295238Y-111340057D02*
X129342857Y-111435295D01*
X129342857Y-111435295D02*
X129390476Y-111625771D01*
X129390476Y-111625771D02*
X129390476Y-111863866D01*
X129390476Y-111863866D02*
X129342857Y-112054342D01*
X129342857Y-112054342D02*
X129295238Y-112149580D01*
X129295238Y-112149580D02*
X129247619Y-112197200D01*
X129247619Y-112197200D02*
X129152381Y-112244819D01*
X129152381Y-112244819D02*
X129057143Y-112244819D01*
X129057143Y-112244819D02*
X128961905Y-112197200D01*
X128961905Y-112197200D02*
X128914286Y-112149580D01*
X128914286Y-112149580D02*
X128866667Y-112054342D01*
X128866667Y-112054342D02*
X128819048Y-111863866D01*
X128819048Y-111863866D02*
X128819048Y-111625771D01*
X128819048Y-111625771D02*
X128866667Y-111435295D01*
X128866667Y-111435295D02*
X128914286Y-111340057D01*
X128914286Y-111340057D02*
X128961905Y-111292438D01*
X128961905Y-111292438D02*
X129057143Y-111244819D01*
X129819048Y-112149580D02*
X129866667Y-112197200D01*
X129866667Y-112197200D02*
X129819048Y-112244819D01*
X129819048Y-112244819D02*
X129771429Y-112197200D01*
X129771429Y-112197200D02*
X129819048Y-112149580D01*
X129819048Y-112149580D02*
X129819048Y-112244819D01*
X130819047Y-112244819D02*
X130247619Y-112244819D01*
X130533333Y-112244819D02*
X130533333Y-111244819D01*
X130533333Y-111244819D02*
X130438095Y-111387676D01*
X130438095Y-111387676D02*
X130342857Y-111482914D01*
X130342857Y-111482914D02*
X130247619Y-111530533D01*
X131676190Y-111578152D02*
X131676190Y-112244819D01*
X131247619Y-111578152D02*
X131247619Y-112101961D01*
X131247619Y-112101961D02*
X131295238Y-112197200D01*
X131295238Y-112197200D02*
X131390476Y-112244819D01*
X131390476Y-112244819D02*
X131533333Y-112244819D01*
X131533333Y-112244819D02*
X131628571Y-112197200D01*
X131628571Y-112197200D02*
X131676190Y-112149580D01*
X132485714Y-111721009D02*
X132152381Y-111721009D01*
X132152381Y-112244819D02*
X132152381Y-111244819D01*
X132152381Y-111244819D02*
X132628571Y-111244819D01*
X147233333Y-111354819D02*
X146900000Y-110878628D01*
X146661905Y-111354819D02*
X146661905Y-110354819D01*
X146661905Y-110354819D02*
X147042857Y-110354819D01*
X147042857Y-110354819D02*
X147138095Y-110402438D01*
X147138095Y-110402438D02*
X147185714Y-110450057D01*
X147185714Y-110450057D02*
X147233333Y-110545295D01*
X147233333Y-110545295D02*
X147233333Y-110688152D01*
X147233333Y-110688152D02*
X147185714Y-110783390D01*
X147185714Y-110783390D02*
X147138095Y-110831009D01*
X147138095Y-110831009D02*
X147042857Y-110878628D01*
X147042857Y-110878628D02*
X146661905Y-110878628D01*
X147709524Y-111354819D02*
X147900000Y-111354819D01*
X147900000Y-111354819D02*
X147995238Y-111307200D01*
X147995238Y-111307200D02*
X148042857Y-111259580D01*
X148042857Y-111259580D02*
X148138095Y-111116723D01*
X148138095Y-111116723D02*
X148185714Y-110926247D01*
X148185714Y-110926247D02*
X148185714Y-110545295D01*
X148185714Y-110545295D02*
X148138095Y-110450057D01*
X148138095Y-110450057D02*
X148090476Y-110402438D01*
X148090476Y-110402438D02*
X147995238Y-110354819D01*
X147995238Y-110354819D02*
X147804762Y-110354819D01*
X147804762Y-110354819D02*
X147709524Y-110402438D01*
X147709524Y-110402438D02*
X147661905Y-110450057D01*
X147661905Y-110450057D02*
X147614286Y-110545295D01*
X147614286Y-110545295D02*
X147614286Y-110783390D01*
X147614286Y-110783390D02*
X147661905Y-110878628D01*
X147661905Y-110878628D02*
X147709524Y-110926247D01*
X147709524Y-110926247D02*
X147804762Y-110973866D01*
X147804762Y-110973866D02*
X147995238Y-110973866D01*
X147995238Y-110973866D02*
X148090476Y-110926247D01*
X148090476Y-110926247D02*
X148138095Y-110878628D01*
X148138095Y-110878628D02*
X148185714Y-110783390D01*
X147157142Y-111694819D02*
X146680952Y-111694819D01*
X146680952Y-111694819D02*
X146633333Y-112171009D01*
X146633333Y-112171009D02*
X146680952Y-112123390D01*
X146680952Y-112123390D02*
X146776190Y-112075771D01*
X146776190Y-112075771D02*
X147014285Y-112075771D01*
X147014285Y-112075771D02*
X147109523Y-112123390D01*
X147109523Y-112123390D02*
X147157142Y-112171009D01*
X147157142Y-112171009D02*
X147204761Y-112266247D01*
X147204761Y-112266247D02*
X147204761Y-112504342D01*
X147204761Y-112504342D02*
X147157142Y-112599580D01*
X147157142Y-112599580D02*
X147109523Y-112647200D01*
X147109523Y-112647200D02*
X147014285Y-112694819D01*
X147014285Y-112694819D02*
X146776190Y-112694819D01*
X146776190Y-112694819D02*
X146680952Y-112647200D01*
X146680952Y-112647200D02*
X146633333Y-112599580D01*
X148061904Y-111694819D02*
X147871428Y-111694819D01*
X147871428Y-111694819D02*
X147776190Y-111742438D01*
X147776190Y-111742438D02*
X147728571Y-111790057D01*
X147728571Y-111790057D02*
X147633333Y-111932914D01*
X147633333Y-111932914D02*
X147585714Y-112123390D01*
X147585714Y-112123390D02*
X147585714Y-112504342D01*
X147585714Y-112504342D02*
X147633333Y-112599580D01*
X147633333Y-112599580D02*
X147680952Y-112647200D01*
X147680952Y-112647200D02*
X147776190Y-112694819D01*
X147776190Y-112694819D02*
X147966666Y-112694819D01*
X147966666Y-112694819D02*
X148061904Y-112647200D01*
X148061904Y-112647200D02*
X148109523Y-112599580D01*
X148109523Y-112599580D02*
X148157142Y-112504342D01*
X148157142Y-112504342D02*
X148157142Y-112266247D01*
X148157142Y-112266247D02*
X148109523Y-112171009D01*
X148109523Y-112171009D02*
X148061904Y-112123390D01*
X148061904Y-112123390D02*
X147966666Y-112075771D01*
X147966666Y-112075771D02*
X147776190Y-112075771D01*
X147776190Y-112075771D02*
X147680952Y-112123390D01*
X147680952Y-112123390D02*
X147633333Y-112171009D01*
X147633333Y-112171009D02*
X147585714Y-112266247D01*
X148585714Y-112694819D02*
X148585714Y-111694819D01*
X148680952Y-112313866D02*
X148966666Y-112694819D01*
X148966666Y-112028152D02*
X148585714Y-112409104D01*
X142233333Y-102354819D02*
X141900000Y-101878628D01*
X141661905Y-102354819D02*
X141661905Y-101354819D01*
X141661905Y-101354819D02*
X142042857Y-101354819D01*
X142042857Y-101354819D02*
X142138095Y-101402438D01*
X142138095Y-101402438D02*
X142185714Y-101450057D01*
X142185714Y-101450057D02*
X142233333Y-101545295D01*
X142233333Y-101545295D02*
X142233333Y-101688152D01*
X142233333Y-101688152D02*
X142185714Y-101783390D01*
X142185714Y-101783390D02*
X142138095Y-101831009D01*
X142138095Y-101831009D02*
X142042857Y-101878628D01*
X142042857Y-101878628D02*
X141661905Y-101878628D01*
X143090476Y-101354819D02*
X142900000Y-101354819D01*
X142900000Y-101354819D02*
X142804762Y-101402438D01*
X142804762Y-101402438D02*
X142757143Y-101450057D01*
X142757143Y-101450057D02*
X142661905Y-101592914D01*
X142661905Y-101592914D02*
X142614286Y-101783390D01*
X142614286Y-101783390D02*
X142614286Y-102164342D01*
X142614286Y-102164342D02*
X142661905Y-102259580D01*
X142661905Y-102259580D02*
X142709524Y-102307200D01*
X142709524Y-102307200D02*
X142804762Y-102354819D01*
X142804762Y-102354819D02*
X142995238Y-102354819D01*
X142995238Y-102354819D02*
X143090476Y-102307200D01*
X143090476Y-102307200D02*
X143138095Y-102259580D01*
X143138095Y-102259580D02*
X143185714Y-102164342D01*
X143185714Y-102164342D02*
X143185714Y-101926247D01*
X143185714Y-101926247D02*
X143138095Y-101831009D01*
X143138095Y-101831009D02*
X143090476Y-101783390D01*
X143090476Y-101783390D02*
X142995238Y-101735771D01*
X142995238Y-101735771D02*
X142804762Y-101735771D01*
X142804762Y-101735771D02*
X142709524Y-101783390D01*
X142709524Y-101783390D02*
X142661905Y-101831009D01*
X142661905Y-101831009D02*
X142614286Y-101926247D01*
X142161904Y-102654819D02*
X141685714Y-102654819D01*
X141685714Y-102654819D02*
X141638095Y-103131009D01*
X141638095Y-103131009D02*
X141685714Y-103083390D01*
X141685714Y-103083390D02*
X141780952Y-103035771D01*
X141780952Y-103035771D02*
X142019047Y-103035771D01*
X142019047Y-103035771D02*
X142114285Y-103083390D01*
X142114285Y-103083390D02*
X142161904Y-103131009D01*
X142161904Y-103131009D02*
X142209523Y-103226247D01*
X142209523Y-103226247D02*
X142209523Y-103464342D01*
X142209523Y-103464342D02*
X142161904Y-103559580D01*
X142161904Y-103559580D02*
X142114285Y-103607200D01*
X142114285Y-103607200D02*
X142019047Y-103654819D01*
X142019047Y-103654819D02*
X141780952Y-103654819D01*
X141780952Y-103654819D02*
X141685714Y-103607200D01*
X141685714Y-103607200D02*
X141638095Y-103559580D01*
X143161904Y-103654819D02*
X142590476Y-103654819D01*
X142876190Y-103654819D02*
X142876190Y-102654819D01*
X142876190Y-102654819D02*
X142780952Y-102797676D01*
X142780952Y-102797676D02*
X142685714Y-102892914D01*
X142685714Y-102892914D02*
X142590476Y-102940533D01*
X145233333Y-98159580D02*
X145185714Y-98207200D01*
X145185714Y-98207200D02*
X145042857Y-98254819D01*
X145042857Y-98254819D02*
X144947619Y-98254819D01*
X144947619Y-98254819D02*
X144804762Y-98207200D01*
X144804762Y-98207200D02*
X144709524Y-98111961D01*
X144709524Y-98111961D02*
X144661905Y-98016723D01*
X144661905Y-98016723D02*
X144614286Y-97826247D01*
X144614286Y-97826247D02*
X144614286Y-97683390D01*
X144614286Y-97683390D02*
X144661905Y-97492914D01*
X144661905Y-97492914D02*
X144709524Y-97397676D01*
X144709524Y-97397676D02*
X144804762Y-97302438D01*
X144804762Y-97302438D02*
X144947619Y-97254819D01*
X144947619Y-97254819D02*
X145042857Y-97254819D01*
X145042857Y-97254819D02*
X145185714Y-97302438D01*
X145185714Y-97302438D02*
X145233333Y-97350057D01*
X146090476Y-97254819D02*
X145900000Y-97254819D01*
X145900000Y-97254819D02*
X145804762Y-97302438D01*
X145804762Y-97302438D02*
X145757143Y-97350057D01*
X145757143Y-97350057D02*
X145661905Y-97492914D01*
X145661905Y-97492914D02*
X145614286Y-97683390D01*
X145614286Y-97683390D02*
X145614286Y-98064342D01*
X145614286Y-98064342D02*
X145661905Y-98159580D01*
X145661905Y-98159580D02*
X145709524Y-98207200D01*
X145709524Y-98207200D02*
X145804762Y-98254819D01*
X145804762Y-98254819D02*
X145995238Y-98254819D01*
X145995238Y-98254819D02*
X146090476Y-98207200D01*
X146090476Y-98207200D02*
X146138095Y-98159580D01*
X146138095Y-98159580D02*
X146185714Y-98064342D01*
X146185714Y-98064342D02*
X146185714Y-97826247D01*
X146185714Y-97826247D02*
X146138095Y-97731009D01*
X146138095Y-97731009D02*
X146090476Y-97683390D01*
X146090476Y-97683390D02*
X145995238Y-97635771D01*
X145995238Y-97635771D02*
X145804762Y-97635771D01*
X145804762Y-97635771D02*
X145709524Y-97683390D01*
X145709524Y-97683390D02*
X145661905Y-97731009D01*
X145661905Y-97731009D02*
X145614286Y-97826247D01*
X147157143Y-97254819D02*
X147252381Y-97254819D01*
X147252381Y-97254819D02*
X147347619Y-97302438D01*
X147347619Y-97302438D02*
X147395238Y-97350057D01*
X147395238Y-97350057D02*
X147442857Y-97445295D01*
X147442857Y-97445295D02*
X147490476Y-97635771D01*
X147490476Y-97635771D02*
X147490476Y-97873866D01*
X147490476Y-97873866D02*
X147442857Y-98064342D01*
X147442857Y-98064342D02*
X147395238Y-98159580D01*
X147395238Y-98159580D02*
X147347619Y-98207200D01*
X147347619Y-98207200D02*
X147252381Y-98254819D01*
X147252381Y-98254819D02*
X147157143Y-98254819D01*
X147157143Y-98254819D02*
X147061905Y-98207200D01*
X147061905Y-98207200D02*
X147014286Y-98159580D01*
X147014286Y-98159580D02*
X146966667Y-98064342D01*
X146966667Y-98064342D02*
X146919048Y-97873866D01*
X146919048Y-97873866D02*
X146919048Y-97635771D01*
X146919048Y-97635771D02*
X146966667Y-97445295D01*
X146966667Y-97445295D02*
X147014286Y-97350057D01*
X147014286Y-97350057D02*
X147061905Y-97302438D01*
X147061905Y-97302438D02*
X147157143Y-97254819D01*
X147919048Y-98159580D02*
X147966667Y-98207200D01*
X147966667Y-98207200D02*
X147919048Y-98254819D01*
X147919048Y-98254819D02*
X147871429Y-98207200D01*
X147871429Y-98207200D02*
X147919048Y-98159580D01*
X147919048Y-98159580D02*
X147919048Y-98254819D01*
X148919047Y-98254819D02*
X148347619Y-98254819D01*
X148633333Y-98254819D02*
X148633333Y-97254819D01*
X148633333Y-97254819D02*
X148538095Y-97397676D01*
X148538095Y-97397676D02*
X148442857Y-97492914D01*
X148442857Y-97492914D02*
X148347619Y-97540533D01*
X149776190Y-97588152D02*
X149776190Y-98254819D01*
X149347619Y-97588152D02*
X149347619Y-98111961D01*
X149347619Y-98111961D02*
X149395238Y-98207200D01*
X149395238Y-98207200D02*
X149490476Y-98254819D01*
X149490476Y-98254819D02*
X149633333Y-98254819D01*
X149633333Y-98254819D02*
X149728571Y-98207200D01*
X149728571Y-98207200D02*
X149776190Y-98159580D01*
X150585714Y-97731009D02*
X150252381Y-97731009D01*
X150252381Y-98254819D02*
X150252381Y-97254819D01*
X150252381Y-97254819D02*
X150728571Y-97254819D01*
X159811905Y-131654819D02*
X159811905Y-130654819D01*
X159811905Y-130654819D02*
X160050000Y-130654819D01*
X160050000Y-130654819D02*
X160192857Y-130702438D01*
X160192857Y-130702438D02*
X160288095Y-130797676D01*
X160288095Y-130797676D02*
X160335714Y-130892914D01*
X160335714Y-130892914D02*
X160383333Y-131083390D01*
X160383333Y-131083390D02*
X160383333Y-131226247D01*
X160383333Y-131226247D02*
X160335714Y-131416723D01*
X160335714Y-131416723D02*
X160288095Y-131511961D01*
X160288095Y-131511961D02*
X160192857Y-131607200D01*
X160192857Y-131607200D02*
X160050000Y-131654819D01*
X160050000Y-131654819D02*
X159811905Y-131654819D01*
X161335714Y-131654819D02*
X160764286Y-131654819D01*
X161050000Y-131654819D02*
X161050000Y-130654819D01*
X161050000Y-130654819D02*
X160954762Y-130797676D01*
X160954762Y-130797676D02*
X160859524Y-130892914D01*
X160859524Y-130892914D02*
X160764286Y-130940533D01*
X140266666Y-136731009D02*
X139933333Y-136731009D01*
X139933333Y-137254819D02*
X139933333Y-136254819D01*
X139933333Y-136254819D02*
X140409523Y-136254819D01*
X141314285Y-137254819D02*
X140742857Y-137254819D01*
X141028571Y-137254819D02*
X141028571Y-136254819D01*
X141028571Y-136254819D02*
X140933333Y-136397676D01*
X140933333Y-136397676D02*
X140838095Y-136492914D01*
X140838095Y-136492914D02*
X140742857Y-136540533D01*
X142333333Y-105059580D02*
X142285714Y-105107200D01*
X142285714Y-105107200D02*
X142142857Y-105154819D01*
X142142857Y-105154819D02*
X142047619Y-105154819D01*
X142047619Y-105154819D02*
X141904762Y-105107200D01*
X141904762Y-105107200D02*
X141809524Y-105011961D01*
X141809524Y-105011961D02*
X141761905Y-104916723D01*
X141761905Y-104916723D02*
X141714286Y-104726247D01*
X141714286Y-104726247D02*
X141714286Y-104583390D01*
X141714286Y-104583390D02*
X141761905Y-104392914D01*
X141761905Y-104392914D02*
X141809524Y-104297676D01*
X141809524Y-104297676D02*
X141904762Y-104202438D01*
X141904762Y-104202438D02*
X142047619Y-104154819D01*
X142047619Y-104154819D02*
X142142857Y-104154819D01*
X142142857Y-104154819D02*
X142285714Y-104202438D01*
X142285714Y-104202438D02*
X142333333Y-104250057D01*
X142666667Y-104154819D02*
X143333333Y-104154819D01*
X143333333Y-104154819D02*
X142904762Y-105154819D01*
X141957143Y-105554819D02*
X142052381Y-105554819D01*
X142052381Y-105554819D02*
X142147619Y-105602438D01*
X142147619Y-105602438D02*
X142195238Y-105650057D01*
X142195238Y-105650057D02*
X142242857Y-105745295D01*
X142242857Y-105745295D02*
X142290476Y-105935771D01*
X142290476Y-105935771D02*
X142290476Y-106173866D01*
X142290476Y-106173866D02*
X142242857Y-106364342D01*
X142242857Y-106364342D02*
X142195238Y-106459580D01*
X142195238Y-106459580D02*
X142147619Y-106507200D01*
X142147619Y-106507200D02*
X142052381Y-106554819D01*
X142052381Y-106554819D02*
X141957143Y-106554819D01*
X141957143Y-106554819D02*
X141861905Y-106507200D01*
X141861905Y-106507200D02*
X141814286Y-106459580D01*
X141814286Y-106459580D02*
X141766667Y-106364342D01*
X141766667Y-106364342D02*
X141719048Y-106173866D01*
X141719048Y-106173866D02*
X141719048Y-105935771D01*
X141719048Y-105935771D02*
X141766667Y-105745295D01*
X141766667Y-105745295D02*
X141814286Y-105650057D01*
X141814286Y-105650057D02*
X141861905Y-105602438D01*
X141861905Y-105602438D02*
X141957143Y-105554819D01*
X142719048Y-106459580D02*
X142766667Y-106507200D01*
X142766667Y-106507200D02*
X142719048Y-106554819D01*
X142719048Y-106554819D02*
X142671429Y-106507200D01*
X142671429Y-106507200D02*
X142719048Y-106459580D01*
X142719048Y-106459580D02*
X142719048Y-106554819D01*
X143719047Y-106554819D02*
X143147619Y-106554819D01*
X143433333Y-106554819D02*
X143433333Y-105554819D01*
X143433333Y-105554819D02*
X143338095Y-105697676D01*
X143338095Y-105697676D02*
X143242857Y-105792914D01*
X143242857Y-105792914D02*
X143147619Y-105840533D01*
X144576190Y-105888152D02*
X144576190Y-106554819D01*
X144147619Y-105888152D02*
X144147619Y-106411961D01*
X144147619Y-106411961D02*
X144195238Y-106507200D01*
X144195238Y-106507200D02*
X144290476Y-106554819D01*
X144290476Y-106554819D02*
X144433333Y-106554819D01*
X144433333Y-106554819D02*
X144528571Y-106507200D01*
X144528571Y-106507200D02*
X144576190Y-106459580D01*
X145385714Y-106031009D02*
X145052381Y-106031009D01*
X145052381Y-106554819D02*
X145052381Y-105554819D01*
X145052381Y-105554819D02*
X145528571Y-105554819D01*
X174707142Y-136659580D02*
X174659523Y-136707200D01*
X174659523Y-136707200D02*
X174516666Y-136754819D01*
X174516666Y-136754819D02*
X174421428Y-136754819D01*
X174421428Y-136754819D02*
X174278571Y-136707200D01*
X174278571Y-136707200D02*
X174183333Y-136611961D01*
X174183333Y-136611961D02*
X174135714Y-136516723D01*
X174135714Y-136516723D02*
X174088095Y-136326247D01*
X174088095Y-136326247D02*
X174088095Y-136183390D01*
X174088095Y-136183390D02*
X174135714Y-135992914D01*
X174135714Y-135992914D02*
X174183333Y-135897676D01*
X174183333Y-135897676D02*
X174278571Y-135802438D01*
X174278571Y-135802438D02*
X174421428Y-135754819D01*
X174421428Y-135754819D02*
X174516666Y-135754819D01*
X174516666Y-135754819D02*
X174659523Y-135802438D01*
X174659523Y-135802438D02*
X174707142Y-135850057D01*
X175659523Y-136754819D02*
X175088095Y-136754819D01*
X175373809Y-136754819D02*
X175373809Y-135754819D01*
X175373809Y-135754819D02*
X175278571Y-135897676D01*
X175278571Y-135897676D02*
X175183333Y-135992914D01*
X175183333Y-135992914D02*
X175088095Y-136040533D01*
X176278571Y-135754819D02*
X176373809Y-135754819D01*
X176373809Y-135754819D02*
X176469047Y-135802438D01*
X176469047Y-135802438D02*
X176516666Y-135850057D01*
X176516666Y-135850057D02*
X176564285Y-135945295D01*
X176564285Y-135945295D02*
X176611904Y-136135771D01*
X176611904Y-136135771D02*
X176611904Y-136373866D01*
X176611904Y-136373866D02*
X176564285Y-136564342D01*
X176564285Y-136564342D02*
X176516666Y-136659580D01*
X176516666Y-136659580D02*
X176469047Y-136707200D01*
X176469047Y-136707200D02*
X176373809Y-136754819D01*
X176373809Y-136754819D02*
X176278571Y-136754819D01*
X176278571Y-136754819D02*
X176183333Y-136707200D01*
X176183333Y-136707200D02*
X176135714Y-136659580D01*
X176135714Y-136659580D02*
X176088095Y-136564342D01*
X176088095Y-136564342D02*
X176040476Y-136373866D01*
X176040476Y-136373866D02*
X176040476Y-136135771D01*
X176040476Y-136135771D02*
X176088095Y-135945295D01*
X176088095Y-135945295D02*
X176135714Y-135850057D01*
X176135714Y-135850057D02*
X176183333Y-135802438D01*
X176183333Y-135802438D02*
X176278571Y-135754819D01*
X174083333Y-137388152D02*
X174083333Y-138054819D01*
X173845238Y-137007200D02*
X173607143Y-137721485D01*
X173607143Y-137721485D02*
X174226190Y-137721485D01*
X174511905Y-137054819D02*
X175178571Y-137054819D01*
X175178571Y-137054819D02*
X174750000Y-138054819D01*
X175988095Y-137388152D02*
X175988095Y-138054819D01*
X175559524Y-137388152D02*
X175559524Y-137911961D01*
X175559524Y-137911961D02*
X175607143Y-138007200D01*
X175607143Y-138007200D02*
X175702381Y-138054819D01*
X175702381Y-138054819D02*
X175845238Y-138054819D01*
X175845238Y-138054819D02*
X175940476Y-138007200D01*
X175940476Y-138007200D02*
X175988095Y-137959580D01*
X176797619Y-137531009D02*
X176464286Y-137531009D01*
X176464286Y-138054819D02*
X176464286Y-137054819D01*
X176464286Y-137054819D02*
X176940476Y-137054819D01*
X161204761Y-68150057D02*
X161109523Y-68102438D01*
X161109523Y-68102438D02*
X161014285Y-68007200D01*
X161014285Y-68007200D02*
X160871428Y-67864342D01*
X160871428Y-67864342D02*
X160776190Y-67816723D01*
X160776190Y-67816723D02*
X160680952Y-67816723D01*
X160728571Y-68054819D02*
X160633333Y-68007200D01*
X160633333Y-68007200D02*
X160538095Y-67911961D01*
X160538095Y-67911961D02*
X160490476Y-67721485D01*
X160490476Y-67721485D02*
X160490476Y-67388152D01*
X160490476Y-67388152D02*
X160538095Y-67197676D01*
X160538095Y-67197676D02*
X160633333Y-67102438D01*
X160633333Y-67102438D02*
X160728571Y-67054819D01*
X160728571Y-67054819D02*
X160919047Y-67054819D01*
X160919047Y-67054819D02*
X161014285Y-67102438D01*
X161014285Y-67102438D02*
X161109523Y-67197676D01*
X161109523Y-67197676D02*
X161157142Y-67388152D01*
X161157142Y-67388152D02*
X161157142Y-67721485D01*
X161157142Y-67721485D02*
X161109523Y-67911961D01*
X161109523Y-67911961D02*
X161014285Y-68007200D01*
X161014285Y-68007200D02*
X160919047Y-68054819D01*
X160919047Y-68054819D02*
X160728571Y-68054819D01*
X161490476Y-67054819D02*
X162109523Y-67054819D01*
X162109523Y-67054819D02*
X161776190Y-67435771D01*
X161776190Y-67435771D02*
X161919047Y-67435771D01*
X161919047Y-67435771D02*
X162014285Y-67483390D01*
X162014285Y-67483390D02*
X162061904Y-67531009D01*
X162061904Y-67531009D02*
X162109523Y-67626247D01*
X162109523Y-67626247D02*
X162109523Y-67864342D01*
X162109523Y-67864342D02*
X162061904Y-67959580D01*
X162061904Y-67959580D02*
X162014285Y-68007200D01*
X162014285Y-68007200D02*
X161919047Y-68054819D01*
X161919047Y-68054819D02*
X161633333Y-68054819D01*
X161633333Y-68054819D02*
X161538095Y-68007200D01*
X161538095Y-68007200D02*
X161490476Y-67959580D01*
X137738095Y-107254819D02*
X137738095Y-108064342D01*
X137738095Y-108064342D02*
X137785714Y-108159580D01*
X137785714Y-108159580D02*
X137833333Y-108207200D01*
X137833333Y-108207200D02*
X137928571Y-108254819D01*
X137928571Y-108254819D02*
X138119047Y-108254819D01*
X138119047Y-108254819D02*
X138214285Y-108207200D01*
X138214285Y-108207200D02*
X138261904Y-108159580D01*
X138261904Y-108159580D02*
X138309523Y-108064342D01*
X138309523Y-108064342D02*
X138309523Y-107254819D01*
X138738095Y-107350057D02*
X138785714Y-107302438D01*
X138785714Y-107302438D02*
X138880952Y-107254819D01*
X138880952Y-107254819D02*
X139119047Y-107254819D01*
X139119047Y-107254819D02*
X139214285Y-107302438D01*
X139214285Y-107302438D02*
X139261904Y-107350057D01*
X139261904Y-107350057D02*
X139309523Y-107445295D01*
X139309523Y-107445295D02*
X139309523Y-107540533D01*
X139309523Y-107540533D02*
X139261904Y-107683390D01*
X139261904Y-107683390D02*
X138690476Y-108254819D01*
X138690476Y-108254819D02*
X139309523Y-108254819D01*
X176333333Y-112859580D02*
X176285714Y-112907200D01*
X176285714Y-112907200D02*
X176142857Y-112954819D01*
X176142857Y-112954819D02*
X176047619Y-112954819D01*
X176047619Y-112954819D02*
X175904762Y-112907200D01*
X175904762Y-112907200D02*
X175809524Y-112811961D01*
X175809524Y-112811961D02*
X175761905Y-112716723D01*
X175761905Y-112716723D02*
X175714286Y-112526247D01*
X175714286Y-112526247D02*
X175714286Y-112383390D01*
X175714286Y-112383390D02*
X175761905Y-112192914D01*
X175761905Y-112192914D02*
X175809524Y-112097676D01*
X175809524Y-112097676D02*
X175904762Y-112002438D01*
X175904762Y-112002438D02*
X176047619Y-111954819D01*
X176047619Y-111954819D02*
X176142857Y-111954819D01*
X176142857Y-111954819D02*
X176285714Y-112002438D01*
X176285714Y-112002438D02*
X176333333Y-112050057D01*
X176714286Y-112050057D02*
X176761905Y-112002438D01*
X176761905Y-112002438D02*
X176857143Y-111954819D01*
X176857143Y-111954819D02*
X177095238Y-111954819D01*
X177095238Y-111954819D02*
X177190476Y-112002438D01*
X177190476Y-112002438D02*
X177238095Y-112050057D01*
X177238095Y-112050057D02*
X177285714Y-112145295D01*
X177285714Y-112145295D02*
X177285714Y-112240533D01*
X177285714Y-112240533D02*
X177238095Y-112383390D01*
X177238095Y-112383390D02*
X176666667Y-112954819D01*
X176666667Y-112954819D02*
X177285714Y-112954819D01*
X176328571Y-114254819D02*
X175757143Y-114254819D01*
X176042857Y-114254819D02*
X176042857Y-113254819D01*
X176042857Y-113254819D02*
X175947619Y-113397676D01*
X175947619Y-113397676D02*
X175852381Y-113492914D01*
X175852381Y-113492914D02*
X175757143Y-113540533D01*
X176947619Y-113254819D02*
X177042857Y-113254819D01*
X177042857Y-113254819D02*
X177138095Y-113302438D01*
X177138095Y-113302438D02*
X177185714Y-113350057D01*
X177185714Y-113350057D02*
X177233333Y-113445295D01*
X177233333Y-113445295D02*
X177280952Y-113635771D01*
X177280952Y-113635771D02*
X177280952Y-113873866D01*
X177280952Y-113873866D02*
X177233333Y-114064342D01*
X177233333Y-114064342D02*
X177185714Y-114159580D01*
X177185714Y-114159580D02*
X177138095Y-114207200D01*
X177138095Y-114207200D02*
X177042857Y-114254819D01*
X177042857Y-114254819D02*
X176947619Y-114254819D01*
X176947619Y-114254819D02*
X176852381Y-114207200D01*
X176852381Y-114207200D02*
X176804762Y-114159580D01*
X176804762Y-114159580D02*
X176757143Y-114064342D01*
X176757143Y-114064342D02*
X176709524Y-113873866D01*
X176709524Y-113873866D02*
X176709524Y-113635771D01*
X176709524Y-113635771D02*
X176757143Y-113445295D01*
X176757143Y-113445295D02*
X176804762Y-113350057D01*
X176804762Y-113350057D02*
X176852381Y-113302438D01*
X176852381Y-113302438D02*
X176947619Y-113254819D01*
X178138095Y-113588152D02*
X178138095Y-114254819D01*
X177709524Y-113588152D02*
X177709524Y-114111961D01*
X177709524Y-114111961D02*
X177757143Y-114207200D01*
X177757143Y-114207200D02*
X177852381Y-114254819D01*
X177852381Y-114254819D02*
X177995238Y-114254819D01*
X177995238Y-114254819D02*
X178090476Y-114207200D01*
X178090476Y-114207200D02*
X178138095Y-114159580D01*
X178947619Y-113731009D02*
X178614286Y-113731009D01*
X178614286Y-114254819D02*
X178614286Y-113254819D01*
X178614286Y-113254819D02*
X179090476Y-113254819D01*
X170638095Y-104754819D02*
X171209523Y-104754819D01*
X170923809Y-105754819D02*
X170923809Y-104754819D01*
X171447619Y-104754819D02*
X172066666Y-104754819D01*
X172066666Y-104754819D02*
X171733333Y-105135771D01*
X171733333Y-105135771D02*
X171876190Y-105135771D01*
X171876190Y-105135771D02*
X171971428Y-105183390D01*
X171971428Y-105183390D02*
X172019047Y-105231009D01*
X172019047Y-105231009D02*
X172066666Y-105326247D01*
X172066666Y-105326247D02*
X172066666Y-105564342D01*
X172066666Y-105564342D02*
X172019047Y-105659580D01*
X172019047Y-105659580D02*
X171971428Y-105707200D01*
X171971428Y-105707200D02*
X171876190Y-105754819D01*
X171876190Y-105754819D02*
X171590476Y-105754819D01*
X171590476Y-105754819D02*
X171495238Y-105707200D01*
X171495238Y-105707200D02*
X171447619Y-105659580D01*
X130557142Y-122959580D02*
X130509523Y-123007200D01*
X130509523Y-123007200D02*
X130366666Y-123054819D01*
X130366666Y-123054819D02*
X130271428Y-123054819D01*
X130271428Y-123054819D02*
X130128571Y-123007200D01*
X130128571Y-123007200D02*
X130033333Y-122911961D01*
X130033333Y-122911961D02*
X129985714Y-122816723D01*
X129985714Y-122816723D02*
X129938095Y-122626247D01*
X129938095Y-122626247D02*
X129938095Y-122483390D01*
X129938095Y-122483390D02*
X129985714Y-122292914D01*
X129985714Y-122292914D02*
X130033333Y-122197676D01*
X130033333Y-122197676D02*
X130128571Y-122102438D01*
X130128571Y-122102438D02*
X130271428Y-122054819D01*
X130271428Y-122054819D02*
X130366666Y-122054819D01*
X130366666Y-122054819D02*
X130509523Y-122102438D01*
X130509523Y-122102438D02*
X130557142Y-122150057D01*
X131509523Y-123054819D02*
X130938095Y-123054819D01*
X131223809Y-123054819D02*
X131223809Y-122054819D01*
X131223809Y-122054819D02*
X131128571Y-122197676D01*
X131128571Y-122197676D02*
X131033333Y-122292914D01*
X131033333Y-122292914D02*
X130938095Y-122340533D01*
X131842857Y-122054819D02*
X132509523Y-122054819D01*
X132509523Y-122054819D02*
X132080952Y-123054819D01*
X130157143Y-123454819D02*
X130252381Y-123454819D01*
X130252381Y-123454819D02*
X130347619Y-123502438D01*
X130347619Y-123502438D02*
X130395238Y-123550057D01*
X130395238Y-123550057D02*
X130442857Y-123645295D01*
X130442857Y-123645295D02*
X130490476Y-123835771D01*
X130490476Y-123835771D02*
X130490476Y-124073866D01*
X130490476Y-124073866D02*
X130442857Y-124264342D01*
X130442857Y-124264342D02*
X130395238Y-124359580D01*
X130395238Y-124359580D02*
X130347619Y-124407200D01*
X130347619Y-124407200D02*
X130252381Y-124454819D01*
X130252381Y-124454819D02*
X130157143Y-124454819D01*
X130157143Y-124454819D02*
X130061905Y-124407200D01*
X130061905Y-124407200D02*
X130014286Y-124359580D01*
X130014286Y-124359580D02*
X129966667Y-124264342D01*
X129966667Y-124264342D02*
X129919048Y-124073866D01*
X129919048Y-124073866D02*
X129919048Y-123835771D01*
X129919048Y-123835771D02*
X129966667Y-123645295D01*
X129966667Y-123645295D02*
X130014286Y-123550057D01*
X130014286Y-123550057D02*
X130061905Y-123502438D01*
X130061905Y-123502438D02*
X130157143Y-123454819D01*
X130919048Y-124359580D02*
X130966667Y-124407200D01*
X130966667Y-124407200D02*
X130919048Y-124454819D01*
X130919048Y-124454819D02*
X130871429Y-124407200D01*
X130871429Y-124407200D02*
X130919048Y-124359580D01*
X130919048Y-124359580D02*
X130919048Y-124454819D01*
X131919047Y-124454819D02*
X131347619Y-124454819D01*
X131633333Y-124454819D02*
X131633333Y-123454819D01*
X131633333Y-123454819D02*
X131538095Y-123597676D01*
X131538095Y-123597676D02*
X131442857Y-123692914D01*
X131442857Y-123692914D02*
X131347619Y-123740533D01*
X132776190Y-123788152D02*
X132776190Y-124454819D01*
X132347619Y-123788152D02*
X132347619Y-124311961D01*
X132347619Y-124311961D02*
X132395238Y-124407200D01*
X132395238Y-124407200D02*
X132490476Y-124454819D01*
X132490476Y-124454819D02*
X132633333Y-124454819D01*
X132633333Y-124454819D02*
X132728571Y-124407200D01*
X132728571Y-124407200D02*
X132776190Y-124359580D01*
X133585714Y-123931009D02*
X133252381Y-123931009D01*
X133252381Y-124454819D02*
X133252381Y-123454819D01*
X133252381Y-123454819D02*
X133728571Y-123454819D01*
X127557142Y-102254819D02*
X127223809Y-101778628D01*
X126985714Y-102254819D02*
X126985714Y-101254819D01*
X126985714Y-101254819D02*
X127366666Y-101254819D01*
X127366666Y-101254819D02*
X127461904Y-101302438D01*
X127461904Y-101302438D02*
X127509523Y-101350057D01*
X127509523Y-101350057D02*
X127557142Y-101445295D01*
X127557142Y-101445295D02*
X127557142Y-101588152D01*
X127557142Y-101588152D02*
X127509523Y-101683390D01*
X127509523Y-101683390D02*
X127461904Y-101731009D01*
X127461904Y-101731009D02*
X127366666Y-101778628D01*
X127366666Y-101778628D02*
X126985714Y-101778628D01*
X128509523Y-102254819D02*
X127938095Y-102254819D01*
X128223809Y-102254819D02*
X128223809Y-101254819D01*
X128223809Y-101254819D02*
X128128571Y-101397676D01*
X128128571Y-101397676D02*
X128033333Y-101492914D01*
X128033333Y-101492914D02*
X127938095Y-101540533D01*
X128842857Y-101254819D02*
X129509523Y-101254819D01*
X129509523Y-101254819D02*
X129080952Y-102254819D01*
X127609524Y-102850057D02*
X127657143Y-102802438D01*
X127657143Y-102802438D02*
X127752381Y-102754819D01*
X127752381Y-102754819D02*
X127990476Y-102754819D01*
X127990476Y-102754819D02*
X128085714Y-102802438D01*
X128085714Y-102802438D02*
X128133333Y-102850057D01*
X128133333Y-102850057D02*
X128180952Y-102945295D01*
X128180952Y-102945295D02*
X128180952Y-103040533D01*
X128180952Y-103040533D02*
X128133333Y-103183390D01*
X128133333Y-103183390D02*
X127561905Y-103754819D01*
X127561905Y-103754819D02*
X128180952Y-103754819D01*
X128609524Y-103754819D02*
X128609524Y-102754819D01*
X128704762Y-103373866D02*
X128990476Y-103754819D01*
X128990476Y-103088152D02*
X128609524Y-103469104D01*
X168909524Y-109781009D02*
X169242857Y-109781009D01*
X169385714Y-110304819D02*
X168909524Y-110304819D01*
X168909524Y-110304819D02*
X168909524Y-109304819D01*
X168909524Y-109304819D02*
X169385714Y-109304819D01*
X170338095Y-110304819D02*
X169766667Y-110304819D01*
X170052381Y-110304819D02*
X170052381Y-109304819D01*
X170052381Y-109304819D02*
X169957143Y-109447676D01*
X169957143Y-109447676D02*
X169861905Y-109542914D01*
X169861905Y-109542914D02*
X169766667Y-109590533D01*
X126157142Y-119959580D02*
X126109523Y-120007200D01*
X126109523Y-120007200D02*
X125966666Y-120054819D01*
X125966666Y-120054819D02*
X125871428Y-120054819D01*
X125871428Y-120054819D02*
X125728571Y-120007200D01*
X125728571Y-120007200D02*
X125633333Y-119911961D01*
X125633333Y-119911961D02*
X125585714Y-119816723D01*
X125585714Y-119816723D02*
X125538095Y-119626247D01*
X125538095Y-119626247D02*
X125538095Y-119483390D01*
X125538095Y-119483390D02*
X125585714Y-119292914D01*
X125585714Y-119292914D02*
X125633333Y-119197676D01*
X125633333Y-119197676D02*
X125728571Y-119102438D01*
X125728571Y-119102438D02*
X125871428Y-119054819D01*
X125871428Y-119054819D02*
X125966666Y-119054819D01*
X125966666Y-119054819D02*
X126109523Y-119102438D01*
X126109523Y-119102438D02*
X126157142Y-119150057D01*
X127109523Y-120054819D02*
X126538095Y-120054819D01*
X126823809Y-120054819D02*
X126823809Y-119054819D01*
X126823809Y-119054819D02*
X126728571Y-119197676D01*
X126728571Y-119197676D02*
X126633333Y-119292914D01*
X126633333Y-119292914D02*
X126538095Y-119340533D01*
X128061904Y-120054819D02*
X127490476Y-120054819D01*
X127776190Y-120054819D02*
X127776190Y-119054819D01*
X127776190Y-119054819D02*
X127680952Y-119197676D01*
X127680952Y-119197676D02*
X127585714Y-119292914D01*
X127585714Y-119292914D02*
X127490476Y-119340533D01*
X124680952Y-120354819D02*
X124776190Y-120354819D01*
X124776190Y-120354819D02*
X124871428Y-120402438D01*
X124871428Y-120402438D02*
X124919047Y-120450057D01*
X124919047Y-120450057D02*
X124966666Y-120545295D01*
X124966666Y-120545295D02*
X125014285Y-120735771D01*
X125014285Y-120735771D02*
X125014285Y-120973866D01*
X125014285Y-120973866D02*
X124966666Y-121164342D01*
X124966666Y-121164342D02*
X124919047Y-121259580D01*
X124919047Y-121259580D02*
X124871428Y-121307200D01*
X124871428Y-121307200D02*
X124776190Y-121354819D01*
X124776190Y-121354819D02*
X124680952Y-121354819D01*
X124680952Y-121354819D02*
X124585714Y-121307200D01*
X124585714Y-121307200D02*
X124538095Y-121259580D01*
X124538095Y-121259580D02*
X124490476Y-121164342D01*
X124490476Y-121164342D02*
X124442857Y-120973866D01*
X124442857Y-120973866D02*
X124442857Y-120735771D01*
X124442857Y-120735771D02*
X124490476Y-120545295D01*
X124490476Y-120545295D02*
X124538095Y-120450057D01*
X124538095Y-120450057D02*
X124585714Y-120402438D01*
X124585714Y-120402438D02*
X124680952Y-120354819D01*
X125442857Y-121259580D02*
X125490476Y-121307200D01*
X125490476Y-121307200D02*
X125442857Y-121354819D01*
X125442857Y-121354819D02*
X125395238Y-121307200D01*
X125395238Y-121307200D02*
X125442857Y-121259580D01*
X125442857Y-121259580D02*
X125442857Y-121354819D01*
X126109523Y-120354819D02*
X126204761Y-120354819D01*
X126204761Y-120354819D02*
X126299999Y-120402438D01*
X126299999Y-120402438D02*
X126347618Y-120450057D01*
X126347618Y-120450057D02*
X126395237Y-120545295D01*
X126395237Y-120545295D02*
X126442856Y-120735771D01*
X126442856Y-120735771D02*
X126442856Y-120973866D01*
X126442856Y-120973866D02*
X126395237Y-121164342D01*
X126395237Y-121164342D02*
X126347618Y-121259580D01*
X126347618Y-121259580D02*
X126299999Y-121307200D01*
X126299999Y-121307200D02*
X126204761Y-121354819D01*
X126204761Y-121354819D02*
X126109523Y-121354819D01*
X126109523Y-121354819D02*
X126014285Y-121307200D01*
X126014285Y-121307200D02*
X125966666Y-121259580D01*
X125966666Y-121259580D02*
X125919047Y-121164342D01*
X125919047Y-121164342D02*
X125871428Y-120973866D01*
X125871428Y-120973866D02*
X125871428Y-120735771D01*
X125871428Y-120735771D02*
X125919047Y-120545295D01*
X125919047Y-120545295D02*
X125966666Y-120450057D01*
X125966666Y-120450057D02*
X126014285Y-120402438D01*
X126014285Y-120402438D02*
X126109523Y-120354819D01*
X127395237Y-121354819D02*
X126823809Y-121354819D01*
X127109523Y-121354819D02*
X127109523Y-120354819D01*
X127109523Y-120354819D02*
X127014285Y-120497676D01*
X127014285Y-120497676D02*
X126919047Y-120592914D01*
X126919047Y-120592914D02*
X126823809Y-120640533D01*
X128252380Y-120688152D02*
X128252380Y-121354819D01*
X127823809Y-120688152D02*
X127823809Y-121211961D01*
X127823809Y-121211961D02*
X127871428Y-121307200D01*
X127871428Y-121307200D02*
X127966666Y-121354819D01*
X127966666Y-121354819D02*
X128109523Y-121354819D01*
X128109523Y-121354819D02*
X128204761Y-121307200D01*
X128204761Y-121307200D02*
X128252380Y-121259580D01*
X129061904Y-120831009D02*
X128728571Y-120831009D01*
X128728571Y-121354819D02*
X128728571Y-120354819D01*
X128728571Y-120354819D02*
X129204761Y-120354819D01*
X170538095Y-74054819D02*
X171109523Y-74054819D01*
X170823809Y-75054819D02*
X170823809Y-74054819D01*
X171395238Y-74150057D02*
X171442857Y-74102438D01*
X171442857Y-74102438D02*
X171538095Y-74054819D01*
X171538095Y-74054819D02*
X171776190Y-74054819D01*
X171776190Y-74054819D02*
X171871428Y-74102438D01*
X171871428Y-74102438D02*
X171919047Y-74150057D01*
X171919047Y-74150057D02*
X171966666Y-74245295D01*
X171966666Y-74245295D02*
X171966666Y-74340533D01*
X171966666Y-74340533D02*
X171919047Y-74483390D01*
X171919047Y-74483390D02*
X171347619Y-75054819D01*
X171347619Y-75054819D02*
X171966666Y-75054819D01*
X176257142Y-115859580D02*
X176209523Y-115907200D01*
X176209523Y-115907200D02*
X176066666Y-115954819D01*
X176066666Y-115954819D02*
X175971428Y-115954819D01*
X175971428Y-115954819D02*
X175828571Y-115907200D01*
X175828571Y-115907200D02*
X175733333Y-115811961D01*
X175733333Y-115811961D02*
X175685714Y-115716723D01*
X175685714Y-115716723D02*
X175638095Y-115526247D01*
X175638095Y-115526247D02*
X175638095Y-115383390D01*
X175638095Y-115383390D02*
X175685714Y-115192914D01*
X175685714Y-115192914D02*
X175733333Y-115097676D01*
X175733333Y-115097676D02*
X175828571Y-115002438D01*
X175828571Y-115002438D02*
X175971428Y-114954819D01*
X175971428Y-114954819D02*
X176066666Y-114954819D01*
X176066666Y-114954819D02*
X176209523Y-115002438D01*
X176209523Y-115002438D02*
X176257142Y-115050057D01*
X177209523Y-115954819D02*
X176638095Y-115954819D01*
X176923809Y-115954819D02*
X176923809Y-114954819D01*
X176923809Y-114954819D02*
X176828571Y-115097676D01*
X176828571Y-115097676D02*
X176733333Y-115192914D01*
X176733333Y-115192914D02*
X176638095Y-115240533D01*
X177542857Y-114954819D02*
X178161904Y-114954819D01*
X178161904Y-114954819D02*
X177828571Y-115335771D01*
X177828571Y-115335771D02*
X177971428Y-115335771D01*
X177971428Y-115335771D02*
X178066666Y-115383390D01*
X178066666Y-115383390D02*
X178114285Y-115431009D01*
X178114285Y-115431009D02*
X178161904Y-115526247D01*
X178161904Y-115526247D02*
X178161904Y-115764342D01*
X178161904Y-115764342D02*
X178114285Y-115859580D01*
X178114285Y-115859580D02*
X178066666Y-115907200D01*
X178066666Y-115907200D02*
X177971428Y-115954819D01*
X177971428Y-115954819D02*
X177685714Y-115954819D01*
X177685714Y-115954819D02*
X177590476Y-115907200D01*
X177590476Y-115907200D02*
X177542857Y-115859580D01*
X176328571Y-117354819D02*
X175757143Y-117354819D01*
X176042857Y-117354819D02*
X176042857Y-116354819D01*
X176042857Y-116354819D02*
X175947619Y-116497676D01*
X175947619Y-116497676D02*
X175852381Y-116592914D01*
X175852381Y-116592914D02*
X175757143Y-116640533D01*
X176947619Y-116354819D02*
X177042857Y-116354819D01*
X177042857Y-116354819D02*
X177138095Y-116402438D01*
X177138095Y-116402438D02*
X177185714Y-116450057D01*
X177185714Y-116450057D02*
X177233333Y-116545295D01*
X177233333Y-116545295D02*
X177280952Y-116735771D01*
X177280952Y-116735771D02*
X177280952Y-116973866D01*
X177280952Y-116973866D02*
X177233333Y-117164342D01*
X177233333Y-117164342D02*
X177185714Y-117259580D01*
X177185714Y-117259580D02*
X177138095Y-117307200D01*
X177138095Y-117307200D02*
X177042857Y-117354819D01*
X177042857Y-117354819D02*
X176947619Y-117354819D01*
X176947619Y-117354819D02*
X176852381Y-117307200D01*
X176852381Y-117307200D02*
X176804762Y-117259580D01*
X176804762Y-117259580D02*
X176757143Y-117164342D01*
X176757143Y-117164342D02*
X176709524Y-116973866D01*
X176709524Y-116973866D02*
X176709524Y-116735771D01*
X176709524Y-116735771D02*
X176757143Y-116545295D01*
X176757143Y-116545295D02*
X176804762Y-116450057D01*
X176804762Y-116450057D02*
X176852381Y-116402438D01*
X176852381Y-116402438D02*
X176947619Y-116354819D01*
X178138095Y-116688152D02*
X178138095Y-117354819D01*
X177709524Y-116688152D02*
X177709524Y-117211961D01*
X177709524Y-117211961D02*
X177757143Y-117307200D01*
X177757143Y-117307200D02*
X177852381Y-117354819D01*
X177852381Y-117354819D02*
X177995238Y-117354819D01*
X177995238Y-117354819D02*
X178090476Y-117307200D01*
X178090476Y-117307200D02*
X178138095Y-117259580D01*
X178947619Y-116831009D02*
X178614286Y-116831009D01*
X178614286Y-117354819D02*
X178614286Y-116354819D01*
X178614286Y-116354819D02*
X179090476Y-116354819D01*
X179766666Y-67954819D02*
X179766666Y-68669104D01*
X179766666Y-68669104D02*
X179719047Y-68811961D01*
X179719047Y-68811961D02*
X179623809Y-68907200D01*
X179623809Y-68907200D02*
X179480952Y-68954819D01*
X179480952Y-68954819D02*
X179385714Y-68954819D01*
X180766666Y-68954819D02*
X180195238Y-68954819D01*
X180480952Y-68954819D02*
X180480952Y-67954819D01*
X180480952Y-67954819D02*
X180385714Y-68097676D01*
X180385714Y-68097676D02*
X180290476Y-68192914D01*
X180290476Y-68192914D02*
X180195238Y-68240533D01*
X146845833Y-79554819D02*
X146512500Y-79078628D01*
X146274405Y-79554819D02*
X146274405Y-78554819D01*
X146274405Y-78554819D02*
X146655357Y-78554819D01*
X146655357Y-78554819D02*
X146750595Y-78602438D01*
X146750595Y-78602438D02*
X146798214Y-78650057D01*
X146798214Y-78650057D02*
X146845833Y-78745295D01*
X146845833Y-78745295D02*
X146845833Y-78888152D01*
X146845833Y-78888152D02*
X146798214Y-78983390D01*
X146798214Y-78983390D02*
X146750595Y-79031009D01*
X146750595Y-79031009D02*
X146655357Y-79078628D01*
X146655357Y-79078628D02*
X146274405Y-79078628D01*
X147798214Y-79554819D02*
X147226786Y-79554819D01*
X147512500Y-79554819D02*
X147512500Y-78554819D01*
X147512500Y-78554819D02*
X147417262Y-78697676D01*
X147417262Y-78697676D02*
X147322024Y-78792914D01*
X147322024Y-78792914D02*
X147226786Y-78840533D01*
X149198214Y-79554819D02*
X148626786Y-79554819D01*
X148912500Y-79554819D02*
X148912500Y-78554819D01*
X148912500Y-78554819D02*
X148817262Y-78697676D01*
X148817262Y-78697676D02*
X148722024Y-78792914D01*
X148722024Y-78792914D02*
X148626786Y-78840533D01*
X161404761Y-116150057D02*
X161309523Y-116102438D01*
X161309523Y-116102438D02*
X161214285Y-116007200D01*
X161214285Y-116007200D02*
X161071428Y-115864342D01*
X161071428Y-115864342D02*
X160976190Y-115816723D01*
X160976190Y-115816723D02*
X160880952Y-115816723D01*
X160928571Y-116054819D02*
X160833333Y-116007200D01*
X160833333Y-116007200D02*
X160738095Y-115911961D01*
X160738095Y-115911961D02*
X160690476Y-115721485D01*
X160690476Y-115721485D02*
X160690476Y-115388152D01*
X160690476Y-115388152D02*
X160738095Y-115197676D01*
X160738095Y-115197676D02*
X160833333Y-115102438D01*
X160833333Y-115102438D02*
X160928571Y-115054819D01*
X160928571Y-115054819D02*
X161119047Y-115054819D01*
X161119047Y-115054819D02*
X161214285Y-115102438D01*
X161214285Y-115102438D02*
X161309523Y-115197676D01*
X161309523Y-115197676D02*
X161357142Y-115388152D01*
X161357142Y-115388152D02*
X161357142Y-115721485D01*
X161357142Y-115721485D02*
X161309523Y-115911961D01*
X161309523Y-115911961D02*
X161214285Y-116007200D01*
X161214285Y-116007200D02*
X161119047Y-116054819D01*
X161119047Y-116054819D02*
X160928571Y-116054819D01*
X162309523Y-116054819D02*
X161738095Y-116054819D01*
X162023809Y-116054819D02*
X162023809Y-115054819D01*
X162023809Y-115054819D02*
X161928571Y-115197676D01*
X161928571Y-115197676D02*
X161833333Y-115292914D01*
X161833333Y-115292914D02*
X161738095Y-115340533D01*
X163559524Y-125331009D02*
X163892857Y-125331009D01*
X164035714Y-125854819D02*
X163559524Y-125854819D01*
X163559524Y-125854819D02*
X163559524Y-124854819D01*
X163559524Y-124854819D02*
X164035714Y-124854819D01*
X164416667Y-124950057D02*
X164464286Y-124902438D01*
X164464286Y-124902438D02*
X164559524Y-124854819D01*
X164559524Y-124854819D02*
X164797619Y-124854819D01*
X164797619Y-124854819D02*
X164892857Y-124902438D01*
X164892857Y-124902438D02*
X164940476Y-124950057D01*
X164940476Y-124950057D02*
X164988095Y-125045295D01*
X164988095Y-125045295D02*
X164988095Y-125140533D01*
X164988095Y-125140533D02*
X164940476Y-125283390D01*
X164940476Y-125283390D02*
X164369048Y-125854819D01*
X164369048Y-125854819D02*
X164988095Y-125854819D01*
X120366666Y-136054819D02*
X120366666Y-136769104D01*
X120366666Y-136769104D02*
X120319047Y-136911961D01*
X120319047Y-136911961D02*
X120223809Y-137007200D01*
X120223809Y-137007200D02*
X120080952Y-137054819D01*
X120080952Y-137054819D02*
X119985714Y-137054819D01*
X121319047Y-136054819D02*
X120842857Y-136054819D01*
X120842857Y-136054819D02*
X120795238Y-136531009D01*
X120795238Y-136531009D02*
X120842857Y-136483390D01*
X120842857Y-136483390D02*
X120938095Y-136435771D01*
X120938095Y-136435771D02*
X121176190Y-136435771D01*
X121176190Y-136435771D02*
X121271428Y-136483390D01*
X121271428Y-136483390D02*
X121319047Y-136531009D01*
X121319047Y-136531009D02*
X121366666Y-136626247D01*
X121366666Y-136626247D02*
X121366666Y-136864342D01*
X121366666Y-136864342D02*
X121319047Y-136959580D01*
X121319047Y-136959580D02*
X121271428Y-137007200D01*
X121271428Y-137007200D02*
X121176190Y-137054819D01*
X121176190Y-137054819D02*
X120938095Y-137054819D01*
X120938095Y-137054819D02*
X120842857Y-137007200D01*
X120842857Y-137007200D02*
X120795238Y-136959580D01*
X120166666Y-81454819D02*
X120166666Y-82169104D01*
X120166666Y-82169104D02*
X120119047Y-82311961D01*
X120119047Y-82311961D02*
X120023809Y-82407200D01*
X120023809Y-82407200D02*
X119880952Y-82454819D01*
X119880952Y-82454819D02*
X119785714Y-82454819D01*
X120595238Y-81550057D02*
X120642857Y-81502438D01*
X120642857Y-81502438D02*
X120738095Y-81454819D01*
X120738095Y-81454819D02*
X120976190Y-81454819D01*
X120976190Y-81454819D02*
X121071428Y-81502438D01*
X121071428Y-81502438D02*
X121119047Y-81550057D01*
X121119047Y-81550057D02*
X121166666Y-81645295D01*
X121166666Y-81645295D02*
X121166666Y-81740533D01*
X121166666Y-81740533D02*
X121119047Y-81883390D01*
X121119047Y-81883390D02*
X120547619Y-82454819D01*
X120547619Y-82454819D02*
X121166666Y-82454819D01*
X118166666Y-113454819D02*
X118166666Y-114169104D01*
X118166666Y-114169104D02*
X118119047Y-114311961D01*
X118119047Y-114311961D02*
X118023809Y-114407200D01*
X118023809Y-114407200D02*
X117880952Y-114454819D01*
X117880952Y-114454819D02*
X117785714Y-114454819D01*
X118547619Y-113454819D02*
X119166666Y-113454819D01*
X119166666Y-113454819D02*
X118833333Y-113835771D01*
X118833333Y-113835771D02*
X118976190Y-113835771D01*
X118976190Y-113835771D02*
X119071428Y-113883390D01*
X119071428Y-113883390D02*
X119119047Y-113931009D01*
X119119047Y-113931009D02*
X119166666Y-114026247D01*
X119166666Y-114026247D02*
X119166666Y-114264342D01*
X119166666Y-114264342D02*
X119119047Y-114359580D01*
X119119047Y-114359580D02*
X119071428Y-114407200D01*
X119071428Y-114407200D02*
X118976190Y-114454819D01*
X118976190Y-114454819D02*
X118690476Y-114454819D01*
X118690476Y-114454819D02*
X118595238Y-114407200D01*
X118595238Y-114407200D02*
X118547619Y-114359580D01*
X135298095Y-115704819D02*
X135298095Y-116514342D01*
X135298095Y-116514342D02*
X135345714Y-116609580D01*
X135345714Y-116609580D02*
X135393333Y-116657200D01*
X135393333Y-116657200D02*
X135488571Y-116704819D01*
X135488571Y-116704819D02*
X135679047Y-116704819D01*
X135679047Y-116704819D02*
X135774285Y-116657200D01*
X135774285Y-116657200D02*
X135821904Y-116609580D01*
X135821904Y-116609580D02*
X135869523Y-116514342D01*
X135869523Y-116514342D02*
X135869523Y-115704819D01*
X136250476Y-115704819D02*
X136869523Y-115704819D01*
X136869523Y-115704819D02*
X136536190Y-116085771D01*
X136536190Y-116085771D02*
X136679047Y-116085771D01*
X136679047Y-116085771D02*
X136774285Y-116133390D01*
X136774285Y-116133390D02*
X136821904Y-116181009D01*
X136821904Y-116181009D02*
X136869523Y-116276247D01*
X136869523Y-116276247D02*
X136869523Y-116514342D01*
X136869523Y-116514342D02*
X136821904Y-116609580D01*
X136821904Y-116609580D02*
X136774285Y-116657200D01*
X136774285Y-116657200D02*
X136679047Y-116704819D01*
X136679047Y-116704819D02*
X136393333Y-116704819D01*
X136393333Y-116704819D02*
X136298095Y-116657200D01*
X136298095Y-116657200D02*
X136250476Y-116609580D01*
X121709524Y-110231009D02*
X122042857Y-110231009D01*
X122185714Y-110754819D02*
X121709524Y-110754819D01*
X121709524Y-110754819D02*
X121709524Y-109754819D01*
X121709524Y-109754819D02*
X122185714Y-109754819D01*
X123042857Y-110088152D02*
X123042857Y-110754819D01*
X122804762Y-109707200D02*
X122566667Y-110421485D01*
X122566667Y-110421485D02*
X123185714Y-110421485D01*
X163309524Y-118031009D02*
X163642857Y-118031009D01*
X163785714Y-118554819D02*
X163309524Y-118554819D01*
X163309524Y-118554819D02*
X163309524Y-117554819D01*
X163309524Y-117554819D02*
X163785714Y-117554819D01*
X164119048Y-117554819D02*
X164738095Y-117554819D01*
X164738095Y-117554819D02*
X164404762Y-117935771D01*
X164404762Y-117935771D02*
X164547619Y-117935771D01*
X164547619Y-117935771D02*
X164642857Y-117983390D01*
X164642857Y-117983390D02*
X164690476Y-118031009D01*
X164690476Y-118031009D02*
X164738095Y-118126247D01*
X164738095Y-118126247D02*
X164738095Y-118364342D01*
X164738095Y-118364342D02*
X164690476Y-118459580D01*
X164690476Y-118459580D02*
X164642857Y-118507200D01*
X164642857Y-118507200D02*
X164547619Y-118554819D01*
X164547619Y-118554819D02*
X164261905Y-118554819D01*
X164261905Y-118554819D02*
X164166667Y-118507200D01*
X164166667Y-118507200D02*
X164119048Y-118459580D01*
X136933333Y-96754819D02*
X136600000Y-96278628D01*
X136361905Y-96754819D02*
X136361905Y-95754819D01*
X136361905Y-95754819D02*
X136742857Y-95754819D01*
X136742857Y-95754819D02*
X136838095Y-95802438D01*
X136838095Y-95802438D02*
X136885714Y-95850057D01*
X136885714Y-95850057D02*
X136933333Y-95945295D01*
X136933333Y-95945295D02*
X136933333Y-96088152D01*
X136933333Y-96088152D02*
X136885714Y-96183390D01*
X136885714Y-96183390D02*
X136838095Y-96231009D01*
X136838095Y-96231009D02*
X136742857Y-96278628D01*
X136742857Y-96278628D02*
X136361905Y-96278628D01*
X137838095Y-95754819D02*
X137361905Y-95754819D01*
X137361905Y-95754819D02*
X137314286Y-96231009D01*
X137314286Y-96231009D02*
X137361905Y-96183390D01*
X137361905Y-96183390D02*
X137457143Y-96135771D01*
X137457143Y-96135771D02*
X137695238Y-96135771D01*
X137695238Y-96135771D02*
X137790476Y-96183390D01*
X137790476Y-96183390D02*
X137838095Y-96231009D01*
X137838095Y-96231009D02*
X137885714Y-96326247D01*
X137885714Y-96326247D02*
X137885714Y-96564342D01*
X137885714Y-96564342D02*
X137838095Y-96659580D01*
X137838095Y-96659580D02*
X137790476Y-96707200D01*
X137790476Y-96707200D02*
X137695238Y-96754819D01*
X137695238Y-96754819D02*
X137457143Y-96754819D01*
X137457143Y-96754819D02*
X137361905Y-96707200D01*
X137361905Y-96707200D02*
X137314286Y-96659580D01*
X139261904Y-95754819D02*
X138785714Y-95754819D01*
X138785714Y-95754819D02*
X138738095Y-96231009D01*
X138738095Y-96231009D02*
X138785714Y-96183390D01*
X138785714Y-96183390D02*
X138880952Y-96135771D01*
X138880952Y-96135771D02*
X139119047Y-96135771D01*
X139119047Y-96135771D02*
X139214285Y-96183390D01*
X139214285Y-96183390D02*
X139261904Y-96231009D01*
X139261904Y-96231009D02*
X139309523Y-96326247D01*
X139309523Y-96326247D02*
X139309523Y-96564342D01*
X139309523Y-96564342D02*
X139261904Y-96659580D01*
X139261904Y-96659580D02*
X139214285Y-96707200D01*
X139214285Y-96707200D02*
X139119047Y-96754819D01*
X139119047Y-96754819D02*
X138880952Y-96754819D01*
X138880952Y-96754819D02*
X138785714Y-96707200D01*
X138785714Y-96707200D02*
X138738095Y-96659580D01*
X140261904Y-96754819D02*
X139690476Y-96754819D01*
X139976190Y-96754819D02*
X139976190Y-95754819D01*
X139976190Y-95754819D02*
X139880952Y-95897676D01*
X139880952Y-95897676D02*
X139785714Y-95992914D01*
X139785714Y-95992914D02*
X139690476Y-96040533D01*
X170233333Y-136359580D02*
X170185714Y-136407200D01*
X170185714Y-136407200D02*
X170042857Y-136454819D01*
X170042857Y-136454819D02*
X169947619Y-136454819D01*
X169947619Y-136454819D02*
X169804762Y-136407200D01*
X169804762Y-136407200D02*
X169709524Y-136311961D01*
X169709524Y-136311961D02*
X169661905Y-136216723D01*
X169661905Y-136216723D02*
X169614286Y-136026247D01*
X169614286Y-136026247D02*
X169614286Y-135883390D01*
X169614286Y-135883390D02*
X169661905Y-135692914D01*
X169661905Y-135692914D02*
X169709524Y-135597676D01*
X169709524Y-135597676D02*
X169804762Y-135502438D01*
X169804762Y-135502438D02*
X169947619Y-135454819D01*
X169947619Y-135454819D02*
X170042857Y-135454819D01*
X170042857Y-135454819D02*
X170185714Y-135502438D01*
X170185714Y-135502438D02*
X170233333Y-135550057D01*
X170566667Y-135454819D02*
X171185714Y-135454819D01*
X171185714Y-135454819D02*
X170852381Y-135835771D01*
X170852381Y-135835771D02*
X170995238Y-135835771D01*
X170995238Y-135835771D02*
X171090476Y-135883390D01*
X171090476Y-135883390D02*
X171138095Y-135931009D01*
X171138095Y-135931009D02*
X171185714Y-136026247D01*
X171185714Y-136026247D02*
X171185714Y-136264342D01*
X171185714Y-136264342D02*
X171138095Y-136359580D01*
X171138095Y-136359580D02*
X171090476Y-136407200D01*
X171090476Y-136407200D02*
X170995238Y-136454819D01*
X170995238Y-136454819D02*
X170709524Y-136454819D01*
X170709524Y-136454819D02*
X170614286Y-136407200D01*
X170614286Y-136407200D02*
X170566667Y-136359580D01*
X169528571Y-137854819D02*
X168957143Y-137854819D01*
X169242857Y-137854819D02*
X169242857Y-136854819D01*
X169242857Y-136854819D02*
X169147619Y-136997676D01*
X169147619Y-136997676D02*
X169052381Y-137092914D01*
X169052381Y-137092914D02*
X168957143Y-137140533D01*
X170147619Y-136854819D02*
X170242857Y-136854819D01*
X170242857Y-136854819D02*
X170338095Y-136902438D01*
X170338095Y-136902438D02*
X170385714Y-136950057D01*
X170385714Y-136950057D02*
X170433333Y-137045295D01*
X170433333Y-137045295D02*
X170480952Y-137235771D01*
X170480952Y-137235771D02*
X170480952Y-137473866D01*
X170480952Y-137473866D02*
X170433333Y-137664342D01*
X170433333Y-137664342D02*
X170385714Y-137759580D01*
X170385714Y-137759580D02*
X170338095Y-137807200D01*
X170338095Y-137807200D02*
X170242857Y-137854819D01*
X170242857Y-137854819D02*
X170147619Y-137854819D01*
X170147619Y-137854819D02*
X170052381Y-137807200D01*
X170052381Y-137807200D02*
X170004762Y-137759580D01*
X170004762Y-137759580D02*
X169957143Y-137664342D01*
X169957143Y-137664342D02*
X169909524Y-137473866D01*
X169909524Y-137473866D02*
X169909524Y-137235771D01*
X169909524Y-137235771D02*
X169957143Y-137045295D01*
X169957143Y-137045295D02*
X170004762Y-136950057D01*
X170004762Y-136950057D02*
X170052381Y-136902438D01*
X170052381Y-136902438D02*
X170147619Y-136854819D01*
X171338095Y-137188152D02*
X171338095Y-137854819D01*
X170909524Y-137188152D02*
X170909524Y-137711961D01*
X170909524Y-137711961D02*
X170957143Y-137807200D01*
X170957143Y-137807200D02*
X171052381Y-137854819D01*
X171052381Y-137854819D02*
X171195238Y-137854819D01*
X171195238Y-137854819D02*
X171290476Y-137807200D01*
X171290476Y-137807200D02*
X171338095Y-137759580D01*
X172147619Y-137331009D02*
X171814286Y-137331009D01*
X171814286Y-137854819D02*
X171814286Y-136854819D01*
X171814286Y-136854819D02*
X172290476Y-136854819D01*
X147257142Y-108254819D02*
X146923809Y-107778628D01*
X146685714Y-108254819D02*
X146685714Y-107254819D01*
X146685714Y-107254819D02*
X147066666Y-107254819D01*
X147066666Y-107254819D02*
X147161904Y-107302438D01*
X147161904Y-107302438D02*
X147209523Y-107350057D01*
X147209523Y-107350057D02*
X147257142Y-107445295D01*
X147257142Y-107445295D02*
X147257142Y-107588152D01*
X147257142Y-107588152D02*
X147209523Y-107683390D01*
X147209523Y-107683390D02*
X147161904Y-107731009D01*
X147161904Y-107731009D02*
X147066666Y-107778628D01*
X147066666Y-107778628D02*
X146685714Y-107778628D01*
X148209523Y-108254819D02*
X147638095Y-108254819D01*
X147923809Y-108254819D02*
X147923809Y-107254819D01*
X147923809Y-107254819D02*
X147828571Y-107397676D01*
X147828571Y-107397676D02*
X147733333Y-107492914D01*
X147733333Y-107492914D02*
X147638095Y-107540533D01*
X148828571Y-107254819D02*
X148923809Y-107254819D01*
X148923809Y-107254819D02*
X149019047Y-107302438D01*
X149019047Y-107302438D02*
X149066666Y-107350057D01*
X149066666Y-107350057D02*
X149114285Y-107445295D01*
X149114285Y-107445295D02*
X149161904Y-107635771D01*
X149161904Y-107635771D02*
X149161904Y-107873866D01*
X149161904Y-107873866D02*
X149114285Y-108064342D01*
X149114285Y-108064342D02*
X149066666Y-108159580D01*
X149066666Y-108159580D02*
X149019047Y-108207200D01*
X149019047Y-108207200D02*
X148923809Y-108254819D01*
X148923809Y-108254819D02*
X148828571Y-108254819D01*
X148828571Y-108254819D02*
X148733333Y-108207200D01*
X148733333Y-108207200D02*
X148685714Y-108159580D01*
X148685714Y-108159580D02*
X148638095Y-108064342D01*
X148638095Y-108064342D02*
X148590476Y-107873866D01*
X148590476Y-107873866D02*
X148590476Y-107635771D01*
X148590476Y-107635771D02*
X148638095Y-107445295D01*
X148638095Y-107445295D02*
X148685714Y-107350057D01*
X148685714Y-107350057D02*
X148733333Y-107302438D01*
X148733333Y-107302438D02*
X148828571Y-107254819D01*
X146685238Y-108660057D02*
X146732857Y-108612438D01*
X146732857Y-108612438D02*
X146828095Y-108564819D01*
X146828095Y-108564819D02*
X147066190Y-108564819D01*
X147066190Y-108564819D02*
X147161428Y-108612438D01*
X147161428Y-108612438D02*
X147209047Y-108660057D01*
X147209047Y-108660057D02*
X147256666Y-108755295D01*
X147256666Y-108755295D02*
X147256666Y-108850533D01*
X147256666Y-108850533D02*
X147209047Y-108993390D01*
X147209047Y-108993390D02*
X146637619Y-109564819D01*
X146637619Y-109564819D02*
X147256666Y-109564819D01*
X147685238Y-109469580D02*
X147732857Y-109517200D01*
X147732857Y-109517200D02*
X147685238Y-109564819D01*
X147685238Y-109564819D02*
X147637619Y-109517200D01*
X147637619Y-109517200D02*
X147685238Y-109469580D01*
X147685238Y-109469580D02*
X147685238Y-109564819D01*
X148113809Y-108660057D02*
X148161428Y-108612438D01*
X148161428Y-108612438D02*
X148256666Y-108564819D01*
X148256666Y-108564819D02*
X148494761Y-108564819D01*
X148494761Y-108564819D02*
X148589999Y-108612438D01*
X148589999Y-108612438D02*
X148637618Y-108660057D01*
X148637618Y-108660057D02*
X148685237Y-108755295D01*
X148685237Y-108755295D02*
X148685237Y-108850533D01*
X148685237Y-108850533D02*
X148637618Y-108993390D01*
X148637618Y-108993390D02*
X148066190Y-109564819D01*
X148066190Y-109564819D02*
X148685237Y-109564819D01*
X149113809Y-109564819D02*
X149113809Y-108564819D01*
X149209047Y-109183866D02*
X149494761Y-109564819D01*
X149494761Y-108898152D02*
X149113809Y-109279104D01*
X165407142Y-136359580D02*
X165359523Y-136407200D01*
X165359523Y-136407200D02*
X165216666Y-136454819D01*
X165216666Y-136454819D02*
X165121428Y-136454819D01*
X165121428Y-136454819D02*
X164978571Y-136407200D01*
X164978571Y-136407200D02*
X164883333Y-136311961D01*
X164883333Y-136311961D02*
X164835714Y-136216723D01*
X164835714Y-136216723D02*
X164788095Y-136026247D01*
X164788095Y-136026247D02*
X164788095Y-135883390D01*
X164788095Y-135883390D02*
X164835714Y-135692914D01*
X164835714Y-135692914D02*
X164883333Y-135597676D01*
X164883333Y-135597676D02*
X164978571Y-135502438D01*
X164978571Y-135502438D02*
X165121428Y-135454819D01*
X165121428Y-135454819D02*
X165216666Y-135454819D01*
X165216666Y-135454819D02*
X165359523Y-135502438D01*
X165359523Y-135502438D02*
X165407142Y-135550057D01*
X166359523Y-136454819D02*
X165788095Y-136454819D01*
X166073809Y-136454819D02*
X166073809Y-135454819D01*
X166073809Y-135454819D02*
X165978571Y-135597676D01*
X165978571Y-135597676D02*
X165883333Y-135692914D01*
X165883333Y-135692914D02*
X165788095Y-135740533D01*
X166740476Y-135550057D02*
X166788095Y-135502438D01*
X166788095Y-135502438D02*
X166883333Y-135454819D01*
X166883333Y-135454819D02*
X167121428Y-135454819D01*
X167121428Y-135454819D02*
X167216666Y-135502438D01*
X167216666Y-135502438D02*
X167264285Y-135550057D01*
X167264285Y-135550057D02*
X167311904Y-135645295D01*
X167311904Y-135645295D02*
X167311904Y-135740533D01*
X167311904Y-135740533D02*
X167264285Y-135883390D01*
X167264285Y-135883390D02*
X166692857Y-136454819D01*
X166692857Y-136454819D02*
X167311904Y-136454819D01*
X164878571Y-137854819D02*
X164307143Y-137854819D01*
X164592857Y-137854819D02*
X164592857Y-136854819D01*
X164592857Y-136854819D02*
X164497619Y-136997676D01*
X164497619Y-136997676D02*
X164402381Y-137092914D01*
X164402381Y-137092914D02*
X164307143Y-137140533D01*
X165497619Y-136854819D02*
X165592857Y-136854819D01*
X165592857Y-136854819D02*
X165688095Y-136902438D01*
X165688095Y-136902438D02*
X165735714Y-136950057D01*
X165735714Y-136950057D02*
X165783333Y-137045295D01*
X165783333Y-137045295D02*
X165830952Y-137235771D01*
X165830952Y-137235771D02*
X165830952Y-137473866D01*
X165830952Y-137473866D02*
X165783333Y-137664342D01*
X165783333Y-137664342D02*
X165735714Y-137759580D01*
X165735714Y-137759580D02*
X165688095Y-137807200D01*
X165688095Y-137807200D02*
X165592857Y-137854819D01*
X165592857Y-137854819D02*
X165497619Y-137854819D01*
X165497619Y-137854819D02*
X165402381Y-137807200D01*
X165402381Y-137807200D02*
X165354762Y-137759580D01*
X165354762Y-137759580D02*
X165307143Y-137664342D01*
X165307143Y-137664342D02*
X165259524Y-137473866D01*
X165259524Y-137473866D02*
X165259524Y-137235771D01*
X165259524Y-137235771D02*
X165307143Y-137045295D01*
X165307143Y-137045295D02*
X165354762Y-136950057D01*
X165354762Y-136950057D02*
X165402381Y-136902438D01*
X165402381Y-136902438D02*
X165497619Y-136854819D01*
X166688095Y-137188152D02*
X166688095Y-137854819D01*
X166259524Y-137188152D02*
X166259524Y-137711961D01*
X166259524Y-137711961D02*
X166307143Y-137807200D01*
X166307143Y-137807200D02*
X166402381Y-137854819D01*
X166402381Y-137854819D02*
X166545238Y-137854819D01*
X166545238Y-137854819D02*
X166640476Y-137807200D01*
X166640476Y-137807200D02*
X166688095Y-137759580D01*
X167497619Y-137331009D02*
X167164286Y-137331009D01*
X167164286Y-137854819D02*
X167164286Y-136854819D01*
X167164286Y-136854819D02*
X167640476Y-136854819D01*
X139533333Y-81359580D02*
X139485714Y-81407200D01*
X139485714Y-81407200D02*
X139342857Y-81454819D01*
X139342857Y-81454819D02*
X139247619Y-81454819D01*
X139247619Y-81454819D02*
X139104762Y-81407200D01*
X139104762Y-81407200D02*
X139009524Y-81311961D01*
X139009524Y-81311961D02*
X138961905Y-81216723D01*
X138961905Y-81216723D02*
X138914286Y-81026247D01*
X138914286Y-81026247D02*
X138914286Y-80883390D01*
X138914286Y-80883390D02*
X138961905Y-80692914D01*
X138961905Y-80692914D02*
X139009524Y-80597676D01*
X139009524Y-80597676D02*
X139104762Y-80502438D01*
X139104762Y-80502438D02*
X139247619Y-80454819D01*
X139247619Y-80454819D02*
X139342857Y-80454819D01*
X139342857Y-80454819D02*
X139485714Y-80502438D01*
X139485714Y-80502438D02*
X139533333Y-80550057D01*
X140438095Y-80454819D02*
X139961905Y-80454819D01*
X139961905Y-80454819D02*
X139914286Y-80931009D01*
X139914286Y-80931009D02*
X139961905Y-80883390D01*
X139961905Y-80883390D02*
X140057143Y-80835771D01*
X140057143Y-80835771D02*
X140295238Y-80835771D01*
X140295238Y-80835771D02*
X140390476Y-80883390D01*
X140390476Y-80883390D02*
X140438095Y-80931009D01*
X140438095Y-80931009D02*
X140485714Y-81026247D01*
X140485714Y-81026247D02*
X140485714Y-81264342D01*
X140485714Y-81264342D02*
X140438095Y-81359580D01*
X140438095Y-81359580D02*
X140390476Y-81407200D01*
X140390476Y-81407200D02*
X140295238Y-81454819D01*
X140295238Y-81454819D02*
X140057143Y-81454819D01*
X140057143Y-81454819D02*
X139961905Y-81407200D01*
X139961905Y-81407200D02*
X139914286Y-81359580D01*
X138257143Y-81654819D02*
X138352381Y-81654819D01*
X138352381Y-81654819D02*
X138447619Y-81702438D01*
X138447619Y-81702438D02*
X138495238Y-81750057D01*
X138495238Y-81750057D02*
X138542857Y-81845295D01*
X138542857Y-81845295D02*
X138590476Y-82035771D01*
X138590476Y-82035771D02*
X138590476Y-82273866D01*
X138590476Y-82273866D02*
X138542857Y-82464342D01*
X138542857Y-82464342D02*
X138495238Y-82559580D01*
X138495238Y-82559580D02*
X138447619Y-82607200D01*
X138447619Y-82607200D02*
X138352381Y-82654819D01*
X138352381Y-82654819D02*
X138257143Y-82654819D01*
X138257143Y-82654819D02*
X138161905Y-82607200D01*
X138161905Y-82607200D02*
X138114286Y-82559580D01*
X138114286Y-82559580D02*
X138066667Y-82464342D01*
X138066667Y-82464342D02*
X138019048Y-82273866D01*
X138019048Y-82273866D02*
X138019048Y-82035771D01*
X138019048Y-82035771D02*
X138066667Y-81845295D01*
X138066667Y-81845295D02*
X138114286Y-81750057D01*
X138114286Y-81750057D02*
X138161905Y-81702438D01*
X138161905Y-81702438D02*
X138257143Y-81654819D01*
X139019048Y-82559580D02*
X139066667Y-82607200D01*
X139066667Y-82607200D02*
X139019048Y-82654819D01*
X139019048Y-82654819D02*
X138971429Y-82607200D01*
X138971429Y-82607200D02*
X139019048Y-82559580D01*
X139019048Y-82559580D02*
X139019048Y-82654819D01*
X140019047Y-82654819D02*
X139447619Y-82654819D01*
X139733333Y-82654819D02*
X139733333Y-81654819D01*
X139733333Y-81654819D02*
X139638095Y-81797676D01*
X139638095Y-81797676D02*
X139542857Y-81892914D01*
X139542857Y-81892914D02*
X139447619Y-81940533D01*
X140876190Y-81988152D02*
X140876190Y-82654819D01*
X140447619Y-81988152D02*
X140447619Y-82511961D01*
X140447619Y-82511961D02*
X140495238Y-82607200D01*
X140495238Y-82607200D02*
X140590476Y-82654819D01*
X140590476Y-82654819D02*
X140733333Y-82654819D01*
X140733333Y-82654819D02*
X140828571Y-82607200D01*
X140828571Y-82607200D02*
X140876190Y-82559580D01*
X141685714Y-82131009D02*
X141352381Y-82131009D01*
X141352381Y-82654819D02*
X141352381Y-81654819D01*
X141352381Y-81654819D02*
X141828571Y-81654819D01*
X125333333Y-105754819D02*
X125000000Y-105278628D01*
X124761905Y-105754819D02*
X124761905Y-104754819D01*
X124761905Y-104754819D02*
X125142857Y-104754819D01*
X125142857Y-104754819D02*
X125238095Y-104802438D01*
X125238095Y-104802438D02*
X125285714Y-104850057D01*
X125285714Y-104850057D02*
X125333333Y-104945295D01*
X125333333Y-104945295D02*
X125333333Y-105088152D01*
X125333333Y-105088152D02*
X125285714Y-105183390D01*
X125285714Y-105183390D02*
X125238095Y-105231009D01*
X125238095Y-105231009D02*
X125142857Y-105278628D01*
X125142857Y-105278628D02*
X124761905Y-105278628D01*
X125666667Y-104754819D02*
X126285714Y-104754819D01*
X126285714Y-104754819D02*
X125952381Y-105135771D01*
X125952381Y-105135771D02*
X126095238Y-105135771D01*
X126095238Y-105135771D02*
X126190476Y-105183390D01*
X126190476Y-105183390D02*
X126238095Y-105231009D01*
X126238095Y-105231009D02*
X126285714Y-105326247D01*
X126285714Y-105326247D02*
X126285714Y-105564342D01*
X126285714Y-105564342D02*
X126238095Y-105659580D01*
X126238095Y-105659580D02*
X126190476Y-105707200D01*
X126190476Y-105707200D02*
X126095238Y-105754819D01*
X126095238Y-105754819D02*
X125809524Y-105754819D01*
X125809524Y-105754819D02*
X125714286Y-105707200D01*
X125714286Y-105707200D02*
X125666667Y-105659580D01*
X125004761Y-107254819D02*
X124433333Y-107254819D01*
X124719047Y-107254819D02*
X124719047Y-106254819D01*
X124719047Y-106254819D02*
X124623809Y-106397676D01*
X124623809Y-106397676D02*
X124528571Y-106492914D01*
X124528571Y-106492914D02*
X124433333Y-106540533D01*
X125623809Y-106254819D02*
X125719047Y-106254819D01*
X125719047Y-106254819D02*
X125814285Y-106302438D01*
X125814285Y-106302438D02*
X125861904Y-106350057D01*
X125861904Y-106350057D02*
X125909523Y-106445295D01*
X125909523Y-106445295D02*
X125957142Y-106635771D01*
X125957142Y-106635771D02*
X125957142Y-106873866D01*
X125957142Y-106873866D02*
X125909523Y-107064342D01*
X125909523Y-107064342D02*
X125861904Y-107159580D01*
X125861904Y-107159580D02*
X125814285Y-107207200D01*
X125814285Y-107207200D02*
X125719047Y-107254819D01*
X125719047Y-107254819D02*
X125623809Y-107254819D01*
X125623809Y-107254819D02*
X125528571Y-107207200D01*
X125528571Y-107207200D02*
X125480952Y-107159580D01*
X125480952Y-107159580D02*
X125433333Y-107064342D01*
X125433333Y-107064342D02*
X125385714Y-106873866D01*
X125385714Y-106873866D02*
X125385714Y-106635771D01*
X125385714Y-106635771D02*
X125433333Y-106445295D01*
X125433333Y-106445295D02*
X125480952Y-106350057D01*
X125480952Y-106350057D02*
X125528571Y-106302438D01*
X125528571Y-106302438D02*
X125623809Y-106254819D01*
X126385714Y-107254819D02*
X126385714Y-106254819D01*
X126480952Y-106873866D02*
X126766666Y-107254819D01*
X126766666Y-106588152D02*
X126385714Y-106969104D01*
X140033333Y-72954819D02*
X139700000Y-72478628D01*
X139461905Y-72954819D02*
X139461905Y-71954819D01*
X139461905Y-71954819D02*
X139842857Y-71954819D01*
X139842857Y-71954819D02*
X139938095Y-72002438D01*
X139938095Y-72002438D02*
X139985714Y-72050057D01*
X139985714Y-72050057D02*
X140033333Y-72145295D01*
X140033333Y-72145295D02*
X140033333Y-72288152D01*
X140033333Y-72288152D02*
X139985714Y-72383390D01*
X139985714Y-72383390D02*
X139938095Y-72431009D01*
X139938095Y-72431009D02*
X139842857Y-72478628D01*
X139842857Y-72478628D02*
X139461905Y-72478628D01*
X140366667Y-71954819D02*
X141033333Y-71954819D01*
X141033333Y-71954819D02*
X140604762Y-72954819D01*
X139861904Y-73254819D02*
X139385714Y-73254819D01*
X139385714Y-73254819D02*
X139338095Y-73731009D01*
X139338095Y-73731009D02*
X139385714Y-73683390D01*
X139385714Y-73683390D02*
X139480952Y-73635771D01*
X139480952Y-73635771D02*
X139719047Y-73635771D01*
X139719047Y-73635771D02*
X139814285Y-73683390D01*
X139814285Y-73683390D02*
X139861904Y-73731009D01*
X139861904Y-73731009D02*
X139909523Y-73826247D01*
X139909523Y-73826247D02*
X139909523Y-74064342D01*
X139909523Y-74064342D02*
X139861904Y-74159580D01*
X139861904Y-74159580D02*
X139814285Y-74207200D01*
X139814285Y-74207200D02*
X139719047Y-74254819D01*
X139719047Y-74254819D02*
X139480952Y-74254819D01*
X139480952Y-74254819D02*
X139385714Y-74207200D01*
X139385714Y-74207200D02*
X139338095Y-74159580D01*
X140861904Y-74254819D02*
X140290476Y-74254819D01*
X140576190Y-74254819D02*
X140576190Y-73254819D01*
X140576190Y-73254819D02*
X140480952Y-73397676D01*
X140480952Y-73397676D02*
X140385714Y-73492914D01*
X140385714Y-73492914D02*
X140290476Y-73540533D01*
X150933333Y-82654819D02*
X150457143Y-82654819D01*
X150457143Y-82654819D02*
X150457143Y-81654819D01*
X151219048Y-81750057D02*
X151266667Y-81702438D01*
X151266667Y-81702438D02*
X151361905Y-81654819D01*
X151361905Y-81654819D02*
X151600000Y-81654819D01*
X151600000Y-81654819D02*
X151695238Y-81702438D01*
X151695238Y-81702438D02*
X151742857Y-81750057D01*
X151742857Y-81750057D02*
X151790476Y-81845295D01*
X151790476Y-81845295D02*
X151790476Y-81940533D01*
X151790476Y-81940533D02*
X151742857Y-82083390D01*
X151742857Y-82083390D02*
X151171429Y-82654819D01*
X151171429Y-82654819D02*
X151790476Y-82654819D01*
X145833333Y-100584819D02*
X145500000Y-100108628D01*
X145261905Y-100584819D02*
X145261905Y-99584819D01*
X145261905Y-99584819D02*
X145642857Y-99584819D01*
X145642857Y-99584819D02*
X145738095Y-99632438D01*
X145738095Y-99632438D02*
X145785714Y-99680057D01*
X145785714Y-99680057D02*
X145833333Y-99775295D01*
X145833333Y-99775295D02*
X145833333Y-99918152D01*
X145833333Y-99918152D02*
X145785714Y-100013390D01*
X145785714Y-100013390D02*
X145738095Y-100061009D01*
X145738095Y-100061009D02*
X145642857Y-100108628D01*
X145642857Y-100108628D02*
X145261905Y-100108628D01*
X146214286Y-99680057D02*
X146261905Y-99632438D01*
X146261905Y-99632438D02*
X146357143Y-99584819D01*
X146357143Y-99584819D02*
X146595238Y-99584819D01*
X146595238Y-99584819D02*
X146690476Y-99632438D01*
X146690476Y-99632438D02*
X146738095Y-99680057D01*
X146738095Y-99680057D02*
X146785714Y-99775295D01*
X146785714Y-99775295D02*
X146785714Y-99870533D01*
X146785714Y-99870533D02*
X146738095Y-100013390D01*
X146738095Y-100013390D02*
X146166667Y-100584819D01*
X146166667Y-100584819D02*
X146785714Y-100584819D01*
X146285714Y-104224819D02*
X145714286Y-104224819D01*
X146000000Y-104224819D02*
X146000000Y-103224819D01*
X146000000Y-103224819D02*
X145904762Y-103367676D01*
X145904762Y-103367676D02*
X145809524Y-103462914D01*
X145809524Y-103462914D02*
X145714286Y-103510533D01*
X158332142Y-81409580D02*
X158284523Y-81457200D01*
X158284523Y-81457200D02*
X158141666Y-81504819D01*
X158141666Y-81504819D02*
X158046428Y-81504819D01*
X158046428Y-81504819D02*
X157903571Y-81457200D01*
X157903571Y-81457200D02*
X157808333Y-81361961D01*
X157808333Y-81361961D02*
X157760714Y-81266723D01*
X157760714Y-81266723D02*
X157713095Y-81076247D01*
X157713095Y-81076247D02*
X157713095Y-80933390D01*
X157713095Y-80933390D02*
X157760714Y-80742914D01*
X157760714Y-80742914D02*
X157808333Y-80647676D01*
X157808333Y-80647676D02*
X157903571Y-80552438D01*
X157903571Y-80552438D02*
X158046428Y-80504819D01*
X158046428Y-80504819D02*
X158141666Y-80504819D01*
X158141666Y-80504819D02*
X158284523Y-80552438D01*
X158284523Y-80552438D02*
X158332142Y-80600057D01*
X159284523Y-81504819D02*
X158713095Y-81504819D01*
X158998809Y-81504819D02*
X158998809Y-80504819D01*
X158998809Y-80504819D02*
X158903571Y-80647676D01*
X158903571Y-80647676D02*
X158808333Y-80742914D01*
X158808333Y-80742914D02*
X158713095Y-80790533D01*
X160189285Y-80504819D02*
X159713095Y-80504819D01*
X159713095Y-80504819D02*
X159665476Y-80981009D01*
X159665476Y-80981009D02*
X159713095Y-80933390D01*
X159713095Y-80933390D02*
X159808333Y-80885771D01*
X159808333Y-80885771D02*
X160046428Y-80885771D01*
X160046428Y-80885771D02*
X160141666Y-80933390D01*
X160141666Y-80933390D02*
X160189285Y-80981009D01*
X160189285Y-80981009D02*
X160236904Y-81076247D01*
X160236904Y-81076247D02*
X160236904Y-81314342D01*
X160236904Y-81314342D02*
X160189285Y-81409580D01*
X160189285Y-81409580D02*
X160141666Y-81457200D01*
X160141666Y-81457200D02*
X160046428Y-81504819D01*
X160046428Y-81504819D02*
X159808333Y-81504819D01*
X159808333Y-81504819D02*
X159713095Y-81457200D01*
X159713095Y-81457200D02*
X159665476Y-81409580D01*
X156857143Y-84254819D02*
X156952381Y-84254819D01*
X156952381Y-84254819D02*
X157047619Y-84302438D01*
X157047619Y-84302438D02*
X157095238Y-84350057D01*
X157095238Y-84350057D02*
X157142857Y-84445295D01*
X157142857Y-84445295D02*
X157190476Y-84635771D01*
X157190476Y-84635771D02*
X157190476Y-84873866D01*
X157190476Y-84873866D02*
X157142857Y-85064342D01*
X157142857Y-85064342D02*
X157095238Y-85159580D01*
X157095238Y-85159580D02*
X157047619Y-85207200D01*
X157047619Y-85207200D02*
X156952381Y-85254819D01*
X156952381Y-85254819D02*
X156857143Y-85254819D01*
X156857143Y-85254819D02*
X156761905Y-85207200D01*
X156761905Y-85207200D02*
X156714286Y-85159580D01*
X156714286Y-85159580D02*
X156666667Y-85064342D01*
X156666667Y-85064342D02*
X156619048Y-84873866D01*
X156619048Y-84873866D02*
X156619048Y-84635771D01*
X156619048Y-84635771D02*
X156666667Y-84445295D01*
X156666667Y-84445295D02*
X156714286Y-84350057D01*
X156714286Y-84350057D02*
X156761905Y-84302438D01*
X156761905Y-84302438D02*
X156857143Y-84254819D01*
X157619048Y-85159580D02*
X157666667Y-85207200D01*
X157666667Y-85207200D02*
X157619048Y-85254819D01*
X157619048Y-85254819D02*
X157571429Y-85207200D01*
X157571429Y-85207200D02*
X157619048Y-85159580D01*
X157619048Y-85159580D02*
X157619048Y-85254819D01*
X158619047Y-85254819D02*
X158047619Y-85254819D01*
X158333333Y-85254819D02*
X158333333Y-84254819D01*
X158333333Y-84254819D02*
X158238095Y-84397676D01*
X158238095Y-84397676D02*
X158142857Y-84492914D01*
X158142857Y-84492914D02*
X158047619Y-84540533D01*
X159476190Y-84588152D02*
X159476190Y-85254819D01*
X159047619Y-84588152D02*
X159047619Y-85111961D01*
X159047619Y-85111961D02*
X159095238Y-85207200D01*
X159095238Y-85207200D02*
X159190476Y-85254819D01*
X159190476Y-85254819D02*
X159333333Y-85254819D01*
X159333333Y-85254819D02*
X159428571Y-85207200D01*
X159428571Y-85207200D02*
X159476190Y-85159580D01*
X160285714Y-84731009D02*
X159952381Y-84731009D01*
X159952381Y-85254819D02*
X159952381Y-84254819D01*
X159952381Y-84254819D02*
X160428571Y-84254819D01*
X156357142Y-92959580D02*
X156309523Y-93007200D01*
X156309523Y-93007200D02*
X156166666Y-93054819D01*
X156166666Y-93054819D02*
X156071428Y-93054819D01*
X156071428Y-93054819D02*
X155928571Y-93007200D01*
X155928571Y-93007200D02*
X155833333Y-92911961D01*
X155833333Y-92911961D02*
X155785714Y-92816723D01*
X155785714Y-92816723D02*
X155738095Y-92626247D01*
X155738095Y-92626247D02*
X155738095Y-92483390D01*
X155738095Y-92483390D02*
X155785714Y-92292914D01*
X155785714Y-92292914D02*
X155833333Y-92197676D01*
X155833333Y-92197676D02*
X155928571Y-92102438D01*
X155928571Y-92102438D02*
X156071428Y-92054819D01*
X156071428Y-92054819D02*
X156166666Y-92054819D01*
X156166666Y-92054819D02*
X156309523Y-92102438D01*
X156309523Y-92102438D02*
X156357142Y-92150057D01*
X157309523Y-93054819D02*
X156738095Y-93054819D01*
X157023809Y-93054819D02*
X157023809Y-92054819D01*
X157023809Y-92054819D02*
X156928571Y-92197676D01*
X156928571Y-92197676D02*
X156833333Y-92292914D01*
X156833333Y-92292914D02*
X156738095Y-92340533D01*
X158166666Y-92054819D02*
X157976190Y-92054819D01*
X157976190Y-92054819D02*
X157880952Y-92102438D01*
X157880952Y-92102438D02*
X157833333Y-92150057D01*
X157833333Y-92150057D02*
X157738095Y-92292914D01*
X157738095Y-92292914D02*
X157690476Y-92483390D01*
X157690476Y-92483390D02*
X157690476Y-92864342D01*
X157690476Y-92864342D02*
X157738095Y-92959580D01*
X157738095Y-92959580D02*
X157785714Y-93007200D01*
X157785714Y-93007200D02*
X157880952Y-93054819D01*
X157880952Y-93054819D02*
X158071428Y-93054819D01*
X158071428Y-93054819D02*
X158166666Y-93007200D01*
X158166666Y-93007200D02*
X158214285Y-92959580D01*
X158214285Y-92959580D02*
X158261904Y-92864342D01*
X158261904Y-92864342D02*
X158261904Y-92626247D01*
X158261904Y-92626247D02*
X158214285Y-92531009D01*
X158214285Y-92531009D02*
X158166666Y-92483390D01*
X158166666Y-92483390D02*
X158071428Y-92435771D01*
X158071428Y-92435771D02*
X157880952Y-92435771D01*
X157880952Y-92435771D02*
X157785714Y-92483390D01*
X157785714Y-92483390D02*
X157738095Y-92531009D01*
X157738095Y-92531009D02*
X157690476Y-92626247D01*
X155557143Y-93454819D02*
X155652381Y-93454819D01*
X155652381Y-93454819D02*
X155747619Y-93502438D01*
X155747619Y-93502438D02*
X155795238Y-93550057D01*
X155795238Y-93550057D02*
X155842857Y-93645295D01*
X155842857Y-93645295D02*
X155890476Y-93835771D01*
X155890476Y-93835771D02*
X155890476Y-94073866D01*
X155890476Y-94073866D02*
X155842857Y-94264342D01*
X155842857Y-94264342D02*
X155795238Y-94359580D01*
X155795238Y-94359580D02*
X155747619Y-94407200D01*
X155747619Y-94407200D02*
X155652381Y-94454819D01*
X155652381Y-94454819D02*
X155557143Y-94454819D01*
X155557143Y-94454819D02*
X155461905Y-94407200D01*
X155461905Y-94407200D02*
X155414286Y-94359580D01*
X155414286Y-94359580D02*
X155366667Y-94264342D01*
X155366667Y-94264342D02*
X155319048Y-94073866D01*
X155319048Y-94073866D02*
X155319048Y-93835771D01*
X155319048Y-93835771D02*
X155366667Y-93645295D01*
X155366667Y-93645295D02*
X155414286Y-93550057D01*
X155414286Y-93550057D02*
X155461905Y-93502438D01*
X155461905Y-93502438D02*
X155557143Y-93454819D01*
X156319048Y-94359580D02*
X156366667Y-94407200D01*
X156366667Y-94407200D02*
X156319048Y-94454819D01*
X156319048Y-94454819D02*
X156271429Y-94407200D01*
X156271429Y-94407200D02*
X156319048Y-94359580D01*
X156319048Y-94359580D02*
X156319048Y-94454819D01*
X157319047Y-94454819D02*
X156747619Y-94454819D01*
X157033333Y-94454819D02*
X157033333Y-93454819D01*
X157033333Y-93454819D02*
X156938095Y-93597676D01*
X156938095Y-93597676D02*
X156842857Y-93692914D01*
X156842857Y-93692914D02*
X156747619Y-93740533D01*
X158176190Y-93788152D02*
X158176190Y-94454819D01*
X157747619Y-93788152D02*
X157747619Y-94311961D01*
X157747619Y-94311961D02*
X157795238Y-94407200D01*
X157795238Y-94407200D02*
X157890476Y-94454819D01*
X157890476Y-94454819D02*
X158033333Y-94454819D01*
X158033333Y-94454819D02*
X158128571Y-94407200D01*
X158128571Y-94407200D02*
X158176190Y-94359580D01*
X158985714Y-93931009D02*
X158652381Y-93931009D01*
X158652381Y-94454819D02*
X158652381Y-93454819D01*
X158652381Y-93454819D02*
X159128571Y-93454819D01*
D13*
X158790000Y-90736252D02*
X158790000Y-89313748D01*
X160610000Y-90736252D02*
X160610000Y-89313748D01*
X162690000Y-110577064D02*
X162690000Y-109122936D01*
X164510000Y-110577064D02*
X164510000Y-109122936D01*
X129190000Y-115563748D02*
X129190000Y-116986252D01*
X131010000Y-115563748D02*
X131010000Y-116986252D01*
X169762500Y-119552500D02*
X170550000Y-119552500D01*
X170156250Y-119158750D02*
X170156250Y-119946250D01*
X170790000Y-119054437D02*
X170790000Y-120340000D01*
X170790000Y-119054437D02*
X171854437Y-117990000D01*
X170790000Y-123745563D02*
X170790000Y-122460000D01*
X170790000Y-123745563D02*
X171854437Y-124810000D01*
X171854437Y-117990000D02*
X177610000Y-117990000D01*
X171854437Y-124810000D02*
X177610000Y-124810000D01*
X177610000Y-117990000D02*
X177610000Y-120340000D01*
X177610000Y-124810000D02*
X177610000Y-122460000D01*
X131920000Y-70485000D02*
X131920000Y-80235000D01*
X136970000Y-70485000D02*
X131920000Y-70485000D01*
X136970000Y-70485000D02*
X136970000Y-80235000D01*
X136970000Y-80235000D02*
X131920000Y-80235000D01*
X142290000Y-77589564D02*
X142290000Y-76135436D01*
X144110000Y-77589564D02*
X144110000Y-76135436D01*
X142290000Y-70963748D02*
X142290000Y-72386252D01*
X144110000Y-70963748D02*
X144110000Y-72386252D01*
D14*
X129700000Y-83000000D02*
X140700000Y-83000000D01*
X140700000Y-97000000D01*
X129700000Y-97000000D01*
X129700000Y-83000000D01*
D13*
X131936252Y-108890000D02*
X130513748Y-108890000D01*
X131936252Y-110710000D02*
X130513748Y-110710000D01*
X144664564Y-110590000D02*
X143210436Y-110590000D01*
X144664564Y-112410000D02*
X143210436Y-112410000D01*
X138110436Y-101340000D02*
X139564564Y-101340000D01*
X138110436Y-103160000D02*
X139564564Y-103160000D01*
X142290000Y-98486252D02*
X142290000Y-97063748D01*
X144110000Y-98486252D02*
X144110000Y-97063748D01*
X152900000Y-126340000D02*
X152900000Y-134850000D01*
X152900000Y-126340000D02*
X159400000Y-126340000D01*
X159400000Y-126340000D02*
X159400000Y-134850000D01*
D15*
X130695000Y-127595000D02*
X130695000Y-134325000D01*
X132750000Y-127595000D02*
X130695000Y-127595000D01*
X132750000Y-134325000D02*
X130695000Y-134325000D01*
X135000000Y-127595000D02*
X146200000Y-127595000D01*
X146200000Y-134325000D02*
X135000000Y-134325000D01*
X148450000Y-127595000D02*
X150505000Y-127595000D01*
X148450000Y-134325000D02*
X150505000Y-134325000D01*
X150505000Y-127595000D02*
X150505000Y-134325000D01*
D13*
X138138748Y-104440000D02*
X139561252Y-104440000D01*
X138138748Y-106260000D02*
X139561252Y-106260000D01*
X171890000Y-128204437D02*
X171890000Y-133960000D01*
X171890000Y-133960000D02*
X174240000Y-133960000D01*
X172954437Y-127140000D02*
X171890000Y-128204437D01*
X172954437Y-127140000D02*
X174240000Y-127140000D01*
X177147500Y-126112500D02*
X177147500Y-126900000D01*
X177541250Y-126506250D02*
X176753750Y-126506250D01*
X177645563Y-127140000D02*
X176360000Y-127140000D01*
X177645563Y-127140000D02*
X178710000Y-128204437D01*
X178710000Y-128204437D02*
X178710000Y-133960000D01*
X178710000Y-133960000D02*
X176360000Y-133960000D01*
D16*
X136773601Y-109666700D02*
X136773601Y-111724100D01*
X138813262Y-109666700D02*
X138086740Y-109666700D01*
X140126401Y-111724100D02*
X140126401Y-109666700D01*
D13*
X171163748Y-112290000D02*
X172586252Y-112290000D01*
X171163748Y-114110000D02*
X172586252Y-114110000D01*
D14*
X163800000Y-90400000D02*
X178800000Y-90400000D01*
X178800000Y-104400000D01*
X163800000Y-104400000D01*
X163800000Y-90400000D01*
D13*
X126488748Y-122090000D02*
X127911252Y-122090000D01*
X126488748Y-123910000D02*
X127911252Y-123910000D01*
X130170000Y-98135000D02*
X130170000Y-107885000D01*
X135220000Y-98135000D02*
X130170000Y-98135000D01*
X135220000Y-98135000D02*
X135220000Y-107885000D01*
X135220000Y-107885000D02*
X130170000Y-107885000D01*
D15*
X165275000Y-111880000D02*
X165275000Y-107820000D01*
X168325000Y-111880000D02*
X168325000Y-107820000D01*
D13*
X125890000Y-116986252D02*
X125890000Y-115563748D01*
X127710000Y-116986252D02*
X127710000Y-115563748D01*
D14*
X163800000Y-75600000D02*
X178800000Y-75600000D01*
X178800000Y-89600000D01*
X163800000Y-89600000D01*
X163800000Y-75600000D01*
D13*
X171163748Y-115390000D02*
X172586252Y-115390000D01*
X171163748Y-117210000D02*
X172586252Y-117210000D01*
D14*
X171415000Y-69765000D02*
X171415000Y-67315000D01*
X173440000Y-71865000D02*
X175990000Y-71865000D01*
X173590000Y-65190000D02*
X175915000Y-65190000D01*
X178140000Y-67390000D02*
X178140000Y-69565000D01*
D13*
X147272936Y-80040000D02*
X148727064Y-80040000D01*
X147272936Y-81860000D02*
X148727064Y-81860000D01*
D15*
X162180000Y-126325000D02*
X166240000Y-126325000D01*
X162180000Y-129375000D02*
X166240000Y-129375000D01*
D13*
X118080000Y-125180000D02*
X118080000Y-127500000D01*
X118080000Y-128100000D02*
X118080000Y-135420000D01*
X118700000Y-125180000D02*
X118700000Y-135420000D01*
X119800000Y-125180000D02*
X119800000Y-135420000D01*
X128520000Y-125180000D02*
X118080000Y-125180000D01*
X128520000Y-125180000D02*
X128520000Y-135420000D01*
X128520000Y-135420000D02*
X118080000Y-135420000D01*
D14*
X117165000Y-88265000D02*
X117165000Y-85815000D01*
X119190000Y-90365000D02*
X121740000Y-90365000D01*
X119340000Y-83690000D02*
X121665000Y-83690000D01*
X123890000Y-85890000D02*
X123890000Y-88065000D01*
X117900000Y-114900000D02*
X117900000Y-115400000D01*
X117900000Y-114900000D02*
X118400000Y-114900000D01*
X117900000Y-123100000D02*
X117900000Y-122600000D01*
X117900000Y-123100000D02*
X118400000Y-123100000D01*
X123900000Y-114900000D02*
X123400000Y-114900000D01*
X123900000Y-114900000D02*
X123900000Y-115400000D01*
X123900000Y-123100000D02*
X123400000Y-123100000D01*
X123900000Y-123100000D02*
X123900000Y-122600000D01*
D13*
X132040000Y-113637500D02*
X132040000Y-112837500D01*
X132040000Y-113637500D02*
X132040000Y-114437500D01*
X135160000Y-113637500D02*
X135160000Y-112837500D01*
X135160000Y-113637500D02*
X135160000Y-114437500D01*
X132090000Y-114937500D02*
X131760000Y-115177500D01*
X131760000Y-114697500D01*
X132090000Y-114937500D01*
G36*
X132090000Y-114937500D02*
G01*
X131760000Y-115177500D01*
X131760000Y-114697500D01*
X132090000Y-114937500D01*
G37*
X121664758Y-111290000D02*
X123335242Y-111290000D01*
X121664758Y-113110000D02*
X123335242Y-113110000D01*
D15*
X165275000Y-120130000D02*
X165275000Y-116070000D01*
X168325000Y-120130000D02*
X168325000Y-116070000D01*
D13*
X138110436Y-98340000D02*
X139564564Y-98340000D01*
X138110436Y-100160000D02*
X139564564Y-100160000D01*
X168690000Y-131888748D02*
X168690000Y-133311252D01*
X170510000Y-131888748D02*
X170510000Y-133311252D01*
X143210436Y-107590000D02*
X144664564Y-107590000D01*
X143210436Y-109410000D02*
X144664564Y-109410000D01*
X165090000Y-131913748D02*
X165090000Y-133336252D01*
X166910000Y-131913748D02*
X166910000Y-133336252D01*
X142290000Y-81713748D02*
X142290000Y-83136252D01*
X144110000Y-81713748D02*
X144110000Y-83136252D01*
X124835436Y-107890000D02*
X126289564Y-107890000D01*
X124835436Y-109710000D02*
X126289564Y-109710000D01*
X139240000Y-77589564D02*
X139240000Y-76135436D01*
X141060000Y-77589564D02*
X141060000Y-76135436D01*
D14*
X145500000Y-83000000D02*
X154500000Y-83000000D01*
X154500000Y-97000000D01*
X145500000Y-97000000D01*
X145500000Y-83000000D01*
D13*
X145272936Y-101040000D02*
X146727064Y-101040000D01*
X145272936Y-102860000D02*
X146727064Y-102860000D01*
X158263748Y-81990000D02*
X159686252Y-81990000D01*
X158263748Y-83810000D02*
X159686252Y-83810000D01*
X156288748Y-94990000D02*
X157711252Y-94990000D01*
X156288748Y-96810000D02*
X157711252Y-96810000D01*
%LPC*%
D17*
X159700000Y-91500000D03*
X159700000Y-88550000D03*
D18*
X163600000Y-111312500D03*
X163600000Y-108387500D03*
D19*
X130100000Y-114800000D03*
X130100000Y-117750000D03*
D20*
X171500000Y-121400000D03*
X176900000Y-121400000D03*
D21*
X134450000Y-77900000D03*
X134450000Y-75360000D03*
X134450000Y-72820000D03*
D18*
X143200000Y-78325000D03*
X143200000Y-75400000D03*
D19*
X143200000Y-70200000D03*
X143200000Y-73150000D03*
D22*
X127200000Y-87000000D03*
X127200000Y-93000000D03*
X143200000Y-93000000D03*
D23*
X143200000Y-90000000D03*
D22*
X143200000Y-87000000D03*
D24*
X132700000Y-109800000D03*
X129750000Y-109800000D03*
D25*
X145400000Y-111500000D03*
X142475000Y-111500000D03*
D26*
X137375000Y-102250000D03*
X140300000Y-102250000D03*
D17*
X143200000Y-99250000D03*
X143200000Y-96300000D03*
D27*
X156150000Y-127850000D03*
X156150000Y-134650000D03*
D28*
X133870000Y-127800000D03*
X133870000Y-134120000D03*
X147330000Y-127800000D03*
X147330000Y-134120000D03*
D29*
X137375000Y-105350000D03*
X140325000Y-105350000D03*
D30*
X175300000Y-127850000D03*
X175300000Y-133250000D03*
D31*
X152500000Y-78621500D03*
X155000000Y-78621500D03*
X157500000Y-78621500D03*
D32*
X180000000Y-59000000D03*
D33*
X137500000Y-111990800D03*
X138450001Y-111990800D03*
X139400002Y-111990800D03*
X139400002Y-109400000D03*
X137500000Y-109400000D03*
D29*
X170400000Y-113200000D03*
X173350000Y-113200000D03*
D34*
X161300000Y-94400000D03*
X161300000Y-100400000D03*
D22*
X181300000Y-100400000D03*
X181300000Y-94400000D03*
D29*
X125725000Y-123000000D03*
X128675000Y-123000000D03*
D21*
X132700000Y-105550000D03*
X132700000Y-103010000D03*
X132700000Y-100470000D03*
D35*
X166800000Y-111640000D03*
X166800000Y-108060000D03*
D17*
X126800000Y-117750000D03*
X126800000Y-114800000D03*
D34*
X161300000Y-79600000D03*
X161300000Y-85600000D03*
D22*
X181300000Y-85600000D03*
X181300000Y-79600000D03*
D32*
X120500000Y-59000000D03*
X180000000Y-142000000D03*
D29*
X170400000Y-116300000D03*
X173350000Y-116300000D03*
D36*
X172200000Y-66000000D03*
X172200000Y-71080000D03*
X177280000Y-66000000D03*
X177280000Y-71080000D03*
D37*
X174840000Y-68465000D03*
D26*
X146537500Y-80950000D03*
X149462500Y-80950000D03*
D31*
X157500000Y-101837500D03*
X155000000Y-101837500D03*
X152500000Y-101837500D03*
D38*
X162420000Y-127850000D03*
X166000000Y-127850000D03*
D39*
X123600000Y-127800000D03*
D40*
X123600000Y-132800000D03*
D36*
X117950000Y-84500000D03*
X117950000Y-89580000D03*
X123030000Y-84500000D03*
X123030000Y-89580000D03*
D37*
X120590000Y-86965000D03*
D34*
X120900000Y-117500000D03*
X120900000Y-120000000D03*
D41*
X132650000Y-114775000D03*
X133600000Y-114775000D03*
X134550000Y-114775000D03*
X134550000Y-112500000D03*
X132650000Y-112500000D03*
D42*
X120925000Y-112200000D03*
X124075000Y-112200000D03*
D35*
X166800000Y-119890000D03*
X166800000Y-116310000D03*
D26*
X137375000Y-99250000D03*
X140300000Y-99250000D03*
D32*
X120500000Y-142000000D03*
D19*
X169600000Y-131125000D03*
X169600000Y-134075000D03*
D26*
X142475000Y-108500000D03*
X145400000Y-108500000D03*
D19*
X166000000Y-131150000D03*
X166000000Y-134100000D03*
X143200000Y-80950000D03*
X143200000Y-83900000D03*
D26*
X124100000Y-108800000D03*
X127025000Y-108800000D03*
D18*
X140150000Y-78325000D03*
X140150000Y-75400000D03*
D32*
X143000000Y-118000000D03*
D22*
X150000000Y-87000000D03*
D23*
X150000000Y-90000000D03*
D22*
X150000000Y-93000000D03*
D26*
X144537500Y-101950000D03*
X147462500Y-101950000D03*
D29*
X157500000Y-82900000D03*
X160450000Y-82900000D03*
X155525000Y-95900000D03*
X158475000Y-95900000D03*
%LPD*%
M02*
