%TF.GenerationSoftware,KiCad,Pcbnew,8.0.5-dirty*%
%TF.CreationDate,2024-10-12T08:13:24-04:00*%
%TF.ProjectId,t41_2_power_amplifier,7434315f-325f-4706-9f77-65725f616d70,rev?*%
%TF.SameCoordinates,Original*%
%TF.FileFunction,Soldermask,Top*%
%TF.FilePolarity,Negative*%
%FSLAX46Y46*%
G04 Gerber Fmt 4.6, Leading zero omitted, Abs format (unit mm)*
G04 Created by KiCad (PCBNEW 8.0.5-dirty) date 2024-10-12 08:13:24*
%MOMM*%
%LPD*%
G01*
G04 APERTURE LIST*
G04 Aperture macros list*
%AMRoundRect*
0 Rectangle with rounded corners*
0 $1 Rounding radius*
0 $2 $3 $4 $5 $6 $7 $8 $9 X,Y pos of 4 corners*
0 Add a 4 corners polygon primitive as box body*
4,1,4,$2,$3,$4,$5,$6,$7,$8,$9,$2,$3,0*
0 Add four circle primitives for the rounded corners*
1,1,$1+$1,$2,$3*
1,1,$1+$1,$4,$5*
1,1,$1+$1,$6,$7*
1,1,$1+$1,$8,$9*
0 Add four rect primitives between the rounded corners*
20,1,$1+$1,$2,$3,$4,$5,0*
20,1,$1+$1,$4,$5,$6,$7,0*
20,1,$1+$1,$6,$7,$8,$9,0*
20,1,$1+$1,$8,$9,$2,$3,0*%
%AMFreePoly0*
4,1,9,3.862500,-0.866500,0.737500,-0.866500,0.737500,-0.450000,-0.737500,-0.450000,-0.737500,0.450000,0.737500,0.450000,0.737500,0.866500,3.862500,0.866500,3.862500,-0.866500,3.862500,-0.866500,$1*%
G04 Aperture macros list end*
%ADD10RoundRect,0.250000X-0.312500X-0.625000X0.312500X-0.625000X0.312500X0.625000X-0.312500X0.625000X0*%
%ADD11RoundRect,0.150000X-0.512500X-0.150000X0.512500X-0.150000X0.512500X0.150000X-0.512500X0.150000X0*%
%ADD12RoundRect,0.250000X-0.325000X-0.650000X0.325000X-0.650000X0.325000X0.650000X-0.325000X0.650000X0*%
%ADD13RoundRect,0.250000X-0.550000X1.500000X-0.550000X-1.500000X0.550000X-1.500000X0.550000X1.500000X0*%
%ADD14C,1.440000*%
%ADD15RoundRect,0.225000X-0.425000X-0.225000X0.425000X-0.225000X0.425000X0.225000X-0.425000X0.225000X0*%
%ADD16FreePoly0,0.000000*%
%ADD17RoundRect,0.250000X0.325000X0.650000X-0.325000X0.650000X-0.325000X-0.650000X0.325000X-0.650000X0*%
%ADD18RoundRect,0.250000X1.400000X1.000000X-1.400000X1.000000X-1.400000X-1.000000X1.400000X-1.000000X0*%
%ADD19C,2.000000*%
%ADD20RoundRect,0.102000X-0.785000X-1.410000X0.785000X-1.410000X0.785000X1.410000X-0.785000X1.410000X0*%
%ADD21R,1.524000X4.143000*%
%ADD22RoundRect,0.102000X0.735000X-1.385000X0.735000X1.385000X-0.735000X1.385000X-0.735000X-1.385000X0*%
%ADD23RoundRect,0.250000X1.075000X-0.375000X1.075000X0.375000X-1.075000X0.375000X-1.075000X-0.375000X0*%
%ADD24C,2.600000*%
%ADD25C,2.500000*%
%ADD26R,2.400000X2.400000*%
%ADD27C,2.400000*%
%ADD28C,2.100000*%
%ADD29RoundRect,0.102000X-1.385000X-0.735000X1.385000X-0.735000X1.385000X0.735000X-1.385000X0.735000X0*%
%ADD30RoundRect,0.150000X-0.587500X-0.150000X0.587500X-0.150000X0.587500X0.150000X-0.587500X0.150000X0*%
%ADD31RoundRect,0.375000X-0.625000X-0.375000X0.625000X-0.375000X0.625000X0.375000X-0.625000X0.375000X0*%
%ADD32RoundRect,0.500000X-0.500000X-1.400000X0.500000X-1.400000X0.500000X1.400000X-0.500000X1.400000X0*%
G04 APERTURE END LIST*
D10*
%TO.C,R19*%
X69827500Y-30150000D03*
X72752500Y-30150000D03*
%TD*%
D11*
%TO.C,U1*%
X182625000Y-140200000D03*
X182625000Y-141150000D03*
X182625000Y-142100000D03*
X184900000Y-142100000D03*
X184900000Y-140200000D03*
%TD*%
D12*
%TO.C,C3*%
X38975000Y-61350000D03*
X41925000Y-61350000D03*
%TD*%
D13*
%TO.C,C9*%
X164500000Y-138000000D03*
X164500000Y-143400000D03*
%TD*%
D14*
%TO.C,R11*%
X185200000Y-125700000D03*
X182660000Y-125700000D03*
X180120000Y-125700000D03*
%TD*%
D10*
%TO.C,R8*%
X64217500Y-23570000D03*
X67142500Y-23570000D03*
%TD*%
D12*
%TO.C,C8*%
X44625000Y-58000000D03*
X47575000Y-58000000D03*
%TD*%
%TO.C,C14*%
X44625000Y-71400000D03*
X47575000Y-71400000D03*
%TD*%
D15*
%TO.C,Q2*%
X116050000Y-110900000D03*
D16*
X116137500Y-112400000D03*
D15*
X116050000Y-113900000D03*
%TD*%
D10*
%TO.C,R6*%
X58607500Y-40020000D03*
X61532500Y-40020000D03*
%TD*%
D17*
%TO.C,C6*%
X142500000Y-98500000D03*
X139550000Y-98500000D03*
%TD*%
D18*
%TO.C,D1*%
X145400000Y-144200000D03*
X145400000Y-137400000D03*
%TD*%
D19*
%TO.C,T3*%
X118000000Y-88000000D03*
X118000000Y-94000000D03*
X134000000Y-94000000D03*
X134000000Y-91000000D03*
X134000000Y-88000000D03*
%TD*%
D20*
%TO.C,F1*%
X122370000Y-136640000D03*
X122370000Y-142960000D03*
X135830000Y-136640000D03*
X135830000Y-142960000D03*
%TD*%
D12*
%TO.C,C7*%
X44625000Y-54650000D03*
X47575000Y-54650000D03*
%TD*%
%TO.C,C4*%
X38975000Y-64700000D03*
X41925000Y-64700000D03*
%TD*%
D13*
%TO.C,C10*%
X155300000Y-138000000D03*
X155300000Y-143400000D03*
%TD*%
D10*
%TO.C,R12*%
X64217500Y-33440000D03*
X67142500Y-33440000D03*
%TD*%
D21*
%TO.C,Q3*%
X148500000Y-76791000D03*
X151000000Y-76791000D03*
X153500000Y-76791000D03*
%TD*%
D12*
%TO.C,C15*%
X50275000Y-54650000D03*
X53225000Y-54650000D03*
%TD*%
D14*
%TO.C,R17*%
X185200000Y-133200000D03*
X182660000Y-133200000D03*
X180120000Y-133200000D03*
%TD*%
D10*
%TO.C,R15*%
X64217500Y-43310000D03*
X67142500Y-43310000D03*
%TD*%
D19*
%TO.C,T1*%
X151000000Y-81000000D03*
X151000000Y-99000000D03*
X151000000Y-93000000D03*
X151000000Y-90000000D03*
X151000000Y-87000000D03*
%TD*%
D22*
%TO.C,E1*%
X165000000Y-114480000D03*
X165000000Y-110900000D03*
%TD*%
D12*
%TO.C,C11*%
X44625000Y-61350000D03*
X47575000Y-61350000D03*
%TD*%
D19*
%TO.C,T2*%
X159000000Y-83000000D03*
X159000000Y-97000000D03*
X197000000Y-97000000D03*
X197000000Y-83000000D03*
%TD*%
D10*
%TO.C,R4*%
X58607500Y-33440000D03*
X61532500Y-33440000D03*
%TD*%
%TO.C,R3*%
X58607500Y-30150000D03*
X61532500Y-30150000D03*
%TD*%
%TO.C,R10*%
X64217500Y-30150000D03*
X67142500Y-30150000D03*
%TD*%
D23*
%TO.C,L1*%
X121200000Y-122400000D03*
X121200000Y-119600000D03*
%TD*%
D12*
%TO.C,C13*%
X44625000Y-68050000D03*
X47575000Y-68050000D03*
%TD*%
%TO.C,C16*%
X50275000Y-58000000D03*
X53225000Y-58000000D03*
%TD*%
D24*
%TO.C,J1*%
X192120000Y-63300000D03*
X192120000Y-68380000D03*
X197200000Y-63300000D03*
X197200000Y-68380000D03*
D25*
X194760000Y-65765000D03*
%TD*%
D10*
%TO.C,R1*%
X142475000Y-76800000D03*
X145400000Y-76800000D03*
%TD*%
D21*
%TO.C,Q1*%
X153500000Y-103300000D03*
X151000000Y-103300000D03*
X148500000Y-103300000D03*
%TD*%
D12*
%TO.C,C2*%
X38975000Y-58000000D03*
X41925000Y-58000000D03*
%TD*%
D10*
%TO.C,R14*%
X64217500Y-40020000D03*
X67142500Y-40020000D03*
%TD*%
D22*
%TO.C,E2*%
X135800000Y-131780000D03*
X135800000Y-128200000D03*
%TD*%
D26*
%TO.C,J5*%
X109400000Y-142100000D03*
D27*
X109400000Y-137100000D03*
%TD*%
D24*
%TO.C,J2*%
X105620000Y-104600000D03*
X105620000Y-109680000D03*
X110700000Y-104600000D03*
X110700000Y-109680000D03*
D25*
X108260000Y-107065000D03*
%TD*%
D28*
%TO.C,J3*%
X107800000Y-123300000D03*
X107800000Y-125800000D03*
%TD*%
D29*
%TO.C,E5*%
X155420000Y-131200000D03*
X159000000Y-131200000D03*
%TD*%
D10*
%TO.C,R20*%
X69827500Y-33440000D03*
X72752500Y-33440000D03*
%TD*%
D12*
%TO.C,C18*%
X50275000Y-64700000D03*
X53225000Y-64700000D03*
%TD*%
D29*
%TO.C,E4*%
X173520000Y-142200000D03*
X177100000Y-142200000D03*
%TD*%
D22*
%TO.C,E3*%
X165000000Y-123280000D03*
X165000000Y-119700000D03*
%TD*%
D10*
%TO.C,R5*%
X58607500Y-36730000D03*
X61532500Y-36730000D03*
%TD*%
D30*
%TO.C,Q5*%
X127125000Y-126350000D03*
X127125000Y-128250000D03*
X129000000Y-127300000D03*
%TD*%
D31*
%TO.C,Q4*%
X123800000Y-110000000D03*
X123800000Y-112300000D03*
X123800000Y-114600000D03*
D32*
X130100000Y-112300000D03*
%TD*%
D10*
%TO.C,R16*%
X69827500Y-23570000D03*
X72752500Y-23570000D03*
%TD*%
D30*
%TO.C,Q6*%
X144225000Y-128850000D03*
X144225000Y-130750000D03*
X146100000Y-129800000D03*
%TD*%
D12*
%TO.C,C12*%
X44625000Y-64700000D03*
X47575000Y-64700000D03*
%TD*%
D10*
%TO.C,R18*%
X69827500Y-26860000D03*
X72752500Y-26860000D03*
%TD*%
D12*
%TO.C,C5*%
X137050000Y-81000000D03*
X140000000Y-81000000D03*
%TD*%
D10*
%TO.C,R9*%
X64217500Y-26860000D03*
X67142500Y-26860000D03*
%TD*%
D12*
%TO.C,C19*%
X50275000Y-68050000D03*
X53225000Y-68050000D03*
%TD*%
D10*
%TO.C,R13*%
X64217500Y-36730000D03*
X67142500Y-36730000D03*
%TD*%
%TO.C,R7*%
X58607500Y-43310000D03*
X61532500Y-43310000D03*
%TD*%
D12*
%TO.C,C17*%
X50275000Y-61350000D03*
X53225000Y-61350000D03*
%TD*%
M02*
