%TF.GenerationSoftware,KiCad,Pcbnew,8.0.5-dirty*%
%TF.CreationDate,2024-10-12T08:13:24-04:00*%
%TF.ProjectId,t41_2_power_amplifier,7434315f-325f-4706-9f77-65725f616d70,rev?*%
%TF.SameCoordinates,Original*%
%TF.FileFunction,Copper,L1,Top*%
%TF.FilePolarity,Positive*%
%FSLAX46Y46*%
G04 Gerber Fmt 4.6, Leading zero omitted, Abs format (unit mm)*
G04 Created by KiCad (PCBNEW 8.0.5-dirty) date 2024-10-12 08:13:24*
%MOMM*%
%LPD*%
G01*
G04 APERTURE LIST*
G04 Aperture macros list*
%AMRoundRect*
0 Rectangle with rounded corners*
0 $1 Rounding radius*
0 $2 $3 $4 $5 $6 $7 $8 $9 X,Y pos of 4 corners*
0 Add a 4 corners polygon primitive as box body*
4,1,4,$2,$3,$4,$5,$6,$7,$8,$9,$2,$3,0*
0 Add four circle primitives for the rounded corners*
1,1,$1+$1,$2,$3*
1,1,$1+$1,$4,$5*
1,1,$1+$1,$6,$7*
1,1,$1+$1,$8,$9*
0 Add four rect primitives between the rounded corners*
20,1,$1+$1,$2,$3,$4,$5,0*
20,1,$1+$1,$4,$5,$6,$7,0*
20,1,$1+$1,$6,$7,$8,$9,0*
20,1,$1+$1,$8,$9,$2,$3,0*%
%AMFreePoly0*
4,1,9,3.862500,-0.866500,0.737500,-0.866500,0.737500,-0.450000,-0.737500,-0.450000,-0.737500,0.450000,0.737500,0.450000,0.737500,0.866500,3.862500,0.866500,3.862500,-0.866500,3.862500,-0.866500,$1*%
G04 Aperture macros list end*
%TA.AperFunction,SMDPad,CuDef*%
%ADD10RoundRect,0.250000X-0.312500X-0.625000X0.312500X-0.625000X0.312500X0.625000X-0.312500X0.625000X0*%
%TD*%
%TA.AperFunction,SMDPad,CuDef*%
%ADD11RoundRect,0.150000X-0.512500X-0.150000X0.512500X-0.150000X0.512500X0.150000X-0.512500X0.150000X0*%
%TD*%
%TA.AperFunction,SMDPad,CuDef*%
%ADD12RoundRect,0.250000X-0.325000X-0.650000X0.325000X-0.650000X0.325000X0.650000X-0.325000X0.650000X0*%
%TD*%
%TA.AperFunction,SMDPad,CuDef*%
%ADD13RoundRect,0.250000X-0.550000X1.500000X-0.550000X-1.500000X0.550000X-1.500000X0.550000X1.500000X0*%
%TD*%
%TA.AperFunction,ComponentPad*%
%ADD14C,1.440000*%
%TD*%
%TA.AperFunction,SMDPad,CuDef*%
%ADD15RoundRect,0.225000X-0.425000X-0.225000X0.425000X-0.225000X0.425000X0.225000X-0.425000X0.225000X0*%
%TD*%
%TA.AperFunction,SMDPad,CuDef*%
%ADD16FreePoly0,0.000000*%
%TD*%
%TA.AperFunction,SMDPad,CuDef*%
%ADD17RoundRect,0.250000X0.325000X0.650000X-0.325000X0.650000X-0.325000X-0.650000X0.325000X-0.650000X0*%
%TD*%
%TA.AperFunction,SMDPad,CuDef*%
%ADD18RoundRect,0.250000X1.400000X1.000000X-1.400000X1.000000X-1.400000X-1.000000X1.400000X-1.000000X0*%
%TD*%
%TA.AperFunction,ComponentPad*%
%ADD19C,2.000000*%
%TD*%
%TA.AperFunction,SMDPad,CuDef*%
%ADD20R,1.570000X2.820000*%
%TD*%
%TA.AperFunction,SMDPad,CuDef*%
%ADD21R,1.524000X4.143000*%
%TD*%
%TA.AperFunction,SMDPad,CuDef*%
%ADD22R,1.470000X2.770000*%
%TD*%
%TA.AperFunction,SMDPad,CuDef*%
%ADD23RoundRect,0.250000X1.075000X-0.375000X1.075000X0.375000X-1.075000X0.375000X-1.075000X-0.375000X0*%
%TD*%
%TA.AperFunction,ComponentPad*%
%ADD24C,2.600000*%
%TD*%
%TA.AperFunction,ComponentPad*%
%ADD25C,2.500000*%
%TD*%
%TA.AperFunction,ComponentPad*%
%ADD26R,2.400000X2.400000*%
%TD*%
%TA.AperFunction,ComponentPad*%
%ADD27C,2.400000*%
%TD*%
%TA.AperFunction,ComponentPad*%
%ADD28C,2.100000*%
%TD*%
%TA.AperFunction,SMDPad,CuDef*%
%ADD29R,2.770000X1.470000*%
%TD*%
%TA.AperFunction,SMDPad,CuDef*%
%ADD30RoundRect,0.150000X-0.587500X-0.150000X0.587500X-0.150000X0.587500X0.150000X-0.587500X0.150000X0*%
%TD*%
%TA.AperFunction,SMDPad,CuDef*%
%ADD31RoundRect,0.375000X-0.625000X-0.375000X0.625000X-0.375000X0.625000X0.375000X-0.625000X0.375000X0*%
%TD*%
%TA.AperFunction,SMDPad,CuDef*%
%ADD32RoundRect,0.500000X-0.500000X-1.400000X0.500000X-1.400000X0.500000X1.400000X-0.500000X1.400000X0*%
%TD*%
%TA.AperFunction,ViaPad*%
%ADD33C,1.000000*%
%TD*%
%TA.AperFunction,Conductor*%
%ADD34C,0.200000*%
%TD*%
%TA.AperFunction,Conductor*%
%ADD35C,1.000000*%
%TD*%
G04 APERTURE END LIST*
D10*
%TO.P,R19,1*%
%TO.N,Net-(Q5-G)*%
X69827500Y-30150000D03*
%TO.P,R19,2*%
%TO.N,Net-(Q5-S)*%
X72752500Y-30150000D03*
%TD*%
D11*
%TO.P,U1,1,VIN*%
%TO.N,Net-(U1-VIN)*%
X182625000Y-140200000D03*
%TO.P,U1,2,GND*%
%TO.N,GND*%
X182625000Y-141150000D03*
%TO.P,U1,3,~{SHDN}*%
%TO.N,/TXRX*%
X182625000Y-142100000D03*
%TO.P,U1,4,NC*%
%TO.N,unconnected-(U1-NC-Pad4)*%
X184900000Y-142100000D03*
%TO.P,U1,5,VOUT*%
%TO.N,/8V*%
X184900000Y-140200000D03*
%TD*%
D12*
%TO.P,C3,1*%
%TO.N,Net-(C3-Pad1)*%
X38975000Y-61350000D03*
%TO.P,C3,2*%
%TO.N,Net-(T1-AA)*%
X41925000Y-61350000D03*
%TD*%
D13*
%TO.P,C9,1*%
%TO.N,Net-(U1-VIN)*%
X164500000Y-138000000D03*
%TO.P,C9,2*%
%TO.N,GND*%
X164500000Y-143400000D03*
%TD*%
D14*
%TO.P,R11,1,1*%
%TO.N,/8V*%
X185200000Y-125700000D03*
%TO.P,R11,2,2*%
%TO.N,Net-(C5-Pad1)*%
X182660000Y-125700000D03*
%TO.P,R11,3,3*%
%TO.N,GND*%
X180120000Y-125700000D03*
%TD*%
D10*
%TO.P,R8,1*%
%TO.N,Net-(C5-Pad1)*%
X64217500Y-23570000D03*
%TO.P,R8,2*%
%TO.N,Net-(C8-Pad2)*%
X67142500Y-23570000D03*
%TD*%
D12*
%TO.P,C8,1*%
%TO.N,GND*%
X44625000Y-58000000D03*
%TO.P,C8,2*%
%TO.N,Net-(C8-Pad2)*%
X47575000Y-58000000D03*
%TD*%
%TO.P,C14,1*%
%TO.N,/8V*%
X44625000Y-71400000D03*
%TO.P,C14,2*%
%TO.N,GND*%
X47575000Y-71400000D03*
%TD*%
D15*
%TO.P,Q2,1,B*%
%TO.N,Net-(Q2-B)*%
X116050000Y-110900000D03*
D16*
%TO.P,Q2,2,C*%
%TO.N,Net-(Q2-C)*%
X116137500Y-112400000D03*
D15*
%TO.P,Q2,3,E*%
%TO.N,Net-(Q2-E)*%
X116050000Y-113900000D03*
%TD*%
D10*
%TO.P,R6,1*%
%TO.N,Net-(C7-Pad1)*%
X58607500Y-40020000D03*
%TO.P,R6,2*%
%TO.N,Net-(C6-Pad1)*%
X61532500Y-40020000D03*
%TD*%
D17*
%TO.P,C6,1*%
%TO.N,Net-(C6-Pad1)*%
X142500000Y-98500000D03*
%TO.P,C6,2*%
%TO.N,Net-(T3-SA)*%
X139550000Y-98500000D03*
%TD*%
D18*
%TO.P,D1,1,K*%
%TO.N,Net-(D1-K)*%
X145400000Y-144200000D03*
%TO.P,D1,2,A*%
%TO.N,GND*%
X145400000Y-137400000D03*
%TD*%
D19*
%TO.P,T3,1,AA*%
%TO.N,Net-(T3-AA)*%
X118000000Y-88000000D03*
%TO.P,T3,2,AB*%
%TO.N,GND*%
X118000000Y-94000000D03*
%TO.P,T3,3,SA*%
%TO.N,Net-(T3-SA)*%
X134000000Y-94000000D03*
%TO.P,T3,4,SC*%
%TO.N,GND*%
X134000000Y-91000000D03*
%TO.P,T3,5,SB*%
%TO.N,Net-(T3-SB)*%
X134000000Y-88000000D03*
%TD*%
D20*
%TO.P,F1,1_1*%
%TO.N,Net-(J5-Pin_1)*%
X122370000Y-136640000D03*
%TO.P,F1,1_2*%
%TO.N,N/C*%
X122370000Y-142960000D03*
%TO.P,F1,2_1*%
%TO.N,Net-(D1-K)*%
X135830000Y-136640000D03*
%TO.P,F1,2_2*%
%TO.N,N/C*%
X135830000Y-142960000D03*
%TD*%
D12*
%TO.P,C7,1*%
%TO.N,Net-(C7-Pad1)*%
X44625000Y-54650000D03*
%TO.P,C7,2*%
%TO.N,GND*%
X47575000Y-54650000D03*
%TD*%
%TO.P,C4,1*%
%TO.N,Net-(C4-Pad1)*%
X38975000Y-64700000D03*
%TO.P,C4,2*%
%TO.N,Net-(T1-AB)*%
X41925000Y-64700000D03*
%TD*%
D13*
%TO.P,C10,1*%
%TO.N,Net-(U1-VIN)*%
X155300000Y-138000000D03*
%TO.P,C10,2*%
%TO.N,GND*%
X155300000Y-143400000D03*
%TD*%
D10*
%TO.P,R12,1*%
%TO.N,GND*%
X64217500Y-33440000D03*
%TO.P,R12,2*%
%TO.N,Net-(Q2-E)*%
X67142500Y-33440000D03*
%TD*%
D21*
%TO.P,Q3,1,G*%
%TO.N,Net-(Q3-G)*%
X148500000Y-76791000D03*
%TO.P,Q3,2,S*%
%TO.N,GND*%
X151000000Y-76791000D03*
%TO.P,Q3,3,D*%
%TO.N,Net-(Q3-D)*%
X153500000Y-76791000D03*
%TD*%
D12*
%TO.P,C15,1*%
%TO.N,Net-(Q2-B)*%
X50275000Y-54650000D03*
%TO.P,C15,2*%
%TO.N,Net-(C15-Pad2)*%
X53225000Y-54650000D03*
%TD*%
D14*
%TO.P,R17,1,1*%
%TO.N,/8V*%
X185200000Y-133200000D03*
%TO.P,R17,2,2*%
%TO.N,Net-(C7-Pad1)*%
X182660000Y-133200000D03*
%TO.P,R17,3,3*%
%TO.N,GND*%
X180120000Y-133200000D03*
%TD*%
D10*
%TO.P,R15,1*%
%TO.N,GND*%
X64217500Y-43310000D03*
%TO.P,R15,2*%
%TO.N,Net-(C15-Pad2)*%
X67142500Y-43310000D03*
%TD*%
D19*
%TO.P,T1,1,AA*%
%TO.N,Net-(T1-AA)*%
X151000000Y-81000000D03*
%TO.P,T1,2,AB*%
%TO.N,Net-(T1-AB)*%
X151000000Y-99000000D03*
%TO.P,T1,3,SA*%
%TO.N,Net-(Q1-D)*%
X151000000Y-93000000D03*
%TO.P,T1,4,SC*%
%TO.N,/12V_OUT_FIL*%
X151000000Y-90000000D03*
%TO.P,T1,5,SB*%
%TO.N,Net-(Q3-D)*%
X151000000Y-87000000D03*
%TD*%
D22*
%TO.P,E1,1*%
%TO.N,Net-(U1-VIN)*%
X165000000Y-114480000D03*
%TO.P,E1,2*%
%TO.N,/12V_OUT_FIL*%
X165000000Y-110900000D03*
%TD*%
D12*
%TO.P,C11,1*%
%TO.N,GND*%
X44625000Y-61350000D03*
%TO.P,C11,2*%
%TO.N,/TXRX*%
X47575000Y-61350000D03*
%TD*%
D19*
%TO.P,T2,1,AA*%
%TO.N,Net-(Q3-D)*%
X159000000Y-83000000D03*
%TO.P,T2,2,AB*%
%TO.N,Net-(Q1-D)*%
X159000000Y-97000000D03*
%TO.P,T2,3,SA*%
%TO.N,GND*%
X197000000Y-97000000D03*
%TO.P,T2,4,SB*%
%TO.N,Net-(T2-SB)*%
X197000000Y-83000000D03*
%TD*%
D10*
%TO.P,R4,1*%
%TO.N,Net-(C6-Pad1)*%
X58607500Y-33440000D03*
%TO.P,R4,2*%
%TO.N,Net-(C4-Pad1)*%
X61532500Y-33440000D03*
%TD*%
%TO.P,R3,1*%
%TO.N,Net-(C5-Pad1)*%
X58607500Y-30150000D03*
%TO.P,R3,2*%
%TO.N,Net-(C3-Pad1)*%
X61532500Y-30150000D03*
%TD*%
%TO.P,R10,1*%
%TO.N,GND*%
X64217500Y-30150000D03*
%TO.P,R10,2*%
%TO.N,Net-(Q2-B)*%
X67142500Y-30150000D03*
%TD*%
D23*
%TO.P,L1,1*%
%TO.N,/12V_IN_FIL*%
X121200000Y-122400000D03*
%TO.P,L1,2*%
%TO.N,Net-(Q2-C)*%
X121200000Y-119600000D03*
%TD*%
D12*
%TO.P,C13,1*%
%TO.N,Net-(U1-VIN)*%
X44625000Y-68050000D03*
%TO.P,C13,2*%
%TO.N,GND*%
X47575000Y-68050000D03*
%TD*%
%TO.P,C16,1*%
%TO.N,Net-(T3-AA)*%
X50275000Y-58000000D03*
%TO.P,C16,2*%
%TO.N,Net-(Q2-C)*%
X53225000Y-58000000D03*
%TD*%
D24*
%TO.P,J1,1*%
%TO.N,GND*%
X192120000Y-63300000D03*
X192120000Y-68380000D03*
X197200000Y-63300000D03*
X197200000Y-68380000D03*
D25*
%TO.P,J1,2*%
%TO.N,Net-(T2-SB)*%
X194760000Y-65765000D03*
%TD*%
D10*
%TO.P,R1,1*%
%TO.N,Net-(C5-Pad1)*%
X142475000Y-76800000D03*
%TO.P,R1,2*%
%TO.N,Net-(Q3-G)*%
X145400000Y-76800000D03*
%TD*%
D21*
%TO.P,Q1,1,G*%
%TO.N,Net-(Q1-G)*%
X153500000Y-103300000D03*
%TO.P,Q1,2,S*%
%TO.N,GND*%
X151000000Y-103300000D03*
%TO.P,Q1,3,D*%
%TO.N,Net-(Q1-D)*%
X148500000Y-103300000D03*
%TD*%
D12*
%TO.P,C2,1*%
%TO.N,Net-(Q3-D)*%
X38975000Y-58000000D03*
%TO.P,C2,2*%
%TO.N,Net-(Q1-D)*%
X41925000Y-58000000D03*
%TD*%
D10*
%TO.P,R14,1*%
%TO.N,Net-(Q2-C)*%
X64217500Y-40020000D03*
%TO.P,R14,2*%
%TO.N,/12V_IN_FIL*%
X67142500Y-40020000D03*
%TD*%
D22*
%TO.P,E2,1*%
%TO.N,Net-(D1-K)*%
X135800000Y-131780000D03*
%TO.P,E2,2*%
%TO.N,Net-(C12-Pad1)*%
X135800000Y-128200000D03*
%TD*%
D26*
%TO.P,J5,1,Pin_1*%
%TO.N,Net-(J5-Pin_1)*%
X109400000Y-142100000D03*
D27*
%TO.P,J5,2,Pin_2*%
%TO.N,GND*%
X109400000Y-137100000D03*
%TD*%
D24*
%TO.P,J2,1*%
%TO.N,GND*%
X105620000Y-104600000D03*
X105620000Y-109680000D03*
X110700000Y-104600000D03*
X110700000Y-109680000D03*
D25*
%TO.P,J2,2*%
%TO.N,Net-(J2-Pad2)*%
X108260000Y-107065000D03*
%TD*%
D28*
%TO.P,J3,1*%
%TO.N,Net-(E4-Pad1)*%
X107800000Y-123300000D03*
%TO.P,J3,2*%
%TO.N,GND*%
X107800000Y-125800000D03*
%TD*%
D29*
%TO.P,E5,1*%
%TO.N,Net-(U1-VIN)*%
X155420000Y-131200000D03*
%TO.P,E5,2*%
%TO.N,Net-(Q5-S)*%
X159000000Y-131200000D03*
%TD*%
D10*
%TO.P,R20,1*%
%TO.N,Net-(Q6-B)*%
X69827500Y-33440000D03*
%TO.P,R20,2*%
%TO.N,/TXRX*%
X72752500Y-33440000D03*
%TD*%
D12*
%TO.P,C18,1*%
%TO.N,/8V*%
X50275000Y-64700000D03*
%TO.P,C18,2*%
%TO.N,GND*%
X53225000Y-64700000D03*
%TD*%
D29*
%TO.P,E4,1*%
%TO.N,Net-(E4-Pad1)*%
X173520000Y-142200000D03*
%TO.P,E4,2*%
%TO.N,/TXRX*%
X177100000Y-142200000D03*
%TD*%
D22*
%TO.P,E3,1*%
%TO.N,Net-(C12-Pad1)*%
X165000000Y-123280000D03*
%TO.P,E3,2*%
%TO.N,Net-(U1-VIN)*%
X165000000Y-119700000D03*
%TD*%
D10*
%TO.P,R5,1*%
%TO.N,Net-(C7-Pad1)*%
X58607500Y-36730000D03*
%TO.P,R5,2*%
%TO.N,Net-(C6-Pad1)*%
X61532500Y-36730000D03*
%TD*%
D30*
%TO.P,Q5,1,D*%
%TO.N,/12V_IN_FIL*%
X127125000Y-126350000D03*
%TO.P,Q5,2,G*%
%TO.N,Net-(Q5-G)*%
X127125000Y-128250000D03*
%TO.P,Q5,3,S*%
%TO.N,Net-(Q5-S)*%
X129000000Y-127300000D03*
%TD*%
D31*
%TO.P,Q4,1,B*%
%TO.N,Net-(Q2-E)*%
X123800000Y-110000000D03*
%TO.P,Q4,2,C*%
%TO.N,Net-(Q2-C)*%
X123800000Y-112300000D03*
%TO.P,Q4,3,E*%
%TO.N,Net-(Q4-E)*%
X123800000Y-114600000D03*
D32*
%TO.P,Q4,4*%
%TO.N,N/C*%
X130100000Y-112300000D03*
%TD*%
D10*
%TO.P,R16,1*%
%TO.N,GND*%
X69827500Y-23570000D03*
%TO.P,R16,2*%
%TO.N,Net-(J2-Pad2)*%
X72752500Y-23570000D03*
%TD*%
D30*
%TO.P,Q6,1,B*%
%TO.N,Net-(Q6-B)*%
X144225000Y-128850000D03*
%TO.P,Q6,2,C*%
%TO.N,Net-(Q5-G)*%
X144225000Y-130750000D03*
%TO.P,Q6,3,E*%
%TO.N,GND*%
X146100000Y-129800000D03*
%TD*%
D12*
%TO.P,C12,1*%
%TO.N,Net-(C12-Pad1)*%
X44625000Y-64700000D03*
%TO.P,C12,2*%
%TO.N,GND*%
X47575000Y-64700000D03*
%TD*%
D10*
%TO.P,R18,1*%
%TO.N,Net-(J2-Pad2)*%
X69827500Y-26860000D03*
%TO.P,R18,2*%
%TO.N,Net-(C15-Pad2)*%
X72752500Y-26860000D03*
%TD*%
D12*
%TO.P,C5,1*%
%TO.N,Net-(C5-Pad1)*%
X137050000Y-81000000D03*
%TO.P,C5,2*%
%TO.N,Net-(T3-SB)*%
X140000000Y-81000000D03*
%TD*%
D10*
%TO.P,R9,1*%
%TO.N,Net-(Q2-B)*%
X64217500Y-26860000D03*
%TO.P,R9,2*%
%TO.N,Net-(Q2-C)*%
X67142500Y-26860000D03*
%TD*%
D12*
%TO.P,C19,1*%
%TO.N,/12V_IN_FIL*%
X50275000Y-68050000D03*
%TO.P,C19,2*%
%TO.N,GND*%
X53225000Y-68050000D03*
%TD*%
D10*
%TO.P,R13,1*%
%TO.N,GND*%
X64217500Y-36730000D03*
%TO.P,R13,2*%
%TO.N,Net-(Q4-E)*%
X67142500Y-36730000D03*
%TD*%
%TO.P,R7,1*%
%TO.N,Net-(C5-Pad1)*%
X58607500Y-43310000D03*
%TO.P,R7,2*%
%TO.N,Net-(C8-Pad2)*%
X61532500Y-43310000D03*
%TD*%
D12*
%TO.P,C17,1*%
%TO.N,/12V_IN_FIL*%
X50275000Y-61350000D03*
%TO.P,C17,2*%
%TO.N,GND*%
X53225000Y-61350000D03*
%TD*%
D33*
%TO.N,Net-(Q1-G)*%
X153800000Y-103300000D03*
%TO.N,Net-(C6-Pad1)*%
X144300000Y-102000000D03*
%TD*%
D34*
%TO.N,Net-(Q1-G)*%
X153500000Y-103300000D02*
X154000000Y-103300000D01*
D35*
%TO.N,Net-(Q3-D)*%
X153500000Y-76791000D02*
X153500000Y-84500000D01*
X155000000Y-87000000D02*
X159000000Y-83000000D01*
X153500000Y-84500000D02*
X151000000Y-87000000D01*
X151000000Y-87000000D02*
X155000000Y-87000000D01*
%TO.N,Net-(Q1-D)*%
X151000000Y-93000000D02*
X155000000Y-93000000D01*
X148500000Y-95500000D02*
X151000000Y-93000000D01*
X148500000Y-103300000D02*
X148500000Y-95500000D01*
X155000000Y-93000000D02*
X159000000Y-97000000D01*
%TO.N,Net-(T3-SA)*%
X134000000Y-94000000D02*
X134000000Y-95700000D01*
X136800000Y-98500000D02*
X139550000Y-98500000D01*
X134000000Y-95700000D02*
X136800000Y-98500000D01*
%TO.N,Net-(C6-Pad1)*%
X142500000Y-98500000D02*
X142500000Y-100200000D01*
X142500000Y-100200000D02*
X144300000Y-102000000D01*
%TD*%
%TA.AperFunction,Conductor*%
%TO.N,GND*%
G36*
X199442539Y-50520185D02*
G01*
X199488294Y-50572989D01*
X199499500Y-50624500D01*
X199499500Y-149375500D01*
X199479815Y-149442539D01*
X199427011Y-149488294D01*
X199375500Y-149499500D01*
X100624500Y-149499500D01*
X100557461Y-149479815D01*
X100511706Y-149427011D01*
X100500500Y-149375500D01*
X100500500Y-140852135D01*
X107699500Y-140852135D01*
X107699500Y-143347870D01*
X107699501Y-143347876D01*
X107705908Y-143407483D01*
X107756202Y-143542328D01*
X107756206Y-143542335D01*
X107842452Y-143657544D01*
X107842455Y-143657547D01*
X107957664Y-143743793D01*
X107957671Y-143743797D01*
X108092517Y-143794091D01*
X108092516Y-143794091D01*
X108099444Y-143794835D01*
X108152127Y-143800500D01*
X110647872Y-143800499D01*
X110707483Y-143794091D01*
X110842331Y-143743796D01*
X110957546Y-143657546D01*
X111043796Y-143542331D01*
X111094091Y-143407483D01*
X111100500Y-143347873D01*
X111100499Y-141502135D01*
X121084500Y-141502135D01*
X121084500Y-144417870D01*
X121084501Y-144417876D01*
X121090908Y-144477483D01*
X121141202Y-144612328D01*
X121141206Y-144612335D01*
X121227452Y-144727544D01*
X121227455Y-144727547D01*
X121342664Y-144813793D01*
X121342671Y-144813797D01*
X121477517Y-144864091D01*
X121477516Y-144864091D01*
X121484444Y-144864835D01*
X121537127Y-144870500D01*
X123202872Y-144870499D01*
X123262483Y-144864091D01*
X123397331Y-144813796D01*
X123512546Y-144727546D01*
X123598796Y-144612331D01*
X123649091Y-144477483D01*
X123655500Y-144417873D01*
X123655499Y-141502135D01*
X134544500Y-141502135D01*
X134544500Y-144417870D01*
X134544501Y-144417876D01*
X134550908Y-144477483D01*
X134601202Y-144612328D01*
X134601206Y-144612335D01*
X134687452Y-144727544D01*
X134687455Y-144727547D01*
X134802664Y-144813793D01*
X134802671Y-144813797D01*
X134937517Y-144864091D01*
X134937516Y-144864091D01*
X134944444Y-144864835D01*
X134997127Y-144870500D01*
X136662872Y-144870499D01*
X136722483Y-144864091D01*
X136857331Y-144813796D01*
X136972546Y-144727546D01*
X137058796Y-144612331D01*
X137109091Y-144477483D01*
X137115500Y-144417873D01*
X137115500Y-143149983D01*
X143249500Y-143149983D01*
X143249500Y-145250001D01*
X143249501Y-145250018D01*
X143260000Y-145352796D01*
X143260001Y-145352799D01*
X143265153Y-145368345D01*
X143315186Y-145519334D01*
X143407288Y-145668656D01*
X143531344Y-145792712D01*
X143680666Y-145884814D01*
X143847203Y-145939999D01*
X143949991Y-145950500D01*
X146850008Y-145950499D01*
X146952797Y-145939999D01*
X147119334Y-145884814D01*
X147268656Y-145792712D01*
X147392712Y-145668656D01*
X147484814Y-145519334D01*
X147539999Y-145352797D01*
X147550500Y-145250009D01*
X147550500Y-144949986D01*
X154000001Y-144949986D01*
X154010494Y-145052697D01*
X154065641Y-145219119D01*
X154065643Y-145219124D01*
X154157684Y-145368345D01*
X154281654Y-145492315D01*
X154430875Y-145584356D01*
X154430880Y-145584358D01*
X154597302Y-145639505D01*
X154597309Y-145639506D01*
X154700019Y-145649999D01*
X155049999Y-145649999D01*
X155550000Y-145649999D01*
X155899972Y-145649999D01*
X155899986Y-145649998D01*
X156002697Y-145639505D01*
X156169119Y-145584358D01*
X156169124Y-145584356D01*
X156318345Y-145492315D01*
X156442315Y-145368345D01*
X156534356Y-145219124D01*
X156534358Y-145219119D01*
X156589505Y-145052697D01*
X156589506Y-145052690D01*
X156599999Y-144949986D01*
X163200001Y-144949986D01*
X163210494Y-145052697D01*
X163265641Y-145219119D01*
X163265643Y-145219124D01*
X163357684Y-145368345D01*
X163481654Y-145492315D01*
X163630875Y-145584356D01*
X163630880Y-145584358D01*
X163797302Y-145639505D01*
X163797309Y-145639506D01*
X163900019Y-145649999D01*
X164249999Y-145649999D01*
X164750000Y-145649999D01*
X165099972Y-145649999D01*
X165099986Y-145649998D01*
X165202697Y-145639505D01*
X165369119Y-145584358D01*
X165369124Y-145584356D01*
X165518345Y-145492315D01*
X165642315Y-145368345D01*
X165734356Y-145219124D01*
X165734358Y-145219119D01*
X165789505Y-145052697D01*
X165789506Y-145052690D01*
X165799999Y-144949986D01*
X165800000Y-144949973D01*
X165800000Y-143650000D01*
X164750000Y-143650000D01*
X164750000Y-145649999D01*
X164249999Y-145649999D01*
X164250000Y-145649998D01*
X164250000Y-143650000D01*
X163200001Y-143650000D01*
X163200001Y-144949986D01*
X156599999Y-144949986D01*
X156600000Y-144949973D01*
X156600000Y-143650000D01*
X155550000Y-143650000D01*
X155550000Y-145649999D01*
X155049999Y-145649999D01*
X155050000Y-145649998D01*
X155050000Y-143650000D01*
X154000001Y-143650000D01*
X154000001Y-144949986D01*
X147550500Y-144949986D01*
X147550499Y-143149992D01*
X147539999Y-143047203D01*
X147484814Y-142880666D01*
X147392712Y-142731344D01*
X147268656Y-142607288D01*
X147119334Y-142515186D01*
X146952797Y-142460001D01*
X146952795Y-142460000D01*
X146850010Y-142449500D01*
X143949998Y-142449500D01*
X143949981Y-142449501D01*
X143847203Y-142460000D01*
X143847200Y-142460001D01*
X143680668Y-142515185D01*
X143680663Y-142515187D01*
X143531342Y-142607289D01*
X143407289Y-142731342D01*
X143315187Y-142880663D01*
X143315185Y-142880668D01*
X143287349Y-142964670D01*
X143260001Y-143047203D01*
X143260001Y-143047204D01*
X143260000Y-143047204D01*
X143249500Y-143149983D01*
X137115500Y-143149983D01*
X137115499Y-141850013D01*
X154000000Y-141850013D01*
X154000000Y-143150000D01*
X155050000Y-143150000D01*
X155550000Y-143150000D01*
X156599999Y-143150000D01*
X156599999Y-141850028D01*
X156599998Y-141850013D01*
X163200000Y-141850013D01*
X163200000Y-143150000D01*
X164250000Y-143150000D01*
X164750000Y-143150000D01*
X165799999Y-143150000D01*
X165799999Y-141850028D01*
X165799998Y-141850013D01*
X165789505Y-141747302D01*
X165734358Y-141580880D01*
X165734356Y-141580875D01*
X165642315Y-141431654D01*
X165627796Y-141417135D01*
X171634500Y-141417135D01*
X171634500Y-142982870D01*
X171634501Y-142982876D01*
X171640908Y-143042483D01*
X171691202Y-143177328D01*
X171691206Y-143177335D01*
X171777452Y-143292544D01*
X171777455Y-143292547D01*
X171892664Y-143378793D01*
X171892671Y-143378797D01*
X172027517Y-143429091D01*
X172027516Y-143429091D01*
X172034444Y-143429835D01*
X172087127Y-143435500D01*
X174952872Y-143435499D01*
X175012483Y-143429091D01*
X175147331Y-143378796D01*
X175235689Y-143312650D01*
X175301153Y-143288234D01*
X175369426Y-143303085D01*
X175384311Y-143312651D01*
X175472669Y-143378796D01*
X175472671Y-143378797D01*
X175607517Y-143429091D01*
X175607516Y-143429091D01*
X175614444Y-143429835D01*
X175667127Y-143435500D01*
X178532872Y-143435499D01*
X178592483Y-143429091D01*
X178727331Y-143378796D01*
X178842546Y-143292546D01*
X178928796Y-143177331D01*
X178979091Y-143042483D01*
X178985500Y-142982873D01*
X178985499Y-141884298D01*
X181462000Y-141884298D01*
X181462000Y-142315701D01*
X181464901Y-142352567D01*
X181464902Y-142352573D01*
X181510754Y-142510393D01*
X181510755Y-142510396D01*
X181594232Y-142651550D01*
X181594418Y-142651864D01*
X181594423Y-142651870D01*
X181710629Y-142768076D01*
X181710633Y-142768079D01*
X181710635Y-142768081D01*
X181852102Y-142851744D01*
X181893724Y-142863836D01*
X182009926Y-142897597D01*
X182009929Y-142897597D01*
X182009931Y-142897598D01*
X182046806Y-142900500D01*
X182046814Y-142900500D01*
X183203186Y-142900500D01*
X183203194Y-142900500D01*
X183240069Y-142897598D01*
X183240071Y-142897597D01*
X183240073Y-142897597D01*
X183298359Y-142880663D01*
X183397898Y-142851744D01*
X183539365Y-142768081D01*
X183655581Y-142651865D01*
X183655767Y-142651549D01*
X183655977Y-142651353D01*
X183660361Y-142645702D01*
X183661272Y-142646409D01*
X183706836Y-142603866D01*
X183775577Y-142591362D01*
X183840167Y-142618006D01*
X183864355Y-142645921D01*
X183864639Y-142645702D01*
X183868679Y-142650911D01*
X183869232Y-142651548D01*
X183869419Y-142651865D01*
X183869421Y-142651867D01*
X183869423Y-142651870D01*
X183985629Y-142768076D01*
X183985633Y-142768079D01*
X183985635Y-142768081D01*
X184127102Y-142851744D01*
X184168724Y-142863836D01*
X184284926Y-142897597D01*
X184284929Y-142897597D01*
X184284931Y-142897598D01*
X184321806Y-142900500D01*
X184321814Y-142900500D01*
X185478186Y-142900500D01*
X185478194Y-142900500D01*
X185515069Y-142897598D01*
X185515071Y-142897597D01*
X185515073Y-142897597D01*
X185573359Y-142880663D01*
X185672898Y-142851744D01*
X185814365Y-142768081D01*
X185930581Y-142651865D01*
X186014244Y-142510398D01*
X186060098Y-142352569D01*
X186063000Y-142315694D01*
X186063000Y-141884306D01*
X186060098Y-141847431D01*
X186014244Y-141689602D01*
X185930581Y-141548135D01*
X185930579Y-141548133D01*
X185930576Y-141548129D01*
X185814370Y-141431923D01*
X185814362Y-141431917D01*
X185731194Y-141382732D01*
X185672898Y-141348256D01*
X185672897Y-141348255D01*
X185672896Y-141348255D01*
X185672893Y-141348254D01*
X185515073Y-141302402D01*
X185515067Y-141302401D01*
X185478201Y-141299500D01*
X185478194Y-141299500D01*
X184321806Y-141299500D01*
X184321798Y-141299500D01*
X184284932Y-141302401D01*
X184284926Y-141302402D01*
X184127106Y-141348254D01*
X184127103Y-141348255D01*
X183985637Y-141431917D01*
X183979469Y-141436702D01*
X183978164Y-141435019D01*
X183926454Y-141463246D01*
X183856763Y-141458251D01*
X183809058Y-141426247D01*
X183784796Y-141400000D01*
X183519315Y-141400000D01*
X183456194Y-141382732D01*
X183452094Y-141380307D01*
X183397898Y-141348256D01*
X183397897Y-141348255D01*
X183397896Y-141348255D01*
X183397893Y-141348254D01*
X183240073Y-141302402D01*
X183240067Y-141302401D01*
X183203201Y-141299500D01*
X183203194Y-141299500D01*
X182046806Y-141299500D01*
X182046798Y-141299500D01*
X182009932Y-141302401D01*
X182009926Y-141302402D01*
X181852106Y-141348254D01*
X181852103Y-141348255D01*
X181793806Y-141382732D01*
X181730685Y-141400000D01*
X181465205Y-141400000D01*
X181465204Y-141400001D01*
X181465399Y-141402488D01*
X181465400Y-141402494D01*
X181511216Y-141560193D01*
X181511220Y-141560203D01*
X181511927Y-141561398D01*
X181512195Y-141562454D01*
X181514316Y-141567356D01*
X181513524Y-141567698D01*
X181529103Y-141629123D01*
X181513493Y-141682284D01*
X181513855Y-141682441D01*
X181512587Y-141685369D01*
X181511927Y-141687620D01*
X181510759Y-141689594D01*
X181510754Y-141689607D01*
X181464902Y-141847426D01*
X181464901Y-141847432D01*
X181462000Y-141884298D01*
X178985499Y-141884298D01*
X178985499Y-141417128D01*
X178979091Y-141357517D01*
X178958534Y-141302402D01*
X178928797Y-141222671D01*
X178928793Y-141222664D01*
X178842547Y-141107455D01*
X178842544Y-141107452D01*
X178727335Y-141021206D01*
X178727328Y-141021202D01*
X178592482Y-140970908D01*
X178592483Y-140970908D01*
X178532883Y-140964501D01*
X178532881Y-140964500D01*
X178532873Y-140964500D01*
X178532864Y-140964500D01*
X175667129Y-140964500D01*
X175667123Y-140964501D01*
X175607516Y-140970908D01*
X175472671Y-141021202D01*
X175472669Y-141021203D01*
X175384311Y-141087349D01*
X175318847Y-141111766D01*
X175250574Y-141096915D01*
X175235689Y-141087349D01*
X175147330Y-141021203D01*
X175147328Y-141021202D01*
X175012482Y-140970908D01*
X175012483Y-140970908D01*
X174952883Y-140964501D01*
X174952881Y-140964500D01*
X174952873Y-140964500D01*
X174952864Y-140964500D01*
X172087129Y-140964500D01*
X172087123Y-140964501D01*
X172027516Y-140970908D01*
X171892671Y-141021202D01*
X171892664Y-141021206D01*
X171777455Y-141107452D01*
X171777452Y-141107455D01*
X171691206Y-141222664D01*
X171691202Y-141222671D01*
X171640908Y-141357517D01*
X171636341Y-141400000D01*
X171634501Y-141417123D01*
X171634500Y-141417135D01*
X165627796Y-141417135D01*
X165518345Y-141307684D01*
X165369124Y-141215643D01*
X165369119Y-141215641D01*
X165202697Y-141160494D01*
X165202690Y-141160493D01*
X165099986Y-141150000D01*
X164750000Y-141150000D01*
X164750000Y-143150000D01*
X164250000Y-143150000D01*
X164250000Y-141150000D01*
X163900028Y-141150000D01*
X163900012Y-141150001D01*
X163797302Y-141160494D01*
X163630880Y-141215641D01*
X163630875Y-141215643D01*
X163481654Y-141307684D01*
X163357684Y-141431654D01*
X163265643Y-141580875D01*
X163265641Y-141580880D01*
X163210494Y-141747302D01*
X163210493Y-141747309D01*
X163200000Y-141850013D01*
X156599998Y-141850013D01*
X156589505Y-141747302D01*
X156534358Y-141580880D01*
X156534356Y-141580875D01*
X156442315Y-141431654D01*
X156318345Y-141307684D01*
X156169124Y-141215643D01*
X156169119Y-141215641D01*
X156002697Y-141160494D01*
X156002690Y-141160493D01*
X155899986Y-141150000D01*
X155550000Y-141150000D01*
X155550000Y-143150000D01*
X155050000Y-143150000D01*
X155050000Y-141150000D01*
X154700028Y-141150000D01*
X154700012Y-141150001D01*
X154597302Y-141160494D01*
X154430880Y-141215641D01*
X154430875Y-141215643D01*
X154281654Y-141307684D01*
X154157684Y-141431654D01*
X154065643Y-141580875D01*
X154065641Y-141580880D01*
X154010494Y-141747302D01*
X154010493Y-141747309D01*
X154000000Y-141850013D01*
X137115499Y-141850013D01*
X137115499Y-141502128D01*
X137109091Y-141442517D01*
X137106922Y-141436702D01*
X137058797Y-141307671D01*
X137058793Y-141307664D01*
X136972547Y-141192455D01*
X136972544Y-141192452D01*
X136857335Y-141106206D01*
X136857328Y-141106202D01*
X136722482Y-141055908D01*
X136722483Y-141055908D01*
X136662883Y-141049501D01*
X136662881Y-141049500D01*
X136662873Y-141049500D01*
X136662864Y-141049500D01*
X134997129Y-141049500D01*
X134997123Y-141049501D01*
X134937516Y-141055908D01*
X134802671Y-141106202D01*
X134802664Y-141106206D01*
X134687455Y-141192452D01*
X134687452Y-141192455D01*
X134601206Y-141307664D01*
X134601202Y-141307671D01*
X134550908Y-141442517D01*
X134549217Y-141458251D01*
X134544501Y-141502123D01*
X134544500Y-141502135D01*
X123655499Y-141502135D01*
X123655499Y-141502128D01*
X123649091Y-141442517D01*
X123646922Y-141436702D01*
X123598797Y-141307671D01*
X123598793Y-141307664D01*
X123512547Y-141192455D01*
X123512544Y-141192452D01*
X123397335Y-141106206D01*
X123397328Y-141106202D01*
X123262482Y-141055908D01*
X123262483Y-141055908D01*
X123202883Y-141049501D01*
X123202881Y-141049500D01*
X123202873Y-141049500D01*
X123202864Y-141049500D01*
X121537129Y-141049500D01*
X121537123Y-141049501D01*
X121477516Y-141055908D01*
X121342671Y-141106202D01*
X121342664Y-141106206D01*
X121227455Y-141192452D01*
X121227452Y-141192455D01*
X121141206Y-141307664D01*
X121141202Y-141307671D01*
X121090908Y-141442517D01*
X121089217Y-141458251D01*
X121084501Y-141502123D01*
X121084500Y-141502135D01*
X111100499Y-141502135D01*
X111100499Y-140852128D01*
X111094091Y-140792517D01*
X111074425Y-140739791D01*
X111043797Y-140657671D01*
X111043793Y-140657664D01*
X110957547Y-140542455D01*
X110957544Y-140542452D01*
X110842335Y-140456206D01*
X110842328Y-140456202D01*
X110707482Y-140405908D01*
X110707483Y-140405908D01*
X110647883Y-140399501D01*
X110647881Y-140399500D01*
X110647873Y-140399500D01*
X110647864Y-140399500D01*
X108152129Y-140399500D01*
X108152123Y-140399501D01*
X108092516Y-140405908D01*
X107957671Y-140456202D01*
X107957664Y-140456206D01*
X107842455Y-140542452D01*
X107842452Y-140542455D01*
X107756206Y-140657664D01*
X107756202Y-140657671D01*
X107705908Y-140792517D01*
X107701031Y-140837885D01*
X107699501Y-140852123D01*
X107699500Y-140852135D01*
X100500500Y-140852135D01*
X100500500Y-137099995D01*
X107695233Y-137099995D01*
X107695233Y-137100004D01*
X107714273Y-137354079D01*
X107770968Y-137602477D01*
X107770973Y-137602494D01*
X107864058Y-137839671D01*
X107864057Y-137839671D01*
X107991454Y-138060327D01*
X107991461Y-138060338D01*
X108033452Y-138112991D01*
X108033453Y-138112992D01*
X108835387Y-137311058D01*
X108840889Y-137331591D01*
X108919881Y-137468408D01*
X109031592Y-137580119D01*
X109168409Y-137659111D01*
X109188940Y-137664612D01*
X108386813Y-138466738D01*
X108547616Y-138576371D01*
X108547624Y-138576376D01*
X108777176Y-138686921D01*
X108777174Y-138686921D01*
X109020652Y-138762024D01*
X109020658Y-138762026D01*
X109272595Y-138799999D01*
X109272604Y-138800000D01*
X109527396Y-138800000D01*
X109527404Y-138799999D01*
X109779341Y-138762026D01*
X109779347Y-138762024D01*
X110022824Y-138686921D01*
X110252376Y-138576376D01*
X110252377Y-138576375D01*
X110413185Y-138466738D01*
X109611060Y-137664612D01*
X109631591Y-137659111D01*
X109768408Y-137580119D01*
X109880119Y-137468408D01*
X109959111Y-137331591D01*
X109964612Y-137311059D01*
X110766545Y-138112992D01*
X110766546Y-138112991D01*
X110808544Y-138060330D01*
X110935941Y-137839671D01*
X111029026Y-137602494D01*
X111029031Y-137602477D01*
X111085726Y-137354079D01*
X111104767Y-137100004D01*
X111104767Y-137099995D01*
X111085726Y-136845920D01*
X111029031Y-136597522D01*
X111029026Y-136597505D01*
X110935941Y-136360328D01*
X110935942Y-136360328D01*
X110808545Y-136139672D01*
X110766545Y-136087006D01*
X109964612Y-136888939D01*
X109959111Y-136868409D01*
X109880119Y-136731592D01*
X109768408Y-136619881D01*
X109631591Y-136540889D01*
X109611059Y-136535387D01*
X110413185Y-135733260D01*
X110252384Y-135623628D01*
X110252376Y-135623623D01*
X110022823Y-135513078D01*
X110022825Y-135513078D01*
X109779347Y-135437975D01*
X109779341Y-135437973D01*
X109527404Y-135400000D01*
X109272595Y-135400000D01*
X109020658Y-135437973D01*
X109020652Y-135437975D01*
X108777175Y-135513078D01*
X108547622Y-135623625D01*
X108547609Y-135623632D01*
X108386813Y-135733259D01*
X109188941Y-136535387D01*
X109168409Y-136540889D01*
X109031592Y-136619881D01*
X108919881Y-136731592D01*
X108840889Y-136868409D01*
X108835387Y-136888940D01*
X108033452Y-136087006D01*
X107991457Y-136139667D01*
X107864058Y-136360328D01*
X107770973Y-136597505D01*
X107770968Y-136597522D01*
X107714273Y-136845920D01*
X107695233Y-137099995D01*
X100500500Y-137099995D01*
X100500500Y-135182135D01*
X121084500Y-135182135D01*
X121084500Y-138097870D01*
X121084501Y-138097876D01*
X121090908Y-138157483D01*
X121141202Y-138292328D01*
X121141206Y-138292335D01*
X121227452Y-138407544D01*
X121227455Y-138407547D01*
X121342664Y-138493793D01*
X121342671Y-138493797D01*
X121477517Y-138544091D01*
X121477516Y-138544091D01*
X121484444Y-138544835D01*
X121537127Y-138550500D01*
X123202872Y-138550499D01*
X123262483Y-138544091D01*
X123397331Y-138493796D01*
X123512546Y-138407546D01*
X123598796Y-138292331D01*
X123649091Y-138157483D01*
X123655500Y-138097873D01*
X123655499Y-135182135D01*
X134544500Y-135182135D01*
X134544500Y-138097870D01*
X134544501Y-138097876D01*
X134550908Y-138157483D01*
X134601202Y-138292328D01*
X134601206Y-138292335D01*
X134687452Y-138407544D01*
X134687455Y-138407547D01*
X134802664Y-138493793D01*
X134802671Y-138493797D01*
X134937517Y-138544091D01*
X134937516Y-138544091D01*
X134944444Y-138544835D01*
X134997127Y-138550500D01*
X136662872Y-138550499D01*
X136722483Y-138544091D01*
X136857331Y-138493796D01*
X136915854Y-138449986D01*
X143250001Y-138449986D01*
X143260494Y-138552697D01*
X143315641Y-138719119D01*
X143315643Y-138719124D01*
X143407684Y-138868345D01*
X143531654Y-138992315D01*
X143680875Y-139084356D01*
X143680880Y-139084358D01*
X143847302Y-139139505D01*
X143847309Y-139139506D01*
X143950019Y-139149999D01*
X145149999Y-139149999D01*
X145650000Y-139149999D01*
X146849972Y-139149999D01*
X146849986Y-139149998D01*
X146952697Y-139139505D01*
X147119119Y-139084358D01*
X147119124Y-139084356D01*
X147268345Y-138992315D01*
X147392315Y-138868345D01*
X147484356Y-138719124D01*
X147484358Y-138719119D01*
X147539505Y-138552697D01*
X147539506Y-138552690D01*
X147549999Y-138449986D01*
X147550000Y-138449973D01*
X147550000Y-137650000D01*
X145650000Y-137650000D01*
X145650000Y-139149999D01*
X145149999Y-139149999D01*
X145150000Y-139149998D01*
X145150000Y-137650000D01*
X143250001Y-137650000D01*
X143250001Y-138449986D01*
X136915854Y-138449986D01*
X136972546Y-138407546D01*
X137058796Y-138292331D01*
X137109091Y-138157483D01*
X137115500Y-138097873D01*
X137115499Y-136350013D01*
X143250000Y-136350013D01*
X143250000Y-137150000D01*
X145150000Y-137150000D01*
X145650000Y-137150000D01*
X147549999Y-137150000D01*
X147549999Y-136449983D01*
X153999500Y-136449983D01*
X153999500Y-139550001D01*
X153999501Y-139550018D01*
X154010000Y-139652796D01*
X154010001Y-139652799D01*
X154055334Y-139789602D01*
X154065186Y-139819334D01*
X154157288Y-139968656D01*
X154281344Y-140092712D01*
X154430666Y-140184814D01*
X154597203Y-140239999D01*
X154699991Y-140250500D01*
X155900008Y-140250499D01*
X156002797Y-140239999D01*
X156169334Y-140184814D01*
X156318656Y-140092712D01*
X156442712Y-139968656D01*
X156534814Y-139819334D01*
X156589999Y-139652797D01*
X156600500Y-139550009D01*
X156600499Y-136449992D01*
X156600498Y-136449983D01*
X163199500Y-136449983D01*
X163199500Y-139550001D01*
X163199501Y-139550018D01*
X163210000Y-139652796D01*
X163210001Y-139652799D01*
X163255334Y-139789602D01*
X163265186Y-139819334D01*
X163357288Y-139968656D01*
X163481344Y-140092712D01*
X163630666Y-140184814D01*
X163797203Y-140239999D01*
X163899991Y-140250500D01*
X165100008Y-140250499D01*
X165202797Y-140239999D01*
X165369334Y-140184814D01*
X165518656Y-140092712D01*
X165627070Y-139984298D01*
X181462000Y-139984298D01*
X181462000Y-140415701D01*
X181464901Y-140452567D01*
X181464902Y-140452573D01*
X181510754Y-140610393D01*
X181510756Y-140610399D01*
X181511926Y-140612377D01*
X181512369Y-140614126D01*
X181513853Y-140617554D01*
X181513299Y-140617793D01*
X181529103Y-140680102D01*
X181513749Y-140732395D01*
X181514317Y-140732641D01*
X181512327Y-140737239D01*
X181511928Y-140738599D01*
X181511222Y-140739791D01*
X181511216Y-140739806D01*
X181465400Y-140897505D01*
X181465399Y-140897511D01*
X181465204Y-140899998D01*
X181465205Y-140900000D01*
X181730685Y-140900000D01*
X181793806Y-140917268D01*
X181852102Y-140951744D01*
X181893724Y-140963836D01*
X182009926Y-140997597D01*
X182009929Y-140997597D01*
X182009931Y-140997598D01*
X182046806Y-141000500D01*
X182046814Y-141000500D01*
X183203186Y-141000500D01*
X183203194Y-141000500D01*
X183240069Y-140997598D01*
X183240071Y-140997597D01*
X183240073Y-140997597D01*
X183331932Y-140970909D01*
X183397898Y-140951744D01*
X183456194Y-140917268D01*
X183519315Y-140900000D01*
X183784794Y-140900000D01*
X183809057Y-140873752D01*
X183869018Y-140837885D01*
X183938852Y-140840129D01*
X183978512Y-140864530D01*
X183979469Y-140863298D01*
X183985632Y-140868078D01*
X183985635Y-140868081D01*
X184127102Y-140951744D01*
X184168724Y-140963836D01*
X184284926Y-140997597D01*
X184284929Y-140997597D01*
X184284931Y-140997598D01*
X184321806Y-141000500D01*
X184321814Y-141000500D01*
X185478186Y-141000500D01*
X185478194Y-141000500D01*
X185515069Y-140997598D01*
X185515071Y-140997597D01*
X185515073Y-140997597D01*
X185606932Y-140970909D01*
X185672898Y-140951744D01*
X185814365Y-140868081D01*
X185930581Y-140751865D01*
X186014244Y-140610398D01*
X186060098Y-140452569D01*
X186063000Y-140415694D01*
X186063000Y-139984306D01*
X186060098Y-139947431D01*
X186014244Y-139789602D01*
X185930581Y-139648135D01*
X185930579Y-139648133D01*
X185930576Y-139648129D01*
X185814370Y-139531923D01*
X185814362Y-139531917D01*
X185672896Y-139448255D01*
X185672893Y-139448254D01*
X185515073Y-139402402D01*
X185515067Y-139402401D01*
X185478201Y-139399500D01*
X185478194Y-139399500D01*
X184321806Y-139399500D01*
X184321798Y-139399500D01*
X184284932Y-139402401D01*
X184284926Y-139402402D01*
X184127106Y-139448254D01*
X184127103Y-139448255D01*
X183985637Y-139531917D01*
X183985629Y-139531923D01*
X183869423Y-139648129D01*
X183869414Y-139648140D01*
X183869229Y-139648455D01*
X183869019Y-139648650D01*
X183864639Y-139654298D01*
X183863727Y-139653591D01*
X183818157Y-139696136D01*
X183749415Y-139708637D01*
X183684827Y-139681988D01*
X183660643Y-139654078D01*
X183660361Y-139654298D01*
X183656323Y-139649092D01*
X183655771Y-139648455D01*
X183655585Y-139648140D01*
X183655576Y-139648129D01*
X183539370Y-139531923D01*
X183539362Y-139531917D01*
X183397896Y-139448255D01*
X183397893Y-139448254D01*
X183240073Y-139402402D01*
X183240067Y-139402401D01*
X183203201Y-139399500D01*
X183203194Y-139399500D01*
X182046806Y-139399500D01*
X182046798Y-139399500D01*
X182009932Y-139402401D01*
X182009926Y-139402402D01*
X181852106Y-139448254D01*
X181852103Y-139448255D01*
X181710637Y-139531917D01*
X181710629Y-139531923D01*
X181594423Y-139648129D01*
X181594417Y-139648137D01*
X181510755Y-139789603D01*
X181510754Y-139789606D01*
X181464902Y-139947426D01*
X181464901Y-139947432D01*
X181462000Y-139984298D01*
X165627070Y-139984298D01*
X165642712Y-139968656D01*
X165734814Y-139819334D01*
X165789999Y-139652797D01*
X165800500Y-139550009D01*
X165800499Y-136449992D01*
X165789999Y-136347203D01*
X165734814Y-136180666D01*
X165642712Y-136031344D01*
X165518656Y-135907288D01*
X165369334Y-135815186D01*
X165202797Y-135760001D01*
X165202795Y-135760000D01*
X165100010Y-135749500D01*
X163899998Y-135749500D01*
X163899981Y-135749501D01*
X163797203Y-135760000D01*
X163797200Y-135760001D01*
X163630668Y-135815185D01*
X163630663Y-135815187D01*
X163481342Y-135907289D01*
X163357289Y-136031342D01*
X163265187Y-136180663D01*
X163265186Y-136180666D01*
X163210001Y-136347203D01*
X163210001Y-136347204D01*
X163210000Y-136347204D01*
X163199500Y-136449983D01*
X156600498Y-136449983D01*
X156589999Y-136347203D01*
X156534814Y-136180666D01*
X156442712Y-136031344D01*
X156318656Y-135907288D01*
X156169334Y-135815186D01*
X156002797Y-135760001D01*
X156002795Y-135760000D01*
X155900010Y-135749500D01*
X154699998Y-135749500D01*
X154699981Y-135749501D01*
X154597203Y-135760000D01*
X154597200Y-135760001D01*
X154430668Y-135815185D01*
X154430663Y-135815187D01*
X154281342Y-135907289D01*
X154157289Y-136031342D01*
X154065187Y-136180663D01*
X154065186Y-136180666D01*
X154010001Y-136347203D01*
X154010001Y-136347204D01*
X154010000Y-136347204D01*
X153999500Y-136449983D01*
X147549999Y-136449983D01*
X147549999Y-136350028D01*
X147549998Y-136350013D01*
X147539505Y-136247302D01*
X147484358Y-136080880D01*
X147484356Y-136080875D01*
X147392315Y-135931654D01*
X147268345Y-135807684D01*
X147119124Y-135715643D01*
X147119119Y-135715641D01*
X146952697Y-135660494D01*
X146952690Y-135660493D01*
X146849986Y-135650000D01*
X145650000Y-135650000D01*
X145650000Y-137150000D01*
X145150000Y-137150000D01*
X145150000Y-135650000D01*
X143950028Y-135650000D01*
X143950012Y-135650001D01*
X143847302Y-135660494D01*
X143680880Y-135715641D01*
X143680875Y-135715643D01*
X143531654Y-135807684D01*
X143407684Y-135931654D01*
X143315643Y-136080875D01*
X143315641Y-136080880D01*
X143260494Y-136247302D01*
X143260493Y-136247309D01*
X143250000Y-136350013D01*
X137115499Y-136350013D01*
X137115499Y-135182128D01*
X137109091Y-135122517D01*
X137058796Y-134987669D01*
X137058795Y-134987668D01*
X137058793Y-134987664D01*
X136972547Y-134872455D01*
X136972544Y-134872452D01*
X136857335Y-134786206D01*
X136857328Y-134786202D01*
X136722482Y-134735908D01*
X136722483Y-134735908D01*
X136662883Y-134729501D01*
X136662881Y-134729500D01*
X136662873Y-134729500D01*
X136662864Y-134729500D01*
X134997129Y-134729500D01*
X134997123Y-134729501D01*
X134937516Y-134735908D01*
X134802671Y-134786202D01*
X134802664Y-134786206D01*
X134687455Y-134872452D01*
X134687452Y-134872455D01*
X134601206Y-134987664D01*
X134601202Y-134987671D01*
X134550908Y-135122517D01*
X134544501Y-135182116D01*
X134544501Y-135182123D01*
X134544500Y-135182135D01*
X123655499Y-135182135D01*
X123655499Y-135182128D01*
X123649091Y-135122517D01*
X123598796Y-134987669D01*
X123598795Y-134987668D01*
X123598793Y-134987664D01*
X123512547Y-134872455D01*
X123512544Y-134872452D01*
X123397335Y-134786206D01*
X123397328Y-134786202D01*
X123262482Y-134735908D01*
X123262483Y-134735908D01*
X123202883Y-134729501D01*
X123202881Y-134729500D01*
X123202873Y-134729500D01*
X123202864Y-134729500D01*
X121537129Y-134729500D01*
X121537123Y-134729501D01*
X121477516Y-134735908D01*
X121342671Y-134786202D01*
X121342664Y-134786206D01*
X121227455Y-134872452D01*
X121227452Y-134872455D01*
X121141206Y-134987664D01*
X121141202Y-134987671D01*
X121090908Y-135122517D01*
X121084501Y-135182116D01*
X121084501Y-135182123D01*
X121084500Y-135182135D01*
X100500500Y-135182135D01*
X100500500Y-123300000D01*
X106244706Y-123300000D01*
X106263853Y-123543297D01*
X106263853Y-123543300D01*
X106263854Y-123543302D01*
X106292497Y-123662608D01*
X106320830Y-123780619D01*
X106414222Y-124006089D01*
X106541737Y-124214173D01*
X106541738Y-124214176D01*
X106541741Y-124214179D01*
X106700241Y-124399759D01*
X106809942Y-124493452D01*
X106885818Y-124558257D01*
X106885819Y-124558258D01*
X106885821Y-124558259D01*
X106940436Y-124591727D01*
X106963327Y-124609773D01*
X107629766Y-125276212D01*
X107587708Y-125287482D01*
X107462292Y-125359890D01*
X107359890Y-125462292D01*
X107287482Y-125587708D01*
X107276212Y-125629765D01*
X106538504Y-124892057D01*
X106414668Y-125094138D01*
X106321303Y-125319542D01*
X106264348Y-125556780D01*
X106245207Y-125800000D01*
X106264348Y-126043219D01*
X106321303Y-126280457D01*
X106414668Y-126505861D01*
X106538504Y-126707941D01*
X107276212Y-125970233D01*
X107287482Y-126012292D01*
X107359890Y-126137708D01*
X107462292Y-126240110D01*
X107587708Y-126312518D01*
X107629765Y-126323787D01*
X106892057Y-127061494D01*
X107094138Y-127185331D01*
X107319542Y-127278696D01*
X107556780Y-127335651D01*
X107556779Y-127335651D01*
X107800000Y-127354792D01*
X108043219Y-127335651D01*
X108280457Y-127278696D01*
X108505861Y-127185331D01*
X108707941Y-127061495D01*
X108707941Y-127061494D01*
X107970235Y-126323787D01*
X108012292Y-126312518D01*
X108137708Y-126240110D01*
X108240110Y-126137708D01*
X108312518Y-126012292D01*
X108323787Y-125970234D01*
X109061494Y-126707941D01*
X109061495Y-126707941D01*
X109185331Y-126505861D01*
X109278696Y-126280457D01*
X109313785Y-126134298D01*
X125887000Y-126134298D01*
X125887000Y-126565701D01*
X125889901Y-126602567D01*
X125889902Y-126602573D01*
X125935754Y-126760393D01*
X125935755Y-126760396D01*
X125935756Y-126760398D01*
X125936125Y-126761022D01*
X126019417Y-126901862D01*
X126019423Y-126901870D01*
X126135629Y-127018076D01*
X126135633Y-127018079D01*
X126135635Y-127018081D01*
X126277102Y-127101744D01*
X126318724Y-127113836D01*
X126434926Y-127147597D01*
X126434929Y-127147597D01*
X126434931Y-127147598D01*
X126471806Y-127150500D01*
X127638000Y-127150500D01*
X127705039Y-127170185D01*
X127750794Y-127222989D01*
X127762000Y-127274500D01*
X127762000Y-127325500D01*
X127742315Y-127392539D01*
X127689511Y-127438294D01*
X127638000Y-127449500D01*
X126471798Y-127449500D01*
X126434932Y-127452401D01*
X126434926Y-127452402D01*
X126277106Y-127498254D01*
X126277103Y-127498255D01*
X126135637Y-127581917D01*
X126135629Y-127581923D01*
X126019423Y-127698129D01*
X126019417Y-127698137D01*
X125935755Y-127839603D01*
X125935754Y-127839606D01*
X125889902Y-127997426D01*
X125889901Y-127997432D01*
X125887000Y-128034298D01*
X125887000Y-128465701D01*
X125889901Y-128502567D01*
X125889902Y-128502573D01*
X125935754Y-128660393D01*
X125935755Y-128660396D01*
X126019417Y-128801862D01*
X126019423Y-128801870D01*
X126135629Y-128918076D01*
X126135633Y-128918079D01*
X126135635Y-128918081D01*
X126277102Y-129001744D01*
X126281081Y-129002900D01*
X126434926Y-129047597D01*
X126434929Y-129047597D01*
X126434931Y-129047598D01*
X126471806Y-129050500D01*
X126471814Y-129050500D01*
X127778186Y-129050500D01*
X127778194Y-129050500D01*
X127815069Y-129047598D01*
X127815071Y-129047597D01*
X127815073Y-129047597D01*
X127856691Y-129035505D01*
X127972898Y-129001744D01*
X128114365Y-128918081D01*
X128230581Y-128801865D01*
X128314244Y-128660398D01*
X128360098Y-128502569D01*
X128363000Y-128465694D01*
X128363000Y-128224500D01*
X128382685Y-128157461D01*
X128435489Y-128111706D01*
X128487000Y-128100500D01*
X129653186Y-128100500D01*
X129653194Y-128100500D01*
X129690069Y-128097598D01*
X129690071Y-128097597D01*
X129690073Y-128097597D01*
X129731691Y-128085505D01*
X129847898Y-128051744D01*
X129989365Y-127968081D01*
X130105581Y-127851865D01*
X130189244Y-127710398D01*
X130235098Y-127552569D01*
X130238000Y-127515694D01*
X130238000Y-127084306D01*
X130235098Y-127047431D01*
X130226571Y-127018082D01*
X130189245Y-126889606D01*
X130189244Y-126889603D01*
X130189244Y-126889602D01*
X130116818Y-126767135D01*
X134564500Y-126767135D01*
X134564500Y-129632870D01*
X134564501Y-129632876D01*
X134570908Y-129692483D01*
X134621202Y-129827328D01*
X134621203Y-129827330D01*
X134687349Y-129915689D01*
X134711766Y-129981153D01*
X134696915Y-130049426D01*
X134687349Y-130064311D01*
X134621203Y-130152669D01*
X134621202Y-130152671D01*
X134570908Y-130287517D01*
X134564501Y-130347116D01*
X134564501Y-130347123D01*
X134564500Y-130347135D01*
X134564500Y-133212870D01*
X134564501Y-133212876D01*
X134570908Y-133272483D01*
X134621202Y-133407328D01*
X134621206Y-133407335D01*
X134707452Y-133522544D01*
X134707455Y-133522547D01*
X134822664Y-133608793D01*
X134822671Y-133608797D01*
X134957517Y-133659091D01*
X134957516Y-133659091D01*
X134964444Y-133659835D01*
X135017127Y-133665500D01*
X136582872Y-133665499D01*
X136642483Y-133659091D01*
X136777331Y-133608796D01*
X136892546Y-133522546D01*
X136978796Y-133407331D01*
X137029091Y-133272483D01*
X137035500Y-133212873D01*
X137035500Y-133199997D01*
X178895340Y-133199997D01*
X178895340Y-133200002D01*
X178913944Y-133412654D01*
X178913945Y-133412662D01*
X178969194Y-133618853D01*
X178969197Y-133618859D01*
X179059413Y-133812329D01*
X179098415Y-133868030D01*
X179720000Y-133246445D01*
X179720000Y-133252661D01*
X179747259Y-133354394D01*
X179799920Y-133445606D01*
X179874394Y-133520080D01*
X179965606Y-133572741D01*
X180067339Y-133600000D01*
X180073553Y-133600000D01*
X179451968Y-134221584D01*
X179507663Y-134260582D01*
X179507669Y-134260586D01*
X179701140Y-134350802D01*
X179701146Y-134350805D01*
X179907337Y-134406054D01*
X179907345Y-134406055D01*
X180119998Y-134424660D01*
X180120002Y-134424660D01*
X180332654Y-134406055D01*
X180332662Y-134406054D01*
X180538853Y-134350805D01*
X180538864Y-134350801D01*
X180732325Y-134260589D01*
X180788030Y-134221583D01*
X180166448Y-133600000D01*
X180172661Y-133600000D01*
X180274394Y-133572741D01*
X180365606Y-133520080D01*
X180440080Y-133445606D01*
X180492741Y-133354394D01*
X180520000Y-133252661D01*
X180520000Y-133246446D01*
X181141583Y-133868029D01*
X181180589Y-133812325D01*
X181270801Y-133618864D01*
X181272658Y-133613764D01*
X181274567Y-133614458D01*
X181306291Y-133562362D01*
X181369125Y-133531806D01*
X181438504Y-133540071D01*
X181492401Y-133584533D01*
X181505989Y-133614256D01*
X181506870Y-133613936D01*
X181508722Y-133619022D01*
X181508724Y-133619030D01*
X181551171Y-133710058D01*
X181598977Y-133812578D01*
X181721472Y-133987521D01*
X181872478Y-134138527D01*
X181872481Y-134138529D01*
X182047419Y-134261021D01*
X182047421Y-134261022D01*
X182047420Y-134261022D01*
X182111936Y-134291106D01*
X182240970Y-134351276D01*
X182447253Y-134406549D01*
X182599215Y-134419844D01*
X182659998Y-134425162D01*
X182660000Y-134425162D01*
X182660002Y-134425162D01*
X182713186Y-134420508D01*
X182872747Y-134406549D01*
X183079030Y-134351276D01*
X183272581Y-134261021D01*
X183447519Y-134138529D01*
X183598529Y-133987519D01*
X183721021Y-133812581D01*
X183811276Y-133619030D01*
X183811280Y-133619013D01*
X183813130Y-133613936D01*
X183815253Y-133614709D01*
X183846576Y-133563305D01*
X183909419Y-133532766D01*
X183978796Y-133541050D01*
X184032680Y-133585528D01*
X184045827Y-133614315D01*
X184046870Y-133613936D01*
X184048722Y-133619022D01*
X184048724Y-133619030D01*
X184091171Y-133710058D01*
X184138977Y-133812578D01*
X184261472Y-133987521D01*
X184412478Y-134138527D01*
X184412481Y-134138529D01*
X184587419Y-134261021D01*
X184587421Y-134261022D01*
X184587420Y-134261022D01*
X184651936Y-134291106D01*
X184780970Y-134351276D01*
X184987253Y-134406549D01*
X185139215Y-134419844D01*
X185199998Y-134425162D01*
X185200000Y-134425162D01*
X185200002Y-134425162D01*
X185253186Y-134420508D01*
X185412747Y-134406549D01*
X185619030Y-134351276D01*
X185812581Y-134261021D01*
X185987519Y-134138529D01*
X186138529Y-133987519D01*
X186261021Y-133812581D01*
X186351276Y-133619030D01*
X186406549Y-133412747D01*
X186424035Y-133212883D01*
X186425162Y-133200001D01*
X186425162Y-133199998D01*
X186406549Y-132987258D01*
X186406549Y-132987253D01*
X186352539Y-132785685D01*
X186351278Y-132780977D01*
X186351277Y-132780976D01*
X186351276Y-132780970D01*
X186261021Y-132587419D01*
X186138529Y-132412481D01*
X186138527Y-132412478D01*
X185987521Y-132261472D01*
X185812578Y-132138977D01*
X185812579Y-132138977D01*
X185683547Y-132078809D01*
X185619030Y-132048724D01*
X185619026Y-132048723D01*
X185619022Y-132048721D01*
X185412752Y-131993452D01*
X185412748Y-131993451D01*
X185412747Y-131993451D01*
X185412746Y-131993450D01*
X185412741Y-131993450D01*
X185200002Y-131974838D01*
X185199998Y-131974838D01*
X184987258Y-131993450D01*
X184987247Y-131993452D01*
X184780977Y-132048721D01*
X184780968Y-132048725D01*
X184587421Y-132138977D01*
X184412478Y-132261472D01*
X184261472Y-132412478D01*
X184138977Y-132587421D01*
X184048725Y-132780968D01*
X184046870Y-132786064D01*
X184044749Y-132785292D01*
X184013406Y-132836710D01*
X183950558Y-132867237D01*
X183881183Y-132858939D01*
X183827307Y-132814452D01*
X183814169Y-132785685D01*
X183813130Y-132786064D01*
X183811279Y-132780983D01*
X183811276Y-132780970D01*
X183721021Y-132587419D01*
X183598529Y-132412481D01*
X183598527Y-132412478D01*
X183447521Y-132261472D01*
X183272578Y-132138977D01*
X183272579Y-132138977D01*
X183143547Y-132078809D01*
X183079030Y-132048724D01*
X183079026Y-132048723D01*
X183079022Y-132048721D01*
X182872752Y-131993452D01*
X182872748Y-131993451D01*
X182872747Y-131993451D01*
X182872746Y-131993450D01*
X182872741Y-131993450D01*
X182660002Y-131974838D01*
X182659998Y-131974838D01*
X182447258Y-131993450D01*
X182447247Y-131993452D01*
X182240977Y-132048721D01*
X182240968Y-132048725D01*
X182047421Y-132138977D01*
X181872478Y-132261472D01*
X181721472Y-132412478D01*
X181598977Y-132587421D01*
X181508725Y-132780968D01*
X181506870Y-132786064D01*
X181505031Y-132785394D01*
X181473104Y-132837715D01*
X181410242Y-132868212D01*
X181340870Y-132859883D01*
X181287015Y-132815371D01*
X181273571Y-132785903D01*
X181272658Y-132786236D01*
X181270802Y-132781140D01*
X181180586Y-132587669D01*
X181180582Y-132587663D01*
X181141584Y-132531968D01*
X180520000Y-133153552D01*
X180520000Y-133147339D01*
X180492741Y-133045606D01*
X180440080Y-132954394D01*
X180365606Y-132879920D01*
X180274394Y-132827259D01*
X180172661Y-132800000D01*
X180166447Y-132800000D01*
X180788030Y-132178415D01*
X180732329Y-132139413D01*
X180538859Y-132049197D01*
X180538853Y-132049194D01*
X180332662Y-131993945D01*
X180332654Y-131993944D01*
X180120002Y-131975340D01*
X180119998Y-131975340D01*
X179907345Y-131993944D01*
X179907337Y-131993945D01*
X179701146Y-132049194D01*
X179701140Y-132049197D01*
X179507671Y-132139412D01*
X179507669Y-132139413D01*
X179451969Y-132178415D01*
X179451968Y-132178415D01*
X180073554Y-132800000D01*
X180067339Y-132800000D01*
X179965606Y-132827259D01*
X179874394Y-132879920D01*
X179799920Y-132954394D01*
X179747259Y-133045606D01*
X179720000Y-133147339D01*
X179720000Y-133153553D01*
X179098415Y-132531968D01*
X179098415Y-132531969D01*
X179059413Y-132587669D01*
X179059412Y-132587671D01*
X178969197Y-132781140D01*
X178969194Y-132781146D01*
X178913945Y-132987337D01*
X178913944Y-132987345D01*
X178895340Y-133199997D01*
X137035500Y-133199997D01*
X137035499Y-130534298D01*
X142987000Y-130534298D01*
X142987000Y-130965701D01*
X142989901Y-131002567D01*
X142989902Y-131002573D01*
X143035754Y-131160393D01*
X143035755Y-131160396D01*
X143119417Y-131301862D01*
X143119423Y-131301870D01*
X143235629Y-131418076D01*
X143235633Y-131418079D01*
X143235635Y-131418081D01*
X143377102Y-131501744D01*
X143418724Y-131513836D01*
X143534926Y-131547597D01*
X143534929Y-131547597D01*
X143534931Y-131547598D01*
X143571806Y-131550500D01*
X143571814Y-131550500D01*
X144878186Y-131550500D01*
X144878194Y-131550500D01*
X144915069Y-131547598D01*
X144915071Y-131547597D01*
X144915073Y-131547597D01*
X144956691Y-131535505D01*
X145072898Y-131501744D01*
X145214365Y-131418081D01*
X145330581Y-131301865D01*
X145414244Y-131160398D01*
X145460098Y-131002569D01*
X145463000Y-130965694D01*
X145463000Y-130724000D01*
X145482685Y-130656961D01*
X145535489Y-130611206D01*
X145587000Y-130600000D01*
X145850000Y-130600000D01*
X146350000Y-130600000D01*
X146753134Y-130600000D01*
X146753149Y-130599999D01*
X146789989Y-130597100D01*
X146789995Y-130597099D01*
X146947693Y-130551283D01*
X146947696Y-130551282D01*
X147089052Y-130467685D01*
X147089061Y-130467678D01*
X147139604Y-130417135D01*
X153534500Y-130417135D01*
X153534500Y-131982870D01*
X153534501Y-131982876D01*
X153540908Y-132042483D01*
X153591202Y-132177328D01*
X153591206Y-132177335D01*
X153677452Y-132292544D01*
X153677455Y-132292547D01*
X153792664Y-132378793D01*
X153792671Y-132378797D01*
X153927517Y-132429091D01*
X153927516Y-132429091D01*
X153934444Y-132429835D01*
X153987127Y-132435500D01*
X156852872Y-132435499D01*
X156912483Y-132429091D01*
X157047331Y-132378796D01*
X157135689Y-132312650D01*
X157201153Y-132288234D01*
X157269426Y-132303085D01*
X157284311Y-132312651D01*
X157372669Y-132378796D01*
X157372671Y-132378797D01*
X157507517Y-132429091D01*
X157507516Y-132429091D01*
X157514444Y-132429835D01*
X157567127Y-132435500D01*
X160432872Y-132435499D01*
X160492483Y-132429091D01*
X160627331Y-132378796D01*
X160742546Y-132292546D01*
X160828796Y-132177331D01*
X160879091Y-132042483D01*
X160885500Y-131982873D01*
X160885499Y-130417128D01*
X160879091Y-130357517D01*
X160876866Y-130351552D01*
X160828797Y-130222671D01*
X160828793Y-130222664D01*
X160742547Y-130107455D01*
X160742544Y-130107452D01*
X160627335Y-130021206D01*
X160627328Y-130021202D01*
X160492482Y-129970908D01*
X160492483Y-129970908D01*
X160432883Y-129964501D01*
X160432881Y-129964500D01*
X160432873Y-129964500D01*
X160432864Y-129964500D01*
X157567129Y-129964500D01*
X157567123Y-129964501D01*
X157507516Y-129970908D01*
X157372671Y-130021202D01*
X157372669Y-130021203D01*
X157284311Y-130087349D01*
X157218847Y-130111766D01*
X157150574Y-130096915D01*
X157135689Y-130087349D01*
X157047330Y-130021203D01*
X157047328Y-130021202D01*
X156912482Y-129970908D01*
X156912483Y-129970908D01*
X156852883Y-129964501D01*
X156852881Y-129964500D01*
X156852873Y-129964500D01*
X156852864Y-129964500D01*
X153987129Y-129964500D01*
X153987123Y-129964501D01*
X153927516Y-129970908D01*
X153792671Y-130021202D01*
X153792664Y-130021206D01*
X153677455Y-130107452D01*
X153677452Y-130107455D01*
X153591206Y-130222664D01*
X153591202Y-130222671D01*
X153540908Y-130357517D01*
X153534501Y-130417116D01*
X153534501Y-130417123D01*
X153534500Y-130417135D01*
X147139604Y-130417135D01*
X147205178Y-130351561D01*
X147205185Y-130351552D01*
X147288781Y-130210198D01*
X147334600Y-130052486D01*
X147334795Y-130050001D01*
X147334795Y-130050000D01*
X146350000Y-130050000D01*
X146350000Y-130600000D01*
X145850000Y-130600000D01*
X145850000Y-130050000D01*
X145194315Y-130050000D01*
X145131194Y-130032732D01*
X145072896Y-129998255D01*
X145072893Y-129998254D01*
X144915073Y-129952402D01*
X144915067Y-129952401D01*
X144878201Y-129949500D01*
X144878194Y-129949500D01*
X143571806Y-129949500D01*
X143571798Y-129949500D01*
X143534932Y-129952401D01*
X143534926Y-129952402D01*
X143377106Y-129998254D01*
X143377103Y-129998255D01*
X143235637Y-130081917D01*
X143235629Y-130081923D01*
X143119423Y-130198129D01*
X143119417Y-130198137D01*
X143035755Y-130339603D01*
X143035754Y-130339606D01*
X142989902Y-130497426D01*
X142989901Y-130497432D01*
X142987000Y-130534298D01*
X137035499Y-130534298D01*
X137035499Y-130347128D01*
X137029091Y-130287517D01*
X137004904Y-130222669D01*
X136978797Y-130152671D01*
X136978796Y-130152669D01*
X136944948Y-130107454D01*
X136912650Y-130064310D01*
X136888234Y-129998847D01*
X136903085Y-129930574D01*
X136912651Y-129915689D01*
X136978796Y-129827331D01*
X137029091Y-129692483D01*
X137035500Y-129632873D01*
X137035500Y-128634298D01*
X142987000Y-128634298D01*
X142987000Y-129065701D01*
X142989901Y-129102567D01*
X142989902Y-129102573D01*
X143035754Y-129260393D01*
X143035755Y-129260396D01*
X143119417Y-129401862D01*
X143119423Y-129401870D01*
X143235629Y-129518076D01*
X143235633Y-129518079D01*
X143235635Y-129518081D01*
X143377102Y-129601744D01*
X143418724Y-129613836D01*
X143534926Y-129647597D01*
X143534929Y-129647597D01*
X143534931Y-129647598D01*
X143571806Y-129650500D01*
X143571814Y-129650500D01*
X144878186Y-129650500D01*
X144878194Y-129650500D01*
X144915069Y-129647598D01*
X144915071Y-129647597D01*
X144915073Y-129647597D01*
X144965783Y-129632864D01*
X145072898Y-129601744D01*
X145131194Y-129567268D01*
X145194315Y-129550000D01*
X145850000Y-129550000D01*
X146350000Y-129550000D01*
X147334795Y-129550000D01*
X147334795Y-129549998D01*
X147334600Y-129547513D01*
X147288781Y-129389801D01*
X147205185Y-129248447D01*
X147205178Y-129248438D01*
X147089061Y-129132321D01*
X147089052Y-129132314D01*
X146947696Y-129048717D01*
X146947693Y-129048716D01*
X146789995Y-129002900D01*
X146789989Y-129002899D01*
X146753149Y-129000000D01*
X146350000Y-129000000D01*
X146350000Y-129550000D01*
X145850000Y-129550000D01*
X145850000Y-129000000D01*
X145587000Y-129000000D01*
X145519961Y-128980315D01*
X145474206Y-128927511D01*
X145463000Y-128876000D01*
X145463000Y-128634313D01*
X145462999Y-128634298D01*
X145460098Y-128597432D01*
X145460097Y-128597426D01*
X145426336Y-128481224D01*
X145414244Y-128439602D01*
X145330581Y-128298135D01*
X145330579Y-128298133D01*
X145330576Y-128298129D01*
X145214370Y-128181923D01*
X145214362Y-128181917D01*
X145076692Y-128100500D01*
X145072898Y-128098256D01*
X145072897Y-128098255D01*
X145072896Y-128098255D01*
X145072893Y-128098254D01*
X144915073Y-128052402D01*
X144915067Y-128052401D01*
X144878201Y-128049500D01*
X144878194Y-128049500D01*
X143571806Y-128049500D01*
X143571798Y-128049500D01*
X143534932Y-128052401D01*
X143534926Y-128052402D01*
X143377106Y-128098254D01*
X143377103Y-128098255D01*
X143235637Y-128181917D01*
X143235629Y-128181923D01*
X143119423Y-128298129D01*
X143119417Y-128298137D01*
X143035755Y-128439603D01*
X143035754Y-128439606D01*
X142989902Y-128597426D01*
X142989901Y-128597432D01*
X142987000Y-128634298D01*
X137035500Y-128634298D01*
X137035499Y-126767128D01*
X137029091Y-126707517D01*
X137003359Y-126638527D01*
X136978797Y-126572671D01*
X136978793Y-126572664D01*
X136892547Y-126457455D01*
X136892544Y-126457452D01*
X136777335Y-126371206D01*
X136777328Y-126371202D01*
X136642482Y-126320908D01*
X136642483Y-126320908D01*
X136582883Y-126314501D01*
X136582881Y-126314500D01*
X136582873Y-126314500D01*
X136582864Y-126314500D01*
X135017129Y-126314500D01*
X135017123Y-126314501D01*
X134957516Y-126320908D01*
X134822671Y-126371202D01*
X134822664Y-126371206D01*
X134707455Y-126457452D01*
X134707452Y-126457455D01*
X134621206Y-126572664D01*
X134621202Y-126572671D01*
X134570908Y-126707517D01*
X134565203Y-126760586D01*
X134564501Y-126767123D01*
X134564500Y-126767135D01*
X130116818Y-126767135D01*
X130105581Y-126748135D01*
X130105579Y-126748133D01*
X130105576Y-126748129D01*
X129989370Y-126631923D01*
X129989362Y-126631917D01*
X129847896Y-126548255D01*
X129847893Y-126548254D01*
X129690073Y-126502402D01*
X129690067Y-126502401D01*
X129653201Y-126499500D01*
X129653194Y-126499500D01*
X128487000Y-126499500D01*
X128419961Y-126479815D01*
X128374206Y-126427011D01*
X128363000Y-126375500D01*
X128363000Y-126134313D01*
X128362999Y-126134298D01*
X128361784Y-126118864D01*
X128360098Y-126097431D01*
X128350183Y-126063305D01*
X128314245Y-125939606D01*
X128314244Y-125939603D01*
X128314244Y-125939602D01*
X128230581Y-125798135D01*
X128230579Y-125798133D01*
X128230576Y-125798129D01*
X128132444Y-125699997D01*
X178895340Y-125699997D01*
X178895340Y-125700002D01*
X178913944Y-125912654D01*
X178913945Y-125912662D01*
X178969194Y-126118853D01*
X178969197Y-126118859D01*
X179059413Y-126312329D01*
X179098415Y-126368030D01*
X179720000Y-125746445D01*
X179720000Y-125752661D01*
X179747259Y-125854394D01*
X179799920Y-125945606D01*
X179874394Y-126020080D01*
X179965606Y-126072741D01*
X180067339Y-126100000D01*
X180073553Y-126100000D01*
X179451968Y-126721584D01*
X179507663Y-126760582D01*
X179507669Y-126760586D01*
X179701140Y-126850802D01*
X179701146Y-126850805D01*
X179907337Y-126906054D01*
X179907345Y-126906055D01*
X180119998Y-126924660D01*
X180120002Y-126924660D01*
X180332654Y-126906055D01*
X180332662Y-126906054D01*
X180538853Y-126850805D01*
X180538864Y-126850801D01*
X180732325Y-126760589D01*
X180788030Y-126721583D01*
X180166448Y-126100000D01*
X180172661Y-126100000D01*
X180274394Y-126072741D01*
X180365606Y-126020080D01*
X180440080Y-125945606D01*
X180492741Y-125854394D01*
X180520000Y-125752661D01*
X180520000Y-125746446D01*
X181141583Y-126368029D01*
X181180589Y-126312325D01*
X181270801Y-126118864D01*
X181272658Y-126113764D01*
X181274567Y-126114458D01*
X181306291Y-126062362D01*
X181369125Y-126031806D01*
X181438504Y-126040071D01*
X181492401Y-126084533D01*
X181505989Y-126114256D01*
X181506870Y-126113936D01*
X181508722Y-126119022D01*
X181508724Y-126119030D01*
X181551171Y-126210058D01*
X181598977Y-126312578D01*
X181721472Y-126487521D01*
X181872478Y-126638527D01*
X181872481Y-126638529D01*
X182047419Y-126761021D01*
X182047421Y-126761022D01*
X182047420Y-126761022D01*
X182060530Y-126767135D01*
X182240970Y-126851276D01*
X182447253Y-126906549D01*
X182599215Y-126919844D01*
X182659998Y-126925162D01*
X182660000Y-126925162D01*
X182660002Y-126925162D01*
X182713186Y-126920508D01*
X182872747Y-126906549D01*
X183079030Y-126851276D01*
X183272581Y-126761021D01*
X183447519Y-126638529D01*
X183598529Y-126487519D01*
X183721021Y-126312581D01*
X183811276Y-126119030D01*
X183811280Y-126119013D01*
X183813130Y-126113936D01*
X183815253Y-126114709D01*
X183846576Y-126063305D01*
X183909419Y-126032766D01*
X183978796Y-126041050D01*
X184032680Y-126085528D01*
X184045827Y-126114315D01*
X184046870Y-126113936D01*
X184048722Y-126119022D01*
X184048724Y-126119030D01*
X184091171Y-126210058D01*
X184138977Y-126312578D01*
X184261472Y-126487521D01*
X184412478Y-126638527D01*
X184412481Y-126638529D01*
X184587419Y-126761021D01*
X184587421Y-126761022D01*
X184587420Y-126761022D01*
X184600530Y-126767135D01*
X184780970Y-126851276D01*
X184987253Y-126906549D01*
X185139215Y-126919844D01*
X185199998Y-126925162D01*
X185200000Y-126925162D01*
X185200002Y-126925162D01*
X185253186Y-126920508D01*
X185412747Y-126906549D01*
X185619030Y-126851276D01*
X185812581Y-126761021D01*
X185987519Y-126638529D01*
X186138529Y-126487519D01*
X186261021Y-126312581D01*
X186351276Y-126119030D01*
X186406549Y-125912747D01*
X186425162Y-125700000D01*
X186423580Y-125681923D01*
X186419844Y-125639215D01*
X186406549Y-125487253D01*
X186352539Y-125285685D01*
X186351278Y-125280977D01*
X186351277Y-125280976D01*
X186351276Y-125280970D01*
X186261021Y-125087419D01*
X186138529Y-124912481D01*
X186138527Y-124912478D01*
X185987521Y-124761472D01*
X185812578Y-124638977D01*
X185812579Y-124638977D01*
X185683547Y-124578809D01*
X185619030Y-124548724D01*
X185619026Y-124548723D01*
X185619022Y-124548721D01*
X185412752Y-124493452D01*
X185412748Y-124493451D01*
X185412747Y-124493451D01*
X185412746Y-124493450D01*
X185412741Y-124493450D01*
X185200002Y-124474838D01*
X185199998Y-124474838D01*
X184987258Y-124493450D01*
X184987247Y-124493452D01*
X184780977Y-124548721D01*
X184780968Y-124548725D01*
X184587421Y-124638977D01*
X184412478Y-124761472D01*
X184261472Y-124912478D01*
X184138977Y-125087421D01*
X184048725Y-125280968D01*
X184046870Y-125286064D01*
X184044749Y-125285292D01*
X184013406Y-125336710D01*
X183950558Y-125367237D01*
X183881183Y-125358939D01*
X183827307Y-125314452D01*
X183814169Y-125285685D01*
X183813130Y-125286064D01*
X183811279Y-125280983D01*
X183811276Y-125280970D01*
X183721021Y-125087419D01*
X183598529Y-124912481D01*
X183598527Y-124912478D01*
X183447521Y-124761472D01*
X183272578Y-124638977D01*
X183272579Y-124638977D01*
X183143547Y-124578809D01*
X183079030Y-124548724D01*
X183079026Y-124548723D01*
X183079022Y-124548721D01*
X182872752Y-124493452D01*
X182872748Y-124493451D01*
X182872747Y-124493451D01*
X182872746Y-124493450D01*
X182872741Y-124493450D01*
X182660002Y-124474838D01*
X182659998Y-124474838D01*
X182447258Y-124493450D01*
X182447247Y-124493452D01*
X182240977Y-124548721D01*
X182240968Y-124548725D01*
X182047421Y-124638977D01*
X181872478Y-124761472D01*
X181721472Y-124912478D01*
X181598977Y-125087421D01*
X181508725Y-125280968D01*
X181506870Y-125286064D01*
X181505031Y-125285394D01*
X181473104Y-125337715D01*
X181410242Y-125368212D01*
X181340870Y-125359883D01*
X181287015Y-125315371D01*
X181273571Y-125285903D01*
X181272658Y-125286236D01*
X181270802Y-125281140D01*
X181180586Y-125087669D01*
X181180582Y-125087663D01*
X181141584Y-125031968D01*
X180520000Y-125653552D01*
X180520000Y-125647339D01*
X180492741Y-125545606D01*
X180440080Y-125454394D01*
X180365606Y-125379920D01*
X180274394Y-125327259D01*
X180172661Y-125300000D01*
X180166447Y-125300000D01*
X180788030Y-124678415D01*
X180732329Y-124639413D01*
X180538859Y-124549197D01*
X180538853Y-124549194D01*
X180332662Y-124493945D01*
X180332654Y-124493944D01*
X180120002Y-124475340D01*
X180119998Y-124475340D01*
X179907345Y-124493944D01*
X179907337Y-124493945D01*
X179701146Y-124549194D01*
X179701140Y-124549197D01*
X179507671Y-124639412D01*
X179507669Y-124639413D01*
X179451969Y-124678415D01*
X179451968Y-124678415D01*
X180073554Y-125300000D01*
X180067339Y-125300000D01*
X179965606Y-125327259D01*
X179874394Y-125379920D01*
X179799920Y-125454394D01*
X179747259Y-125545606D01*
X179720000Y-125647339D01*
X179720000Y-125653553D01*
X179098415Y-125031968D01*
X179098415Y-125031969D01*
X179059413Y-125087669D01*
X179059412Y-125087671D01*
X178969197Y-125281140D01*
X178969194Y-125281146D01*
X178913945Y-125487337D01*
X178913944Y-125487345D01*
X178895340Y-125699997D01*
X128132444Y-125699997D01*
X128114370Y-125681923D01*
X128114362Y-125681917D01*
X127972896Y-125598255D01*
X127972893Y-125598254D01*
X127815073Y-125552402D01*
X127815067Y-125552401D01*
X127778201Y-125549500D01*
X127778194Y-125549500D01*
X126471806Y-125549500D01*
X126471798Y-125549500D01*
X126434932Y-125552401D01*
X126434926Y-125552402D01*
X126277106Y-125598254D01*
X126277103Y-125598255D01*
X126135637Y-125681917D01*
X126135629Y-125681923D01*
X126019423Y-125798129D01*
X126019417Y-125798137D01*
X125935755Y-125939603D01*
X125935754Y-125939606D01*
X125889902Y-126097426D01*
X125889901Y-126097432D01*
X125887000Y-126134298D01*
X109313785Y-126134298D01*
X109335651Y-126043219D01*
X109354792Y-125800000D01*
X109335651Y-125556780D01*
X109278696Y-125319542D01*
X109185331Y-125094138D01*
X109061494Y-124892057D01*
X108323787Y-125629764D01*
X108312518Y-125587708D01*
X108240110Y-125462292D01*
X108137708Y-125359890D01*
X108012292Y-125287482D01*
X107970233Y-125276212D01*
X108636670Y-124609774D01*
X108659553Y-124591733D01*
X108714179Y-124558259D01*
X108899759Y-124399759D01*
X109058259Y-124214179D01*
X109185777Y-124006089D01*
X109279172Y-123780612D01*
X109336146Y-123543302D01*
X109355294Y-123300000D01*
X109336146Y-123056698D01*
X109279172Y-122819388D01*
X109185777Y-122593911D01*
X109185777Y-122593910D01*
X109058262Y-122385826D01*
X109058261Y-122385823D01*
X109022453Y-122343897D01*
X108899759Y-122200241D01*
X108777063Y-122095449D01*
X108714176Y-122041738D01*
X108714173Y-122041737D01*
X108605241Y-121974983D01*
X119374500Y-121974983D01*
X119374500Y-122825001D01*
X119374501Y-122825019D01*
X119385000Y-122927796D01*
X119385001Y-122927799D01*
X119427716Y-123056702D01*
X119440186Y-123094334D01*
X119532288Y-123243656D01*
X119656344Y-123367712D01*
X119805666Y-123459814D01*
X119972203Y-123514999D01*
X120074991Y-123525500D01*
X122325008Y-123525499D01*
X122427797Y-123514999D01*
X122594334Y-123459814D01*
X122743656Y-123367712D01*
X122867712Y-123243656D01*
X122959814Y-123094334D01*
X123014999Y-122927797D01*
X123025500Y-122825009D01*
X123025499Y-121974992D01*
X123014999Y-121872203D01*
X122959814Y-121705666D01*
X122867712Y-121556344D01*
X122743656Y-121432288D01*
X122594334Y-121340186D01*
X122427797Y-121285001D01*
X122427795Y-121285000D01*
X122325010Y-121274500D01*
X120074998Y-121274500D01*
X120074981Y-121274501D01*
X119972203Y-121285000D01*
X119972200Y-121285001D01*
X119805668Y-121340185D01*
X119805663Y-121340187D01*
X119656342Y-121432289D01*
X119532289Y-121556342D01*
X119440187Y-121705663D01*
X119440186Y-121705666D01*
X119385001Y-121872203D01*
X119385001Y-121872204D01*
X119385000Y-121872204D01*
X119374500Y-121974983D01*
X108605241Y-121974983D01*
X108506089Y-121914222D01*
X108280618Y-121820830D01*
X108280621Y-121820830D01*
X108141860Y-121787516D01*
X108043302Y-121763854D01*
X108043300Y-121763853D01*
X108043297Y-121763853D01*
X107800000Y-121744706D01*
X107556702Y-121763853D01*
X107319380Y-121820830D01*
X107093910Y-121914222D01*
X106885826Y-122041737D01*
X106885823Y-122041738D01*
X106700241Y-122200241D01*
X106541738Y-122385823D01*
X106541737Y-122385826D01*
X106414222Y-122593910D01*
X106320830Y-122819380D01*
X106320828Y-122819387D01*
X106320828Y-122819388D01*
X106319477Y-122825016D01*
X106263853Y-123056702D01*
X106244706Y-123300000D01*
X100500500Y-123300000D01*
X100500500Y-119174983D01*
X119374500Y-119174983D01*
X119374500Y-120025001D01*
X119374501Y-120025019D01*
X119385000Y-120127796D01*
X119385001Y-120127799D01*
X119440185Y-120294331D01*
X119440186Y-120294334D01*
X119532288Y-120443656D01*
X119656344Y-120567712D01*
X119805666Y-120659814D01*
X119972203Y-120714999D01*
X120074991Y-120725500D01*
X122325008Y-120725499D01*
X122427797Y-120714999D01*
X122594334Y-120659814D01*
X122743656Y-120567712D01*
X122867712Y-120443656D01*
X122959814Y-120294334D01*
X123014999Y-120127797D01*
X123025500Y-120025009D01*
X123025499Y-119174992D01*
X123014999Y-119072203D01*
X122959814Y-118905666D01*
X122867712Y-118756344D01*
X122743656Y-118632288D01*
X122594334Y-118540186D01*
X122427797Y-118485001D01*
X122427795Y-118485000D01*
X122325010Y-118474500D01*
X120074998Y-118474500D01*
X120074981Y-118474501D01*
X119972203Y-118485000D01*
X119972200Y-118485001D01*
X119805668Y-118540185D01*
X119805663Y-118540187D01*
X119656342Y-118632289D01*
X119532289Y-118756342D01*
X119440187Y-118905663D01*
X119440186Y-118905666D01*
X119385001Y-119072203D01*
X119385001Y-119072204D01*
X119385000Y-119072204D01*
X119374500Y-119174983D01*
X100500500Y-119174983D01*
X100500500Y-111949999D01*
X114894500Y-111949999D01*
X114894500Y-112850002D01*
X114899644Y-112921940D01*
X114916309Y-112978693D01*
X114936403Y-113047127D01*
X114940182Y-113059994D01*
X114940184Y-113059998D01*
X115006017Y-113162436D01*
X115025702Y-113229475D01*
X115007241Y-113294571D01*
X114963000Y-113366296D01*
X114962996Y-113366305D01*
X114909651Y-113527290D01*
X114899500Y-113626647D01*
X114899500Y-114173337D01*
X114899501Y-114173355D01*
X114909650Y-114272707D01*
X114909651Y-114272710D01*
X114962996Y-114433694D01*
X114963001Y-114433705D01*
X115052029Y-114578040D01*
X115052032Y-114578044D01*
X115171955Y-114697967D01*
X115171959Y-114697970D01*
X115316294Y-114786998D01*
X115316297Y-114786999D01*
X115316303Y-114787003D01*
X115477292Y-114840349D01*
X115576655Y-114850500D01*
X116523344Y-114850499D01*
X116523352Y-114850498D01*
X116523355Y-114850498D01*
X116577760Y-114844940D01*
X116622708Y-114840349D01*
X116783697Y-114787003D01*
X116928044Y-114697968D01*
X117047968Y-114578044D01*
X117137003Y-114433697D01*
X117190349Y-114272708D01*
X117200500Y-114173345D01*
X117200499Y-113895998D01*
X117220183Y-113828961D01*
X117272987Y-113783206D01*
X117324499Y-113772000D01*
X120000000Y-113772000D01*
X120071940Y-113766855D01*
X120209992Y-113726319D01*
X120331032Y-113648531D01*
X120425254Y-113539794D01*
X120480199Y-113419482D01*
X120485023Y-113408919D01*
X120485024Y-113408914D01*
X120491150Y-113366305D01*
X120505500Y-113266500D01*
X120505500Y-111533500D01*
X120500355Y-111461560D01*
X120497167Y-111450704D01*
X120491929Y-111432865D01*
X120459819Y-111323508D01*
X120410423Y-111246647D01*
X120382032Y-111202469D01*
X120382028Y-111202465D01*
X120273299Y-111108250D01*
X120273297Y-111108248D01*
X120273294Y-111108246D01*
X120273290Y-111108244D01*
X120142419Y-111048476D01*
X120142414Y-111048475D01*
X120000000Y-111028000D01*
X117324500Y-111028000D01*
X117257461Y-111008315D01*
X117211706Y-110955511D01*
X117200500Y-110904000D01*
X117200499Y-110626663D01*
X117200498Y-110626644D01*
X117190349Y-110527292D01*
X117190348Y-110527289D01*
X117164491Y-110449257D01*
X117137003Y-110366303D01*
X117136999Y-110366297D01*
X117136998Y-110366294D01*
X117047970Y-110221959D01*
X117047967Y-110221955D01*
X116928044Y-110102032D01*
X116928040Y-110102029D01*
X116783705Y-110013001D01*
X116783699Y-110012998D01*
X116783697Y-110012997D01*
X116783694Y-110012996D01*
X116622709Y-109959651D01*
X116523346Y-109949500D01*
X115576662Y-109949500D01*
X115576644Y-109949501D01*
X115477292Y-109959650D01*
X115477289Y-109959651D01*
X115316305Y-110012996D01*
X115316294Y-110013001D01*
X115171959Y-110102029D01*
X115171955Y-110102032D01*
X115052032Y-110221955D01*
X115052029Y-110221959D01*
X114963001Y-110366294D01*
X114962996Y-110366305D01*
X114909651Y-110527290D01*
X114899500Y-110626647D01*
X114899500Y-111173337D01*
X114899501Y-111173355D01*
X114909650Y-111272707D01*
X114909651Y-111272710D01*
X114962996Y-111433694D01*
X114962998Y-111433699D01*
X115007646Y-111506084D01*
X115026086Y-111573477D01*
X115005163Y-111640140D01*
X114995822Y-111652381D01*
X114974748Y-111676702D01*
X114974745Y-111676707D01*
X114914976Y-111807580D01*
X114914975Y-111807585D01*
X114894500Y-111949999D01*
X100500500Y-111949999D01*
X100500500Y-104599995D01*
X103814953Y-104599995D01*
X103814953Y-104600004D01*
X103835113Y-104869026D01*
X103835113Y-104869028D01*
X103895142Y-105132033D01*
X103895148Y-105132052D01*
X103993709Y-105383181D01*
X103993708Y-105383181D01*
X104128602Y-105616822D01*
X104182294Y-105684151D01*
X104182295Y-105684151D01*
X104904153Y-104962293D01*
X104911049Y-104978942D01*
X104998599Y-105109970D01*
X105110030Y-105221401D01*
X105241058Y-105308951D01*
X105257705Y-105315846D01*
X104534848Y-106038702D01*
X104717483Y-106163220D01*
X104717485Y-106163221D01*
X104960539Y-106280269D01*
X104960537Y-106280269D01*
X105218337Y-106359790D01*
X105218343Y-106359792D01*
X105485101Y-106399999D01*
X105485110Y-106400000D01*
X105754890Y-106400000D01*
X105754898Y-106399999D01*
X106021656Y-106359792D01*
X106021662Y-106359790D01*
X106279458Y-106280270D01*
X106497927Y-106175061D01*
X106566869Y-106163709D01*
X106631003Y-106191431D01*
X106669969Y-106249426D01*
X106671394Y-106319281D01*
X106667158Y-106332081D01*
X106582583Y-106547578D01*
X106582578Y-106547590D01*
X106582576Y-106547597D01*
X106524197Y-106803374D01*
X106524196Y-106803379D01*
X106504592Y-107064995D01*
X106504592Y-107065004D01*
X106524196Y-107326620D01*
X106524197Y-107326625D01*
X106582576Y-107582402D01*
X106582582Y-107582421D01*
X106678432Y-107826643D01*
X106784256Y-108009937D01*
X106800729Y-108077837D01*
X106777876Y-108143864D01*
X106722955Y-108187055D01*
X106653402Y-108193696D01*
X106607017Y-108174390D01*
X106522526Y-108116784D01*
X106522516Y-108116778D01*
X106279460Y-107999730D01*
X106279462Y-107999730D01*
X106021662Y-107920209D01*
X106021656Y-107920207D01*
X105754898Y-107880000D01*
X105485101Y-107880000D01*
X105218343Y-107920207D01*
X105218337Y-107920209D01*
X104960538Y-107999730D01*
X104717485Y-108116778D01*
X104717476Y-108116783D01*
X104534848Y-108241296D01*
X105257705Y-108964153D01*
X105241058Y-108971049D01*
X105110030Y-109058599D01*
X104998599Y-109170030D01*
X104911049Y-109301058D01*
X104904153Y-109317706D01*
X104182295Y-108595848D01*
X104128600Y-108663180D01*
X103993709Y-108896818D01*
X103895148Y-109147947D01*
X103895142Y-109147966D01*
X103835113Y-109410971D01*
X103835113Y-109410973D01*
X103814953Y-109679995D01*
X103814953Y-109680004D01*
X103835113Y-109949026D01*
X103835113Y-109949028D01*
X103895142Y-110212033D01*
X103895148Y-110212052D01*
X103993709Y-110463181D01*
X103993708Y-110463181D01*
X104128602Y-110696822D01*
X104182294Y-110764151D01*
X104182295Y-110764151D01*
X104904153Y-110042293D01*
X104911049Y-110058942D01*
X104998599Y-110189970D01*
X105110030Y-110301401D01*
X105241058Y-110388951D01*
X105257705Y-110395846D01*
X104534848Y-111118702D01*
X104717483Y-111243220D01*
X104717485Y-111243221D01*
X104960539Y-111360269D01*
X104960537Y-111360269D01*
X105218337Y-111439790D01*
X105218343Y-111439792D01*
X105485101Y-111479999D01*
X105485110Y-111480000D01*
X105754890Y-111480000D01*
X105754898Y-111479999D01*
X106021656Y-111439792D01*
X106021662Y-111439790D01*
X106279461Y-111360269D01*
X106522521Y-111243218D01*
X106705150Y-111118702D01*
X105982294Y-110395846D01*
X105998942Y-110388951D01*
X106129970Y-110301401D01*
X106241401Y-110189970D01*
X106328951Y-110058942D01*
X106335846Y-110042294D01*
X107057703Y-110764151D01*
X107057704Y-110764150D01*
X107111393Y-110696828D01*
X107111400Y-110696817D01*
X107246290Y-110463181D01*
X107344851Y-110212052D01*
X107344857Y-110212033D01*
X107404886Y-109949028D01*
X107404886Y-109949026D01*
X107425047Y-109680004D01*
X107425047Y-109679995D01*
X107404886Y-109410973D01*
X107404886Y-109410971D01*
X107344857Y-109147966D01*
X107344851Y-109147947D01*
X107246290Y-108896818D01*
X107246291Y-108896818D01*
X107132961Y-108700527D01*
X107116488Y-108632627D01*
X107139340Y-108566600D01*
X107194261Y-108523410D01*
X107263815Y-108516768D01*
X107310197Y-108536071D01*
X107382296Y-108585228D01*
X107382301Y-108585230D01*
X107382302Y-108585231D01*
X107382303Y-108585232D01*
X107480721Y-108632627D01*
X107618673Y-108699061D01*
X107618674Y-108699061D01*
X107618677Y-108699063D01*
X107869385Y-108776396D01*
X108128818Y-108815500D01*
X108391182Y-108815500D01*
X108650615Y-108776396D01*
X108901323Y-108699063D01*
X108936056Y-108682336D01*
X109004994Y-108670985D01*
X109069128Y-108698706D01*
X109108094Y-108756701D01*
X109109520Y-108826556D01*
X109097243Y-108856056D01*
X109073708Y-108896820D01*
X108975148Y-109147947D01*
X108975142Y-109147966D01*
X108915113Y-109410971D01*
X108915113Y-109410973D01*
X108894953Y-109679995D01*
X108894953Y-109680004D01*
X108915113Y-109949026D01*
X108915113Y-109949028D01*
X108975142Y-110212033D01*
X108975148Y-110212052D01*
X109073709Y-110463181D01*
X109073708Y-110463181D01*
X109208602Y-110696822D01*
X109262294Y-110764151D01*
X109984152Y-110042293D01*
X109991049Y-110058942D01*
X110078599Y-110189970D01*
X110190030Y-110301401D01*
X110321058Y-110388951D01*
X110337705Y-110395846D01*
X109614848Y-111118702D01*
X109797483Y-111243220D01*
X109797485Y-111243221D01*
X110040539Y-111360269D01*
X110040537Y-111360269D01*
X110298337Y-111439790D01*
X110298343Y-111439792D01*
X110565101Y-111479999D01*
X110565110Y-111480000D01*
X110834890Y-111480000D01*
X110834898Y-111479999D01*
X111101656Y-111439792D01*
X111101662Y-111439790D01*
X111359461Y-111360269D01*
X111602521Y-111243218D01*
X111785150Y-111118702D01*
X111062294Y-110395846D01*
X111078942Y-110388951D01*
X111209970Y-110301401D01*
X111321401Y-110189970D01*
X111408951Y-110058942D01*
X111415846Y-110042294D01*
X112137703Y-110764151D01*
X112137704Y-110764150D01*
X112191393Y-110696828D01*
X112191400Y-110696817D01*
X112326290Y-110463181D01*
X112424851Y-110212052D01*
X112424857Y-110212033D01*
X112484886Y-109949028D01*
X112484886Y-109949026D01*
X112505047Y-109680004D01*
X112505047Y-109679995D01*
X112495221Y-109548879D01*
X122299500Y-109548879D01*
X122299500Y-110451122D01*
X122299501Y-110451125D01*
X122302399Y-110493886D01*
X122302399Y-110493887D01*
X122348360Y-110678696D01*
X122432967Y-110849292D01*
X122432969Y-110849295D01*
X122552277Y-110997721D01*
X122552278Y-110997722D01*
X122621486Y-111053353D01*
X122661405Y-111110696D01*
X122663985Y-111180518D01*
X122628406Y-111240651D01*
X122621486Y-111246647D01*
X122552278Y-111302277D01*
X122552277Y-111302278D01*
X122432969Y-111450704D01*
X122432967Y-111450707D01*
X122348360Y-111621302D01*
X122302400Y-111806107D01*
X122299500Y-111848879D01*
X122299500Y-112751122D01*
X122299501Y-112751125D01*
X122302399Y-112793886D01*
X122302399Y-112793887D01*
X122348360Y-112978696D01*
X122432967Y-113149292D01*
X122432969Y-113149295D01*
X122552277Y-113297721D01*
X122552278Y-113297722D01*
X122621486Y-113353353D01*
X122661405Y-113410696D01*
X122663985Y-113480518D01*
X122628406Y-113540651D01*
X122621486Y-113546647D01*
X122552278Y-113602277D01*
X122552277Y-113602278D01*
X122432969Y-113750704D01*
X122432967Y-113750707D01*
X122348360Y-113921302D01*
X122302400Y-114106107D01*
X122299500Y-114148879D01*
X122299500Y-115051122D01*
X122299501Y-115051125D01*
X122302399Y-115093886D01*
X122302399Y-115093887D01*
X122348360Y-115278696D01*
X122432967Y-115449292D01*
X122432969Y-115449295D01*
X122552277Y-115597721D01*
X122552278Y-115597722D01*
X122700704Y-115717030D01*
X122700707Y-115717032D01*
X122871302Y-115801639D01*
X122871303Y-115801639D01*
X122871307Y-115801641D01*
X123056111Y-115847600D01*
X123098877Y-115850500D01*
X124501122Y-115850499D01*
X124543889Y-115847600D01*
X124728693Y-115801641D01*
X124899296Y-115717030D01*
X125047722Y-115597722D01*
X125167030Y-115449296D01*
X125251641Y-115278693D01*
X125297600Y-115093889D01*
X125300500Y-115051123D01*
X125300499Y-114148878D01*
X125297600Y-114106111D01*
X125251641Y-113921307D01*
X125205842Y-113828961D01*
X125167032Y-113750707D01*
X125167030Y-113750704D01*
X125047722Y-113602278D01*
X125047721Y-113602277D01*
X124978514Y-113546647D01*
X124938595Y-113489304D01*
X124936015Y-113419482D01*
X124971594Y-113359349D01*
X124978514Y-113353353D01*
X124987909Y-113345800D01*
X125047722Y-113297722D01*
X125167030Y-113149296D01*
X125251641Y-112978693D01*
X125297600Y-112793889D01*
X125300500Y-112751123D01*
X125300499Y-111848878D01*
X125297600Y-111806111D01*
X125251641Y-111621307D01*
X125208093Y-111533500D01*
X125167032Y-111450707D01*
X125167030Y-111450704D01*
X125047722Y-111302278D01*
X125047721Y-111302277D01*
X124978514Y-111246647D01*
X124938595Y-111189304D01*
X124936015Y-111119482D01*
X124971594Y-111059349D01*
X124978514Y-111053353D01*
X125010054Y-111028000D01*
X125047722Y-110997722D01*
X125167030Y-110849296D01*
X125170665Y-110841966D01*
X128599500Y-110841966D01*
X128599500Y-113758028D01*
X128599501Y-113758034D01*
X128610113Y-113877415D01*
X128666089Y-114073045D01*
X128666090Y-114073048D01*
X128666091Y-114073049D01*
X128760302Y-114253407D01*
X128760304Y-114253409D01*
X128888890Y-114411109D01*
X128982803Y-114487684D01*
X129046593Y-114539698D01*
X129226951Y-114633909D01*
X129422582Y-114689886D01*
X129541963Y-114700500D01*
X130658036Y-114700499D01*
X130777418Y-114689886D01*
X130973049Y-114633909D01*
X131153407Y-114539698D01*
X131311109Y-114411109D01*
X131439698Y-114253407D01*
X131533909Y-114073049D01*
X131589886Y-113877418D01*
X131600500Y-113758037D01*
X131600499Y-110841964D01*
X131589886Y-110722582D01*
X131533909Y-110526951D01*
X131439698Y-110346593D01*
X131387684Y-110282803D01*
X131311109Y-110188890D01*
X131153409Y-110060304D01*
X131153410Y-110060304D01*
X131153407Y-110060302D01*
X130973049Y-109966091D01*
X130973048Y-109966090D01*
X130973045Y-109966089D01*
X130855829Y-109932550D01*
X130777418Y-109910114D01*
X130777415Y-109910113D01*
X130777413Y-109910113D01*
X130711102Y-109904217D01*
X130658037Y-109899500D01*
X130658032Y-109899500D01*
X129541971Y-109899500D01*
X129541965Y-109899500D01*
X129541964Y-109899501D01*
X129530316Y-109900536D01*
X129422584Y-109910113D01*
X129226954Y-109966089D01*
X129137156Y-110012996D01*
X129046593Y-110060302D01*
X129046591Y-110060303D01*
X129046590Y-110060304D01*
X128888890Y-110188890D01*
X128760304Y-110346590D01*
X128760302Y-110346593D01*
X128738176Y-110388951D01*
X128666089Y-110526954D01*
X128610114Y-110722583D01*
X128610113Y-110722586D01*
X128599500Y-110841966D01*
X125170665Y-110841966D01*
X125251641Y-110678693D01*
X125297600Y-110493889D01*
X125300500Y-110451123D01*
X125300499Y-109548878D01*
X125297600Y-109506111D01*
X125251641Y-109321307D01*
X125249046Y-109316075D01*
X125167032Y-109150707D01*
X125167030Y-109150704D01*
X125047722Y-109002278D01*
X125047721Y-109002277D01*
X124899295Y-108882969D01*
X124899292Y-108882967D01*
X124728697Y-108798360D01*
X124543892Y-108752400D01*
X124522506Y-108750950D01*
X124501123Y-108749500D01*
X124501120Y-108749500D01*
X123098877Y-108749500D01*
X123098874Y-108749501D01*
X123056113Y-108752399D01*
X123056112Y-108752399D01*
X122871303Y-108798360D01*
X122700707Y-108882967D01*
X122700704Y-108882969D01*
X122552278Y-109002277D01*
X122552277Y-109002278D01*
X122432969Y-109150704D01*
X122432967Y-109150707D01*
X122348360Y-109321302D01*
X122302400Y-109506107D01*
X122299500Y-109548879D01*
X112495221Y-109548879D01*
X112484886Y-109410973D01*
X112484886Y-109410971D01*
X112424857Y-109147966D01*
X112424851Y-109147947D01*
X112326290Y-108896818D01*
X112326291Y-108896818D01*
X112191397Y-108663177D01*
X112137704Y-108595847D01*
X111415846Y-109317705D01*
X111408951Y-109301058D01*
X111321401Y-109170030D01*
X111209970Y-109058599D01*
X111078942Y-108971049D01*
X111062293Y-108964153D01*
X111785150Y-108241296D01*
X111602517Y-108116779D01*
X111602516Y-108116778D01*
X111359460Y-107999730D01*
X111359462Y-107999730D01*
X111101662Y-107920209D01*
X111101656Y-107920207D01*
X110834898Y-107880000D01*
X110565101Y-107880000D01*
X110298343Y-107920207D01*
X110298337Y-107920209D01*
X110040544Y-107999728D01*
X109988711Y-108024690D01*
X109919769Y-108036041D01*
X109855635Y-108008318D01*
X109816670Y-107950323D01*
X109815245Y-107880468D01*
X109827522Y-107850970D01*
X109841568Y-107826643D01*
X109937420Y-107582416D01*
X109995802Y-107326630D01*
X110015408Y-107065000D01*
X109995802Y-106803370D01*
X109937420Y-106547584D01*
X109897923Y-106446949D01*
X109891755Y-106377353D01*
X109924193Y-106315470D01*
X109984938Y-106280947D01*
X110049902Y-106283157D01*
X110298337Y-106359790D01*
X110298343Y-106359792D01*
X110565101Y-106399999D01*
X110565110Y-106400000D01*
X110834890Y-106400000D01*
X110834898Y-106399999D01*
X111101656Y-106359792D01*
X111101662Y-106359790D01*
X111359461Y-106280269D01*
X111602521Y-106163218D01*
X111785150Y-106038702D01*
X111062294Y-105315846D01*
X111078942Y-105308951D01*
X111209970Y-105221401D01*
X111321401Y-105109970D01*
X111408951Y-104978942D01*
X111415846Y-104962294D01*
X112137703Y-105684151D01*
X112137704Y-105684150D01*
X112191393Y-105616828D01*
X112191400Y-105616817D01*
X112326290Y-105383181D01*
X112424851Y-105132052D01*
X112424857Y-105132033D01*
X112484886Y-104869028D01*
X112484886Y-104869026D01*
X112505047Y-104600004D01*
X112505047Y-104599995D01*
X112484886Y-104330973D01*
X112484886Y-104330971D01*
X112424857Y-104067966D01*
X112424851Y-104067947D01*
X112326290Y-103816818D01*
X112326291Y-103816818D01*
X112191397Y-103583177D01*
X112137704Y-103515847D01*
X111415846Y-104237705D01*
X111408951Y-104221058D01*
X111321401Y-104090030D01*
X111209970Y-103978599D01*
X111078942Y-103891049D01*
X111062294Y-103884153D01*
X111785150Y-103161296D01*
X111602517Y-103036779D01*
X111602516Y-103036778D01*
X111359460Y-102919730D01*
X111359462Y-102919730D01*
X111101662Y-102840209D01*
X111101656Y-102840207D01*
X110834898Y-102800000D01*
X110565101Y-102800000D01*
X110298343Y-102840207D01*
X110298337Y-102840209D01*
X110040538Y-102919730D01*
X109797485Y-103036778D01*
X109797476Y-103036783D01*
X109614848Y-103161296D01*
X110337705Y-103884153D01*
X110321058Y-103891049D01*
X110190030Y-103978599D01*
X110078599Y-104090030D01*
X109991049Y-104221058D01*
X109984153Y-104237706D01*
X109262295Y-103515848D01*
X109208600Y-103583180D01*
X109073709Y-103816818D01*
X108975148Y-104067947D01*
X108975142Y-104067966D01*
X108915113Y-104330971D01*
X108915113Y-104330973D01*
X108894953Y-104599995D01*
X108894953Y-104600004D01*
X108915113Y-104869026D01*
X108915113Y-104869028D01*
X108975142Y-105132033D01*
X108975148Y-105132052D01*
X109024706Y-105258324D01*
X109030875Y-105327921D01*
X108998437Y-105389804D01*
X108937692Y-105424327D01*
X108872729Y-105422117D01*
X108767973Y-105389804D01*
X108650623Y-105353606D01*
X108650619Y-105353605D01*
X108650615Y-105353604D01*
X108525823Y-105334794D01*
X108391187Y-105314500D01*
X108391182Y-105314500D01*
X108128818Y-105314500D01*
X108128812Y-105314500D01*
X107967247Y-105338853D01*
X107869385Y-105353604D01*
X107869382Y-105353605D01*
X107869376Y-105353606D01*
X107618673Y-105430938D01*
X107421052Y-105526107D01*
X107352111Y-105537459D01*
X107287976Y-105509736D01*
X107249011Y-105451741D01*
X107247586Y-105381886D01*
X107251823Y-105369085D01*
X107344851Y-105132052D01*
X107344857Y-105132033D01*
X107404886Y-104869028D01*
X107404886Y-104869026D01*
X107425047Y-104600004D01*
X107425047Y-104599995D01*
X107404886Y-104330973D01*
X107404886Y-104330971D01*
X107344857Y-104067966D01*
X107344851Y-104067947D01*
X107246290Y-103816818D01*
X107246291Y-103816818D01*
X107111397Y-103583177D01*
X107057704Y-103515847D01*
X106335846Y-104237705D01*
X106328951Y-104221058D01*
X106241401Y-104090030D01*
X106129970Y-103978599D01*
X105998942Y-103891049D01*
X105982294Y-103884153D01*
X106705150Y-103161296D01*
X106522517Y-103036779D01*
X106522516Y-103036778D01*
X106279460Y-102919730D01*
X106279462Y-102919730D01*
X106021662Y-102840209D01*
X106021656Y-102840207D01*
X105754898Y-102800000D01*
X105485101Y-102800000D01*
X105218343Y-102840207D01*
X105218337Y-102840209D01*
X104960538Y-102919730D01*
X104717485Y-103036778D01*
X104717476Y-103036783D01*
X104534848Y-103161296D01*
X105257705Y-103884153D01*
X105241058Y-103891049D01*
X105110030Y-103978599D01*
X104998599Y-104090030D01*
X104911049Y-104221058D01*
X104904153Y-104237706D01*
X104182295Y-103515848D01*
X104128600Y-103583180D01*
X103993709Y-103816818D01*
X103895148Y-104067947D01*
X103895142Y-104067966D01*
X103835113Y-104330971D01*
X103835113Y-104330973D01*
X103814953Y-104599995D01*
X100500500Y-104599995D01*
X100500500Y-93999994D01*
X116494859Y-93999994D01*
X116494859Y-94000005D01*
X116515385Y-94247729D01*
X116515387Y-94247738D01*
X116576412Y-94488717D01*
X116676266Y-94716364D01*
X116776564Y-94869882D01*
X117517037Y-94129409D01*
X117534075Y-94192993D01*
X117599901Y-94307007D01*
X117692993Y-94400099D01*
X117807007Y-94465925D01*
X117870590Y-94482962D01*
X117129942Y-95223609D01*
X117176768Y-95260055D01*
X117176770Y-95260056D01*
X117395385Y-95378364D01*
X117395396Y-95378369D01*
X117630506Y-95459083D01*
X117875707Y-95500000D01*
X118124293Y-95500000D01*
X118369493Y-95459083D01*
X118604603Y-95378369D01*
X118604614Y-95378364D01*
X118823228Y-95260057D01*
X118823231Y-95260055D01*
X118870056Y-95223609D01*
X118129409Y-94482962D01*
X118192993Y-94465925D01*
X118307007Y-94400099D01*
X118400099Y-94307007D01*
X118465925Y-94192993D01*
X118482962Y-94129410D01*
X119223434Y-94869882D01*
X119323731Y-94716369D01*
X119423587Y-94488717D01*
X119484612Y-94247738D01*
X119484614Y-94247729D01*
X119505141Y-94000005D01*
X119505141Y-93999994D01*
X119484614Y-93752270D01*
X119484612Y-93752261D01*
X119423587Y-93511282D01*
X119323731Y-93283630D01*
X119223434Y-93130116D01*
X118482962Y-93870589D01*
X118465925Y-93807007D01*
X118400099Y-93692993D01*
X118307007Y-93599901D01*
X118192993Y-93534075D01*
X118129410Y-93517037D01*
X118870057Y-92776390D01*
X118870056Y-92776389D01*
X118823229Y-92739943D01*
X118604614Y-92621635D01*
X118604603Y-92621630D01*
X118369493Y-92540916D01*
X118124293Y-92500000D01*
X117875707Y-92500000D01*
X117630506Y-92540916D01*
X117395396Y-92621630D01*
X117395390Y-92621632D01*
X117176761Y-92739949D01*
X117129942Y-92776388D01*
X117129942Y-92776390D01*
X117870590Y-93517037D01*
X117807007Y-93534075D01*
X117692993Y-93599901D01*
X117599901Y-93692993D01*
X117534075Y-93807007D01*
X117517037Y-93870589D01*
X116776564Y-93130116D01*
X116676267Y-93283632D01*
X116576412Y-93511282D01*
X116515387Y-93752261D01*
X116515385Y-93752270D01*
X116494859Y-93999994D01*
X100500500Y-93999994D01*
X100500500Y-87999994D01*
X116494357Y-87999994D01*
X116494357Y-88000005D01*
X116514890Y-88247812D01*
X116514892Y-88247824D01*
X116575936Y-88488881D01*
X116675826Y-88716606D01*
X116811833Y-88924782D01*
X116811836Y-88924785D01*
X116980256Y-89107738D01*
X117176491Y-89260474D01*
X117395190Y-89378828D01*
X117630386Y-89459571D01*
X117875665Y-89500500D01*
X118124335Y-89500500D01*
X118369614Y-89459571D01*
X118604810Y-89378828D01*
X118823509Y-89260474D01*
X119019744Y-89107738D01*
X119188164Y-88924785D01*
X119324173Y-88716607D01*
X119424063Y-88488881D01*
X119485108Y-88247821D01*
X119505643Y-88000000D01*
X119505643Y-87999994D01*
X132494357Y-87999994D01*
X132494357Y-88000005D01*
X132514890Y-88247812D01*
X132514892Y-88247824D01*
X132575936Y-88488881D01*
X132675826Y-88716606D01*
X132811833Y-88924782D01*
X132811836Y-88924785D01*
X132980256Y-89107738D01*
X133176491Y-89260474D01*
X133395190Y-89378828D01*
X133407292Y-89382982D01*
X133464307Y-89423365D01*
X133490439Y-89488164D01*
X133477391Y-89556804D01*
X133429304Y-89607493D01*
X133407300Y-89617543D01*
X133395398Y-89621629D01*
X133395390Y-89621632D01*
X133176761Y-89739949D01*
X133129942Y-89776388D01*
X133129942Y-89776390D01*
X133870590Y-90517037D01*
X133807007Y-90534075D01*
X133692993Y-90599901D01*
X133599901Y-90692993D01*
X133534075Y-90807007D01*
X133517037Y-90870589D01*
X132776564Y-90130116D01*
X132676267Y-90283632D01*
X132576412Y-90511282D01*
X132515387Y-90752261D01*
X132515385Y-90752270D01*
X132494859Y-90999994D01*
X132494859Y-91000005D01*
X132515385Y-91247729D01*
X132515387Y-91247738D01*
X132576412Y-91488717D01*
X132676266Y-91716364D01*
X132776564Y-91869882D01*
X133517037Y-91129409D01*
X133534075Y-91192993D01*
X133599901Y-91307007D01*
X133692993Y-91400099D01*
X133807007Y-91465925D01*
X133870590Y-91482962D01*
X133129942Y-92223609D01*
X133176768Y-92260055D01*
X133176770Y-92260056D01*
X133395385Y-92378364D01*
X133395396Y-92378369D01*
X133407294Y-92382454D01*
X133464309Y-92422839D01*
X133490440Y-92487639D01*
X133477389Y-92556279D01*
X133429300Y-92606967D01*
X133407296Y-92617016D01*
X133395191Y-92621171D01*
X133395188Y-92621172D01*
X133176493Y-92739524D01*
X132980257Y-92892261D01*
X132811833Y-93075217D01*
X132675826Y-93283393D01*
X132575936Y-93511118D01*
X132514892Y-93752175D01*
X132514890Y-93752187D01*
X132494357Y-93999994D01*
X132494357Y-94000005D01*
X132514890Y-94247812D01*
X132514892Y-94247824D01*
X132575936Y-94488881D01*
X132675826Y-94716606D01*
X132811833Y-94924782D01*
X132811836Y-94924785D01*
X132966730Y-95093045D01*
X132997652Y-95155698D01*
X132999500Y-95177027D01*
X132999500Y-95798541D01*
X132999500Y-95798543D01*
X132999499Y-95798543D01*
X133037947Y-95991829D01*
X133037950Y-95991839D01*
X133113364Y-96173907D01*
X133113371Y-96173920D01*
X133222860Y-96337781D01*
X133222863Y-96337785D01*
X133366537Y-96481459D01*
X133366559Y-96481479D01*
X136019735Y-99134655D01*
X136019764Y-99134686D01*
X136162214Y-99277136D01*
X136162218Y-99277139D01*
X136326079Y-99386628D01*
X136326092Y-99386635D01*
X136454833Y-99439961D01*
X136497744Y-99457735D01*
X136508164Y-99462051D01*
X136604812Y-99481275D01*
X136620693Y-99484434D01*
X136701458Y-99500500D01*
X136701459Y-99500500D01*
X136701460Y-99500500D01*
X136898540Y-99500500D01*
X138490202Y-99500500D01*
X138557241Y-99520185D01*
X138595739Y-99559401D01*
X138632288Y-99618656D01*
X138756344Y-99742712D01*
X138905666Y-99834814D01*
X139072203Y-99889999D01*
X139174991Y-99900500D01*
X139925008Y-99900499D01*
X139925016Y-99900498D01*
X139925019Y-99900498D01*
X139981302Y-99894748D01*
X140027797Y-99889999D01*
X140194334Y-99834814D01*
X140343656Y-99742712D01*
X140467712Y-99618656D01*
X140559814Y-99469334D01*
X140614999Y-99302797D01*
X140625500Y-99200009D01*
X140625499Y-97799992D01*
X140625498Y-97799983D01*
X141424500Y-97799983D01*
X141424500Y-99200001D01*
X141424501Y-99200018D01*
X141435000Y-99302796D01*
X141435001Y-99302799D01*
X141492458Y-99476190D01*
X141490631Y-99476795D01*
X141499500Y-99516798D01*
X141499500Y-100298541D01*
X141499500Y-100298543D01*
X141499499Y-100298543D01*
X141537947Y-100491829D01*
X141537950Y-100491839D01*
X141613364Y-100673907D01*
X141613371Y-100673920D01*
X141722859Y-100837780D01*
X141722860Y-100837781D01*
X141722861Y-100837782D01*
X141862218Y-100977139D01*
X141862219Y-100977139D01*
X141869286Y-100984206D01*
X141869285Y-100984206D01*
X141869289Y-100984209D01*
X143553479Y-102668400D01*
X143561652Y-102677417D01*
X143589116Y-102710883D01*
X143622581Y-102738346D01*
X143631598Y-102746519D01*
X143662218Y-102777139D01*
X143662217Y-102777139D01*
X143675849Y-102786246D01*
X143698231Y-102801202D01*
X143707989Y-102808439D01*
X143741462Y-102835910D01*
X143779642Y-102856317D01*
X143790080Y-102862573D01*
X143797861Y-102867771D01*
X143826085Y-102886631D01*
X143866084Y-102903199D01*
X143877077Y-102908397D01*
X143915273Y-102928814D01*
X143956725Y-102941388D01*
X143968147Y-102945475D01*
X144008164Y-102962051D01*
X144050636Y-102970499D01*
X144062422Y-102973451D01*
X144103868Y-102986024D01*
X144146964Y-102990268D01*
X144158990Y-102992052D01*
X144189480Y-102998117D01*
X144201458Y-103000500D01*
X144201459Y-103000500D01*
X144244756Y-103000500D01*
X144256909Y-103001096D01*
X144300000Y-103005341D01*
X144343090Y-103001096D01*
X144355244Y-103000500D01*
X144398540Y-103000500D01*
X144441006Y-102992052D01*
X144453035Y-102990268D01*
X144496132Y-102986024D01*
X144537580Y-102973450D01*
X144549353Y-102970500D01*
X144591835Y-102962051D01*
X144631833Y-102945483D01*
X144643286Y-102941384D01*
X144684727Y-102928814D01*
X144722918Y-102908400D01*
X144733915Y-102903199D01*
X144756178Y-102893976D01*
X144773914Y-102886631D01*
X144773916Y-102886629D01*
X144773921Y-102886627D01*
X144809908Y-102862580D01*
X144820332Y-102856330D01*
X144858538Y-102835910D01*
X144892020Y-102808430D01*
X144901783Y-102801191D01*
X144937781Y-102777139D01*
X144968394Y-102746524D01*
X144977411Y-102738352D01*
X144977418Y-102738346D01*
X145010883Y-102710883D01*
X145038353Y-102677409D01*
X145046526Y-102668393D01*
X145077139Y-102637781D01*
X145101193Y-102601780D01*
X145108430Y-102592020D01*
X145135910Y-102558538D01*
X145156330Y-102520332D01*
X145162580Y-102509908D01*
X145186627Y-102473921D01*
X145186632Y-102473911D01*
X145203199Y-102433915D01*
X145208404Y-102422910D01*
X145228811Y-102384732D01*
X145228814Y-102384727D01*
X145241384Y-102343286D01*
X145245483Y-102331833D01*
X145247450Y-102327083D01*
X145262051Y-102291835D01*
X145270500Y-102249353D01*
X145273450Y-102237580D01*
X145286024Y-102196132D01*
X145290268Y-102153035D01*
X145292052Y-102141006D01*
X145300500Y-102098540D01*
X145300500Y-102055244D01*
X145301097Y-102043090D01*
X145305341Y-102000000D01*
X145301097Y-101956907D01*
X145300500Y-101944754D01*
X145300500Y-101901458D01*
X145298117Y-101889480D01*
X145292052Y-101858990D01*
X145290268Y-101846961D01*
X145286024Y-101803869D01*
X145273452Y-101762424D01*
X145270499Y-101750636D01*
X145262051Y-101708164D01*
X145245475Y-101668147D01*
X145241388Y-101656725D01*
X145228814Y-101615273D01*
X145208397Y-101577077D01*
X145203200Y-101566086D01*
X145186631Y-101526085D01*
X145162573Y-101490080D01*
X145156317Y-101479642D01*
X145135910Y-101441462D01*
X145108439Y-101407989D01*
X145101202Y-101398231D01*
X145077139Y-101362218D01*
X145046519Y-101331598D01*
X145038346Y-101322581D01*
X145010883Y-101289116D01*
X144977417Y-101261652D01*
X144968400Y-101253479D01*
X143536819Y-99821898D01*
X143503334Y-99760575D01*
X143500500Y-99734217D01*
X143500500Y-99516798D01*
X143509368Y-99476795D01*
X143507542Y-99476190D01*
X143512227Y-99462051D01*
X143564999Y-99302797D01*
X143575500Y-99200009D01*
X143575499Y-97799992D01*
X143564999Y-97697203D01*
X143509814Y-97530666D01*
X143417712Y-97381344D01*
X143293656Y-97257288D01*
X143144334Y-97165186D01*
X142977797Y-97110001D01*
X142977795Y-97110000D01*
X142875010Y-97099500D01*
X142124998Y-97099500D01*
X142124980Y-97099501D01*
X142022203Y-97110000D01*
X142022200Y-97110001D01*
X141855668Y-97165185D01*
X141855663Y-97165187D01*
X141706342Y-97257289D01*
X141582289Y-97381342D01*
X141490187Y-97530663D01*
X141490186Y-97530666D01*
X141435001Y-97697203D01*
X141435001Y-97697204D01*
X141435000Y-97697204D01*
X141424500Y-97799983D01*
X140625498Y-97799983D01*
X140614999Y-97697203D01*
X140559814Y-97530666D01*
X140467712Y-97381344D01*
X140343656Y-97257288D01*
X140194334Y-97165186D01*
X140027797Y-97110001D01*
X140027795Y-97110000D01*
X139925010Y-97099500D01*
X139174998Y-97099500D01*
X139174980Y-97099501D01*
X139072203Y-97110000D01*
X139072200Y-97110001D01*
X138905668Y-97165185D01*
X138905663Y-97165187D01*
X138756342Y-97257289D01*
X138632289Y-97381342D01*
X138595741Y-97440597D01*
X138543793Y-97487321D01*
X138490202Y-97499500D01*
X137265782Y-97499500D01*
X137198743Y-97479815D01*
X137178101Y-97463181D01*
X135036819Y-95321899D01*
X135003334Y-95260576D01*
X135000500Y-95234218D01*
X135000500Y-95177027D01*
X135020185Y-95109988D01*
X135033265Y-95093049D01*
X135188164Y-94924785D01*
X135324173Y-94716607D01*
X135424063Y-94488881D01*
X135485108Y-94247821D01*
X135502592Y-94036819D01*
X135505643Y-94000005D01*
X135505643Y-93999994D01*
X135485109Y-93752187D01*
X135485107Y-93752175D01*
X135424063Y-93511118D01*
X135324173Y-93283393D01*
X135188166Y-93075217D01*
X135166557Y-93051744D01*
X135019744Y-92892262D01*
X134823509Y-92739526D01*
X134823507Y-92739525D01*
X134823506Y-92739524D01*
X134604811Y-92621172D01*
X134604802Y-92621169D01*
X134592705Y-92617016D01*
X134535690Y-92576631D01*
X134509559Y-92511831D01*
X134522610Y-92443191D01*
X134570699Y-92392504D01*
X134592707Y-92382453D01*
X134604608Y-92378367D01*
X134604614Y-92378364D01*
X134823228Y-92260057D01*
X134823231Y-92260055D01*
X134870056Y-92223609D01*
X134129409Y-91482962D01*
X134192993Y-91465925D01*
X134307007Y-91400099D01*
X134400099Y-91307007D01*
X134465925Y-91192993D01*
X134482962Y-91129410D01*
X135223434Y-91869882D01*
X135323731Y-91716369D01*
X135423587Y-91488717D01*
X135484612Y-91247738D01*
X135484614Y-91247729D01*
X135505141Y-91000005D01*
X135505141Y-90999994D01*
X135484614Y-90752270D01*
X135484612Y-90752261D01*
X135423587Y-90511282D01*
X135323731Y-90283630D01*
X135223434Y-90130116D01*
X134482962Y-90870589D01*
X134465925Y-90807007D01*
X134400099Y-90692993D01*
X134307007Y-90599901D01*
X134192993Y-90534075D01*
X134129410Y-90517037D01*
X134870057Y-89776390D01*
X134870056Y-89776389D01*
X134823229Y-89739943D01*
X134604614Y-89621635D01*
X134604605Y-89621631D01*
X134592701Y-89617544D01*
X134535687Y-89577156D01*
X134509559Y-89512356D01*
X134522612Y-89443716D01*
X134570703Y-89393030D01*
X134592705Y-89382983D01*
X134604810Y-89378828D01*
X134823509Y-89260474D01*
X135019744Y-89107738D01*
X135188164Y-88924785D01*
X135324173Y-88716607D01*
X135424063Y-88488881D01*
X135485108Y-88247821D01*
X135505643Y-88000000D01*
X135504091Y-87981275D01*
X135485109Y-87752187D01*
X135485107Y-87752175D01*
X135424063Y-87511118D01*
X135324173Y-87283393D01*
X135188166Y-87075217D01*
X135118928Y-87000005D01*
X135019744Y-86892262D01*
X134823509Y-86739526D01*
X134823507Y-86739525D01*
X134823506Y-86739524D01*
X134604811Y-86621172D01*
X134604802Y-86621169D01*
X134369616Y-86540429D01*
X134124335Y-86499500D01*
X133875665Y-86499500D01*
X133630383Y-86540429D01*
X133395197Y-86621169D01*
X133395188Y-86621172D01*
X133176493Y-86739524D01*
X132980257Y-86892261D01*
X132811833Y-87075217D01*
X132675826Y-87283393D01*
X132575936Y-87511118D01*
X132514892Y-87752175D01*
X132514890Y-87752187D01*
X132494357Y-87999994D01*
X119505643Y-87999994D01*
X119504091Y-87981275D01*
X119485109Y-87752187D01*
X119485107Y-87752175D01*
X119424063Y-87511118D01*
X119324173Y-87283393D01*
X119188166Y-87075217D01*
X119118928Y-87000005D01*
X119019744Y-86892262D01*
X118823509Y-86739526D01*
X118823507Y-86739525D01*
X118823506Y-86739524D01*
X118604811Y-86621172D01*
X118604802Y-86621169D01*
X118369616Y-86540429D01*
X118124335Y-86499500D01*
X117875665Y-86499500D01*
X117630383Y-86540429D01*
X117395197Y-86621169D01*
X117395188Y-86621172D01*
X117176493Y-86739524D01*
X116980257Y-86892261D01*
X116811833Y-87075217D01*
X116675826Y-87283393D01*
X116575936Y-87511118D01*
X116514892Y-87752175D01*
X116514890Y-87752187D01*
X116494357Y-87999994D01*
X100500500Y-87999994D01*
X100500500Y-80299983D01*
X135974500Y-80299983D01*
X135974500Y-81700001D01*
X135974501Y-81700018D01*
X135985000Y-81802796D01*
X135985001Y-81802799D01*
X136014646Y-81892261D01*
X136040186Y-81969334D01*
X136132288Y-82118656D01*
X136256344Y-82242712D01*
X136405666Y-82334814D01*
X136572203Y-82389999D01*
X136674991Y-82400500D01*
X137425008Y-82400499D01*
X137425016Y-82400498D01*
X137425019Y-82400498D01*
X137481302Y-82394748D01*
X137527797Y-82389999D01*
X137694334Y-82334814D01*
X137843656Y-82242712D01*
X137967712Y-82118656D01*
X138059814Y-81969334D01*
X138114999Y-81802797D01*
X138125500Y-81700009D01*
X138125499Y-80299992D01*
X138125498Y-80299983D01*
X138924500Y-80299983D01*
X138924500Y-81700001D01*
X138924501Y-81700018D01*
X138935000Y-81802796D01*
X138935001Y-81802799D01*
X138964646Y-81892261D01*
X138990186Y-81969334D01*
X139082288Y-82118656D01*
X139206344Y-82242712D01*
X139355666Y-82334814D01*
X139522203Y-82389999D01*
X139624991Y-82400500D01*
X140375008Y-82400499D01*
X140375016Y-82400498D01*
X140375019Y-82400498D01*
X140431302Y-82394748D01*
X140477797Y-82389999D01*
X140644334Y-82334814D01*
X140793656Y-82242712D01*
X140917712Y-82118656D01*
X141009814Y-81969334D01*
X141064999Y-81802797D01*
X141075500Y-81700009D01*
X141075499Y-80299992D01*
X141064999Y-80197203D01*
X141009814Y-80030666D01*
X140917712Y-79881344D01*
X140793656Y-79757288D01*
X140644334Y-79665186D01*
X140477797Y-79610001D01*
X140477795Y-79610000D01*
X140375010Y-79599500D01*
X139624998Y-79599500D01*
X139624980Y-79599501D01*
X139522203Y-79610000D01*
X139522200Y-79610001D01*
X139355668Y-79665185D01*
X139355663Y-79665187D01*
X139206342Y-79757289D01*
X139082289Y-79881342D01*
X138990187Y-80030663D01*
X138990186Y-80030666D01*
X138935001Y-80197203D01*
X138935001Y-80197204D01*
X138935000Y-80197204D01*
X138924500Y-80299983D01*
X138125498Y-80299983D01*
X138114999Y-80197203D01*
X138059814Y-80030666D01*
X137967712Y-79881344D01*
X137843656Y-79757288D01*
X137694334Y-79665186D01*
X137527797Y-79610001D01*
X137527795Y-79610000D01*
X137425010Y-79599500D01*
X136674998Y-79599500D01*
X136674980Y-79599501D01*
X136572203Y-79610000D01*
X136572200Y-79610001D01*
X136405668Y-79665185D01*
X136405663Y-79665187D01*
X136256342Y-79757289D01*
X136132289Y-79881342D01*
X136040187Y-80030663D01*
X136040186Y-80030666D01*
X135985001Y-80197203D01*
X135985001Y-80197204D01*
X135985000Y-80197204D01*
X135974500Y-80299983D01*
X100500500Y-80299983D01*
X100500500Y-76124983D01*
X141412000Y-76124983D01*
X141412000Y-77475001D01*
X141412001Y-77475018D01*
X141422500Y-77577796D01*
X141422501Y-77577799D01*
X141477685Y-77744331D01*
X141477686Y-77744334D01*
X141569788Y-77893656D01*
X141693844Y-78017712D01*
X141843166Y-78109814D01*
X142009703Y-78164999D01*
X142112491Y-78175500D01*
X142837508Y-78175499D01*
X142837516Y-78175498D01*
X142837519Y-78175498D01*
X142893802Y-78169748D01*
X142940297Y-78164999D01*
X143106834Y-78109814D01*
X143256156Y-78017712D01*
X143380212Y-77893656D01*
X143472314Y-77744334D01*
X143527499Y-77577797D01*
X143538000Y-77475009D01*
X143537999Y-76124992D01*
X143537998Y-76124983D01*
X144337000Y-76124983D01*
X144337000Y-77475001D01*
X144337001Y-77475018D01*
X144347500Y-77577796D01*
X144347501Y-77577799D01*
X144402685Y-77744331D01*
X144402686Y-77744334D01*
X144494788Y-77893656D01*
X144618844Y-78017712D01*
X144768166Y-78109814D01*
X144934703Y-78164999D01*
X145037491Y-78175500D01*
X145762508Y-78175499D01*
X145762516Y-78175498D01*
X145762519Y-78175498D01*
X145818802Y-78169748D01*
X145865297Y-78164999D01*
X146031834Y-78109814D01*
X146181156Y-78017712D01*
X146305212Y-77893656D01*
X146397314Y-77744334D01*
X146452499Y-77577797D01*
X146463000Y-77475009D01*
X146462999Y-76124992D01*
X146452499Y-76022203D01*
X146397314Y-75855666D01*
X146305212Y-75706344D01*
X146181156Y-75582288D01*
X146031834Y-75490186D01*
X145865297Y-75435001D01*
X145865295Y-75435000D01*
X145762510Y-75424500D01*
X145037498Y-75424500D01*
X145037480Y-75424501D01*
X144934703Y-75435000D01*
X144934700Y-75435001D01*
X144768168Y-75490185D01*
X144768163Y-75490187D01*
X144618842Y-75582289D01*
X144494789Y-75706342D01*
X144402687Y-75855663D01*
X144402686Y-75855666D01*
X144347501Y-76022203D01*
X144347501Y-76022204D01*
X144347500Y-76022204D01*
X144337000Y-76124983D01*
X143537998Y-76124983D01*
X143527499Y-76022203D01*
X143472314Y-75855666D01*
X143380212Y-75706344D01*
X143256156Y-75582288D01*
X143106834Y-75490186D01*
X142940297Y-75435001D01*
X142940295Y-75435000D01*
X142837510Y-75424500D01*
X142112498Y-75424500D01*
X142112480Y-75424501D01*
X142009703Y-75435000D01*
X142009700Y-75435001D01*
X141843168Y-75490185D01*
X141843163Y-75490187D01*
X141693842Y-75582289D01*
X141569789Y-75706342D01*
X141477687Y-75855663D01*
X141477686Y-75855666D01*
X141422501Y-76022203D01*
X141422501Y-76022204D01*
X141422500Y-76022204D01*
X141412000Y-76124983D01*
X100500500Y-76124983D01*
X100500500Y-56296608D01*
X144999500Y-56296608D01*
X144999500Y-74428391D01*
X145033608Y-74555687D01*
X145066554Y-74612750D01*
X145099500Y-74669814D01*
X145192686Y-74763000D01*
X145306814Y-74828892D01*
X145434108Y-74863000D01*
X145565892Y-74863000D01*
X147113500Y-74863000D01*
X147180539Y-74882685D01*
X147226294Y-74935489D01*
X147237500Y-74987000D01*
X147237500Y-78910370D01*
X147237501Y-78910376D01*
X147243908Y-78969983D01*
X147294202Y-79104828D01*
X147294206Y-79104835D01*
X147380452Y-79220044D01*
X147380455Y-79220047D01*
X147495664Y-79306293D01*
X147495671Y-79306297D01*
X147630517Y-79356591D01*
X147630516Y-79356591D01*
X147637444Y-79357335D01*
X147690127Y-79363000D01*
X149309872Y-79362999D01*
X149369483Y-79356591D01*
X149504331Y-79306296D01*
X149619546Y-79220046D01*
X149651046Y-79177966D01*
X149706979Y-79136097D01*
X149776671Y-79131113D01*
X149837994Y-79164598D01*
X149849578Y-79177968D01*
X149880809Y-79219687D01*
X149880812Y-79219690D01*
X149995906Y-79305850D01*
X149995913Y-79305854D01*
X150130620Y-79356096D01*
X150130627Y-79356098D01*
X150190155Y-79362499D01*
X150190172Y-79362500D01*
X150405584Y-79362500D01*
X150472623Y-79382185D01*
X150518378Y-79434989D01*
X150528322Y-79504147D01*
X150499297Y-79567703D01*
X150445847Y-79603781D01*
X150395197Y-79621169D01*
X150395188Y-79621172D01*
X150176493Y-79739524D01*
X149980257Y-79892261D01*
X149811833Y-80075217D01*
X149675826Y-80283393D01*
X149575936Y-80511118D01*
X149514892Y-80752175D01*
X149514890Y-80752187D01*
X149494357Y-80999994D01*
X149494357Y-81000005D01*
X149514890Y-81247812D01*
X149514892Y-81247824D01*
X149575936Y-81488881D01*
X149675826Y-81716606D01*
X149811833Y-81924782D01*
X149811836Y-81924785D01*
X149980256Y-82107738D01*
X150176491Y-82260474D01*
X150395190Y-82378828D01*
X150630386Y-82459571D01*
X150875665Y-82500500D01*
X151124335Y-82500500D01*
X151369614Y-82459571D01*
X151604810Y-82378828D01*
X151823509Y-82260474D01*
X152019744Y-82107738D01*
X152188164Y-81924785D01*
X152271691Y-81796937D01*
X152324837Y-81751580D01*
X152394069Y-81742156D01*
X152457404Y-81771658D01*
X152494736Y-81830718D01*
X152499500Y-81864758D01*
X152499500Y-84034218D01*
X152479815Y-84101257D01*
X152463181Y-84121899D01*
X151121899Y-85463181D01*
X151060576Y-85496666D01*
X151034218Y-85499500D01*
X150875665Y-85499500D01*
X150630383Y-85540429D01*
X150395197Y-85621169D01*
X150395188Y-85621172D01*
X150176493Y-85739524D01*
X149980257Y-85892261D01*
X149811833Y-86075217D01*
X149675826Y-86283393D01*
X149575936Y-86511118D01*
X149514892Y-86752175D01*
X149514890Y-86752187D01*
X149494357Y-86999994D01*
X149494357Y-87000005D01*
X149514890Y-87247812D01*
X149514892Y-87247824D01*
X149575936Y-87488881D01*
X149675826Y-87716606D01*
X149811833Y-87924782D01*
X149811836Y-87924785D01*
X149980256Y-88107738D01*
X150176491Y-88260474D01*
X150395190Y-88378828D01*
X150405682Y-88382430D01*
X150406524Y-88382719D01*
X150463539Y-88423106D01*
X150489668Y-88487906D01*
X150476615Y-88556546D01*
X150428526Y-88607233D01*
X150406524Y-88617281D01*
X150395191Y-88621171D01*
X150395188Y-88621172D01*
X150176493Y-88739524D01*
X149980257Y-88892261D01*
X149811833Y-89075217D01*
X149675826Y-89283393D01*
X149575936Y-89511118D01*
X149514892Y-89752175D01*
X149514890Y-89752187D01*
X149494357Y-89999994D01*
X149494357Y-90000005D01*
X149514890Y-90247812D01*
X149514892Y-90247824D01*
X149575936Y-90488881D01*
X149675826Y-90716606D01*
X149811833Y-90924782D01*
X149811836Y-90924785D01*
X149980256Y-91107738D01*
X150176491Y-91260474D01*
X150395190Y-91378828D01*
X150405682Y-91382430D01*
X150406524Y-91382719D01*
X150463539Y-91423106D01*
X150489668Y-91487906D01*
X150476615Y-91556546D01*
X150428526Y-91607233D01*
X150406524Y-91617281D01*
X150395191Y-91621171D01*
X150395188Y-91621172D01*
X150176493Y-91739524D01*
X149980257Y-91892261D01*
X149811833Y-92075217D01*
X149675826Y-92283393D01*
X149575936Y-92511118D01*
X149514892Y-92752175D01*
X149514890Y-92752187D01*
X149494357Y-92999994D01*
X149494357Y-92999995D01*
X149496553Y-93026502D01*
X149482470Y-93094938D01*
X149460657Y-93124421D01*
X148650905Y-93934174D01*
X147862221Y-94722858D01*
X147862218Y-94722861D01*
X147792538Y-94792540D01*
X147722859Y-94862219D01*
X147613371Y-95026079D01*
X147613364Y-95026092D01*
X147537950Y-95208160D01*
X147537947Y-95208170D01*
X147499500Y-95401456D01*
X147499500Y-100719766D01*
X147479815Y-100786805D01*
X147449812Y-100819032D01*
X147380452Y-100870955D01*
X147294206Y-100986164D01*
X147294202Y-100986171D01*
X147243908Y-101121017D01*
X147237501Y-101180616D01*
X147237500Y-101180627D01*
X147237500Y-103161296D01*
X147237501Y-105104000D01*
X147217816Y-105171039D01*
X147165012Y-105216794D01*
X147113501Y-105228000D01*
X145434108Y-105228000D01*
X145306812Y-105262108D01*
X145192686Y-105328000D01*
X145192683Y-105328002D01*
X145099502Y-105421183D01*
X145099500Y-105421186D01*
X145033608Y-105535312D01*
X144999500Y-105662608D01*
X144999500Y-123794391D01*
X145033608Y-123921687D01*
X145066554Y-123978750D01*
X145099500Y-124035814D01*
X145192686Y-124129000D01*
X145306814Y-124194892D01*
X145434108Y-124229000D01*
X145434110Y-124229000D01*
X156565890Y-124229000D01*
X156565892Y-124229000D01*
X156693186Y-124194892D01*
X156807314Y-124129000D01*
X156900500Y-124035814D01*
X156966392Y-123921686D01*
X157000500Y-123794392D01*
X157000500Y-118267135D01*
X163764500Y-118267135D01*
X163764500Y-121132870D01*
X163764501Y-121132876D01*
X163770908Y-121192483D01*
X163821202Y-121327328D01*
X163821203Y-121327330D01*
X163887349Y-121415689D01*
X163911766Y-121481153D01*
X163896915Y-121549426D01*
X163887349Y-121564311D01*
X163821203Y-121652669D01*
X163821202Y-121652671D01*
X163770908Y-121787517D01*
X163767327Y-121820830D01*
X163764501Y-121847123D01*
X163764500Y-121847135D01*
X163764500Y-124712870D01*
X163764501Y-124712876D01*
X163770908Y-124772483D01*
X163821202Y-124907328D01*
X163821206Y-124907335D01*
X163907452Y-125022544D01*
X163907455Y-125022547D01*
X164022664Y-125108793D01*
X164022671Y-125108797D01*
X164157517Y-125159091D01*
X164157516Y-125159091D01*
X164164444Y-125159835D01*
X164217127Y-125165500D01*
X165782872Y-125165499D01*
X165842483Y-125159091D01*
X165977331Y-125108796D01*
X166092546Y-125022546D01*
X166178796Y-124907331D01*
X166229091Y-124772483D01*
X166235500Y-124712873D01*
X166235499Y-121847128D01*
X166229091Y-121787517D01*
X166220265Y-121763854D01*
X166178797Y-121652671D01*
X166178796Y-121652669D01*
X166112651Y-121564311D01*
X166088234Y-121498847D01*
X166103085Y-121430574D01*
X166112651Y-121415689D01*
X166178796Y-121327331D01*
X166229091Y-121192483D01*
X166235500Y-121132873D01*
X166235499Y-118267128D01*
X166229091Y-118207517D01*
X166178796Y-118072669D01*
X166178795Y-118072668D01*
X166178793Y-118072664D01*
X166092547Y-117957455D01*
X166092544Y-117957452D01*
X165977335Y-117871206D01*
X165977328Y-117871202D01*
X165842482Y-117820908D01*
X165842483Y-117820908D01*
X165782883Y-117814501D01*
X165782881Y-117814500D01*
X165782873Y-117814500D01*
X165782864Y-117814500D01*
X164217129Y-117814500D01*
X164217123Y-117814501D01*
X164157516Y-117820908D01*
X164022671Y-117871202D01*
X164022664Y-117871206D01*
X163907455Y-117957452D01*
X163907452Y-117957455D01*
X163821206Y-118072664D01*
X163821202Y-118072671D01*
X163770908Y-118207517D01*
X163764501Y-118267116D01*
X163764501Y-118267123D01*
X163764500Y-118267135D01*
X157000500Y-118267135D01*
X157000500Y-109467135D01*
X163764500Y-109467135D01*
X163764500Y-112332870D01*
X163764501Y-112332876D01*
X163770908Y-112392483D01*
X163821202Y-112527328D01*
X163821203Y-112527330D01*
X163887349Y-112615689D01*
X163911766Y-112681153D01*
X163896915Y-112749426D01*
X163887349Y-112764311D01*
X163821203Y-112852669D01*
X163821202Y-112852671D01*
X163770908Y-112987517D01*
X163764501Y-113047116D01*
X163764501Y-113047123D01*
X163764500Y-113047135D01*
X163764500Y-115912870D01*
X163764501Y-115912876D01*
X163770908Y-115972483D01*
X163821202Y-116107328D01*
X163821206Y-116107335D01*
X163907452Y-116222544D01*
X163907455Y-116222547D01*
X164022664Y-116308793D01*
X164022671Y-116308797D01*
X164157517Y-116359091D01*
X164157516Y-116359091D01*
X164164444Y-116359835D01*
X164217127Y-116365500D01*
X165782872Y-116365499D01*
X165842483Y-116359091D01*
X165977331Y-116308796D01*
X166092546Y-116222546D01*
X166178796Y-116107331D01*
X166229091Y-115972483D01*
X166235500Y-115912873D01*
X166235499Y-113047128D01*
X166229091Y-112987517D01*
X166225801Y-112978697D01*
X166178797Y-112852671D01*
X166178796Y-112852669D01*
X166176798Y-112850000D01*
X166112650Y-112764310D01*
X166088234Y-112698847D01*
X166103085Y-112630574D01*
X166112651Y-112615689D01*
X166178796Y-112527331D01*
X166229091Y-112392483D01*
X166235500Y-112332873D01*
X166235499Y-109467128D01*
X166229091Y-109407517D01*
X166196935Y-109321303D01*
X166178797Y-109272671D01*
X166178793Y-109272664D01*
X166092547Y-109157455D01*
X166092544Y-109157452D01*
X165977335Y-109071206D01*
X165977328Y-109071202D01*
X165842482Y-109020908D01*
X165842483Y-109020908D01*
X165782883Y-109014501D01*
X165782881Y-109014500D01*
X165782873Y-109014500D01*
X165782864Y-109014500D01*
X164217129Y-109014500D01*
X164217123Y-109014501D01*
X164157516Y-109020908D01*
X164022671Y-109071202D01*
X164022664Y-109071206D01*
X163907455Y-109157452D01*
X163907452Y-109157455D01*
X163821206Y-109272664D01*
X163821202Y-109272671D01*
X163770908Y-109407517D01*
X163764501Y-109467116D01*
X163764501Y-109467123D01*
X163764500Y-109467135D01*
X157000500Y-109467135D01*
X157000500Y-105662608D01*
X156966392Y-105535314D01*
X156900500Y-105421186D01*
X156807314Y-105328000D01*
X156750250Y-105295054D01*
X156693187Y-105262108D01*
X156629539Y-105245054D01*
X156565892Y-105228000D01*
X156565891Y-105228000D01*
X154886500Y-105228000D01*
X154819461Y-105208315D01*
X154773706Y-105155511D01*
X154762500Y-105104000D01*
X154762499Y-103592074D01*
X154767838Y-103556079D01*
X154786024Y-103496132D01*
X154805341Y-103300000D01*
X154786024Y-103103868D01*
X154767839Y-103043920D01*
X154762499Y-103007924D01*
X154762499Y-101180629D01*
X154762498Y-101180623D01*
X154762497Y-101180616D01*
X154756091Y-101121017D01*
X154705796Y-100986169D01*
X154705795Y-100986168D01*
X154705793Y-100986164D01*
X154619547Y-100870955D01*
X154619544Y-100870952D01*
X154504335Y-100784706D01*
X154504328Y-100784702D01*
X154369482Y-100734408D01*
X154369483Y-100734408D01*
X154309883Y-100728001D01*
X154309881Y-100728000D01*
X154309873Y-100728000D01*
X154309864Y-100728000D01*
X152690129Y-100728000D01*
X152690123Y-100728001D01*
X152630516Y-100734408D01*
X152495671Y-100784702D01*
X152495664Y-100784706D01*
X152380455Y-100870952D01*
X152380453Y-100870954D01*
X152348952Y-100913033D01*
X152293017Y-100954903D01*
X152223325Y-100959885D01*
X152162003Y-100926399D01*
X152150420Y-100913031D01*
X152119186Y-100871309D01*
X152004093Y-100785149D01*
X152004086Y-100785145D01*
X151869379Y-100734903D01*
X151869372Y-100734901D01*
X151809844Y-100728500D01*
X151254466Y-100728500D01*
X151187427Y-100708815D01*
X151141672Y-100656011D01*
X151131728Y-100586853D01*
X151160753Y-100523297D01*
X151219531Y-100485523D01*
X151234057Y-100482191D01*
X151369614Y-100459571D01*
X151604810Y-100378828D01*
X151823509Y-100260474D01*
X152019744Y-100107738D01*
X152188164Y-99924785D01*
X152324173Y-99716607D01*
X152424063Y-99488881D01*
X152485108Y-99247821D01*
X152489069Y-99200018D01*
X152505643Y-99000005D01*
X152505643Y-98999994D01*
X152485109Y-98752187D01*
X152485107Y-98752175D01*
X152424063Y-98511118D01*
X152324173Y-98283393D01*
X152188166Y-98075217D01*
X152166557Y-98051744D01*
X152019744Y-97892262D01*
X151823509Y-97739526D01*
X151823507Y-97739525D01*
X151823506Y-97739524D01*
X151604811Y-97621172D01*
X151604802Y-97621169D01*
X151369616Y-97540429D01*
X151124335Y-97499500D01*
X150875665Y-97499500D01*
X150630383Y-97540429D01*
X150395197Y-97621169D01*
X150395188Y-97621172D01*
X150176493Y-97739524D01*
X149980257Y-97892261D01*
X149980256Y-97892262D01*
X149811836Y-98075215D01*
X149728309Y-98203063D01*
X149675162Y-98248419D01*
X149605931Y-98257843D01*
X149542595Y-98228341D01*
X149505264Y-98169281D01*
X149500500Y-98135241D01*
X149500500Y-95965782D01*
X149520185Y-95898743D01*
X149536819Y-95878101D01*
X150878101Y-94536819D01*
X150939424Y-94503334D01*
X150965782Y-94500500D01*
X151124335Y-94500500D01*
X151369614Y-94459571D01*
X151604810Y-94378828D01*
X151823509Y-94260474D01*
X152019744Y-94107738D01*
X152058327Y-94065826D01*
X152081626Y-94040517D01*
X152141513Y-94004526D01*
X152172855Y-94000500D01*
X154534218Y-94000500D01*
X154601257Y-94020185D01*
X154621899Y-94036819D01*
X157460657Y-96875577D01*
X157494142Y-96936900D01*
X157496553Y-96973495D01*
X157494358Y-96999994D01*
X157494357Y-97000002D01*
X157494357Y-97000005D01*
X157514890Y-97247812D01*
X157514892Y-97247824D01*
X157575936Y-97488881D01*
X157675826Y-97716606D01*
X157811833Y-97924782D01*
X157811836Y-97924785D01*
X157980256Y-98107738D01*
X158176491Y-98260474D01*
X158176493Y-98260475D01*
X158394332Y-98378364D01*
X158395190Y-98378828D01*
X158614141Y-98453994D01*
X158628964Y-98459083D01*
X158630386Y-98459571D01*
X158875665Y-98500500D01*
X159124335Y-98500500D01*
X159369614Y-98459571D01*
X159604810Y-98378828D01*
X159823509Y-98260474D01*
X160019744Y-98107738D01*
X160188164Y-97924785D01*
X160324173Y-97716607D01*
X160424063Y-97488881D01*
X160485108Y-97247821D01*
X160489651Y-97192993D01*
X160505643Y-97000005D01*
X160505643Y-96999994D01*
X195494859Y-96999994D01*
X195494859Y-97000005D01*
X195515385Y-97247729D01*
X195515387Y-97247738D01*
X195576412Y-97488717D01*
X195676266Y-97716364D01*
X195776564Y-97869882D01*
X196517037Y-97129409D01*
X196534075Y-97192993D01*
X196599901Y-97307007D01*
X196692993Y-97400099D01*
X196807007Y-97465925D01*
X196870590Y-97482962D01*
X196129942Y-98223609D01*
X196176768Y-98260055D01*
X196176770Y-98260056D01*
X196395385Y-98378364D01*
X196395396Y-98378369D01*
X196630506Y-98459083D01*
X196875707Y-98500000D01*
X197124293Y-98500000D01*
X197369493Y-98459083D01*
X197604603Y-98378369D01*
X197604614Y-98378364D01*
X197823228Y-98260057D01*
X197823231Y-98260055D01*
X197870056Y-98223609D01*
X197129409Y-97482962D01*
X197192993Y-97465925D01*
X197307007Y-97400099D01*
X197400099Y-97307007D01*
X197465925Y-97192993D01*
X197482962Y-97129410D01*
X198223434Y-97869882D01*
X198323731Y-97716369D01*
X198423587Y-97488717D01*
X198484612Y-97247738D01*
X198484614Y-97247729D01*
X198505141Y-97000005D01*
X198505141Y-96999994D01*
X198484614Y-96752270D01*
X198484612Y-96752261D01*
X198423587Y-96511282D01*
X198323731Y-96283630D01*
X198223434Y-96130116D01*
X197482962Y-96870589D01*
X197465925Y-96807007D01*
X197400099Y-96692993D01*
X197307007Y-96599901D01*
X197192993Y-96534075D01*
X197129410Y-96517037D01*
X197870057Y-95776390D01*
X197870056Y-95776389D01*
X197823229Y-95739943D01*
X197604614Y-95621635D01*
X197604603Y-95621630D01*
X197369493Y-95540916D01*
X197124293Y-95500000D01*
X196875707Y-95500000D01*
X196630506Y-95540916D01*
X196395396Y-95621630D01*
X196395390Y-95621632D01*
X196176761Y-95739949D01*
X196129942Y-95776388D01*
X196129942Y-95776390D01*
X196870590Y-96517037D01*
X196807007Y-96534075D01*
X196692993Y-96599901D01*
X196599901Y-96692993D01*
X196534075Y-96807007D01*
X196517037Y-96870589D01*
X195776564Y-96130116D01*
X195676267Y-96283632D01*
X195576412Y-96511282D01*
X195515387Y-96752261D01*
X195515385Y-96752270D01*
X195494859Y-96999994D01*
X160505643Y-96999994D01*
X160485109Y-96752187D01*
X160485107Y-96752175D01*
X160424063Y-96511118D01*
X160324173Y-96283393D01*
X160188166Y-96075217D01*
X160111407Y-95991835D01*
X160019744Y-95892262D01*
X159823509Y-95739526D01*
X159823507Y-95739525D01*
X159823506Y-95739524D01*
X159604811Y-95621172D01*
X159604802Y-95621169D01*
X159369616Y-95540429D01*
X159124335Y-95499500D01*
X158965783Y-95499500D01*
X158898744Y-95479815D01*
X158878102Y-95463181D01*
X155784209Y-92369289D01*
X155784206Y-92369285D01*
X155784206Y-92369286D01*
X155777139Y-92362219D01*
X155777139Y-92362218D01*
X155637782Y-92222861D01*
X155637781Y-92222860D01*
X155637780Y-92222859D01*
X155473920Y-92113371D01*
X155473911Y-92113366D01*
X155381805Y-92075215D01*
X155345165Y-92060038D01*
X155291836Y-92037949D01*
X155291832Y-92037948D01*
X155291828Y-92037946D01*
X155195188Y-92018724D01*
X155098544Y-91999500D01*
X155098541Y-91999500D01*
X152172855Y-91999500D01*
X152105816Y-91979815D01*
X152081626Y-91959483D01*
X152019747Y-91892265D01*
X152019744Y-91892262D01*
X151823506Y-91739524D01*
X151604811Y-91621172D01*
X151604802Y-91621169D01*
X151593477Y-91617281D01*
X151536462Y-91576896D01*
X151510331Y-91512096D01*
X151523382Y-91443456D01*
X151571471Y-91392768D01*
X151593477Y-91382719D01*
X151597235Y-91381428D01*
X151604810Y-91378828D01*
X151823509Y-91260474D01*
X152019744Y-91107738D01*
X152188164Y-90924785D01*
X152324173Y-90716607D01*
X152424063Y-90488881D01*
X152485108Y-90247821D01*
X152485109Y-90247812D01*
X152505643Y-90000005D01*
X152505643Y-89999994D01*
X152485109Y-89752187D01*
X152485107Y-89752175D01*
X152424063Y-89511118D01*
X152324173Y-89283393D01*
X152188166Y-89075217D01*
X152166557Y-89051744D01*
X152019744Y-88892262D01*
X151823509Y-88739526D01*
X151823507Y-88739525D01*
X151823506Y-88739524D01*
X151604811Y-88621172D01*
X151604802Y-88621169D01*
X151593477Y-88617281D01*
X151536462Y-88576896D01*
X151510331Y-88512096D01*
X151523382Y-88443456D01*
X151571471Y-88392768D01*
X151593477Y-88382719D01*
X151597235Y-88381428D01*
X151604810Y-88378828D01*
X151823509Y-88260474D01*
X152019744Y-88107738D01*
X152044194Y-88081177D01*
X152081626Y-88040517D01*
X152141513Y-88004526D01*
X152172855Y-88000500D01*
X155098542Y-88000500D01*
X155117870Y-87996655D01*
X155195188Y-87981275D01*
X155291836Y-87962051D01*
X155345165Y-87939961D01*
X155473914Y-87886632D01*
X155637782Y-87777139D01*
X155777139Y-87637782D01*
X155777139Y-87637780D01*
X155787347Y-87627573D01*
X155787348Y-87627570D01*
X158878102Y-84536819D01*
X158939425Y-84503334D01*
X158965783Y-84500500D01*
X159124335Y-84500500D01*
X159369614Y-84459571D01*
X159604810Y-84378828D01*
X159823509Y-84260474D01*
X160019744Y-84107738D01*
X160188164Y-83924785D01*
X160324173Y-83716607D01*
X160424063Y-83488881D01*
X160485108Y-83247821D01*
X160485109Y-83247812D01*
X160505643Y-83000005D01*
X160505643Y-82999994D01*
X195494357Y-82999994D01*
X195494357Y-83000005D01*
X195514890Y-83247812D01*
X195514892Y-83247824D01*
X195575936Y-83488881D01*
X195675826Y-83716606D01*
X195811833Y-83924782D01*
X195811836Y-83924785D01*
X195980256Y-84107738D01*
X196176491Y-84260474D01*
X196395190Y-84378828D01*
X196630386Y-84459571D01*
X196875665Y-84500500D01*
X197124335Y-84500500D01*
X197369614Y-84459571D01*
X197604810Y-84378828D01*
X197823509Y-84260474D01*
X198019744Y-84107738D01*
X198188164Y-83924785D01*
X198324173Y-83716607D01*
X198424063Y-83488881D01*
X198485108Y-83247821D01*
X198485109Y-83247812D01*
X198505643Y-83000005D01*
X198505643Y-82999994D01*
X198485109Y-82752187D01*
X198485107Y-82752175D01*
X198424063Y-82511118D01*
X198324173Y-82283393D01*
X198188166Y-82075217D01*
X198166557Y-82051744D01*
X198019744Y-81892262D01*
X197823509Y-81739526D01*
X197823507Y-81739525D01*
X197823506Y-81739524D01*
X197604811Y-81621172D01*
X197604802Y-81621169D01*
X197369616Y-81540429D01*
X197124335Y-81499500D01*
X196875665Y-81499500D01*
X196630383Y-81540429D01*
X196395197Y-81621169D01*
X196395188Y-81621172D01*
X196176493Y-81739524D01*
X195980257Y-81892261D01*
X195811833Y-82075217D01*
X195675826Y-82283393D01*
X195575936Y-82511118D01*
X195514892Y-82752175D01*
X195514890Y-82752187D01*
X195494357Y-82999994D01*
X160505643Y-82999994D01*
X160485109Y-82752187D01*
X160485107Y-82752175D01*
X160424063Y-82511118D01*
X160324173Y-82283393D01*
X160188166Y-82075217D01*
X160166557Y-82051744D01*
X160019744Y-81892262D01*
X159823509Y-81739526D01*
X159823507Y-81739525D01*
X159823506Y-81739524D01*
X159604811Y-81621172D01*
X159604802Y-81621169D01*
X159369616Y-81540429D01*
X159124335Y-81499500D01*
X158875665Y-81499500D01*
X158630383Y-81540429D01*
X158395197Y-81621169D01*
X158395188Y-81621172D01*
X158176493Y-81739524D01*
X157980257Y-81892261D01*
X157811833Y-82075217D01*
X157675826Y-82283393D01*
X157575936Y-82511118D01*
X157514892Y-82752175D01*
X157514890Y-82752187D01*
X157494357Y-82999994D01*
X157494357Y-83000000D01*
X157496553Y-83026502D01*
X157482470Y-83094938D01*
X157460657Y-83124421D01*
X154621899Y-85963181D01*
X154560576Y-85996666D01*
X154534218Y-85999500D01*
X153714782Y-85999500D01*
X153647743Y-85979815D01*
X153601988Y-85927011D01*
X153592044Y-85857853D01*
X153621069Y-85794297D01*
X153627101Y-85787819D01*
X153951738Y-85463181D01*
X154137778Y-85277141D01*
X154137782Y-85277139D01*
X154277139Y-85137782D01*
X154386632Y-84973914D01*
X154462051Y-84791835D01*
X154500500Y-84598541D01*
X154500500Y-79371232D01*
X154520185Y-79304193D01*
X154550187Y-79271968D01*
X154619546Y-79220046D01*
X154705796Y-79104831D01*
X154756091Y-78969983D01*
X154762500Y-78910373D01*
X154762499Y-74986999D01*
X154782184Y-74919961D01*
X154834988Y-74874206D01*
X154886499Y-74863000D01*
X156565890Y-74863000D01*
X156565892Y-74863000D01*
X156693186Y-74828892D01*
X156807314Y-74763000D01*
X156900500Y-74669814D01*
X156966392Y-74555686D01*
X157000500Y-74428392D01*
X157000500Y-63299995D01*
X190314953Y-63299995D01*
X190314953Y-63300004D01*
X190335113Y-63569026D01*
X190335113Y-63569028D01*
X190395142Y-63832033D01*
X190395148Y-63832052D01*
X190493709Y-64083181D01*
X190493708Y-64083181D01*
X190628602Y-64316822D01*
X190682294Y-64384151D01*
X191404152Y-63662292D01*
X191411049Y-63678942D01*
X191498599Y-63809970D01*
X191610030Y-63921401D01*
X191741058Y-64008951D01*
X191757705Y-64015846D01*
X191034848Y-64738702D01*
X191217483Y-64863220D01*
X191217485Y-64863221D01*
X191460539Y-64980269D01*
X191460537Y-64980269D01*
X191718337Y-65059790D01*
X191718343Y-65059792D01*
X191985101Y-65099999D01*
X191985110Y-65100000D01*
X192254890Y-65100000D01*
X192254898Y-65099999D01*
X192521656Y-65059792D01*
X192521662Y-65059790D01*
X192779458Y-64980270D01*
X192997927Y-64875061D01*
X193066869Y-64863709D01*
X193131003Y-64891431D01*
X193169969Y-64949426D01*
X193171394Y-65019281D01*
X193167158Y-65032081D01*
X193082583Y-65247578D01*
X193082578Y-65247590D01*
X193082576Y-65247597D01*
X193024197Y-65503374D01*
X193024196Y-65503379D01*
X193004592Y-65764995D01*
X193004592Y-65765004D01*
X193024196Y-66026620D01*
X193024197Y-66026625D01*
X193082576Y-66282402D01*
X193082582Y-66282421D01*
X193178432Y-66526643D01*
X193284256Y-66709937D01*
X193300729Y-66777837D01*
X193277876Y-66843864D01*
X193222955Y-66887055D01*
X193153402Y-66893696D01*
X193107017Y-66874390D01*
X193022526Y-66816784D01*
X193022516Y-66816778D01*
X192779460Y-66699730D01*
X192779462Y-66699730D01*
X192521662Y-66620209D01*
X192521656Y-66620207D01*
X192254898Y-66580000D01*
X191985101Y-66580000D01*
X191718343Y-66620207D01*
X191718337Y-66620209D01*
X191460538Y-66699730D01*
X191217485Y-66816778D01*
X191217476Y-66816783D01*
X191034848Y-66941296D01*
X191757705Y-67664153D01*
X191741058Y-67671049D01*
X191610030Y-67758599D01*
X191498599Y-67870030D01*
X191411049Y-68001058D01*
X191404153Y-68017706D01*
X190682295Y-67295848D01*
X190628600Y-67363180D01*
X190493709Y-67596818D01*
X190395148Y-67847947D01*
X190395142Y-67847966D01*
X190335113Y-68110971D01*
X190335113Y-68110973D01*
X190314953Y-68379995D01*
X190314953Y-68380004D01*
X190335113Y-68649026D01*
X190335113Y-68649028D01*
X190395142Y-68912033D01*
X190395148Y-68912052D01*
X190493709Y-69163181D01*
X190493708Y-69163181D01*
X190628602Y-69396822D01*
X190682294Y-69464151D01*
X191404152Y-68742292D01*
X191411049Y-68758942D01*
X191498599Y-68889970D01*
X191610030Y-69001401D01*
X191741058Y-69088951D01*
X191757705Y-69095846D01*
X191034848Y-69818702D01*
X191217483Y-69943220D01*
X191217485Y-69943221D01*
X191460539Y-70060269D01*
X191460537Y-70060269D01*
X191718337Y-70139790D01*
X191718343Y-70139792D01*
X191985101Y-70179999D01*
X191985110Y-70180000D01*
X192254890Y-70180000D01*
X192254898Y-70179999D01*
X192521656Y-70139792D01*
X192521662Y-70139790D01*
X192779461Y-70060269D01*
X193022521Y-69943218D01*
X193205150Y-69818702D01*
X192482294Y-69095846D01*
X192498942Y-69088951D01*
X192629970Y-69001401D01*
X192741401Y-68889970D01*
X192828951Y-68758942D01*
X192835846Y-68742294D01*
X193557703Y-69464151D01*
X193557704Y-69464150D01*
X193611393Y-69396828D01*
X193611400Y-69396817D01*
X193746290Y-69163181D01*
X193844851Y-68912052D01*
X193844857Y-68912033D01*
X193904886Y-68649028D01*
X193904886Y-68649026D01*
X193925047Y-68380004D01*
X193925047Y-68379995D01*
X193904886Y-68110973D01*
X193904886Y-68110971D01*
X193844857Y-67847966D01*
X193844851Y-67847947D01*
X193746290Y-67596818D01*
X193746291Y-67596818D01*
X193632961Y-67400527D01*
X193616488Y-67332627D01*
X193639340Y-67266600D01*
X193694261Y-67223410D01*
X193763815Y-67216768D01*
X193810197Y-67236071D01*
X193882296Y-67285228D01*
X193882301Y-67285230D01*
X193882302Y-67285231D01*
X193882303Y-67285232D01*
X193980721Y-67332627D01*
X194118673Y-67399061D01*
X194118674Y-67399061D01*
X194118677Y-67399063D01*
X194369385Y-67476396D01*
X194628818Y-67515500D01*
X194891182Y-67515500D01*
X195150615Y-67476396D01*
X195401323Y-67399063D01*
X195436056Y-67382336D01*
X195504994Y-67370985D01*
X195569128Y-67398706D01*
X195608094Y-67456701D01*
X195609520Y-67526556D01*
X195597243Y-67556056D01*
X195573708Y-67596820D01*
X195475148Y-67847947D01*
X195475142Y-67847966D01*
X195415113Y-68110971D01*
X195415113Y-68110973D01*
X195394953Y-68379995D01*
X195394953Y-68380004D01*
X195415113Y-68649026D01*
X195415113Y-68649028D01*
X195475142Y-68912033D01*
X195475148Y-68912052D01*
X195573709Y-69163181D01*
X195573708Y-69163181D01*
X195708602Y-69396822D01*
X195762294Y-69464151D01*
X196484152Y-68742293D01*
X196491049Y-68758942D01*
X196578599Y-68889970D01*
X196690030Y-69001401D01*
X196821058Y-69088951D01*
X196837705Y-69095846D01*
X196114848Y-69818702D01*
X196297483Y-69943220D01*
X196297485Y-69943221D01*
X196540539Y-70060269D01*
X196540537Y-70060269D01*
X196798337Y-70139790D01*
X196798343Y-70139792D01*
X197065101Y-70179999D01*
X197065110Y-70180000D01*
X197334890Y-70180000D01*
X197334898Y-70179999D01*
X197601656Y-70139792D01*
X197601662Y-70139790D01*
X197859461Y-70060269D01*
X198102521Y-69943218D01*
X198285150Y-69818702D01*
X197562294Y-69095846D01*
X197578942Y-69088951D01*
X197709970Y-69001401D01*
X197821401Y-68889970D01*
X197908951Y-68758942D01*
X197915846Y-68742294D01*
X198637703Y-69464151D01*
X198637704Y-69464150D01*
X198691393Y-69396828D01*
X198691400Y-69396817D01*
X198826290Y-69163181D01*
X198924851Y-68912052D01*
X198924857Y-68912033D01*
X198984886Y-68649028D01*
X198984886Y-68649026D01*
X199005047Y-68380004D01*
X199005047Y-68379995D01*
X198984886Y-68110973D01*
X198984886Y-68110971D01*
X198924857Y-67847966D01*
X198924851Y-67847947D01*
X198826290Y-67596818D01*
X198826291Y-67596818D01*
X198691397Y-67363177D01*
X198637704Y-67295847D01*
X197915846Y-68017705D01*
X197908951Y-68001058D01*
X197821401Y-67870030D01*
X197709970Y-67758599D01*
X197578942Y-67671049D01*
X197562293Y-67664153D01*
X198285150Y-66941296D01*
X198102517Y-66816779D01*
X198102516Y-66816778D01*
X197859460Y-66699730D01*
X197859462Y-66699730D01*
X197601662Y-66620209D01*
X197601656Y-66620207D01*
X197334898Y-66580000D01*
X197065101Y-66580000D01*
X196798343Y-66620207D01*
X196798337Y-66620209D01*
X196540544Y-66699728D01*
X196488711Y-66724690D01*
X196419769Y-66736041D01*
X196355635Y-66708318D01*
X196316670Y-66650323D01*
X196315245Y-66580468D01*
X196327522Y-66550970D01*
X196341568Y-66526643D01*
X196437420Y-66282416D01*
X196495802Y-66026630D01*
X196515408Y-65765000D01*
X196495802Y-65503370D01*
X196437420Y-65247584D01*
X196397923Y-65146949D01*
X196391755Y-65077353D01*
X196424193Y-65015470D01*
X196484938Y-64980947D01*
X196549902Y-64983157D01*
X196798337Y-65059790D01*
X196798343Y-65059792D01*
X197065101Y-65099999D01*
X197065110Y-65100000D01*
X197334890Y-65100000D01*
X197334898Y-65099999D01*
X197601656Y-65059792D01*
X197601662Y-65059790D01*
X197859461Y-64980269D01*
X198102521Y-64863218D01*
X198285150Y-64738702D01*
X197562294Y-64015846D01*
X197578942Y-64008951D01*
X197709970Y-63921401D01*
X197821401Y-63809970D01*
X197908951Y-63678942D01*
X197915846Y-63662294D01*
X198637703Y-64384151D01*
X198637704Y-64384150D01*
X198691393Y-64316828D01*
X198691400Y-64316817D01*
X198826290Y-64083181D01*
X198924851Y-63832052D01*
X198924857Y-63832033D01*
X198984886Y-63569028D01*
X198984886Y-63569026D01*
X199005047Y-63300004D01*
X199005047Y-63299995D01*
X198984886Y-63030973D01*
X198984886Y-63030971D01*
X198924857Y-62767966D01*
X198924851Y-62767947D01*
X198826290Y-62516818D01*
X198826291Y-62516818D01*
X198691397Y-62283177D01*
X198637704Y-62215847D01*
X197915846Y-62937705D01*
X197908951Y-62921058D01*
X197821401Y-62790030D01*
X197709970Y-62678599D01*
X197578942Y-62591049D01*
X197562294Y-62584153D01*
X198285150Y-61861296D01*
X198102517Y-61736779D01*
X198102516Y-61736778D01*
X197859460Y-61619730D01*
X197859462Y-61619730D01*
X197601662Y-61540209D01*
X197601656Y-61540207D01*
X197334898Y-61500000D01*
X197065101Y-61500000D01*
X196798343Y-61540207D01*
X196798337Y-61540209D01*
X196540538Y-61619730D01*
X196297485Y-61736778D01*
X196297476Y-61736783D01*
X196114848Y-61861296D01*
X196837705Y-62584153D01*
X196821058Y-62591049D01*
X196690030Y-62678599D01*
X196578599Y-62790030D01*
X196491049Y-62921058D01*
X196484153Y-62937706D01*
X195762295Y-62215848D01*
X195708600Y-62283180D01*
X195573709Y-62516818D01*
X195475148Y-62767947D01*
X195475142Y-62767966D01*
X195415113Y-63030971D01*
X195415113Y-63030973D01*
X195394953Y-63299995D01*
X195394953Y-63300004D01*
X195415113Y-63569026D01*
X195415113Y-63569028D01*
X195475142Y-63832033D01*
X195475148Y-63832052D01*
X195524706Y-63958324D01*
X195530875Y-64027921D01*
X195498437Y-64089804D01*
X195437692Y-64124327D01*
X195372729Y-64122117D01*
X195267973Y-64089804D01*
X195150623Y-64053606D01*
X195150619Y-64053605D01*
X195150615Y-64053604D01*
X195025823Y-64034794D01*
X194891187Y-64014500D01*
X194891182Y-64014500D01*
X194628818Y-64014500D01*
X194628812Y-64014500D01*
X194467247Y-64038853D01*
X194369385Y-64053604D01*
X194369382Y-64053605D01*
X194369376Y-64053606D01*
X194118673Y-64130938D01*
X193921052Y-64226107D01*
X193852111Y-64237459D01*
X193787976Y-64209736D01*
X193749011Y-64151741D01*
X193747586Y-64081886D01*
X193751823Y-64069085D01*
X193844851Y-63832052D01*
X193844857Y-63832033D01*
X193904886Y-63569028D01*
X193904886Y-63569026D01*
X193925047Y-63300004D01*
X193925047Y-63299995D01*
X193904886Y-63030973D01*
X193904886Y-63030971D01*
X193844857Y-62767966D01*
X193844851Y-62767947D01*
X193746290Y-62516818D01*
X193746291Y-62516818D01*
X193611397Y-62283177D01*
X193557704Y-62215847D01*
X192835846Y-62937705D01*
X192828951Y-62921058D01*
X192741401Y-62790030D01*
X192629970Y-62678599D01*
X192498942Y-62591049D01*
X192482294Y-62584153D01*
X193205150Y-61861296D01*
X193022517Y-61736779D01*
X193022516Y-61736778D01*
X192779460Y-61619730D01*
X192779462Y-61619730D01*
X192521662Y-61540209D01*
X192521656Y-61540207D01*
X192254898Y-61500000D01*
X191985101Y-61500000D01*
X191718343Y-61540207D01*
X191718337Y-61540209D01*
X191460538Y-61619730D01*
X191217485Y-61736778D01*
X191217476Y-61736783D01*
X191034848Y-61861296D01*
X191757705Y-62584153D01*
X191741058Y-62591049D01*
X191610030Y-62678599D01*
X191498599Y-62790030D01*
X191411049Y-62921058D01*
X191404153Y-62937706D01*
X190682295Y-62215848D01*
X190628600Y-62283180D01*
X190493709Y-62516818D01*
X190395148Y-62767947D01*
X190395142Y-62767966D01*
X190335113Y-63030971D01*
X190335113Y-63030973D01*
X190314953Y-63299995D01*
X157000500Y-63299995D01*
X157000500Y-56296608D01*
X156966392Y-56169314D01*
X156900500Y-56055186D01*
X156807314Y-55962000D01*
X156750250Y-55929054D01*
X156693187Y-55896108D01*
X156629539Y-55879054D01*
X156565892Y-55862000D01*
X145565892Y-55862000D01*
X145434108Y-55862000D01*
X145306812Y-55896108D01*
X145192686Y-55962000D01*
X145192683Y-55962002D01*
X145099502Y-56055183D01*
X145099500Y-56055186D01*
X145033608Y-56169312D01*
X144999500Y-56296608D01*
X100500500Y-56296608D01*
X100500500Y-50624500D01*
X100520185Y-50557461D01*
X100572989Y-50511706D01*
X100624500Y-50500500D01*
X199375500Y-50500500D01*
X199442539Y-50520185D01*
G37*
%TD.AperFunction*%
%TD*%
M02*
