M48
; DRILL file {KiCad 9.0.1} date 2025-04-20T18:42:35-0400
; FORMAT={-:-/ absolute / metric / decimal}
; #@! TF.CreationDate,2025-04-20T18:42:35-04:00
; #@! TF.GenerationSoftware,Kicad,Pcbnew,9.0.1
; #@! TF.FileFunction,Plated,1,2,PTH
FMAT,2
METRIC
; #@! TA.AperFunction,Plated,PTH,ViaDrill
T1C0.500
; #@! TA.AperFunction,Plated,PTH,ComponentDrill
T2C0.800
; #@! TA.AperFunction,Plated,PTH,ComponentDrill
T3C1.000
; #@! TA.AperFunction,Plated,PTH,ComponentDrill
T4C1.100
; #@! TA.AperFunction,Plated,PTH,ComponentDrill
T5C1.200
; #@! TA.AperFunction,Plated,PTH,ComponentDrill
T6C1.500
; #@! TA.AperFunction,Plated,PTH,ComponentDrill
T7C1.600
; #@! TA.AperFunction,Plated,PTH,ComponentDrill
T8C4.300
%
G90
G05
T1
X129.0Y-97.9
X131.0Y-106.5
X131.295Y-117.5
X133.1Y-116.3
X133.15Y-88.65
X133.2Y-82.1
X133.6Y-120.7
X134.25Y-104.35
X135.7Y-88.65
X136.0Y-76.8
X138.4Y-119.3
X140.3Y-107.6
X141.25Y-97.3
X141.4Y-79.9
X141.75Y-100.7
X143.2Y-68.3
X143.3Y-120.95
X144.5Y-122.2
X144.8Y-112.0
X144.8Y-115.4
X145.1Y-79.3
X145.3Y-82.75
X146.6Y-125.2
X148.7Y-90.0
X149.3Y-65.85
X149.35Y-100.3
X149.6Y-76.0
X149.6Y-101.95
X149.6Y-113.45
X150.0Y-123.4
X150.15Y-103.6
X150.8Y-99.7
X150.9Y-101.95
X151.3Y-78.3
X151.5Y-130.25
X151.7Y-84.85
X152.05Y-77.2
X152.05Y-79.4
X152.1Y-100.3
X152.15Y-133.2
X152.2Y-101.95
X152.45Y-94.75
X153.0Y-97.8
X153.2Y-56.0
X154.55Y-81.75
X154.65Y-83.7
X154.65Y-96.2
X156.15Y-137.3
X156.5Y-77.2
X156.5Y-78.491
X156.5Y-79.9
X156.5Y-81.7
X156.5Y-99.0
X156.5Y-100.4
X156.5Y-103.35
X156.9Y-85.4
X156.9Y-94.6
X157.3Y-83.3
X157.8Y-98.8
X158.9Y-98.8
X159.0Y-100.4
X159.0Y-101.6
X159.0Y-102.8
X159.6Y-88.1
X159.7Y-91.9
X160.0Y-56.1
X160.15Y-133.2
X160.6Y-85.3
X160.6Y-96.0
X160.7Y-81.5
X160.7Y-87.0
X160.8Y-101.3
X160.85Y-92.6
X160.85Y-103.3
X160.95Y-77.2
X162.4Y-97.7
X162.5Y-77.2
X163.1Y-83.6
X163.5Y-65.8
X163.5Y-123.2
X163.55Y-105.65
X163.55Y-113.55
X163.65Y-90.0
X163.75Y-134.1
X163.9Y-130.4
X164.3Y-81.0
X164.3Y-96.2
X164.4Y-83.8
X164.6Y-88.1
X164.6Y-91.9
X164.6Y-99.3
X164.8Y-90.0
X166.0Y-90.0
X168.2Y-129.8
X168.4Y-83.3
X168.4Y-87.9
X168.9Y-90.5
X168.9Y-92.2
X168.9Y-96.6
X168.9Y-98.4
X169.4Y-105.6
X169.4Y-118.3
X169.7Y-112.9
X170.2Y-85.6
X170.2Y-94.4
X170.2Y-134.8
X174.6Y-134.8
X180.4Y-116.3
X184.2Y-90.1
X186.5Y-93.3
X187.7Y-78.1
X187.7Y-81.9
X188.0Y-88.9
X191.9Y-77.5
X191.9Y-81.3
X191.9Y-85.0
T2
X132.7Y-100.47
X132.7Y-103.01
X132.7Y-105.55
X134.45Y-72.82
X134.45Y-75.36
X134.45Y-77.9
T3
X127.2Y-87.0
X127.2Y-93.0
X143.2Y-87.0
X143.2Y-93.0
X151.0Y-87.0
X151.0Y-93.0
X162.7Y-79.6
X162.7Y-85.6
X162.7Y-94.4
X162.7Y-100.4
X182.7Y-79.6
X182.7Y-85.6
X182.7Y-94.4
X182.7Y-100.4
T4
X120.9Y-117.5
X120.9Y-120.0
T5
X123.6Y-127.8
X123.6Y-132.8
X143.2Y-90.0
X151.0Y-90.0
T6
X120.59Y-86.965
X187.1Y-69.925
T7
X117.95Y-84.5
X117.95Y-89.58
X123.03Y-84.5
X123.03Y-89.58
X184.46Y-67.46
X184.46Y-72.54
X189.54Y-67.46
X189.54Y-72.54
T8
X120.0Y-59.0
X120.0Y-142.0
X188.0Y-59.0
X188.0Y-142.0
M30
