G04 #@! TF.GenerationSoftware,KiCad,Pcbnew,9.0.1*
G04 #@! TF.CreationDate,2025-05-04T20:25:12-04:00*
G04 #@! TF.ProjectId,t41_2_power_amplifier,7434315f-325f-4706-9f77-65725f616d70,1.5*
G04 #@! TF.SameCoordinates,Original*
G04 #@! TF.FileFunction,Soldermask,Top*
G04 #@! TF.FilePolarity,Negative*
%FSLAX46Y46*%
G04 Gerber Fmt 4.6, Leading zero omitted, Abs format (unit mm)*
G04 Created by KiCad (PCBNEW 9.0.1) date 2025-05-04 20:25:12*
%MOMM*%
%LPD*%
G01*
G04 APERTURE LIST*
G04 Aperture macros list*
%AMRoundRect*
0 Rectangle with rounded corners*
0 $1 Rounding radius*
0 $2 $3 $4 $5 $6 $7 $8 $9 X,Y pos of 4 corners*
0 Add a 4 corners polygon primitive as box body*
4,1,4,$2,$3,$4,$5,$6,$7,$8,$9,$2,$3,0*
0 Add four circle primitives for the rounded corners*
1,1,$1+$1,$2,$3*
1,1,$1+$1,$4,$5*
1,1,$1+$1,$6,$7*
1,1,$1+$1,$8,$9*
0 Add four rect primitives between the rounded corners*
20,1,$1+$1,$2,$3,$4,$5,0*
20,1,$1+$1,$4,$5,$6,$7,0*
20,1,$1+$1,$6,$7,$8,$9,0*
20,1,$1+$1,$8,$9,$2,$3,0*%
G04 Aperture macros list end*
%ADD10RoundRect,0.250000X0.625000X-0.312500X0.625000X0.312500X-0.625000X0.312500X-0.625000X-0.312500X0*%
%ADD11RoundRect,0.150000X0.150000X-0.512500X0.150000X0.512500X-0.150000X0.512500X-0.150000X-0.512500X0*%
%ADD12RoundRect,0.250000X0.325000X0.650000X-0.325000X0.650000X-0.325000X-0.650000X0.325000X-0.650000X0*%
%ADD13RoundRect,0.250000X-1.500000X-0.550000X1.500000X-0.550000X1.500000X0.550000X-1.500000X0.550000X0*%
%ADD14C,1.440000*%
%ADD15RoundRect,0.250000X-0.650000X0.325000X-0.650000X-0.325000X0.650000X-0.325000X0.650000X0.325000X0*%
%ADD16C,2.000000*%
%ADD17C,2.200000*%
%ADD18RoundRect,0.250000X-0.325000X-0.650000X0.325000X-0.650000X0.325000X0.650000X-0.325000X0.650000X0*%
%ADD19RoundRect,0.250000X-0.312500X-0.625000X0.312500X-0.625000X0.312500X0.625000X-0.312500X0.625000X0*%
%ADD20RoundRect,0.250000X0.650000X-0.325000X0.650000X0.325000X-0.650000X0.325000X-0.650000X-0.325000X0*%
%ADD21RoundRect,0.250000X-1.400000X-1.000000X1.400000X-1.000000X1.400000X1.000000X-1.400000X1.000000X0*%
%ADD22RoundRect,0.102000X-0.785000X-1.410000X0.785000X-1.410000X0.785000X1.410000X-0.785000X1.410000X0*%
%ADD23RoundRect,0.250000X-0.550000X1.500000X-0.550000X-1.500000X0.550000X-1.500000X0.550000X1.500000X0*%
%ADD24C,1.905000*%
%ADD25C,7.500000*%
%ADD26RoundRect,0.102000X0.735000X-1.385000X0.735000X1.385000X-0.735000X1.385000X-0.735000X-1.385000X0*%
%ADD27C,2.600000*%
%ADD28C,2.500000*%
%ADD29RoundRect,0.102000X-1.385000X-0.735000X1.385000X-0.735000X1.385000X0.735000X-1.385000X0.735000X0*%
%ADD30RoundRect,0.250001X-0.949999X0.949999X-0.949999X-0.949999X0.949999X-0.949999X0.949999X0.949999X0*%
%ADD31C,2.400000*%
%ADD32C,2.100000*%
%ADD33RoundRect,0.250000X-0.275000X-0.700000X0.275000X-0.700000X0.275000X0.700000X-0.275000X0.700000X0*%
%ADD34RoundRect,0.250000X0.312500X0.625000X-0.312500X0.625000X-0.312500X-0.625000X0.312500X-0.625000X0*%
%ADD35RoundRect,0.250000X-0.625000X0.312500X-0.625000X-0.312500X0.625000X-0.312500X0.625000X0.312500X0*%
G04 APERTURE END LIST*
D10*
X170200000Y-111262500D03*
X170200000Y-108337500D03*
D11*
X140000000Y-120925000D03*
X140950000Y-120925000D03*
X141900000Y-120925000D03*
X141900000Y-118650000D03*
X140000000Y-118650000D03*
D12*
X140000000Y-123700000D03*
X137050000Y-123700000D03*
D13*
X171600000Y-116300000D03*
X177000000Y-116300000D03*
D14*
X134450000Y-77900000D03*
X134450000Y-75360000D03*
X134450000Y-72820000D03*
D10*
X143200000Y-78325000D03*
X143200000Y-75400000D03*
D15*
X143200000Y-70200000D03*
X143200000Y-73150000D03*
D16*
X127200000Y-87000000D03*
X127200000Y-93000000D03*
X143200000Y-93000000D03*
D17*
X143200000Y-90000000D03*
D16*
X143200000Y-87000000D03*
D18*
X140000000Y-115400000D03*
X142950000Y-115400000D03*
D19*
X137375000Y-102250000D03*
X140300000Y-102250000D03*
D20*
X143200000Y-99250000D03*
X143200000Y-96300000D03*
D21*
X156150000Y-127850000D03*
X156150000Y-134650000D03*
D22*
X133870000Y-127800000D03*
X133870000Y-134120000D03*
X147330000Y-127800000D03*
X147330000Y-134120000D03*
D18*
X137375000Y-105350000D03*
X140325000Y-105350000D03*
D23*
X172400000Y-127850000D03*
X172400000Y-133250000D03*
D24*
X154000000Y-78621500D03*
X156500000Y-78621500D03*
X159000000Y-78621500D03*
D25*
X180000000Y-59000000D03*
D16*
X162700000Y-94400000D03*
X162700000Y-100400000D03*
X182700000Y-100400000D03*
X182700000Y-94400000D03*
D14*
X132700000Y-105550000D03*
X132700000Y-103010000D03*
X132700000Y-100470000D03*
D26*
X166800000Y-111640000D03*
X166800000Y-108060000D03*
D12*
X131675000Y-120700000D03*
X128725000Y-120700000D03*
D16*
X162700000Y-79600000D03*
X162700000Y-85600000D03*
X182700000Y-85600000D03*
X182700000Y-79600000D03*
D25*
X120000000Y-59000000D03*
X180000000Y-142000000D03*
D18*
X171550000Y-121900000D03*
X174500000Y-121900000D03*
D27*
X173600000Y-66000000D03*
X173600000Y-71080000D03*
X178680000Y-66000000D03*
X178680000Y-71080000D03*
D28*
X176240000Y-68465000D03*
D19*
X147025000Y-80950000D03*
X149950000Y-80950000D03*
D24*
X159000000Y-101837500D03*
X156500000Y-101837500D03*
X154000000Y-101837500D03*
D29*
X162420000Y-127850000D03*
X166000000Y-127850000D03*
D30*
X123600000Y-127800000D03*
D31*
X123600000Y-132800000D03*
D27*
X117950000Y-84500000D03*
X117950000Y-89580000D03*
X123030000Y-84500000D03*
X123030000Y-89580000D03*
D28*
X120590000Y-86965000D03*
D32*
X120900000Y-117500000D03*
X120900000Y-120000000D03*
D33*
X125550000Y-117500000D03*
X128700000Y-117500000D03*
D26*
X166800000Y-119890000D03*
X166800000Y-116310000D03*
D19*
X137375000Y-99250000D03*
X140300000Y-99250000D03*
D25*
X120000000Y-142000000D03*
D15*
X166000000Y-131150000D03*
X166000000Y-134100000D03*
D34*
X149100000Y-123700000D03*
X146175000Y-123700000D03*
D15*
X143200000Y-80950000D03*
X143200000Y-83900000D03*
D35*
X131300000Y-112075000D03*
X131300000Y-115000000D03*
D10*
X140150000Y-78325000D03*
X140150000Y-75400000D03*
D16*
X151000000Y-87000000D03*
D17*
X151000000Y-90000000D03*
D16*
X151000000Y-93000000D03*
D19*
X145137500Y-101950000D03*
X148062500Y-101950000D03*
D18*
X158950000Y-82600000D03*
X161900000Y-82600000D03*
X159000000Y-97300000D03*
X161950000Y-97300000D03*
M02*
