M48
; DRILL file {KiCad 8.0.5-dirty} date 2024-10-13T20:14:38-0400
; FORMAT={-:-/ absolute / metric / decimal}
; #@! TF.CreationDate,2024-10-13T20:14:38-04:00
; #@! TF.GenerationSoftware,Kicad,Pcbnew,8.0.5-dirty
; #@! TF.FileFunction,Plated,1,2,PTH
FMAT,2
METRIC
; #@! TA.AperFunction,Plated,PTH,ViaDrill
T1C0.500
; #@! TA.AperFunction,Plated,PTH,ComponentDrill
T2C0.800
; #@! TA.AperFunction,Plated,PTH,ComponentDrill
T3C1.000
; #@! TA.AperFunction,Plated,PTH,ComponentDrill
T4C1.100
; #@! TA.AperFunction,Plated,PTH,ComponentDrill
T5C1.200
; #@! TA.AperFunction,Plated,PTH,ComponentDrill
T6C1.500
; #@! TA.AperFunction,Plated,PTH,ComponentDrill
T7C1.600
; #@! TA.AperFunction,Plated,PTH,ComponentDrill
T8C4.300
%
G90
G05
T1
X101.5Y-60.0
X101.7Y-140.05
X104.89Y-88.5
X105.54Y-85.8
X110.0Y-51.45
X110.0Y-148.35
X111.95Y-76.7
X111.99Y-87.5
X112.2Y-82.5
X112.54Y-91.45
X112.64Y-93.7
X113.3Y-61.9
X113.3Y-63.3
X113.8Y-105.4
X114.1Y-100.2
X114.5Y-109.8
X114.54Y-89.25
X114.59Y-91.45
X114.59Y-93.75
X114.9Y-76.7
X116.7Y-78.3
X116.85Y-73.65
X117.2Y-117.5
X118.4Y-94.9
X118.45Y-81.95
X118.7Y-120.7
X119.35Y-70.45
X120.45Y-76.8
X120.8Y-114.6
X122.5Y-82.6
X122.5Y-86.7
X123.7Y-94.8
X124.5Y-114.05
X124.7Y-67.75
X125.6Y-96.4
X126.55Y-78.1
X127.3Y-73.4
X127.5Y-68.7
X128.05Y-122.25
X128.8Y-90.1
X129.0Y-97.9
X131.0Y-106.5
X131.1Y-119.3
X131.8Y-90.1
X132.9Y-76.6
X133.15Y-88.65
X134.25Y-104.35
X135.7Y-88.65
X136.0Y-120.95
X136.2Y-76.9
X136.25Y-130.25
X136.9Y-133.2
X137.2Y-122.2
X137.5Y-112.0
X137.5Y-115.4
X140.3Y-107.6
X140.9Y-137.3
X141.25Y-97.3
X141.4Y-79.9
X141.75Y-100.7
X143.2Y-68.3
X144.7Y-125.05
X144.9Y-133.2
X145.1Y-79.3
X145.3Y-82.75
X146.8Y-129.75
X148.5Y-134.1
X148.95Y-124.2
X149.3Y-65.85
X149.35Y-100.3
X149.6Y-76.0
X149.6Y-101.95
X149.6Y-113.45
X150.15Y-103.6
X150.8Y-99.7
X150.9Y-101.95
X151.3Y-78.3
X151.7Y-84.85
X152.05Y-77.2
X152.05Y-79.4
X152.1Y-100.3
X152.2Y-101.95
X152.45Y-94.75
X153.0Y-97.8
X154.55Y-81.75
X154.65Y-83.7
X154.65Y-96.2
X155.15Y-129.85
X156.5Y-77.2
X156.5Y-78.491
X156.5Y-79.9
X156.5Y-81.7
X156.5Y-99.0
X156.5Y-100.4
X156.5Y-103.35
X156.6Y-51.65
X156.6Y-134.1
X157.0Y-84.95
X157.1Y-95.1
X157.8Y-98.8
X159.0Y-100.4
X159.0Y-101.6
X159.0Y-102.8
X160.15Y-98.8
X160.25Y-93.1
X160.7Y-85.45
X160.85Y-100.3
X160.85Y-103.3
X160.9Y-101.8
X160.95Y-77.2
X160.95Y-79.6
X161.1Y-134.1
X161.5Y-78.4
X162.75Y-125.75
X163.55Y-105.65
X163.55Y-113.55
X163.65Y-66.75
X163.65Y-90.0
X163.85Y-87.9
X164.15Y-92.0
X164.5Y-98.8
X164.8Y-90.0
X166.0Y-90.0
X167.75Y-125.75
X169.1Y-134.75
X169.2Y-113.7
X169.4Y-90.7
X169.4Y-98.0
X169.4Y-105.6
X176.6Y-134.8
X190.0Y-148.1
X190.05Y-51.7
X192.3Y-76.7
X193.7Y-82.2
X194.3Y-97.0
X194.7Y-83.2
X196.2Y-76.7
X196.2Y-79.7
X196.9Y-85.3
X196.9Y-99.9
X197.0Y-94.2
X197.2Y-80.7
X198.0Y-139.95
X198.25Y-60.0
T2
X132.7Y-100.47
X132.7Y-103.01
X132.7Y-105.55
X134.45Y-72.82
X134.45Y-75.36
X134.45Y-77.9
T3
X127.2Y-87.0
X127.2Y-93.0
X143.2Y-87.0
X143.2Y-90.0
X143.2Y-93.0
X151.0Y-87.0
X151.0Y-90.0
X151.0Y-93.0
X159.0Y-83.0
X159.0Y-97.0
X197.0Y-83.0
X197.0Y-97.0
T4
X105.9Y-117.5
X105.9Y-120.0
T5
X107.05Y-127.8
X107.05Y-132.8
T6
X106.01Y-69.335
X194.29Y-68.585
T7
X103.37Y-66.87
X103.37Y-71.95
X108.45Y-66.87
X108.45Y-71.95
X191.65Y-66.12
X191.65Y-71.2
X196.73Y-66.12
X196.73Y-71.2
T8
X105.0Y-55.0
X105.0Y-145.0
X195.0Y-55.0
X195.0Y-145.0
M30
