G04 #@! TF.GenerationSoftware,KiCad,Pcbnew,8.0.8*
G04 #@! TF.CreationDate,2025-01-19T16:42:36-05:00*
G04 #@! TF.ProjectId,t41_2_power_amplifier,7434315f-325f-4706-9f77-65725f616d70,rev?*
G04 #@! TF.SameCoordinates,Original*
G04 #@! TF.FileFunction,Copper,L2,Bot*
G04 #@! TF.FilePolarity,Positive*
%FSLAX46Y46*%
G04 Gerber Fmt 4.6, Leading zero omitted, Abs format (unit mm)*
G04 Created by KiCad (PCBNEW 8.0.8) date 2025-01-19 16:42:36*
%MOMM*%
%LPD*%
G01*
G04 APERTURE LIST*
G04 Aperture macros list*
%AMRoundRect*
0 Rectangle with rounded corners*
0 $1 Rounding radius*
0 $2 $3 $4 $5 $6 $7 $8 $9 X,Y pos of 4 corners*
0 Add a 4 corners polygon primitive as box body*
4,1,4,$2,$3,$4,$5,$6,$7,$8,$9,$2,$3,0*
0 Add four circle primitives for the rounded corners*
1,1,$1+$1,$2,$3*
1,1,$1+$1,$4,$5*
1,1,$1+$1,$6,$7*
1,1,$1+$1,$8,$9*
0 Add four rect primitives between the rounded corners*
20,1,$1+$1,$2,$3,$4,$5,0*
20,1,$1+$1,$4,$5,$6,$7,0*
20,1,$1+$1,$6,$7,$8,$9,0*
20,1,$1+$1,$8,$9,$2,$3,0*%
G04 Aperture macros list end*
G04 #@! TA.AperFunction,ComponentPad*
%ADD10C,2.000000*%
G04 #@! TD*
G04 #@! TA.AperFunction,ComponentPad*
%ADD11C,2.200000*%
G04 #@! TD*
G04 #@! TA.AperFunction,ComponentPad*
%ADD12C,1.440000*%
G04 #@! TD*
G04 #@! TA.AperFunction,ComponentPad*
%ADD13C,7.500000*%
G04 #@! TD*
G04 #@! TA.AperFunction,ComponentPad*
%ADD14C,2.600000*%
G04 #@! TD*
G04 #@! TA.AperFunction,ComponentPad*
%ADD15C,2.500000*%
G04 #@! TD*
G04 #@! TA.AperFunction,ComponentPad*
%ADD16R,2.400000X2.400000*%
G04 #@! TD*
G04 #@! TA.AperFunction,ComponentPad*
%ADD17C,2.400000*%
G04 #@! TD*
G04 #@! TA.AperFunction,ComponentPad*
%ADD18C,2.100000*%
G04 #@! TD*
G04 #@! TA.AperFunction,SMDPad,CuDef*
%ADD19RoundRect,0.250000X-0.650000X0.325000X-0.650000X-0.325000X0.650000X-0.325000X0.650000X0.325000X0*%
G04 #@! TD*
G04 #@! TA.AperFunction,SMDPad,CuDef*
%ADD20RoundRect,0.250000X0.650000X-0.325000X0.650000X0.325000X-0.650000X0.325000X-0.650000X-0.325000X0*%
G04 #@! TD*
G04 #@! TA.AperFunction,ViaPad*
%ADD21C,1.000000*%
G04 #@! TD*
G04 #@! TA.AperFunction,Conductor*
%ADD22C,1.500000*%
G04 #@! TD*
G04 #@! TA.AperFunction,Conductor*
%ADD23C,1.000000*%
G04 #@! TD*
G04 #@! TA.AperFunction,Conductor*
%ADD24C,0.250000*%
G04 #@! TD*
G04 APERTURE END LIST*
D10*
X151000000Y-87000000D03*
D11*
X151000000Y-90000000D03*
D10*
X151000000Y-93000000D03*
X127200000Y-87000000D03*
X127200000Y-93000000D03*
X143200000Y-93000000D03*
D11*
X143200000Y-90000000D03*
D10*
X143200000Y-87000000D03*
D12*
X134450000Y-77900000D03*
X134450000Y-75360000D03*
X134450000Y-72820000D03*
D13*
X192000000Y-59000000D03*
D12*
X132700000Y-105550000D03*
X132700000Y-103010000D03*
X132700000Y-100470000D03*
D10*
X159000000Y-85000000D03*
X159000000Y-95000000D03*
X193000000Y-95000000D03*
X193000000Y-85000000D03*
D13*
X120000000Y-59000000D03*
X192000000Y-142000000D03*
D14*
X188350000Y-67920000D03*
X188350000Y-73000000D03*
X193430000Y-67920000D03*
X193430000Y-73000000D03*
D15*
X190990000Y-70385000D03*
D16*
X123600000Y-127800000D03*
D17*
X123600000Y-132800000D03*
D14*
X117950000Y-84500000D03*
X117950000Y-89580000D03*
X123030000Y-84500000D03*
X123030000Y-89580000D03*
D15*
X120590000Y-86965000D03*
D18*
X120900000Y-117500000D03*
X120900000Y-120000000D03*
D13*
X120000000Y-142000000D03*
D19*
X154600000Y-91500000D03*
X154600000Y-94450000D03*
D20*
X154650000Y-88500000D03*
X154650000Y-85550000D03*
D21*
X180400000Y-116300000D03*
X133100000Y-116300000D03*
X163650000Y-90000000D03*
X166000000Y-90000000D03*
X164800000Y-90000000D03*
X164500000Y-98800000D03*
X150000000Y-123400000D03*
X151700000Y-84850000D03*
X161500000Y-78400000D03*
X145100000Y-79300000D03*
X163550000Y-113550000D03*
X149350000Y-100300000D03*
X169400000Y-118300000D03*
X190900000Y-85600000D03*
X150150000Y-103600000D03*
X156500000Y-79900000D03*
X163500000Y-65800000D03*
X163750000Y-134100000D03*
X160150000Y-98800000D03*
X149300000Y-65850000D03*
X149600000Y-113450000D03*
X193000000Y-92600000D03*
X163550000Y-105650000D03*
X156500000Y-77200000D03*
X160400000Y-96700000D03*
X153000000Y-97800000D03*
X152100000Y-100300000D03*
X144800000Y-112000000D03*
X156500000Y-81700000D03*
X152050000Y-77200000D03*
X164150000Y-92000000D03*
X134250000Y-104350000D03*
X141400000Y-79900000D03*
X133150000Y-88650000D03*
X160850000Y-103300000D03*
X174600000Y-134800000D03*
X154550000Y-81750000D03*
X143200000Y-68300000D03*
X156900000Y-85400000D03*
X156500000Y-103350000D03*
X149600000Y-76000000D03*
X152450000Y-94750000D03*
X169400000Y-90700000D03*
X157800000Y-98800000D03*
X156150000Y-137300000D03*
X151300000Y-78300000D03*
X141750000Y-100700000D03*
X133200000Y-82100000D03*
X133600000Y-120700000D03*
X151500000Y-130250000D03*
X160150000Y-133200000D03*
X160900000Y-101800000D03*
X195200000Y-85000000D03*
X189100000Y-78400000D03*
X154650000Y-96200000D03*
X150800000Y-99700000D03*
X145300000Y-82750000D03*
X146600000Y-125200000D03*
X156500000Y-78491000D03*
X140300000Y-107600000D03*
X192900000Y-78400000D03*
X170200000Y-134800000D03*
X193000000Y-97400000D03*
X156500000Y-99000000D03*
X160700000Y-83300000D03*
X138400000Y-119300000D03*
X152150000Y-133200000D03*
X163900000Y-130400000D03*
X160600000Y-86850000D03*
X163500000Y-88100000D03*
X192900000Y-81500000D03*
X152050000Y-79400000D03*
X168200000Y-129800000D03*
X189100000Y-81500000D03*
X156500000Y-100400000D03*
X160950000Y-77200000D03*
X135700000Y-88650000D03*
X169400000Y-98000000D03*
X129000000Y-97900000D03*
X153200000Y-56000000D03*
X160600000Y-93150000D03*
X160000000Y-56100000D03*
X156900000Y-94600000D03*
X169400000Y-105600000D03*
X136000000Y-76800000D03*
X163500000Y-123200000D03*
X131000000Y-106500000D03*
X144500000Y-122200000D03*
X160850000Y-100300000D03*
X160950000Y-79600000D03*
X193000000Y-87200000D03*
X154650000Y-83700000D03*
X141250000Y-97300000D03*
X144800000Y-115400000D03*
X169700000Y-112900000D03*
X157300000Y-83300000D03*
X131295000Y-117500000D03*
X143300000Y-120950000D03*
X150900000Y-101950000D03*
X152200000Y-101950000D03*
X159000000Y-100400000D03*
X149600000Y-101950000D03*
X159000000Y-102800000D03*
X159000000Y-101600000D03*
D22*
X163650000Y-90000000D02*
X164800000Y-90000000D01*
D23*
X154650000Y-88500000D02*
X154650000Y-91500000D01*
D22*
X154250000Y-90000000D02*
X163650000Y-90000000D01*
X164800000Y-90000000D02*
X166000000Y-90000000D01*
X151000000Y-90000000D02*
X154250000Y-90000000D01*
D24*
X158150000Y-103750000D02*
X159800000Y-103750000D01*
X135707500Y-120950000D02*
X143300000Y-120950000D01*
X132257500Y-117500000D02*
X135707500Y-120950000D01*
X131295000Y-117500000D02*
X132257500Y-117500000D01*
D23*
X159000000Y-101959000D02*
X159000000Y-100400000D01*
X149600000Y-101950000D02*
X150900000Y-101950000D01*
X150900000Y-101950000D02*
X152200000Y-101950000D01*
X152200000Y-101950000D02*
X158991000Y-101950000D01*
X158991000Y-101950000D02*
X159000000Y-101959000D01*
X159000000Y-102800000D02*
X159000000Y-101600000D01*
G04 #@! TA.AperFunction,Conductor*
G36*
X196442539Y-54520185D02*
G01*
X196488294Y-54572989D01*
X196499500Y-54624500D01*
X196499500Y-58927373D01*
X196479815Y-58994412D01*
X196471757Y-59001393D01*
X196496005Y-59043392D01*
X196499500Y-59072626D01*
X196499500Y-141927373D01*
X196479815Y-141994412D01*
X196471757Y-142001393D01*
X196496005Y-142043392D01*
X196499500Y-142072626D01*
X196499500Y-146375500D01*
X196479815Y-146442539D01*
X196427011Y-146488294D01*
X196375500Y-146499500D01*
X115624500Y-146499500D01*
X115557461Y-146479815D01*
X115511706Y-146427011D01*
X115500500Y-146375500D01*
X115500500Y-142072626D01*
X115520185Y-142005587D01*
X115523400Y-142002801D01*
X115721054Y-142002801D01*
X115743477Y-142037691D01*
X115748360Y-142066726D01*
X115764447Y-142404450D01*
X115822071Y-142805231D01*
X115917531Y-143198722D01*
X115917534Y-143198733D01*
X116049956Y-143581340D01*
X116049966Y-143581365D01*
X116218168Y-143949675D01*
X116420621Y-144300335D01*
X116420627Y-144300343D01*
X116655485Y-144630154D01*
X116822985Y-144823460D01*
X118313098Y-143333347D01*
X118380076Y-143420635D01*
X118579365Y-143619924D01*
X118666650Y-143686900D01*
X117174928Y-145178622D01*
X117213676Y-145215568D01*
X117213695Y-145215585D01*
X117531968Y-145465877D01*
X117872594Y-145684782D01*
X118232485Y-145870319D01*
X118608383Y-146020806D01*
X118608395Y-146020810D01*
X118996882Y-146134880D01*
X118996899Y-146134884D01*
X119394460Y-146211508D01*
X119394472Y-146211510D01*
X119797554Y-146250000D01*
X120202446Y-146250000D01*
X120605527Y-146211510D01*
X120605539Y-146211508D01*
X121003100Y-146134884D01*
X121003117Y-146134880D01*
X121391604Y-146020810D01*
X121391616Y-146020806D01*
X121767507Y-145870322D01*
X121767511Y-145870320D01*
X122127406Y-145684782D01*
X122468031Y-145465877D01*
X122786314Y-145215578D01*
X122825069Y-145178622D01*
X121333348Y-143686901D01*
X121420635Y-143619924D01*
X121619924Y-143420635D01*
X121686901Y-143333348D01*
X123177012Y-144823459D01*
X123344512Y-144630156D01*
X123344523Y-144630143D01*
X123579372Y-144300343D01*
X123579378Y-144300335D01*
X123781831Y-143949675D01*
X123950033Y-143581365D01*
X123950043Y-143581340D01*
X124082465Y-143198733D01*
X124082468Y-143198722D01*
X124177928Y-142805231D01*
X124235552Y-142404450D01*
X124254818Y-142000000D01*
X187745181Y-142000000D01*
X187764447Y-142404450D01*
X187822071Y-142805231D01*
X187917531Y-143198722D01*
X187917534Y-143198733D01*
X188049956Y-143581340D01*
X188049966Y-143581365D01*
X188218168Y-143949675D01*
X188420621Y-144300335D01*
X188420627Y-144300343D01*
X188655485Y-144630154D01*
X188822985Y-144823460D01*
X190313098Y-143333347D01*
X190380076Y-143420635D01*
X190579365Y-143619924D01*
X190666650Y-143686900D01*
X189174928Y-145178622D01*
X189213676Y-145215568D01*
X189213695Y-145215585D01*
X189531968Y-145465877D01*
X189872594Y-145684782D01*
X190232485Y-145870319D01*
X190608383Y-146020806D01*
X190608395Y-146020810D01*
X190996882Y-146134880D01*
X190996899Y-146134884D01*
X191394460Y-146211508D01*
X191394472Y-146211510D01*
X191797554Y-146250000D01*
X192202446Y-146250000D01*
X192605527Y-146211510D01*
X192605539Y-146211508D01*
X193003100Y-146134884D01*
X193003117Y-146134880D01*
X193391604Y-146020810D01*
X193391616Y-146020806D01*
X193767507Y-145870322D01*
X193767511Y-145870320D01*
X194127406Y-145684782D01*
X194468031Y-145465877D01*
X194786314Y-145215578D01*
X194825069Y-145178622D01*
X193333348Y-143686901D01*
X193420635Y-143619924D01*
X193619924Y-143420635D01*
X193686901Y-143333348D01*
X195177012Y-144823459D01*
X195344512Y-144630156D01*
X195344523Y-144630143D01*
X195579372Y-144300343D01*
X195579378Y-144300335D01*
X195781831Y-143949675D01*
X195950033Y-143581365D01*
X195950043Y-143581340D01*
X196082465Y-143198733D01*
X196082468Y-143198722D01*
X196177928Y-142805231D01*
X196235552Y-142404450D01*
X196251640Y-142066726D01*
X196274493Y-142000699D01*
X196278945Y-141997197D01*
X196256523Y-141962308D01*
X196251640Y-141933273D01*
X196235552Y-141595549D01*
X196177928Y-141194768D01*
X196082468Y-140801277D01*
X196082465Y-140801266D01*
X195950043Y-140418659D01*
X195950033Y-140418634D01*
X195781831Y-140050324D01*
X195579378Y-139699664D01*
X195579372Y-139699656D01*
X195344523Y-139369856D01*
X195344512Y-139369843D01*
X195177013Y-139176538D01*
X193686900Y-140666650D01*
X193619924Y-140579365D01*
X193420635Y-140380076D01*
X193333347Y-140313098D01*
X194825070Y-138821376D01*
X194786323Y-138784431D01*
X194786304Y-138784414D01*
X194468031Y-138534122D01*
X194127406Y-138315217D01*
X193767511Y-138129679D01*
X193767507Y-138129677D01*
X193391616Y-137979193D01*
X193391604Y-137979189D01*
X193003117Y-137865119D01*
X193003100Y-137865115D01*
X192605539Y-137788491D01*
X192605527Y-137788489D01*
X192202446Y-137750000D01*
X191797554Y-137750000D01*
X191394472Y-137788489D01*
X191394460Y-137788491D01*
X190996899Y-137865115D01*
X190996882Y-137865119D01*
X190608395Y-137979189D01*
X190608383Y-137979193D01*
X190232485Y-138129680D01*
X189872594Y-138315217D01*
X189531968Y-138534122D01*
X189213685Y-138784421D01*
X189213673Y-138784432D01*
X189174929Y-138821375D01*
X189174929Y-138821376D01*
X190666651Y-140313098D01*
X190579365Y-140380076D01*
X190380076Y-140579365D01*
X190313098Y-140666651D01*
X188822986Y-139176539D01*
X188655485Y-139369845D01*
X188420627Y-139699656D01*
X188420621Y-139699664D01*
X188218168Y-140050324D01*
X188049966Y-140418634D01*
X188049956Y-140418659D01*
X187917534Y-140801266D01*
X187917531Y-140801277D01*
X187822071Y-141194768D01*
X187764447Y-141595549D01*
X187745181Y-142000000D01*
X124254818Y-142000000D01*
X124235552Y-141595549D01*
X124177928Y-141194768D01*
X124082468Y-140801277D01*
X124082465Y-140801266D01*
X123950043Y-140418659D01*
X123950033Y-140418634D01*
X123781831Y-140050324D01*
X123579378Y-139699664D01*
X123579372Y-139699656D01*
X123344523Y-139369856D01*
X123344512Y-139369843D01*
X123177013Y-139176538D01*
X121686900Y-140666650D01*
X121619924Y-140579365D01*
X121420635Y-140380076D01*
X121333347Y-140313098D01*
X122825070Y-138821376D01*
X122786323Y-138784431D01*
X122786304Y-138784414D01*
X122468031Y-138534122D01*
X122127406Y-138315217D01*
X121767511Y-138129679D01*
X121767507Y-138129677D01*
X121391616Y-137979193D01*
X121391604Y-137979189D01*
X121003117Y-137865119D01*
X121003100Y-137865115D01*
X120605539Y-137788491D01*
X120605527Y-137788489D01*
X120202446Y-137750000D01*
X119797554Y-137750000D01*
X119394472Y-137788489D01*
X119394460Y-137788491D01*
X118996899Y-137865115D01*
X118996882Y-137865119D01*
X118608395Y-137979189D01*
X118608383Y-137979193D01*
X118232485Y-138129680D01*
X117872594Y-138315217D01*
X117531968Y-138534122D01*
X117213685Y-138784421D01*
X117213673Y-138784432D01*
X117174929Y-138821375D01*
X117174929Y-138821376D01*
X118666651Y-140313098D01*
X118579365Y-140380076D01*
X118380076Y-140579365D01*
X118313098Y-140666651D01*
X116822986Y-139176539D01*
X116655485Y-139369845D01*
X116420627Y-139699656D01*
X116420621Y-139699664D01*
X116218168Y-140050324D01*
X116049966Y-140418634D01*
X116049956Y-140418659D01*
X115917534Y-140801266D01*
X115917531Y-140801277D01*
X115822071Y-141194768D01*
X115764447Y-141595549D01*
X115748360Y-141933273D01*
X115725507Y-141999300D01*
X115721054Y-142002801D01*
X115523400Y-142002801D01*
X115528242Y-141998605D01*
X115503995Y-141956607D01*
X115500500Y-141927373D01*
X115500500Y-132799995D01*
X121895233Y-132799995D01*
X121895233Y-132800004D01*
X121914273Y-133054079D01*
X121970968Y-133302477D01*
X121970973Y-133302494D01*
X122064058Y-133539671D01*
X122064057Y-133539671D01*
X122191457Y-133760332D01*
X122233452Y-133812993D01*
X123035387Y-133011058D01*
X123040889Y-133031591D01*
X123119881Y-133168408D01*
X123231592Y-133280119D01*
X123368409Y-133359111D01*
X123388940Y-133364612D01*
X122586813Y-134166737D01*
X122747623Y-134276375D01*
X122747624Y-134276376D01*
X122977176Y-134386921D01*
X122977174Y-134386921D01*
X123220652Y-134462024D01*
X123220658Y-134462026D01*
X123472595Y-134499999D01*
X123472604Y-134500000D01*
X123727396Y-134500000D01*
X123727404Y-134499999D01*
X123979341Y-134462026D01*
X123979347Y-134462024D01*
X124222824Y-134386921D01*
X124452381Y-134276373D01*
X124613185Y-134166737D01*
X123811059Y-133364612D01*
X123831591Y-133359111D01*
X123968408Y-133280119D01*
X124080119Y-133168408D01*
X124159111Y-133031591D01*
X124164612Y-133011059D01*
X124966545Y-133812993D01*
X125008545Y-133760327D01*
X125135941Y-133539671D01*
X125229026Y-133302494D01*
X125229031Y-133302477D01*
X125285726Y-133054079D01*
X125304767Y-132800004D01*
X125304767Y-132799995D01*
X125285726Y-132545920D01*
X125229031Y-132297522D01*
X125229026Y-132297505D01*
X125135941Y-132060328D01*
X125135942Y-132060328D01*
X125008544Y-131839671D01*
X124966546Y-131787006D01*
X124164612Y-132588939D01*
X124159111Y-132568409D01*
X124080119Y-132431592D01*
X123968408Y-132319881D01*
X123831591Y-132240889D01*
X123811058Y-132235387D01*
X124613185Y-131433261D01*
X124452377Y-131323624D01*
X124452376Y-131323623D01*
X124222823Y-131213078D01*
X124222825Y-131213078D01*
X123979347Y-131137975D01*
X123979341Y-131137973D01*
X123727404Y-131100000D01*
X123472595Y-131100000D01*
X123220658Y-131137973D01*
X123220652Y-131137975D01*
X122977175Y-131213078D01*
X122747624Y-131323623D01*
X122747616Y-131323628D01*
X122586813Y-131433261D01*
X123388940Y-132235387D01*
X123368409Y-132240889D01*
X123231592Y-132319881D01*
X123119881Y-132431592D01*
X123040889Y-132568409D01*
X123035387Y-132588940D01*
X122233453Y-131787006D01*
X122191455Y-131839670D01*
X122064058Y-132060328D01*
X121970973Y-132297505D01*
X121970968Y-132297522D01*
X121914273Y-132545920D01*
X121895233Y-132799995D01*
X115500500Y-132799995D01*
X115500500Y-126552135D01*
X121899500Y-126552135D01*
X121899500Y-129047870D01*
X121899501Y-129047876D01*
X121905908Y-129107483D01*
X121956202Y-129242328D01*
X121956206Y-129242335D01*
X122042452Y-129357544D01*
X122042455Y-129357547D01*
X122157664Y-129443793D01*
X122157671Y-129443797D01*
X122292517Y-129494091D01*
X122292516Y-129494091D01*
X122299444Y-129494835D01*
X122352127Y-129500500D01*
X124847872Y-129500499D01*
X124907483Y-129494091D01*
X125042331Y-129443796D01*
X125157546Y-129357546D01*
X125243796Y-129242331D01*
X125294091Y-129107483D01*
X125300500Y-129047873D01*
X125300499Y-126552128D01*
X125294091Y-126492517D01*
X125243796Y-126357669D01*
X125243795Y-126357668D01*
X125243793Y-126357664D01*
X125157547Y-126242455D01*
X125157544Y-126242452D01*
X125042335Y-126156206D01*
X125042328Y-126156202D01*
X124907482Y-126105908D01*
X124907483Y-126105908D01*
X124847883Y-126099501D01*
X124847881Y-126099500D01*
X124847873Y-126099500D01*
X124847864Y-126099500D01*
X122352129Y-126099500D01*
X122352123Y-126099501D01*
X122292516Y-126105908D01*
X122157671Y-126156202D01*
X122157664Y-126156206D01*
X122042455Y-126242452D01*
X122042452Y-126242455D01*
X121956206Y-126357664D01*
X121956202Y-126357671D01*
X121905908Y-126492517D01*
X121899501Y-126552116D01*
X121899501Y-126552123D01*
X121899500Y-126552135D01*
X115500500Y-126552135D01*
X115500500Y-117500000D01*
X119344706Y-117500000D01*
X119363853Y-117743297D01*
X119420830Y-117980619D01*
X119514222Y-118206089D01*
X119641737Y-118414173D01*
X119641738Y-118414176D01*
X119641741Y-118414179D01*
X119800241Y-118599759D01*
X119985821Y-118758259D01*
X120040435Y-118791726D01*
X120063325Y-118809772D01*
X120729766Y-119476212D01*
X120687708Y-119487482D01*
X120562292Y-119559890D01*
X120459890Y-119662292D01*
X120387482Y-119787708D01*
X120376212Y-119829765D01*
X119638504Y-119092056D01*
X119514668Y-119294141D01*
X119514665Y-119294146D01*
X119421303Y-119519542D01*
X119364348Y-119756780D01*
X119345207Y-120000000D01*
X119364348Y-120243219D01*
X119421303Y-120480457D01*
X119514668Y-120705861D01*
X119638504Y-120907942D01*
X120376212Y-120170234D01*
X120387482Y-120212292D01*
X120459890Y-120337708D01*
X120562292Y-120440110D01*
X120687708Y-120512518D01*
X120729765Y-120523787D01*
X119992056Y-121261494D01*
X120194138Y-121385331D01*
X120419542Y-121478696D01*
X120656780Y-121535651D01*
X120656779Y-121535651D01*
X120900000Y-121554792D01*
X121143219Y-121535651D01*
X121380457Y-121478696D01*
X121605861Y-121385331D01*
X121807942Y-121261494D01*
X121070234Y-120523787D01*
X121112292Y-120512518D01*
X121237708Y-120440110D01*
X121340110Y-120337708D01*
X121412518Y-120212292D01*
X121423787Y-120170234D01*
X122161494Y-120907942D01*
X122285331Y-120705861D01*
X122378696Y-120480457D01*
X122435651Y-120243219D01*
X122454792Y-120000000D01*
X122435651Y-119756780D01*
X122378696Y-119519542D01*
X122285331Y-119294138D01*
X122161494Y-119092056D01*
X121423787Y-119829764D01*
X121412518Y-119787708D01*
X121340110Y-119662292D01*
X121237708Y-119559890D01*
X121112292Y-119487482D01*
X121070232Y-119476211D01*
X121736672Y-118809773D01*
X121759557Y-118791731D01*
X121814179Y-118758259D01*
X121999759Y-118599759D01*
X122158259Y-118414179D01*
X122285777Y-118206089D01*
X122379172Y-117980612D01*
X122436146Y-117743302D01*
X122455294Y-117500000D01*
X130289659Y-117500000D01*
X130308975Y-117696129D01*
X130366188Y-117884733D01*
X130459086Y-118058532D01*
X130459090Y-118058539D01*
X130584116Y-118210883D01*
X130736460Y-118335909D01*
X130736467Y-118335913D01*
X130910266Y-118428811D01*
X130910269Y-118428811D01*
X130910273Y-118428814D01*
X131098868Y-118486024D01*
X131295000Y-118505341D01*
X131491132Y-118486024D01*
X131679727Y-118428814D01*
X131707119Y-118414173D01*
X131853532Y-118335913D01*
X131853531Y-118335913D01*
X131853538Y-118335910D01*
X131961801Y-118247060D01*
X132026107Y-118219749D01*
X132094975Y-118231540D01*
X132128144Y-118255234D01*
X135218516Y-121345606D01*
X135218545Y-121345637D01*
X135308764Y-121435856D01*
X135308767Y-121435858D01*
X135385690Y-121487256D01*
X135411210Y-121504309D01*
X135411212Y-121504310D01*
X135411215Y-121504312D01*
X135477896Y-121531931D01*
X135477898Y-121531933D01*
X135518140Y-121548601D01*
X135525048Y-121551463D01*
X135585471Y-121563481D01*
X135645893Y-121575500D01*
X135645894Y-121575500D01*
X142460397Y-121575500D01*
X142527436Y-121595185D01*
X142556250Y-121620835D01*
X142589116Y-121660883D01*
X142741460Y-121785909D01*
X142741467Y-121785913D01*
X142915266Y-121878811D01*
X142915269Y-121878811D01*
X142915273Y-121878814D01*
X143103868Y-121936024D01*
X143300000Y-121955341D01*
X143496132Y-121936024D01*
X143684727Y-121878814D01*
X143858538Y-121785910D01*
X144010883Y-121660883D01*
X144135910Y-121508538D01*
X144221330Y-121348729D01*
X144228811Y-121334733D01*
X144228811Y-121334732D01*
X144228814Y-121334727D01*
X144286024Y-121146132D01*
X144305341Y-120950000D01*
X144286024Y-120753868D01*
X144228814Y-120565273D01*
X144228811Y-120565269D01*
X144228811Y-120565266D01*
X144135913Y-120391467D01*
X144135909Y-120391460D01*
X144010883Y-120239116D01*
X143858539Y-120114090D01*
X143858532Y-120114086D01*
X143684733Y-120021188D01*
X143684727Y-120021186D01*
X143496132Y-119963976D01*
X143496129Y-119963975D01*
X143300000Y-119944659D01*
X143103870Y-119963975D01*
X142915266Y-120021188D01*
X142741467Y-120114086D01*
X142741460Y-120114090D01*
X142589116Y-120239116D01*
X142556250Y-120279165D01*
X142498505Y-120318499D01*
X142460397Y-120324500D01*
X136017952Y-120324500D01*
X135950913Y-120304815D01*
X135930271Y-120288181D01*
X132747698Y-117105608D01*
X132747678Y-117105586D01*
X132656233Y-117014141D01*
X132605009Y-116979915D01*
X132553787Y-116945689D01*
X132553786Y-116945688D01*
X132553783Y-116945686D01*
X132553780Y-116945685D01*
X132466476Y-116909523D01*
X132466476Y-116909524D01*
X132466474Y-116909523D01*
X132439952Y-116898537D01*
X132379529Y-116886518D01*
X132319110Y-116874500D01*
X132319107Y-116874500D01*
X132319106Y-116874500D01*
X132134603Y-116874500D01*
X132067564Y-116854815D01*
X132038750Y-116829165D01*
X132005883Y-116789116D01*
X131853539Y-116664090D01*
X131853532Y-116664086D01*
X131679733Y-116571188D01*
X131679727Y-116571186D01*
X131491132Y-116513976D01*
X131491129Y-116513975D01*
X131295000Y-116494659D01*
X131098870Y-116513975D01*
X130910266Y-116571188D01*
X130736467Y-116664086D01*
X130736460Y-116664090D01*
X130584116Y-116789116D01*
X130459090Y-116941460D01*
X130459086Y-116941467D01*
X130366188Y-117115266D01*
X130308975Y-117303870D01*
X130289659Y-117500000D01*
X122455294Y-117500000D01*
X122436146Y-117256698D01*
X122379172Y-117019388D01*
X122348645Y-116945688D01*
X122285777Y-116793910D01*
X122158262Y-116585826D01*
X122158261Y-116585823D01*
X122122453Y-116543897D01*
X121999759Y-116400241D01*
X121877063Y-116295449D01*
X121814176Y-116241738D01*
X121814173Y-116241737D01*
X121606089Y-116114222D01*
X121380618Y-116020830D01*
X121380621Y-116020830D01*
X121274992Y-115995470D01*
X121143302Y-115963854D01*
X121143300Y-115963853D01*
X121143297Y-115963853D01*
X120900000Y-115944706D01*
X120656702Y-115963853D01*
X120419380Y-116020830D01*
X120193910Y-116114222D01*
X119985826Y-116241737D01*
X119985823Y-116241738D01*
X119800241Y-116400241D01*
X119641738Y-116585823D01*
X119641737Y-116585826D01*
X119514222Y-116793910D01*
X119420830Y-117019380D01*
X119363853Y-117256702D01*
X119344706Y-117500000D01*
X115500500Y-117500000D01*
X115500500Y-103009998D01*
X131474838Y-103009998D01*
X131474838Y-103010001D01*
X131493450Y-103222741D01*
X131493452Y-103222752D01*
X131548721Y-103429022D01*
X131548723Y-103429026D01*
X131548724Y-103429030D01*
X131571287Y-103477416D01*
X131638977Y-103622578D01*
X131761472Y-103797521D01*
X131912478Y-103948527D01*
X131912481Y-103948529D01*
X132087419Y-104071021D01*
X132087421Y-104071022D01*
X132087420Y-104071022D01*
X132151936Y-104101106D01*
X132280970Y-104161276D01*
X132280983Y-104161279D01*
X132286064Y-104163130D01*
X132285292Y-104165250D01*
X132336710Y-104196594D01*
X132367237Y-104259442D01*
X132358939Y-104328817D01*
X132314452Y-104382693D01*
X132285685Y-104395830D01*
X132286064Y-104396870D01*
X132280972Y-104398723D01*
X132280970Y-104398724D01*
X132280968Y-104398725D01*
X132087421Y-104488977D01*
X131912478Y-104611472D01*
X131761472Y-104762478D01*
X131638977Y-104937421D01*
X131548725Y-105130968D01*
X131548721Y-105130977D01*
X131493452Y-105337247D01*
X131493450Y-105337258D01*
X131474838Y-105549998D01*
X131474838Y-105550001D01*
X131493450Y-105762741D01*
X131493452Y-105762752D01*
X131548721Y-105969022D01*
X131548723Y-105969026D01*
X131548724Y-105969030D01*
X131591171Y-106060058D01*
X131638977Y-106162578D01*
X131761472Y-106337521D01*
X131912478Y-106488527D01*
X131912481Y-106488529D01*
X132087419Y-106611021D01*
X132087421Y-106611022D01*
X132087420Y-106611022D01*
X132151936Y-106641106D01*
X132280970Y-106701276D01*
X132487253Y-106756549D01*
X132639215Y-106769844D01*
X132699998Y-106775162D01*
X132700000Y-106775162D01*
X132700002Y-106775162D01*
X132753186Y-106770508D01*
X132912747Y-106756549D01*
X133119030Y-106701276D01*
X133312581Y-106611021D01*
X133487519Y-106488529D01*
X133638529Y-106337519D01*
X133761021Y-106162581D01*
X133851276Y-105969030D01*
X133906549Y-105762747D01*
X133925162Y-105550000D01*
X133906549Y-105337253D01*
X133851276Y-105130970D01*
X133761021Y-104937419D01*
X133638529Y-104762481D01*
X133638527Y-104762478D01*
X133487521Y-104611472D01*
X133312578Y-104488977D01*
X133312579Y-104488977D01*
X133183547Y-104428809D01*
X133119030Y-104398724D01*
X133119023Y-104398722D01*
X133113936Y-104396870D01*
X133114709Y-104394746D01*
X133063305Y-104363424D01*
X133032766Y-104300581D01*
X133041050Y-104231204D01*
X133085528Y-104177320D01*
X133114315Y-104164172D01*
X133113936Y-104163130D01*
X133119013Y-104161280D01*
X133119030Y-104161276D01*
X133312581Y-104071021D01*
X133487519Y-103948529D01*
X133638529Y-103797519D01*
X133761021Y-103622581D01*
X133851276Y-103429030D01*
X133906549Y-103222747D01*
X133925162Y-103010000D01*
X133906549Y-102797253D01*
X133851276Y-102590970D01*
X133761021Y-102397419D01*
X133638529Y-102222481D01*
X133638527Y-102222478D01*
X133487521Y-102071472D01*
X133314038Y-101949999D01*
X148594659Y-101949999D01*
X148598903Y-101993090D01*
X148599500Y-102005244D01*
X148599500Y-102048544D01*
X148607945Y-102091006D01*
X148609730Y-102103035D01*
X148613975Y-102146130D01*
X148613976Y-102146134D01*
X148626547Y-102187575D01*
X148629503Y-102199378D01*
X148637946Y-102241827D01*
X148637948Y-102241834D01*
X148654517Y-102281834D01*
X148658612Y-102293277D01*
X148671186Y-102334727D01*
X148671187Y-102334729D01*
X148691597Y-102372913D01*
X148696800Y-102383915D01*
X148713368Y-102423914D01*
X148713370Y-102423918D01*
X148737425Y-102459918D01*
X148743683Y-102470358D01*
X148764088Y-102508535D01*
X148764094Y-102508543D01*
X148791552Y-102542002D01*
X148798799Y-102551772D01*
X148822862Y-102587783D01*
X148822865Y-102587787D01*
X148853479Y-102618401D01*
X148861651Y-102627416D01*
X148889118Y-102660884D01*
X148922581Y-102688346D01*
X148931599Y-102696520D01*
X148962214Y-102727136D01*
X148962218Y-102727139D01*
X148997699Y-102750847D01*
X148998219Y-102751194D01*
X149007988Y-102758438D01*
X149041462Y-102785910D01*
X149041464Y-102785911D01*
X149079640Y-102806316D01*
X149090078Y-102812572D01*
X149126086Y-102836632D01*
X149166095Y-102853203D01*
X149177091Y-102858404D01*
X149215273Y-102878814D01*
X149256710Y-102891383D01*
X149268160Y-102895480D01*
X149308165Y-102912051D01*
X149350640Y-102920499D01*
X149362414Y-102923448D01*
X149403868Y-102936024D01*
X149446964Y-102940268D01*
X149458990Y-102942052D01*
X149483753Y-102946978D01*
X149501458Y-102950500D01*
X149501459Y-102950500D01*
X149544756Y-102950500D01*
X149556909Y-102951096D01*
X149600000Y-102955341D01*
X149643090Y-102951096D01*
X149655244Y-102950500D01*
X150801459Y-102950500D01*
X150844756Y-102950500D01*
X150856909Y-102951096D01*
X150900000Y-102955341D01*
X150943090Y-102951096D01*
X150955244Y-102950500D01*
X152101459Y-102950500D01*
X152144756Y-102950500D01*
X152156909Y-102951096D01*
X152200000Y-102955341D01*
X152243090Y-102951096D01*
X152255244Y-102950500D01*
X157908071Y-102950500D01*
X157975110Y-102970185D01*
X158020865Y-103022989D01*
X158029688Y-103050308D01*
X158037947Y-103091829D01*
X158037948Y-103091834D01*
X158054517Y-103131834D01*
X158058612Y-103143277D01*
X158071186Y-103184726D01*
X158071187Y-103184729D01*
X158091597Y-103222913D01*
X158096800Y-103233915D01*
X158113368Y-103273914D01*
X158113370Y-103273918D01*
X158137425Y-103309918D01*
X158143678Y-103320350D01*
X158154948Y-103341436D01*
X158164088Y-103358535D01*
X158164094Y-103358543D01*
X158191552Y-103392002D01*
X158198799Y-103401772D01*
X158222860Y-103437781D01*
X158222862Y-103437783D01*
X158222865Y-103437787D01*
X158253479Y-103468401D01*
X158261651Y-103477416D01*
X158289117Y-103510883D01*
X158322579Y-103538345D01*
X158322581Y-103538346D01*
X158331599Y-103546520D01*
X158362214Y-103577136D01*
X158362217Y-103577138D01*
X158362218Y-103577139D01*
X158398217Y-103601193D01*
X158398219Y-103601194D01*
X158407988Y-103608438D01*
X158441462Y-103635910D01*
X158474636Y-103653641D01*
X158524480Y-103702604D01*
X158539941Y-103770741D01*
X158516110Y-103836421D01*
X158460552Y-103878790D01*
X158416183Y-103887000D01*
X150934108Y-103887000D01*
X150806812Y-103921108D01*
X150692686Y-103987000D01*
X150692683Y-103987002D01*
X150599502Y-104080183D01*
X150599500Y-104080186D01*
X150533608Y-104194312D01*
X150499500Y-104321608D01*
X150499500Y-122453391D01*
X150533608Y-122580687D01*
X150566554Y-122637750D01*
X150599500Y-122694814D01*
X150692686Y-122788000D01*
X150806814Y-122853892D01*
X150934108Y-122888000D01*
X150934110Y-122888000D01*
X162065890Y-122888000D01*
X162065892Y-122888000D01*
X162193186Y-122853892D01*
X162307314Y-122788000D01*
X162400500Y-122694814D01*
X162466392Y-122580686D01*
X162500500Y-122453392D01*
X162500500Y-104321608D01*
X162466392Y-104194314D01*
X162400500Y-104080186D01*
X162307314Y-103987000D01*
X162250250Y-103954054D01*
X162193187Y-103921108D01*
X162129539Y-103904054D01*
X162065892Y-103887000D01*
X159583815Y-103887000D01*
X159516776Y-103867315D01*
X159471021Y-103814511D01*
X159461077Y-103745353D01*
X159490102Y-103681797D01*
X159525366Y-103653640D01*
X159558534Y-103635912D01*
X159558538Y-103635910D01*
X159592005Y-103608444D01*
X159601782Y-103601193D01*
X159637781Y-103577140D01*
X159637783Y-103577138D01*
X159637785Y-103577136D01*
X159668408Y-103546512D01*
X159677402Y-103538359D01*
X159710883Y-103510883D01*
X159738359Y-103477402D01*
X159746512Y-103468408D01*
X159777139Y-103437782D01*
X159801200Y-103401772D01*
X159808444Y-103392005D01*
X159835909Y-103358539D01*
X159835912Y-103358535D01*
X159842295Y-103346591D01*
X159856320Y-103320351D01*
X159862560Y-103309938D01*
X159886632Y-103273914D01*
X159903202Y-103233906D01*
X159908402Y-103222913D01*
X159928814Y-103184727D01*
X159941386Y-103143280D01*
X159945476Y-103131847D01*
X159962051Y-103091835D01*
X159970500Y-103049353D01*
X159973450Y-103037580D01*
X159986024Y-102996132D01*
X159990268Y-102953037D01*
X159992054Y-102940999D01*
X159992200Y-102940268D01*
X160000500Y-102898541D01*
X160000500Y-102855244D01*
X160001097Y-102843090D01*
X160001733Y-102836631D01*
X160005341Y-102800000D01*
X160001097Y-102756908D01*
X160000500Y-102744754D01*
X160000500Y-101655244D01*
X160001097Y-101643090D01*
X160005341Y-101600000D01*
X160001097Y-101556908D01*
X160000500Y-101544754D01*
X160000500Y-100455244D01*
X160001097Y-100443090D01*
X160003633Y-100417339D01*
X160005341Y-100400000D01*
X160001097Y-100356907D01*
X160000500Y-100344754D01*
X160000500Y-100301458D01*
X159998117Y-100289480D01*
X159992052Y-100258990D01*
X159990268Y-100246961D01*
X159988045Y-100224394D01*
X159986024Y-100203868D01*
X159973448Y-100162414D01*
X159970499Y-100150640D01*
X159962051Y-100108165D01*
X159945480Y-100068159D01*
X159941383Y-100056710D01*
X159928814Y-100015273D01*
X159908404Y-99977091D01*
X159903203Y-99966095D01*
X159886632Y-99926086D01*
X159862572Y-99890078D01*
X159856316Y-99879640D01*
X159835911Y-99841464D01*
X159835910Y-99841462D01*
X159808438Y-99807988D01*
X159801194Y-99798219D01*
X159777140Y-99762219D01*
X159777136Y-99762214D01*
X159746520Y-99731599D01*
X159738346Y-99722581D01*
X159710884Y-99689118D01*
X159677416Y-99661651D01*
X159668401Y-99653479D01*
X159637787Y-99622865D01*
X159637783Y-99622862D01*
X159637780Y-99622860D01*
X159621139Y-99611740D01*
X159601772Y-99598799D01*
X159592002Y-99591552D01*
X159558543Y-99564094D01*
X159558535Y-99564088D01*
X159541436Y-99554948D01*
X159520350Y-99543678D01*
X159509918Y-99537425D01*
X159473918Y-99513370D01*
X159473914Y-99513368D01*
X159433915Y-99496800D01*
X159422913Y-99491597D01*
X159384729Y-99471187D01*
X159384728Y-99471186D01*
X159384727Y-99471186D01*
X159343277Y-99458612D01*
X159331834Y-99454517D01*
X159291834Y-99437948D01*
X159291827Y-99437946D01*
X159249378Y-99429503D01*
X159237575Y-99426547D01*
X159196134Y-99413976D01*
X159196130Y-99413975D01*
X159153035Y-99409730D01*
X159141006Y-99407945D01*
X159098544Y-99399500D01*
X159098541Y-99399500D01*
X159055244Y-99399500D01*
X159043090Y-99398903D01*
X159000000Y-99394659D01*
X158956910Y-99398903D01*
X158944756Y-99399500D01*
X158901453Y-99399500D01*
X158858991Y-99407945D01*
X158846963Y-99409730D01*
X158803867Y-99413976D01*
X158762427Y-99426546D01*
X158750626Y-99429502D01*
X158708166Y-99437948D01*
X158708161Y-99437949D01*
X158668159Y-99454518D01*
X158656707Y-99458616D01*
X158615272Y-99471186D01*
X158577091Y-99491594D01*
X158566093Y-99496795D01*
X158526091Y-99513364D01*
X158490080Y-99537426D01*
X158479645Y-99543680D01*
X158441465Y-99564087D01*
X158441460Y-99564091D01*
X158407990Y-99591557D01*
X158398225Y-99598799D01*
X158362225Y-99622855D01*
X158362219Y-99622860D01*
X158331595Y-99653483D01*
X158322584Y-99661650D01*
X158289117Y-99689117D01*
X158261650Y-99722584D01*
X158253483Y-99731595D01*
X158222860Y-99762219D01*
X158222855Y-99762225D01*
X158198799Y-99798225D01*
X158191557Y-99807990D01*
X158164091Y-99841460D01*
X158164087Y-99841465D01*
X158143680Y-99879645D01*
X158137426Y-99890080D01*
X158113364Y-99926091D01*
X158096795Y-99966093D01*
X158091594Y-99977091D01*
X158071186Y-100015272D01*
X158058616Y-100056707D01*
X158054518Y-100068159D01*
X158037949Y-100108161D01*
X158037948Y-100108166D01*
X158029502Y-100150626D01*
X158026546Y-100162427D01*
X158013976Y-100203867D01*
X158009730Y-100246963D01*
X158007945Y-100258991D01*
X157999500Y-100301453D01*
X157999500Y-100344754D01*
X157998903Y-100356907D01*
X157994659Y-100399999D01*
X157998903Y-100443090D01*
X157999500Y-100455244D01*
X157999500Y-100825500D01*
X157979815Y-100892539D01*
X157927011Y-100938294D01*
X157875500Y-100949500D01*
X152255244Y-100949500D01*
X152243090Y-100948903D01*
X152200000Y-100944659D01*
X152156910Y-100948903D01*
X152144756Y-100949500D01*
X150955244Y-100949500D01*
X150943090Y-100948903D01*
X150900000Y-100944659D01*
X150856910Y-100948903D01*
X150844756Y-100949500D01*
X149655244Y-100949500D01*
X149643090Y-100948903D01*
X149600000Y-100944659D01*
X149556910Y-100948903D01*
X149544756Y-100949500D01*
X149501453Y-100949500D01*
X149458991Y-100957945D01*
X149446963Y-100959730D01*
X149403867Y-100963976D01*
X149362427Y-100976546D01*
X149350626Y-100979502D01*
X149308166Y-100987948D01*
X149308161Y-100987949D01*
X149268159Y-101004518D01*
X149256707Y-101008616D01*
X149215272Y-101021186D01*
X149177091Y-101041594D01*
X149166093Y-101046795D01*
X149126091Y-101063364D01*
X149090080Y-101087426D01*
X149079645Y-101093680D01*
X149041465Y-101114087D01*
X149041460Y-101114091D01*
X149007990Y-101141557D01*
X148998225Y-101148799D01*
X148962225Y-101172855D01*
X148962219Y-101172860D01*
X148931595Y-101203483D01*
X148922584Y-101211650D01*
X148889117Y-101239117D01*
X148861650Y-101272584D01*
X148853483Y-101281595D01*
X148822860Y-101312219D01*
X148822855Y-101312225D01*
X148798799Y-101348225D01*
X148791557Y-101357990D01*
X148764091Y-101391460D01*
X148764087Y-101391465D01*
X148743680Y-101429645D01*
X148737426Y-101440080D01*
X148713364Y-101476091D01*
X148696795Y-101516093D01*
X148691594Y-101527091D01*
X148671186Y-101565272D01*
X148658616Y-101606707D01*
X148654518Y-101618159D01*
X148637949Y-101658161D01*
X148637948Y-101658166D01*
X148629502Y-101700626D01*
X148626546Y-101712427D01*
X148613976Y-101753867D01*
X148609730Y-101796963D01*
X148607945Y-101808991D01*
X148599500Y-101851453D01*
X148599500Y-101894754D01*
X148598903Y-101906907D01*
X148594659Y-101949999D01*
X133314038Y-101949999D01*
X133312578Y-101948977D01*
X133312579Y-101948977D01*
X133183547Y-101888809D01*
X133119030Y-101858724D01*
X133119023Y-101858722D01*
X133113936Y-101856870D01*
X133114606Y-101855028D01*
X133062293Y-101823114D01*
X133031789Y-101760255D01*
X133040111Y-101690883D01*
X133084617Y-101637022D01*
X133114097Y-101623574D01*
X133113764Y-101622658D01*
X133118864Y-101620801D01*
X133312325Y-101530589D01*
X133368030Y-101491583D01*
X132746447Y-100870000D01*
X132752661Y-100870000D01*
X132854394Y-100842741D01*
X132945606Y-100790080D01*
X133020080Y-100715606D01*
X133072741Y-100624394D01*
X133100000Y-100522661D01*
X133100000Y-100516446D01*
X133721583Y-101138029D01*
X133760589Y-101082325D01*
X133850801Y-100888864D01*
X133850805Y-100888853D01*
X133906054Y-100682662D01*
X133906055Y-100682654D01*
X133924660Y-100470002D01*
X133924660Y-100469997D01*
X133906055Y-100257345D01*
X133906054Y-100257337D01*
X133850805Y-100051146D01*
X133850802Y-100051140D01*
X133760586Y-99857669D01*
X133760582Y-99857663D01*
X133721584Y-99801968D01*
X133100000Y-100423552D01*
X133100000Y-100417339D01*
X133072741Y-100315606D01*
X133020080Y-100224394D01*
X132945606Y-100149920D01*
X132854394Y-100097259D01*
X132752661Y-100070000D01*
X132746447Y-100070000D01*
X133368030Y-99448415D01*
X133312329Y-99409413D01*
X133118859Y-99319197D01*
X133118853Y-99319194D01*
X132912662Y-99263945D01*
X132912654Y-99263944D01*
X132700002Y-99245340D01*
X132699998Y-99245340D01*
X132487345Y-99263944D01*
X132487337Y-99263945D01*
X132281146Y-99319194D01*
X132281140Y-99319197D01*
X132087671Y-99409412D01*
X132087669Y-99409413D01*
X132031969Y-99448415D01*
X132031968Y-99448415D01*
X132653554Y-100070000D01*
X132647339Y-100070000D01*
X132545606Y-100097259D01*
X132454394Y-100149920D01*
X132379920Y-100224394D01*
X132327259Y-100315606D01*
X132300000Y-100417339D01*
X132300000Y-100423553D01*
X131678415Y-99801968D01*
X131678415Y-99801969D01*
X131639413Y-99857669D01*
X131639412Y-99857671D01*
X131549197Y-100051140D01*
X131549194Y-100051146D01*
X131493945Y-100257337D01*
X131493944Y-100257345D01*
X131475340Y-100469997D01*
X131475340Y-100470002D01*
X131493944Y-100682654D01*
X131493945Y-100682662D01*
X131549194Y-100888853D01*
X131549197Y-100888859D01*
X131639413Y-101082329D01*
X131678415Y-101138030D01*
X132300000Y-100516445D01*
X132300000Y-100522661D01*
X132327259Y-100624394D01*
X132379920Y-100715606D01*
X132454394Y-100790080D01*
X132545606Y-100842741D01*
X132647339Y-100870000D01*
X132653554Y-100870000D01*
X132031968Y-101491584D01*
X132087663Y-101530582D01*
X132087669Y-101530586D01*
X132281140Y-101620802D01*
X132286236Y-101622658D01*
X132285542Y-101624563D01*
X132337647Y-101656302D01*
X132368196Y-101719139D01*
X132359922Y-101788518D01*
X132315454Y-101842409D01*
X132285744Y-101855991D01*
X132286064Y-101856870D01*
X132280972Y-101858723D01*
X132280970Y-101858724D01*
X132280968Y-101858725D01*
X132087421Y-101948977D01*
X131912478Y-102071472D01*
X131761472Y-102222478D01*
X131638977Y-102397421D01*
X131548725Y-102590968D01*
X131548721Y-102590977D01*
X131493452Y-102797247D01*
X131493450Y-102797258D01*
X131474838Y-103009998D01*
X115500500Y-103009998D01*
X115500500Y-94824986D01*
X153200001Y-94824986D01*
X153210494Y-94927697D01*
X153265641Y-95094119D01*
X153265643Y-95094124D01*
X153357684Y-95243345D01*
X153481654Y-95367315D01*
X153630875Y-95459356D01*
X153630880Y-95459358D01*
X153797302Y-95514505D01*
X153797309Y-95514506D01*
X153900019Y-95524999D01*
X154349999Y-95524999D01*
X154850000Y-95524999D01*
X155299972Y-95524999D01*
X155299986Y-95524998D01*
X155402697Y-95514505D01*
X155569119Y-95459358D01*
X155569124Y-95459356D01*
X155718345Y-95367315D01*
X155842315Y-95243345D01*
X155934356Y-95094124D01*
X155934358Y-95094119D01*
X155965548Y-94999994D01*
X157494357Y-94999994D01*
X157494357Y-95000005D01*
X157514890Y-95247812D01*
X157514892Y-95247824D01*
X157575936Y-95488881D01*
X157675826Y-95716606D01*
X157811833Y-95924782D01*
X157811836Y-95924785D01*
X157980256Y-96107738D01*
X158176491Y-96260474D01*
X158176493Y-96260475D01*
X158394332Y-96378364D01*
X158395190Y-96378828D01*
X158614141Y-96453994D01*
X158628964Y-96459083D01*
X158630386Y-96459571D01*
X158875665Y-96500500D01*
X159124335Y-96500500D01*
X159369614Y-96459571D01*
X159604810Y-96378828D01*
X159823509Y-96260474D01*
X160019744Y-96107738D01*
X160188164Y-95924785D01*
X160324173Y-95716607D01*
X160424063Y-95488881D01*
X160485108Y-95247821D01*
X160505643Y-95000000D01*
X160505643Y-94999994D01*
X191494859Y-94999994D01*
X191494859Y-95000005D01*
X191515385Y-95247729D01*
X191515387Y-95247738D01*
X191576412Y-95488717D01*
X191676267Y-95716367D01*
X191776562Y-95869881D01*
X192517037Y-95129408D01*
X192534075Y-95192993D01*
X192599901Y-95307007D01*
X192692993Y-95400099D01*
X192807007Y-95465925D01*
X192870591Y-95482962D01*
X192129943Y-96223609D01*
X192176768Y-96260055D01*
X192176771Y-96260057D01*
X192395385Y-96378364D01*
X192395396Y-96378369D01*
X192630506Y-96459083D01*
X192875707Y-96500000D01*
X193124293Y-96500000D01*
X193369493Y-96459083D01*
X193604603Y-96378369D01*
X193604614Y-96378364D01*
X193823230Y-96260056D01*
X193823236Y-96260051D01*
X193870055Y-96223610D01*
X193870056Y-96223609D01*
X193129408Y-95482962D01*
X193192993Y-95465925D01*
X193307007Y-95400099D01*
X193400099Y-95307007D01*
X193465925Y-95192993D01*
X193482962Y-95129409D01*
X194223435Y-95869882D01*
X194323733Y-95716364D01*
X194423587Y-95488717D01*
X194484612Y-95247738D01*
X194484614Y-95247729D01*
X194505141Y-95000005D01*
X194505141Y-94999994D01*
X194484614Y-94752270D01*
X194484612Y-94752261D01*
X194423587Y-94511282D01*
X194323732Y-94283632D01*
X194223435Y-94130116D01*
X193482962Y-94870590D01*
X193465925Y-94807007D01*
X193400099Y-94692993D01*
X193307007Y-94599901D01*
X193192993Y-94534075D01*
X193129409Y-94517037D01*
X193870055Y-93776389D01*
X193870055Y-93776388D01*
X193823236Y-93739947D01*
X193823231Y-93739944D01*
X193604614Y-93621635D01*
X193604603Y-93621630D01*
X193369493Y-93540916D01*
X193124293Y-93500000D01*
X192875707Y-93500000D01*
X192630506Y-93540916D01*
X192395396Y-93621630D01*
X192395385Y-93621635D01*
X192176770Y-93739943D01*
X192129943Y-93776389D01*
X192870591Y-94517037D01*
X192807007Y-94534075D01*
X192692993Y-94599901D01*
X192599901Y-94692993D01*
X192534075Y-94807007D01*
X192517037Y-94870591D01*
X191776563Y-94130117D01*
X191676267Y-94283633D01*
X191676265Y-94283637D01*
X191576412Y-94511282D01*
X191515387Y-94752261D01*
X191515385Y-94752270D01*
X191494859Y-94999994D01*
X160505643Y-94999994D01*
X160499651Y-94927690D01*
X160485109Y-94752187D01*
X160485107Y-94752175D01*
X160424063Y-94511118D01*
X160324173Y-94283393D01*
X160188166Y-94075217D01*
X160093432Y-93972309D01*
X160019744Y-93892262D01*
X159823509Y-93739526D01*
X159823507Y-93739525D01*
X159823506Y-93739524D01*
X159604811Y-93621172D01*
X159604802Y-93621169D01*
X159369616Y-93540429D01*
X159124335Y-93499500D01*
X158875665Y-93499500D01*
X158630383Y-93540429D01*
X158395197Y-93621169D01*
X158395188Y-93621172D01*
X158176493Y-93739524D01*
X157980257Y-93892261D01*
X157811833Y-94075217D01*
X157675826Y-94283393D01*
X157575936Y-94511118D01*
X157514892Y-94752175D01*
X157514890Y-94752187D01*
X157494357Y-94999994D01*
X155965548Y-94999994D01*
X155989505Y-94927697D01*
X155989506Y-94927690D01*
X155999999Y-94824986D01*
X156000000Y-94824973D01*
X156000000Y-94700000D01*
X154850000Y-94700000D01*
X154850000Y-95524999D01*
X154349999Y-95524999D01*
X154350000Y-95524998D01*
X154350000Y-94700000D01*
X153200001Y-94700000D01*
X153200001Y-94824986D01*
X115500500Y-94824986D01*
X115500500Y-92999994D01*
X125694859Y-92999994D01*
X125694859Y-93000005D01*
X125715385Y-93247729D01*
X125715387Y-93247738D01*
X125776412Y-93488717D01*
X125876267Y-93716367D01*
X125976562Y-93869881D01*
X126717037Y-93129408D01*
X126734075Y-93192993D01*
X126799901Y-93307007D01*
X126892993Y-93400099D01*
X127007007Y-93465925D01*
X127070591Y-93482962D01*
X126329943Y-94223609D01*
X126376768Y-94260055D01*
X126376771Y-94260057D01*
X126595385Y-94378364D01*
X126595396Y-94378369D01*
X126830506Y-94459083D01*
X127075707Y-94500000D01*
X127324293Y-94500000D01*
X127569493Y-94459083D01*
X127804603Y-94378369D01*
X127804614Y-94378364D01*
X128023230Y-94260056D01*
X128023236Y-94260051D01*
X128070055Y-94223610D01*
X128070056Y-94223609D01*
X127329408Y-93482962D01*
X127392993Y-93465925D01*
X127507007Y-93400099D01*
X127600099Y-93307007D01*
X127665925Y-93192993D01*
X127682962Y-93129409D01*
X128423435Y-93869882D01*
X128523733Y-93716364D01*
X128623587Y-93488717D01*
X128684612Y-93247738D01*
X128684614Y-93247729D01*
X128705141Y-93000005D01*
X128705141Y-92999994D01*
X128684614Y-92752270D01*
X128684612Y-92752261D01*
X128623587Y-92511282D01*
X128523732Y-92283632D01*
X128423435Y-92130116D01*
X127682962Y-92870590D01*
X127665925Y-92807007D01*
X127600099Y-92692993D01*
X127507007Y-92599901D01*
X127392993Y-92534075D01*
X127329409Y-92517037D01*
X128070055Y-91776389D01*
X128070055Y-91776388D01*
X128023236Y-91739947D01*
X128023231Y-91739944D01*
X127804614Y-91621635D01*
X127804603Y-91621630D01*
X127569493Y-91540916D01*
X127324293Y-91500000D01*
X127075707Y-91500000D01*
X126830506Y-91540916D01*
X126595396Y-91621630D01*
X126595385Y-91621635D01*
X126376770Y-91739943D01*
X126329943Y-91776389D01*
X127070591Y-92517037D01*
X127007007Y-92534075D01*
X126892993Y-92599901D01*
X126799901Y-92692993D01*
X126734075Y-92807007D01*
X126717037Y-92870591D01*
X125976563Y-92130117D01*
X125876267Y-92283633D01*
X125876265Y-92283637D01*
X125776412Y-92511282D01*
X125715387Y-92752261D01*
X125715385Y-92752270D01*
X125694859Y-92999994D01*
X115500500Y-92999994D01*
X115500500Y-84499995D01*
X116144953Y-84499995D01*
X116144953Y-84500004D01*
X116165113Y-84769026D01*
X116165113Y-84769028D01*
X116225142Y-85032033D01*
X116225148Y-85032052D01*
X116323709Y-85283181D01*
X116323708Y-85283181D01*
X116458600Y-85516818D01*
X116512294Y-85584150D01*
X116512295Y-85584150D01*
X117234152Y-84862292D01*
X117241049Y-84878942D01*
X117328599Y-85009970D01*
X117440030Y-85121401D01*
X117571058Y-85208951D01*
X117587705Y-85215846D01*
X116864848Y-85938703D01*
X117047476Y-86063216D01*
X117047485Y-86063221D01*
X117290539Y-86180269D01*
X117290537Y-86180269D01*
X117548337Y-86259790D01*
X117548343Y-86259792D01*
X117815101Y-86299999D01*
X117815110Y-86300000D01*
X118084890Y-86300000D01*
X118084898Y-86299999D01*
X118351656Y-86259792D01*
X118351662Y-86259790D01*
X118609458Y-86180270D01*
X118827927Y-86075061D01*
X118896869Y-86063709D01*
X118961003Y-86091431D01*
X118999969Y-86149426D01*
X119001394Y-86219281D01*
X118997158Y-86232081D01*
X118912583Y-86447578D01*
X118912578Y-86447590D01*
X118912576Y-86447597D01*
X118854197Y-86703374D01*
X118854196Y-86703379D01*
X118834592Y-86964995D01*
X118834592Y-86965004D01*
X118854196Y-87226620D01*
X118854197Y-87226625D01*
X118912576Y-87482402D01*
X118912578Y-87482411D01*
X118912580Y-87482416D01*
X118951777Y-87582288D01*
X119008432Y-87726643D01*
X119114256Y-87909937D01*
X119130729Y-87977837D01*
X119107876Y-88043864D01*
X119052955Y-88087055D01*
X118983402Y-88093696D01*
X118937017Y-88074390D01*
X118852526Y-88016784D01*
X118852516Y-88016778D01*
X118609460Y-87899730D01*
X118609462Y-87899730D01*
X118351662Y-87820209D01*
X118351656Y-87820207D01*
X118084898Y-87780000D01*
X117815101Y-87780000D01*
X117548343Y-87820207D01*
X117548337Y-87820209D01*
X117290538Y-87899730D01*
X117047482Y-88016780D01*
X117047469Y-88016787D01*
X116864848Y-88141294D01*
X117587706Y-88864152D01*
X117571058Y-88871049D01*
X117440030Y-88958599D01*
X117328599Y-89070030D01*
X117241049Y-89201058D01*
X117234152Y-89217706D01*
X116512294Y-88495848D01*
X116458602Y-88563177D01*
X116323709Y-88796818D01*
X116225148Y-89047947D01*
X116225142Y-89047966D01*
X116165113Y-89310971D01*
X116165113Y-89310973D01*
X116144953Y-89579995D01*
X116144953Y-89580004D01*
X116165113Y-89849026D01*
X116165113Y-89849028D01*
X116225142Y-90112033D01*
X116225148Y-90112052D01*
X116323709Y-90363181D01*
X116323708Y-90363181D01*
X116458600Y-90596818D01*
X116512294Y-90664150D01*
X116512295Y-90664150D01*
X117234152Y-89942292D01*
X117241049Y-89958942D01*
X117328599Y-90089970D01*
X117440030Y-90201401D01*
X117571058Y-90288951D01*
X117587706Y-90295846D01*
X116864848Y-91018703D01*
X117047476Y-91143216D01*
X117047485Y-91143221D01*
X117290539Y-91260269D01*
X117290537Y-91260269D01*
X117548337Y-91339790D01*
X117548343Y-91339792D01*
X117815101Y-91379999D01*
X117815110Y-91380000D01*
X118084890Y-91380000D01*
X118084898Y-91379999D01*
X118351656Y-91339792D01*
X118351662Y-91339790D01*
X118609461Y-91260269D01*
X118852516Y-91143221D01*
X118852517Y-91143220D01*
X119035150Y-91018703D01*
X118312293Y-90295847D01*
X118328942Y-90288951D01*
X118459970Y-90201401D01*
X118571401Y-90089970D01*
X118658951Y-89958942D01*
X118665847Y-89942293D01*
X119387703Y-90664150D01*
X119387704Y-90664149D01*
X119441400Y-90596818D01*
X119576290Y-90363181D01*
X119674851Y-90112052D01*
X119674857Y-90112033D01*
X119734886Y-89849028D01*
X119734886Y-89849026D01*
X119755047Y-89580004D01*
X119755047Y-89579995D01*
X119734886Y-89310973D01*
X119734886Y-89310971D01*
X119674857Y-89047966D01*
X119674851Y-89047947D01*
X119576290Y-88796818D01*
X119576291Y-88796818D01*
X119462961Y-88600527D01*
X119446488Y-88532627D01*
X119469340Y-88466600D01*
X119524261Y-88423410D01*
X119593815Y-88416768D01*
X119640197Y-88436071D01*
X119712296Y-88485228D01*
X119712301Y-88485230D01*
X119712302Y-88485231D01*
X119712303Y-88485232D01*
X119778462Y-88517092D01*
X119948673Y-88599061D01*
X119948674Y-88599061D01*
X119948677Y-88599063D01*
X120199385Y-88676396D01*
X120458818Y-88715500D01*
X120721182Y-88715500D01*
X120980615Y-88676396D01*
X121231323Y-88599063D01*
X121266056Y-88582336D01*
X121334994Y-88570985D01*
X121399128Y-88598706D01*
X121438094Y-88656701D01*
X121439520Y-88726556D01*
X121427243Y-88756056D01*
X121403708Y-88796820D01*
X121305148Y-89047947D01*
X121305142Y-89047966D01*
X121245113Y-89310971D01*
X121245113Y-89310973D01*
X121224953Y-89579995D01*
X121224953Y-89580004D01*
X121245113Y-89849026D01*
X121245113Y-89849028D01*
X121305142Y-90112033D01*
X121305148Y-90112052D01*
X121403709Y-90363181D01*
X121403708Y-90363181D01*
X121538600Y-90596818D01*
X121592294Y-90664150D01*
X122314152Y-89942292D01*
X122321049Y-89958942D01*
X122408599Y-90089970D01*
X122520030Y-90201401D01*
X122651058Y-90288951D01*
X122667706Y-90295846D01*
X121944848Y-91018703D01*
X122127476Y-91143216D01*
X122127485Y-91143221D01*
X122370539Y-91260269D01*
X122370537Y-91260269D01*
X122628337Y-91339790D01*
X122628343Y-91339792D01*
X122895101Y-91379999D01*
X122895110Y-91380000D01*
X123164890Y-91380000D01*
X123164898Y-91379999D01*
X123431656Y-91339792D01*
X123431662Y-91339790D01*
X123689461Y-91260269D01*
X123932516Y-91143221D01*
X123932517Y-91143220D01*
X124115150Y-91018703D01*
X123392293Y-90295847D01*
X123408942Y-90288951D01*
X123539970Y-90201401D01*
X123651401Y-90089970D01*
X123738951Y-89958942D01*
X123745847Y-89942293D01*
X124467703Y-90664150D01*
X124467704Y-90664149D01*
X124521400Y-90596818D01*
X124656290Y-90363181D01*
X124754851Y-90112052D01*
X124754857Y-90112033D01*
X124780428Y-90000000D01*
X141595052Y-90000000D01*
X141614812Y-90251072D01*
X141673603Y-90495956D01*
X141769980Y-90728631D01*
X141901568Y-90943362D01*
X141902266Y-90944179D01*
X142635387Y-90211058D01*
X142640889Y-90231591D01*
X142719881Y-90368408D01*
X142831592Y-90480119D01*
X142968409Y-90559111D01*
X142988940Y-90564612D01*
X142255819Y-91297732D01*
X142255819Y-91297733D01*
X142256634Y-91298429D01*
X142471368Y-91430019D01*
X142500976Y-91442283D01*
X142555379Y-91486124D01*
X142577444Y-91552418D01*
X142560165Y-91620117D01*
X142512541Y-91665899D01*
X142376493Y-91739524D01*
X142180257Y-91892261D01*
X142011833Y-92075217D01*
X141875826Y-92283393D01*
X141775936Y-92511118D01*
X141714892Y-92752175D01*
X141714890Y-92752187D01*
X141694357Y-92999994D01*
X141694357Y-93000005D01*
X141714890Y-93247812D01*
X141714892Y-93247824D01*
X141775936Y-93488881D01*
X141875826Y-93716606D01*
X142011833Y-93924782D01*
X142011836Y-93924785D01*
X142180256Y-94107738D01*
X142376491Y-94260474D01*
X142485840Y-94319651D01*
X142594332Y-94378364D01*
X142595190Y-94378828D01*
X142814141Y-94453994D01*
X142828964Y-94459083D01*
X142830386Y-94459571D01*
X143075665Y-94500500D01*
X143324335Y-94500500D01*
X143569614Y-94459571D01*
X143804810Y-94378828D01*
X144023509Y-94260474D01*
X144219744Y-94107738D01*
X144388164Y-93924785D01*
X144524173Y-93716607D01*
X144624063Y-93488881D01*
X144685108Y-93247821D01*
X144705643Y-93000000D01*
X144689651Y-92807007D01*
X144685109Y-92752187D01*
X144685107Y-92752175D01*
X144624063Y-92511118D01*
X144524173Y-92283393D01*
X144388166Y-92075217D01*
X144298484Y-91977797D01*
X144219744Y-91892262D01*
X144023509Y-91739526D01*
X144023507Y-91739525D01*
X144023506Y-91739524D01*
X143922696Y-91684968D01*
X143887457Y-91665898D01*
X143837868Y-91616679D01*
X143822760Y-91548463D01*
X143846930Y-91482907D01*
X143899024Y-91442282D01*
X143928634Y-91430017D01*
X144143361Y-91298432D01*
X144143363Y-91298430D01*
X144144180Y-91297732D01*
X143411059Y-90564612D01*
X143431591Y-90559111D01*
X143568408Y-90480119D01*
X143680119Y-90368408D01*
X143759111Y-90231591D01*
X143764612Y-90211060D01*
X144497732Y-90944180D01*
X144498430Y-90943363D01*
X144498432Y-90943361D01*
X144630019Y-90728631D01*
X144726396Y-90495956D01*
X144785187Y-90251072D01*
X144804947Y-90000000D01*
X149394551Y-90000000D01*
X149414317Y-90251151D01*
X149473126Y-90496110D01*
X149569533Y-90728859D01*
X149701160Y-90943653D01*
X149701161Y-90943656D01*
X149709849Y-90953828D01*
X149864776Y-91135224D01*
X150011185Y-91260269D01*
X150056343Y-91298838D01*
X150056345Y-91298838D01*
X150271141Y-91430466D01*
X150300407Y-91442588D01*
X150354811Y-91486427D01*
X150376878Y-91552721D01*
X150359600Y-91620421D01*
X150311975Y-91666204D01*
X150176501Y-91739519D01*
X150176494Y-91739523D01*
X149980257Y-91892261D01*
X149811833Y-92075217D01*
X149675826Y-92283393D01*
X149575936Y-92511118D01*
X149514892Y-92752175D01*
X149514890Y-92752187D01*
X149494357Y-92999994D01*
X149494357Y-93000005D01*
X149514890Y-93247812D01*
X149514892Y-93247824D01*
X149575936Y-93488881D01*
X149675826Y-93716606D01*
X149811833Y-93924782D01*
X149811836Y-93924785D01*
X149980256Y-94107738D01*
X150176491Y-94260474D01*
X150285840Y-94319651D01*
X150394332Y-94378364D01*
X150395190Y-94378828D01*
X150614141Y-94453994D01*
X150628964Y-94459083D01*
X150630386Y-94459571D01*
X150875665Y-94500500D01*
X151124335Y-94500500D01*
X151369614Y-94459571D01*
X151604810Y-94378828D01*
X151823509Y-94260474D01*
X152019744Y-94107738D01*
X152188164Y-93924785D01*
X152324173Y-93716607D01*
X152424063Y-93488881D01*
X152485108Y-93247821D01*
X152505643Y-93000000D01*
X152489651Y-92807007D01*
X152485109Y-92752187D01*
X152485107Y-92752175D01*
X152424063Y-92511118D01*
X152324173Y-92283393D01*
X152188166Y-92075217D01*
X152098484Y-91977797D01*
X152019744Y-91892262D01*
X151823509Y-91739526D01*
X151823507Y-91739525D01*
X151823506Y-91739524D01*
X151688024Y-91666205D01*
X151638434Y-91616985D01*
X151623326Y-91548768D01*
X151647497Y-91483213D01*
X151699589Y-91442589D01*
X151728859Y-91430466D01*
X151943659Y-91298836D01*
X151965468Y-91280208D01*
X152029229Y-91251639D01*
X152045999Y-91250500D01*
X153075500Y-91250500D01*
X153142539Y-91270185D01*
X153188294Y-91322989D01*
X153199500Y-91374500D01*
X153199500Y-91875001D01*
X153199501Y-91875019D01*
X153210000Y-91977796D01*
X153210001Y-91977799D01*
X153242282Y-92075215D01*
X153265186Y-92144334D01*
X153357288Y-92293656D01*
X153481344Y-92417712D01*
X153630666Y-92509814D01*
X153630667Y-92509814D01*
X153630670Y-92509816D01*
X153654999Y-92517877D01*
X153712446Y-92557647D01*
X153739271Y-92622162D01*
X153740000Y-92635584D01*
X153740000Y-93314941D01*
X153720315Y-93381980D01*
X153667511Y-93427735D01*
X153655006Y-93432646D01*
X153630880Y-93440640D01*
X153481654Y-93532684D01*
X153357684Y-93656654D01*
X153265643Y-93805875D01*
X153265641Y-93805880D01*
X153210494Y-93972302D01*
X153210493Y-93972309D01*
X153200000Y-94075013D01*
X153200000Y-94200000D01*
X155999999Y-94200000D01*
X155999999Y-94075028D01*
X155999998Y-94075013D01*
X155989505Y-93972302D01*
X155934358Y-93805880D01*
X155934356Y-93805875D01*
X155842315Y-93656654D01*
X155718344Y-93532683D01*
X155718340Y-93532680D01*
X155618903Y-93471346D01*
X155572178Y-93419398D01*
X155560000Y-93365808D01*
X155560000Y-92584778D01*
X155579685Y-92517739D01*
X155618904Y-92479239D01*
X155718656Y-92417712D01*
X155842712Y-92293656D01*
X155934814Y-92144334D01*
X155989999Y-91977797D01*
X156000500Y-91875009D01*
X156000499Y-91374499D01*
X156020183Y-91307461D01*
X156072987Y-91261706D01*
X156124499Y-91250500D01*
X166098422Y-91250500D01*
X166292826Y-91219709D01*
X166480025Y-91158884D01*
X166655405Y-91069524D01*
X166814646Y-90953828D01*
X166953828Y-90814646D01*
X167069524Y-90655405D01*
X167158884Y-90480025D01*
X167219709Y-90292826D01*
X167229408Y-90231591D01*
X167250500Y-90098422D01*
X167250500Y-89901577D01*
X167219709Y-89707173D01*
X167158882Y-89519970D01*
X167097754Y-89400000D01*
X167069524Y-89344595D01*
X166953828Y-89185354D01*
X166814646Y-89046172D01*
X166655405Y-88930476D01*
X166480029Y-88841117D01*
X166292826Y-88780290D01*
X166098422Y-88749500D01*
X166098417Y-88749500D01*
X164898417Y-88749500D01*
X163748417Y-88749500D01*
X156174500Y-88749500D01*
X156107461Y-88729815D01*
X156061706Y-88677011D01*
X156050500Y-88625500D01*
X156050499Y-88124998D01*
X156050498Y-88124980D01*
X156039999Y-88022203D01*
X156039998Y-88022200D01*
X156038201Y-88016778D01*
X155984814Y-87855666D01*
X155892712Y-87706344D01*
X155768656Y-87582288D01*
X155619334Y-87490186D01*
X155618903Y-87489920D01*
X155572179Y-87437972D01*
X155560000Y-87384381D01*
X155560000Y-86665031D01*
X155579685Y-86597992D01*
X155618903Y-86559492D01*
X155768345Y-86467315D01*
X155892315Y-86343345D01*
X155984356Y-86194124D01*
X155984358Y-86194119D01*
X156039505Y-86027697D01*
X156039506Y-86027690D01*
X156049999Y-85924986D01*
X156050000Y-85924973D01*
X156050000Y-85800000D01*
X153250001Y-85800000D01*
X153250001Y-85924986D01*
X153260494Y-86027697D01*
X153315641Y-86194119D01*
X153315643Y-86194124D01*
X153407684Y-86343345D01*
X153531654Y-86467315D01*
X153681097Y-86559492D01*
X153727821Y-86611440D01*
X153740000Y-86665031D01*
X153740000Y-87384381D01*
X153720315Y-87451420D01*
X153681097Y-87489920D01*
X153531342Y-87582289D01*
X153407289Y-87706342D01*
X153315187Y-87855663D01*
X153315185Y-87855668D01*
X153297739Y-87908318D01*
X153260001Y-88022203D01*
X153260001Y-88022204D01*
X153260000Y-88022204D01*
X153249500Y-88124983D01*
X153249500Y-88124991D01*
X153249500Y-88436073D01*
X153249501Y-88625500D01*
X153229817Y-88692539D01*
X153177013Y-88738294D01*
X153125501Y-88749500D01*
X152045999Y-88749500D01*
X151978960Y-88729815D01*
X151965468Y-88719791D01*
X151944132Y-88701568D01*
X151943659Y-88701164D01*
X151943657Y-88701162D01*
X151943655Y-88701161D01*
X151943653Y-88701160D01*
X151728862Y-88569535D01*
X151720113Y-88565911D01*
X151699588Y-88557409D01*
X151645187Y-88513570D01*
X151623121Y-88447276D01*
X151640400Y-88379577D01*
X151688024Y-88333794D01*
X151823509Y-88260474D01*
X152019744Y-88107738D01*
X152188164Y-87924785D01*
X152324173Y-87716607D01*
X152424063Y-87488881D01*
X152485108Y-87247821D01*
X152486864Y-87226630D01*
X152505643Y-87000005D01*
X152505643Y-86999994D01*
X152485109Y-86752187D01*
X152485107Y-86752175D01*
X152424063Y-86511118D01*
X152324173Y-86283393D01*
X152188166Y-86075217D01*
X152166557Y-86051744D01*
X152019744Y-85892262D01*
X151823509Y-85739526D01*
X151823507Y-85739525D01*
X151823506Y-85739524D01*
X151604811Y-85621172D01*
X151604802Y-85621169D01*
X151369616Y-85540429D01*
X151124335Y-85499500D01*
X150875665Y-85499500D01*
X150630383Y-85540429D01*
X150395197Y-85621169D01*
X150395188Y-85621172D01*
X150176493Y-85739524D01*
X149980257Y-85892261D01*
X149811833Y-86075217D01*
X149675826Y-86283393D01*
X149575936Y-86511118D01*
X149514892Y-86752175D01*
X149514890Y-86752187D01*
X149494357Y-86999994D01*
X149494357Y-87000005D01*
X149514890Y-87247812D01*
X149514892Y-87247824D01*
X149575936Y-87488881D01*
X149675826Y-87716606D01*
X149811833Y-87924782D01*
X149811836Y-87924785D01*
X149980256Y-88107738D01*
X150176491Y-88260474D01*
X150176494Y-88260476D01*
X150176496Y-88260477D01*
X150311974Y-88333794D01*
X150361565Y-88383014D01*
X150376673Y-88451230D01*
X150352503Y-88516786D01*
X150300410Y-88557410D01*
X150271140Y-88569533D01*
X150056346Y-88701160D01*
X150056343Y-88701161D01*
X149864776Y-88864776D01*
X149701161Y-89056343D01*
X149701160Y-89056346D01*
X149569533Y-89271140D01*
X149473126Y-89503889D01*
X149414317Y-89748848D01*
X149394551Y-90000000D01*
X144804947Y-90000000D01*
X144785187Y-89748927D01*
X144726396Y-89504043D01*
X144630019Y-89271368D01*
X144498429Y-89056634D01*
X144497733Y-89055819D01*
X144497732Y-89055819D01*
X143764612Y-89788939D01*
X143759111Y-89768409D01*
X143680119Y-89631592D01*
X143568408Y-89519881D01*
X143431591Y-89440889D01*
X143411057Y-89435387D01*
X144144179Y-88702266D01*
X144143362Y-88701568D01*
X143928630Y-88569980D01*
X143928625Y-88569977D01*
X143899022Y-88557715D01*
X143844619Y-88513874D01*
X143822555Y-88447579D01*
X143839835Y-88379880D01*
X143887457Y-88334101D01*
X144023509Y-88260474D01*
X144219744Y-88107738D01*
X144388164Y-87924785D01*
X144524173Y-87716607D01*
X144624063Y-87488881D01*
X144685108Y-87247821D01*
X144686864Y-87226630D01*
X144705643Y-87000005D01*
X144705643Y-86999994D01*
X144685109Y-86752187D01*
X144685107Y-86752175D01*
X144624063Y-86511118D01*
X144524173Y-86283393D01*
X144388166Y-86075217D01*
X144366557Y-86051744D01*
X144219744Y-85892262D01*
X144023509Y-85739526D01*
X144023507Y-85739525D01*
X144023506Y-85739524D01*
X143804811Y-85621172D01*
X143804802Y-85621169D01*
X143569616Y-85540429D01*
X143324335Y-85499500D01*
X143075665Y-85499500D01*
X142830383Y-85540429D01*
X142595197Y-85621169D01*
X142595188Y-85621172D01*
X142376493Y-85739524D01*
X142180257Y-85892261D01*
X142011833Y-86075217D01*
X141875826Y-86283393D01*
X141775936Y-86511118D01*
X141714892Y-86752175D01*
X141714890Y-86752187D01*
X141694357Y-86999994D01*
X141694357Y-87000005D01*
X141714890Y-87247812D01*
X141714892Y-87247824D01*
X141775936Y-87488881D01*
X141875826Y-87716606D01*
X142011833Y-87924782D01*
X142011836Y-87924785D01*
X142180256Y-88107738D01*
X142376491Y-88260474D01*
X142376494Y-88260476D01*
X142376496Y-88260477D01*
X142493026Y-88323539D01*
X142511974Y-88333794D01*
X142512540Y-88334100D01*
X142562131Y-88383319D01*
X142577239Y-88451536D01*
X142553069Y-88517092D01*
X142500979Y-88557715D01*
X142471368Y-88569981D01*
X142256637Y-88701567D01*
X142255818Y-88702266D01*
X142988940Y-89435387D01*
X142968409Y-89440889D01*
X142831592Y-89519881D01*
X142719881Y-89631592D01*
X142640889Y-89768409D01*
X142635387Y-89788940D01*
X141902266Y-89055818D01*
X141901567Y-89056637D01*
X141769980Y-89271368D01*
X141673603Y-89504043D01*
X141614812Y-89748927D01*
X141595052Y-90000000D01*
X124780428Y-90000000D01*
X124814886Y-89849028D01*
X124814886Y-89849026D01*
X124835047Y-89580004D01*
X124835047Y-89579995D01*
X124814886Y-89310973D01*
X124814886Y-89310971D01*
X124754857Y-89047966D01*
X124754851Y-89047947D01*
X124656290Y-88796818D01*
X124656291Y-88796818D01*
X124521400Y-88563182D01*
X124521393Y-88563171D01*
X124467704Y-88495849D01*
X124467703Y-88495848D01*
X123745846Y-89217705D01*
X123738951Y-89201058D01*
X123651401Y-89070030D01*
X123539970Y-88958599D01*
X123408942Y-88871049D01*
X123392292Y-88864152D01*
X124115150Y-88141295D01*
X123932524Y-88016783D01*
X123932516Y-88016778D01*
X123689460Y-87899730D01*
X123689462Y-87899730D01*
X123431662Y-87820209D01*
X123431656Y-87820207D01*
X123164898Y-87780000D01*
X122895101Y-87780000D01*
X122628343Y-87820207D01*
X122628337Y-87820209D01*
X122370544Y-87899728D01*
X122318711Y-87924690D01*
X122249769Y-87936041D01*
X122185635Y-87908318D01*
X122146670Y-87850323D01*
X122145245Y-87780468D01*
X122157522Y-87750970D01*
X122171568Y-87726643D01*
X122267420Y-87482416D01*
X122325802Y-87226630D01*
X122342786Y-86999994D01*
X125694357Y-86999994D01*
X125694357Y-87000005D01*
X125714890Y-87247812D01*
X125714892Y-87247824D01*
X125775936Y-87488881D01*
X125875826Y-87716606D01*
X126011833Y-87924782D01*
X126011836Y-87924785D01*
X126180256Y-88107738D01*
X126376491Y-88260474D01*
X126595190Y-88378828D01*
X126830386Y-88459571D01*
X127075665Y-88500500D01*
X127324335Y-88500500D01*
X127569614Y-88459571D01*
X127804810Y-88378828D01*
X128023509Y-88260474D01*
X128219744Y-88107738D01*
X128388164Y-87924785D01*
X128524173Y-87716607D01*
X128624063Y-87488881D01*
X128685108Y-87247821D01*
X128686864Y-87226630D01*
X128705643Y-87000005D01*
X128705643Y-86999994D01*
X128685109Y-86752187D01*
X128685107Y-86752175D01*
X128624063Y-86511118D01*
X128524173Y-86283393D01*
X128388166Y-86075217D01*
X128366557Y-86051744D01*
X128219744Y-85892262D01*
X128023509Y-85739526D01*
X128023507Y-85739525D01*
X128023506Y-85739524D01*
X127804811Y-85621172D01*
X127804802Y-85621169D01*
X127569616Y-85540429D01*
X127324335Y-85499500D01*
X127075665Y-85499500D01*
X126830383Y-85540429D01*
X126595197Y-85621169D01*
X126595188Y-85621172D01*
X126376493Y-85739524D01*
X126180257Y-85892261D01*
X126011833Y-86075217D01*
X125875826Y-86283393D01*
X125775936Y-86511118D01*
X125714892Y-86752175D01*
X125714890Y-86752187D01*
X125694357Y-86999994D01*
X122342786Y-86999994D01*
X122345408Y-86965000D01*
X122329460Y-86752187D01*
X122325803Y-86703379D01*
X122325802Y-86703374D01*
X122325802Y-86703370D01*
X122267420Y-86447584D01*
X122227923Y-86346949D01*
X122221755Y-86277353D01*
X122254193Y-86215470D01*
X122314938Y-86180947D01*
X122379902Y-86183157D01*
X122628337Y-86259790D01*
X122628343Y-86259792D01*
X122895101Y-86299999D01*
X122895110Y-86300000D01*
X123164890Y-86300000D01*
X123164898Y-86299999D01*
X123431656Y-86259792D01*
X123431662Y-86259790D01*
X123689461Y-86180269D01*
X123932516Y-86063221D01*
X123932517Y-86063220D01*
X124115150Y-85938703D01*
X123392293Y-85215847D01*
X123408942Y-85208951D01*
X123539970Y-85121401D01*
X123651401Y-85009970D01*
X123738951Y-84878942D01*
X123745847Y-84862293D01*
X124467703Y-85584150D01*
X124467704Y-85584149D01*
X124521400Y-85516818D01*
X124656290Y-85283181D01*
X124698743Y-85175013D01*
X153250000Y-85175013D01*
X153250000Y-85300000D01*
X154400000Y-85300000D01*
X154900000Y-85300000D01*
X156049999Y-85300000D01*
X156049999Y-85175028D01*
X156049998Y-85175013D01*
X156039505Y-85072302D01*
X156015544Y-84999994D01*
X157494357Y-84999994D01*
X157494357Y-85000005D01*
X157514890Y-85247812D01*
X157514892Y-85247824D01*
X157575936Y-85488881D01*
X157675826Y-85716606D01*
X157811833Y-85924782D01*
X157811836Y-85924785D01*
X157980256Y-86107738D01*
X158176491Y-86260474D01*
X158395190Y-86378828D01*
X158630386Y-86459571D01*
X158875665Y-86500500D01*
X159124335Y-86500500D01*
X159369614Y-86459571D01*
X159604810Y-86378828D01*
X159823509Y-86260474D01*
X160019744Y-86107738D01*
X160188164Y-85924785D01*
X160324173Y-85716607D01*
X160424063Y-85488881D01*
X160485108Y-85247821D01*
X160492524Y-85158324D01*
X160505643Y-85000005D01*
X160505643Y-84999994D01*
X191494357Y-84999994D01*
X191494357Y-85000005D01*
X191514890Y-85247812D01*
X191514892Y-85247824D01*
X191575936Y-85488881D01*
X191675826Y-85716606D01*
X191811833Y-85924782D01*
X191811836Y-85924785D01*
X191980256Y-86107738D01*
X192176491Y-86260474D01*
X192395190Y-86378828D01*
X192630386Y-86459571D01*
X192875665Y-86500500D01*
X193124335Y-86500500D01*
X193369614Y-86459571D01*
X193604810Y-86378828D01*
X193823509Y-86260474D01*
X194019744Y-86107738D01*
X194188164Y-85924785D01*
X194324173Y-85716607D01*
X194424063Y-85488881D01*
X194485108Y-85247821D01*
X194492524Y-85158324D01*
X194505643Y-85000005D01*
X194505643Y-84999994D01*
X194485109Y-84752187D01*
X194485107Y-84752175D01*
X194424063Y-84511118D01*
X194324173Y-84283393D01*
X194188166Y-84075217D01*
X194166557Y-84051744D01*
X194019744Y-83892262D01*
X193823509Y-83739526D01*
X193823507Y-83739525D01*
X193823506Y-83739524D01*
X193604811Y-83621172D01*
X193604802Y-83621169D01*
X193369616Y-83540429D01*
X193124335Y-83499500D01*
X192875665Y-83499500D01*
X192630383Y-83540429D01*
X192395197Y-83621169D01*
X192395188Y-83621172D01*
X192176493Y-83739524D01*
X191980257Y-83892261D01*
X191811833Y-84075217D01*
X191675826Y-84283393D01*
X191575936Y-84511118D01*
X191514892Y-84752175D01*
X191514890Y-84752187D01*
X191494357Y-84999994D01*
X160505643Y-84999994D01*
X160485109Y-84752187D01*
X160485107Y-84752175D01*
X160424063Y-84511118D01*
X160324173Y-84283393D01*
X160188166Y-84075217D01*
X160166557Y-84051744D01*
X160019744Y-83892262D01*
X159823509Y-83739526D01*
X159823507Y-83739525D01*
X159823506Y-83739524D01*
X159604811Y-83621172D01*
X159604802Y-83621169D01*
X159369616Y-83540429D01*
X159124335Y-83499500D01*
X158875665Y-83499500D01*
X158630383Y-83540429D01*
X158395197Y-83621169D01*
X158395188Y-83621172D01*
X158176493Y-83739524D01*
X157980257Y-83892261D01*
X157811833Y-84075217D01*
X157675826Y-84283393D01*
X157575936Y-84511118D01*
X157514892Y-84752175D01*
X157514890Y-84752187D01*
X157494357Y-84999994D01*
X156015544Y-84999994D01*
X155984358Y-84905880D01*
X155984356Y-84905875D01*
X155892315Y-84756654D01*
X155768345Y-84632684D01*
X155619124Y-84540643D01*
X155619119Y-84540641D01*
X155452697Y-84485494D01*
X155452690Y-84485493D01*
X155349986Y-84475000D01*
X154900000Y-84475000D01*
X154900000Y-85300000D01*
X154400000Y-85300000D01*
X154400000Y-84475000D01*
X153950028Y-84475000D01*
X153950012Y-84475001D01*
X153847302Y-84485494D01*
X153680880Y-84540641D01*
X153680875Y-84540643D01*
X153531654Y-84632684D01*
X153407684Y-84756654D01*
X153315643Y-84905875D01*
X153315641Y-84905880D01*
X153260494Y-85072302D01*
X153260493Y-85072309D01*
X153250000Y-85175013D01*
X124698743Y-85175013D01*
X124754851Y-85032052D01*
X124754857Y-85032033D01*
X124814886Y-84769028D01*
X124814886Y-84769026D01*
X124835047Y-84500004D01*
X124835047Y-84499995D01*
X124814886Y-84230973D01*
X124814886Y-84230971D01*
X124754857Y-83967966D01*
X124754851Y-83967947D01*
X124656290Y-83716818D01*
X124656291Y-83716818D01*
X124521400Y-83483182D01*
X124521393Y-83483171D01*
X124467704Y-83415849D01*
X124467703Y-83415848D01*
X123745846Y-84137705D01*
X123738951Y-84121058D01*
X123651401Y-83990030D01*
X123539970Y-83878599D01*
X123408942Y-83791049D01*
X123392293Y-83784152D01*
X124115150Y-83061295D01*
X123932524Y-82936783D01*
X123932516Y-82936778D01*
X123689460Y-82819730D01*
X123689462Y-82819730D01*
X123431662Y-82740209D01*
X123431656Y-82740207D01*
X123164898Y-82700000D01*
X122895101Y-82700000D01*
X122628343Y-82740207D01*
X122628337Y-82740209D01*
X122370538Y-82819730D01*
X122127482Y-82936780D01*
X122127469Y-82936787D01*
X121944848Y-83061294D01*
X122667706Y-83784152D01*
X122651058Y-83791049D01*
X122520030Y-83878599D01*
X122408599Y-83990030D01*
X122321049Y-84121058D01*
X122314152Y-84137706D01*
X121592294Y-83415848D01*
X121538602Y-83483177D01*
X121403709Y-83716818D01*
X121305148Y-83967947D01*
X121305142Y-83967966D01*
X121245113Y-84230971D01*
X121245113Y-84230973D01*
X121224953Y-84499995D01*
X121224953Y-84500004D01*
X121245113Y-84769026D01*
X121245113Y-84769028D01*
X121305142Y-85032033D01*
X121305148Y-85032052D01*
X121354706Y-85158324D01*
X121360875Y-85227921D01*
X121328437Y-85289804D01*
X121267692Y-85324327D01*
X121202729Y-85322117D01*
X121097973Y-85289804D01*
X120980623Y-85253606D01*
X120980619Y-85253605D01*
X120980615Y-85253604D01*
X120855823Y-85234794D01*
X120721187Y-85214500D01*
X120721182Y-85214500D01*
X120458818Y-85214500D01*
X120458812Y-85214500D01*
X120297247Y-85238853D01*
X120199385Y-85253604D01*
X120199382Y-85253605D01*
X120199376Y-85253606D01*
X119948673Y-85330938D01*
X119751052Y-85426107D01*
X119682111Y-85437459D01*
X119617976Y-85409736D01*
X119579011Y-85351741D01*
X119577586Y-85281886D01*
X119581823Y-85269085D01*
X119674851Y-85032052D01*
X119674857Y-85032033D01*
X119734886Y-84769028D01*
X119734886Y-84769026D01*
X119755047Y-84500004D01*
X119755047Y-84499995D01*
X119734886Y-84230973D01*
X119734886Y-84230971D01*
X119674857Y-83967966D01*
X119674851Y-83967947D01*
X119576290Y-83716818D01*
X119576291Y-83716818D01*
X119441400Y-83483182D01*
X119441393Y-83483171D01*
X119387704Y-83415849D01*
X119387703Y-83415848D01*
X118665846Y-84137705D01*
X118658951Y-84121058D01*
X118571401Y-83990030D01*
X118459970Y-83878599D01*
X118328942Y-83791049D01*
X118312293Y-83784152D01*
X119035150Y-83061295D01*
X118852524Y-82936783D01*
X118852516Y-82936778D01*
X118609460Y-82819730D01*
X118609462Y-82819730D01*
X118351662Y-82740209D01*
X118351656Y-82740207D01*
X118084898Y-82700000D01*
X117815101Y-82700000D01*
X117548343Y-82740207D01*
X117548337Y-82740209D01*
X117290538Y-82819730D01*
X117047482Y-82936780D01*
X117047469Y-82936787D01*
X116864848Y-83061294D01*
X117587706Y-83784152D01*
X117571058Y-83791049D01*
X117440030Y-83878599D01*
X117328599Y-83990030D01*
X117241049Y-84121058D01*
X117234152Y-84137706D01*
X116512294Y-83415848D01*
X116458602Y-83483177D01*
X116323709Y-83716818D01*
X116225148Y-83967947D01*
X116225142Y-83967966D01*
X116165113Y-84230971D01*
X116165113Y-84230973D01*
X116144953Y-84499995D01*
X115500500Y-84499995D01*
X115500500Y-75359998D01*
X133224838Y-75359998D01*
X133224838Y-75360001D01*
X133243450Y-75572741D01*
X133243452Y-75572752D01*
X133298721Y-75779022D01*
X133298723Y-75779026D01*
X133298724Y-75779030D01*
X133341171Y-75870058D01*
X133388977Y-75972578D01*
X133511472Y-76147521D01*
X133662478Y-76298527D01*
X133662481Y-76298529D01*
X133837419Y-76421021D01*
X133837421Y-76421022D01*
X133837420Y-76421022D01*
X133901936Y-76451106D01*
X134030970Y-76511276D01*
X134030983Y-76511279D01*
X134036064Y-76513130D01*
X134035292Y-76515250D01*
X134086710Y-76546594D01*
X134117237Y-76609442D01*
X134108939Y-76678817D01*
X134064452Y-76732693D01*
X134035685Y-76745830D01*
X134036064Y-76746870D01*
X134030972Y-76748723D01*
X134030970Y-76748724D01*
X134030968Y-76748725D01*
X133837421Y-76838977D01*
X133662478Y-76961472D01*
X133511472Y-77112478D01*
X133388977Y-77287421D01*
X133298725Y-77480968D01*
X133298721Y-77480977D01*
X133243452Y-77687247D01*
X133243450Y-77687258D01*
X133224838Y-77899998D01*
X133224838Y-77900001D01*
X133243450Y-78112741D01*
X133243452Y-78112752D01*
X133298721Y-78319022D01*
X133298723Y-78319026D01*
X133298724Y-78319030D01*
X133341171Y-78410058D01*
X133388977Y-78512578D01*
X133511472Y-78687521D01*
X133662478Y-78838527D01*
X133662481Y-78838529D01*
X133837419Y-78961021D01*
X133837421Y-78961022D01*
X133837420Y-78961022D01*
X133901936Y-78991106D01*
X134030970Y-79051276D01*
X134237253Y-79106549D01*
X134389215Y-79119844D01*
X134449998Y-79125162D01*
X134450000Y-79125162D01*
X134450002Y-79125162D01*
X134503186Y-79120508D01*
X134662747Y-79106549D01*
X134869030Y-79051276D01*
X135062581Y-78961021D01*
X135237519Y-78838529D01*
X135388529Y-78687519D01*
X135511021Y-78512581D01*
X135601276Y-78319030D01*
X135656549Y-78112747D01*
X135675162Y-77900000D01*
X135656549Y-77687253D01*
X135601276Y-77480970D01*
X135511021Y-77287419D01*
X135388529Y-77112481D01*
X135388527Y-77112478D01*
X135237521Y-76961472D01*
X135062578Y-76838977D01*
X135062579Y-76838977D01*
X134933547Y-76778809D01*
X134869030Y-76748724D01*
X134869023Y-76748722D01*
X134863936Y-76746870D01*
X134864709Y-76744746D01*
X134813305Y-76713424D01*
X134782766Y-76650581D01*
X134791050Y-76581204D01*
X134835528Y-76527320D01*
X134864315Y-76514172D01*
X134863936Y-76513130D01*
X134869013Y-76511280D01*
X134869030Y-76511276D01*
X135062581Y-76421021D01*
X135237519Y-76298529D01*
X135388529Y-76147519D01*
X135511021Y-75972581D01*
X135601276Y-75779030D01*
X135656549Y-75572747D01*
X135675162Y-75360000D01*
X135656549Y-75147253D01*
X135601276Y-74940970D01*
X135511021Y-74747419D01*
X135388529Y-74572481D01*
X135388527Y-74572478D01*
X135237521Y-74421472D01*
X135062578Y-74298977D01*
X135062579Y-74298977D01*
X134933547Y-74238809D01*
X134869030Y-74208724D01*
X134869023Y-74208722D01*
X134863936Y-74206870D01*
X134864606Y-74205028D01*
X134812293Y-74173114D01*
X134781789Y-74110255D01*
X134790111Y-74040883D01*
X134834617Y-73987022D01*
X134864097Y-73973574D01*
X134863764Y-73972658D01*
X134868864Y-73970801D01*
X135062325Y-73880589D01*
X135118030Y-73841583D01*
X134496447Y-73220000D01*
X134502661Y-73220000D01*
X134604394Y-73192741D01*
X134695606Y-73140080D01*
X134770080Y-73065606D01*
X134822741Y-72974394D01*
X134850000Y-72872661D01*
X134850000Y-72866446D01*
X135471583Y-73488029D01*
X135510589Y-73432325D01*
X135600801Y-73238864D01*
X135600805Y-73238853D01*
X135656054Y-73032662D01*
X135656055Y-73032654D01*
X135674660Y-72820002D01*
X135674660Y-72819997D01*
X135656055Y-72607345D01*
X135656054Y-72607337D01*
X135600805Y-72401146D01*
X135600802Y-72401140D01*
X135510586Y-72207669D01*
X135510582Y-72207663D01*
X135471584Y-72151968D01*
X134850000Y-72773552D01*
X134850000Y-72767339D01*
X134822741Y-72665606D01*
X134770080Y-72574394D01*
X134695606Y-72499920D01*
X134604394Y-72447259D01*
X134502661Y-72420000D01*
X134496447Y-72420000D01*
X135118030Y-71798415D01*
X135062329Y-71759413D01*
X134868859Y-71669197D01*
X134868853Y-71669194D01*
X134662662Y-71613945D01*
X134662654Y-71613944D01*
X134450002Y-71595340D01*
X134449998Y-71595340D01*
X134237345Y-71613944D01*
X134237337Y-71613945D01*
X134031146Y-71669194D01*
X134031140Y-71669197D01*
X133837671Y-71759412D01*
X133837669Y-71759413D01*
X133781969Y-71798415D01*
X133781968Y-71798415D01*
X134403554Y-72420000D01*
X134397339Y-72420000D01*
X134295606Y-72447259D01*
X134204394Y-72499920D01*
X134129920Y-72574394D01*
X134077259Y-72665606D01*
X134050000Y-72767339D01*
X134050000Y-72773553D01*
X133428415Y-72151968D01*
X133428415Y-72151969D01*
X133389413Y-72207669D01*
X133389412Y-72207671D01*
X133299197Y-72401140D01*
X133299194Y-72401146D01*
X133243945Y-72607337D01*
X133243944Y-72607345D01*
X133225340Y-72819997D01*
X133225340Y-72820002D01*
X133243944Y-73032654D01*
X133243945Y-73032662D01*
X133299194Y-73238853D01*
X133299197Y-73238859D01*
X133389413Y-73432329D01*
X133428415Y-73488030D01*
X134050000Y-72866445D01*
X134050000Y-72872661D01*
X134077259Y-72974394D01*
X134129920Y-73065606D01*
X134204394Y-73140080D01*
X134295606Y-73192741D01*
X134397339Y-73220000D01*
X134403554Y-73220000D01*
X133781968Y-73841584D01*
X133837663Y-73880582D01*
X133837669Y-73880586D01*
X134031140Y-73970802D01*
X134036236Y-73972658D01*
X134035542Y-73974563D01*
X134087647Y-74006302D01*
X134118196Y-74069139D01*
X134109922Y-74138518D01*
X134065454Y-74192409D01*
X134035744Y-74205991D01*
X134036064Y-74206870D01*
X134030972Y-74208723D01*
X134030970Y-74208724D01*
X134030968Y-74208725D01*
X133837421Y-74298977D01*
X133662478Y-74421472D01*
X133511472Y-74572478D01*
X133388977Y-74747421D01*
X133298725Y-74940968D01*
X133298721Y-74940977D01*
X133243452Y-75147247D01*
X133243450Y-75147258D01*
X133224838Y-75359998D01*
X115500500Y-75359998D01*
X115500500Y-59072626D01*
X115520185Y-59005587D01*
X115523400Y-59002801D01*
X115721054Y-59002801D01*
X115743477Y-59037691D01*
X115748360Y-59066726D01*
X115764447Y-59404450D01*
X115822071Y-59805231D01*
X115917531Y-60198722D01*
X115917534Y-60198733D01*
X116049956Y-60581340D01*
X116049966Y-60581365D01*
X116218168Y-60949675D01*
X116420621Y-61300335D01*
X116420627Y-61300343D01*
X116655485Y-61630154D01*
X116822985Y-61823460D01*
X118313098Y-60333347D01*
X118380076Y-60420635D01*
X118579365Y-60619924D01*
X118666650Y-60686900D01*
X117174928Y-62178622D01*
X117213676Y-62215568D01*
X117213695Y-62215585D01*
X117531968Y-62465877D01*
X117872594Y-62684782D01*
X118232485Y-62870319D01*
X118608383Y-63020806D01*
X118608395Y-63020810D01*
X118996882Y-63134880D01*
X118996899Y-63134884D01*
X119394460Y-63211508D01*
X119394472Y-63211510D01*
X119797554Y-63250000D01*
X120202446Y-63250000D01*
X120605527Y-63211510D01*
X120605539Y-63211508D01*
X121003100Y-63134884D01*
X121003117Y-63134880D01*
X121391604Y-63020810D01*
X121391616Y-63020806D01*
X121767507Y-62870322D01*
X121767511Y-62870320D01*
X122127406Y-62684782D01*
X122468031Y-62465877D01*
X122786314Y-62215578D01*
X122825069Y-62178622D01*
X121333348Y-60686901D01*
X121420635Y-60619924D01*
X121619924Y-60420635D01*
X121686901Y-60333348D01*
X123177012Y-61823459D01*
X123344512Y-61630156D01*
X123344523Y-61630143D01*
X123579372Y-61300343D01*
X123579378Y-61300335D01*
X123781831Y-60949675D01*
X123950033Y-60581365D01*
X123950043Y-60581340D01*
X124082465Y-60198733D01*
X124082468Y-60198722D01*
X124177928Y-59805231D01*
X124235552Y-59404450D01*
X124254818Y-59000000D01*
X124235552Y-58595549D01*
X124177928Y-58194768D01*
X124132038Y-58005608D01*
X150499500Y-58005608D01*
X150499500Y-76137392D01*
X150502214Y-76147521D01*
X150533608Y-76264687D01*
X150553146Y-76298527D01*
X150599500Y-76378814D01*
X150692686Y-76472000D01*
X150806814Y-76537892D01*
X150934108Y-76572000D01*
X150934110Y-76572000D01*
X162065890Y-76572000D01*
X162065892Y-76572000D01*
X162193186Y-76537892D01*
X162307314Y-76472000D01*
X162400500Y-76378814D01*
X162466392Y-76264686D01*
X162500500Y-76137392D01*
X162500500Y-67919995D01*
X186544953Y-67919995D01*
X186544953Y-67920004D01*
X186565113Y-68189026D01*
X186565113Y-68189028D01*
X186625142Y-68452033D01*
X186625148Y-68452052D01*
X186723709Y-68703181D01*
X186723708Y-68703181D01*
X186858600Y-68936818D01*
X186912294Y-69004150D01*
X186912295Y-69004150D01*
X187634152Y-68282292D01*
X187641049Y-68298942D01*
X187728599Y-68429970D01*
X187840030Y-68541401D01*
X187971058Y-68628951D01*
X187987705Y-68635846D01*
X187264848Y-69358703D01*
X187447476Y-69483216D01*
X187447485Y-69483221D01*
X187690539Y-69600269D01*
X187690537Y-69600269D01*
X187948337Y-69679790D01*
X187948343Y-69679792D01*
X188215101Y-69719999D01*
X188215110Y-69720000D01*
X188484890Y-69720000D01*
X188484898Y-69719999D01*
X188751656Y-69679792D01*
X188751662Y-69679790D01*
X189009458Y-69600270D01*
X189227927Y-69495061D01*
X189296869Y-69483709D01*
X189361003Y-69511431D01*
X189399969Y-69569426D01*
X189401394Y-69639281D01*
X189397158Y-69652081D01*
X189312583Y-69867578D01*
X189312578Y-69867590D01*
X189312576Y-69867597D01*
X189254197Y-70123374D01*
X189254196Y-70123379D01*
X189234592Y-70384995D01*
X189234592Y-70385004D01*
X189254196Y-70646620D01*
X189254197Y-70646625D01*
X189312576Y-70902402D01*
X189312582Y-70902421D01*
X189408432Y-71146643D01*
X189514256Y-71329937D01*
X189530729Y-71397837D01*
X189507876Y-71463864D01*
X189452955Y-71507055D01*
X189383402Y-71513696D01*
X189337017Y-71494390D01*
X189252526Y-71436784D01*
X189252516Y-71436778D01*
X189009460Y-71319730D01*
X189009462Y-71319730D01*
X188751662Y-71240209D01*
X188751656Y-71240207D01*
X188484898Y-71200000D01*
X188215101Y-71200000D01*
X187948343Y-71240207D01*
X187948337Y-71240209D01*
X187690538Y-71319730D01*
X187447482Y-71436780D01*
X187447469Y-71436787D01*
X187264848Y-71561294D01*
X187987706Y-72284152D01*
X187971058Y-72291049D01*
X187840030Y-72378599D01*
X187728599Y-72490030D01*
X187641049Y-72621058D01*
X187634152Y-72637706D01*
X186912294Y-71915848D01*
X186858602Y-71983177D01*
X186723709Y-72216818D01*
X186625148Y-72467947D01*
X186625142Y-72467966D01*
X186565113Y-72730971D01*
X186565113Y-72730973D01*
X186544953Y-72999995D01*
X186544953Y-73000004D01*
X186565113Y-73269026D01*
X186565113Y-73269028D01*
X186625142Y-73532033D01*
X186625148Y-73532052D01*
X186723709Y-73783181D01*
X186723708Y-73783181D01*
X186858600Y-74016818D01*
X186912294Y-74084150D01*
X186912295Y-74084150D01*
X187634152Y-73362292D01*
X187641049Y-73378942D01*
X187728599Y-73509970D01*
X187840030Y-73621401D01*
X187971058Y-73708951D01*
X187987706Y-73715846D01*
X187264848Y-74438703D01*
X187447476Y-74563216D01*
X187447485Y-74563221D01*
X187690539Y-74680269D01*
X187690537Y-74680269D01*
X187948337Y-74759790D01*
X187948343Y-74759792D01*
X188215101Y-74799999D01*
X188215110Y-74800000D01*
X188484890Y-74800000D01*
X188484898Y-74799999D01*
X188751656Y-74759792D01*
X188751662Y-74759790D01*
X189009461Y-74680269D01*
X189252516Y-74563221D01*
X189252517Y-74563220D01*
X189435150Y-74438703D01*
X188712293Y-73715847D01*
X188728942Y-73708951D01*
X188859970Y-73621401D01*
X188971401Y-73509970D01*
X189058951Y-73378942D01*
X189065847Y-73362293D01*
X189787703Y-74084150D01*
X189787704Y-74084149D01*
X189841400Y-74016818D01*
X189976290Y-73783181D01*
X190074851Y-73532052D01*
X190074857Y-73532033D01*
X190134886Y-73269028D01*
X190134886Y-73269026D01*
X190155047Y-73000004D01*
X190155047Y-72999995D01*
X190134886Y-72730973D01*
X190134886Y-72730971D01*
X190074857Y-72467966D01*
X190074851Y-72467947D01*
X189976290Y-72216818D01*
X189976291Y-72216818D01*
X189862961Y-72020527D01*
X189846488Y-71952627D01*
X189869340Y-71886600D01*
X189924261Y-71843410D01*
X189993815Y-71836768D01*
X190040197Y-71856071D01*
X190112296Y-71905228D01*
X190112301Y-71905230D01*
X190112302Y-71905231D01*
X190112303Y-71905232D01*
X190210721Y-71952627D01*
X190348673Y-72019061D01*
X190348674Y-72019061D01*
X190348677Y-72019063D01*
X190599385Y-72096396D01*
X190858818Y-72135500D01*
X191121182Y-72135500D01*
X191380615Y-72096396D01*
X191631323Y-72019063D01*
X191666056Y-72002336D01*
X191734994Y-71990985D01*
X191799128Y-72018706D01*
X191838094Y-72076701D01*
X191839520Y-72146556D01*
X191827243Y-72176056D01*
X191803708Y-72216820D01*
X191705148Y-72467947D01*
X191705142Y-72467966D01*
X191645113Y-72730971D01*
X191645113Y-72730973D01*
X191624953Y-72999995D01*
X191624953Y-73000004D01*
X191645113Y-73269026D01*
X191645113Y-73269028D01*
X191705142Y-73532033D01*
X191705148Y-73532052D01*
X191803709Y-73783181D01*
X191803708Y-73783181D01*
X191938600Y-74016818D01*
X191992294Y-74084150D01*
X192714152Y-73362292D01*
X192721049Y-73378942D01*
X192808599Y-73509970D01*
X192920030Y-73621401D01*
X193051058Y-73708951D01*
X193067706Y-73715846D01*
X192344848Y-74438703D01*
X192527476Y-74563216D01*
X192527485Y-74563221D01*
X192770539Y-74680269D01*
X192770537Y-74680269D01*
X193028337Y-74759790D01*
X193028343Y-74759792D01*
X193295101Y-74799999D01*
X193295110Y-74800000D01*
X193564890Y-74800000D01*
X193564898Y-74799999D01*
X193831656Y-74759792D01*
X193831662Y-74759790D01*
X194089461Y-74680269D01*
X194332516Y-74563221D01*
X194332517Y-74563220D01*
X194515150Y-74438703D01*
X193792293Y-73715847D01*
X193808942Y-73708951D01*
X193939970Y-73621401D01*
X194051401Y-73509970D01*
X194138951Y-73378942D01*
X194145847Y-73362293D01*
X194867703Y-74084150D01*
X194867704Y-74084149D01*
X194921400Y-74016818D01*
X195056290Y-73783181D01*
X195154851Y-73532052D01*
X195154857Y-73532033D01*
X195214886Y-73269028D01*
X195214886Y-73269026D01*
X195235047Y-73000004D01*
X195235047Y-72999995D01*
X195214886Y-72730973D01*
X195214886Y-72730971D01*
X195154857Y-72467966D01*
X195154851Y-72467947D01*
X195056290Y-72216818D01*
X195056291Y-72216818D01*
X194921400Y-71983182D01*
X194921393Y-71983171D01*
X194867704Y-71915849D01*
X194867703Y-71915848D01*
X194145846Y-72637705D01*
X194138951Y-72621058D01*
X194051401Y-72490030D01*
X193939970Y-72378599D01*
X193808942Y-72291049D01*
X193792292Y-72284152D01*
X194515150Y-71561295D01*
X194332524Y-71436783D01*
X194332516Y-71436778D01*
X194089460Y-71319730D01*
X194089462Y-71319730D01*
X193831662Y-71240209D01*
X193831656Y-71240207D01*
X193564898Y-71200000D01*
X193295101Y-71200000D01*
X193028343Y-71240207D01*
X193028337Y-71240209D01*
X192770544Y-71319728D01*
X192718711Y-71344690D01*
X192649769Y-71356041D01*
X192585635Y-71328318D01*
X192546670Y-71270323D01*
X192545245Y-71200468D01*
X192557522Y-71170970D01*
X192571568Y-71146643D01*
X192667420Y-70902416D01*
X192725802Y-70646630D01*
X192745408Y-70385000D01*
X192725802Y-70123370D01*
X192667420Y-69867584D01*
X192627923Y-69766949D01*
X192621755Y-69697353D01*
X192654193Y-69635470D01*
X192714938Y-69600947D01*
X192779902Y-69603157D01*
X193028337Y-69679790D01*
X193028343Y-69679792D01*
X193295101Y-69719999D01*
X193295110Y-69720000D01*
X193564890Y-69720000D01*
X193564898Y-69719999D01*
X193831656Y-69679792D01*
X193831662Y-69679790D01*
X194089461Y-69600269D01*
X194332516Y-69483221D01*
X194332517Y-69483220D01*
X194515150Y-69358703D01*
X193792293Y-68635847D01*
X193808942Y-68628951D01*
X193939970Y-68541401D01*
X194051401Y-68429970D01*
X194138951Y-68298942D01*
X194145847Y-68282293D01*
X194867703Y-69004150D01*
X194867704Y-69004149D01*
X194921400Y-68936818D01*
X195056290Y-68703181D01*
X195154851Y-68452052D01*
X195154857Y-68452033D01*
X195214886Y-68189028D01*
X195214886Y-68189026D01*
X195235047Y-67920004D01*
X195235047Y-67919995D01*
X195214886Y-67650973D01*
X195214886Y-67650971D01*
X195154857Y-67387966D01*
X195154851Y-67387947D01*
X195056290Y-67136818D01*
X195056291Y-67136818D01*
X194921400Y-66903182D01*
X194921393Y-66903171D01*
X194867704Y-66835849D01*
X194867703Y-66835848D01*
X194145846Y-67557705D01*
X194138951Y-67541058D01*
X194051401Y-67410030D01*
X193939970Y-67298599D01*
X193808942Y-67211049D01*
X193792293Y-67204152D01*
X194515150Y-66481295D01*
X194332524Y-66356783D01*
X194332516Y-66356778D01*
X194089460Y-66239730D01*
X194089462Y-66239730D01*
X193831662Y-66160209D01*
X193831656Y-66160207D01*
X193564898Y-66120000D01*
X193295101Y-66120000D01*
X193028343Y-66160207D01*
X193028337Y-66160209D01*
X192770538Y-66239730D01*
X192527482Y-66356780D01*
X192527469Y-66356787D01*
X192344848Y-66481294D01*
X193067706Y-67204152D01*
X193051058Y-67211049D01*
X192920030Y-67298599D01*
X192808599Y-67410030D01*
X192721049Y-67541058D01*
X192714152Y-67557706D01*
X191992294Y-66835848D01*
X191938602Y-66903177D01*
X191803709Y-67136818D01*
X191705148Y-67387947D01*
X191705142Y-67387966D01*
X191645113Y-67650971D01*
X191645113Y-67650973D01*
X191624953Y-67919995D01*
X191624953Y-67920004D01*
X191645113Y-68189026D01*
X191645113Y-68189028D01*
X191705142Y-68452033D01*
X191705148Y-68452052D01*
X191754706Y-68578324D01*
X191760875Y-68647921D01*
X191728437Y-68709804D01*
X191667692Y-68744327D01*
X191602729Y-68742117D01*
X191497973Y-68709804D01*
X191380623Y-68673606D01*
X191380619Y-68673605D01*
X191380615Y-68673604D01*
X191255823Y-68654794D01*
X191121187Y-68634500D01*
X191121182Y-68634500D01*
X190858818Y-68634500D01*
X190858812Y-68634500D01*
X190697247Y-68658853D01*
X190599385Y-68673604D01*
X190599382Y-68673605D01*
X190599376Y-68673606D01*
X190348673Y-68750938D01*
X190151052Y-68846107D01*
X190082111Y-68857459D01*
X190017976Y-68829736D01*
X189979011Y-68771741D01*
X189977586Y-68701886D01*
X189981823Y-68689085D01*
X190074851Y-68452052D01*
X190074857Y-68452033D01*
X190134886Y-68189028D01*
X190134886Y-68189026D01*
X190155047Y-67920004D01*
X190155047Y-67919995D01*
X190134886Y-67650973D01*
X190134886Y-67650971D01*
X190074857Y-67387966D01*
X190074851Y-67387947D01*
X189976290Y-67136818D01*
X189976291Y-67136818D01*
X189841400Y-66903182D01*
X189841393Y-66903171D01*
X189787704Y-66835849D01*
X189787703Y-66835848D01*
X189065846Y-67557705D01*
X189058951Y-67541058D01*
X188971401Y-67410030D01*
X188859970Y-67298599D01*
X188728942Y-67211049D01*
X188712293Y-67204152D01*
X189435150Y-66481295D01*
X189252524Y-66356783D01*
X189252516Y-66356778D01*
X189009460Y-66239730D01*
X189009462Y-66239730D01*
X188751662Y-66160209D01*
X188751656Y-66160207D01*
X188484898Y-66120000D01*
X188215101Y-66120000D01*
X187948343Y-66160207D01*
X187948337Y-66160209D01*
X187690538Y-66239730D01*
X187447482Y-66356780D01*
X187447469Y-66356787D01*
X187264848Y-66481294D01*
X187987706Y-67204152D01*
X187971058Y-67211049D01*
X187840030Y-67298599D01*
X187728599Y-67410030D01*
X187641049Y-67541058D01*
X187634152Y-67557706D01*
X186912294Y-66835848D01*
X186858602Y-66903177D01*
X186723709Y-67136818D01*
X186625148Y-67387947D01*
X186625142Y-67387966D01*
X186565113Y-67650971D01*
X186565113Y-67650973D01*
X186544953Y-67919995D01*
X162500500Y-67919995D01*
X162500500Y-59000000D01*
X187745181Y-59000000D01*
X187764447Y-59404450D01*
X187822071Y-59805231D01*
X187917531Y-60198722D01*
X187917534Y-60198733D01*
X188049956Y-60581340D01*
X188049966Y-60581365D01*
X188218168Y-60949675D01*
X188420621Y-61300335D01*
X188420627Y-61300343D01*
X188655485Y-61630154D01*
X188822985Y-61823460D01*
X190313098Y-60333347D01*
X190380076Y-60420635D01*
X190579365Y-60619924D01*
X190666650Y-60686900D01*
X189174928Y-62178622D01*
X189213676Y-62215568D01*
X189213695Y-62215585D01*
X189531968Y-62465877D01*
X189872594Y-62684782D01*
X190232485Y-62870319D01*
X190608383Y-63020806D01*
X190608395Y-63020810D01*
X190996882Y-63134880D01*
X190996899Y-63134884D01*
X191394460Y-63211508D01*
X191394472Y-63211510D01*
X191797554Y-63250000D01*
X192202446Y-63250000D01*
X192605527Y-63211510D01*
X192605539Y-63211508D01*
X193003100Y-63134884D01*
X193003117Y-63134880D01*
X193391604Y-63020810D01*
X193391616Y-63020806D01*
X193767507Y-62870322D01*
X193767511Y-62870320D01*
X194127406Y-62684782D01*
X194468031Y-62465877D01*
X194786314Y-62215578D01*
X194825069Y-62178622D01*
X193333348Y-60686901D01*
X193420635Y-60619924D01*
X193619924Y-60420635D01*
X193686901Y-60333348D01*
X195177012Y-61823459D01*
X195344512Y-61630156D01*
X195344523Y-61630143D01*
X195579372Y-61300343D01*
X195579378Y-61300335D01*
X195781831Y-60949675D01*
X195950033Y-60581365D01*
X195950043Y-60581340D01*
X196082465Y-60198733D01*
X196082468Y-60198722D01*
X196177928Y-59805231D01*
X196235552Y-59404450D01*
X196251640Y-59066726D01*
X196274493Y-59000699D01*
X196278945Y-58997197D01*
X196256523Y-58962308D01*
X196251640Y-58933273D01*
X196235552Y-58595549D01*
X196177928Y-58194768D01*
X196082468Y-57801277D01*
X196082465Y-57801266D01*
X195950043Y-57418659D01*
X195950033Y-57418634D01*
X195781831Y-57050324D01*
X195579378Y-56699664D01*
X195579372Y-56699656D01*
X195344523Y-56369856D01*
X195344512Y-56369843D01*
X195177013Y-56176538D01*
X193686900Y-57666650D01*
X193619924Y-57579365D01*
X193420635Y-57380076D01*
X193333347Y-57313098D01*
X194825070Y-55821376D01*
X194786323Y-55784431D01*
X194786304Y-55784414D01*
X194468031Y-55534122D01*
X194127406Y-55315217D01*
X193767511Y-55129679D01*
X193767507Y-55129677D01*
X193391616Y-54979193D01*
X193391604Y-54979189D01*
X193003117Y-54865119D01*
X193003100Y-54865115D01*
X192605539Y-54788491D01*
X192605527Y-54788489D01*
X192202446Y-54750000D01*
X191797554Y-54750000D01*
X191394472Y-54788489D01*
X191394460Y-54788491D01*
X190996899Y-54865115D01*
X190996882Y-54865119D01*
X190608395Y-54979189D01*
X190608383Y-54979193D01*
X190232485Y-55129680D01*
X189872594Y-55315217D01*
X189531968Y-55534122D01*
X189213685Y-55784421D01*
X189213673Y-55784432D01*
X189174929Y-55821375D01*
X189174929Y-55821376D01*
X190666651Y-57313098D01*
X190579365Y-57380076D01*
X190380076Y-57579365D01*
X190313098Y-57666651D01*
X188822986Y-56176539D01*
X188655485Y-56369845D01*
X188420627Y-56699656D01*
X188420621Y-56699664D01*
X188218168Y-57050324D01*
X188049966Y-57418634D01*
X188049956Y-57418659D01*
X187917534Y-57801266D01*
X187917531Y-57801277D01*
X187822071Y-58194768D01*
X187764447Y-58595549D01*
X187745181Y-59000000D01*
X162500500Y-59000000D01*
X162500500Y-58005608D01*
X162466392Y-57878314D01*
X162400500Y-57764186D01*
X162307314Y-57671000D01*
X162250250Y-57638054D01*
X162193187Y-57605108D01*
X162129539Y-57588054D01*
X162065892Y-57571000D01*
X151065892Y-57571000D01*
X150934108Y-57571000D01*
X150806812Y-57605108D01*
X150692686Y-57671000D01*
X150692683Y-57671002D01*
X150599502Y-57764183D01*
X150599500Y-57764186D01*
X150533608Y-57878312D01*
X150499500Y-58005608D01*
X124132038Y-58005608D01*
X124082468Y-57801277D01*
X124082465Y-57801266D01*
X123950043Y-57418659D01*
X123950033Y-57418634D01*
X123781831Y-57050324D01*
X123579378Y-56699664D01*
X123579372Y-56699656D01*
X123344523Y-56369856D01*
X123344512Y-56369843D01*
X123177013Y-56176538D01*
X121686900Y-57666650D01*
X121619924Y-57579365D01*
X121420635Y-57380076D01*
X121333347Y-57313098D01*
X122825070Y-55821376D01*
X122786323Y-55784431D01*
X122786304Y-55784414D01*
X122468031Y-55534122D01*
X122127406Y-55315217D01*
X121767511Y-55129679D01*
X121767507Y-55129677D01*
X121391616Y-54979193D01*
X121391604Y-54979189D01*
X121003117Y-54865119D01*
X121003100Y-54865115D01*
X120605539Y-54788491D01*
X120605527Y-54788489D01*
X120202446Y-54750000D01*
X119797554Y-54750000D01*
X119394472Y-54788489D01*
X119394460Y-54788491D01*
X118996899Y-54865115D01*
X118996882Y-54865119D01*
X118608395Y-54979189D01*
X118608383Y-54979193D01*
X118232485Y-55129680D01*
X117872594Y-55315217D01*
X117531968Y-55534122D01*
X117213685Y-55784421D01*
X117213673Y-55784432D01*
X117174929Y-55821375D01*
X117174929Y-55821376D01*
X118666651Y-57313098D01*
X118579365Y-57380076D01*
X118380076Y-57579365D01*
X118313098Y-57666651D01*
X116822986Y-56176539D01*
X116655485Y-56369845D01*
X116420627Y-56699656D01*
X116420621Y-56699664D01*
X116218168Y-57050324D01*
X116049966Y-57418634D01*
X116049956Y-57418659D01*
X115917534Y-57801266D01*
X115917531Y-57801277D01*
X115822071Y-58194768D01*
X115764447Y-58595549D01*
X115748360Y-58933273D01*
X115725507Y-58999300D01*
X115721054Y-59002801D01*
X115523400Y-59002801D01*
X115528242Y-58998605D01*
X115503995Y-58956607D01*
X115500500Y-58927373D01*
X115500500Y-54624500D01*
X115520185Y-54557461D01*
X115572989Y-54511706D01*
X115624500Y-54500500D01*
X196375500Y-54500500D01*
X196442539Y-54520185D01*
G37*
G04 #@! TD.AperFunction*
M02*
