G04 #@! TF.GenerationSoftware,KiCad,Pcbnew,8.0.7*
G04 #@! TF.CreationDate,2024-12-22T13:03:24-05:00*
G04 #@! TF.ProjectId,t41_2_power_amplifier,7434315f-325f-4706-9f77-65725f616d70,rev?*
G04 #@! TF.SameCoordinates,Original*
G04 #@! TF.FileFunction,Legend,Top*
G04 #@! TF.FilePolarity,Positive*
%FSLAX46Y46*%
G04 Gerber Fmt 4.6, Leading zero omitted, Abs format (unit mm)*
G04 Created by KiCad (PCBNEW 8.0.7) date 2024-12-22 13:03:24*
%MOMM*%
%LPD*%
G01*
G04 APERTURE LIST*
G04 Aperture macros list*
%AMRoundRect*
0 Rectangle with rounded corners*
0 $1 Rounding radius*
0 $2 $3 $4 $5 $6 $7 $8 $9 X,Y pos of 4 corners*
0 Add a 4 corners polygon primitive as box body*
4,1,4,$2,$3,$4,$5,$6,$7,$8,$9,$2,$3,0*
0 Add four circle primitives for the rounded corners*
1,1,$1+$1,$2,$3*
1,1,$1+$1,$4,$5*
1,1,$1+$1,$6,$7*
1,1,$1+$1,$8,$9*
0 Add four rect primitives between the rounded corners*
20,1,$1+$1,$2,$3,$4,$5,0*
20,1,$1+$1,$4,$5,$6,$7,0*
20,1,$1+$1,$6,$7,$8,$9,0*
20,1,$1+$1,$8,$9,$2,$3,0*%
G04 Aperture macros list end*
%ADD10C,0.150000*%
%ADD11C,0.200000*%
%ADD12C,0.100000*%
%ADD13C,0.050000*%
%ADD14C,0.120000*%
%ADD15C,0.127000*%
%ADD16C,2.000000*%
%ADD17RoundRect,0.250000X0.625000X-0.312500X0.625000X0.312500X-0.625000X0.312500X-0.625000X-0.312500X0*%
%ADD18RoundRect,0.150000X0.150000X-0.512500X0.150000X0.512500X-0.150000X0.512500X-0.150000X-0.512500X0*%
%ADD19RoundRect,0.250000X0.325000X0.650000X-0.325000X0.650000X-0.325000X-0.650000X0.325000X-0.650000X0*%
%ADD20RoundRect,0.250000X-1.500000X-0.550000X1.500000X-0.550000X1.500000X0.550000X-1.500000X0.550000X0*%
%ADD21C,1.440000*%
%ADD22RoundRect,0.250000X-0.650000X0.325000X-0.650000X-0.325000X0.650000X-0.325000X0.650000X0.325000X0*%
%ADD23RoundRect,0.250000X-0.325000X-0.650000X0.325000X-0.650000X0.325000X0.650000X-0.325000X0.650000X0*%
%ADD24RoundRect,0.250000X-0.312500X-0.625000X0.312500X-0.625000X0.312500X0.625000X-0.312500X0.625000X0*%
%ADD25RoundRect,0.250000X0.650000X-0.325000X0.650000X0.325000X-0.650000X0.325000X-0.650000X-0.325000X0*%
%ADD26RoundRect,0.250000X-1.400000X-1.000000X1.400000X-1.000000X1.400000X1.000000X-1.400000X1.000000X0*%
%ADD27RoundRect,0.102000X-0.785000X-1.410000X0.785000X-1.410000X0.785000X1.410000X-0.785000X1.410000X0*%
%ADD28RoundRect,0.250000X-0.550000X1.500000X-0.550000X-1.500000X0.550000X-1.500000X0.550000X1.500000X0*%
%ADD29R,1.524000X3.900000*%
%ADD30C,7.500000*%
%ADD31RoundRect,0.102000X0.735000X-1.385000X0.735000X1.385000X-0.735000X1.385000X-0.735000X-1.385000X0*%
%ADD32C,2.600000*%
%ADD33C,2.500000*%
%ADD34RoundRect,0.102000X-1.385000X-0.735000X1.385000X-0.735000X1.385000X0.735000X-1.385000X0.735000X0*%
%ADD35R,2.400000X2.400000*%
%ADD36C,2.400000*%
%ADD37C,2.100000*%
%ADD38RoundRect,0.250000X-0.275000X-0.700000X0.275000X-0.700000X0.275000X0.700000X-0.275000X0.700000X0*%
%ADD39RoundRect,0.250000X-0.625000X0.312500X-0.625000X-0.312500X0.625000X-0.312500X0.625000X0.312500X0*%
G04 APERTURE END LIST*
D10*
X178541541Y-70708628D02*
X178827255Y-70708628D01*
X178827255Y-70708628D02*
X178970112Y-70780057D01*
X178970112Y-70780057D02*
X179112969Y-70922914D01*
X179112969Y-70922914D02*
X179184398Y-71208628D01*
X179184398Y-71208628D02*
X179184398Y-71708628D01*
X179184398Y-71708628D02*
X179112969Y-71994342D01*
X179112969Y-71994342D02*
X178970112Y-72137200D01*
X178970112Y-72137200D02*
X178827255Y-72208628D01*
X178827255Y-72208628D02*
X178541541Y-72208628D01*
X178541541Y-72208628D02*
X178398684Y-72137200D01*
X178398684Y-72137200D02*
X178255826Y-71994342D01*
X178255826Y-71994342D02*
X178184398Y-71708628D01*
X178184398Y-71708628D02*
X178184398Y-71208628D01*
X178184398Y-71208628D02*
X178255826Y-70922914D01*
X178255826Y-70922914D02*
X178398684Y-70780057D01*
X178398684Y-70780057D02*
X178541541Y-70708628D01*
X179827255Y-70708628D02*
X179827255Y-71922914D01*
X179827255Y-71922914D02*
X179898684Y-72065771D01*
X179898684Y-72065771D02*
X179970113Y-72137200D01*
X179970113Y-72137200D02*
X180112970Y-72208628D01*
X180112970Y-72208628D02*
X180398684Y-72208628D01*
X180398684Y-72208628D02*
X180541541Y-72137200D01*
X180541541Y-72137200D02*
X180612970Y-72065771D01*
X180612970Y-72065771D02*
X180684398Y-71922914D01*
X180684398Y-71922914D02*
X180684398Y-70708628D01*
X181184399Y-70708628D02*
X182041542Y-70708628D01*
X181612970Y-72208628D02*
X181612970Y-70708628D01*
X182541541Y-72208628D02*
X182541541Y-70708628D01*
X182541541Y-70708628D02*
X183112970Y-70708628D01*
X183112970Y-70708628D02*
X183255827Y-70780057D01*
X183255827Y-70780057D02*
X183327256Y-70851485D01*
X183327256Y-70851485D02*
X183398684Y-70994342D01*
X183398684Y-70994342D02*
X183398684Y-71208628D01*
X183398684Y-71208628D02*
X183327256Y-71351485D01*
X183327256Y-71351485D02*
X183255827Y-71422914D01*
X183255827Y-71422914D02*
X183112970Y-71494342D01*
X183112970Y-71494342D02*
X182541541Y-71494342D01*
X184041541Y-70708628D02*
X184041541Y-71922914D01*
X184041541Y-71922914D02*
X184112970Y-72065771D01*
X184112970Y-72065771D02*
X184184399Y-72137200D01*
X184184399Y-72137200D02*
X184327256Y-72208628D01*
X184327256Y-72208628D02*
X184612970Y-72208628D01*
X184612970Y-72208628D02*
X184755827Y-72137200D01*
X184755827Y-72137200D02*
X184827256Y-72065771D01*
X184827256Y-72065771D02*
X184898684Y-71922914D01*
X184898684Y-71922914D02*
X184898684Y-70708628D01*
X185398685Y-70708628D02*
X186255828Y-70708628D01*
X185827256Y-72208628D02*
X185827256Y-70708628D01*
D11*
X115769673Y-127686266D02*
X116531578Y-127686266D01*
X116150625Y-128067219D02*
X116150625Y-127305314D01*
D10*
X123516541Y-137758628D02*
X122659398Y-137758628D01*
X123087969Y-137758628D02*
X123087969Y-136258628D01*
X123087969Y-136258628D02*
X122945112Y-136472914D01*
X122945112Y-136472914D02*
X122802255Y-136615771D01*
X122802255Y-136615771D02*
X122659398Y-136687200D01*
X124016540Y-136258628D02*
X124945112Y-136258628D01*
X124945112Y-136258628D02*
X124445112Y-136830057D01*
X124445112Y-136830057D02*
X124659397Y-136830057D01*
X124659397Y-136830057D02*
X124802255Y-136901485D01*
X124802255Y-136901485D02*
X124873683Y-136972914D01*
X124873683Y-136972914D02*
X124945112Y-137115771D01*
X124945112Y-137115771D02*
X124945112Y-137472914D01*
X124945112Y-137472914D02*
X124873683Y-137615771D01*
X124873683Y-137615771D02*
X124802255Y-137687200D01*
X124802255Y-137687200D02*
X124659397Y-137758628D01*
X124659397Y-137758628D02*
X124230826Y-137758628D01*
X124230826Y-137758628D02*
X124087969Y-137687200D01*
X124087969Y-137687200D02*
X124016540Y-137615771D01*
X125587968Y-137615771D02*
X125659397Y-137687200D01*
X125659397Y-137687200D02*
X125587968Y-137758628D01*
X125587968Y-137758628D02*
X125516540Y-137687200D01*
X125516540Y-137687200D02*
X125587968Y-137615771D01*
X125587968Y-137615771D02*
X125587968Y-137758628D01*
X126945112Y-136758628D02*
X126945112Y-137758628D01*
X126587969Y-136187200D02*
X126230826Y-137258628D01*
X126230826Y-137258628D02*
X127159397Y-137258628D01*
X128659397Y-136258628D02*
X129159397Y-137758628D01*
X129159397Y-137758628D02*
X129659397Y-136258628D01*
X130445111Y-136258628D02*
X130730825Y-136258628D01*
X130730825Y-136258628D02*
X130873682Y-136330057D01*
X130873682Y-136330057D02*
X131016539Y-136472914D01*
X131016539Y-136472914D02*
X131087968Y-136758628D01*
X131087968Y-136758628D02*
X131087968Y-137258628D01*
X131087968Y-137258628D02*
X131016539Y-137544342D01*
X131016539Y-137544342D02*
X130873682Y-137687200D01*
X130873682Y-137687200D02*
X130730825Y-137758628D01*
X130730825Y-137758628D02*
X130445111Y-137758628D01*
X130445111Y-137758628D02*
X130302254Y-137687200D01*
X130302254Y-137687200D02*
X130159396Y-137544342D01*
X130159396Y-137544342D02*
X130087968Y-137258628D01*
X130087968Y-137258628D02*
X130087968Y-136758628D01*
X130087968Y-136758628D02*
X130159396Y-136472914D01*
X130159396Y-136472914D02*
X130302254Y-136330057D01*
X130302254Y-136330057D02*
X130445111Y-136258628D01*
X132445111Y-137758628D02*
X131730825Y-137758628D01*
X131730825Y-137758628D02*
X131730825Y-136258628D01*
X132730826Y-136258628D02*
X133587969Y-136258628D01*
X133159397Y-137758628D02*
X133159397Y-136258628D01*
X134016540Y-137687200D02*
X134230826Y-137758628D01*
X134230826Y-137758628D02*
X134587968Y-137758628D01*
X134587968Y-137758628D02*
X134730826Y-137687200D01*
X134730826Y-137687200D02*
X134802254Y-137615771D01*
X134802254Y-137615771D02*
X134873683Y-137472914D01*
X134873683Y-137472914D02*
X134873683Y-137330057D01*
X134873683Y-137330057D02*
X134802254Y-137187200D01*
X134802254Y-137187200D02*
X134730826Y-137115771D01*
X134730826Y-137115771D02*
X134587968Y-137044342D01*
X134587968Y-137044342D02*
X134302254Y-136972914D01*
X134302254Y-136972914D02*
X134159397Y-136901485D01*
X134159397Y-136901485D02*
X134087968Y-136830057D01*
X134087968Y-136830057D02*
X134016540Y-136687200D01*
X134016540Y-136687200D02*
X134016540Y-136544342D01*
X134016540Y-136544342D02*
X134087968Y-136401485D01*
X134087968Y-136401485D02*
X134159397Y-136330057D01*
X134159397Y-136330057D02*
X134302254Y-136258628D01*
X134302254Y-136258628D02*
X134659397Y-136258628D01*
X134659397Y-136258628D02*
X134873683Y-136330057D01*
D11*
X115769673Y-132686266D02*
X116531578Y-132686266D01*
D10*
X137779636Y-112948390D02*
X137684398Y-112900771D01*
X137684398Y-112900771D02*
X137636779Y-112853152D01*
X137636779Y-112853152D02*
X137589160Y-112757914D01*
X137589160Y-112757914D02*
X137589160Y-112710295D01*
X137589160Y-112710295D02*
X137636779Y-112615057D01*
X137636779Y-112615057D02*
X137684398Y-112567438D01*
X137684398Y-112567438D02*
X137779636Y-112519819D01*
X137779636Y-112519819D02*
X137970112Y-112519819D01*
X137970112Y-112519819D02*
X138065350Y-112567438D01*
X138065350Y-112567438D02*
X138112969Y-112615057D01*
X138112969Y-112615057D02*
X138160588Y-112710295D01*
X138160588Y-112710295D02*
X138160588Y-112757914D01*
X138160588Y-112757914D02*
X138112969Y-112853152D01*
X138112969Y-112853152D02*
X138065350Y-112900771D01*
X138065350Y-112900771D02*
X137970112Y-112948390D01*
X137970112Y-112948390D02*
X137779636Y-112948390D01*
X137779636Y-112948390D02*
X137684398Y-112996009D01*
X137684398Y-112996009D02*
X137636779Y-113043628D01*
X137636779Y-113043628D02*
X137589160Y-113138866D01*
X137589160Y-113138866D02*
X137589160Y-113329342D01*
X137589160Y-113329342D02*
X137636779Y-113424580D01*
X137636779Y-113424580D02*
X137684398Y-113472200D01*
X137684398Y-113472200D02*
X137779636Y-113519819D01*
X137779636Y-113519819D02*
X137970112Y-113519819D01*
X137970112Y-113519819D02*
X138065350Y-113472200D01*
X138065350Y-113472200D02*
X138112969Y-113424580D01*
X138112969Y-113424580D02*
X138160588Y-113329342D01*
X138160588Y-113329342D02*
X138160588Y-113138866D01*
X138160588Y-113138866D02*
X138112969Y-113043628D01*
X138112969Y-113043628D02*
X138065350Y-112996009D01*
X138065350Y-112996009D02*
X137970112Y-112948390D01*
X139208208Y-112519819D02*
X139541541Y-113519819D01*
X139541541Y-113519819D02*
X139874874Y-112519819D01*
X140398684Y-112519819D02*
X140589160Y-112519819D01*
X140589160Y-112519819D02*
X140684398Y-112567438D01*
X140684398Y-112567438D02*
X140779636Y-112662676D01*
X140779636Y-112662676D02*
X140827255Y-112853152D01*
X140827255Y-112853152D02*
X140827255Y-113186485D01*
X140827255Y-113186485D02*
X140779636Y-113376961D01*
X140779636Y-113376961D02*
X140684398Y-113472200D01*
X140684398Y-113472200D02*
X140589160Y-113519819D01*
X140589160Y-113519819D02*
X140398684Y-113519819D01*
X140398684Y-113519819D02*
X140303446Y-113472200D01*
X140303446Y-113472200D02*
X140208208Y-113376961D01*
X140208208Y-113376961D02*
X140160589Y-113186485D01*
X140160589Y-113186485D02*
X140160589Y-112853152D01*
X140160589Y-112853152D02*
X140208208Y-112662676D01*
X140208208Y-112662676D02*
X140303446Y-112567438D01*
X140303446Y-112567438D02*
X140398684Y-112519819D01*
X141732017Y-113519819D02*
X141255827Y-113519819D01*
X141255827Y-113519819D02*
X141255827Y-112519819D01*
X141922494Y-112519819D02*
X142493922Y-112519819D01*
X142208208Y-113519819D02*
X142208208Y-112519819D01*
X142779637Y-113472200D02*
X142922494Y-113519819D01*
X142922494Y-113519819D02*
X143160589Y-113519819D01*
X143160589Y-113519819D02*
X143255827Y-113472200D01*
X143255827Y-113472200D02*
X143303446Y-113424580D01*
X143303446Y-113424580D02*
X143351065Y-113329342D01*
X143351065Y-113329342D02*
X143351065Y-113234104D01*
X143351065Y-113234104D02*
X143303446Y-113138866D01*
X143303446Y-113138866D02*
X143255827Y-113091247D01*
X143255827Y-113091247D02*
X143160589Y-113043628D01*
X143160589Y-113043628D02*
X142970113Y-112996009D01*
X142970113Y-112996009D02*
X142874875Y-112948390D01*
X142874875Y-112948390D02*
X142827256Y-112900771D01*
X142827256Y-112900771D02*
X142779637Y-112805533D01*
X142779637Y-112805533D02*
X142779637Y-112710295D01*
X142779637Y-112710295D02*
X142827256Y-112615057D01*
X142827256Y-112615057D02*
X142874875Y-112567438D01*
X142874875Y-112567438D02*
X142970113Y-112519819D01*
X142970113Y-112519819D02*
X143208208Y-112519819D01*
X143208208Y-112519819D02*
X143351065Y-112567438D01*
X117955826Y-80508628D02*
X117955826Y-79008628D01*
X118670112Y-80508628D02*
X118670112Y-79008628D01*
X118670112Y-79008628D02*
X119527255Y-80508628D01*
X119527255Y-80508628D02*
X119527255Y-79008628D01*
X120241541Y-80508628D02*
X120241541Y-79008628D01*
X120241541Y-79008628D02*
X120812970Y-79008628D01*
X120812970Y-79008628D02*
X120955827Y-79080057D01*
X120955827Y-79080057D02*
X121027256Y-79151485D01*
X121027256Y-79151485D02*
X121098684Y-79294342D01*
X121098684Y-79294342D02*
X121098684Y-79508628D01*
X121098684Y-79508628D02*
X121027256Y-79651485D01*
X121027256Y-79651485D02*
X120955827Y-79722914D01*
X120955827Y-79722914D02*
X120812970Y-79794342D01*
X120812970Y-79794342D02*
X120241541Y-79794342D01*
X121741541Y-79008628D02*
X121741541Y-80222914D01*
X121741541Y-80222914D02*
X121812970Y-80365771D01*
X121812970Y-80365771D02*
X121884399Y-80437200D01*
X121884399Y-80437200D02*
X122027256Y-80508628D01*
X122027256Y-80508628D02*
X122312970Y-80508628D01*
X122312970Y-80508628D02*
X122455827Y-80437200D01*
X122455827Y-80437200D02*
X122527256Y-80365771D01*
X122527256Y-80365771D02*
X122598684Y-80222914D01*
X122598684Y-80222914D02*
X122598684Y-79008628D01*
X123098685Y-79008628D02*
X123955828Y-79008628D01*
X123527256Y-80508628D02*
X123527256Y-79008628D01*
X168741541Y-65108628D02*
X169027255Y-65108628D01*
X169027255Y-65108628D02*
X169170112Y-65180057D01*
X169170112Y-65180057D02*
X169312969Y-65322914D01*
X169312969Y-65322914D02*
X169384398Y-65608628D01*
X169384398Y-65608628D02*
X169384398Y-66108628D01*
X169384398Y-66108628D02*
X169312969Y-66394342D01*
X169312969Y-66394342D02*
X169170112Y-66537200D01*
X169170112Y-66537200D02*
X169027255Y-66608628D01*
X169027255Y-66608628D02*
X168741541Y-66608628D01*
X168741541Y-66608628D02*
X168598684Y-66537200D01*
X168598684Y-66537200D02*
X168455826Y-66394342D01*
X168455826Y-66394342D02*
X168384398Y-66108628D01*
X168384398Y-66108628D02*
X168384398Y-65608628D01*
X168384398Y-65608628D02*
X168455826Y-65322914D01*
X168455826Y-65322914D02*
X168598684Y-65180057D01*
X168598684Y-65180057D02*
X168741541Y-65108628D01*
X170027255Y-66608628D02*
X170027255Y-65108628D01*
X170027255Y-65108628D02*
X170598684Y-65108628D01*
X170598684Y-65108628D02*
X170741541Y-65180057D01*
X170741541Y-65180057D02*
X170812970Y-65251485D01*
X170812970Y-65251485D02*
X170884398Y-65394342D01*
X170884398Y-65394342D02*
X170884398Y-65608628D01*
X170884398Y-65608628D02*
X170812970Y-65751485D01*
X170812970Y-65751485D02*
X170741541Y-65822914D01*
X170741541Y-65822914D02*
X170598684Y-65894342D01*
X170598684Y-65894342D02*
X170027255Y-65894342D01*
X171527255Y-65822914D02*
X172027255Y-65822914D01*
X172241541Y-66608628D02*
X171527255Y-66608628D01*
X171527255Y-66608628D02*
X171527255Y-65108628D01*
X171527255Y-65108628D02*
X172241541Y-65108628D01*
X172884398Y-66608628D02*
X172884398Y-65108628D01*
X172884398Y-65108628D02*
X173741541Y-66608628D01*
X173741541Y-66608628D02*
X173741541Y-65108628D01*
X175598684Y-66608628D02*
X175598684Y-65108628D01*
X175598684Y-65822914D02*
X176455827Y-65822914D01*
X176455827Y-66608628D02*
X176455827Y-65108628D01*
X177098685Y-66180057D02*
X177812971Y-66180057D01*
X176955828Y-66608628D02*
X177455828Y-65108628D01*
X177455828Y-65108628D02*
X177955828Y-66608628D01*
X179312970Y-66608628D02*
X178812970Y-65894342D01*
X178455827Y-66608628D02*
X178455827Y-65108628D01*
X178455827Y-65108628D02*
X179027256Y-65108628D01*
X179027256Y-65108628D02*
X179170113Y-65180057D01*
X179170113Y-65180057D02*
X179241542Y-65251485D01*
X179241542Y-65251485D02*
X179312970Y-65394342D01*
X179312970Y-65394342D02*
X179312970Y-65608628D01*
X179312970Y-65608628D02*
X179241542Y-65751485D01*
X179241542Y-65751485D02*
X179170113Y-65822914D01*
X179170113Y-65822914D02*
X179027256Y-65894342D01*
X179027256Y-65894342D02*
X178455827Y-65894342D01*
X179955827Y-66608628D02*
X179955827Y-65108628D01*
X179955827Y-65108628D02*
X180312970Y-65108628D01*
X180312970Y-65108628D02*
X180527256Y-65180057D01*
X180527256Y-65180057D02*
X180670113Y-65322914D01*
X180670113Y-65322914D02*
X180741542Y-65465771D01*
X180741542Y-65465771D02*
X180812970Y-65751485D01*
X180812970Y-65751485D02*
X180812970Y-65965771D01*
X180812970Y-65965771D02*
X180741542Y-66251485D01*
X180741542Y-66251485D02*
X180670113Y-66394342D01*
X180670113Y-66394342D02*
X180527256Y-66537200D01*
X180527256Y-66537200D02*
X180312970Y-66608628D01*
X180312970Y-66608628D02*
X179955827Y-66608628D01*
X181312970Y-65108628D02*
X181670113Y-66608628D01*
X181670113Y-66608628D02*
X181955827Y-65537200D01*
X181955827Y-65537200D02*
X182241542Y-66608628D01*
X182241542Y-66608628D02*
X182598685Y-65108628D01*
X183098685Y-66180057D02*
X183812971Y-66180057D01*
X182955828Y-66608628D02*
X183455828Y-65108628D01*
X183455828Y-65108628D02*
X183955828Y-66608628D01*
X185312970Y-66608628D02*
X184812970Y-65894342D01*
X184455827Y-66608628D02*
X184455827Y-65108628D01*
X184455827Y-65108628D02*
X185027256Y-65108628D01*
X185027256Y-65108628D02*
X185170113Y-65180057D01*
X185170113Y-65180057D02*
X185241542Y-65251485D01*
X185241542Y-65251485D02*
X185312970Y-65394342D01*
X185312970Y-65394342D02*
X185312970Y-65608628D01*
X185312970Y-65608628D02*
X185241542Y-65751485D01*
X185241542Y-65751485D02*
X185170113Y-65822914D01*
X185170113Y-65822914D02*
X185027256Y-65894342D01*
X185027256Y-65894342D02*
X184455827Y-65894342D01*
X185955827Y-65822914D02*
X186455827Y-65822914D01*
X186670113Y-66608628D02*
X185955827Y-66608628D01*
X185955827Y-66608628D02*
X185955827Y-65108628D01*
X185955827Y-65108628D02*
X186670113Y-65108628D01*
X174755826Y-63908628D02*
X174755826Y-62408628D01*
X175612969Y-63908628D02*
X174970112Y-63051485D01*
X175612969Y-62408628D02*
X174755826Y-63265771D01*
X176755826Y-63122914D02*
X176255826Y-63122914D01*
X176255826Y-63908628D02*
X176255826Y-62408628D01*
X176255826Y-62408628D02*
X176970112Y-62408628D01*
X178255826Y-62408628D02*
X177541540Y-62408628D01*
X177541540Y-62408628D02*
X177470112Y-63122914D01*
X177470112Y-63122914D02*
X177541540Y-63051485D01*
X177541540Y-63051485D02*
X177684398Y-62980057D01*
X177684398Y-62980057D02*
X178041540Y-62980057D01*
X178041540Y-62980057D02*
X178184398Y-63051485D01*
X178184398Y-63051485D02*
X178255826Y-63122914D01*
X178255826Y-63122914D02*
X178327255Y-63265771D01*
X178327255Y-63265771D02*
X178327255Y-63622914D01*
X178327255Y-63622914D02*
X178255826Y-63765771D01*
X178255826Y-63765771D02*
X178184398Y-63837200D01*
X178184398Y-63837200D02*
X178041540Y-63908628D01*
X178041540Y-63908628D02*
X177684398Y-63908628D01*
X177684398Y-63908628D02*
X177541540Y-63837200D01*
X177541540Y-63837200D02*
X177470112Y-63765771D01*
X178970111Y-63908628D02*
X178970111Y-62408628D01*
X178970111Y-62408628D02*
X179827254Y-63908628D01*
X179827254Y-63908628D02*
X179827254Y-62408628D01*
X129841541Y-67208628D02*
X130341541Y-68708628D01*
X130341541Y-68708628D02*
X130841541Y-67208628D01*
X132127255Y-68708628D02*
X131270112Y-68708628D01*
X131698683Y-68708628D02*
X131698683Y-67208628D01*
X131698683Y-67208628D02*
X131555826Y-67422914D01*
X131555826Y-67422914D02*
X131412969Y-67565771D01*
X131412969Y-67565771D02*
X131270112Y-67637200D01*
X132770111Y-68565771D02*
X132841540Y-68637200D01*
X132841540Y-68637200D02*
X132770111Y-68708628D01*
X132770111Y-68708628D02*
X132698683Y-68637200D01*
X132698683Y-68637200D02*
X132770111Y-68565771D01*
X132770111Y-68565771D02*
X132770111Y-68708628D01*
X133412969Y-67351485D02*
X133484397Y-67280057D01*
X133484397Y-67280057D02*
X133627255Y-67208628D01*
X133627255Y-67208628D02*
X133984397Y-67208628D01*
X133984397Y-67208628D02*
X134127255Y-67280057D01*
X134127255Y-67280057D02*
X134198683Y-67351485D01*
X134198683Y-67351485D02*
X134270112Y-67494342D01*
X134270112Y-67494342D02*
X134270112Y-67637200D01*
X134270112Y-67637200D02*
X134198683Y-67851485D01*
X134198683Y-67851485D02*
X133341540Y-68708628D01*
X133341540Y-68708628D02*
X134270112Y-68708628D01*
X118241541Y-64908628D02*
X119098684Y-64908628D01*
X118670112Y-66408628D02*
X118670112Y-64908628D01*
X120241541Y-65408628D02*
X120241541Y-66408628D01*
X119884398Y-64837200D02*
X119527255Y-65908628D01*
X119527255Y-65908628D02*
X120455826Y-65908628D01*
X121812969Y-66408628D02*
X120955826Y-66408628D01*
X121384397Y-66408628D02*
X121384397Y-64908628D01*
X121384397Y-64908628D02*
X121241540Y-65122914D01*
X121241540Y-65122914D02*
X121098683Y-65265771D01*
X121098683Y-65265771D02*
X120955826Y-65337200D01*
X122455825Y-65837200D02*
X123598683Y-65837200D01*
X124241540Y-65051485D02*
X124312968Y-64980057D01*
X124312968Y-64980057D02*
X124455826Y-64908628D01*
X124455826Y-64908628D02*
X124812968Y-64908628D01*
X124812968Y-64908628D02*
X124955826Y-64980057D01*
X124955826Y-64980057D02*
X125027254Y-65051485D01*
X125027254Y-65051485D02*
X125098683Y-65194342D01*
X125098683Y-65194342D02*
X125098683Y-65337200D01*
X125098683Y-65337200D02*
X125027254Y-65551485D01*
X125027254Y-65551485D02*
X124170111Y-66408628D01*
X124170111Y-66408628D02*
X125098683Y-66408628D01*
X126884396Y-66408628D02*
X126884396Y-64908628D01*
X126884396Y-64908628D02*
X127455825Y-64908628D01*
X127455825Y-64908628D02*
X127598682Y-64980057D01*
X127598682Y-64980057D02*
X127670111Y-65051485D01*
X127670111Y-65051485D02*
X127741539Y-65194342D01*
X127741539Y-65194342D02*
X127741539Y-65408628D01*
X127741539Y-65408628D02*
X127670111Y-65551485D01*
X127670111Y-65551485D02*
X127598682Y-65622914D01*
X127598682Y-65622914D02*
X127455825Y-65694342D01*
X127455825Y-65694342D02*
X126884396Y-65694342D01*
X128670111Y-64908628D02*
X128955825Y-64908628D01*
X128955825Y-64908628D02*
X129098682Y-64980057D01*
X129098682Y-64980057D02*
X129241539Y-65122914D01*
X129241539Y-65122914D02*
X129312968Y-65408628D01*
X129312968Y-65408628D02*
X129312968Y-65908628D01*
X129312968Y-65908628D02*
X129241539Y-66194342D01*
X129241539Y-66194342D02*
X129098682Y-66337200D01*
X129098682Y-66337200D02*
X128955825Y-66408628D01*
X128955825Y-66408628D02*
X128670111Y-66408628D01*
X128670111Y-66408628D02*
X128527254Y-66337200D01*
X128527254Y-66337200D02*
X128384396Y-66194342D01*
X128384396Y-66194342D02*
X128312968Y-65908628D01*
X128312968Y-65908628D02*
X128312968Y-65408628D01*
X128312968Y-65408628D02*
X128384396Y-65122914D01*
X128384396Y-65122914D02*
X128527254Y-64980057D01*
X128527254Y-64980057D02*
X128670111Y-64908628D01*
X129812968Y-64908628D02*
X130170111Y-66408628D01*
X130170111Y-66408628D02*
X130455825Y-65337200D01*
X130455825Y-65337200D02*
X130741540Y-66408628D01*
X130741540Y-66408628D02*
X131098683Y-64908628D01*
X131670111Y-65622914D02*
X132170111Y-65622914D01*
X132384397Y-66408628D02*
X131670111Y-66408628D01*
X131670111Y-66408628D02*
X131670111Y-64908628D01*
X131670111Y-64908628D02*
X132384397Y-64908628D01*
X133884397Y-66408628D02*
X133384397Y-65694342D01*
X133027254Y-66408628D02*
X133027254Y-64908628D01*
X133027254Y-64908628D02*
X133598683Y-64908628D01*
X133598683Y-64908628D02*
X133741540Y-64980057D01*
X133741540Y-64980057D02*
X133812969Y-65051485D01*
X133812969Y-65051485D02*
X133884397Y-65194342D01*
X133884397Y-65194342D02*
X133884397Y-65408628D01*
X133884397Y-65408628D02*
X133812969Y-65551485D01*
X133812969Y-65551485D02*
X133741540Y-65622914D01*
X133741540Y-65622914D02*
X133598683Y-65694342D01*
X133598683Y-65694342D02*
X133027254Y-65694342D01*
X135598683Y-65980057D02*
X136312969Y-65980057D01*
X135455826Y-66408628D02*
X135955826Y-64908628D01*
X135955826Y-64908628D02*
X136455826Y-66408628D01*
X136955825Y-66408628D02*
X136955825Y-64908628D01*
X136955825Y-64908628D02*
X137455825Y-65980057D01*
X137455825Y-65980057D02*
X137955825Y-64908628D01*
X137955825Y-64908628D02*
X137955825Y-66408628D01*
X138670111Y-66408628D02*
X138670111Y-64908628D01*
X138670111Y-64908628D02*
X139241540Y-64908628D01*
X139241540Y-64908628D02*
X139384397Y-64980057D01*
X139384397Y-64980057D02*
X139455826Y-65051485D01*
X139455826Y-65051485D02*
X139527254Y-65194342D01*
X139527254Y-65194342D02*
X139527254Y-65408628D01*
X139527254Y-65408628D02*
X139455826Y-65551485D01*
X139455826Y-65551485D02*
X139384397Y-65622914D01*
X139384397Y-65622914D02*
X139241540Y-65694342D01*
X139241540Y-65694342D02*
X138670111Y-65694342D01*
X140884397Y-66408628D02*
X140170111Y-66408628D01*
X140170111Y-66408628D02*
X140170111Y-64908628D01*
X141384397Y-66408628D02*
X141384397Y-64908628D01*
X142598683Y-65622914D02*
X142098683Y-65622914D01*
X142098683Y-66408628D02*
X142098683Y-64908628D01*
X142098683Y-64908628D02*
X142812969Y-64908628D01*
X143384397Y-66408628D02*
X143384397Y-64908628D01*
X144098683Y-65622914D02*
X144598683Y-65622914D01*
X144812969Y-66408628D02*
X144098683Y-66408628D01*
X144098683Y-66408628D02*
X144098683Y-64908628D01*
X144098683Y-64908628D02*
X144812969Y-64908628D01*
X146312969Y-66408628D02*
X145812969Y-65694342D01*
X145455826Y-66408628D02*
X145455826Y-64908628D01*
X145455826Y-64908628D02*
X146027255Y-64908628D01*
X146027255Y-64908628D02*
X146170112Y-64980057D01*
X146170112Y-64980057D02*
X146241541Y-65051485D01*
X146241541Y-65051485D02*
X146312969Y-65194342D01*
X146312969Y-65194342D02*
X146312969Y-65408628D01*
X146312969Y-65408628D02*
X146241541Y-65551485D01*
X146241541Y-65551485D02*
X146170112Y-65622914D01*
X146170112Y-65622914D02*
X146027255Y-65694342D01*
X146027255Y-65694342D02*
X145455826Y-65694342D01*
X117591541Y-111658628D02*
X118448684Y-111658628D01*
X118020112Y-113158628D02*
X118020112Y-111658628D01*
X118805826Y-111658628D02*
X119805826Y-113158628D01*
X119805826Y-111658628D02*
X118805826Y-113158628D01*
X121234397Y-113158628D02*
X120734397Y-112444342D01*
X120377254Y-113158628D02*
X120377254Y-111658628D01*
X120377254Y-111658628D02*
X120948683Y-111658628D01*
X120948683Y-111658628D02*
X121091540Y-111730057D01*
X121091540Y-111730057D02*
X121162969Y-111801485D01*
X121162969Y-111801485D02*
X121234397Y-111944342D01*
X121234397Y-111944342D02*
X121234397Y-112158628D01*
X121234397Y-112158628D02*
X121162969Y-112301485D01*
X121162969Y-112301485D02*
X121091540Y-112372914D01*
X121091540Y-112372914D02*
X120948683Y-112444342D01*
X120948683Y-112444342D02*
X120377254Y-112444342D01*
X121734397Y-111658628D02*
X122734397Y-113158628D01*
X122734397Y-111658628D02*
X121734397Y-113158628D01*
X175238095Y-78154819D02*
X175809523Y-78154819D01*
X175523809Y-79154819D02*
X175523809Y-78154819D01*
X176095238Y-78250057D02*
X176142857Y-78202438D01*
X176142857Y-78202438D02*
X176238095Y-78154819D01*
X176238095Y-78154819D02*
X176476190Y-78154819D01*
X176476190Y-78154819D02*
X176571428Y-78202438D01*
X176571428Y-78202438D02*
X176619047Y-78250057D01*
X176619047Y-78250057D02*
X176666666Y-78345295D01*
X176666666Y-78345295D02*
X176666666Y-78440533D01*
X176666666Y-78440533D02*
X176619047Y-78583390D01*
X176619047Y-78583390D02*
X176047619Y-79154819D01*
X176047619Y-79154819D02*
X176666666Y-79154819D01*
X172257142Y-109354819D02*
X171923809Y-108878628D01*
X171685714Y-109354819D02*
X171685714Y-108354819D01*
X171685714Y-108354819D02*
X172066666Y-108354819D01*
X172066666Y-108354819D02*
X172161904Y-108402438D01*
X172161904Y-108402438D02*
X172209523Y-108450057D01*
X172209523Y-108450057D02*
X172257142Y-108545295D01*
X172257142Y-108545295D02*
X172257142Y-108688152D01*
X172257142Y-108688152D02*
X172209523Y-108783390D01*
X172209523Y-108783390D02*
X172161904Y-108831009D01*
X172161904Y-108831009D02*
X172066666Y-108878628D01*
X172066666Y-108878628D02*
X171685714Y-108878628D01*
X173209523Y-109354819D02*
X172638095Y-109354819D01*
X172923809Y-109354819D02*
X172923809Y-108354819D01*
X172923809Y-108354819D02*
X172828571Y-108497676D01*
X172828571Y-108497676D02*
X172733333Y-108592914D01*
X172733333Y-108592914D02*
X172638095Y-108640533D01*
X173685714Y-109354819D02*
X173876190Y-109354819D01*
X173876190Y-109354819D02*
X173971428Y-109307200D01*
X173971428Y-109307200D02*
X174019047Y-109259580D01*
X174019047Y-109259580D02*
X174114285Y-109116723D01*
X174114285Y-109116723D02*
X174161904Y-108926247D01*
X174161904Y-108926247D02*
X174161904Y-108545295D01*
X174161904Y-108545295D02*
X174114285Y-108450057D01*
X174114285Y-108450057D02*
X174066666Y-108402438D01*
X174066666Y-108402438D02*
X173971428Y-108354819D01*
X173971428Y-108354819D02*
X173780952Y-108354819D01*
X173780952Y-108354819D02*
X173685714Y-108402438D01*
X173685714Y-108402438D02*
X173638095Y-108450057D01*
X173638095Y-108450057D02*
X173590476Y-108545295D01*
X173590476Y-108545295D02*
X173590476Y-108783390D01*
X173590476Y-108783390D02*
X173638095Y-108878628D01*
X173638095Y-108878628D02*
X173685714Y-108926247D01*
X173685714Y-108926247D02*
X173780952Y-108973866D01*
X173780952Y-108973866D02*
X173971428Y-108973866D01*
X173971428Y-108973866D02*
X174066666Y-108926247D01*
X174066666Y-108926247D02*
X174114285Y-108878628D01*
X174114285Y-108878628D02*
X174161904Y-108783390D01*
X172309523Y-110654819D02*
X171738095Y-110654819D01*
X172023809Y-110654819D02*
X172023809Y-109654819D01*
X172023809Y-109654819D02*
X171928571Y-109797676D01*
X171928571Y-109797676D02*
X171833333Y-109892914D01*
X171833333Y-109892914D02*
X171738095Y-109940533D01*
X172928571Y-109654819D02*
X173023809Y-109654819D01*
X173023809Y-109654819D02*
X173119047Y-109702438D01*
X173119047Y-109702438D02*
X173166666Y-109750057D01*
X173166666Y-109750057D02*
X173214285Y-109845295D01*
X173214285Y-109845295D02*
X173261904Y-110035771D01*
X173261904Y-110035771D02*
X173261904Y-110273866D01*
X173261904Y-110273866D02*
X173214285Y-110464342D01*
X173214285Y-110464342D02*
X173166666Y-110559580D01*
X173166666Y-110559580D02*
X173119047Y-110607200D01*
X173119047Y-110607200D02*
X173023809Y-110654819D01*
X173023809Y-110654819D02*
X172928571Y-110654819D01*
X172928571Y-110654819D02*
X172833333Y-110607200D01*
X172833333Y-110607200D02*
X172785714Y-110559580D01*
X172785714Y-110559580D02*
X172738095Y-110464342D01*
X172738095Y-110464342D02*
X172690476Y-110273866D01*
X172690476Y-110273866D02*
X172690476Y-110035771D01*
X172690476Y-110035771D02*
X172738095Y-109845295D01*
X172738095Y-109845295D02*
X172785714Y-109750057D01*
X172785714Y-109750057D02*
X172833333Y-109702438D01*
X172833333Y-109702438D02*
X172928571Y-109654819D01*
X143088095Y-118554819D02*
X143088095Y-119364342D01*
X143088095Y-119364342D02*
X143135714Y-119459580D01*
X143135714Y-119459580D02*
X143183333Y-119507200D01*
X143183333Y-119507200D02*
X143278571Y-119554819D01*
X143278571Y-119554819D02*
X143469047Y-119554819D01*
X143469047Y-119554819D02*
X143564285Y-119507200D01*
X143564285Y-119507200D02*
X143611904Y-119459580D01*
X143611904Y-119459580D02*
X143659523Y-119364342D01*
X143659523Y-119364342D02*
X143659523Y-118554819D01*
X144659523Y-119554819D02*
X144088095Y-119554819D01*
X144373809Y-119554819D02*
X144373809Y-118554819D01*
X144373809Y-118554819D02*
X144278571Y-118697676D01*
X144278571Y-118697676D02*
X144183333Y-118792914D01*
X144183333Y-118792914D02*
X144088095Y-118840533D01*
X133957142Y-123159580D02*
X133909523Y-123207200D01*
X133909523Y-123207200D02*
X133766666Y-123254819D01*
X133766666Y-123254819D02*
X133671428Y-123254819D01*
X133671428Y-123254819D02*
X133528571Y-123207200D01*
X133528571Y-123207200D02*
X133433333Y-123111961D01*
X133433333Y-123111961D02*
X133385714Y-123016723D01*
X133385714Y-123016723D02*
X133338095Y-122826247D01*
X133338095Y-122826247D02*
X133338095Y-122683390D01*
X133338095Y-122683390D02*
X133385714Y-122492914D01*
X133385714Y-122492914D02*
X133433333Y-122397676D01*
X133433333Y-122397676D02*
X133528571Y-122302438D01*
X133528571Y-122302438D02*
X133671428Y-122254819D01*
X133671428Y-122254819D02*
X133766666Y-122254819D01*
X133766666Y-122254819D02*
X133909523Y-122302438D01*
X133909523Y-122302438D02*
X133957142Y-122350057D01*
X134338095Y-122350057D02*
X134385714Y-122302438D01*
X134385714Y-122302438D02*
X134480952Y-122254819D01*
X134480952Y-122254819D02*
X134719047Y-122254819D01*
X134719047Y-122254819D02*
X134814285Y-122302438D01*
X134814285Y-122302438D02*
X134861904Y-122350057D01*
X134861904Y-122350057D02*
X134909523Y-122445295D01*
X134909523Y-122445295D02*
X134909523Y-122540533D01*
X134909523Y-122540533D02*
X134861904Y-122683390D01*
X134861904Y-122683390D02*
X134290476Y-123254819D01*
X134290476Y-123254819D02*
X134909523Y-123254819D01*
X135528571Y-122254819D02*
X135623809Y-122254819D01*
X135623809Y-122254819D02*
X135719047Y-122302438D01*
X135719047Y-122302438D02*
X135766666Y-122350057D01*
X135766666Y-122350057D02*
X135814285Y-122445295D01*
X135814285Y-122445295D02*
X135861904Y-122635771D01*
X135861904Y-122635771D02*
X135861904Y-122873866D01*
X135861904Y-122873866D02*
X135814285Y-123064342D01*
X135814285Y-123064342D02*
X135766666Y-123159580D01*
X135766666Y-123159580D02*
X135719047Y-123207200D01*
X135719047Y-123207200D02*
X135623809Y-123254819D01*
X135623809Y-123254819D02*
X135528571Y-123254819D01*
X135528571Y-123254819D02*
X135433333Y-123207200D01*
X135433333Y-123207200D02*
X135385714Y-123159580D01*
X135385714Y-123159580D02*
X135338095Y-123064342D01*
X135338095Y-123064342D02*
X135290476Y-122873866D01*
X135290476Y-122873866D02*
X135290476Y-122635771D01*
X135290476Y-122635771D02*
X135338095Y-122445295D01*
X135338095Y-122445295D02*
X135385714Y-122350057D01*
X135385714Y-122350057D02*
X135433333Y-122302438D01*
X135433333Y-122302438D02*
X135528571Y-122254819D01*
X134004761Y-124754819D02*
X133433333Y-124754819D01*
X133719047Y-124754819D02*
X133719047Y-123754819D01*
X133719047Y-123754819D02*
X133623809Y-123897676D01*
X133623809Y-123897676D02*
X133528571Y-123992914D01*
X133528571Y-123992914D02*
X133433333Y-124040533D01*
X134861904Y-124088152D02*
X134861904Y-124754819D01*
X134433333Y-124088152D02*
X134433333Y-124611961D01*
X134433333Y-124611961D02*
X134480952Y-124707200D01*
X134480952Y-124707200D02*
X134576190Y-124754819D01*
X134576190Y-124754819D02*
X134719047Y-124754819D01*
X134719047Y-124754819D02*
X134814285Y-124707200D01*
X134814285Y-124707200D02*
X134861904Y-124659580D01*
X135671428Y-124231009D02*
X135338095Y-124231009D01*
X135338095Y-124754819D02*
X135338095Y-123754819D01*
X135338095Y-123754819D02*
X135814285Y-123754819D01*
X172833333Y-112359580D02*
X172785714Y-112407200D01*
X172785714Y-112407200D02*
X172642857Y-112454819D01*
X172642857Y-112454819D02*
X172547619Y-112454819D01*
X172547619Y-112454819D02*
X172404762Y-112407200D01*
X172404762Y-112407200D02*
X172309524Y-112311961D01*
X172309524Y-112311961D02*
X172261905Y-112216723D01*
X172261905Y-112216723D02*
X172214286Y-112026247D01*
X172214286Y-112026247D02*
X172214286Y-111883390D01*
X172214286Y-111883390D02*
X172261905Y-111692914D01*
X172261905Y-111692914D02*
X172309524Y-111597676D01*
X172309524Y-111597676D02*
X172404762Y-111502438D01*
X172404762Y-111502438D02*
X172547619Y-111454819D01*
X172547619Y-111454819D02*
X172642857Y-111454819D01*
X172642857Y-111454819D02*
X172785714Y-111502438D01*
X172785714Y-111502438D02*
X172833333Y-111550057D01*
X173309524Y-112454819D02*
X173500000Y-112454819D01*
X173500000Y-112454819D02*
X173595238Y-112407200D01*
X173595238Y-112407200D02*
X173642857Y-112359580D01*
X173642857Y-112359580D02*
X173738095Y-112216723D01*
X173738095Y-112216723D02*
X173785714Y-112026247D01*
X173785714Y-112026247D02*
X173785714Y-111645295D01*
X173785714Y-111645295D02*
X173738095Y-111550057D01*
X173738095Y-111550057D02*
X173690476Y-111502438D01*
X173690476Y-111502438D02*
X173595238Y-111454819D01*
X173595238Y-111454819D02*
X173404762Y-111454819D01*
X173404762Y-111454819D02*
X173309524Y-111502438D01*
X173309524Y-111502438D02*
X173261905Y-111550057D01*
X173261905Y-111550057D02*
X173214286Y-111645295D01*
X173214286Y-111645295D02*
X173214286Y-111883390D01*
X173214286Y-111883390D02*
X173261905Y-111978628D01*
X173261905Y-111978628D02*
X173309524Y-112026247D01*
X173309524Y-112026247D02*
X173404762Y-112073866D01*
X173404762Y-112073866D02*
X173595238Y-112073866D01*
X173595238Y-112073866D02*
X173690476Y-112026247D01*
X173690476Y-112026247D02*
X173738095Y-111978628D01*
X173738095Y-111978628D02*
X173785714Y-111883390D01*
X175233333Y-111788152D02*
X175233333Y-112454819D01*
X174995238Y-111407200D02*
X174757143Y-112121485D01*
X174757143Y-112121485D02*
X175376190Y-112121485D01*
X175661905Y-111454819D02*
X176328571Y-111454819D01*
X176328571Y-111454819D02*
X175900000Y-112454819D01*
X177138095Y-111788152D02*
X177138095Y-112454819D01*
X176709524Y-111788152D02*
X176709524Y-112311961D01*
X176709524Y-112311961D02*
X176757143Y-112407200D01*
X176757143Y-112407200D02*
X176852381Y-112454819D01*
X176852381Y-112454819D02*
X176995238Y-112454819D01*
X176995238Y-112454819D02*
X177090476Y-112407200D01*
X177090476Y-112407200D02*
X177138095Y-112359580D01*
X177947619Y-111931009D02*
X177614286Y-111931009D01*
X177614286Y-112454819D02*
X177614286Y-111454819D01*
X177614286Y-111454819D02*
X178090476Y-111454819D01*
X129657142Y-74154819D02*
X129323809Y-73678628D01*
X129085714Y-74154819D02*
X129085714Y-73154819D01*
X129085714Y-73154819D02*
X129466666Y-73154819D01*
X129466666Y-73154819D02*
X129561904Y-73202438D01*
X129561904Y-73202438D02*
X129609523Y-73250057D01*
X129609523Y-73250057D02*
X129657142Y-73345295D01*
X129657142Y-73345295D02*
X129657142Y-73488152D01*
X129657142Y-73488152D02*
X129609523Y-73583390D01*
X129609523Y-73583390D02*
X129561904Y-73631009D01*
X129561904Y-73631009D02*
X129466666Y-73678628D01*
X129466666Y-73678628D02*
X129085714Y-73678628D01*
X130609523Y-74154819D02*
X130038095Y-74154819D01*
X130323809Y-74154819D02*
X130323809Y-73154819D01*
X130323809Y-73154819D02*
X130228571Y-73297676D01*
X130228571Y-73297676D02*
X130133333Y-73392914D01*
X130133333Y-73392914D02*
X130038095Y-73440533D01*
X131561904Y-74154819D02*
X130990476Y-74154819D01*
X131276190Y-74154819D02*
X131276190Y-73154819D01*
X131276190Y-73154819D02*
X131180952Y-73297676D01*
X131180952Y-73297676D02*
X131085714Y-73392914D01*
X131085714Y-73392914D02*
X130990476Y-73440533D01*
X130009524Y-74550057D02*
X130057143Y-74502438D01*
X130057143Y-74502438D02*
X130152381Y-74454819D01*
X130152381Y-74454819D02*
X130390476Y-74454819D01*
X130390476Y-74454819D02*
X130485714Y-74502438D01*
X130485714Y-74502438D02*
X130533333Y-74550057D01*
X130533333Y-74550057D02*
X130580952Y-74645295D01*
X130580952Y-74645295D02*
X130580952Y-74740533D01*
X130580952Y-74740533D02*
X130533333Y-74883390D01*
X130533333Y-74883390D02*
X129961905Y-75454819D01*
X129961905Y-75454819D02*
X130580952Y-75454819D01*
X131009524Y-75454819D02*
X131009524Y-74454819D01*
X131104762Y-75073866D02*
X131390476Y-75454819D01*
X131390476Y-74788152D02*
X131009524Y-75169104D01*
X145333333Y-76654819D02*
X145000000Y-76178628D01*
X144761905Y-76654819D02*
X144761905Y-75654819D01*
X144761905Y-75654819D02*
X145142857Y-75654819D01*
X145142857Y-75654819D02*
X145238095Y-75702438D01*
X145238095Y-75702438D02*
X145285714Y-75750057D01*
X145285714Y-75750057D02*
X145333333Y-75845295D01*
X145333333Y-75845295D02*
X145333333Y-75988152D01*
X145333333Y-75988152D02*
X145285714Y-76083390D01*
X145285714Y-76083390D02*
X145238095Y-76131009D01*
X145238095Y-76131009D02*
X145142857Y-76178628D01*
X145142857Y-76178628D02*
X144761905Y-76178628D01*
X145904762Y-76083390D02*
X145809524Y-76035771D01*
X145809524Y-76035771D02*
X145761905Y-75988152D01*
X145761905Y-75988152D02*
X145714286Y-75892914D01*
X145714286Y-75892914D02*
X145714286Y-75845295D01*
X145714286Y-75845295D02*
X145761905Y-75750057D01*
X145761905Y-75750057D02*
X145809524Y-75702438D01*
X145809524Y-75702438D02*
X145904762Y-75654819D01*
X145904762Y-75654819D02*
X146095238Y-75654819D01*
X146095238Y-75654819D02*
X146190476Y-75702438D01*
X146190476Y-75702438D02*
X146238095Y-75750057D01*
X146238095Y-75750057D02*
X146285714Y-75845295D01*
X146285714Y-75845295D02*
X146285714Y-75892914D01*
X146285714Y-75892914D02*
X146238095Y-75988152D01*
X146238095Y-75988152D02*
X146190476Y-76035771D01*
X146190476Y-76035771D02*
X146095238Y-76083390D01*
X146095238Y-76083390D02*
X145904762Y-76083390D01*
X145904762Y-76083390D02*
X145809524Y-76131009D01*
X145809524Y-76131009D02*
X145761905Y-76178628D01*
X145761905Y-76178628D02*
X145714286Y-76273866D01*
X145714286Y-76273866D02*
X145714286Y-76464342D01*
X145714286Y-76464342D02*
X145761905Y-76559580D01*
X145761905Y-76559580D02*
X145809524Y-76607200D01*
X145809524Y-76607200D02*
X145904762Y-76654819D01*
X145904762Y-76654819D02*
X146095238Y-76654819D01*
X146095238Y-76654819D02*
X146190476Y-76607200D01*
X146190476Y-76607200D02*
X146238095Y-76559580D01*
X146238095Y-76559580D02*
X146285714Y-76464342D01*
X146285714Y-76464342D02*
X146285714Y-76273866D01*
X146285714Y-76273866D02*
X146238095Y-76178628D01*
X146238095Y-76178628D02*
X146190476Y-76131009D01*
X146190476Y-76131009D02*
X146095238Y-76083390D01*
X145261904Y-77054819D02*
X144785714Y-77054819D01*
X144785714Y-77054819D02*
X144738095Y-77531009D01*
X144738095Y-77531009D02*
X144785714Y-77483390D01*
X144785714Y-77483390D02*
X144880952Y-77435771D01*
X144880952Y-77435771D02*
X145119047Y-77435771D01*
X145119047Y-77435771D02*
X145214285Y-77483390D01*
X145214285Y-77483390D02*
X145261904Y-77531009D01*
X145261904Y-77531009D02*
X145309523Y-77626247D01*
X145309523Y-77626247D02*
X145309523Y-77864342D01*
X145309523Y-77864342D02*
X145261904Y-77959580D01*
X145261904Y-77959580D02*
X145214285Y-78007200D01*
X145214285Y-78007200D02*
X145119047Y-78054819D01*
X145119047Y-78054819D02*
X144880952Y-78054819D01*
X144880952Y-78054819D02*
X144785714Y-78007200D01*
X144785714Y-78007200D02*
X144738095Y-77959580D01*
X146261904Y-78054819D02*
X145690476Y-78054819D01*
X145976190Y-78054819D02*
X145976190Y-77054819D01*
X145976190Y-77054819D02*
X145880952Y-77197676D01*
X145880952Y-77197676D02*
X145785714Y-77292914D01*
X145785714Y-77292914D02*
X145690476Y-77340533D01*
X145333333Y-71459580D02*
X145285714Y-71507200D01*
X145285714Y-71507200D02*
X145142857Y-71554819D01*
X145142857Y-71554819D02*
X145047619Y-71554819D01*
X145047619Y-71554819D02*
X144904762Y-71507200D01*
X144904762Y-71507200D02*
X144809524Y-71411961D01*
X144809524Y-71411961D02*
X144761905Y-71316723D01*
X144761905Y-71316723D02*
X144714286Y-71126247D01*
X144714286Y-71126247D02*
X144714286Y-70983390D01*
X144714286Y-70983390D02*
X144761905Y-70792914D01*
X144761905Y-70792914D02*
X144809524Y-70697676D01*
X144809524Y-70697676D02*
X144904762Y-70602438D01*
X144904762Y-70602438D02*
X145047619Y-70554819D01*
X145047619Y-70554819D02*
X145142857Y-70554819D01*
X145142857Y-70554819D02*
X145285714Y-70602438D01*
X145285714Y-70602438D02*
X145333333Y-70650057D01*
X145904762Y-70983390D02*
X145809524Y-70935771D01*
X145809524Y-70935771D02*
X145761905Y-70888152D01*
X145761905Y-70888152D02*
X145714286Y-70792914D01*
X145714286Y-70792914D02*
X145714286Y-70745295D01*
X145714286Y-70745295D02*
X145761905Y-70650057D01*
X145761905Y-70650057D02*
X145809524Y-70602438D01*
X145809524Y-70602438D02*
X145904762Y-70554819D01*
X145904762Y-70554819D02*
X146095238Y-70554819D01*
X146095238Y-70554819D02*
X146190476Y-70602438D01*
X146190476Y-70602438D02*
X146238095Y-70650057D01*
X146238095Y-70650057D02*
X146285714Y-70745295D01*
X146285714Y-70745295D02*
X146285714Y-70792914D01*
X146285714Y-70792914D02*
X146238095Y-70888152D01*
X146238095Y-70888152D02*
X146190476Y-70935771D01*
X146190476Y-70935771D02*
X146095238Y-70983390D01*
X146095238Y-70983390D02*
X145904762Y-70983390D01*
X145904762Y-70983390D02*
X145809524Y-71031009D01*
X145809524Y-71031009D02*
X145761905Y-71078628D01*
X145761905Y-71078628D02*
X145714286Y-71173866D01*
X145714286Y-71173866D02*
X145714286Y-71364342D01*
X145714286Y-71364342D02*
X145761905Y-71459580D01*
X145761905Y-71459580D02*
X145809524Y-71507200D01*
X145809524Y-71507200D02*
X145904762Y-71554819D01*
X145904762Y-71554819D02*
X146095238Y-71554819D01*
X146095238Y-71554819D02*
X146190476Y-71507200D01*
X146190476Y-71507200D02*
X146238095Y-71459580D01*
X146238095Y-71459580D02*
X146285714Y-71364342D01*
X146285714Y-71364342D02*
X146285714Y-71173866D01*
X146285714Y-71173866D02*
X146238095Y-71078628D01*
X146238095Y-71078628D02*
X146190476Y-71031009D01*
X146190476Y-71031009D02*
X146095238Y-70983390D01*
X144957143Y-71954819D02*
X145052381Y-71954819D01*
X145052381Y-71954819D02*
X145147619Y-72002438D01*
X145147619Y-72002438D02*
X145195238Y-72050057D01*
X145195238Y-72050057D02*
X145242857Y-72145295D01*
X145242857Y-72145295D02*
X145290476Y-72335771D01*
X145290476Y-72335771D02*
X145290476Y-72573866D01*
X145290476Y-72573866D02*
X145242857Y-72764342D01*
X145242857Y-72764342D02*
X145195238Y-72859580D01*
X145195238Y-72859580D02*
X145147619Y-72907200D01*
X145147619Y-72907200D02*
X145052381Y-72954819D01*
X145052381Y-72954819D02*
X144957143Y-72954819D01*
X144957143Y-72954819D02*
X144861905Y-72907200D01*
X144861905Y-72907200D02*
X144814286Y-72859580D01*
X144814286Y-72859580D02*
X144766667Y-72764342D01*
X144766667Y-72764342D02*
X144719048Y-72573866D01*
X144719048Y-72573866D02*
X144719048Y-72335771D01*
X144719048Y-72335771D02*
X144766667Y-72145295D01*
X144766667Y-72145295D02*
X144814286Y-72050057D01*
X144814286Y-72050057D02*
X144861905Y-72002438D01*
X144861905Y-72002438D02*
X144957143Y-71954819D01*
X145719048Y-72859580D02*
X145766667Y-72907200D01*
X145766667Y-72907200D02*
X145719048Y-72954819D01*
X145719048Y-72954819D02*
X145671429Y-72907200D01*
X145671429Y-72907200D02*
X145719048Y-72859580D01*
X145719048Y-72859580D02*
X145719048Y-72954819D01*
X146719047Y-72954819D02*
X146147619Y-72954819D01*
X146433333Y-72954819D02*
X146433333Y-71954819D01*
X146433333Y-71954819D02*
X146338095Y-72097676D01*
X146338095Y-72097676D02*
X146242857Y-72192914D01*
X146242857Y-72192914D02*
X146147619Y-72240533D01*
X147576190Y-72288152D02*
X147576190Y-72954819D01*
X147147619Y-72288152D02*
X147147619Y-72811961D01*
X147147619Y-72811961D02*
X147195238Y-72907200D01*
X147195238Y-72907200D02*
X147290476Y-72954819D01*
X147290476Y-72954819D02*
X147433333Y-72954819D01*
X147433333Y-72954819D02*
X147528571Y-72907200D01*
X147528571Y-72907200D02*
X147576190Y-72859580D01*
X148385714Y-72431009D02*
X148052381Y-72431009D01*
X148052381Y-72954819D02*
X148052381Y-71954819D01*
X148052381Y-71954819D02*
X148528571Y-71954819D01*
X134438095Y-81454819D02*
X135009523Y-81454819D01*
X134723809Y-82454819D02*
X134723809Y-81454819D01*
X135866666Y-82454819D02*
X135295238Y-82454819D01*
X135580952Y-82454819D02*
X135580952Y-81454819D01*
X135580952Y-81454819D02*
X135485714Y-81597676D01*
X135485714Y-81597676D02*
X135390476Y-81692914D01*
X135390476Y-81692914D02*
X135295238Y-81740533D01*
X136857142Y-114759580D02*
X136809523Y-114807200D01*
X136809523Y-114807200D02*
X136666666Y-114854819D01*
X136666666Y-114854819D02*
X136571428Y-114854819D01*
X136571428Y-114854819D02*
X136428571Y-114807200D01*
X136428571Y-114807200D02*
X136333333Y-114711961D01*
X136333333Y-114711961D02*
X136285714Y-114616723D01*
X136285714Y-114616723D02*
X136238095Y-114426247D01*
X136238095Y-114426247D02*
X136238095Y-114283390D01*
X136238095Y-114283390D02*
X136285714Y-114092914D01*
X136285714Y-114092914D02*
X136333333Y-113997676D01*
X136333333Y-113997676D02*
X136428571Y-113902438D01*
X136428571Y-113902438D02*
X136571428Y-113854819D01*
X136571428Y-113854819D02*
X136666666Y-113854819D01*
X136666666Y-113854819D02*
X136809523Y-113902438D01*
X136809523Y-113902438D02*
X136857142Y-113950057D01*
X137809523Y-114854819D02*
X137238095Y-114854819D01*
X137523809Y-114854819D02*
X137523809Y-113854819D01*
X137523809Y-113854819D02*
X137428571Y-113997676D01*
X137428571Y-113997676D02*
X137333333Y-114092914D01*
X137333333Y-114092914D02*
X137238095Y-114140533D01*
X138666666Y-114188152D02*
X138666666Y-114854819D01*
X138428571Y-113807200D02*
X138190476Y-114521485D01*
X138190476Y-114521485D02*
X138809523Y-114521485D01*
X136904761Y-116354819D02*
X136333333Y-116354819D01*
X136619047Y-116354819D02*
X136619047Y-115354819D01*
X136619047Y-115354819D02*
X136523809Y-115497676D01*
X136523809Y-115497676D02*
X136428571Y-115592914D01*
X136428571Y-115592914D02*
X136333333Y-115640533D01*
X137761904Y-115688152D02*
X137761904Y-116354819D01*
X137333333Y-115688152D02*
X137333333Y-116211961D01*
X137333333Y-116211961D02*
X137380952Y-116307200D01*
X137380952Y-116307200D02*
X137476190Y-116354819D01*
X137476190Y-116354819D02*
X137619047Y-116354819D01*
X137619047Y-116354819D02*
X137714285Y-116307200D01*
X137714285Y-116307200D02*
X137761904Y-116259580D01*
X138571428Y-115831009D02*
X138238095Y-115831009D01*
X138238095Y-116354819D02*
X138238095Y-115354819D01*
X138238095Y-115354819D02*
X138714285Y-115354819D01*
X142233333Y-102354819D02*
X141900000Y-101878628D01*
X141661905Y-102354819D02*
X141661905Y-101354819D01*
X141661905Y-101354819D02*
X142042857Y-101354819D01*
X142042857Y-101354819D02*
X142138095Y-101402438D01*
X142138095Y-101402438D02*
X142185714Y-101450057D01*
X142185714Y-101450057D02*
X142233333Y-101545295D01*
X142233333Y-101545295D02*
X142233333Y-101688152D01*
X142233333Y-101688152D02*
X142185714Y-101783390D01*
X142185714Y-101783390D02*
X142138095Y-101831009D01*
X142138095Y-101831009D02*
X142042857Y-101878628D01*
X142042857Y-101878628D02*
X141661905Y-101878628D01*
X143090476Y-101354819D02*
X142900000Y-101354819D01*
X142900000Y-101354819D02*
X142804762Y-101402438D01*
X142804762Y-101402438D02*
X142757143Y-101450057D01*
X142757143Y-101450057D02*
X142661905Y-101592914D01*
X142661905Y-101592914D02*
X142614286Y-101783390D01*
X142614286Y-101783390D02*
X142614286Y-102164342D01*
X142614286Y-102164342D02*
X142661905Y-102259580D01*
X142661905Y-102259580D02*
X142709524Y-102307200D01*
X142709524Y-102307200D02*
X142804762Y-102354819D01*
X142804762Y-102354819D02*
X142995238Y-102354819D01*
X142995238Y-102354819D02*
X143090476Y-102307200D01*
X143090476Y-102307200D02*
X143138095Y-102259580D01*
X143138095Y-102259580D02*
X143185714Y-102164342D01*
X143185714Y-102164342D02*
X143185714Y-101926247D01*
X143185714Y-101926247D02*
X143138095Y-101831009D01*
X143138095Y-101831009D02*
X143090476Y-101783390D01*
X143090476Y-101783390D02*
X142995238Y-101735771D01*
X142995238Y-101735771D02*
X142804762Y-101735771D01*
X142804762Y-101735771D02*
X142709524Y-101783390D01*
X142709524Y-101783390D02*
X142661905Y-101831009D01*
X142661905Y-101831009D02*
X142614286Y-101926247D01*
X142161904Y-102654819D02*
X141685714Y-102654819D01*
X141685714Y-102654819D02*
X141638095Y-103131009D01*
X141638095Y-103131009D02*
X141685714Y-103083390D01*
X141685714Y-103083390D02*
X141780952Y-103035771D01*
X141780952Y-103035771D02*
X142019047Y-103035771D01*
X142019047Y-103035771D02*
X142114285Y-103083390D01*
X142114285Y-103083390D02*
X142161904Y-103131009D01*
X142161904Y-103131009D02*
X142209523Y-103226247D01*
X142209523Y-103226247D02*
X142209523Y-103464342D01*
X142209523Y-103464342D02*
X142161904Y-103559580D01*
X142161904Y-103559580D02*
X142114285Y-103607200D01*
X142114285Y-103607200D02*
X142019047Y-103654819D01*
X142019047Y-103654819D02*
X141780952Y-103654819D01*
X141780952Y-103654819D02*
X141685714Y-103607200D01*
X141685714Y-103607200D02*
X141638095Y-103559580D01*
X143161904Y-103654819D02*
X142590476Y-103654819D01*
X142876190Y-103654819D02*
X142876190Y-102654819D01*
X142876190Y-102654819D02*
X142780952Y-102797676D01*
X142780952Y-102797676D02*
X142685714Y-102892914D01*
X142685714Y-102892914D02*
X142590476Y-102940533D01*
X145233333Y-98159580D02*
X145185714Y-98207200D01*
X145185714Y-98207200D02*
X145042857Y-98254819D01*
X145042857Y-98254819D02*
X144947619Y-98254819D01*
X144947619Y-98254819D02*
X144804762Y-98207200D01*
X144804762Y-98207200D02*
X144709524Y-98111961D01*
X144709524Y-98111961D02*
X144661905Y-98016723D01*
X144661905Y-98016723D02*
X144614286Y-97826247D01*
X144614286Y-97826247D02*
X144614286Y-97683390D01*
X144614286Y-97683390D02*
X144661905Y-97492914D01*
X144661905Y-97492914D02*
X144709524Y-97397676D01*
X144709524Y-97397676D02*
X144804762Y-97302438D01*
X144804762Y-97302438D02*
X144947619Y-97254819D01*
X144947619Y-97254819D02*
X145042857Y-97254819D01*
X145042857Y-97254819D02*
X145185714Y-97302438D01*
X145185714Y-97302438D02*
X145233333Y-97350057D01*
X146090476Y-97254819D02*
X145900000Y-97254819D01*
X145900000Y-97254819D02*
X145804762Y-97302438D01*
X145804762Y-97302438D02*
X145757143Y-97350057D01*
X145757143Y-97350057D02*
X145661905Y-97492914D01*
X145661905Y-97492914D02*
X145614286Y-97683390D01*
X145614286Y-97683390D02*
X145614286Y-98064342D01*
X145614286Y-98064342D02*
X145661905Y-98159580D01*
X145661905Y-98159580D02*
X145709524Y-98207200D01*
X145709524Y-98207200D02*
X145804762Y-98254819D01*
X145804762Y-98254819D02*
X145995238Y-98254819D01*
X145995238Y-98254819D02*
X146090476Y-98207200D01*
X146090476Y-98207200D02*
X146138095Y-98159580D01*
X146138095Y-98159580D02*
X146185714Y-98064342D01*
X146185714Y-98064342D02*
X146185714Y-97826247D01*
X146185714Y-97826247D02*
X146138095Y-97731009D01*
X146138095Y-97731009D02*
X146090476Y-97683390D01*
X146090476Y-97683390D02*
X145995238Y-97635771D01*
X145995238Y-97635771D02*
X145804762Y-97635771D01*
X145804762Y-97635771D02*
X145709524Y-97683390D01*
X145709524Y-97683390D02*
X145661905Y-97731009D01*
X145661905Y-97731009D02*
X145614286Y-97826247D01*
X147157143Y-97254819D02*
X147252381Y-97254819D01*
X147252381Y-97254819D02*
X147347619Y-97302438D01*
X147347619Y-97302438D02*
X147395238Y-97350057D01*
X147395238Y-97350057D02*
X147442857Y-97445295D01*
X147442857Y-97445295D02*
X147490476Y-97635771D01*
X147490476Y-97635771D02*
X147490476Y-97873866D01*
X147490476Y-97873866D02*
X147442857Y-98064342D01*
X147442857Y-98064342D02*
X147395238Y-98159580D01*
X147395238Y-98159580D02*
X147347619Y-98207200D01*
X147347619Y-98207200D02*
X147252381Y-98254819D01*
X147252381Y-98254819D02*
X147157143Y-98254819D01*
X147157143Y-98254819D02*
X147061905Y-98207200D01*
X147061905Y-98207200D02*
X147014286Y-98159580D01*
X147014286Y-98159580D02*
X146966667Y-98064342D01*
X146966667Y-98064342D02*
X146919048Y-97873866D01*
X146919048Y-97873866D02*
X146919048Y-97635771D01*
X146919048Y-97635771D02*
X146966667Y-97445295D01*
X146966667Y-97445295D02*
X147014286Y-97350057D01*
X147014286Y-97350057D02*
X147061905Y-97302438D01*
X147061905Y-97302438D02*
X147157143Y-97254819D01*
X147919048Y-98159580D02*
X147966667Y-98207200D01*
X147966667Y-98207200D02*
X147919048Y-98254819D01*
X147919048Y-98254819D02*
X147871429Y-98207200D01*
X147871429Y-98207200D02*
X147919048Y-98159580D01*
X147919048Y-98159580D02*
X147919048Y-98254819D01*
X148919047Y-98254819D02*
X148347619Y-98254819D01*
X148633333Y-98254819D02*
X148633333Y-97254819D01*
X148633333Y-97254819D02*
X148538095Y-97397676D01*
X148538095Y-97397676D02*
X148442857Y-97492914D01*
X148442857Y-97492914D02*
X148347619Y-97540533D01*
X149776190Y-97588152D02*
X149776190Y-98254819D01*
X149347619Y-97588152D02*
X149347619Y-98111961D01*
X149347619Y-98111961D02*
X149395238Y-98207200D01*
X149395238Y-98207200D02*
X149490476Y-98254819D01*
X149490476Y-98254819D02*
X149633333Y-98254819D01*
X149633333Y-98254819D02*
X149728571Y-98207200D01*
X149728571Y-98207200D02*
X149776190Y-98159580D01*
X150585714Y-97731009D02*
X150252381Y-97731009D01*
X150252381Y-98254819D02*
X150252381Y-97254819D01*
X150252381Y-97254819D02*
X150728571Y-97254819D01*
X159811905Y-131654819D02*
X159811905Y-130654819D01*
X159811905Y-130654819D02*
X160050000Y-130654819D01*
X160050000Y-130654819D02*
X160192857Y-130702438D01*
X160192857Y-130702438D02*
X160288095Y-130797676D01*
X160288095Y-130797676D02*
X160335714Y-130892914D01*
X160335714Y-130892914D02*
X160383333Y-131083390D01*
X160383333Y-131083390D02*
X160383333Y-131226247D01*
X160383333Y-131226247D02*
X160335714Y-131416723D01*
X160335714Y-131416723D02*
X160288095Y-131511961D01*
X160288095Y-131511961D02*
X160192857Y-131607200D01*
X160192857Y-131607200D02*
X160050000Y-131654819D01*
X160050000Y-131654819D02*
X159811905Y-131654819D01*
X161335714Y-131654819D02*
X160764286Y-131654819D01*
X161050000Y-131654819D02*
X161050000Y-130654819D01*
X161050000Y-130654819D02*
X160954762Y-130797676D01*
X160954762Y-130797676D02*
X160859524Y-130892914D01*
X160859524Y-130892914D02*
X160764286Y-130940533D01*
X141291666Y-136706009D02*
X140958333Y-136706009D01*
X140958333Y-137229819D02*
X140958333Y-136229819D01*
X140958333Y-136229819D02*
X141434523Y-136229819D01*
X142339285Y-137229819D02*
X141767857Y-137229819D01*
X142053571Y-137229819D02*
X142053571Y-136229819D01*
X142053571Y-136229819D02*
X141958333Y-136372676D01*
X141958333Y-136372676D02*
X141863095Y-136467914D01*
X141863095Y-136467914D02*
X141767857Y-136515533D01*
X142333333Y-105059580D02*
X142285714Y-105107200D01*
X142285714Y-105107200D02*
X142142857Y-105154819D01*
X142142857Y-105154819D02*
X142047619Y-105154819D01*
X142047619Y-105154819D02*
X141904762Y-105107200D01*
X141904762Y-105107200D02*
X141809524Y-105011961D01*
X141809524Y-105011961D02*
X141761905Y-104916723D01*
X141761905Y-104916723D02*
X141714286Y-104726247D01*
X141714286Y-104726247D02*
X141714286Y-104583390D01*
X141714286Y-104583390D02*
X141761905Y-104392914D01*
X141761905Y-104392914D02*
X141809524Y-104297676D01*
X141809524Y-104297676D02*
X141904762Y-104202438D01*
X141904762Y-104202438D02*
X142047619Y-104154819D01*
X142047619Y-104154819D02*
X142142857Y-104154819D01*
X142142857Y-104154819D02*
X142285714Y-104202438D01*
X142285714Y-104202438D02*
X142333333Y-104250057D01*
X142666667Y-104154819D02*
X143333333Y-104154819D01*
X143333333Y-104154819D02*
X142904762Y-105154819D01*
X141957143Y-105554819D02*
X142052381Y-105554819D01*
X142052381Y-105554819D02*
X142147619Y-105602438D01*
X142147619Y-105602438D02*
X142195238Y-105650057D01*
X142195238Y-105650057D02*
X142242857Y-105745295D01*
X142242857Y-105745295D02*
X142290476Y-105935771D01*
X142290476Y-105935771D02*
X142290476Y-106173866D01*
X142290476Y-106173866D02*
X142242857Y-106364342D01*
X142242857Y-106364342D02*
X142195238Y-106459580D01*
X142195238Y-106459580D02*
X142147619Y-106507200D01*
X142147619Y-106507200D02*
X142052381Y-106554819D01*
X142052381Y-106554819D02*
X141957143Y-106554819D01*
X141957143Y-106554819D02*
X141861905Y-106507200D01*
X141861905Y-106507200D02*
X141814286Y-106459580D01*
X141814286Y-106459580D02*
X141766667Y-106364342D01*
X141766667Y-106364342D02*
X141719048Y-106173866D01*
X141719048Y-106173866D02*
X141719048Y-105935771D01*
X141719048Y-105935771D02*
X141766667Y-105745295D01*
X141766667Y-105745295D02*
X141814286Y-105650057D01*
X141814286Y-105650057D02*
X141861905Y-105602438D01*
X141861905Y-105602438D02*
X141957143Y-105554819D01*
X142719048Y-106459580D02*
X142766667Y-106507200D01*
X142766667Y-106507200D02*
X142719048Y-106554819D01*
X142719048Y-106554819D02*
X142671429Y-106507200D01*
X142671429Y-106507200D02*
X142719048Y-106459580D01*
X142719048Y-106459580D02*
X142719048Y-106554819D01*
X143719047Y-106554819D02*
X143147619Y-106554819D01*
X143433333Y-106554819D02*
X143433333Y-105554819D01*
X143433333Y-105554819D02*
X143338095Y-105697676D01*
X143338095Y-105697676D02*
X143242857Y-105792914D01*
X143242857Y-105792914D02*
X143147619Y-105840533D01*
X144576190Y-105888152D02*
X144576190Y-106554819D01*
X144147619Y-105888152D02*
X144147619Y-106411961D01*
X144147619Y-106411961D02*
X144195238Y-106507200D01*
X144195238Y-106507200D02*
X144290476Y-106554819D01*
X144290476Y-106554819D02*
X144433333Y-106554819D01*
X144433333Y-106554819D02*
X144528571Y-106507200D01*
X144528571Y-106507200D02*
X144576190Y-106459580D01*
X145385714Y-106031009D02*
X145052381Y-106031009D01*
X145052381Y-106554819D02*
X145052381Y-105554819D01*
X145052381Y-105554819D02*
X145528571Y-105554819D01*
X171807142Y-136659580D02*
X171759523Y-136707200D01*
X171759523Y-136707200D02*
X171616666Y-136754819D01*
X171616666Y-136754819D02*
X171521428Y-136754819D01*
X171521428Y-136754819D02*
X171378571Y-136707200D01*
X171378571Y-136707200D02*
X171283333Y-136611961D01*
X171283333Y-136611961D02*
X171235714Y-136516723D01*
X171235714Y-136516723D02*
X171188095Y-136326247D01*
X171188095Y-136326247D02*
X171188095Y-136183390D01*
X171188095Y-136183390D02*
X171235714Y-135992914D01*
X171235714Y-135992914D02*
X171283333Y-135897676D01*
X171283333Y-135897676D02*
X171378571Y-135802438D01*
X171378571Y-135802438D02*
X171521428Y-135754819D01*
X171521428Y-135754819D02*
X171616666Y-135754819D01*
X171616666Y-135754819D02*
X171759523Y-135802438D01*
X171759523Y-135802438D02*
X171807142Y-135850057D01*
X172759523Y-136754819D02*
X172188095Y-136754819D01*
X172473809Y-136754819D02*
X172473809Y-135754819D01*
X172473809Y-135754819D02*
X172378571Y-135897676D01*
X172378571Y-135897676D02*
X172283333Y-135992914D01*
X172283333Y-135992914D02*
X172188095Y-136040533D01*
X173378571Y-135754819D02*
X173473809Y-135754819D01*
X173473809Y-135754819D02*
X173569047Y-135802438D01*
X173569047Y-135802438D02*
X173616666Y-135850057D01*
X173616666Y-135850057D02*
X173664285Y-135945295D01*
X173664285Y-135945295D02*
X173711904Y-136135771D01*
X173711904Y-136135771D02*
X173711904Y-136373866D01*
X173711904Y-136373866D02*
X173664285Y-136564342D01*
X173664285Y-136564342D02*
X173616666Y-136659580D01*
X173616666Y-136659580D02*
X173569047Y-136707200D01*
X173569047Y-136707200D02*
X173473809Y-136754819D01*
X173473809Y-136754819D02*
X173378571Y-136754819D01*
X173378571Y-136754819D02*
X173283333Y-136707200D01*
X173283333Y-136707200D02*
X173235714Y-136659580D01*
X173235714Y-136659580D02*
X173188095Y-136564342D01*
X173188095Y-136564342D02*
X173140476Y-136373866D01*
X173140476Y-136373866D02*
X173140476Y-136135771D01*
X173140476Y-136135771D02*
X173188095Y-135945295D01*
X173188095Y-135945295D02*
X173235714Y-135850057D01*
X173235714Y-135850057D02*
X173283333Y-135802438D01*
X173283333Y-135802438D02*
X173378571Y-135754819D01*
X171183333Y-137388152D02*
X171183333Y-138054819D01*
X170945238Y-137007200D02*
X170707143Y-137721485D01*
X170707143Y-137721485D02*
X171326190Y-137721485D01*
X171611905Y-137054819D02*
X172278571Y-137054819D01*
X172278571Y-137054819D02*
X171850000Y-138054819D01*
X173088095Y-137388152D02*
X173088095Y-138054819D01*
X172659524Y-137388152D02*
X172659524Y-137911961D01*
X172659524Y-137911961D02*
X172707143Y-138007200D01*
X172707143Y-138007200D02*
X172802381Y-138054819D01*
X172802381Y-138054819D02*
X172945238Y-138054819D01*
X172945238Y-138054819D02*
X173040476Y-138007200D01*
X173040476Y-138007200D02*
X173088095Y-137959580D01*
X173897619Y-137531009D02*
X173564286Y-137531009D01*
X173564286Y-138054819D02*
X173564286Y-137054819D01*
X173564286Y-137054819D02*
X174040476Y-137054819D01*
X149054761Y-68150057D02*
X148959523Y-68102438D01*
X148959523Y-68102438D02*
X148864285Y-68007200D01*
X148864285Y-68007200D02*
X148721428Y-67864342D01*
X148721428Y-67864342D02*
X148626190Y-67816723D01*
X148626190Y-67816723D02*
X148530952Y-67816723D01*
X148578571Y-68054819D02*
X148483333Y-68007200D01*
X148483333Y-68007200D02*
X148388095Y-67911961D01*
X148388095Y-67911961D02*
X148340476Y-67721485D01*
X148340476Y-67721485D02*
X148340476Y-67388152D01*
X148340476Y-67388152D02*
X148388095Y-67197676D01*
X148388095Y-67197676D02*
X148483333Y-67102438D01*
X148483333Y-67102438D02*
X148578571Y-67054819D01*
X148578571Y-67054819D02*
X148769047Y-67054819D01*
X148769047Y-67054819D02*
X148864285Y-67102438D01*
X148864285Y-67102438D02*
X148959523Y-67197676D01*
X148959523Y-67197676D02*
X149007142Y-67388152D01*
X149007142Y-67388152D02*
X149007142Y-67721485D01*
X149007142Y-67721485D02*
X148959523Y-67911961D01*
X148959523Y-67911961D02*
X148864285Y-68007200D01*
X148864285Y-68007200D02*
X148769047Y-68054819D01*
X148769047Y-68054819D02*
X148578571Y-68054819D01*
X149340476Y-67054819D02*
X149959523Y-67054819D01*
X149959523Y-67054819D02*
X149626190Y-67435771D01*
X149626190Y-67435771D02*
X149769047Y-67435771D01*
X149769047Y-67435771D02*
X149864285Y-67483390D01*
X149864285Y-67483390D02*
X149911904Y-67531009D01*
X149911904Y-67531009D02*
X149959523Y-67626247D01*
X149959523Y-67626247D02*
X149959523Y-67864342D01*
X149959523Y-67864342D02*
X149911904Y-67959580D01*
X149911904Y-67959580D02*
X149864285Y-68007200D01*
X149864285Y-68007200D02*
X149769047Y-68054819D01*
X149769047Y-68054819D02*
X149483333Y-68054819D01*
X149483333Y-68054819D02*
X149388095Y-68007200D01*
X149388095Y-68007200D02*
X149340476Y-67959580D01*
X127557142Y-102254819D02*
X127223809Y-101778628D01*
X126985714Y-102254819D02*
X126985714Y-101254819D01*
X126985714Y-101254819D02*
X127366666Y-101254819D01*
X127366666Y-101254819D02*
X127461904Y-101302438D01*
X127461904Y-101302438D02*
X127509523Y-101350057D01*
X127509523Y-101350057D02*
X127557142Y-101445295D01*
X127557142Y-101445295D02*
X127557142Y-101588152D01*
X127557142Y-101588152D02*
X127509523Y-101683390D01*
X127509523Y-101683390D02*
X127461904Y-101731009D01*
X127461904Y-101731009D02*
X127366666Y-101778628D01*
X127366666Y-101778628D02*
X126985714Y-101778628D01*
X128509523Y-102254819D02*
X127938095Y-102254819D01*
X128223809Y-102254819D02*
X128223809Y-101254819D01*
X128223809Y-101254819D02*
X128128571Y-101397676D01*
X128128571Y-101397676D02*
X128033333Y-101492914D01*
X128033333Y-101492914D02*
X127938095Y-101540533D01*
X128842857Y-101254819D02*
X129509523Y-101254819D01*
X129509523Y-101254819D02*
X129080952Y-102254819D01*
X127609524Y-102850057D02*
X127657143Y-102802438D01*
X127657143Y-102802438D02*
X127752381Y-102754819D01*
X127752381Y-102754819D02*
X127990476Y-102754819D01*
X127990476Y-102754819D02*
X128085714Y-102802438D01*
X128085714Y-102802438D02*
X128133333Y-102850057D01*
X128133333Y-102850057D02*
X128180952Y-102945295D01*
X128180952Y-102945295D02*
X128180952Y-103040533D01*
X128180952Y-103040533D02*
X128133333Y-103183390D01*
X128133333Y-103183390D02*
X127561905Y-103754819D01*
X127561905Y-103754819D02*
X128180952Y-103754819D01*
X128609524Y-103754819D02*
X128609524Y-102754819D01*
X128704762Y-103373866D02*
X128990476Y-103754819D01*
X128990476Y-103088152D02*
X128609524Y-103469104D01*
X163259524Y-109781009D02*
X163592857Y-109781009D01*
X163735714Y-110304819D02*
X163259524Y-110304819D01*
X163259524Y-110304819D02*
X163259524Y-109304819D01*
X163259524Y-109304819D02*
X163735714Y-109304819D01*
X164688095Y-110304819D02*
X164116667Y-110304819D01*
X164402381Y-110304819D02*
X164402381Y-109304819D01*
X164402381Y-109304819D02*
X164307143Y-109447676D01*
X164307143Y-109447676D02*
X164211905Y-109542914D01*
X164211905Y-109542914D02*
X164116667Y-109590533D01*
X126257142Y-123159580D02*
X126209523Y-123207200D01*
X126209523Y-123207200D02*
X126066666Y-123254819D01*
X126066666Y-123254819D02*
X125971428Y-123254819D01*
X125971428Y-123254819D02*
X125828571Y-123207200D01*
X125828571Y-123207200D02*
X125733333Y-123111961D01*
X125733333Y-123111961D02*
X125685714Y-123016723D01*
X125685714Y-123016723D02*
X125638095Y-122826247D01*
X125638095Y-122826247D02*
X125638095Y-122683390D01*
X125638095Y-122683390D02*
X125685714Y-122492914D01*
X125685714Y-122492914D02*
X125733333Y-122397676D01*
X125733333Y-122397676D02*
X125828571Y-122302438D01*
X125828571Y-122302438D02*
X125971428Y-122254819D01*
X125971428Y-122254819D02*
X126066666Y-122254819D01*
X126066666Y-122254819D02*
X126209523Y-122302438D01*
X126209523Y-122302438D02*
X126257142Y-122350057D01*
X127209523Y-123254819D02*
X126638095Y-123254819D01*
X126923809Y-123254819D02*
X126923809Y-122254819D01*
X126923809Y-122254819D02*
X126828571Y-122397676D01*
X126828571Y-122397676D02*
X126733333Y-122492914D01*
X126733333Y-122492914D02*
X126638095Y-122540533D01*
X128161904Y-123254819D02*
X127590476Y-123254819D01*
X127876190Y-123254819D02*
X127876190Y-122254819D01*
X127876190Y-122254819D02*
X127780952Y-122397676D01*
X127780952Y-122397676D02*
X127685714Y-122492914D01*
X127685714Y-122492914D02*
X127590476Y-122540533D01*
X129157143Y-122254819D02*
X129252381Y-122254819D01*
X129252381Y-122254819D02*
X129347619Y-122302438D01*
X129347619Y-122302438D02*
X129395238Y-122350057D01*
X129395238Y-122350057D02*
X129442857Y-122445295D01*
X129442857Y-122445295D02*
X129490476Y-122635771D01*
X129490476Y-122635771D02*
X129490476Y-122873866D01*
X129490476Y-122873866D02*
X129442857Y-123064342D01*
X129442857Y-123064342D02*
X129395238Y-123159580D01*
X129395238Y-123159580D02*
X129347619Y-123207200D01*
X129347619Y-123207200D02*
X129252381Y-123254819D01*
X129252381Y-123254819D02*
X129157143Y-123254819D01*
X129157143Y-123254819D02*
X129061905Y-123207200D01*
X129061905Y-123207200D02*
X129014286Y-123159580D01*
X129014286Y-123159580D02*
X128966667Y-123064342D01*
X128966667Y-123064342D02*
X128919048Y-122873866D01*
X128919048Y-122873866D02*
X128919048Y-122635771D01*
X128919048Y-122635771D02*
X128966667Y-122445295D01*
X128966667Y-122445295D02*
X129014286Y-122350057D01*
X129014286Y-122350057D02*
X129061905Y-122302438D01*
X129061905Y-122302438D02*
X129157143Y-122254819D01*
X129919048Y-123159580D02*
X129966667Y-123207200D01*
X129966667Y-123207200D02*
X129919048Y-123254819D01*
X129919048Y-123254819D02*
X129871429Y-123207200D01*
X129871429Y-123207200D02*
X129919048Y-123159580D01*
X129919048Y-123159580D02*
X129919048Y-123254819D01*
X130919047Y-123254819D02*
X130347619Y-123254819D01*
X130633333Y-123254819D02*
X130633333Y-122254819D01*
X130633333Y-122254819D02*
X130538095Y-122397676D01*
X130538095Y-122397676D02*
X130442857Y-122492914D01*
X130442857Y-122492914D02*
X130347619Y-122540533D01*
X131776190Y-122588152D02*
X131776190Y-123254819D01*
X131347619Y-122588152D02*
X131347619Y-123111961D01*
X131347619Y-123111961D02*
X131395238Y-123207200D01*
X131395238Y-123207200D02*
X131490476Y-123254819D01*
X131490476Y-123254819D02*
X131633333Y-123254819D01*
X131633333Y-123254819D02*
X131728571Y-123207200D01*
X131728571Y-123207200D02*
X131776190Y-123159580D01*
X132585714Y-122731009D02*
X132252381Y-122731009D01*
X132252381Y-123254819D02*
X132252381Y-122254819D01*
X132252381Y-122254819D02*
X132728571Y-122254819D01*
X170457142Y-124259580D02*
X170409523Y-124307200D01*
X170409523Y-124307200D02*
X170266666Y-124354819D01*
X170266666Y-124354819D02*
X170171428Y-124354819D01*
X170171428Y-124354819D02*
X170028571Y-124307200D01*
X170028571Y-124307200D02*
X169933333Y-124211961D01*
X169933333Y-124211961D02*
X169885714Y-124116723D01*
X169885714Y-124116723D02*
X169838095Y-123926247D01*
X169838095Y-123926247D02*
X169838095Y-123783390D01*
X169838095Y-123783390D02*
X169885714Y-123592914D01*
X169885714Y-123592914D02*
X169933333Y-123497676D01*
X169933333Y-123497676D02*
X170028571Y-123402438D01*
X170028571Y-123402438D02*
X170171428Y-123354819D01*
X170171428Y-123354819D02*
X170266666Y-123354819D01*
X170266666Y-123354819D02*
X170409523Y-123402438D01*
X170409523Y-123402438D02*
X170457142Y-123450057D01*
X171409523Y-124354819D02*
X170838095Y-124354819D01*
X171123809Y-124354819D02*
X171123809Y-123354819D01*
X171123809Y-123354819D02*
X171028571Y-123497676D01*
X171028571Y-123497676D02*
X170933333Y-123592914D01*
X170933333Y-123592914D02*
X170838095Y-123640533D01*
X171742857Y-123354819D02*
X172361904Y-123354819D01*
X172361904Y-123354819D02*
X172028571Y-123735771D01*
X172028571Y-123735771D02*
X172171428Y-123735771D01*
X172171428Y-123735771D02*
X172266666Y-123783390D01*
X172266666Y-123783390D02*
X172314285Y-123831009D01*
X172314285Y-123831009D02*
X172361904Y-123926247D01*
X172361904Y-123926247D02*
X172361904Y-124164342D01*
X172361904Y-124164342D02*
X172314285Y-124259580D01*
X172314285Y-124259580D02*
X172266666Y-124307200D01*
X172266666Y-124307200D02*
X172171428Y-124354819D01*
X172171428Y-124354819D02*
X171885714Y-124354819D01*
X171885714Y-124354819D02*
X171790476Y-124307200D01*
X171790476Y-124307200D02*
X171742857Y-124259580D01*
X173457143Y-123354819D02*
X173552381Y-123354819D01*
X173552381Y-123354819D02*
X173647619Y-123402438D01*
X173647619Y-123402438D02*
X173695238Y-123450057D01*
X173695238Y-123450057D02*
X173742857Y-123545295D01*
X173742857Y-123545295D02*
X173790476Y-123735771D01*
X173790476Y-123735771D02*
X173790476Y-123973866D01*
X173790476Y-123973866D02*
X173742857Y-124164342D01*
X173742857Y-124164342D02*
X173695238Y-124259580D01*
X173695238Y-124259580D02*
X173647619Y-124307200D01*
X173647619Y-124307200D02*
X173552381Y-124354819D01*
X173552381Y-124354819D02*
X173457143Y-124354819D01*
X173457143Y-124354819D02*
X173361905Y-124307200D01*
X173361905Y-124307200D02*
X173314286Y-124259580D01*
X173314286Y-124259580D02*
X173266667Y-124164342D01*
X173266667Y-124164342D02*
X173219048Y-123973866D01*
X173219048Y-123973866D02*
X173219048Y-123735771D01*
X173219048Y-123735771D02*
X173266667Y-123545295D01*
X173266667Y-123545295D02*
X173314286Y-123450057D01*
X173314286Y-123450057D02*
X173361905Y-123402438D01*
X173361905Y-123402438D02*
X173457143Y-123354819D01*
X174219048Y-124259580D02*
X174266667Y-124307200D01*
X174266667Y-124307200D02*
X174219048Y-124354819D01*
X174219048Y-124354819D02*
X174171429Y-124307200D01*
X174171429Y-124307200D02*
X174219048Y-124259580D01*
X174219048Y-124259580D02*
X174219048Y-124354819D01*
X175219047Y-124354819D02*
X174647619Y-124354819D01*
X174933333Y-124354819D02*
X174933333Y-123354819D01*
X174933333Y-123354819D02*
X174838095Y-123497676D01*
X174838095Y-123497676D02*
X174742857Y-123592914D01*
X174742857Y-123592914D02*
X174647619Y-123640533D01*
X176076190Y-123688152D02*
X176076190Y-124354819D01*
X175647619Y-123688152D02*
X175647619Y-124211961D01*
X175647619Y-124211961D02*
X175695238Y-124307200D01*
X175695238Y-124307200D02*
X175790476Y-124354819D01*
X175790476Y-124354819D02*
X175933333Y-124354819D01*
X175933333Y-124354819D02*
X176028571Y-124307200D01*
X176028571Y-124307200D02*
X176076190Y-124259580D01*
X176885714Y-123831009D02*
X176552381Y-123831009D01*
X176552381Y-124354819D02*
X176552381Y-123354819D01*
X176552381Y-123354819D02*
X177028571Y-123354819D01*
X190566666Y-66019819D02*
X190566666Y-66734104D01*
X190566666Y-66734104D02*
X190519047Y-66876961D01*
X190519047Y-66876961D02*
X190423809Y-66972200D01*
X190423809Y-66972200D02*
X190280952Y-67019819D01*
X190280952Y-67019819D02*
X190185714Y-67019819D01*
X191566666Y-67019819D02*
X190995238Y-67019819D01*
X191280952Y-67019819D02*
X191280952Y-66019819D01*
X191280952Y-66019819D02*
X191185714Y-66162676D01*
X191185714Y-66162676D02*
X191090476Y-66257914D01*
X191090476Y-66257914D02*
X190995238Y-66305533D01*
X147333333Y-79554819D02*
X147000000Y-79078628D01*
X146761905Y-79554819D02*
X146761905Y-78554819D01*
X146761905Y-78554819D02*
X147142857Y-78554819D01*
X147142857Y-78554819D02*
X147238095Y-78602438D01*
X147238095Y-78602438D02*
X147285714Y-78650057D01*
X147285714Y-78650057D02*
X147333333Y-78745295D01*
X147333333Y-78745295D02*
X147333333Y-78888152D01*
X147333333Y-78888152D02*
X147285714Y-78983390D01*
X147285714Y-78983390D02*
X147238095Y-79031009D01*
X147238095Y-79031009D02*
X147142857Y-79078628D01*
X147142857Y-79078628D02*
X146761905Y-79078628D01*
X148285714Y-79554819D02*
X147714286Y-79554819D01*
X148000000Y-79554819D02*
X148000000Y-78554819D01*
X148000000Y-78554819D02*
X147904762Y-78697676D01*
X147904762Y-78697676D02*
X147809524Y-78792914D01*
X147809524Y-78792914D02*
X147714286Y-78840533D01*
X149685714Y-79554819D02*
X149114286Y-79554819D01*
X149400000Y-79554819D02*
X149400000Y-78554819D01*
X149400000Y-78554819D02*
X149304762Y-78697676D01*
X149304762Y-78697676D02*
X149209524Y-78792914D01*
X149209524Y-78792914D02*
X149114286Y-78840533D01*
X149204761Y-111750057D02*
X149109523Y-111702438D01*
X149109523Y-111702438D02*
X149014285Y-111607200D01*
X149014285Y-111607200D02*
X148871428Y-111464342D01*
X148871428Y-111464342D02*
X148776190Y-111416723D01*
X148776190Y-111416723D02*
X148680952Y-111416723D01*
X148728571Y-111654819D02*
X148633333Y-111607200D01*
X148633333Y-111607200D02*
X148538095Y-111511961D01*
X148538095Y-111511961D02*
X148490476Y-111321485D01*
X148490476Y-111321485D02*
X148490476Y-110988152D01*
X148490476Y-110988152D02*
X148538095Y-110797676D01*
X148538095Y-110797676D02*
X148633333Y-110702438D01*
X148633333Y-110702438D02*
X148728571Y-110654819D01*
X148728571Y-110654819D02*
X148919047Y-110654819D01*
X148919047Y-110654819D02*
X149014285Y-110702438D01*
X149014285Y-110702438D02*
X149109523Y-110797676D01*
X149109523Y-110797676D02*
X149157142Y-110988152D01*
X149157142Y-110988152D02*
X149157142Y-111321485D01*
X149157142Y-111321485D02*
X149109523Y-111511961D01*
X149109523Y-111511961D02*
X149014285Y-111607200D01*
X149014285Y-111607200D02*
X148919047Y-111654819D01*
X148919047Y-111654819D02*
X148728571Y-111654819D01*
X150109523Y-111654819D02*
X149538095Y-111654819D01*
X149823809Y-111654819D02*
X149823809Y-110654819D01*
X149823809Y-110654819D02*
X149728571Y-110797676D01*
X149728571Y-110797676D02*
X149633333Y-110892914D01*
X149633333Y-110892914D02*
X149538095Y-110940533D01*
D12*
X157266667Y-87388704D02*
X157228571Y-87426800D01*
X157228571Y-87426800D02*
X157114286Y-87464895D01*
X157114286Y-87464895D02*
X157038095Y-87464895D01*
X157038095Y-87464895D02*
X156923809Y-87426800D01*
X156923809Y-87426800D02*
X156847619Y-87350609D01*
X156847619Y-87350609D02*
X156809524Y-87274419D01*
X156809524Y-87274419D02*
X156771428Y-87122038D01*
X156771428Y-87122038D02*
X156771428Y-87007752D01*
X156771428Y-87007752D02*
X156809524Y-86855371D01*
X156809524Y-86855371D02*
X156847619Y-86779180D01*
X156847619Y-86779180D02*
X156923809Y-86702990D01*
X156923809Y-86702990D02*
X157038095Y-86664895D01*
X157038095Y-86664895D02*
X157114286Y-86664895D01*
X157114286Y-86664895D02*
X157228571Y-86702990D01*
X157228571Y-86702990D02*
X157266667Y-86741085D01*
X157571428Y-86741085D02*
X157609524Y-86702990D01*
X157609524Y-86702990D02*
X157685714Y-86664895D01*
X157685714Y-86664895D02*
X157876190Y-86664895D01*
X157876190Y-86664895D02*
X157952381Y-86702990D01*
X157952381Y-86702990D02*
X157990476Y-86741085D01*
X157990476Y-86741085D02*
X158028571Y-86817276D01*
X158028571Y-86817276D02*
X158028571Y-86893466D01*
X158028571Y-86893466D02*
X157990476Y-87007752D01*
X157990476Y-87007752D02*
X157533333Y-87464895D01*
X157533333Y-87464895D02*
X158028571Y-87464895D01*
X158961904Y-87464895D02*
X158504761Y-87464895D01*
X158733333Y-87464895D02*
X158733333Y-86664895D01*
X158733333Y-86664895D02*
X158657142Y-86779180D01*
X158657142Y-86779180D02*
X158580952Y-86855371D01*
X158580952Y-86855371D02*
X158504761Y-86893466D01*
X159266666Y-86741085D02*
X159304762Y-86702990D01*
X159304762Y-86702990D02*
X159380952Y-86664895D01*
X159380952Y-86664895D02*
X159571428Y-86664895D01*
X159571428Y-86664895D02*
X159647619Y-86702990D01*
X159647619Y-86702990D02*
X159685714Y-86741085D01*
X159685714Y-86741085D02*
X159723809Y-86817276D01*
X159723809Y-86817276D02*
X159723809Y-86893466D01*
X159723809Y-86893466D02*
X159685714Y-87007752D01*
X159685714Y-87007752D02*
X159228571Y-87464895D01*
X159228571Y-87464895D02*
X159723809Y-87464895D01*
X160219048Y-86664895D02*
X160295238Y-86664895D01*
X160295238Y-86664895D02*
X160371429Y-86702990D01*
X160371429Y-86702990D02*
X160409524Y-86741085D01*
X160409524Y-86741085D02*
X160447619Y-86817276D01*
X160447619Y-86817276D02*
X160485714Y-86969657D01*
X160485714Y-86969657D02*
X160485714Y-87160133D01*
X160485714Y-87160133D02*
X160447619Y-87312514D01*
X160447619Y-87312514D02*
X160409524Y-87388704D01*
X160409524Y-87388704D02*
X160371429Y-87426800D01*
X160371429Y-87426800D02*
X160295238Y-87464895D01*
X160295238Y-87464895D02*
X160219048Y-87464895D01*
X160219048Y-87464895D02*
X160142857Y-87426800D01*
X160142857Y-87426800D02*
X160104762Y-87388704D01*
X160104762Y-87388704D02*
X160066667Y-87312514D01*
X160066667Y-87312514D02*
X160028571Y-87160133D01*
X160028571Y-87160133D02*
X160028571Y-86969657D01*
X160028571Y-86969657D02*
X160066667Y-86817276D01*
X160066667Y-86817276D02*
X160104762Y-86741085D01*
X160104762Y-86741085D02*
X160142857Y-86702990D01*
X160142857Y-86702990D02*
X160219048Y-86664895D01*
X160828572Y-86931561D02*
X160828572Y-87731561D01*
X160828572Y-86969657D02*
X160904762Y-86931561D01*
X160904762Y-86931561D02*
X161057143Y-86931561D01*
X161057143Y-86931561D02*
X161133334Y-86969657D01*
X161133334Y-86969657D02*
X161171429Y-87007752D01*
X161171429Y-87007752D02*
X161209524Y-87083942D01*
X161209524Y-87083942D02*
X161209524Y-87312514D01*
X161209524Y-87312514D02*
X161171429Y-87388704D01*
X161171429Y-87388704D02*
X161133334Y-87426800D01*
X161133334Y-87426800D02*
X161057143Y-87464895D01*
X161057143Y-87464895D02*
X160904762Y-87464895D01*
X160904762Y-87464895D02*
X160828572Y-87426800D01*
X161819048Y-87045847D02*
X161552382Y-87045847D01*
X161552382Y-87464895D02*
X161552382Y-86664895D01*
X161552382Y-86664895D02*
X161933334Y-86664895D01*
D10*
X163559524Y-125331009D02*
X163892857Y-125331009D01*
X164035714Y-125854819D02*
X163559524Y-125854819D01*
X163559524Y-125854819D02*
X163559524Y-124854819D01*
X163559524Y-124854819D02*
X164035714Y-124854819D01*
X164416667Y-124950057D02*
X164464286Y-124902438D01*
X164464286Y-124902438D02*
X164559524Y-124854819D01*
X164559524Y-124854819D02*
X164797619Y-124854819D01*
X164797619Y-124854819D02*
X164892857Y-124902438D01*
X164892857Y-124902438D02*
X164940476Y-124950057D01*
X164940476Y-124950057D02*
X164988095Y-125045295D01*
X164988095Y-125045295D02*
X164988095Y-125140533D01*
X164988095Y-125140533D02*
X164940476Y-125283390D01*
X164940476Y-125283390D02*
X164369048Y-125854819D01*
X164369048Y-125854819D02*
X164988095Y-125854819D01*
X121916666Y-123654819D02*
X121916666Y-124369104D01*
X121916666Y-124369104D02*
X121869047Y-124511961D01*
X121869047Y-124511961D02*
X121773809Y-124607200D01*
X121773809Y-124607200D02*
X121630952Y-124654819D01*
X121630952Y-124654819D02*
X121535714Y-124654819D01*
X122869047Y-123654819D02*
X122392857Y-123654819D01*
X122392857Y-123654819D02*
X122345238Y-124131009D01*
X122345238Y-124131009D02*
X122392857Y-124083390D01*
X122392857Y-124083390D02*
X122488095Y-124035771D01*
X122488095Y-124035771D02*
X122726190Y-124035771D01*
X122726190Y-124035771D02*
X122821428Y-124083390D01*
X122821428Y-124083390D02*
X122869047Y-124131009D01*
X122869047Y-124131009D02*
X122916666Y-124226247D01*
X122916666Y-124226247D02*
X122916666Y-124464342D01*
X122916666Y-124464342D02*
X122869047Y-124559580D01*
X122869047Y-124559580D02*
X122821428Y-124607200D01*
X122821428Y-124607200D02*
X122726190Y-124654819D01*
X122726190Y-124654819D02*
X122488095Y-124654819D01*
X122488095Y-124654819D02*
X122392857Y-124607200D01*
X122392857Y-124607200D02*
X122345238Y-124559580D01*
X120166666Y-81454819D02*
X120166666Y-82169104D01*
X120166666Y-82169104D02*
X120119047Y-82311961D01*
X120119047Y-82311961D02*
X120023809Y-82407200D01*
X120023809Y-82407200D02*
X119880952Y-82454819D01*
X119880952Y-82454819D02*
X119785714Y-82454819D01*
X120595238Y-81550057D02*
X120642857Y-81502438D01*
X120642857Y-81502438D02*
X120738095Y-81454819D01*
X120738095Y-81454819D02*
X120976190Y-81454819D01*
X120976190Y-81454819D02*
X121071428Y-81502438D01*
X121071428Y-81502438D02*
X121119047Y-81550057D01*
X121119047Y-81550057D02*
X121166666Y-81645295D01*
X121166666Y-81645295D02*
X121166666Y-81740533D01*
X121166666Y-81740533D02*
X121119047Y-81883390D01*
X121119047Y-81883390D02*
X120547619Y-82454819D01*
X120547619Y-82454819D02*
X121166666Y-82454819D01*
X119666666Y-113554819D02*
X119666666Y-114269104D01*
X119666666Y-114269104D02*
X119619047Y-114411961D01*
X119619047Y-114411961D02*
X119523809Y-114507200D01*
X119523809Y-114507200D02*
X119380952Y-114554819D01*
X119380952Y-114554819D02*
X119285714Y-114554819D01*
X120047619Y-113554819D02*
X120666666Y-113554819D01*
X120666666Y-113554819D02*
X120333333Y-113935771D01*
X120333333Y-113935771D02*
X120476190Y-113935771D01*
X120476190Y-113935771D02*
X120571428Y-113983390D01*
X120571428Y-113983390D02*
X120619047Y-114031009D01*
X120619047Y-114031009D02*
X120666666Y-114126247D01*
X120666666Y-114126247D02*
X120666666Y-114364342D01*
X120666666Y-114364342D02*
X120619047Y-114459580D01*
X120619047Y-114459580D02*
X120571428Y-114507200D01*
X120571428Y-114507200D02*
X120476190Y-114554819D01*
X120476190Y-114554819D02*
X120190476Y-114554819D01*
X120190476Y-114554819D02*
X120095238Y-114507200D01*
X120095238Y-114507200D02*
X120047619Y-114459580D01*
X125704524Y-115531009D02*
X126037857Y-115531009D01*
X126180714Y-116054819D02*
X125704524Y-116054819D01*
X125704524Y-116054819D02*
X125704524Y-115054819D01*
X125704524Y-115054819D02*
X126180714Y-115054819D01*
X127037857Y-115388152D02*
X127037857Y-116054819D01*
X126799762Y-115007200D02*
X126561667Y-115721485D01*
X126561667Y-115721485D02*
X127180714Y-115721485D01*
X163309524Y-118031009D02*
X163642857Y-118031009D01*
X163785714Y-118554819D02*
X163309524Y-118554819D01*
X163309524Y-118554819D02*
X163309524Y-117554819D01*
X163309524Y-117554819D02*
X163785714Y-117554819D01*
X164119048Y-117554819D02*
X164738095Y-117554819D01*
X164738095Y-117554819D02*
X164404762Y-117935771D01*
X164404762Y-117935771D02*
X164547619Y-117935771D01*
X164547619Y-117935771D02*
X164642857Y-117983390D01*
X164642857Y-117983390D02*
X164690476Y-118031009D01*
X164690476Y-118031009D02*
X164738095Y-118126247D01*
X164738095Y-118126247D02*
X164738095Y-118364342D01*
X164738095Y-118364342D02*
X164690476Y-118459580D01*
X164690476Y-118459580D02*
X164642857Y-118507200D01*
X164642857Y-118507200D02*
X164547619Y-118554819D01*
X164547619Y-118554819D02*
X164261905Y-118554819D01*
X164261905Y-118554819D02*
X164166667Y-118507200D01*
X164166667Y-118507200D02*
X164119048Y-118459580D01*
X136933333Y-96754819D02*
X136600000Y-96278628D01*
X136361905Y-96754819D02*
X136361905Y-95754819D01*
X136361905Y-95754819D02*
X136742857Y-95754819D01*
X136742857Y-95754819D02*
X136838095Y-95802438D01*
X136838095Y-95802438D02*
X136885714Y-95850057D01*
X136885714Y-95850057D02*
X136933333Y-95945295D01*
X136933333Y-95945295D02*
X136933333Y-96088152D01*
X136933333Y-96088152D02*
X136885714Y-96183390D01*
X136885714Y-96183390D02*
X136838095Y-96231009D01*
X136838095Y-96231009D02*
X136742857Y-96278628D01*
X136742857Y-96278628D02*
X136361905Y-96278628D01*
X137838095Y-95754819D02*
X137361905Y-95754819D01*
X137361905Y-95754819D02*
X137314286Y-96231009D01*
X137314286Y-96231009D02*
X137361905Y-96183390D01*
X137361905Y-96183390D02*
X137457143Y-96135771D01*
X137457143Y-96135771D02*
X137695238Y-96135771D01*
X137695238Y-96135771D02*
X137790476Y-96183390D01*
X137790476Y-96183390D02*
X137838095Y-96231009D01*
X137838095Y-96231009D02*
X137885714Y-96326247D01*
X137885714Y-96326247D02*
X137885714Y-96564342D01*
X137885714Y-96564342D02*
X137838095Y-96659580D01*
X137838095Y-96659580D02*
X137790476Y-96707200D01*
X137790476Y-96707200D02*
X137695238Y-96754819D01*
X137695238Y-96754819D02*
X137457143Y-96754819D01*
X137457143Y-96754819D02*
X137361905Y-96707200D01*
X137361905Y-96707200D02*
X137314286Y-96659580D01*
X139261904Y-95754819D02*
X138785714Y-95754819D01*
X138785714Y-95754819D02*
X138738095Y-96231009D01*
X138738095Y-96231009D02*
X138785714Y-96183390D01*
X138785714Y-96183390D02*
X138880952Y-96135771D01*
X138880952Y-96135771D02*
X139119047Y-96135771D01*
X139119047Y-96135771D02*
X139214285Y-96183390D01*
X139214285Y-96183390D02*
X139261904Y-96231009D01*
X139261904Y-96231009D02*
X139309523Y-96326247D01*
X139309523Y-96326247D02*
X139309523Y-96564342D01*
X139309523Y-96564342D02*
X139261904Y-96659580D01*
X139261904Y-96659580D02*
X139214285Y-96707200D01*
X139214285Y-96707200D02*
X139119047Y-96754819D01*
X139119047Y-96754819D02*
X138880952Y-96754819D01*
X138880952Y-96754819D02*
X138785714Y-96707200D01*
X138785714Y-96707200D02*
X138738095Y-96659580D01*
X140261904Y-96754819D02*
X139690476Y-96754819D01*
X139976190Y-96754819D02*
X139976190Y-95754819D01*
X139976190Y-95754819D02*
X139880952Y-95897676D01*
X139880952Y-95897676D02*
X139785714Y-95992914D01*
X139785714Y-95992914D02*
X139690476Y-96040533D01*
X165407142Y-136359580D02*
X165359523Y-136407200D01*
X165359523Y-136407200D02*
X165216666Y-136454819D01*
X165216666Y-136454819D02*
X165121428Y-136454819D01*
X165121428Y-136454819D02*
X164978571Y-136407200D01*
X164978571Y-136407200D02*
X164883333Y-136311961D01*
X164883333Y-136311961D02*
X164835714Y-136216723D01*
X164835714Y-136216723D02*
X164788095Y-136026247D01*
X164788095Y-136026247D02*
X164788095Y-135883390D01*
X164788095Y-135883390D02*
X164835714Y-135692914D01*
X164835714Y-135692914D02*
X164883333Y-135597676D01*
X164883333Y-135597676D02*
X164978571Y-135502438D01*
X164978571Y-135502438D02*
X165121428Y-135454819D01*
X165121428Y-135454819D02*
X165216666Y-135454819D01*
X165216666Y-135454819D02*
X165359523Y-135502438D01*
X165359523Y-135502438D02*
X165407142Y-135550057D01*
X166359523Y-136454819D02*
X165788095Y-136454819D01*
X166073809Y-136454819D02*
X166073809Y-135454819D01*
X166073809Y-135454819D02*
X165978571Y-135597676D01*
X165978571Y-135597676D02*
X165883333Y-135692914D01*
X165883333Y-135692914D02*
X165788095Y-135740533D01*
X166740476Y-135550057D02*
X166788095Y-135502438D01*
X166788095Y-135502438D02*
X166883333Y-135454819D01*
X166883333Y-135454819D02*
X167121428Y-135454819D01*
X167121428Y-135454819D02*
X167216666Y-135502438D01*
X167216666Y-135502438D02*
X167264285Y-135550057D01*
X167264285Y-135550057D02*
X167311904Y-135645295D01*
X167311904Y-135645295D02*
X167311904Y-135740533D01*
X167311904Y-135740533D02*
X167264285Y-135883390D01*
X167264285Y-135883390D02*
X166692857Y-136454819D01*
X166692857Y-136454819D02*
X167311904Y-136454819D01*
X164307143Y-136854819D02*
X164402381Y-136854819D01*
X164402381Y-136854819D02*
X164497619Y-136902438D01*
X164497619Y-136902438D02*
X164545238Y-136950057D01*
X164545238Y-136950057D02*
X164592857Y-137045295D01*
X164592857Y-137045295D02*
X164640476Y-137235771D01*
X164640476Y-137235771D02*
X164640476Y-137473866D01*
X164640476Y-137473866D02*
X164592857Y-137664342D01*
X164592857Y-137664342D02*
X164545238Y-137759580D01*
X164545238Y-137759580D02*
X164497619Y-137807200D01*
X164497619Y-137807200D02*
X164402381Y-137854819D01*
X164402381Y-137854819D02*
X164307143Y-137854819D01*
X164307143Y-137854819D02*
X164211905Y-137807200D01*
X164211905Y-137807200D02*
X164164286Y-137759580D01*
X164164286Y-137759580D02*
X164116667Y-137664342D01*
X164116667Y-137664342D02*
X164069048Y-137473866D01*
X164069048Y-137473866D02*
X164069048Y-137235771D01*
X164069048Y-137235771D02*
X164116667Y-137045295D01*
X164116667Y-137045295D02*
X164164286Y-136950057D01*
X164164286Y-136950057D02*
X164211905Y-136902438D01*
X164211905Y-136902438D02*
X164307143Y-136854819D01*
X165069048Y-137759580D02*
X165116667Y-137807200D01*
X165116667Y-137807200D02*
X165069048Y-137854819D01*
X165069048Y-137854819D02*
X165021429Y-137807200D01*
X165021429Y-137807200D02*
X165069048Y-137759580D01*
X165069048Y-137759580D02*
X165069048Y-137854819D01*
X166069047Y-137854819D02*
X165497619Y-137854819D01*
X165783333Y-137854819D02*
X165783333Y-136854819D01*
X165783333Y-136854819D02*
X165688095Y-136997676D01*
X165688095Y-136997676D02*
X165592857Y-137092914D01*
X165592857Y-137092914D02*
X165497619Y-137140533D01*
X166926190Y-137188152D02*
X166926190Y-137854819D01*
X166497619Y-137188152D02*
X166497619Y-137711961D01*
X166497619Y-137711961D02*
X166545238Y-137807200D01*
X166545238Y-137807200D02*
X166640476Y-137854819D01*
X166640476Y-137854819D02*
X166783333Y-137854819D01*
X166783333Y-137854819D02*
X166878571Y-137807200D01*
X166878571Y-137807200D02*
X166926190Y-137759580D01*
X167735714Y-137331009D02*
X167402381Y-137331009D01*
X167402381Y-137854819D02*
X167402381Y-136854819D01*
X167402381Y-136854819D02*
X167878571Y-136854819D01*
X161333333Y-93434580D02*
X161285714Y-93482200D01*
X161285714Y-93482200D02*
X161142857Y-93529819D01*
X161142857Y-93529819D02*
X161047619Y-93529819D01*
X161047619Y-93529819D02*
X160904762Y-93482200D01*
X160904762Y-93482200D02*
X160809524Y-93386961D01*
X160809524Y-93386961D02*
X160761905Y-93291723D01*
X160761905Y-93291723D02*
X160714286Y-93101247D01*
X160714286Y-93101247D02*
X160714286Y-92958390D01*
X160714286Y-92958390D02*
X160761905Y-92767914D01*
X160761905Y-92767914D02*
X160809524Y-92672676D01*
X160809524Y-92672676D02*
X160904762Y-92577438D01*
X160904762Y-92577438D02*
X161047619Y-92529819D01*
X161047619Y-92529819D02*
X161142857Y-92529819D01*
X161142857Y-92529819D02*
X161285714Y-92577438D01*
X161285714Y-92577438D02*
X161333333Y-92625057D01*
X161666667Y-92529819D02*
X162285714Y-92529819D01*
X162285714Y-92529819D02*
X161952381Y-92910771D01*
X161952381Y-92910771D02*
X162095238Y-92910771D01*
X162095238Y-92910771D02*
X162190476Y-92958390D01*
X162190476Y-92958390D02*
X162238095Y-93006009D01*
X162238095Y-93006009D02*
X162285714Y-93101247D01*
X162285714Y-93101247D02*
X162285714Y-93339342D01*
X162285714Y-93339342D02*
X162238095Y-93434580D01*
X162238095Y-93434580D02*
X162190476Y-93482200D01*
X162190476Y-93482200D02*
X162095238Y-93529819D01*
X162095238Y-93529819D02*
X161809524Y-93529819D01*
X161809524Y-93529819D02*
X161714286Y-93482200D01*
X161714286Y-93482200D02*
X161666667Y-93434580D01*
X160164286Y-94854819D02*
X160164286Y-93854819D01*
X160164286Y-93854819D02*
X160402381Y-93854819D01*
X160402381Y-93854819D02*
X160545238Y-93902438D01*
X160545238Y-93902438D02*
X160640476Y-93997676D01*
X160640476Y-93997676D02*
X160688095Y-94092914D01*
X160688095Y-94092914D02*
X160735714Y-94283390D01*
X160735714Y-94283390D02*
X160735714Y-94426247D01*
X160735714Y-94426247D02*
X160688095Y-94616723D01*
X160688095Y-94616723D02*
X160640476Y-94711961D01*
X160640476Y-94711961D02*
X160545238Y-94807200D01*
X160545238Y-94807200D02*
X160402381Y-94854819D01*
X160402381Y-94854819D02*
X160164286Y-94854819D01*
X161164286Y-94854819D02*
X161164286Y-93854819D01*
X161164286Y-93854819D02*
X161735714Y-94854819D01*
X161735714Y-94854819D02*
X161735714Y-93854819D01*
X162211905Y-94854819D02*
X162211905Y-93854819D01*
X162211905Y-93854819D02*
X162592857Y-93854819D01*
X162592857Y-93854819D02*
X162688095Y-93902438D01*
X162688095Y-93902438D02*
X162735714Y-93950057D01*
X162735714Y-93950057D02*
X162783333Y-94045295D01*
X162783333Y-94045295D02*
X162783333Y-94188152D01*
X162783333Y-94188152D02*
X162735714Y-94283390D01*
X162735714Y-94283390D02*
X162688095Y-94331009D01*
X162688095Y-94331009D02*
X162592857Y-94378628D01*
X162592857Y-94378628D02*
X162211905Y-94378628D01*
X139533333Y-81359580D02*
X139485714Y-81407200D01*
X139485714Y-81407200D02*
X139342857Y-81454819D01*
X139342857Y-81454819D02*
X139247619Y-81454819D01*
X139247619Y-81454819D02*
X139104762Y-81407200D01*
X139104762Y-81407200D02*
X139009524Y-81311961D01*
X139009524Y-81311961D02*
X138961905Y-81216723D01*
X138961905Y-81216723D02*
X138914286Y-81026247D01*
X138914286Y-81026247D02*
X138914286Y-80883390D01*
X138914286Y-80883390D02*
X138961905Y-80692914D01*
X138961905Y-80692914D02*
X139009524Y-80597676D01*
X139009524Y-80597676D02*
X139104762Y-80502438D01*
X139104762Y-80502438D02*
X139247619Y-80454819D01*
X139247619Y-80454819D02*
X139342857Y-80454819D01*
X139342857Y-80454819D02*
X139485714Y-80502438D01*
X139485714Y-80502438D02*
X139533333Y-80550057D01*
X140438095Y-80454819D02*
X139961905Y-80454819D01*
X139961905Y-80454819D02*
X139914286Y-80931009D01*
X139914286Y-80931009D02*
X139961905Y-80883390D01*
X139961905Y-80883390D02*
X140057143Y-80835771D01*
X140057143Y-80835771D02*
X140295238Y-80835771D01*
X140295238Y-80835771D02*
X140390476Y-80883390D01*
X140390476Y-80883390D02*
X140438095Y-80931009D01*
X140438095Y-80931009D02*
X140485714Y-81026247D01*
X140485714Y-81026247D02*
X140485714Y-81264342D01*
X140485714Y-81264342D02*
X140438095Y-81359580D01*
X140438095Y-81359580D02*
X140390476Y-81407200D01*
X140390476Y-81407200D02*
X140295238Y-81454819D01*
X140295238Y-81454819D02*
X140057143Y-81454819D01*
X140057143Y-81454819D02*
X139961905Y-81407200D01*
X139961905Y-81407200D02*
X139914286Y-81359580D01*
X138257143Y-81654819D02*
X138352381Y-81654819D01*
X138352381Y-81654819D02*
X138447619Y-81702438D01*
X138447619Y-81702438D02*
X138495238Y-81750057D01*
X138495238Y-81750057D02*
X138542857Y-81845295D01*
X138542857Y-81845295D02*
X138590476Y-82035771D01*
X138590476Y-82035771D02*
X138590476Y-82273866D01*
X138590476Y-82273866D02*
X138542857Y-82464342D01*
X138542857Y-82464342D02*
X138495238Y-82559580D01*
X138495238Y-82559580D02*
X138447619Y-82607200D01*
X138447619Y-82607200D02*
X138352381Y-82654819D01*
X138352381Y-82654819D02*
X138257143Y-82654819D01*
X138257143Y-82654819D02*
X138161905Y-82607200D01*
X138161905Y-82607200D02*
X138114286Y-82559580D01*
X138114286Y-82559580D02*
X138066667Y-82464342D01*
X138066667Y-82464342D02*
X138019048Y-82273866D01*
X138019048Y-82273866D02*
X138019048Y-82035771D01*
X138019048Y-82035771D02*
X138066667Y-81845295D01*
X138066667Y-81845295D02*
X138114286Y-81750057D01*
X138114286Y-81750057D02*
X138161905Y-81702438D01*
X138161905Y-81702438D02*
X138257143Y-81654819D01*
X139019048Y-82559580D02*
X139066667Y-82607200D01*
X139066667Y-82607200D02*
X139019048Y-82654819D01*
X139019048Y-82654819D02*
X138971429Y-82607200D01*
X138971429Y-82607200D02*
X139019048Y-82559580D01*
X139019048Y-82559580D02*
X139019048Y-82654819D01*
X140019047Y-82654819D02*
X139447619Y-82654819D01*
X139733333Y-82654819D02*
X139733333Y-81654819D01*
X139733333Y-81654819D02*
X139638095Y-81797676D01*
X139638095Y-81797676D02*
X139542857Y-81892914D01*
X139542857Y-81892914D02*
X139447619Y-81940533D01*
X140876190Y-81988152D02*
X140876190Y-82654819D01*
X140447619Y-81988152D02*
X140447619Y-82511961D01*
X140447619Y-82511961D02*
X140495238Y-82607200D01*
X140495238Y-82607200D02*
X140590476Y-82654819D01*
X140590476Y-82654819D02*
X140733333Y-82654819D01*
X140733333Y-82654819D02*
X140828571Y-82607200D01*
X140828571Y-82607200D02*
X140876190Y-82559580D01*
X141685714Y-82131009D02*
X141352381Y-82131009D01*
X141352381Y-82654819D02*
X141352381Y-81654819D01*
X141352381Y-81654819D02*
X141828571Y-81654819D01*
X133233333Y-113254819D02*
X132900000Y-112778628D01*
X132661905Y-113254819D02*
X132661905Y-112254819D01*
X132661905Y-112254819D02*
X133042857Y-112254819D01*
X133042857Y-112254819D02*
X133138095Y-112302438D01*
X133138095Y-112302438D02*
X133185714Y-112350057D01*
X133185714Y-112350057D02*
X133233333Y-112445295D01*
X133233333Y-112445295D02*
X133233333Y-112588152D01*
X133233333Y-112588152D02*
X133185714Y-112683390D01*
X133185714Y-112683390D02*
X133138095Y-112731009D01*
X133138095Y-112731009D02*
X133042857Y-112778628D01*
X133042857Y-112778628D02*
X132661905Y-112778628D01*
X133566667Y-112254819D02*
X134185714Y-112254819D01*
X134185714Y-112254819D02*
X133852381Y-112635771D01*
X133852381Y-112635771D02*
X133995238Y-112635771D01*
X133995238Y-112635771D02*
X134090476Y-112683390D01*
X134090476Y-112683390D02*
X134138095Y-112731009D01*
X134138095Y-112731009D02*
X134185714Y-112826247D01*
X134185714Y-112826247D02*
X134185714Y-113064342D01*
X134185714Y-113064342D02*
X134138095Y-113159580D01*
X134138095Y-113159580D02*
X134090476Y-113207200D01*
X134090476Y-113207200D02*
X133995238Y-113254819D01*
X133995238Y-113254819D02*
X133709524Y-113254819D01*
X133709524Y-113254819D02*
X133614286Y-113207200D01*
X133614286Y-113207200D02*
X133566667Y-113159580D01*
X133109523Y-114088152D02*
X133109523Y-114754819D01*
X132871428Y-113707200D02*
X132633333Y-114421485D01*
X132633333Y-114421485D02*
X133252380Y-114421485D01*
X133538095Y-113754819D02*
X134204761Y-113754819D01*
X134204761Y-113754819D02*
X133776190Y-114754819D01*
X134585714Y-114754819D02*
X134585714Y-113754819D01*
X134680952Y-114373866D02*
X134966666Y-114754819D01*
X134966666Y-114088152D02*
X134585714Y-114469104D01*
X140033333Y-72954819D02*
X139700000Y-72478628D01*
X139461905Y-72954819D02*
X139461905Y-71954819D01*
X139461905Y-71954819D02*
X139842857Y-71954819D01*
X139842857Y-71954819D02*
X139938095Y-72002438D01*
X139938095Y-72002438D02*
X139985714Y-72050057D01*
X139985714Y-72050057D02*
X140033333Y-72145295D01*
X140033333Y-72145295D02*
X140033333Y-72288152D01*
X140033333Y-72288152D02*
X139985714Y-72383390D01*
X139985714Y-72383390D02*
X139938095Y-72431009D01*
X139938095Y-72431009D02*
X139842857Y-72478628D01*
X139842857Y-72478628D02*
X139461905Y-72478628D01*
X140366667Y-71954819D02*
X141033333Y-71954819D01*
X141033333Y-71954819D02*
X140604762Y-72954819D01*
X139861904Y-73254819D02*
X139385714Y-73254819D01*
X139385714Y-73254819D02*
X139338095Y-73731009D01*
X139338095Y-73731009D02*
X139385714Y-73683390D01*
X139385714Y-73683390D02*
X139480952Y-73635771D01*
X139480952Y-73635771D02*
X139719047Y-73635771D01*
X139719047Y-73635771D02*
X139814285Y-73683390D01*
X139814285Y-73683390D02*
X139861904Y-73731009D01*
X139861904Y-73731009D02*
X139909523Y-73826247D01*
X139909523Y-73826247D02*
X139909523Y-74064342D01*
X139909523Y-74064342D02*
X139861904Y-74159580D01*
X139861904Y-74159580D02*
X139814285Y-74207200D01*
X139814285Y-74207200D02*
X139719047Y-74254819D01*
X139719047Y-74254819D02*
X139480952Y-74254819D01*
X139480952Y-74254819D02*
X139385714Y-74207200D01*
X139385714Y-74207200D02*
X139338095Y-74159580D01*
X140861904Y-74254819D02*
X140290476Y-74254819D01*
X140576190Y-74254819D02*
X140576190Y-73254819D01*
X140576190Y-73254819D02*
X140480952Y-73397676D01*
X140480952Y-73397676D02*
X140385714Y-73492914D01*
X140385714Y-73492914D02*
X140290476Y-73540533D01*
X151933333Y-82654819D02*
X151457143Y-82654819D01*
X151457143Y-82654819D02*
X151457143Y-81654819D01*
X152219048Y-81750057D02*
X152266667Y-81702438D01*
X152266667Y-81702438D02*
X152361905Y-81654819D01*
X152361905Y-81654819D02*
X152600000Y-81654819D01*
X152600000Y-81654819D02*
X152695238Y-81702438D01*
X152695238Y-81702438D02*
X152742857Y-81750057D01*
X152742857Y-81750057D02*
X152790476Y-81845295D01*
X152790476Y-81845295D02*
X152790476Y-81940533D01*
X152790476Y-81940533D02*
X152742857Y-82083390D01*
X152742857Y-82083390D02*
X152171429Y-82654819D01*
X152171429Y-82654819D02*
X152790476Y-82654819D01*
X146433333Y-100584819D02*
X146100000Y-100108628D01*
X145861905Y-100584819D02*
X145861905Y-99584819D01*
X145861905Y-99584819D02*
X146242857Y-99584819D01*
X146242857Y-99584819D02*
X146338095Y-99632438D01*
X146338095Y-99632438D02*
X146385714Y-99680057D01*
X146385714Y-99680057D02*
X146433333Y-99775295D01*
X146433333Y-99775295D02*
X146433333Y-99918152D01*
X146433333Y-99918152D02*
X146385714Y-100013390D01*
X146385714Y-100013390D02*
X146338095Y-100061009D01*
X146338095Y-100061009D02*
X146242857Y-100108628D01*
X146242857Y-100108628D02*
X145861905Y-100108628D01*
X146814286Y-99680057D02*
X146861905Y-99632438D01*
X146861905Y-99632438D02*
X146957143Y-99584819D01*
X146957143Y-99584819D02*
X147195238Y-99584819D01*
X147195238Y-99584819D02*
X147290476Y-99632438D01*
X147290476Y-99632438D02*
X147338095Y-99680057D01*
X147338095Y-99680057D02*
X147385714Y-99775295D01*
X147385714Y-99775295D02*
X147385714Y-99870533D01*
X147385714Y-99870533D02*
X147338095Y-100013390D01*
X147338095Y-100013390D02*
X146766667Y-100584819D01*
X146766667Y-100584819D02*
X147385714Y-100584819D01*
X146885714Y-104224819D02*
X146314286Y-104224819D01*
X146600000Y-104224819D02*
X146600000Y-103224819D01*
X146600000Y-103224819D02*
X146504762Y-103367676D01*
X146504762Y-103367676D02*
X146409524Y-103462914D01*
X146409524Y-103462914D02*
X146314286Y-103510533D01*
D13*
X163000000Y-80000000D02*
X189000000Y-80000000D01*
X189000000Y-100000000D01*
X163000000Y-100000000D01*
X163000000Y-80000000D01*
D14*
X169290000Y-110527064D02*
X169290000Y-109072936D01*
X171110000Y-110527064D02*
X171110000Y-109072936D01*
X139390000Y-119787500D02*
X139390000Y-118987500D01*
X139390000Y-119787500D02*
X139390000Y-120587500D01*
X142510000Y-119787500D02*
X142510000Y-118987500D01*
X142510000Y-119787500D02*
X142510000Y-120587500D01*
X139440000Y-121087500D02*
X139110000Y-121327500D01*
X139110000Y-120847500D01*
X139440000Y-121087500D01*
G36*
X139440000Y-121087500D02*
G01*
X139110000Y-121327500D01*
X139110000Y-120847500D01*
X139440000Y-121087500D01*
G37*
X139236252Y-122790000D02*
X137813748Y-122790000D01*
X139236252Y-124610000D02*
X137813748Y-124610000D01*
X169862500Y-114452500D02*
X170650000Y-114452500D01*
X170256250Y-114058750D02*
X170256250Y-114846250D01*
X170890000Y-113954437D02*
X170890000Y-115240000D01*
X170890000Y-113954437D02*
X171954437Y-112890000D01*
X170890000Y-118645563D02*
X170890000Y-117360000D01*
X170890000Y-118645563D02*
X171954437Y-119710000D01*
X171954437Y-112890000D02*
X177710000Y-112890000D01*
X171954437Y-119710000D02*
X177710000Y-119710000D01*
X177710000Y-112890000D02*
X177710000Y-115240000D01*
X177710000Y-119710000D02*
X177710000Y-117360000D01*
X131910000Y-70475000D02*
X131910000Y-80245000D01*
X136980000Y-70475000D02*
X131910000Y-70475000D01*
X136980000Y-70475000D02*
X136980000Y-80245000D01*
X136980000Y-80245000D02*
X131910000Y-80245000D01*
X142290000Y-77589564D02*
X142290000Y-76135436D01*
X144110000Y-77589564D02*
X144110000Y-76135436D01*
X142290000Y-70963748D02*
X142290000Y-72386252D01*
X144110000Y-70963748D02*
X144110000Y-72386252D01*
D12*
X129700000Y-83000000D02*
X140700000Y-83000000D01*
X140700000Y-97000000D01*
X129700000Y-97000000D01*
X129700000Y-83000000D01*
D14*
X140763748Y-114490000D02*
X142186252Y-114490000D01*
X140763748Y-116310000D02*
X142186252Y-116310000D01*
X138110436Y-101340000D02*
X139564564Y-101340000D01*
X138110436Y-103160000D02*
X139564564Y-103160000D01*
X142290000Y-98486252D02*
X142290000Y-97063748D01*
X144110000Y-98486252D02*
X144110000Y-97063748D01*
X152900000Y-126340000D02*
X152900000Y-134850000D01*
X152900000Y-126340000D02*
X159400000Y-126340000D01*
X159400000Y-126340000D02*
X159400000Y-134850000D01*
D15*
X130075000Y-127595000D02*
X130075000Y-134325000D01*
X132130000Y-127595000D02*
X130075000Y-127595000D01*
X132130000Y-134325000D02*
X130075000Y-134325000D01*
X134380000Y-127595000D02*
X145580000Y-127595000D01*
X145580000Y-134325000D02*
X134380000Y-134325000D01*
X147830000Y-127595000D02*
X149885000Y-127595000D01*
X147830000Y-134325000D02*
X149885000Y-134325000D01*
X149885000Y-127595000D02*
X149885000Y-134325000D01*
D14*
X138138748Y-104440000D02*
X139561252Y-104440000D01*
X138138748Y-106260000D02*
X139561252Y-106260000D01*
X168990000Y-128204437D02*
X168990000Y-133960000D01*
X168990000Y-133960000D02*
X171340000Y-133960000D01*
X170054437Y-127140000D02*
X168990000Y-128204437D01*
X170054437Y-127140000D02*
X171340000Y-127140000D01*
X174247500Y-126112500D02*
X174247500Y-126900000D01*
X174641250Y-126506250D02*
X173853750Y-126506250D01*
X174745563Y-127140000D02*
X173460000Y-127140000D01*
X174745563Y-127140000D02*
X175810000Y-128204437D01*
X175810000Y-128204437D02*
X175810000Y-133960000D01*
X175810000Y-133960000D02*
X173460000Y-133960000D01*
X130160000Y-98125000D02*
X130160000Y-107895000D01*
X135230000Y-98125000D02*
X130160000Y-98125000D01*
X135230000Y-98125000D02*
X135230000Y-107895000D01*
X135230000Y-107895000D02*
X130160000Y-107895000D01*
D15*
X165275000Y-111880000D02*
X165275000Y-107820000D01*
X168325000Y-111880000D02*
X168325000Y-107820000D01*
D14*
X130131252Y-119790000D02*
X128708748Y-119790000D01*
X130131252Y-121610000D02*
X128708748Y-121610000D01*
X172313748Y-120990000D02*
X173736252Y-120990000D01*
X172313748Y-122810000D02*
X173736252Y-122810000D01*
D12*
X187565000Y-72665000D02*
X187565000Y-70215000D01*
X189590000Y-74765000D02*
X192140000Y-74765000D01*
X189740000Y-68090000D02*
X192065000Y-68090000D01*
X194290000Y-70290000D02*
X194290000Y-72465000D01*
D14*
X147760436Y-80040000D02*
X149214564Y-80040000D01*
X147760436Y-81860000D02*
X149214564Y-81860000D01*
X157540000Y-89263748D02*
X157540000Y-90686252D01*
X159360000Y-89263748D02*
X159360000Y-90686252D01*
D15*
X162180000Y-126325000D02*
X166240000Y-126325000D01*
X162180000Y-129375000D02*
X166240000Y-129375000D01*
D14*
X116600000Y-125000000D02*
X116600000Y-125500000D01*
X116840000Y-125240000D02*
X116840000Y-135360000D01*
X117340000Y-125000000D02*
X116600000Y-125000000D01*
X117400000Y-125240000D02*
X117400000Y-135360000D01*
X118500000Y-125240000D02*
X118500000Y-135360000D01*
X127160000Y-125240000D02*
X116840000Y-125240000D01*
X127160000Y-125240000D02*
X127160000Y-135360000D01*
X127160000Y-135360000D02*
X116840000Y-135360000D01*
X120744507Y-127827011D02*
G75*
G02*
X120868000Y-127192000I1555481J27013D01*
G01*
X120868615Y-128407587D02*
G75*
G02*
X120745000Y-127800000I1431385J607587D01*
G01*
X121692258Y-126367891D02*
G75*
G02*
X122908000Y-126368000I607742J-1432109D01*
G01*
X122907742Y-129232109D02*
G75*
G02*
X121692000Y-129232000I-607743J1432112D01*
G01*
X123732109Y-127192258D02*
G75*
G02*
X123732000Y-128408000I-1432109J-607742D01*
G01*
X123855000Y-132800000D02*
G75*
G02*
X120745000Y-132800000I-1555000J0D01*
G01*
X120745000Y-132800000D02*
G75*
G02*
X123855000Y-132800000I1555000J0D01*
G01*
D12*
X117165000Y-88265000D02*
X117165000Y-85815000D01*
X119190000Y-90365000D02*
X121740000Y-90365000D01*
X119340000Y-83690000D02*
X121665000Y-83690000D01*
X123890000Y-85890000D02*
X123890000Y-88065000D01*
X116995000Y-114900000D02*
X116995000Y-115400000D01*
X116995000Y-114900000D02*
X117495000Y-114900000D01*
X116995000Y-123100000D02*
X116995000Y-122600000D01*
X116995000Y-123100000D02*
X117495000Y-123100000D01*
X122995000Y-114900000D02*
X122495000Y-114900000D01*
X122995000Y-114900000D02*
X122995000Y-115400000D01*
X122995000Y-123100000D02*
X122495000Y-123100000D01*
X122995000Y-123100000D02*
X122995000Y-122600000D01*
D14*
X125559758Y-116590000D02*
X127230242Y-116590000D01*
X125559758Y-118410000D02*
X127230242Y-118410000D01*
D15*
X165275000Y-120130000D02*
X165275000Y-116070000D01*
X168325000Y-120130000D02*
X168325000Y-116070000D01*
D14*
X138110436Y-98340000D02*
X139564564Y-98340000D01*
X138110436Y-100160000D02*
X139564564Y-100160000D01*
X165090000Y-131913748D02*
X165090000Y-133336252D01*
X166910000Y-131913748D02*
X166910000Y-133336252D01*
X160540000Y-89263748D02*
X160540000Y-90686252D01*
X162360000Y-89263748D02*
X162360000Y-90686252D01*
X142290000Y-81713748D02*
X142290000Y-83136252D01*
X144110000Y-81713748D02*
X144110000Y-83136252D01*
X130390000Y-112810436D02*
X130390000Y-114264564D01*
X132210000Y-112810436D02*
X132210000Y-114264564D01*
X139240000Y-77589564D02*
X139240000Y-76135436D01*
X141060000Y-77589564D02*
X141060000Y-76135436D01*
D12*
X145500000Y-83000000D02*
X156500000Y-83000000D01*
X156500000Y-97000000D01*
X145500000Y-97000000D01*
X145500000Y-83000000D01*
D14*
X145872936Y-101040000D02*
X147327064Y-101040000D01*
X145872936Y-102860000D02*
X147327064Y-102860000D01*
%LPC*%
D16*
X193000000Y-85000000D03*
X193000000Y-95000000D03*
X159000000Y-95000000D03*
X159000000Y-85000000D03*
D17*
X170200000Y-111262500D03*
X170200000Y-108337500D03*
D18*
X140000000Y-120925000D03*
X140950000Y-120925000D03*
X141900000Y-120925000D03*
X141900000Y-118650000D03*
X140000000Y-118650000D03*
D19*
X140000000Y-123700000D03*
X137050000Y-123700000D03*
D20*
X171600000Y-116300000D03*
X177000000Y-116300000D03*
D21*
X134450000Y-77900000D03*
X134450000Y-75360000D03*
X134450000Y-72820000D03*
D17*
X143200000Y-78325000D03*
X143200000Y-75400000D03*
D22*
X143200000Y-70200000D03*
X143200000Y-73150000D03*
D16*
X127200000Y-87000000D03*
X127200000Y-93000000D03*
X143200000Y-93000000D03*
X143200000Y-90000000D03*
X143200000Y-87000000D03*
D23*
X140000000Y-115400000D03*
X142950000Y-115400000D03*
D24*
X137375000Y-102250000D03*
X140300000Y-102250000D03*
D25*
X143200000Y-99250000D03*
X143200000Y-96300000D03*
D26*
X156150000Y-127850000D03*
X156150000Y-134650000D03*
D27*
X133250000Y-127800000D03*
X133250000Y-134120000D03*
X146710000Y-127800000D03*
X146710000Y-134120000D03*
D23*
X137375000Y-105350000D03*
X140325000Y-105350000D03*
D28*
X172400000Y-127850000D03*
X172400000Y-133250000D03*
D29*
X154000000Y-78621500D03*
X156500000Y-78621500D03*
X159000000Y-78621500D03*
D30*
X192000000Y-59000000D03*
D21*
X132700000Y-105550000D03*
X132700000Y-103010000D03*
X132700000Y-100470000D03*
D31*
X166800000Y-111640000D03*
X166800000Y-108060000D03*
D19*
X130895000Y-120700000D03*
X127945000Y-120700000D03*
D30*
X120000000Y-59000000D03*
X192000000Y-142000000D03*
D23*
X171550000Y-121900000D03*
X174500000Y-121900000D03*
D32*
X188350000Y-68900000D03*
X188350000Y-73980000D03*
X193430000Y-68900000D03*
X193430000Y-73980000D03*
D33*
X190990000Y-71365000D03*
D24*
X147025000Y-80950000D03*
X149950000Y-80950000D03*
D29*
X159000000Y-101837500D03*
X156500000Y-101837500D03*
X154000000Y-101837500D03*
D22*
X158450000Y-88500000D03*
X158450000Y-91450000D03*
D34*
X162420000Y-127850000D03*
X166000000Y-127850000D03*
D35*
X122300000Y-127800000D03*
D36*
X122300000Y-132800000D03*
D32*
X117950000Y-84500000D03*
X117950000Y-89580000D03*
X123030000Y-84500000D03*
X123030000Y-89580000D03*
D33*
X120590000Y-86965000D03*
D37*
X119995000Y-117500000D03*
X119995000Y-120000000D03*
D38*
X124820000Y-117500000D03*
X127970000Y-117500000D03*
D31*
X166800000Y-119890000D03*
X166800000Y-116310000D03*
D24*
X137375000Y-99250000D03*
X140300000Y-99250000D03*
D30*
X120000000Y-142000000D03*
D22*
X166000000Y-131150000D03*
X166000000Y-134100000D03*
X161450000Y-88500000D03*
X161450000Y-91450000D03*
X143200000Y-80950000D03*
X143200000Y-83900000D03*
D39*
X131300000Y-112075000D03*
X131300000Y-115000000D03*
D17*
X140150000Y-78325000D03*
X140150000Y-75400000D03*
D16*
X151000000Y-87000000D03*
X151000000Y-90000000D03*
X151000000Y-93000000D03*
D24*
X145137500Y-101950000D03*
X148062500Y-101950000D03*
%LPD*%
M02*
