%TF.GenerationSoftware,KiCad,Pcbnew,8.0.5-dirty*%
%TF.CreationDate,2024-10-12T08:13:24-04:00*%
%TF.ProjectId,t41_2_power_amplifier,7434315f-325f-4706-9f77-65725f616d70,rev?*%
%TF.SameCoordinates,Original*%
%TF.FileFunction,Copper,L2,Bot*%
%TF.FilePolarity,Positive*%
%FSLAX46Y46*%
G04 Gerber Fmt 4.6, Leading zero omitted, Abs format (unit mm)*
G04 Created by KiCad (PCBNEW 8.0.5-dirty) date 2024-10-12 08:13:24*
%MOMM*%
%LPD*%
G01*
G04 APERTURE LIST*
G04 Aperture macros list*
%AMRoundRect*
0 Rectangle with rounded corners*
0 $1 Rounding radius*
0 $2 $3 $4 $5 $6 $7 $8 $9 X,Y pos of 4 corners*
0 Add a 4 corners polygon primitive as box body*
4,1,4,$2,$3,$4,$5,$6,$7,$8,$9,$2,$3,0*
0 Add four circle primitives for the rounded corners*
1,1,$1+$1,$2,$3*
1,1,$1+$1,$4,$5*
1,1,$1+$1,$6,$7*
1,1,$1+$1,$8,$9*
0 Add four rect primitives between the rounded corners*
20,1,$1+$1,$2,$3,$4,$5,0*
20,1,$1+$1,$4,$5,$6,$7,0*
20,1,$1+$1,$6,$7,$8,$9,0*
20,1,$1+$1,$8,$9,$2,$3,0*%
G04 Aperture macros list end*
%TA.AperFunction,ComponentPad*%
%ADD10C,1.440000*%
%TD*%
%TA.AperFunction,ComponentPad*%
%ADD11C,2.000000*%
%TD*%
%TA.AperFunction,ComponentPad*%
%ADD12C,2.600000*%
%TD*%
%TA.AperFunction,ComponentPad*%
%ADD13C,2.500000*%
%TD*%
%TA.AperFunction,ComponentPad*%
%ADD14R,2.400000X2.400000*%
%TD*%
%TA.AperFunction,ComponentPad*%
%ADD15C,2.400000*%
%TD*%
%TA.AperFunction,ComponentPad*%
%ADD16C,2.100000*%
%TD*%
%TA.AperFunction,SMDPad,CuDef*%
%ADD17RoundRect,0.250000X-0.325000X-0.650000X0.325000X-0.650000X0.325000X0.650000X-0.325000X0.650000X0*%
%TD*%
%TA.AperFunction,SMDPad,CuDef*%
%ADD18RoundRect,0.250000X-0.312500X-0.625000X0.312500X-0.625000X0.312500X0.625000X-0.312500X0.625000X0*%
%TD*%
%TA.AperFunction,ViaPad*%
%ADD19C,1.000000*%
%TD*%
%TA.AperFunction,Conductor*%
%ADD20C,1.000000*%
%TD*%
G04 APERTURE END LIST*
D10*
%TO.P,R11,1,1*%
%TO.N,/8V*%
X185200000Y-125700000D03*
%TO.P,R11,2,2*%
%TO.N,Net-(C5-Pad1)*%
X182660000Y-125700000D03*
%TO.P,R11,3,3*%
%TO.N,GND*%
X180120000Y-125700000D03*
%TD*%
D11*
%TO.P,T3,1,AA*%
%TO.N,Net-(T3-AA)*%
X118000000Y-88000000D03*
%TO.P,T3,2,AB*%
%TO.N,GND*%
X118000000Y-94000000D03*
%TO.P,T3,3,SA*%
%TO.N,Net-(T3-SA)*%
X134000000Y-94000000D03*
%TO.P,T3,4,SC*%
%TO.N,GND*%
X134000000Y-91000000D03*
%TO.P,T3,5,SB*%
%TO.N,Net-(T3-SB)*%
X134000000Y-88000000D03*
%TD*%
D10*
%TO.P,R17,1,1*%
%TO.N,/8V*%
X185200000Y-133200000D03*
%TO.P,R17,2,2*%
%TO.N,Net-(C7-Pad1)*%
X182660000Y-133200000D03*
%TO.P,R17,3,3*%
%TO.N,GND*%
X180120000Y-133200000D03*
%TD*%
D11*
%TO.P,T1,1,AA*%
%TO.N,Net-(T1-AA)*%
X151000000Y-81000000D03*
%TO.P,T1,2,AB*%
%TO.N,Net-(T1-AB)*%
X151000000Y-99000000D03*
%TO.P,T1,3,SA*%
%TO.N,Net-(Q1-D)*%
X151000000Y-93000000D03*
%TO.P,T1,4,SC*%
%TO.N,/12V_OUT_FIL*%
X151000000Y-90000000D03*
%TO.P,T1,5,SB*%
%TO.N,Net-(Q3-D)*%
X151000000Y-87000000D03*
%TD*%
%TO.P,T2,1,AA*%
%TO.N,Net-(Q3-D)*%
X159000000Y-83000000D03*
%TO.P,T2,2,AB*%
%TO.N,Net-(Q1-D)*%
X159000000Y-97000000D03*
%TO.P,T2,3,SA*%
%TO.N,GND*%
X197000000Y-97000000D03*
%TO.P,T2,4,SB*%
%TO.N,Net-(T2-SB)*%
X197000000Y-83000000D03*
%TD*%
D12*
%TO.P,J1,1*%
%TO.N,GND*%
X192120000Y-63300000D03*
X192120000Y-68380000D03*
X197200000Y-63300000D03*
X197200000Y-68380000D03*
D13*
%TO.P,J1,2*%
%TO.N,Net-(T2-SB)*%
X194760000Y-65765000D03*
%TD*%
D14*
%TO.P,J5,1,Pin_1*%
%TO.N,Net-(J5-Pin_1)*%
X109400000Y-142100000D03*
D15*
%TO.P,J5,2,Pin_2*%
%TO.N,GND*%
X109400000Y-137100000D03*
%TD*%
D12*
%TO.P,J2,1*%
%TO.N,GND*%
X105620000Y-104600000D03*
X105620000Y-109680000D03*
X110700000Y-104600000D03*
X110700000Y-109680000D03*
D13*
%TO.P,J2,2*%
%TO.N,Net-(J2-Pad2)*%
X108260000Y-107065000D03*
%TD*%
D16*
%TO.P,J3,1*%
%TO.N,Net-(E4-Pad1)*%
X107800000Y-123300000D03*
%TO.P,J3,2*%
%TO.N,GND*%
X107800000Y-125800000D03*
%TD*%
D17*
%TO.P,C1,1*%
%TO.N,/12V_OUT_FIL*%
X140900000Y-90100000D03*
%TO.P,C1,2*%
%TO.N,GND*%
X143850000Y-90100000D03*
%TD*%
D18*
%TO.P,R2,1*%
%TO.N,Net-(C6-Pad1)*%
X149600000Y-102000000D03*
%TO.P,R2,2*%
%TO.N,Net-(Q1-G)*%
X152525000Y-102000000D03*
%TD*%
D19*
%TO.N,Net-(Q1-G)*%
X153800000Y-103300000D03*
%TO.N,Net-(C6-Pad1)*%
X144300000Y-102000000D03*
%TD*%
D20*
%TO.N,Net-(Q1-G)*%
X152525000Y-102000000D02*
X152525000Y-102025000D01*
X152525000Y-102025000D02*
X153800000Y-103300000D01*
%TO.N,Net-(C6-Pad1)*%
X144300000Y-102000000D02*
X149600000Y-102000000D01*
%TD*%
%TA.AperFunction,Conductor*%
%TO.N,GND*%
G36*
X199442539Y-50520185D02*
G01*
X199488294Y-50572989D01*
X199499500Y-50624500D01*
X199499500Y-149375500D01*
X199479815Y-149442539D01*
X199427011Y-149488294D01*
X199375500Y-149499500D01*
X100624500Y-149499500D01*
X100557461Y-149479815D01*
X100511706Y-149427011D01*
X100500500Y-149375500D01*
X100500500Y-140852135D01*
X107699500Y-140852135D01*
X107699500Y-143347870D01*
X107699501Y-143347876D01*
X107705908Y-143407483D01*
X107756202Y-143542328D01*
X107756206Y-143542335D01*
X107842452Y-143657544D01*
X107842455Y-143657547D01*
X107957664Y-143743793D01*
X107957671Y-143743797D01*
X108092517Y-143794091D01*
X108092516Y-143794091D01*
X108099444Y-143794835D01*
X108152127Y-143800500D01*
X110647872Y-143800499D01*
X110707483Y-143794091D01*
X110842331Y-143743796D01*
X110957546Y-143657546D01*
X111043796Y-143542331D01*
X111094091Y-143407483D01*
X111100500Y-143347873D01*
X111100499Y-140852128D01*
X111094091Y-140792517D01*
X111043796Y-140657669D01*
X111043795Y-140657668D01*
X111043793Y-140657664D01*
X110957547Y-140542455D01*
X110957544Y-140542452D01*
X110842335Y-140456206D01*
X110842328Y-140456202D01*
X110707482Y-140405908D01*
X110707483Y-140405908D01*
X110647883Y-140399501D01*
X110647881Y-140399500D01*
X110647873Y-140399500D01*
X110647864Y-140399500D01*
X108152129Y-140399500D01*
X108152123Y-140399501D01*
X108092516Y-140405908D01*
X107957671Y-140456202D01*
X107957664Y-140456206D01*
X107842455Y-140542452D01*
X107842452Y-140542455D01*
X107756206Y-140657664D01*
X107756202Y-140657671D01*
X107705908Y-140792517D01*
X107699501Y-140852116D01*
X107699501Y-140852123D01*
X107699500Y-140852135D01*
X100500500Y-140852135D01*
X100500500Y-137099995D01*
X107695233Y-137099995D01*
X107695233Y-137100004D01*
X107714273Y-137354079D01*
X107770968Y-137602477D01*
X107770973Y-137602494D01*
X107864058Y-137839671D01*
X107864057Y-137839671D01*
X107991454Y-138060327D01*
X107991461Y-138060338D01*
X108033452Y-138112991D01*
X108033453Y-138112992D01*
X108835387Y-137311058D01*
X108840889Y-137331591D01*
X108919881Y-137468408D01*
X109031592Y-137580119D01*
X109168409Y-137659111D01*
X109188940Y-137664612D01*
X108386813Y-138466738D01*
X108547616Y-138576371D01*
X108547624Y-138576376D01*
X108777176Y-138686921D01*
X108777174Y-138686921D01*
X109020652Y-138762024D01*
X109020658Y-138762026D01*
X109272595Y-138799999D01*
X109272604Y-138800000D01*
X109527396Y-138800000D01*
X109527404Y-138799999D01*
X109779341Y-138762026D01*
X109779347Y-138762024D01*
X110022824Y-138686921D01*
X110252376Y-138576376D01*
X110252377Y-138576375D01*
X110413185Y-138466738D01*
X109611060Y-137664612D01*
X109631591Y-137659111D01*
X109768408Y-137580119D01*
X109880119Y-137468408D01*
X109959111Y-137331591D01*
X109964612Y-137311059D01*
X110766545Y-138112992D01*
X110766546Y-138112991D01*
X110808544Y-138060330D01*
X110935941Y-137839671D01*
X111029026Y-137602494D01*
X111029031Y-137602477D01*
X111085726Y-137354079D01*
X111104767Y-137100004D01*
X111104767Y-137099995D01*
X111085726Y-136845920D01*
X111029031Y-136597522D01*
X111029026Y-136597505D01*
X110935941Y-136360328D01*
X110935942Y-136360328D01*
X110808545Y-136139672D01*
X110766545Y-136087006D01*
X109964612Y-136888939D01*
X109959111Y-136868409D01*
X109880119Y-136731592D01*
X109768408Y-136619881D01*
X109631591Y-136540889D01*
X109611059Y-136535387D01*
X110413185Y-135733260D01*
X110252384Y-135623628D01*
X110252376Y-135623623D01*
X110022823Y-135513078D01*
X110022825Y-135513078D01*
X109779347Y-135437975D01*
X109779341Y-135437973D01*
X109527404Y-135400000D01*
X109272595Y-135400000D01*
X109020658Y-135437973D01*
X109020652Y-135437975D01*
X108777175Y-135513078D01*
X108547622Y-135623625D01*
X108547609Y-135623632D01*
X108386813Y-135733259D01*
X109188941Y-136535387D01*
X109168409Y-136540889D01*
X109031592Y-136619881D01*
X108919881Y-136731592D01*
X108840889Y-136868409D01*
X108835387Y-136888940D01*
X108033452Y-136087006D01*
X107991457Y-136139667D01*
X107864058Y-136360328D01*
X107770973Y-136597505D01*
X107770968Y-136597522D01*
X107714273Y-136845920D01*
X107695233Y-137099995D01*
X100500500Y-137099995D01*
X100500500Y-133199997D01*
X178895340Y-133199997D01*
X178895340Y-133200002D01*
X178913944Y-133412654D01*
X178913945Y-133412662D01*
X178969194Y-133618853D01*
X178969197Y-133618859D01*
X179059413Y-133812329D01*
X179098415Y-133868030D01*
X179720000Y-133246445D01*
X179720000Y-133252661D01*
X179747259Y-133354394D01*
X179799920Y-133445606D01*
X179874394Y-133520080D01*
X179965606Y-133572741D01*
X180067339Y-133600000D01*
X180073553Y-133600000D01*
X179451968Y-134221584D01*
X179507663Y-134260582D01*
X179507669Y-134260586D01*
X179701140Y-134350802D01*
X179701146Y-134350805D01*
X179907337Y-134406054D01*
X179907345Y-134406055D01*
X180119998Y-134424660D01*
X180120002Y-134424660D01*
X180332654Y-134406055D01*
X180332662Y-134406054D01*
X180538853Y-134350805D01*
X180538864Y-134350801D01*
X180732325Y-134260589D01*
X180788030Y-134221583D01*
X180166448Y-133600000D01*
X180172661Y-133600000D01*
X180274394Y-133572741D01*
X180365606Y-133520080D01*
X180440080Y-133445606D01*
X180492741Y-133354394D01*
X180520000Y-133252661D01*
X180520000Y-133246446D01*
X181141583Y-133868029D01*
X181180589Y-133812325D01*
X181270801Y-133618864D01*
X181272658Y-133613764D01*
X181274567Y-133614458D01*
X181306291Y-133562362D01*
X181369125Y-133531806D01*
X181438504Y-133540071D01*
X181492401Y-133584533D01*
X181505989Y-133614256D01*
X181506870Y-133613936D01*
X181508722Y-133619022D01*
X181508724Y-133619030D01*
X181551171Y-133710058D01*
X181598977Y-133812578D01*
X181721472Y-133987521D01*
X181872478Y-134138527D01*
X181872481Y-134138529D01*
X182047419Y-134261021D01*
X182047421Y-134261022D01*
X182047420Y-134261022D01*
X182111936Y-134291106D01*
X182240970Y-134351276D01*
X182447253Y-134406549D01*
X182599215Y-134419844D01*
X182659998Y-134425162D01*
X182660000Y-134425162D01*
X182660002Y-134425162D01*
X182713186Y-134420508D01*
X182872747Y-134406549D01*
X183079030Y-134351276D01*
X183272581Y-134261021D01*
X183447519Y-134138529D01*
X183598529Y-133987519D01*
X183721021Y-133812581D01*
X183811276Y-133619030D01*
X183811280Y-133619013D01*
X183813130Y-133613936D01*
X183815253Y-133614709D01*
X183846576Y-133563305D01*
X183909419Y-133532766D01*
X183978796Y-133541050D01*
X184032680Y-133585528D01*
X184045827Y-133614315D01*
X184046870Y-133613936D01*
X184048722Y-133619022D01*
X184048724Y-133619030D01*
X184091171Y-133710058D01*
X184138977Y-133812578D01*
X184261472Y-133987521D01*
X184412478Y-134138527D01*
X184412481Y-134138529D01*
X184587419Y-134261021D01*
X184587421Y-134261022D01*
X184587420Y-134261022D01*
X184651936Y-134291106D01*
X184780970Y-134351276D01*
X184987253Y-134406549D01*
X185139215Y-134419844D01*
X185199998Y-134425162D01*
X185200000Y-134425162D01*
X185200002Y-134425162D01*
X185253186Y-134420508D01*
X185412747Y-134406549D01*
X185619030Y-134351276D01*
X185812581Y-134261021D01*
X185987519Y-134138529D01*
X186138529Y-133987519D01*
X186261021Y-133812581D01*
X186351276Y-133619030D01*
X186406549Y-133412747D01*
X186425162Y-133200000D01*
X186406549Y-132987253D01*
X186352539Y-132785685D01*
X186351278Y-132780977D01*
X186351277Y-132780976D01*
X186351276Y-132780970D01*
X186261021Y-132587419D01*
X186138529Y-132412481D01*
X186138527Y-132412478D01*
X185987521Y-132261472D01*
X185812578Y-132138977D01*
X185812579Y-132138977D01*
X185683547Y-132078809D01*
X185619030Y-132048724D01*
X185619026Y-132048723D01*
X185619022Y-132048721D01*
X185412752Y-131993452D01*
X185412748Y-131993451D01*
X185412747Y-131993451D01*
X185412746Y-131993450D01*
X185412741Y-131993450D01*
X185200002Y-131974838D01*
X185199998Y-131974838D01*
X184987258Y-131993450D01*
X184987247Y-131993452D01*
X184780977Y-132048721D01*
X184780968Y-132048725D01*
X184587421Y-132138977D01*
X184412478Y-132261472D01*
X184261472Y-132412478D01*
X184138977Y-132587421D01*
X184048725Y-132780968D01*
X184046870Y-132786064D01*
X184044749Y-132785292D01*
X184013406Y-132836710D01*
X183950558Y-132867237D01*
X183881183Y-132858939D01*
X183827307Y-132814452D01*
X183814169Y-132785685D01*
X183813130Y-132786064D01*
X183811279Y-132780983D01*
X183811276Y-132780970D01*
X183721021Y-132587419D01*
X183598529Y-132412481D01*
X183598527Y-132412478D01*
X183447521Y-132261472D01*
X183272578Y-132138977D01*
X183272579Y-132138977D01*
X183143547Y-132078809D01*
X183079030Y-132048724D01*
X183079026Y-132048723D01*
X183079022Y-132048721D01*
X182872752Y-131993452D01*
X182872748Y-131993451D01*
X182872747Y-131993451D01*
X182872746Y-131993450D01*
X182872741Y-131993450D01*
X182660002Y-131974838D01*
X182659998Y-131974838D01*
X182447258Y-131993450D01*
X182447247Y-131993452D01*
X182240977Y-132048721D01*
X182240968Y-132048725D01*
X182047421Y-132138977D01*
X181872478Y-132261472D01*
X181721472Y-132412478D01*
X181598977Y-132587421D01*
X181508725Y-132780968D01*
X181506870Y-132786064D01*
X181505031Y-132785394D01*
X181473104Y-132837715D01*
X181410242Y-132868212D01*
X181340870Y-132859883D01*
X181287015Y-132815371D01*
X181273571Y-132785903D01*
X181272658Y-132786236D01*
X181270802Y-132781140D01*
X181180586Y-132587669D01*
X181180582Y-132587663D01*
X181141584Y-132531968D01*
X180520000Y-133153552D01*
X180520000Y-133147339D01*
X180492741Y-133045606D01*
X180440080Y-132954394D01*
X180365606Y-132879920D01*
X180274394Y-132827259D01*
X180172661Y-132800000D01*
X180166447Y-132800000D01*
X180788030Y-132178415D01*
X180732329Y-132139413D01*
X180538859Y-132049197D01*
X180538853Y-132049194D01*
X180332662Y-131993945D01*
X180332654Y-131993944D01*
X180120002Y-131975340D01*
X180119998Y-131975340D01*
X179907345Y-131993944D01*
X179907337Y-131993945D01*
X179701146Y-132049194D01*
X179701140Y-132049197D01*
X179507671Y-132139412D01*
X179507669Y-132139413D01*
X179451969Y-132178415D01*
X179451968Y-132178415D01*
X180073554Y-132800000D01*
X180067339Y-132800000D01*
X179965606Y-132827259D01*
X179874394Y-132879920D01*
X179799920Y-132954394D01*
X179747259Y-133045606D01*
X179720000Y-133147339D01*
X179720000Y-133153553D01*
X179098415Y-132531968D01*
X179098415Y-132531969D01*
X179059413Y-132587669D01*
X179059412Y-132587671D01*
X178969197Y-132781140D01*
X178969194Y-132781146D01*
X178913945Y-132987337D01*
X178913944Y-132987345D01*
X178895340Y-133199997D01*
X100500500Y-133199997D01*
X100500500Y-123300000D01*
X106244706Y-123300000D01*
X106263853Y-123543297D01*
X106263853Y-123543300D01*
X106263854Y-123543302D01*
X106292497Y-123662608D01*
X106320830Y-123780619D01*
X106414222Y-124006089D01*
X106541737Y-124214173D01*
X106541738Y-124214176D01*
X106541741Y-124214179D01*
X106700241Y-124399759D01*
X106809942Y-124493452D01*
X106885818Y-124558257D01*
X106885819Y-124558258D01*
X106885821Y-124558259D01*
X106940436Y-124591727D01*
X106963327Y-124609773D01*
X107629766Y-125276212D01*
X107587708Y-125287482D01*
X107462292Y-125359890D01*
X107359890Y-125462292D01*
X107287482Y-125587708D01*
X107276212Y-125629765D01*
X106538504Y-124892057D01*
X106414668Y-125094138D01*
X106321303Y-125319542D01*
X106264348Y-125556780D01*
X106245207Y-125800000D01*
X106264348Y-126043219D01*
X106321303Y-126280457D01*
X106414668Y-126505861D01*
X106538504Y-126707941D01*
X107276212Y-125970233D01*
X107287482Y-126012292D01*
X107359890Y-126137708D01*
X107462292Y-126240110D01*
X107587708Y-126312518D01*
X107629765Y-126323787D01*
X106892057Y-127061494D01*
X107094138Y-127185331D01*
X107319542Y-127278696D01*
X107556780Y-127335651D01*
X107556779Y-127335651D01*
X107800000Y-127354792D01*
X108043219Y-127335651D01*
X108280457Y-127278696D01*
X108505861Y-127185331D01*
X108707941Y-127061495D01*
X108707941Y-127061494D01*
X107970235Y-126323787D01*
X108012292Y-126312518D01*
X108137708Y-126240110D01*
X108240110Y-126137708D01*
X108312518Y-126012292D01*
X108323787Y-125970234D01*
X109061494Y-126707941D01*
X109061495Y-126707941D01*
X109185331Y-126505861D01*
X109278696Y-126280457D01*
X109335651Y-126043219D01*
X109354792Y-125800000D01*
X109346922Y-125699997D01*
X178895340Y-125699997D01*
X178895340Y-125700002D01*
X178913944Y-125912654D01*
X178913945Y-125912662D01*
X178969194Y-126118853D01*
X178969197Y-126118859D01*
X179059413Y-126312329D01*
X179098415Y-126368030D01*
X179720000Y-125746445D01*
X179720000Y-125752661D01*
X179747259Y-125854394D01*
X179799920Y-125945606D01*
X179874394Y-126020080D01*
X179965606Y-126072741D01*
X180067339Y-126100000D01*
X180073553Y-126100000D01*
X179451968Y-126721584D01*
X179507663Y-126760582D01*
X179507669Y-126760586D01*
X179701140Y-126850802D01*
X179701146Y-126850805D01*
X179907337Y-126906054D01*
X179907345Y-126906055D01*
X180119998Y-126924660D01*
X180120002Y-126924660D01*
X180332654Y-126906055D01*
X180332662Y-126906054D01*
X180538853Y-126850805D01*
X180538864Y-126850801D01*
X180732325Y-126760589D01*
X180788030Y-126721583D01*
X180166448Y-126100000D01*
X180172661Y-126100000D01*
X180274394Y-126072741D01*
X180365606Y-126020080D01*
X180440080Y-125945606D01*
X180492741Y-125854394D01*
X180520000Y-125752661D01*
X180520000Y-125746446D01*
X181141583Y-126368029D01*
X181180589Y-126312325D01*
X181270801Y-126118864D01*
X181272658Y-126113764D01*
X181274567Y-126114458D01*
X181306291Y-126062362D01*
X181369125Y-126031806D01*
X181438504Y-126040071D01*
X181492401Y-126084533D01*
X181505989Y-126114256D01*
X181506870Y-126113936D01*
X181508722Y-126119022D01*
X181508724Y-126119030D01*
X181551171Y-126210058D01*
X181598977Y-126312578D01*
X181721472Y-126487521D01*
X181872478Y-126638527D01*
X181872481Y-126638529D01*
X182047419Y-126761021D01*
X182047421Y-126761022D01*
X182047420Y-126761022D01*
X182111936Y-126791106D01*
X182240970Y-126851276D01*
X182447253Y-126906549D01*
X182599215Y-126919844D01*
X182659998Y-126925162D01*
X182660000Y-126925162D01*
X182660002Y-126925162D01*
X182713186Y-126920508D01*
X182872747Y-126906549D01*
X183079030Y-126851276D01*
X183272581Y-126761021D01*
X183447519Y-126638529D01*
X183598529Y-126487519D01*
X183721021Y-126312581D01*
X183811276Y-126119030D01*
X183811280Y-126119013D01*
X183813130Y-126113936D01*
X183815253Y-126114709D01*
X183846576Y-126063305D01*
X183909419Y-126032766D01*
X183978796Y-126041050D01*
X184032680Y-126085528D01*
X184045827Y-126114315D01*
X184046870Y-126113936D01*
X184048722Y-126119022D01*
X184048724Y-126119030D01*
X184091171Y-126210058D01*
X184138977Y-126312578D01*
X184261472Y-126487521D01*
X184412478Y-126638527D01*
X184412481Y-126638529D01*
X184587419Y-126761021D01*
X184587421Y-126761022D01*
X184587420Y-126761022D01*
X184651936Y-126791106D01*
X184780970Y-126851276D01*
X184987253Y-126906549D01*
X185139215Y-126919844D01*
X185199998Y-126925162D01*
X185200000Y-126925162D01*
X185200002Y-126925162D01*
X185253186Y-126920508D01*
X185412747Y-126906549D01*
X185619030Y-126851276D01*
X185812581Y-126761021D01*
X185987519Y-126638529D01*
X186138529Y-126487519D01*
X186261021Y-126312581D01*
X186351276Y-126119030D01*
X186406549Y-125912747D01*
X186425162Y-125700000D01*
X186406549Y-125487253D01*
X186352539Y-125285685D01*
X186351278Y-125280977D01*
X186351277Y-125280976D01*
X186351276Y-125280970D01*
X186261021Y-125087419D01*
X186138529Y-124912481D01*
X186138527Y-124912478D01*
X185987521Y-124761472D01*
X185812578Y-124638977D01*
X185812579Y-124638977D01*
X185683547Y-124578809D01*
X185619030Y-124548724D01*
X185619026Y-124548723D01*
X185619022Y-124548721D01*
X185412752Y-124493452D01*
X185412748Y-124493451D01*
X185412747Y-124493451D01*
X185412746Y-124493450D01*
X185412741Y-124493450D01*
X185200002Y-124474838D01*
X185199998Y-124474838D01*
X184987258Y-124493450D01*
X184987247Y-124493452D01*
X184780977Y-124548721D01*
X184780968Y-124548725D01*
X184587421Y-124638977D01*
X184412478Y-124761472D01*
X184261472Y-124912478D01*
X184138977Y-125087421D01*
X184048725Y-125280968D01*
X184046870Y-125286064D01*
X184044749Y-125285292D01*
X184013406Y-125336710D01*
X183950558Y-125367237D01*
X183881183Y-125358939D01*
X183827307Y-125314452D01*
X183814169Y-125285685D01*
X183813130Y-125286064D01*
X183811279Y-125280983D01*
X183811276Y-125280970D01*
X183721021Y-125087419D01*
X183598529Y-124912481D01*
X183598527Y-124912478D01*
X183447521Y-124761472D01*
X183272578Y-124638977D01*
X183272579Y-124638977D01*
X183143547Y-124578809D01*
X183079030Y-124548724D01*
X183079026Y-124548723D01*
X183079022Y-124548721D01*
X182872752Y-124493452D01*
X182872748Y-124493451D01*
X182872747Y-124493451D01*
X182872746Y-124493450D01*
X182872741Y-124493450D01*
X182660002Y-124474838D01*
X182659998Y-124474838D01*
X182447258Y-124493450D01*
X182447247Y-124493452D01*
X182240977Y-124548721D01*
X182240968Y-124548725D01*
X182047421Y-124638977D01*
X181872478Y-124761472D01*
X181721472Y-124912478D01*
X181598977Y-125087421D01*
X181508725Y-125280968D01*
X181506870Y-125286064D01*
X181505031Y-125285394D01*
X181473104Y-125337715D01*
X181410242Y-125368212D01*
X181340870Y-125359883D01*
X181287015Y-125315371D01*
X181273571Y-125285903D01*
X181272658Y-125286236D01*
X181270802Y-125281140D01*
X181180586Y-125087669D01*
X181180582Y-125087663D01*
X181141584Y-125031968D01*
X180520000Y-125653552D01*
X180520000Y-125647339D01*
X180492741Y-125545606D01*
X180440080Y-125454394D01*
X180365606Y-125379920D01*
X180274394Y-125327259D01*
X180172661Y-125300000D01*
X180166447Y-125300000D01*
X180788030Y-124678415D01*
X180732329Y-124639413D01*
X180538859Y-124549197D01*
X180538853Y-124549194D01*
X180332662Y-124493945D01*
X180332654Y-124493944D01*
X180120002Y-124475340D01*
X180119998Y-124475340D01*
X179907345Y-124493944D01*
X179907337Y-124493945D01*
X179701146Y-124549194D01*
X179701140Y-124549197D01*
X179507671Y-124639412D01*
X179507669Y-124639413D01*
X179451969Y-124678415D01*
X179451968Y-124678415D01*
X180073554Y-125300000D01*
X180067339Y-125300000D01*
X179965606Y-125327259D01*
X179874394Y-125379920D01*
X179799920Y-125454394D01*
X179747259Y-125545606D01*
X179720000Y-125647339D01*
X179720000Y-125653553D01*
X179098415Y-125031968D01*
X179098415Y-125031969D01*
X179059413Y-125087669D01*
X179059412Y-125087671D01*
X178969197Y-125281140D01*
X178969194Y-125281146D01*
X178913945Y-125487337D01*
X178913944Y-125487345D01*
X178895340Y-125699997D01*
X109346922Y-125699997D01*
X109335651Y-125556780D01*
X109278696Y-125319542D01*
X109185331Y-125094138D01*
X109061494Y-124892057D01*
X108323787Y-125629764D01*
X108312518Y-125587708D01*
X108240110Y-125462292D01*
X108137708Y-125359890D01*
X108012292Y-125287482D01*
X107970233Y-125276212D01*
X108636670Y-124609774D01*
X108659553Y-124591733D01*
X108714179Y-124558259D01*
X108899759Y-124399759D01*
X109058259Y-124214179D01*
X109185777Y-124006089D01*
X109279172Y-123780612D01*
X109336146Y-123543302D01*
X109355294Y-123300000D01*
X109336146Y-123056698D01*
X109279172Y-122819388D01*
X109185777Y-122593911D01*
X109185777Y-122593910D01*
X109058262Y-122385826D01*
X109058261Y-122385823D01*
X109022453Y-122343897D01*
X108899759Y-122200241D01*
X108777063Y-122095449D01*
X108714176Y-122041738D01*
X108714173Y-122041737D01*
X108506089Y-121914222D01*
X108280618Y-121820830D01*
X108280621Y-121820830D01*
X108174992Y-121795470D01*
X108043302Y-121763854D01*
X108043300Y-121763853D01*
X108043297Y-121763853D01*
X107800000Y-121744706D01*
X107556702Y-121763853D01*
X107319380Y-121820830D01*
X107093910Y-121914222D01*
X106885826Y-122041737D01*
X106885823Y-122041738D01*
X106700241Y-122200241D01*
X106541738Y-122385823D01*
X106541737Y-122385826D01*
X106414222Y-122593910D01*
X106320830Y-122819380D01*
X106263853Y-123056702D01*
X106244706Y-123300000D01*
X100500500Y-123300000D01*
X100500500Y-104599995D01*
X103814953Y-104599995D01*
X103814953Y-104600004D01*
X103835113Y-104869026D01*
X103835113Y-104869028D01*
X103895142Y-105132033D01*
X103895148Y-105132052D01*
X103993709Y-105383181D01*
X103993708Y-105383181D01*
X104128602Y-105616822D01*
X104182294Y-105684151D01*
X104182295Y-105684151D01*
X104904153Y-104962293D01*
X104911049Y-104978942D01*
X104998599Y-105109970D01*
X105110030Y-105221401D01*
X105241058Y-105308951D01*
X105257705Y-105315846D01*
X104534848Y-106038702D01*
X104717483Y-106163220D01*
X104717485Y-106163221D01*
X104960539Y-106280269D01*
X104960537Y-106280269D01*
X105218337Y-106359790D01*
X105218343Y-106359792D01*
X105485101Y-106399999D01*
X105485110Y-106400000D01*
X105754890Y-106400000D01*
X105754898Y-106399999D01*
X106021656Y-106359792D01*
X106021662Y-106359790D01*
X106279458Y-106280270D01*
X106497927Y-106175061D01*
X106566869Y-106163709D01*
X106631003Y-106191431D01*
X106669969Y-106249426D01*
X106671394Y-106319281D01*
X106667158Y-106332081D01*
X106582583Y-106547578D01*
X106582578Y-106547590D01*
X106582576Y-106547597D01*
X106524197Y-106803374D01*
X106524196Y-106803379D01*
X106504592Y-107064995D01*
X106504592Y-107065004D01*
X106524196Y-107326620D01*
X106524197Y-107326625D01*
X106582576Y-107582402D01*
X106582582Y-107582421D01*
X106678432Y-107826643D01*
X106784256Y-108009937D01*
X106800729Y-108077837D01*
X106777876Y-108143864D01*
X106722955Y-108187055D01*
X106653402Y-108193696D01*
X106607017Y-108174390D01*
X106522526Y-108116784D01*
X106522516Y-108116778D01*
X106279460Y-107999730D01*
X106279462Y-107999730D01*
X106021662Y-107920209D01*
X106021656Y-107920207D01*
X105754898Y-107880000D01*
X105485101Y-107880000D01*
X105218343Y-107920207D01*
X105218337Y-107920209D01*
X104960538Y-107999730D01*
X104717485Y-108116778D01*
X104717476Y-108116783D01*
X104534848Y-108241296D01*
X105257705Y-108964153D01*
X105241058Y-108971049D01*
X105110030Y-109058599D01*
X104998599Y-109170030D01*
X104911049Y-109301058D01*
X104904153Y-109317706D01*
X104182295Y-108595848D01*
X104128600Y-108663180D01*
X103993709Y-108896818D01*
X103895148Y-109147947D01*
X103895142Y-109147966D01*
X103835113Y-109410971D01*
X103835113Y-109410973D01*
X103814953Y-109679995D01*
X103814953Y-109680004D01*
X103835113Y-109949026D01*
X103835113Y-109949028D01*
X103895142Y-110212033D01*
X103895148Y-110212052D01*
X103993709Y-110463181D01*
X103993708Y-110463181D01*
X104128602Y-110696822D01*
X104182294Y-110764151D01*
X104182295Y-110764151D01*
X104904153Y-110042293D01*
X104911049Y-110058942D01*
X104998599Y-110189970D01*
X105110030Y-110301401D01*
X105241058Y-110388951D01*
X105257705Y-110395846D01*
X104534848Y-111118702D01*
X104717483Y-111243220D01*
X104717485Y-111243221D01*
X104960539Y-111360269D01*
X104960537Y-111360269D01*
X105218337Y-111439790D01*
X105218343Y-111439792D01*
X105485101Y-111479999D01*
X105485110Y-111480000D01*
X105754890Y-111480000D01*
X105754898Y-111479999D01*
X106021656Y-111439792D01*
X106021662Y-111439790D01*
X106279461Y-111360269D01*
X106522521Y-111243218D01*
X106705150Y-111118702D01*
X105982294Y-110395846D01*
X105998942Y-110388951D01*
X106129970Y-110301401D01*
X106241401Y-110189970D01*
X106328951Y-110058942D01*
X106335846Y-110042294D01*
X107057703Y-110764151D01*
X107057704Y-110764150D01*
X107111393Y-110696828D01*
X107111400Y-110696817D01*
X107246290Y-110463181D01*
X107344851Y-110212052D01*
X107344857Y-110212033D01*
X107404886Y-109949028D01*
X107404886Y-109949026D01*
X107425047Y-109680004D01*
X107425047Y-109679995D01*
X107404886Y-109410973D01*
X107404886Y-109410971D01*
X107344857Y-109147966D01*
X107344851Y-109147947D01*
X107246290Y-108896818D01*
X107246291Y-108896818D01*
X107132961Y-108700527D01*
X107116488Y-108632627D01*
X107139340Y-108566600D01*
X107194261Y-108523410D01*
X107263815Y-108516768D01*
X107310197Y-108536071D01*
X107382296Y-108585228D01*
X107382301Y-108585230D01*
X107382302Y-108585231D01*
X107382303Y-108585232D01*
X107480721Y-108632627D01*
X107618673Y-108699061D01*
X107618674Y-108699061D01*
X107618677Y-108699063D01*
X107869385Y-108776396D01*
X108128818Y-108815500D01*
X108391182Y-108815500D01*
X108650615Y-108776396D01*
X108901323Y-108699063D01*
X108936056Y-108682336D01*
X109004994Y-108670985D01*
X109069128Y-108698706D01*
X109108094Y-108756701D01*
X109109520Y-108826556D01*
X109097243Y-108856056D01*
X109073708Y-108896820D01*
X108975148Y-109147947D01*
X108975142Y-109147966D01*
X108915113Y-109410971D01*
X108915113Y-109410973D01*
X108894953Y-109679995D01*
X108894953Y-109680004D01*
X108915113Y-109949026D01*
X108915113Y-109949028D01*
X108975142Y-110212033D01*
X108975148Y-110212052D01*
X109073709Y-110463181D01*
X109073708Y-110463181D01*
X109208602Y-110696822D01*
X109262294Y-110764151D01*
X109984152Y-110042293D01*
X109991049Y-110058942D01*
X110078599Y-110189970D01*
X110190030Y-110301401D01*
X110321058Y-110388951D01*
X110337705Y-110395846D01*
X109614848Y-111118702D01*
X109797483Y-111243220D01*
X109797485Y-111243221D01*
X110040539Y-111360269D01*
X110040537Y-111360269D01*
X110298337Y-111439790D01*
X110298343Y-111439792D01*
X110565101Y-111479999D01*
X110565110Y-111480000D01*
X110834890Y-111480000D01*
X110834898Y-111479999D01*
X111101656Y-111439792D01*
X111101662Y-111439790D01*
X111359461Y-111360269D01*
X111602521Y-111243218D01*
X111785150Y-111118702D01*
X111062294Y-110395846D01*
X111078942Y-110388951D01*
X111209970Y-110301401D01*
X111321401Y-110189970D01*
X111408951Y-110058942D01*
X111415846Y-110042294D01*
X112137703Y-110764151D01*
X112137704Y-110764150D01*
X112191393Y-110696828D01*
X112191400Y-110696817D01*
X112326290Y-110463181D01*
X112424851Y-110212052D01*
X112424857Y-110212033D01*
X112484886Y-109949028D01*
X112484886Y-109949026D01*
X112505047Y-109680004D01*
X112505047Y-109679995D01*
X112484886Y-109410973D01*
X112484886Y-109410971D01*
X112424857Y-109147966D01*
X112424851Y-109147947D01*
X112326290Y-108896818D01*
X112326291Y-108896818D01*
X112191397Y-108663177D01*
X112137704Y-108595847D01*
X111415846Y-109317705D01*
X111408951Y-109301058D01*
X111321401Y-109170030D01*
X111209970Y-109058599D01*
X111078942Y-108971049D01*
X111062293Y-108964153D01*
X111785150Y-108241296D01*
X111602517Y-108116779D01*
X111602516Y-108116778D01*
X111359460Y-107999730D01*
X111359462Y-107999730D01*
X111101662Y-107920209D01*
X111101656Y-107920207D01*
X110834898Y-107880000D01*
X110565101Y-107880000D01*
X110298343Y-107920207D01*
X110298337Y-107920209D01*
X110040544Y-107999728D01*
X109988711Y-108024690D01*
X109919769Y-108036041D01*
X109855635Y-108008318D01*
X109816670Y-107950323D01*
X109815245Y-107880468D01*
X109827522Y-107850970D01*
X109841568Y-107826643D01*
X109937420Y-107582416D01*
X109995802Y-107326630D01*
X110015408Y-107065000D01*
X109995802Y-106803370D01*
X109937420Y-106547584D01*
X109897923Y-106446949D01*
X109891755Y-106377353D01*
X109924193Y-106315470D01*
X109984938Y-106280947D01*
X110049902Y-106283157D01*
X110298337Y-106359790D01*
X110298343Y-106359792D01*
X110565101Y-106399999D01*
X110565110Y-106400000D01*
X110834890Y-106400000D01*
X110834898Y-106399999D01*
X111101656Y-106359792D01*
X111101662Y-106359790D01*
X111359461Y-106280269D01*
X111602521Y-106163218D01*
X111785150Y-106038702D01*
X111062294Y-105315846D01*
X111078942Y-105308951D01*
X111209970Y-105221401D01*
X111321401Y-105109970D01*
X111408951Y-104978942D01*
X111415846Y-104962294D01*
X112137703Y-105684151D01*
X112137704Y-105684150D01*
X112154884Y-105662608D01*
X144999500Y-105662608D01*
X144999500Y-123794391D01*
X145033608Y-123921687D01*
X145066554Y-123978750D01*
X145099500Y-124035814D01*
X145192686Y-124129000D01*
X145306814Y-124194892D01*
X145434108Y-124229000D01*
X145434110Y-124229000D01*
X156565890Y-124229000D01*
X156565892Y-124229000D01*
X156693186Y-124194892D01*
X156807314Y-124129000D01*
X156900500Y-124035814D01*
X156966392Y-123921686D01*
X157000500Y-123794392D01*
X157000500Y-105662608D01*
X156966392Y-105535314D01*
X156900500Y-105421186D01*
X156807314Y-105328000D01*
X156750250Y-105295054D01*
X156693187Y-105262108D01*
X156629539Y-105245054D01*
X156565892Y-105228000D01*
X145565892Y-105228000D01*
X145434108Y-105228000D01*
X145306812Y-105262108D01*
X145192686Y-105328000D01*
X145192683Y-105328002D01*
X145099502Y-105421183D01*
X145099500Y-105421186D01*
X145033608Y-105535312D01*
X144999500Y-105662608D01*
X112154884Y-105662608D01*
X112191393Y-105616828D01*
X112191400Y-105616817D01*
X112326290Y-105383181D01*
X112424851Y-105132052D01*
X112424857Y-105132033D01*
X112484886Y-104869028D01*
X112484886Y-104869026D01*
X112505047Y-104600004D01*
X112505047Y-104599995D01*
X112484886Y-104330973D01*
X112484886Y-104330971D01*
X112424857Y-104067966D01*
X112424851Y-104067947D01*
X112326290Y-103816818D01*
X112326291Y-103816818D01*
X112191397Y-103583177D01*
X112137704Y-103515847D01*
X111415846Y-104237705D01*
X111408951Y-104221058D01*
X111321401Y-104090030D01*
X111209970Y-103978599D01*
X111078942Y-103891049D01*
X111062294Y-103884153D01*
X111785150Y-103161296D01*
X111602517Y-103036779D01*
X111602516Y-103036778D01*
X111359460Y-102919730D01*
X111359462Y-102919730D01*
X111101662Y-102840209D01*
X111101656Y-102840207D01*
X110834898Y-102800000D01*
X110565101Y-102800000D01*
X110298343Y-102840207D01*
X110298337Y-102840209D01*
X110040538Y-102919730D01*
X109797485Y-103036778D01*
X109797476Y-103036783D01*
X109614848Y-103161296D01*
X110337705Y-103884153D01*
X110321058Y-103891049D01*
X110190030Y-103978599D01*
X110078599Y-104090030D01*
X109991049Y-104221058D01*
X109984153Y-104237706D01*
X109262295Y-103515848D01*
X109208600Y-103583180D01*
X109073709Y-103816818D01*
X108975148Y-104067947D01*
X108975142Y-104067966D01*
X108915113Y-104330971D01*
X108915113Y-104330973D01*
X108894953Y-104599995D01*
X108894953Y-104600004D01*
X108915113Y-104869026D01*
X108915113Y-104869028D01*
X108975142Y-105132033D01*
X108975148Y-105132052D01*
X109024706Y-105258324D01*
X109030875Y-105327921D01*
X108998437Y-105389804D01*
X108937692Y-105424327D01*
X108872729Y-105422117D01*
X108767973Y-105389804D01*
X108650623Y-105353606D01*
X108650619Y-105353605D01*
X108650615Y-105353604D01*
X108525823Y-105334794D01*
X108391187Y-105314500D01*
X108391182Y-105314500D01*
X108128818Y-105314500D01*
X108128812Y-105314500D01*
X107967247Y-105338853D01*
X107869385Y-105353604D01*
X107869382Y-105353605D01*
X107869376Y-105353606D01*
X107618673Y-105430938D01*
X107421052Y-105526107D01*
X107352111Y-105537459D01*
X107287976Y-105509736D01*
X107249011Y-105451741D01*
X107247586Y-105381886D01*
X107251823Y-105369085D01*
X107344851Y-105132052D01*
X107344857Y-105132033D01*
X107404886Y-104869028D01*
X107404886Y-104869026D01*
X107425047Y-104600004D01*
X107425047Y-104599995D01*
X107404886Y-104330973D01*
X107404886Y-104330971D01*
X107344857Y-104067966D01*
X107344851Y-104067947D01*
X107246290Y-103816818D01*
X107246291Y-103816818D01*
X107111397Y-103583177D01*
X107057704Y-103515847D01*
X106335846Y-104237705D01*
X106328951Y-104221058D01*
X106241401Y-104090030D01*
X106129970Y-103978599D01*
X105998942Y-103891049D01*
X105982294Y-103884153D01*
X106705150Y-103161296D01*
X106522517Y-103036779D01*
X106522516Y-103036778D01*
X106279460Y-102919730D01*
X106279462Y-102919730D01*
X106021662Y-102840209D01*
X106021656Y-102840207D01*
X105754898Y-102800000D01*
X105485101Y-102800000D01*
X105218343Y-102840207D01*
X105218337Y-102840209D01*
X104960538Y-102919730D01*
X104717485Y-103036778D01*
X104717476Y-103036783D01*
X104534848Y-103161296D01*
X105257705Y-103884153D01*
X105241058Y-103891049D01*
X105110030Y-103978599D01*
X104998599Y-104090030D01*
X104911049Y-104221058D01*
X104904153Y-104237706D01*
X104182295Y-103515848D01*
X104128600Y-103583180D01*
X103993709Y-103816818D01*
X103895148Y-104067947D01*
X103895142Y-104067966D01*
X103835113Y-104330971D01*
X103835113Y-104330973D01*
X103814953Y-104599995D01*
X100500500Y-104599995D01*
X100500500Y-101999999D01*
X143294659Y-101999999D01*
X143298903Y-102043090D01*
X143299500Y-102055244D01*
X143299500Y-102098544D01*
X143307945Y-102141006D01*
X143309730Y-102153035D01*
X143313975Y-102196130D01*
X143313976Y-102196134D01*
X143326547Y-102237575D01*
X143329503Y-102249378D01*
X143337946Y-102291827D01*
X143337948Y-102291834D01*
X143354517Y-102331834D01*
X143358612Y-102343277D01*
X143371186Y-102384727D01*
X143371187Y-102384729D01*
X143391597Y-102422913D01*
X143396800Y-102433915D01*
X143413368Y-102473914D01*
X143413370Y-102473918D01*
X143437425Y-102509918D01*
X143443683Y-102520358D01*
X143464088Y-102558535D01*
X143464094Y-102558543D01*
X143491552Y-102592002D01*
X143498799Y-102601772D01*
X143522862Y-102637783D01*
X143522865Y-102637787D01*
X143553479Y-102668401D01*
X143561651Y-102677416D01*
X143582881Y-102703285D01*
X143589118Y-102710884D01*
X143622581Y-102738346D01*
X143631599Y-102746520D01*
X143662214Y-102777136D01*
X143662219Y-102777140D01*
X143698219Y-102801194D01*
X143707988Y-102808438D01*
X143741462Y-102835910D01*
X143741464Y-102835911D01*
X143779640Y-102856316D01*
X143790078Y-102862572D01*
X143826086Y-102886632D01*
X143866095Y-102903203D01*
X143877091Y-102908404D01*
X143915273Y-102928814D01*
X143956710Y-102941383D01*
X143968160Y-102945480D01*
X144008165Y-102962051D01*
X144050640Y-102970499D01*
X144062414Y-102973448D01*
X144103868Y-102986024D01*
X144146964Y-102990268D01*
X144158990Y-102992052D01*
X144189480Y-102998117D01*
X144201458Y-103000500D01*
X144201459Y-103000500D01*
X144244756Y-103000500D01*
X144256909Y-103001096D01*
X144300000Y-103005341D01*
X144343090Y-103001096D01*
X144355244Y-103000500D01*
X148568122Y-103000500D01*
X148635161Y-103020185D01*
X148673659Y-103059401D01*
X148694788Y-103093656D01*
X148818844Y-103217712D01*
X148968166Y-103309814D01*
X149134703Y-103364999D01*
X149237491Y-103375500D01*
X149962508Y-103375499D01*
X149962516Y-103375498D01*
X149962519Y-103375498D01*
X150018802Y-103369748D01*
X150065297Y-103364999D01*
X150231834Y-103309814D01*
X150381156Y-103217712D01*
X150505212Y-103093656D01*
X150597314Y-102944334D01*
X150652499Y-102777797D01*
X150663000Y-102675009D01*
X150662999Y-101324992D01*
X150662998Y-101324983D01*
X151462000Y-101324983D01*
X151462000Y-102675001D01*
X151462001Y-102675018D01*
X151472500Y-102777796D01*
X151472501Y-102777799D01*
X151527685Y-102944331D01*
X151527687Y-102944336D01*
X151543823Y-102970497D01*
X151619788Y-103093656D01*
X151743844Y-103217712D01*
X151893166Y-103309814D01*
X152059703Y-103364999D01*
X152162491Y-103375500D01*
X152409217Y-103375499D01*
X152476256Y-103395183D01*
X152496897Y-103411817D01*
X152807989Y-103722910D01*
X153053479Y-103968400D01*
X153061650Y-103977415D01*
X153089118Y-104010884D01*
X153122581Y-104038346D01*
X153131599Y-104046520D01*
X153162214Y-104077136D01*
X153162219Y-104077140D01*
X153198219Y-104101194D01*
X153207988Y-104108439D01*
X153241462Y-104135910D01*
X153279648Y-104156320D01*
X153290079Y-104162571D01*
X153326086Y-104186631D01*
X153347002Y-104195295D01*
X153366087Y-104203201D01*
X153377085Y-104208402D01*
X153415273Y-104228814D01*
X153456721Y-104241387D01*
X153468166Y-104245483D01*
X153508156Y-104262048D01*
X153508157Y-104262048D01*
X153508164Y-104262051D01*
X153550632Y-104270497D01*
X153562424Y-104273451D01*
X153603868Y-104286024D01*
X153646965Y-104290268D01*
X153658991Y-104292052D01*
X153689481Y-104298117D01*
X153701459Y-104300500D01*
X153701460Y-104300500D01*
X153744756Y-104300500D01*
X153756909Y-104301096D01*
X153800000Y-104305341D01*
X153843090Y-104301096D01*
X153855244Y-104300500D01*
X153898540Y-104300500D01*
X153941006Y-104292052D01*
X153953035Y-104290268D01*
X153996132Y-104286024D01*
X154037580Y-104273450D01*
X154049353Y-104270500D01*
X154091835Y-104262051D01*
X154127083Y-104247450D01*
X154131833Y-104245483D01*
X154143286Y-104241384D01*
X154184727Y-104228814D01*
X154222913Y-104208402D01*
X154233915Y-104203199D01*
X154256178Y-104193976D01*
X154273914Y-104186631D01*
X154273916Y-104186629D01*
X154273921Y-104186627D01*
X154309908Y-104162580D01*
X154320332Y-104156330D01*
X154358538Y-104135910D01*
X154392020Y-104108430D01*
X154401780Y-104101193D01*
X154437781Y-104077139D01*
X154468394Y-104046524D01*
X154477411Y-104038352D01*
X154477418Y-104038346D01*
X154510883Y-104010883D01*
X154538353Y-103977409D01*
X154546526Y-103968393D01*
X154577139Y-103937781D01*
X154601193Y-103901780D01*
X154608430Y-103892020D01*
X154635910Y-103858538D01*
X154656330Y-103820332D01*
X154662580Y-103809908D01*
X154686627Y-103773921D01*
X154686632Y-103773911D01*
X154703199Y-103733915D01*
X154708404Y-103722910D01*
X154728811Y-103684732D01*
X154728814Y-103684727D01*
X154741384Y-103643286D01*
X154745483Y-103631833D01*
X154747450Y-103627083D01*
X154762051Y-103591835D01*
X154770500Y-103549353D01*
X154773450Y-103537580D01*
X154786024Y-103496132D01*
X154790268Y-103453035D01*
X154792052Y-103441006D01*
X154800500Y-103398540D01*
X154800500Y-103355244D01*
X154801097Y-103343090D01*
X154804374Y-103309814D01*
X154805341Y-103300000D01*
X154801097Y-103256907D01*
X154800500Y-103244754D01*
X154800500Y-103201459D01*
X154798117Y-103189481D01*
X154792052Y-103158991D01*
X154790268Y-103146962D01*
X154786024Y-103103868D01*
X154773451Y-103062424D01*
X154770496Y-103050625D01*
X154767742Y-103036778D01*
X154762051Y-103008164D01*
X154760881Y-103005340D01*
X154745483Y-102968166D01*
X154741387Y-102956721D01*
X154728814Y-102915273D01*
X154708402Y-102877084D01*
X154703201Y-102866087D01*
X154692480Y-102840207D01*
X154686631Y-102826086D01*
X154662571Y-102790079D01*
X154656322Y-102779652D01*
X154635910Y-102741462D01*
X154608440Y-102707990D01*
X154601194Y-102698219D01*
X154577140Y-102662219D01*
X154577136Y-102662214D01*
X154546520Y-102631599D01*
X154538346Y-102622581D01*
X154510884Y-102589118D01*
X154477415Y-102561650D01*
X154468400Y-102553479D01*
X153624318Y-101709397D01*
X153590833Y-101648074D01*
X153587999Y-101621716D01*
X153587999Y-101324998D01*
X153587998Y-101324981D01*
X153577499Y-101222203D01*
X153577498Y-101222200D01*
X153567344Y-101191557D01*
X153522314Y-101055666D01*
X153430212Y-100906344D01*
X153306156Y-100782288D01*
X153156834Y-100690186D01*
X152990297Y-100635001D01*
X152990295Y-100635000D01*
X152887510Y-100624500D01*
X152162498Y-100624500D01*
X152162480Y-100624501D01*
X152059703Y-100635000D01*
X152059700Y-100635001D01*
X151893168Y-100690185D01*
X151893163Y-100690187D01*
X151743842Y-100782289D01*
X151619789Y-100906342D01*
X151527687Y-101055663D01*
X151527685Y-101055668D01*
X151514057Y-101096795D01*
X151472501Y-101222203D01*
X151472501Y-101222204D01*
X151472500Y-101222204D01*
X151462000Y-101324983D01*
X150662998Y-101324983D01*
X150652499Y-101222203D01*
X150597314Y-101055666D01*
X150505212Y-100906344D01*
X150381156Y-100782288D01*
X150231834Y-100690186D01*
X150065297Y-100635001D01*
X150065295Y-100635000D01*
X149962510Y-100624500D01*
X149237498Y-100624500D01*
X149237480Y-100624501D01*
X149134703Y-100635000D01*
X149134700Y-100635001D01*
X148968168Y-100690185D01*
X148968163Y-100690187D01*
X148818842Y-100782289D01*
X148694789Y-100906342D01*
X148673661Y-100940597D01*
X148621713Y-100987321D01*
X148568122Y-100999500D01*
X144355244Y-100999500D01*
X144343090Y-100998903D01*
X144300000Y-100994659D01*
X144256910Y-100998903D01*
X144244756Y-100999500D01*
X144201453Y-100999500D01*
X144158991Y-101007945D01*
X144146963Y-101009730D01*
X144103867Y-101013976D01*
X144062427Y-101026546D01*
X144050626Y-101029502D01*
X144008166Y-101037948D01*
X144008161Y-101037949D01*
X143968159Y-101054518D01*
X143956707Y-101058616D01*
X143915272Y-101071186D01*
X143877091Y-101091594D01*
X143866093Y-101096795D01*
X143826091Y-101113364D01*
X143790080Y-101137426D01*
X143779645Y-101143680D01*
X143741465Y-101164087D01*
X143741460Y-101164091D01*
X143707990Y-101191557D01*
X143698225Y-101198799D01*
X143662225Y-101222855D01*
X143662219Y-101222860D01*
X143631595Y-101253483D01*
X143622584Y-101261650D01*
X143589117Y-101289117D01*
X143561650Y-101322584D01*
X143553483Y-101331595D01*
X143522860Y-101362219D01*
X143522855Y-101362225D01*
X143498799Y-101398225D01*
X143491557Y-101407990D01*
X143464091Y-101441460D01*
X143464087Y-101441465D01*
X143443680Y-101479645D01*
X143437426Y-101490080D01*
X143413364Y-101526091D01*
X143396795Y-101566093D01*
X143391594Y-101577091D01*
X143371186Y-101615272D01*
X143358616Y-101656707D01*
X143354518Y-101668159D01*
X143337949Y-101708161D01*
X143337948Y-101708166D01*
X143329502Y-101750626D01*
X143326546Y-101762427D01*
X143313976Y-101803867D01*
X143309730Y-101846963D01*
X143307945Y-101858991D01*
X143299500Y-101901453D01*
X143299500Y-101944754D01*
X143298903Y-101956907D01*
X143294659Y-101999999D01*
X100500500Y-101999999D01*
X100500500Y-98999994D01*
X149494357Y-98999994D01*
X149494357Y-99000005D01*
X149514890Y-99247812D01*
X149514892Y-99247824D01*
X149575936Y-99488881D01*
X149675826Y-99716606D01*
X149811833Y-99924782D01*
X149811836Y-99924785D01*
X149980256Y-100107738D01*
X150176491Y-100260474D01*
X150395190Y-100378828D01*
X150630386Y-100459571D01*
X150875665Y-100500500D01*
X151124335Y-100500500D01*
X151369614Y-100459571D01*
X151604810Y-100378828D01*
X151823509Y-100260474D01*
X152019744Y-100107738D01*
X152188164Y-99924785D01*
X152324173Y-99716607D01*
X152424063Y-99488881D01*
X152485108Y-99247821D01*
X152505643Y-99000000D01*
X152485108Y-98752179D01*
X152424063Y-98511119D01*
X152401451Y-98459570D01*
X152324173Y-98283393D01*
X152188166Y-98075217D01*
X152166557Y-98051744D01*
X152019744Y-97892262D01*
X151823509Y-97739526D01*
X151823507Y-97739525D01*
X151823506Y-97739524D01*
X151604811Y-97621172D01*
X151604802Y-97621169D01*
X151369616Y-97540429D01*
X151124335Y-97499500D01*
X150875665Y-97499500D01*
X150630383Y-97540429D01*
X150395197Y-97621169D01*
X150395188Y-97621172D01*
X150176493Y-97739524D01*
X149980257Y-97892261D01*
X149811833Y-98075217D01*
X149675826Y-98283393D01*
X149575936Y-98511118D01*
X149514892Y-98752175D01*
X149514890Y-98752187D01*
X149494357Y-98999994D01*
X100500500Y-98999994D01*
X100500500Y-96999994D01*
X157494357Y-96999994D01*
X157494357Y-97000005D01*
X157514890Y-97247812D01*
X157514892Y-97247824D01*
X157575936Y-97488881D01*
X157675826Y-97716606D01*
X157811833Y-97924782D01*
X157811836Y-97924785D01*
X157980256Y-98107738D01*
X158176491Y-98260474D01*
X158176493Y-98260475D01*
X158394332Y-98378364D01*
X158395190Y-98378828D01*
X158614141Y-98453994D01*
X158628964Y-98459083D01*
X158630386Y-98459571D01*
X158875665Y-98500500D01*
X159124335Y-98500500D01*
X159369614Y-98459571D01*
X159604810Y-98378828D01*
X159823509Y-98260474D01*
X160019744Y-98107738D01*
X160188164Y-97924785D01*
X160324173Y-97716607D01*
X160424063Y-97488881D01*
X160485108Y-97247821D01*
X160505643Y-97000000D01*
X160505643Y-96999994D01*
X195494859Y-96999994D01*
X195494859Y-97000005D01*
X195515385Y-97247729D01*
X195515387Y-97247738D01*
X195576412Y-97488717D01*
X195676266Y-97716364D01*
X195776564Y-97869882D01*
X196517037Y-97129409D01*
X196534075Y-97192993D01*
X196599901Y-97307007D01*
X196692993Y-97400099D01*
X196807007Y-97465925D01*
X196870590Y-97482962D01*
X196129942Y-98223609D01*
X196176768Y-98260055D01*
X196176770Y-98260056D01*
X196395385Y-98378364D01*
X196395396Y-98378369D01*
X196630506Y-98459083D01*
X196875707Y-98500000D01*
X197124293Y-98500000D01*
X197369493Y-98459083D01*
X197604603Y-98378369D01*
X197604614Y-98378364D01*
X197823228Y-98260057D01*
X197823231Y-98260055D01*
X197870056Y-98223609D01*
X197129409Y-97482962D01*
X197192993Y-97465925D01*
X197307007Y-97400099D01*
X197400099Y-97307007D01*
X197465925Y-97192993D01*
X197482962Y-97129410D01*
X198223434Y-97869882D01*
X198323731Y-97716369D01*
X198423587Y-97488717D01*
X198484612Y-97247738D01*
X198484614Y-97247729D01*
X198505141Y-97000005D01*
X198505141Y-96999994D01*
X198484614Y-96752270D01*
X198484612Y-96752261D01*
X198423587Y-96511282D01*
X198323731Y-96283630D01*
X198223434Y-96130116D01*
X197482962Y-96870589D01*
X197465925Y-96807007D01*
X197400099Y-96692993D01*
X197307007Y-96599901D01*
X197192993Y-96534075D01*
X197129410Y-96517037D01*
X197870057Y-95776390D01*
X197870056Y-95776389D01*
X197823229Y-95739943D01*
X197604614Y-95621635D01*
X197604603Y-95621630D01*
X197369493Y-95540916D01*
X197124293Y-95500000D01*
X196875707Y-95500000D01*
X196630506Y-95540916D01*
X196395396Y-95621630D01*
X196395390Y-95621632D01*
X196176761Y-95739949D01*
X196129942Y-95776388D01*
X196129942Y-95776390D01*
X196870590Y-96517037D01*
X196807007Y-96534075D01*
X196692993Y-96599901D01*
X196599901Y-96692993D01*
X196534075Y-96807007D01*
X196517037Y-96870589D01*
X195776564Y-96130116D01*
X195676267Y-96283632D01*
X195576412Y-96511282D01*
X195515387Y-96752261D01*
X195515385Y-96752270D01*
X195494859Y-96999994D01*
X160505643Y-96999994D01*
X160489651Y-96807007D01*
X160485109Y-96752187D01*
X160485107Y-96752175D01*
X160424063Y-96511118D01*
X160324173Y-96283393D01*
X160188166Y-96075217D01*
X160166557Y-96051744D01*
X160019744Y-95892262D01*
X159823509Y-95739526D01*
X159823507Y-95739525D01*
X159823506Y-95739524D01*
X159604811Y-95621172D01*
X159604802Y-95621169D01*
X159369616Y-95540429D01*
X159124335Y-95499500D01*
X158875665Y-95499500D01*
X158630383Y-95540429D01*
X158395197Y-95621169D01*
X158395188Y-95621172D01*
X158176493Y-95739524D01*
X157980257Y-95892261D01*
X157811833Y-96075217D01*
X157675826Y-96283393D01*
X157575936Y-96511118D01*
X157514892Y-96752175D01*
X157514890Y-96752187D01*
X157494357Y-96999994D01*
X100500500Y-96999994D01*
X100500500Y-93999994D01*
X116494859Y-93999994D01*
X116494859Y-94000005D01*
X116515385Y-94247729D01*
X116515387Y-94247738D01*
X116576412Y-94488717D01*
X116676266Y-94716364D01*
X116776564Y-94869882D01*
X117517037Y-94129409D01*
X117534075Y-94192993D01*
X117599901Y-94307007D01*
X117692993Y-94400099D01*
X117807007Y-94465925D01*
X117870590Y-94482962D01*
X117129942Y-95223609D01*
X117176768Y-95260055D01*
X117176770Y-95260056D01*
X117395385Y-95378364D01*
X117395396Y-95378369D01*
X117630506Y-95459083D01*
X117875707Y-95500000D01*
X118124293Y-95500000D01*
X118369493Y-95459083D01*
X118604603Y-95378369D01*
X118604614Y-95378364D01*
X118823228Y-95260057D01*
X118823231Y-95260055D01*
X118870056Y-95223609D01*
X118129409Y-94482962D01*
X118192993Y-94465925D01*
X118307007Y-94400099D01*
X118400099Y-94307007D01*
X118465925Y-94192993D01*
X118482962Y-94129410D01*
X119223434Y-94869882D01*
X119323731Y-94716369D01*
X119423587Y-94488717D01*
X119484612Y-94247738D01*
X119484614Y-94247729D01*
X119505141Y-94000005D01*
X119505141Y-93999994D01*
X119484614Y-93752270D01*
X119484612Y-93752261D01*
X119423587Y-93511282D01*
X119323731Y-93283630D01*
X119223434Y-93130116D01*
X118482962Y-93870589D01*
X118465925Y-93807007D01*
X118400099Y-93692993D01*
X118307007Y-93599901D01*
X118192993Y-93534075D01*
X118129410Y-93517037D01*
X118870057Y-92776390D01*
X118870056Y-92776389D01*
X118823229Y-92739943D01*
X118604614Y-92621635D01*
X118604603Y-92621630D01*
X118369493Y-92540916D01*
X118124293Y-92500000D01*
X117875707Y-92500000D01*
X117630506Y-92540916D01*
X117395396Y-92621630D01*
X117395390Y-92621632D01*
X117176761Y-92739949D01*
X117129942Y-92776388D01*
X117129942Y-92776390D01*
X117870590Y-93517037D01*
X117807007Y-93534075D01*
X117692993Y-93599901D01*
X117599901Y-93692993D01*
X117534075Y-93807007D01*
X117517037Y-93870589D01*
X116776564Y-93130116D01*
X116676267Y-93283632D01*
X116576412Y-93511282D01*
X116515387Y-93752261D01*
X116515385Y-93752270D01*
X116494859Y-93999994D01*
X100500500Y-93999994D01*
X100500500Y-87999994D01*
X116494357Y-87999994D01*
X116494357Y-88000005D01*
X116514890Y-88247812D01*
X116514892Y-88247824D01*
X116575936Y-88488881D01*
X116675826Y-88716606D01*
X116811833Y-88924782D01*
X116811836Y-88924785D01*
X116980256Y-89107738D01*
X117176491Y-89260474D01*
X117395190Y-89378828D01*
X117630386Y-89459571D01*
X117875665Y-89500500D01*
X118124335Y-89500500D01*
X118369614Y-89459571D01*
X118604810Y-89378828D01*
X118823509Y-89260474D01*
X119019744Y-89107738D01*
X119188164Y-88924785D01*
X119324173Y-88716607D01*
X119424063Y-88488881D01*
X119485108Y-88247821D01*
X119505643Y-88000000D01*
X119505643Y-87999994D01*
X132494357Y-87999994D01*
X132494357Y-88000005D01*
X132514890Y-88247812D01*
X132514892Y-88247824D01*
X132575936Y-88488881D01*
X132675826Y-88716606D01*
X132811833Y-88924782D01*
X132811836Y-88924785D01*
X132980256Y-89107738D01*
X133176491Y-89260474D01*
X133395190Y-89378828D01*
X133407292Y-89382982D01*
X133464307Y-89423365D01*
X133490439Y-89488164D01*
X133477391Y-89556804D01*
X133429304Y-89607493D01*
X133407300Y-89617543D01*
X133395398Y-89621629D01*
X133395390Y-89621632D01*
X133176761Y-89739949D01*
X133129942Y-89776388D01*
X133129942Y-89776390D01*
X133870590Y-90517037D01*
X133807007Y-90534075D01*
X133692993Y-90599901D01*
X133599901Y-90692993D01*
X133534075Y-90807007D01*
X133517037Y-90870589D01*
X132776564Y-90130116D01*
X132676267Y-90283632D01*
X132576412Y-90511282D01*
X132515387Y-90752261D01*
X132515385Y-90752270D01*
X132494859Y-90999994D01*
X132494859Y-91000005D01*
X132515385Y-91247729D01*
X132515387Y-91247738D01*
X132576412Y-91488717D01*
X132676266Y-91716364D01*
X132776564Y-91869882D01*
X133517037Y-91129409D01*
X133534075Y-91192993D01*
X133599901Y-91307007D01*
X133692993Y-91400099D01*
X133807007Y-91465925D01*
X133870590Y-91482962D01*
X133129942Y-92223609D01*
X133176768Y-92260055D01*
X133176770Y-92260056D01*
X133395385Y-92378364D01*
X133395396Y-92378369D01*
X133407294Y-92382454D01*
X133464309Y-92422839D01*
X133490440Y-92487639D01*
X133477389Y-92556279D01*
X133429300Y-92606967D01*
X133407296Y-92617016D01*
X133395191Y-92621171D01*
X133395188Y-92621172D01*
X133176493Y-92739524D01*
X132980257Y-92892261D01*
X132811833Y-93075217D01*
X132675826Y-93283393D01*
X132575936Y-93511118D01*
X132514892Y-93752175D01*
X132514890Y-93752187D01*
X132494357Y-93999994D01*
X132494357Y-94000005D01*
X132514890Y-94247812D01*
X132514892Y-94247824D01*
X132575936Y-94488881D01*
X132675826Y-94716606D01*
X132811833Y-94924782D01*
X132811836Y-94924785D01*
X132980256Y-95107738D01*
X133176491Y-95260474D01*
X133176493Y-95260475D01*
X133394332Y-95378364D01*
X133395190Y-95378828D01*
X133614141Y-95453994D01*
X133628964Y-95459083D01*
X133630386Y-95459571D01*
X133875665Y-95500500D01*
X134124335Y-95500500D01*
X134369614Y-95459571D01*
X134604810Y-95378828D01*
X134823509Y-95260474D01*
X135019744Y-95107738D01*
X135188164Y-94924785D01*
X135324173Y-94716607D01*
X135424063Y-94488881D01*
X135485108Y-94247821D01*
X135505643Y-94000000D01*
X135499410Y-93924782D01*
X135485109Y-93752187D01*
X135485107Y-93752175D01*
X135424063Y-93511118D01*
X135324173Y-93283393D01*
X135188166Y-93075217D01*
X135118928Y-93000005D01*
X135019744Y-92892262D01*
X134823509Y-92739526D01*
X134823507Y-92739525D01*
X134823506Y-92739524D01*
X134604811Y-92621172D01*
X134604802Y-92621169D01*
X134592705Y-92617016D01*
X134535690Y-92576631D01*
X134509559Y-92511831D01*
X134522610Y-92443191D01*
X134570699Y-92392504D01*
X134592707Y-92382453D01*
X134604608Y-92378367D01*
X134604614Y-92378364D01*
X134823228Y-92260057D01*
X134823231Y-92260055D01*
X134870056Y-92223609D01*
X134129409Y-91482962D01*
X134192993Y-91465925D01*
X134307007Y-91400099D01*
X134400099Y-91307007D01*
X134465925Y-91192993D01*
X134482962Y-91129410D01*
X135223434Y-91869882D01*
X135323731Y-91716369D01*
X135423587Y-91488717D01*
X135484612Y-91247738D01*
X135484614Y-91247729D01*
X135505141Y-91000005D01*
X135505141Y-90999994D01*
X135484614Y-90752270D01*
X135484612Y-90752261D01*
X135423587Y-90511282D01*
X135323731Y-90283630D01*
X135223434Y-90130116D01*
X134482962Y-90870589D01*
X134465925Y-90807007D01*
X134400099Y-90692993D01*
X134307007Y-90599901D01*
X134192993Y-90534075D01*
X134129410Y-90517037D01*
X134870057Y-89776390D01*
X134870056Y-89776389D01*
X134823229Y-89739943D01*
X134604614Y-89621635D01*
X134604605Y-89621631D01*
X134592701Y-89617544D01*
X134535687Y-89577156D01*
X134509559Y-89512356D01*
X134522612Y-89443716D01*
X134564106Y-89399983D01*
X139824500Y-89399983D01*
X139824500Y-90800001D01*
X139824501Y-90800018D01*
X139835000Y-90902796D01*
X139835001Y-90902799D01*
X139889024Y-91065826D01*
X139890186Y-91069334D01*
X139982288Y-91218656D01*
X140106344Y-91342712D01*
X140255666Y-91434814D01*
X140422203Y-91489999D01*
X140524991Y-91500500D01*
X141275008Y-91500499D01*
X141275016Y-91500498D01*
X141275019Y-91500498D01*
X141331302Y-91494748D01*
X141377797Y-91489999D01*
X141544334Y-91434814D01*
X141693656Y-91342712D01*
X141817712Y-91218656D01*
X141909814Y-91069334D01*
X141964999Y-90902797D01*
X141975500Y-90800009D01*
X141975500Y-90799986D01*
X142775001Y-90799986D01*
X142785494Y-90902697D01*
X142840641Y-91069119D01*
X142840643Y-91069124D01*
X142932684Y-91218345D01*
X143056654Y-91342315D01*
X143205875Y-91434356D01*
X143205880Y-91434358D01*
X143372302Y-91489505D01*
X143372309Y-91489506D01*
X143475019Y-91499999D01*
X143599999Y-91499999D01*
X144100000Y-91499999D01*
X144224972Y-91499999D01*
X144224986Y-91499998D01*
X144327697Y-91489505D01*
X144494119Y-91434358D01*
X144494124Y-91434356D01*
X144643345Y-91342315D01*
X144767315Y-91218345D01*
X144859356Y-91069124D01*
X144859358Y-91069119D01*
X144914505Y-90902697D01*
X144914506Y-90902690D01*
X144924999Y-90799986D01*
X144925000Y-90799973D01*
X144925000Y-90350000D01*
X144100000Y-90350000D01*
X144100000Y-91499999D01*
X143599999Y-91499999D01*
X143600000Y-91499998D01*
X143600000Y-90350000D01*
X142775001Y-90350000D01*
X142775001Y-90799986D01*
X141975500Y-90799986D01*
X141975499Y-89400013D01*
X142775000Y-89400013D01*
X142775000Y-89850000D01*
X143600000Y-89850000D01*
X144100000Y-89850000D01*
X144924999Y-89850000D01*
X144924999Y-89400028D01*
X144924998Y-89400013D01*
X144914505Y-89297302D01*
X144859358Y-89130880D01*
X144859356Y-89130875D01*
X144767315Y-88981654D01*
X144643345Y-88857684D01*
X144494124Y-88765643D01*
X144494119Y-88765641D01*
X144327697Y-88710494D01*
X144327690Y-88710493D01*
X144224986Y-88700000D01*
X144100000Y-88700000D01*
X144100000Y-89850000D01*
X143600000Y-89850000D01*
X143600000Y-88700000D01*
X143475027Y-88700000D01*
X143475012Y-88700001D01*
X143372302Y-88710494D01*
X143205880Y-88765641D01*
X143205875Y-88765643D01*
X143056654Y-88857684D01*
X142932684Y-88981654D01*
X142840643Y-89130875D01*
X142840641Y-89130880D01*
X142785494Y-89297302D01*
X142785493Y-89297309D01*
X142775000Y-89400013D01*
X141975499Y-89400013D01*
X141975499Y-89399992D01*
X141964999Y-89297203D01*
X141909814Y-89130666D01*
X141817712Y-88981344D01*
X141693656Y-88857288D01*
X141544334Y-88765186D01*
X141377797Y-88710001D01*
X141377795Y-88710000D01*
X141275010Y-88699500D01*
X140524998Y-88699500D01*
X140524980Y-88699501D01*
X140422203Y-88710000D01*
X140422200Y-88710001D01*
X140255668Y-88765185D01*
X140255663Y-88765187D01*
X140106342Y-88857289D01*
X139982289Y-88981342D01*
X139890187Y-89130663D01*
X139890185Y-89130668D01*
X139890115Y-89130880D01*
X139835001Y-89297203D01*
X139835001Y-89297204D01*
X139835000Y-89297204D01*
X139824500Y-89399983D01*
X134564106Y-89399983D01*
X134570703Y-89393030D01*
X134592705Y-89382983D01*
X134604810Y-89378828D01*
X134823509Y-89260474D01*
X135019744Y-89107738D01*
X135188164Y-88924785D01*
X135324173Y-88716607D01*
X135424063Y-88488881D01*
X135485108Y-88247821D01*
X135505643Y-88000000D01*
X135499410Y-87924782D01*
X135485109Y-87752187D01*
X135485107Y-87752175D01*
X135424063Y-87511118D01*
X135324173Y-87283393D01*
X135188166Y-87075217D01*
X135118928Y-87000005D01*
X135118918Y-86999994D01*
X149494357Y-86999994D01*
X149494357Y-87000005D01*
X149514890Y-87247812D01*
X149514892Y-87247824D01*
X149575936Y-87488881D01*
X149675826Y-87716606D01*
X149811833Y-87924782D01*
X149811836Y-87924785D01*
X149980256Y-88107738D01*
X150176491Y-88260474D01*
X150395190Y-88378828D01*
X150405682Y-88382430D01*
X150406524Y-88382719D01*
X150463539Y-88423106D01*
X150489668Y-88487906D01*
X150476615Y-88556546D01*
X150428526Y-88607233D01*
X150406524Y-88617281D01*
X150395191Y-88621171D01*
X150395188Y-88621172D01*
X150176493Y-88739524D01*
X149980257Y-88892261D01*
X149811833Y-89075217D01*
X149675826Y-89283393D01*
X149575936Y-89511118D01*
X149514892Y-89752175D01*
X149514890Y-89752187D01*
X149494357Y-89999994D01*
X149494357Y-90000005D01*
X149514890Y-90247812D01*
X149514892Y-90247824D01*
X149575936Y-90488881D01*
X149675826Y-90716606D01*
X149811833Y-90924782D01*
X149811836Y-90924785D01*
X149980256Y-91107738D01*
X150176491Y-91260474D01*
X150395190Y-91378828D01*
X150405682Y-91382430D01*
X150406524Y-91382719D01*
X150463539Y-91423106D01*
X150489668Y-91487906D01*
X150476615Y-91556546D01*
X150428526Y-91607233D01*
X150406524Y-91617281D01*
X150395191Y-91621171D01*
X150395188Y-91621172D01*
X150176493Y-91739524D01*
X149980257Y-91892261D01*
X149811833Y-92075217D01*
X149675826Y-92283393D01*
X149575936Y-92511118D01*
X149514892Y-92752175D01*
X149514890Y-92752187D01*
X149494357Y-92999994D01*
X149494357Y-93000005D01*
X149514890Y-93247812D01*
X149514892Y-93247824D01*
X149575936Y-93488881D01*
X149675826Y-93716606D01*
X149811833Y-93924782D01*
X149811836Y-93924785D01*
X149980256Y-94107738D01*
X150176491Y-94260474D01*
X150395190Y-94378828D01*
X150630386Y-94459571D01*
X150875665Y-94500500D01*
X151124335Y-94500500D01*
X151369614Y-94459571D01*
X151604810Y-94378828D01*
X151823509Y-94260474D01*
X152019744Y-94107738D01*
X152188164Y-93924785D01*
X152324173Y-93716607D01*
X152424063Y-93488881D01*
X152485108Y-93247821D01*
X152485109Y-93247812D01*
X152505643Y-93000005D01*
X152505643Y-92999994D01*
X152485109Y-92752187D01*
X152485107Y-92752175D01*
X152424063Y-92511118D01*
X152324173Y-92283393D01*
X152188166Y-92075217D01*
X152166557Y-92051744D01*
X152019744Y-91892262D01*
X151823509Y-91739526D01*
X151823507Y-91739525D01*
X151823506Y-91739524D01*
X151604811Y-91621172D01*
X151604802Y-91621169D01*
X151593477Y-91617281D01*
X151536462Y-91576896D01*
X151510331Y-91512096D01*
X151523382Y-91443456D01*
X151571471Y-91392768D01*
X151593477Y-91382719D01*
X151597235Y-91381428D01*
X151604810Y-91378828D01*
X151823509Y-91260474D01*
X152019744Y-91107738D01*
X152188164Y-90924785D01*
X152324173Y-90716607D01*
X152424063Y-90488881D01*
X152485108Y-90247821D01*
X152485109Y-90247812D01*
X152505643Y-90000005D01*
X152505643Y-89999994D01*
X152485109Y-89752187D01*
X152485107Y-89752175D01*
X152424063Y-89511118D01*
X152324173Y-89283393D01*
X152188166Y-89075217D01*
X152102035Y-88981654D01*
X152019744Y-88892262D01*
X151823509Y-88739526D01*
X151823507Y-88739525D01*
X151823506Y-88739524D01*
X151604811Y-88621172D01*
X151604802Y-88621169D01*
X151593477Y-88617281D01*
X151536462Y-88576896D01*
X151510331Y-88512096D01*
X151523382Y-88443456D01*
X151571471Y-88392768D01*
X151593477Y-88382719D01*
X151597235Y-88381428D01*
X151604810Y-88378828D01*
X151823509Y-88260474D01*
X152019744Y-88107738D01*
X152188164Y-87924785D01*
X152324173Y-87716607D01*
X152424063Y-87488881D01*
X152485108Y-87247821D01*
X152485109Y-87247812D01*
X152505643Y-87000005D01*
X152505643Y-86999994D01*
X152485109Y-86752187D01*
X152485107Y-86752175D01*
X152424063Y-86511118D01*
X152324173Y-86283393D01*
X152188166Y-86075217D01*
X152166557Y-86051744D01*
X152019744Y-85892262D01*
X151823509Y-85739526D01*
X151823507Y-85739525D01*
X151823506Y-85739524D01*
X151604811Y-85621172D01*
X151604802Y-85621169D01*
X151369616Y-85540429D01*
X151124335Y-85499500D01*
X150875665Y-85499500D01*
X150630383Y-85540429D01*
X150395197Y-85621169D01*
X150395188Y-85621172D01*
X150176493Y-85739524D01*
X149980257Y-85892261D01*
X149811833Y-86075217D01*
X149675826Y-86283393D01*
X149575936Y-86511118D01*
X149514892Y-86752175D01*
X149514890Y-86752187D01*
X149494357Y-86999994D01*
X135118918Y-86999994D01*
X135019744Y-86892262D01*
X134823509Y-86739526D01*
X134823507Y-86739525D01*
X134823506Y-86739524D01*
X134604811Y-86621172D01*
X134604802Y-86621169D01*
X134369616Y-86540429D01*
X134124335Y-86499500D01*
X133875665Y-86499500D01*
X133630383Y-86540429D01*
X133395197Y-86621169D01*
X133395188Y-86621172D01*
X133176493Y-86739524D01*
X132980257Y-86892261D01*
X132811833Y-87075217D01*
X132675826Y-87283393D01*
X132575936Y-87511118D01*
X132514892Y-87752175D01*
X132514890Y-87752187D01*
X132494357Y-87999994D01*
X119505643Y-87999994D01*
X119499410Y-87924782D01*
X119485109Y-87752187D01*
X119485107Y-87752175D01*
X119424063Y-87511118D01*
X119324173Y-87283393D01*
X119188166Y-87075217D01*
X119118928Y-87000005D01*
X119019744Y-86892262D01*
X118823509Y-86739526D01*
X118823507Y-86739525D01*
X118823506Y-86739524D01*
X118604811Y-86621172D01*
X118604802Y-86621169D01*
X118369616Y-86540429D01*
X118124335Y-86499500D01*
X117875665Y-86499500D01*
X117630383Y-86540429D01*
X117395197Y-86621169D01*
X117395188Y-86621172D01*
X117176493Y-86739524D01*
X116980257Y-86892261D01*
X116811833Y-87075217D01*
X116675826Y-87283393D01*
X116575936Y-87511118D01*
X116514892Y-87752175D01*
X116514890Y-87752187D01*
X116494357Y-87999994D01*
X100500500Y-87999994D01*
X100500500Y-82999994D01*
X157494357Y-82999994D01*
X157494357Y-83000005D01*
X157514890Y-83247812D01*
X157514892Y-83247824D01*
X157575936Y-83488881D01*
X157675826Y-83716606D01*
X157811833Y-83924782D01*
X157811836Y-83924785D01*
X157980256Y-84107738D01*
X158176491Y-84260474D01*
X158395190Y-84378828D01*
X158630386Y-84459571D01*
X158875665Y-84500500D01*
X159124335Y-84500500D01*
X159369614Y-84459571D01*
X159604810Y-84378828D01*
X159823509Y-84260474D01*
X160019744Y-84107738D01*
X160188164Y-83924785D01*
X160324173Y-83716607D01*
X160424063Y-83488881D01*
X160485108Y-83247821D01*
X160505643Y-83000000D01*
X160505643Y-82999994D01*
X195494357Y-82999994D01*
X195494357Y-83000005D01*
X195514890Y-83247812D01*
X195514892Y-83247824D01*
X195575936Y-83488881D01*
X195675826Y-83716606D01*
X195811833Y-83924782D01*
X195811836Y-83924785D01*
X195980256Y-84107738D01*
X196176491Y-84260474D01*
X196395190Y-84378828D01*
X196630386Y-84459571D01*
X196875665Y-84500500D01*
X197124335Y-84500500D01*
X197369614Y-84459571D01*
X197604810Y-84378828D01*
X197823509Y-84260474D01*
X198019744Y-84107738D01*
X198188164Y-83924785D01*
X198324173Y-83716607D01*
X198424063Y-83488881D01*
X198485108Y-83247821D01*
X198505643Y-83000000D01*
X198485108Y-82752179D01*
X198424063Y-82511119D01*
X198401451Y-82459570D01*
X198324173Y-82283393D01*
X198188166Y-82075217D01*
X198166557Y-82051744D01*
X198019744Y-81892262D01*
X197823509Y-81739526D01*
X197823507Y-81739525D01*
X197823506Y-81739524D01*
X197604811Y-81621172D01*
X197604802Y-81621169D01*
X197369616Y-81540429D01*
X197124335Y-81499500D01*
X196875665Y-81499500D01*
X196630383Y-81540429D01*
X196395197Y-81621169D01*
X196395188Y-81621172D01*
X196176493Y-81739524D01*
X195980257Y-81892261D01*
X195811833Y-82075217D01*
X195675826Y-82283393D01*
X195575936Y-82511118D01*
X195514892Y-82752175D01*
X195514890Y-82752187D01*
X195494357Y-82999994D01*
X160505643Y-82999994D01*
X160485108Y-82752179D01*
X160424063Y-82511119D01*
X160401451Y-82459570D01*
X160324173Y-82283393D01*
X160188166Y-82075217D01*
X160166557Y-82051744D01*
X160019744Y-81892262D01*
X159823509Y-81739526D01*
X159823507Y-81739525D01*
X159823506Y-81739524D01*
X159604811Y-81621172D01*
X159604802Y-81621169D01*
X159369616Y-81540429D01*
X159124335Y-81499500D01*
X158875665Y-81499500D01*
X158630383Y-81540429D01*
X158395197Y-81621169D01*
X158395188Y-81621172D01*
X158176493Y-81739524D01*
X157980257Y-81892261D01*
X157811833Y-82075217D01*
X157675826Y-82283393D01*
X157575936Y-82511118D01*
X157514892Y-82752175D01*
X157514890Y-82752187D01*
X157494357Y-82999994D01*
X100500500Y-82999994D01*
X100500500Y-80999994D01*
X149494357Y-80999994D01*
X149494357Y-81000005D01*
X149514890Y-81247812D01*
X149514892Y-81247824D01*
X149575936Y-81488881D01*
X149675826Y-81716606D01*
X149811833Y-81924782D01*
X149811836Y-81924785D01*
X149980256Y-82107738D01*
X150176491Y-82260474D01*
X150395190Y-82378828D01*
X150630386Y-82459571D01*
X150875665Y-82500500D01*
X151124335Y-82500500D01*
X151369614Y-82459571D01*
X151604810Y-82378828D01*
X151823509Y-82260474D01*
X152019744Y-82107738D01*
X152188164Y-81924785D01*
X152324173Y-81716607D01*
X152424063Y-81488881D01*
X152485108Y-81247821D01*
X152505643Y-81000000D01*
X152485108Y-80752179D01*
X152424063Y-80511119D01*
X152324173Y-80283393D01*
X152188166Y-80075217D01*
X152166557Y-80051744D01*
X152019744Y-79892262D01*
X151823509Y-79739526D01*
X151823507Y-79739525D01*
X151823506Y-79739524D01*
X151604811Y-79621172D01*
X151604802Y-79621169D01*
X151369616Y-79540429D01*
X151124335Y-79499500D01*
X150875665Y-79499500D01*
X150630383Y-79540429D01*
X150395197Y-79621169D01*
X150395188Y-79621172D01*
X150176493Y-79739524D01*
X149980257Y-79892261D01*
X149811833Y-80075217D01*
X149675826Y-80283393D01*
X149575936Y-80511118D01*
X149514892Y-80752175D01*
X149514890Y-80752187D01*
X149494357Y-80999994D01*
X100500500Y-80999994D01*
X100500500Y-56296608D01*
X144999500Y-56296608D01*
X144999500Y-74428391D01*
X145033608Y-74555687D01*
X145066554Y-74612750D01*
X145099500Y-74669814D01*
X145192686Y-74763000D01*
X145306814Y-74828892D01*
X145434108Y-74863000D01*
X145434110Y-74863000D01*
X156565890Y-74863000D01*
X156565892Y-74863000D01*
X156693186Y-74828892D01*
X156807314Y-74763000D01*
X156900500Y-74669814D01*
X156966392Y-74555686D01*
X157000500Y-74428392D01*
X157000500Y-63299995D01*
X190314953Y-63299995D01*
X190314953Y-63300004D01*
X190335113Y-63569026D01*
X190335113Y-63569028D01*
X190395142Y-63832033D01*
X190395148Y-63832052D01*
X190493709Y-64083181D01*
X190493708Y-64083181D01*
X190628602Y-64316822D01*
X190682294Y-64384151D01*
X191404152Y-63662292D01*
X191411049Y-63678942D01*
X191498599Y-63809970D01*
X191610030Y-63921401D01*
X191741058Y-64008951D01*
X191757705Y-64015846D01*
X191034848Y-64738702D01*
X191217483Y-64863220D01*
X191217485Y-64863221D01*
X191460539Y-64980269D01*
X191460537Y-64980269D01*
X191718337Y-65059790D01*
X191718343Y-65059792D01*
X191985101Y-65099999D01*
X191985110Y-65100000D01*
X192254890Y-65100000D01*
X192254898Y-65099999D01*
X192521656Y-65059792D01*
X192521662Y-65059790D01*
X192779458Y-64980270D01*
X192997927Y-64875061D01*
X193066869Y-64863709D01*
X193131003Y-64891431D01*
X193169969Y-64949426D01*
X193171394Y-65019281D01*
X193167158Y-65032081D01*
X193082583Y-65247578D01*
X193082578Y-65247590D01*
X193082576Y-65247597D01*
X193024197Y-65503374D01*
X193024196Y-65503379D01*
X193004592Y-65764995D01*
X193004592Y-65765004D01*
X193024196Y-66026620D01*
X193024197Y-66026625D01*
X193082576Y-66282402D01*
X193082582Y-66282421D01*
X193178432Y-66526643D01*
X193284256Y-66709937D01*
X193300729Y-66777837D01*
X193277876Y-66843864D01*
X193222955Y-66887055D01*
X193153402Y-66893696D01*
X193107017Y-66874390D01*
X193022526Y-66816784D01*
X193022516Y-66816778D01*
X192779460Y-66699730D01*
X192779462Y-66699730D01*
X192521662Y-66620209D01*
X192521656Y-66620207D01*
X192254898Y-66580000D01*
X191985101Y-66580000D01*
X191718343Y-66620207D01*
X191718337Y-66620209D01*
X191460538Y-66699730D01*
X191217485Y-66816778D01*
X191217476Y-66816783D01*
X191034848Y-66941296D01*
X191757705Y-67664153D01*
X191741058Y-67671049D01*
X191610030Y-67758599D01*
X191498599Y-67870030D01*
X191411049Y-68001058D01*
X191404153Y-68017706D01*
X190682295Y-67295848D01*
X190628600Y-67363180D01*
X190493709Y-67596818D01*
X190395148Y-67847947D01*
X190395142Y-67847966D01*
X190335113Y-68110971D01*
X190335113Y-68110973D01*
X190314953Y-68379995D01*
X190314953Y-68380004D01*
X190335113Y-68649026D01*
X190335113Y-68649028D01*
X190395142Y-68912033D01*
X190395148Y-68912052D01*
X190493709Y-69163181D01*
X190493708Y-69163181D01*
X190628602Y-69396822D01*
X190682294Y-69464151D01*
X191404152Y-68742292D01*
X191411049Y-68758942D01*
X191498599Y-68889970D01*
X191610030Y-69001401D01*
X191741058Y-69088951D01*
X191757705Y-69095846D01*
X191034848Y-69818702D01*
X191217483Y-69943220D01*
X191217485Y-69943221D01*
X191460539Y-70060269D01*
X191460537Y-70060269D01*
X191718337Y-70139790D01*
X191718343Y-70139792D01*
X191985101Y-70179999D01*
X191985110Y-70180000D01*
X192254890Y-70180000D01*
X192254898Y-70179999D01*
X192521656Y-70139792D01*
X192521662Y-70139790D01*
X192779461Y-70060269D01*
X193022521Y-69943218D01*
X193205150Y-69818702D01*
X192482294Y-69095846D01*
X192498942Y-69088951D01*
X192629970Y-69001401D01*
X192741401Y-68889970D01*
X192828951Y-68758942D01*
X192835846Y-68742294D01*
X193557703Y-69464151D01*
X193557704Y-69464150D01*
X193611393Y-69396828D01*
X193611400Y-69396817D01*
X193746290Y-69163181D01*
X193844851Y-68912052D01*
X193844857Y-68912033D01*
X193904886Y-68649028D01*
X193904886Y-68649026D01*
X193925047Y-68380004D01*
X193925047Y-68379995D01*
X193904886Y-68110973D01*
X193904886Y-68110971D01*
X193844857Y-67847966D01*
X193844851Y-67847947D01*
X193746290Y-67596818D01*
X193746291Y-67596818D01*
X193632961Y-67400527D01*
X193616488Y-67332627D01*
X193639340Y-67266600D01*
X193694261Y-67223410D01*
X193763815Y-67216768D01*
X193810197Y-67236071D01*
X193882296Y-67285228D01*
X193882301Y-67285230D01*
X193882302Y-67285231D01*
X193882303Y-67285232D01*
X193980721Y-67332627D01*
X194118673Y-67399061D01*
X194118674Y-67399061D01*
X194118677Y-67399063D01*
X194369385Y-67476396D01*
X194628818Y-67515500D01*
X194891182Y-67515500D01*
X195150615Y-67476396D01*
X195401323Y-67399063D01*
X195436056Y-67382336D01*
X195504994Y-67370985D01*
X195569128Y-67398706D01*
X195608094Y-67456701D01*
X195609520Y-67526556D01*
X195597243Y-67556056D01*
X195573708Y-67596820D01*
X195475148Y-67847947D01*
X195475142Y-67847966D01*
X195415113Y-68110971D01*
X195415113Y-68110973D01*
X195394953Y-68379995D01*
X195394953Y-68380004D01*
X195415113Y-68649026D01*
X195415113Y-68649028D01*
X195475142Y-68912033D01*
X195475148Y-68912052D01*
X195573709Y-69163181D01*
X195573708Y-69163181D01*
X195708602Y-69396822D01*
X195762294Y-69464151D01*
X196484152Y-68742293D01*
X196491049Y-68758942D01*
X196578599Y-68889970D01*
X196690030Y-69001401D01*
X196821058Y-69088951D01*
X196837705Y-69095846D01*
X196114848Y-69818702D01*
X196297483Y-69943220D01*
X196297485Y-69943221D01*
X196540539Y-70060269D01*
X196540537Y-70060269D01*
X196798337Y-70139790D01*
X196798343Y-70139792D01*
X197065101Y-70179999D01*
X197065110Y-70180000D01*
X197334890Y-70180000D01*
X197334898Y-70179999D01*
X197601656Y-70139792D01*
X197601662Y-70139790D01*
X197859461Y-70060269D01*
X198102521Y-69943218D01*
X198285150Y-69818702D01*
X197562294Y-69095846D01*
X197578942Y-69088951D01*
X197709970Y-69001401D01*
X197821401Y-68889970D01*
X197908951Y-68758942D01*
X197915846Y-68742294D01*
X198637703Y-69464151D01*
X198637704Y-69464150D01*
X198691393Y-69396828D01*
X198691400Y-69396817D01*
X198826290Y-69163181D01*
X198924851Y-68912052D01*
X198924857Y-68912033D01*
X198984886Y-68649028D01*
X198984886Y-68649026D01*
X199005047Y-68380004D01*
X199005047Y-68379995D01*
X198984886Y-68110973D01*
X198984886Y-68110971D01*
X198924857Y-67847966D01*
X198924851Y-67847947D01*
X198826290Y-67596818D01*
X198826291Y-67596818D01*
X198691397Y-67363177D01*
X198637704Y-67295847D01*
X197915846Y-68017705D01*
X197908951Y-68001058D01*
X197821401Y-67870030D01*
X197709970Y-67758599D01*
X197578942Y-67671049D01*
X197562293Y-67664153D01*
X198285150Y-66941296D01*
X198102517Y-66816779D01*
X198102516Y-66816778D01*
X197859460Y-66699730D01*
X197859462Y-66699730D01*
X197601662Y-66620209D01*
X197601656Y-66620207D01*
X197334898Y-66580000D01*
X197065101Y-66580000D01*
X196798343Y-66620207D01*
X196798337Y-66620209D01*
X196540544Y-66699728D01*
X196488711Y-66724690D01*
X196419769Y-66736041D01*
X196355635Y-66708318D01*
X196316670Y-66650323D01*
X196315245Y-66580468D01*
X196327522Y-66550970D01*
X196341568Y-66526643D01*
X196437420Y-66282416D01*
X196495802Y-66026630D01*
X196515408Y-65765000D01*
X196495802Y-65503370D01*
X196437420Y-65247584D01*
X196397923Y-65146949D01*
X196391755Y-65077353D01*
X196424193Y-65015470D01*
X196484938Y-64980947D01*
X196549902Y-64983157D01*
X196798337Y-65059790D01*
X196798343Y-65059792D01*
X197065101Y-65099999D01*
X197065110Y-65100000D01*
X197334890Y-65100000D01*
X197334898Y-65099999D01*
X197601656Y-65059792D01*
X197601662Y-65059790D01*
X197859461Y-64980269D01*
X198102521Y-64863218D01*
X198285150Y-64738702D01*
X197562294Y-64015846D01*
X197578942Y-64008951D01*
X197709970Y-63921401D01*
X197821401Y-63809970D01*
X197908951Y-63678942D01*
X197915846Y-63662294D01*
X198637703Y-64384151D01*
X198637704Y-64384150D01*
X198691393Y-64316828D01*
X198691400Y-64316817D01*
X198826290Y-64083181D01*
X198924851Y-63832052D01*
X198924857Y-63832033D01*
X198984886Y-63569028D01*
X198984886Y-63569026D01*
X199005047Y-63300004D01*
X199005047Y-63299995D01*
X198984886Y-63030973D01*
X198984886Y-63030971D01*
X198924857Y-62767966D01*
X198924851Y-62767947D01*
X198826290Y-62516818D01*
X198826291Y-62516818D01*
X198691397Y-62283177D01*
X198637704Y-62215847D01*
X197915846Y-62937705D01*
X197908951Y-62921058D01*
X197821401Y-62790030D01*
X197709970Y-62678599D01*
X197578942Y-62591049D01*
X197562294Y-62584153D01*
X198285150Y-61861296D01*
X198102517Y-61736779D01*
X198102516Y-61736778D01*
X197859460Y-61619730D01*
X197859462Y-61619730D01*
X197601662Y-61540209D01*
X197601656Y-61540207D01*
X197334898Y-61500000D01*
X197065101Y-61500000D01*
X196798343Y-61540207D01*
X196798337Y-61540209D01*
X196540538Y-61619730D01*
X196297485Y-61736778D01*
X196297476Y-61736783D01*
X196114848Y-61861296D01*
X196837705Y-62584153D01*
X196821058Y-62591049D01*
X196690030Y-62678599D01*
X196578599Y-62790030D01*
X196491049Y-62921058D01*
X196484153Y-62937706D01*
X195762295Y-62215848D01*
X195708600Y-62283180D01*
X195573709Y-62516818D01*
X195475148Y-62767947D01*
X195475142Y-62767966D01*
X195415113Y-63030971D01*
X195415113Y-63030973D01*
X195394953Y-63299995D01*
X195394953Y-63300004D01*
X195415113Y-63569026D01*
X195415113Y-63569028D01*
X195475142Y-63832033D01*
X195475148Y-63832052D01*
X195524706Y-63958324D01*
X195530875Y-64027921D01*
X195498437Y-64089804D01*
X195437692Y-64124327D01*
X195372729Y-64122117D01*
X195267973Y-64089804D01*
X195150623Y-64053606D01*
X195150619Y-64053605D01*
X195150615Y-64053604D01*
X195025823Y-64034794D01*
X194891187Y-64014500D01*
X194891182Y-64014500D01*
X194628818Y-64014500D01*
X194628812Y-64014500D01*
X194467247Y-64038853D01*
X194369385Y-64053604D01*
X194369382Y-64053605D01*
X194369376Y-64053606D01*
X194118673Y-64130938D01*
X193921052Y-64226107D01*
X193852111Y-64237459D01*
X193787976Y-64209736D01*
X193749011Y-64151741D01*
X193747586Y-64081886D01*
X193751823Y-64069085D01*
X193844851Y-63832052D01*
X193844857Y-63832033D01*
X193904886Y-63569028D01*
X193904886Y-63569026D01*
X193925047Y-63300004D01*
X193925047Y-63299995D01*
X193904886Y-63030973D01*
X193904886Y-63030971D01*
X193844857Y-62767966D01*
X193844851Y-62767947D01*
X193746290Y-62516818D01*
X193746291Y-62516818D01*
X193611397Y-62283177D01*
X193557704Y-62215847D01*
X192835846Y-62937705D01*
X192828951Y-62921058D01*
X192741401Y-62790030D01*
X192629970Y-62678599D01*
X192498942Y-62591049D01*
X192482294Y-62584153D01*
X193205150Y-61861296D01*
X193022517Y-61736779D01*
X193022516Y-61736778D01*
X192779460Y-61619730D01*
X192779462Y-61619730D01*
X192521662Y-61540209D01*
X192521656Y-61540207D01*
X192254898Y-61500000D01*
X191985101Y-61500000D01*
X191718343Y-61540207D01*
X191718337Y-61540209D01*
X191460538Y-61619730D01*
X191217485Y-61736778D01*
X191217476Y-61736783D01*
X191034848Y-61861296D01*
X191757705Y-62584153D01*
X191741058Y-62591049D01*
X191610030Y-62678599D01*
X191498599Y-62790030D01*
X191411049Y-62921058D01*
X191404153Y-62937706D01*
X190682295Y-62215848D01*
X190628600Y-62283180D01*
X190493709Y-62516818D01*
X190395148Y-62767947D01*
X190395142Y-62767966D01*
X190335113Y-63030971D01*
X190335113Y-63030973D01*
X190314953Y-63299995D01*
X157000500Y-63299995D01*
X157000500Y-56296608D01*
X156966392Y-56169314D01*
X156900500Y-56055186D01*
X156807314Y-55962000D01*
X156750250Y-55929054D01*
X156693187Y-55896108D01*
X156629539Y-55879054D01*
X156565892Y-55862000D01*
X145565892Y-55862000D01*
X145434108Y-55862000D01*
X145306812Y-55896108D01*
X145192686Y-55962000D01*
X145192683Y-55962002D01*
X145099502Y-56055183D01*
X145099500Y-56055186D01*
X145033608Y-56169312D01*
X144999500Y-56296608D01*
X100500500Y-56296608D01*
X100500500Y-50624500D01*
X100520185Y-50557461D01*
X100572989Y-50511706D01*
X100624500Y-50500500D01*
X199375500Y-50500500D01*
X199442539Y-50520185D01*
G37*
%TD.AperFunction*%
%TD*%
M02*
