M48
; DRILL file {KiCad 8.0.5-dirty} date 2024-10-12T08:13:27-0400
; FORMAT={-:-/ absolute / metric / decimal}
; #@! TF.CreationDate,2024-10-12T08:13:27-04:00
; #@! TF.GenerationSoftware,Kicad,Pcbnew,8.0.5-dirty
; #@! TF.FileFunction,Plated,1,2,PTH
FMAT,2
METRIC
; #@! TA.AperFunction,Plated,PTH,ViaDrill
T1C0.500
; #@! TA.AperFunction,Plated,PTH,ComponentDrill
T2C0.800
; #@! TA.AperFunction,Plated,PTH,ComponentDrill
T3C1.000
; #@! TA.AperFunction,Plated,PTH,ComponentDrill
T4C1.100
; #@! TA.AperFunction,Plated,PTH,ComponentDrill
T5C1.200
; #@! TA.AperFunction,Plated,PTH,ComponentDrill
T6C1.500
; #@! TA.AperFunction,Plated,PTH,ComponentDrill
T7C1.600
%
G90
G05
T1
X144.3Y-102.0
X153.8Y-103.3
T2
X180.12Y-125.7
X180.12Y-133.2
X182.66Y-125.7
X182.66Y-133.2
X185.2Y-125.7
X185.2Y-133.2
T3
X118.0Y-88.0
X118.0Y-94.0
X134.0Y-88.0
X134.0Y-91.0
X134.0Y-94.0
X151.0Y-81.0
X151.0Y-87.0
X151.0Y-90.0
X151.0Y-93.0
X151.0Y-99.0
X159.0Y-83.0
X159.0Y-97.0
X197.0Y-83.0
X197.0Y-97.0
T4
X107.8Y-123.3
X107.8Y-125.8
T5
X109.4Y-137.1
X109.4Y-142.1
T6
X108.26Y-107.065
X194.76Y-65.765
T7
X105.62Y-104.6
X105.62Y-109.68
X110.7Y-104.6
X110.7Y-109.68
X192.12Y-63.3
X192.12Y-68.38
X197.2Y-63.3
X197.2Y-68.38
M30
