%TF.GenerationSoftware,KiCad,Pcbnew,8.0.5-dirty*%
%TF.CreationDate,2024-10-13T20:14:35-04:00*%
%TF.ProjectId,t41_2_power_amplifier,7434315f-325f-4706-9f77-65725f616d70,rev?*%
%TF.SameCoordinates,Original*%
%TF.FileFunction,Copper,L2,Bot*%
%TF.FilePolarity,Positive*%
%FSLAX46Y46*%
G04 Gerber Fmt 4.6, Leading zero omitted, Abs format (unit mm)*
G04 Created by KiCad (PCBNEW 8.0.5-dirty) date 2024-10-13 20:14:35*
%MOMM*%
%LPD*%
G01*
G04 APERTURE LIST*
G04 Aperture macros list*
%AMRoundRect*
0 Rectangle with rounded corners*
0 $1 Rounding radius*
0 $2 $3 $4 $5 $6 $7 $8 $9 X,Y pos of 4 corners*
0 Add a 4 corners polygon primitive as box body*
4,1,4,$2,$3,$4,$5,$6,$7,$8,$9,$2,$3,0*
0 Add four circle primitives for the rounded corners*
1,1,$1+$1,$2,$3*
1,1,$1+$1,$4,$5*
1,1,$1+$1,$6,$7*
1,1,$1+$1,$8,$9*
0 Add four rect primitives between the rounded corners*
20,1,$1+$1,$2,$3,$4,$5,0*
20,1,$1+$1,$4,$5,$6,$7,0*
20,1,$1+$1,$6,$7,$8,$9,0*
20,1,$1+$1,$8,$9,$2,$3,0*%
G04 Aperture macros list end*
%TA.AperFunction,ComponentPad*%
%ADD10C,2.000000*%
%TD*%
%TA.AperFunction,ComponentPad*%
%ADD11C,1.440000*%
%TD*%
%TA.AperFunction,ComponentPad*%
%ADD12C,7.500000*%
%TD*%
%TA.AperFunction,ComponentPad*%
%ADD13C,2.600000*%
%TD*%
%TA.AperFunction,ComponentPad*%
%ADD14C,2.500000*%
%TD*%
%TA.AperFunction,ComponentPad*%
%ADD15R,2.400000X2.400000*%
%TD*%
%TA.AperFunction,ComponentPad*%
%ADD16C,2.400000*%
%TD*%
%TA.AperFunction,ComponentPad*%
%ADD17C,2.100000*%
%TD*%
%TA.AperFunction,SMDPad,CuDef*%
%ADD18RoundRect,0.250000X0.650000X-0.325000X0.650000X0.325000X-0.650000X0.325000X-0.650000X-0.325000X0*%
%TD*%
%TA.AperFunction,SMDPad,CuDef*%
%ADD19RoundRect,0.250000X-0.650000X0.325000X-0.650000X-0.325000X0.650000X-0.325000X0.650000X0.325000X0*%
%TD*%
%TA.AperFunction,ViaPad*%
%ADD20C,1.000000*%
%TD*%
%TA.AperFunction,Conductor*%
%ADD21C,1.500000*%
%TD*%
%TA.AperFunction,Conductor*%
%ADD22C,1.000000*%
%TD*%
%TA.AperFunction,Conductor*%
%ADD23C,0.250000*%
%TD*%
G04 APERTURE END LIST*
D10*
%TO.P,T3,1,AA*%
%TO.N,GND*%
X127200000Y-87000000D03*
%TO.P,T3,2,AB*%
%TO.N,Net-(T3-AB)*%
X127200000Y-93000000D03*
%TO.P,T3,3,SA*%
%TO.N,Net-(T3-SA)*%
X143200000Y-93000000D03*
%TO.P,T3,4,SC*%
%TO.N,GND*%
X143200000Y-90000000D03*
%TO.P,T3,5,SB*%
%TO.N,Net-(T3-SB)*%
X143200000Y-87000000D03*
%TD*%
%TO.P,L2,1*%
%TO.N,Net-(Q3-D)*%
X151000000Y-87000000D03*
%TO.P,L2,2*%
%TO.N,/12V_OUT_FIL*%
X151000000Y-90000000D03*
%TO.P,L2,3*%
%TO.N,Net-(Q1-D)*%
X151000000Y-93000000D03*
%TD*%
%TO.P,T2,1,AA*%
%TO.N,Net-(Q3-D)*%
X159000000Y-83000000D03*
%TO.P,T2,2,AB*%
%TO.N,Net-(Q1-D)*%
X159000000Y-97000000D03*
%TO.P,T2,3,SA*%
%TO.N,GND*%
X197000000Y-97000000D03*
%TO.P,T2,4,SB*%
%TO.N,Net-(T2-SB)*%
X197000000Y-83000000D03*
%TD*%
D11*
%TO.P,R11,1,1*%
%TO.N,/8V*%
X134450000Y-77900000D03*
%TO.P,R11,2,2*%
%TO.N,Net-(C8-Pad2)*%
X134450000Y-75360000D03*
%TO.P,R11,3,3*%
%TO.N,GND*%
X134450000Y-72820000D03*
%TD*%
D12*
%TO.P,H4,1,1*%
%TO.N,GND*%
X195000000Y-55000000D03*
%TD*%
D11*
%TO.P,R17,1,1*%
%TO.N,/8V*%
X132700000Y-105550000D03*
%TO.P,R17,2,2*%
%TO.N,Net-(C7-Pad1)*%
X132700000Y-103010000D03*
%TO.P,R17,3,3*%
%TO.N,GND*%
X132700000Y-100470000D03*
%TD*%
D12*
%TO.P,H1,1,1*%
%TO.N,GND*%
X105000000Y-55000000D03*
%TD*%
%TO.P,H3,1,1*%
%TO.N,GND*%
X195000000Y-145000000D03*
%TD*%
D13*
%TO.P,J1,1*%
%TO.N,GND*%
X191650000Y-66120000D03*
X191650000Y-71200000D03*
X196730000Y-66120000D03*
X196730000Y-71200000D03*
D14*
%TO.P,J1,2*%
%TO.N,Net-(T2-SB)*%
X194290000Y-68585000D03*
%TD*%
D15*
%TO.P,J5,1,Pin_1*%
%TO.N,Net-(J5-Pin_1)*%
X107050000Y-127800000D03*
D16*
%TO.P,J5,2,Pin_2*%
%TO.N,GND*%
X107050000Y-132800000D03*
%TD*%
D13*
%TO.P,J2,1*%
%TO.N,GND*%
X103370000Y-66870000D03*
X103370000Y-71950000D03*
X108450000Y-66870000D03*
X108450000Y-71950000D03*
D14*
%TO.P,J2,2*%
%TO.N,Net-(J2-Pad2)*%
X106010000Y-69335000D03*
%TD*%
D17*
%TO.P,J3,1*%
%TO.N,Net-(E4-Pad1)*%
X105900000Y-117500000D03*
%TO.P,J3,2*%
%TO.N,GND*%
X105900000Y-120000000D03*
%TD*%
D12*
%TO.P,H2,1,1*%
%TO.N,GND*%
X105000000Y-145000000D03*
%TD*%
D18*
%TO.P,C1,1*%
%TO.N,/12V_OUT_FIL*%
X154650000Y-88500000D03*
%TO.P,C1,2*%
%TO.N,GND*%
X154650000Y-85550000D03*
%TD*%
D19*
%TO.P,C4,1*%
%TO.N,/12V_OUT_FIL*%
X154650000Y-91500000D03*
%TO.P,C4,2*%
%TO.N,GND*%
X154650000Y-94450000D03*
%TD*%
D20*
%TO.N,GND*%
X169400000Y-90700000D03*
X169400000Y-98000000D03*
X169400000Y-105600000D03*
X169200000Y-113700000D03*
X194300000Y-97000000D03*
X196200000Y-79700000D03*
X193700000Y-82200000D03*
X196900000Y-85300000D03*
X194700000Y-83200000D03*
X197200000Y-80700000D03*
X143200000Y-68300000D03*
X141400000Y-79900000D03*
X131800000Y-90100000D03*
X128800000Y-90100000D03*
X127300000Y-73400000D03*
X123700000Y-94800000D03*
X114100000Y-100200000D03*
X160900000Y-101800000D03*
X150800000Y-99700000D03*
X161500000Y-78400000D03*
X151300000Y-78300000D03*
X122500000Y-82600000D03*
X113300000Y-61900000D03*
X132900000Y-76600000D03*
X164500000Y-98800000D03*
X196900000Y-99900000D03*
X197000000Y-94200000D03*
X112200000Y-82500000D03*
X118400000Y-94900000D03*
X125600000Y-96400000D03*
X136900000Y-133200000D03*
X144900000Y-133200000D03*
X140900000Y-137300000D03*
X148500000Y-134100000D03*
X156600000Y-134100000D03*
X176600000Y-134800000D03*
X192300000Y-76700000D03*
X196200000Y-76700000D03*
X140300000Y-107600000D03*
X137500000Y-112000000D03*
X137500000Y-115400000D03*
X137200000Y-122200000D03*
X149600000Y-76000000D03*
X145100000Y-79300000D03*
X127500000Y-68700000D03*
X122500000Y-86700000D03*
X118450000Y-81950000D03*
X126550000Y-78100000D03*
X120450000Y-76800000D03*
X114900000Y-76700000D03*
X119350000Y-70450000D03*
X116850000Y-73650000D03*
X113300000Y-63300000D03*
X124700000Y-67750000D03*
%TO.N,/12V_OUT_FIL*%
X163650000Y-90000000D03*
X166000000Y-90000000D03*
X164800000Y-90000000D03*
%TO.N,GND*%
X151700000Y-84850000D03*
X167750000Y-125750000D03*
X110000000Y-148350000D03*
X112540000Y-91450000D03*
X163550000Y-113550000D03*
X149350000Y-100300000D03*
X190050000Y-51700000D03*
X150150000Y-103600000D03*
X156500000Y-79900000D03*
X163650000Y-66750000D03*
X190000000Y-148100000D03*
X160150000Y-98800000D03*
X149300000Y-65850000D03*
X149600000Y-113450000D03*
X163550000Y-105650000D03*
X156500000Y-77200000D03*
X153000000Y-97800000D03*
X152100000Y-100300000D03*
X169100000Y-134750000D03*
X156500000Y-81700000D03*
X104890000Y-88500000D03*
X152050000Y-77200000D03*
X164150000Y-92000000D03*
X111950000Y-76700000D03*
X134250000Y-104350000D03*
X133150000Y-88650000D03*
X112640000Y-93700000D03*
X160850000Y-103300000D03*
X101700000Y-140050000D03*
X154550000Y-81750000D03*
X157000000Y-84950000D03*
X156500000Y-103350000D03*
X152450000Y-94750000D03*
X157800000Y-98800000D03*
X148950000Y-124200000D03*
X141750000Y-100700000D03*
X118700000Y-120700000D03*
X136250000Y-130250000D03*
X110000000Y-51450000D03*
X105540000Y-85800000D03*
X154650000Y-96200000D03*
X145300000Y-82750000D03*
X128050000Y-122250000D03*
X156500000Y-78491000D03*
X114590000Y-93750000D03*
X156500000Y-99000000D03*
X113800000Y-105400000D03*
X156600000Y-51650000D03*
X131100000Y-119300000D03*
X114540000Y-89250000D03*
X198000000Y-139950000D03*
X144700000Y-125050000D03*
X146800000Y-129750000D03*
X160700000Y-85450000D03*
X163850000Y-87900000D03*
X152050000Y-79400000D03*
X156500000Y-100400000D03*
X160950000Y-77200000D03*
X135700000Y-88650000D03*
X124500000Y-114050000D03*
X129000000Y-97900000D03*
X116700000Y-78300000D03*
X160250000Y-93100000D03*
X120800000Y-114600000D03*
X198250000Y-60000000D03*
X157100000Y-95100000D03*
X136200000Y-76900000D03*
X111990000Y-87500000D03*
X131000000Y-106500000D03*
X160850000Y-100300000D03*
X160950000Y-79600000D03*
X154650000Y-83700000D03*
X114500000Y-109800000D03*
X141250000Y-97300000D03*
X161100000Y-134100000D03*
X114590000Y-91450000D03*
X101500000Y-60000000D03*
X162750000Y-125750000D03*
X155150000Y-129850000D03*
%TO.N,/TXRX*%
X117200000Y-117500000D03*
X136000000Y-120950000D03*
%TO.N,Net-(Q1-G)*%
X150900000Y-101950000D03*
X152200000Y-101950000D03*
X159000000Y-100400000D03*
X149600000Y-101950000D03*
X159000000Y-102800000D03*
X159000000Y-101600000D03*
%TD*%
D21*
%TO.N,/12V_OUT_FIL*%
X163650000Y-90000000D02*
X164800000Y-90000000D01*
D22*
X154650000Y-88500000D02*
X154650000Y-91500000D01*
D21*
X154250000Y-90000000D02*
X163650000Y-90000000D01*
X164800000Y-90000000D02*
X166000000Y-90000000D01*
X151000000Y-90000000D02*
X154250000Y-90000000D01*
D23*
%TO.N,GND*%
X158150000Y-103750000D02*
X159800000Y-103750000D01*
%TO.N,/TXRX*%
X120850000Y-120950000D02*
X121700000Y-120950000D01*
X121700000Y-120950000D02*
X136000000Y-120950000D01*
X120650000Y-120950000D02*
X121700000Y-120950000D01*
X117200000Y-117500000D02*
X120650000Y-120950000D01*
D22*
%TO.N,Net-(Q1-G)*%
X159000000Y-101959000D02*
X159000000Y-100400000D01*
X149600000Y-101950000D02*
X150900000Y-101950000D01*
X150900000Y-101950000D02*
X152200000Y-101950000D01*
X152200000Y-101950000D02*
X158991000Y-101950000D01*
X158991000Y-101950000D02*
X159000000Y-101959000D01*
X159000000Y-102800000D02*
X159000000Y-101600000D01*
%TD*%
%TA.AperFunction,Conductor*%
%TO.N,GND*%
G36*
X199442539Y-50520185D02*
G01*
X199488294Y-50572989D01*
X199499500Y-50624500D01*
X199499500Y-54927373D01*
X199479815Y-54994412D01*
X199471757Y-55001393D01*
X199496005Y-55043392D01*
X199499500Y-55072626D01*
X199499500Y-144927373D01*
X199479815Y-144994412D01*
X199471757Y-145001393D01*
X199496005Y-145043392D01*
X199499500Y-145072626D01*
X199499500Y-149375500D01*
X199479815Y-149442539D01*
X199427011Y-149488294D01*
X199375500Y-149499500D01*
X100624500Y-149499500D01*
X100557461Y-149479815D01*
X100511706Y-149427011D01*
X100500500Y-149375500D01*
X100500500Y-145072626D01*
X100520185Y-145005587D01*
X100523400Y-145002801D01*
X100721054Y-145002801D01*
X100743477Y-145037691D01*
X100748360Y-145066726D01*
X100764447Y-145404450D01*
X100822071Y-145805231D01*
X100917531Y-146198722D01*
X100917534Y-146198733D01*
X101049956Y-146581340D01*
X101049966Y-146581365D01*
X101218168Y-146949675D01*
X101420621Y-147300335D01*
X101420627Y-147300343D01*
X101655485Y-147630154D01*
X101822985Y-147823460D01*
X103313098Y-146333347D01*
X103380076Y-146420635D01*
X103579365Y-146619924D01*
X103666650Y-146686900D01*
X102174928Y-148178622D01*
X102213676Y-148215568D01*
X102213695Y-148215585D01*
X102531968Y-148465877D01*
X102872594Y-148684782D01*
X103232485Y-148870319D01*
X103608383Y-149020806D01*
X103608395Y-149020810D01*
X103996882Y-149134880D01*
X103996899Y-149134884D01*
X104394460Y-149211508D01*
X104394472Y-149211510D01*
X104797554Y-149250000D01*
X105202446Y-149250000D01*
X105605527Y-149211510D01*
X105605539Y-149211508D01*
X106003100Y-149134884D01*
X106003117Y-149134880D01*
X106391604Y-149020810D01*
X106391616Y-149020806D01*
X106767507Y-148870322D01*
X106767511Y-148870320D01*
X107127406Y-148684782D01*
X107468031Y-148465877D01*
X107786314Y-148215578D01*
X107825069Y-148178622D01*
X106333348Y-146686901D01*
X106420635Y-146619924D01*
X106619924Y-146420635D01*
X106686901Y-146333348D01*
X108177012Y-147823459D01*
X108344512Y-147630156D01*
X108344523Y-147630143D01*
X108579372Y-147300343D01*
X108579378Y-147300335D01*
X108781831Y-146949675D01*
X108950033Y-146581365D01*
X108950043Y-146581340D01*
X109082465Y-146198733D01*
X109082468Y-146198722D01*
X109177928Y-145805231D01*
X109235552Y-145404450D01*
X109254818Y-145000000D01*
X190745181Y-145000000D01*
X190764447Y-145404450D01*
X190822071Y-145805231D01*
X190917531Y-146198722D01*
X190917534Y-146198733D01*
X191049956Y-146581340D01*
X191049966Y-146581365D01*
X191218168Y-146949675D01*
X191420621Y-147300335D01*
X191420627Y-147300343D01*
X191655485Y-147630154D01*
X191822985Y-147823460D01*
X193313098Y-146333347D01*
X193380076Y-146420635D01*
X193579365Y-146619924D01*
X193666650Y-146686900D01*
X192174928Y-148178622D01*
X192213676Y-148215568D01*
X192213695Y-148215585D01*
X192531968Y-148465877D01*
X192872594Y-148684782D01*
X193232485Y-148870319D01*
X193608383Y-149020806D01*
X193608395Y-149020810D01*
X193996882Y-149134880D01*
X193996899Y-149134884D01*
X194394460Y-149211508D01*
X194394472Y-149211510D01*
X194797554Y-149250000D01*
X195202446Y-149250000D01*
X195605527Y-149211510D01*
X195605539Y-149211508D01*
X196003100Y-149134884D01*
X196003117Y-149134880D01*
X196391604Y-149020810D01*
X196391616Y-149020806D01*
X196767507Y-148870322D01*
X196767511Y-148870320D01*
X197127406Y-148684782D01*
X197468031Y-148465877D01*
X197786314Y-148215578D01*
X197825069Y-148178622D01*
X196333348Y-146686901D01*
X196420635Y-146619924D01*
X196619924Y-146420635D01*
X196686901Y-146333348D01*
X198177012Y-147823459D01*
X198344512Y-147630156D01*
X198344523Y-147630143D01*
X198579372Y-147300343D01*
X198579378Y-147300335D01*
X198781831Y-146949675D01*
X198950033Y-146581365D01*
X198950043Y-146581340D01*
X199082465Y-146198733D01*
X199082468Y-146198722D01*
X199177928Y-145805231D01*
X199235552Y-145404450D01*
X199251640Y-145066726D01*
X199274493Y-145000699D01*
X199278945Y-144997197D01*
X199256523Y-144962308D01*
X199251640Y-144933273D01*
X199235552Y-144595549D01*
X199177928Y-144194768D01*
X199082468Y-143801277D01*
X199082465Y-143801266D01*
X198950043Y-143418659D01*
X198950033Y-143418634D01*
X198781831Y-143050324D01*
X198579378Y-142699664D01*
X198579372Y-142699656D01*
X198344523Y-142369856D01*
X198344512Y-142369843D01*
X198177013Y-142176538D01*
X196686900Y-143666650D01*
X196619924Y-143579365D01*
X196420635Y-143380076D01*
X196333348Y-143313098D01*
X197825070Y-141821376D01*
X197786323Y-141784431D01*
X197786304Y-141784414D01*
X197468031Y-141534122D01*
X197127406Y-141315217D01*
X196767511Y-141129679D01*
X196767507Y-141129677D01*
X196391616Y-140979193D01*
X196391604Y-140979189D01*
X196003117Y-140865119D01*
X196003100Y-140865115D01*
X195605539Y-140788491D01*
X195605527Y-140788489D01*
X195202446Y-140750000D01*
X194797554Y-140750000D01*
X194394472Y-140788489D01*
X194394460Y-140788491D01*
X193996899Y-140865115D01*
X193996882Y-140865119D01*
X193608395Y-140979189D01*
X193608383Y-140979193D01*
X193232485Y-141129680D01*
X192872594Y-141315217D01*
X192531968Y-141534122D01*
X192213685Y-141784421D01*
X192213673Y-141784432D01*
X192174929Y-141821375D01*
X192174929Y-141821376D01*
X193666651Y-143313098D01*
X193579365Y-143380076D01*
X193380076Y-143579365D01*
X193313098Y-143666651D01*
X191822986Y-142176539D01*
X191655485Y-142369845D01*
X191420627Y-142699656D01*
X191420621Y-142699664D01*
X191218168Y-143050324D01*
X191049966Y-143418634D01*
X191049956Y-143418659D01*
X190917534Y-143801266D01*
X190917531Y-143801277D01*
X190822071Y-144194768D01*
X190764447Y-144595549D01*
X190745181Y-145000000D01*
X109254818Y-145000000D01*
X109235552Y-144595549D01*
X109177928Y-144194768D01*
X109082468Y-143801277D01*
X109082465Y-143801266D01*
X108950043Y-143418659D01*
X108950033Y-143418634D01*
X108781831Y-143050324D01*
X108579378Y-142699664D01*
X108579372Y-142699656D01*
X108344523Y-142369856D01*
X108344512Y-142369843D01*
X108177013Y-142176538D01*
X106686900Y-143666650D01*
X106619924Y-143579365D01*
X106420635Y-143380076D01*
X106333348Y-143313098D01*
X107825070Y-141821376D01*
X107786323Y-141784431D01*
X107786304Y-141784414D01*
X107468031Y-141534122D01*
X107127406Y-141315217D01*
X106767511Y-141129679D01*
X106767507Y-141129677D01*
X106391616Y-140979193D01*
X106391604Y-140979189D01*
X106003117Y-140865119D01*
X106003100Y-140865115D01*
X105605539Y-140788491D01*
X105605527Y-140788489D01*
X105202446Y-140750000D01*
X104797554Y-140750000D01*
X104394472Y-140788489D01*
X104394460Y-140788491D01*
X103996899Y-140865115D01*
X103996882Y-140865119D01*
X103608395Y-140979189D01*
X103608383Y-140979193D01*
X103232485Y-141129680D01*
X102872594Y-141315217D01*
X102531968Y-141534122D01*
X102213685Y-141784421D01*
X102213673Y-141784432D01*
X102174929Y-141821375D01*
X102174929Y-141821376D01*
X103666651Y-143313098D01*
X103579365Y-143380076D01*
X103380076Y-143579365D01*
X103313098Y-143666651D01*
X101822986Y-142176539D01*
X101655485Y-142369845D01*
X101420627Y-142699656D01*
X101420621Y-142699664D01*
X101218168Y-143050324D01*
X101049966Y-143418634D01*
X101049956Y-143418659D01*
X100917534Y-143801266D01*
X100917531Y-143801277D01*
X100822071Y-144194768D01*
X100764447Y-144595549D01*
X100748360Y-144933273D01*
X100725507Y-144999300D01*
X100721054Y-145002801D01*
X100523400Y-145002801D01*
X100528242Y-144998605D01*
X100503995Y-144956607D01*
X100500500Y-144927373D01*
X100500500Y-132799995D01*
X105345233Y-132799995D01*
X105345233Y-132800004D01*
X105364273Y-133054079D01*
X105420968Y-133302477D01*
X105420973Y-133302494D01*
X105514058Y-133539671D01*
X105514057Y-133539671D01*
X105641454Y-133760327D01*
X105641461Y-133760338D01*
X105683452Y-133812991D01*
X105683453Y-133812992D01*
X106485387Y-133011058D01*
X106490889Y-133031591D01*
X106569881Y-133168408D01*
X106681592Y-133280119D01*
X106818409Y-133359111D01*
X106838940Y-133364612D01*
X106036813Y-134166738D01*
X106197616Y-134276371D01*
X106197624Y-134276376D01*
X106427176Y-134386921D01*
X106427174Y-134386921D01*
X106670652Y-134462024D01*
X106670658Y-134462026D01*
X106922595Y-134499999D01*
X106922604Y-134500000D01*
X107177396Y-134500000D01*
X107177404Y-134499999D01*
X107429341Y-134462026D01*
X107429347Y-134462024D01*
X107672824Y-134386921D01*
X107902376Y-134276376D01*
X107902377Y-134276375D01*
X108063185Y-134166738D01*
X107261060Y-133364612D01*
X107281591Y-133359111D01*
X107418408Y-133280119D01*
X107530119Y-133168408D01*
X107609111Y-133031591D01*
X107614612Y-133011059D01*
X108416545Y-133812992D01*
X108416546Y-133812991D01*
X108458544Y-133760330D01*
X108585941Y-133539671D01*
X108679026Y-133302494D01*
X108679031Y-133302477D01*
X108735726Y-133054079D01*
X108754767Y-132800004D01*
X108754767Y-132799995D01*
X108735726Y-132545920D01*
X108679031Y-132297522D01*
X108679026Y-132297505D01*
X108585941Y-132060328D01*
X108585942Y-132060328D01*
X108458545Y-131839672D01*
X108416545Y-131787006D01*
X107614612Y-132588939D01*
X107609111Y-132568409D01*
X107530119Y-132431592D01*
X107418408Y-132319881D01*
X107281591Y-132240889D01*
X107261059Y-132235387D01*
X108063185Y-131433260D01*
X107902384Y-131323628D01*
X107902376Y-131323623D01*
X107672823Y-131213078D01*
X107672825Y-131213078D01*
X107429347Y-131137975D01*
X107429341Y-131137973D01*
X107177404Y-131100000D01*
X106922595Y-131100000D01*
X106670658Y-131137973D01*
X106670652Y-131137975D01*
X106427175Y-131213078D01*
X106197622Y-131323625D01*
X106197609Y-131323632D01*
X106036813Y-131433259D01*
X106838941Y-132235387D01*
X106818409Y-132240889D01*
X106681592Y-132319881D01*
X106569881Y-132431592D01*
X106490889Y-132568409D01*
X106485387Y-132588941D01*
X105683452Y-131787006D01*
X105641457Y-131839667D01*
X105514058Y-132060328D01*
X105420973Y-132297505D01*
X105420968Y-132297522D01*
X105364273Y-132545920D01*
X105345233Y-132799995D01*
X100500500Y-132799995D01*
X100500500Y-126552135D01*
X105349500Y-126552135D01*
X105349500Y-129047870D01*
X105349501Y-129047876D01*
X105355908Y-129107483D01*
X105406202Y-129242328D01*
X105406206Y-129242335D01*
X105492452Y-129357544D01*
X105492455Y-129357547D01*
X105607664Y-129443793D01*
X105607671Y-129443797D01*
X105742517Y-129494091D01*
X105742516Y-129494091D01*
X105749444Y-129494835D01*
X105802127Y-129500500D01*
X108297872Y-129500499D01*
X108357483Y-129494091D01*
X108492331Y-129443796D01*
X108607546Y-129357546D01*
X108693796Y-129242331D01*
X108744091Y-129107483D01*
X108750500Y-129047873D01*
X108750499Y-126552128D01*
X108744091Y-126492517D01*
X108693796Y-126357669D01*
X108693795Y-126357668D01*
X108693793Y-126357664D01*
X108607547Y-126242455D01*
X108607544Y-126242452D01*
X108492335Y-126156206D01*
X108492328Y-126156202D01*
X108357482Y-126105908D01*
X108357483Y-126105908D01*
X108297883Y-126099501D01*
X108297881Y-126099500D01*
X108297873Y-126099500D01*
X108297864Y-126099500D01*
X105802129Y-126099500D01*
X105802123Y-126099501D01*
X105742516Y-126105908D01*
X105607671Y-126156202D01*
X105607664Y-126156206D01*
X105492455Y-126242452D01*
X105492452Y-126242455D01*
X105406206Y-126357664D01*
X105406202Y-126357671D01*
X105355908Y-126492517D01*
X105349501Y-126552116D01*
X105349501Y-126552123D01*
X105349500Y-126552135D01*
X100500500Y-126552135D01*
X100500500Y-117500000D01*
X104344706Y-117500000D01*
X104363853Y-117743297D01*
X104420830Y-117980619D01*
X104514222Y-118206089D01*
X104641737Y-118414173D01*
X104641738Y-118414176D01*
X104641741Y-118414179D01*
X104800241Y-118599759D01*
X104919030Y-118701214D01*
X104985818Y-118758257D01*
X104985819Y-118758258D01*
X104985821Y-118758259D01*
X105040436Y-118791727D01*
X105063327Y-118809773D01*
X105729766Y-119476212D01*
X105687708Y-119487482D01*
X105562292Y-119559890D01*
X105459890Y-119662292D01*
X105387482Y-119787708D01*
X105376212Y-119829765D01*
X104638504Y-119092057D01*
X104514668Y-119294138D01*
X104421303Y-119519542D01*
X104364348Y-119756780D01*
X104345207Y-120000000D01*
X104364348Y-120243219D01*
X104421303Y-120480457D01*
X104514668Y-120705861D01*
X104638504Y-120907941D01*
X105376212Y-120170233D01*
X105387482Y-120212292D01*
X105459890Y-120337708D01*
X105562292Y-120440110D01*
X105687708Y-120512518D01*
X105729765Y-120523787D01*
X104992057Y-121261494D01*
X105194138Y-121385331D01*
X105419542Y-121478696D01*
X105656780Y-121535651D01*
X105656779Y-121535651D01*
X105900000Y-121554792D01*
X106143219Y-121535651D01*
X106380457Y-121478696D01*
X106605861Y-121385331D01*
X106807941Y-121261495D01*
X106807941Y-121261494D01*
X106070235Y-120523787D01*
X106112292Y-120512518D01*
X106237708Y-120440110D01*
X106340110Y-120337708D01*
X106412518Y-120212292D01*
X106423787Y-120170234D01*
X107161494Y-120907941D01*
X107161495Y-120907941D01*
X107285331Y-120705861D01*
X107378696Y-120480457D01*
X107435651Y-120243219D01*
X107454792Y-120000000D01*
X107435651Y-119756780D01*
X107378696Y-119519542D01*
X107285331Y-119294138D01*
X107161494Y-119092057D01*
X106423787Y-119829764D01*
X106412518Y-119787708D01*
X106340110Y-119662292D01*
X106237708Y-119559890D01*
X106112292Y-119487482D01*
X106070233Y-119476212D01*
X106736670Y-118809774D01*
X106759553Y-118791733D01*
X106814179Y-118758259D01*
X106999759Y-118599759D01*
X107158259Y-118414179D01*
X107285777Y-118206089D01*
X107379172Y-117980612D01*
X107436146Y-117743302D01*
X107455294Y-117500000D01*
X116194659Y-117500000D01*
X116213975Y-117696129D01*
X116271188Y-117884733D01*
X116364086Y-118058532D01*
X116364090Y-118058539D01*
X116489116Y-118210883D01*
X116641460Y-118335909D01*
X116641467Y-118335913D01*
X116815266Y-118428811D01*
X116815269Y-118428811D01*
X116815273Y-118428814D01*
X117003868Y-118486024D01*
X117200000Y-118505341D01*
X117251560Y-118500262D01*
X117320203Y-118513280D01*
X117351394Y-118535984D01*
X120161016Y-121345606D01*
X120161045Y-121345637D01*
X120251264Y-121435856D01*
X120251267Y-121435858D01*
X120328190Y-121487256D01*
X120353710Y-121504309D01*
X120353712Y-121504310D01*
X120353715Y-121504312D01*
X120420396Y-121531931D01*
X120420398Y-121531933D01*
X120460640Y-121548601D01*
X120467548Y-121551463D01*
X120527971Y-121563481D01*
X120588393Y-121575500D01*
X120588394Y-121575500D01*
X120788394Y-121575500D01*
X121638394Y-121575500D01*
X135160397Y-121575500D01*
X135227436Y-121595185D01*
X135256250Y-121620835D01*
X135289116Y-121660883D01*
X135441460Y-121785909D01*
X135441467Y-121785913D01*
X135615266Y-121878811D01*
X135615269Y-121878811D01*
X135615273Y-121878814D01*
X135803868Y-121936024D01*
X136000000Y-121955341D01*
X136196132Y-121936024D01*
X136384727Y-121878814D01*
X136558538Y-121785910D01*
X136710883Y-121660883D01*
X136835910Y-121508538D01*
X136921330Y-121348729D01*
X136928811Y-121334733D01*
X136928811Y-121334732D01*
X136928814Y-121334727D01*
X136986024Y-121146132D01*
X137005341Y-120950000D01*
X136986024Y-120753868D01*
X136928814Y-120565273D01*
X136928811Y-120565269D01*
X136928811Y-120565266D01*
X136835913Y-120391467D01*
X136835909Y-120391460D01*
X136710883Y-120239116D01*
X136558539Y-120114090D01*
X136558532Y-120114086D01*
X136384733Y-120021188D01*
X136384727Y-120021186D01*
X136196132Y-119963976D01*
X136196129Y-119963975D01*
X136000000Y-119944659D01*
X135803870Y-119963975D01*
X135615266Y-120021188D01*
X135441467Y-120114086D01*
X135441460Y-120114090D01*
X135289116Y-120239116D01*
X135256250Y-120279165D01*
X135198505Y-120318499D01*
X135160397Y-120324500D01*
X120960452Y-120324500D01*
X120893413Y-120304815D01*
X120872771Y-120288181D01*
X118235984Y-117651394D01*
X118202499Y-117590071D01*
X118200262Y-117551562D01*
X118205341Y-117500000D01*
X118186024Y-117303868D01*
X118128814Y-117115273D01*
X118128811Y-117115269D01*
X118128811Y-117115266D01*
X118035913Y-116941467D01*
X118035909Y-116941460D01*
X117910883Y-116789116D01*
X117758539Y-116664090D01*
X117758532Y-116664086D01*
X117584733Y-116571188D01*
X117584727Y-116571186D01*
X117396132Y-116513976D01*
X117396129Y-116513975D01*
X117200000Y-116494659D01*
X117003870Y-116513975D01*
X116815266Y-116571188D01*
X116641467Y-116664086D01*
X116641460Y-116664090D01*
X116489116Y-116789116D01*
X116364090Y-116941460D01*
X116364086Y-116941467D01*
X116271188Y-117115266D01*
X116213975Y-117303870D01*
X116194659Y-117500000D01*
X107455294Y-117500000D01*
X107436146Y-117256698D01*
X107379172Y-117019388D01*
X107379169Y-117019380D01*
X107285777Y-116793910D01*
X107158262Y-116585826D01*
X107158261Y-116585823D01*
X107122453Y-116543897D01*
X106999759Y-116400241D01*
X106877063Y-116295449D01*
X106814176Y-116241738D01*
X106814173Y-116241737D01*
X106606089Y-116114222D01*
X106380618Y-116020830D01*
X106380621Y-116020830D01*
X106274992Y-115995470D01*
X106143302Y-115963854D01*
X106143300Y-115963853D01*
X106143297Y-115963853D01*
X105900000Y-115944706D01*
X105656702Y-115963853D01*
X105419380Y-116020830D01*
X105193910Y-116114222D01*
X104985826Y-116241737D01*
X104985823Y-116241738D01*
X104800241Y-116400241D01*
X104641738Y-116585823D01*
X104641737Y-116585826D01*
X104514222Y-116793910D01*
X104420830Y-117019380D01*
X104363853Y-117256702D01*
X104344706Y-117500000D01*
X100500500Y-117500000D01*
X100500500Y-103009998D01*
X131474838Y-103009998D01*
X131474838Y-103010001D01*
X131493450Y-103222741D01*
X131493452Y-103222752D01*
X131548721Y-103429022D01*
X131548723Y-103429026D01*
X131548724Y-103429030D01*
X131571287Y-103477416D01*
X131638977Y-103622578D01*
X131761472Y-103797521D01*
X131912478Y-103948527D01*
X131912481Y-103948529D01*
X132087419Y-104071021D01*
X132087421Y-104071022D01*
X132087420Y-104071022D01*
X132151936Y-104101106D01*
X132280970Y-104161276D01*
X132280983Y-104161279D01*
X132286064Y-104163130D01*
X132285292Y-104165250D01*
X132336710Y-104196594D01*
X132367237Y-104259442D01*
X132358939Y-104328817D01*
X132314452Y-104382693D01*
X132285685Y-104395830D01*
X132286064Y-104396870D01*
X132280972Y-104398723D01*
X132280970Y-104398724D01*
X132280968Y-104398725D01*
X132087421Y-104488977D01*
X131912478Y-104611472D01*
X131761472Y-104762478D01*
X131638977Y-104937421D01*
X131548725Y-105130968D01*
X131548721Y-105130977D01*
X131493452Y-105337247D01*
X131493450Y-105337258D01*
X131474838Y-105549998D01*
X131474838Y-105550001D01*
X131493450Y-105762741D01*
X131493452Y-105762752D01*
X131548721Y-105969022D01*
X131548723Y-105969026D01*
X131548724Y-105969030D01*
X131591171Y-106060058D01*
X131638977Y-106162578D01*
X131761472Y-106337521D01*
X131912478Y-106488527D01*
X131912481Y-106488529D01*
X132087419Y-106611021D01*
X132087421Y-106611022D01*
X132087420Y-106611022D01*
X132151936Y-106641106D01*
X132280970Y-106701276D01*
X132487253Y-106756549D01*
X132639215Y-106769844D01*
X132699998Y-106775162D01*
X132700000Y-106775162D01*
X132700002Y-106775162D01*
X132753186Y-106770508D01*
X132912747Y-106756549D01*
X133119030Y-106701276D01*
X133312581Y-106611021D01*
X133487519Y-106488529D01*
X133638529Y-106337519D01*
X133761021Y-106162581D01*
X133851276Y-105969030D01*
X133906549Y-105762747D01*
X133925162Y-105550000D01*
X133906549Y-105337253D01*
X133851276Y-105130970D01*
X133761021Y-104937419D01*
X133638529Y-104762481D01*
X133638527Y-104762478D01*
X133487521Y-104611472D01*
X133312578Y-104488977D01*
X133312579Y-104488977D01*
X133183547Y-104428809D01*
X133119030Y-104398724D01*
X133119023Y-104398722D01*
X133113936Y-104396870D01*
X133114709Y-104394746D01*
X133063305Y-104363424D01*
X133032766Y-104300581D01*
X133041050Y-104231204D01*
X133085528Y-104177320D01*
X133114315Y-104164172D01*
X133113936Y-104163130D01*
X133119013Y-104161280D01*
X133119030Y-104161276D01*
X133312581Y-104071021D01*
X133487519Y-103948529D01*
X133638529Y-103797519D01*
X133761021Y-103622581D01*
X133851276Y-103429030D01*
X133906549Y-103222747D01*
X133925162Y-103010000D01*
X133906549Y-102797253D01*
X133851276Y-102590970D01*
X133761021Y-102397419D01*
X133638529Y-102222481D01*
X133638527Y-102222478D01*
X133487521Y-102071472D01*
X133314038Y-101949999D01*
X148594659Y-101949999D01*
X148598903Y-101993090D01*
X148599500Y-102005244D01*
X148599500Y-102048544D01*
X148607945Y-102091006D01*
X148609730Y-102103035D01*
X148613975Y-102146130D01*
X148613976Y-102146134D01*
X148626547Y-102187575D01*
X148629503Y-102199378D01*
X148637946Y-102241827D01*
X148637948Y-102241834D01*
X148654517Y-102281834D01*
X148658612Y-102293277D01*
X148671186Y-102334727D01*
X148671187Y-102334729D01*
X148691597Y-102372913D01*
X148696800Y-102383915D01*
X148713368Y-102423914D01*
X148713370Y-102423918D01*
X148737425Y-102459918D01*
X148743683Y-102470358D01*
X148764088Y-102508535D01*
X148764094Y-102508543D01*
X148791552Y-102542002D01*
X148798799Y-102551772D01*
X148822862Y-102587783D01*
X148822865Y-102587787D01*
X148853479Y-102618401D01*
X148861651Y-102627416D01*
X148889118Y-102660884D01*
X148922581Y-102688346D01*
X148931599Y-102696520D01*
X148962214Y-102727136D01*
X148962218Y-102727139D01*
X148997699Y-102750847D01*
X148998219Y-102751194D01*
X149007988Y-102758438D01*
X149041462Y-102785910D01*
X149041464Y-102785911D01*
X149079640Y-102806316D01*
X149090078Y-102812572D01*
X149126086Y-102836632D01*
X149166095Y-102853203D01*
X149177091Y-102858404D01*
X149215273Y-102878814D01*
X149256710Y-102891383D01*
X149268160Y-102895480D01*
X149308165Y-102912051D01*
X149350640Y-102920499D01*
X149362414Y-102923448D01*
X149403868Y-102936024D01*
X149446964Y-102940268D01*
X149458990Y-102942052D01*
X149483753Y-102946978D01*
X149501458Y-102950500D01*
X149501459Y-102950500D01*
X149544756Y-102950500D01*
X149556909Y-102951096D01*
X149600000Y-102955341D01*
X149643090Y-102951096D01*
X149655244Y-102950500D01*
X150801459Y-102950500D01*
X150844756Y-102950500D01*
X150856909Y-102951096D01*
X150900000Y-102955341D01*
X150943090Y-102951096D01*
X150955244Y-102950500D01*
X152101459Y-102950500D01*
X152144756Y-102950500D01*
X152156909Y-102951096D01*
X152200000Y-102955341D01*
X152243090Y-102951096D01*
X152255244Y-102950500D01*
X157908071Y-102950500D01*
X157975110Y-102970185D01*
X158020865Y-103022989D01*
X158029688Y-103050308D01*
X158037947Y-103091829D01*
X158037948Y-103091834D01*
X158054517Y-103131834D01*
X158058612Y-103143277D01*
X158071186Y-103184726D01*
X158071187Y-103184729D01*
X158091597Y-103222913D01*
X158096800Y-103233915D01*
X158113368Y-103273914D01*
X158113370Y-103273918D01*
X158137425Y-103309918D01*
X158143678Y-103320350D01*
X158154948Y-103341436D01*
X158164088Y-103358535D01*
X158164094Y-103358543D01*
X158191552Y-103392002D01*
X158198799Y-103401772D01*
X158222860Y-103437781D01*
X158222862Y-103437783D01*
X158222865Y-103437787D01*
X158253479Y-103468401D01*
X158261651Y-103477416D01*
X158289117Y-103510883D01*
X158322579Y-103538345D01*
X158322581Y-103538346D01*
X158331599Y-103546520D01*
X158362214Y-103577136D01*
X158362217Y-103577138D01*
X158362218Y-103577139D01*
X158398217Y-103601193D01*
X158398219Y-103601194D01*
X158407988Y-103608438D01*
X158441462Y-103635910D01*
X158474636Y-103653641D01*
X158524480Y-103702604D01*
X158539941Y-103770741D01*
X158516110Y-103836421D01*
X158460552Y-103878790D01*
X158416183Y-103887000D01*
X150934108Y-103887000D01*
X150806812Y-103921108D01*
X150692686Y-103987000D01*
X150692683Y-103987002D01*
X150599502Y-104080183D01*
X150599500Y-104080186D01*
X150533608Y-104194312D01*
X150499500Y-104321608D01*
X150499500Y-122453391D01*
X150533608Y-122580687D01*
X150566554Y-122637750D01*
X150599500Y-122694814D01*
X150692686Y-122788000D01*
X150806814Y-122853892D01*
X150934108Y-122888000D01*
X150934110Y-122888000D01*
X162065890Y-122888000D01*
X162065892Y-122888000D01*
X162193186Y-122853892D01*
X162307314Y-122788000D01*
X162400500Y-122694814D01*
X162466392Y-122580686D01*
X162500500Y-122453392D01*
X162500500Y-104321608D01*
X162466392Y-104194314D01*
X162400500Y-104080186D01*
X162307314Y-103987000D01*
X162250250Y-103954054D01*
X162193187Y-103921108D01*
X162129539Y-103904054D01*
X162065892Y-103887000D01*
X159583815Y-103887000D01*
X159516776Y-103867315D01*
X159471021Y-103814511D01*
X159461077Y-103745353D01*
X159490102Y-103681797D01*
X159525366Y-103653640D01*
X159558534Y-103635912D01*
X159558538Y-103635910D01*
X159592005Y-103608444D01*
X159601782Y-103601193D01*
X159637781Y-103577140D01*
X159637783Y-103577138D01*
X159637785Y-103577136D01*
X159668408Y-103546512D01*
X159677402Y-103538359D01*
X159710883Y-103510883D01*
X159738359Y-103477402D01*
X159746512Y-103468408D01*
X159777139Y-103437782D01*
X159801200Y-103401772D01*
X159808444Y-103392005D01*
X159835909Y-103358539D01*
X159835912Y-103358535D01*
X159842295Y-103346591D01*
X159856320Y-103320351D01*
X159862560Y-103309938D01*
X159886632Y-103273914D01*
X159903202Y-103233906D01*
X159908402Y-103222913D01*
X159928814Y-103184727D01*
X159941386Y-103143280D01*
X159945476Y-103131847D01*
X159962051Y-103091835D01*
X159970500Y-103049353D01*
X159973450Y-103037580D01*
X159986024Y-102996132D01*
X159990268Y-102953037D01*
X159992054Y-102940999D01*
X159992200Y-102940268D01*
X160000500Y-102898541D01*
X160000500Y-102855244D01*
X160001097Y-102843090D01*
X160001733Y-102836631D01*
X160005341Y-102800000D01*
X160001097Y-102756908D01*
X160000500Y-102744754D01*
X160000500Y-101655244D01*
X160001097Y-101643090D01*
X160005341Y-101600000D01*
X160001097Y-101556908D01*
X160000500Y-101544754D01*
X160000500Y-100455244D01*
X160001097Y-100443090D01*
X160003633Y-100417339D01*
X160005341Y-100400000D01*
X160001097Y-100356907D01*
X160000500Y-100344754D01*
X160000500Y-100301458D01*
X159998117Y-100289480D01*
X159992052Y-100258990D01*
X159990268Y-100246961D01*
X159988045Y-100224394D01*
X159986024Y-100203868D01*
X159973448Y-100162414D01*
X159970499Y-100150640D01*
X159962051Y-100108165D01*
X159945480Y-100068159D01*
X159941383Y-100056710D01*
X159928814Y-100015273D01*
X159908404Y-99977091D01*
X159903203Y-99966095D01*
X159886632Y-99926086D01*
X159862572Y-99890078D01*
X159856316Y-99879640D01*
X159835911Y-99841464D01*
X159835910Y-99841462D01*
X159808438Y-99807988D01*
X159801194Y-99798219D01*
X159777140Y-99762219D01*
X159777136Y-99762214D01*
X159746520Y-99731599D01*
X159738346Y-99722581D01*
X159710884Y-99689118D01*
X159677416Y-99661651D01*
X159668401Y-99653479D01*
X159637787Y-99622865D01*
X159637783Y-99622862D01*
X159637780Y-99622860D01*
X159621139Y-99611740D01*
X159601772Y-99598799D01*
X159592002Y-99591552D01*
X159558543Y-99564094D01*
X159558535Y-99564088D01*
X159541436Y-99554948D01*
X159520350Y-99543678D01*
X159509918Y-99537425D01*
X159473918Y-99513370D01*
X159473914Y-99513368D01*
X159433915Y-99496800D01*
X159422913Y-99491597D01*
X159384729Y-99471187D01*
X159384728Y-99471186D01*
X159384727Y-99471186D01*
X159343277Y-99458612D01*
X159331834Y-99454517D01*
X159291834Y-99437948D01*
X159291827Y-99437946D01*
X159249378Y-99429503D01*
X159237575Y-99426547D01*
X159196134Y-99413976D01*
X159196130Y-99413975D01*
X159153035Y-99409730D01*
X159141006Y-99407945D01*
X159098544Y-99399500D01*
X159098541Y-99399500D01*
X159055244Y-99399500D01*
X159043090Y-99398903D01*
X159000000Y-99394659D01*
X158956910Y-99398903D01*
X158944756Y-99399500D01*
X158901453Y-99399500D01*
X158858991Y-99407945D01*
X158846963Y-99409730D01*
X158803867Y-99413976D01*
X158762427Y-99426546D01*
X158750626Y-99429502D01*
X158708166Y-99437948D01*
X158708161Y-99437949D01*
X158668159Y-99454518D01*
X158656707Y-99458616D01*
X158615272Y-99471186D01*
X158577091Y-99491594D01*
X158566093Y-99496795D01*
X158526091Y-99513364D01*
X158490080Y-99537426D01*
X158479645Y-99543680D01*
X158441465Y-99564087D01*
X158441460Y-99564091D01*
X158407990Y-99591557D01*
X158398225Y-99598799D01*
X158362225Y-99622855D01*
X158362219Y-99622860D01*
X158331595Y-99653483D01*
X158322584Y-99661650D01*
X158289117Y-99689117D01*
X158261650Y-99722584D01*
X158253483Y-99731595D01*
X158222860Y-99762219D01*
X158222855Y-99762225D01*
X158198799Y-99798225D01*
X158191557Y-99807990D01*
X158164091Y-99841460D01*
X158164087Y-99841465D01*
X158143680Y-99879645D01*
X158137426Y-99890080D01*
X158113364Y-99926091D01*
X158096795Y-99966093D01*
X158091594Y-99977091D01*
X158071186Y-100015272D01*
X158058616Y-100056707D01*
X158054518Y-100068159D01*
X158037949Y-100108161D01*
X158037948Y-100108166D01*
X158029502Y-100150626D01*
X158026546Y-100162427D01*
X158013976Y-100203867D01*
X158009730Y-100246963D01*
X158007945Y-100258991D01*
X157999500Y-100301453D01*
X157999500Y-100344754D01*
X157998903Y-100356907D01*
X157994659Y-100399999D01*
X157998903Y-100443090D01*
X157999500Y-100455244D01*
X157999500Y-100825500D01*
X157979815Y-100892539D01*
X157927011Y-100938294D01*
X157875500Y-100949500D01*
X152255244Y-100949500D01*
X152243090Y-100948903D01*
X152200000Y-100944659D01*
X152156910Y-100948903D01*
X152144756Y-100949500D01*
X150955244Y-100949500D01*
X150943090Y-100948903D01*
X150900000Y-100944659D01*
X150856910Y-100948903D01*
X150844756Y-100949500D01*
X149655244Y-100949500D01*
X149643090Y-100948903D01*
X149600000Y-100944659D01*
X149556910Y-100948903D01*
X149544756Y-100949500D01*
X149501453Y-100949500D01*
X149458991Y-100957945D01*
X149446963Y-100959730D01*
X149403867Y-100963976D01*
X149362427Y-100976546D01*
X149350626Y-100979502D01*
X149308166Y-100987948D01*
X149308161Y-100987949D01*
X149268159Y-101004518D01*
X149256707Y-101008616D01*
X149215272Y-101021186D01*
X149177091Y-101041594D01*
X149166093Y-101046795D01*
X149126091Y-101063364D01*
X149090080Y-101087426D01*
X149079645Y-101093680D01*
X149041465Y-101114087D01*
X149041460Y-101114091D01*
X149007990Y-101141557D01*
X148998225Y-101148799D01*
X148962225Y-101172855D01*
X148962219Y-101172860D01*
X148931595Y-101203483D01*
X148922584Y-101211650D01*
X148889117Y-101239117D01*
X148861650Y-101272584D01*
X148853483Y-101281595D01*
X148822860Y-101312219D01*
X148822855Y-101312225D01*
X148798799Y-101348225D01*
X148791557Y-101357990D01*
X148764091Y-101391460D01*
X148764087Y-101391465D01*
X148743680Y-101429645D01*
X148737426Y-101440080D01*
X148713364Y-101476091D01*
X148696795Y-101516093D01*
X148691594Y-101527091D01*
X148671186Y-101565272D01*
X148658616Y-101606707D01*
X148654518Y-101618159D01*
X148637949Y-101658161D01*
X148637948Y-101658166D01*
X148629502Y-101700626D01*
X148626546Y-101712427D01*
X148613976Y-101753867D01*
X148609730Y-101796963D01*
X148607945Y-101808991D01*
X148599500Y-101851453D01*
X148599500Y-101894754D01*
X148598903Y-101906907D01*
X148594659Y-101949999D01*
X133314038Y-101949999D01*
X133312578Y-101948977D01*
X133312579Y-101948977D01*
X133183547Y-101888809D01*
X133119030Y-101858724D01*
X133119023Y-101858722D01*
X133113936Y-101856870D01*
X133114606Y-101855028D01*
X133062293Y-101823114D01*
X133031789Y-101760255D01*
X133040111Y-101690883D01*
X133084617Y-101637022D01*
X133114097Y-101623574D01*
X133113764Y-101622658D01*
X133118864Y-101620801D01*
X133312325Y-101530589D01*
X133368030Y-101491583D01*
X132746448Y-100870000D01*
X132752661Y-100870000D01*
X132854394Y-100842741D01*
X132945606Y-100790080D01*
X133020080Y-100715606D01*
X133072741Y-100624394D01*
X133100000Y-100522661D01*
X133100000Y-100516446D01*
X133721583Y-101138029D01*
X133760589Y-101082325D01*
X133850801Y-100888864D01*
X133850805Y-100888853D01*
X133906054Y-100682662D01*
X133906055Y-100682654D01*
X133924660Y-100470002D01*
X133924660Y-100469997D01*
X133906055Y-100257345D01*
X133906054Y-100257337D01*
X133850805Y-100051146D01*
X133850802Y-100051140D01*
X133760586Y-99857669D01*
X133760582Y-99857663D01*
X133721584Y-99801968D01*
X133100000Y-100423552D01*
X133100000Y-100417339D01*
X133072741Y-100315606D01*
X133020080Y-100224394D01*
X132945606Y-100149920D01*
X132854394Y-100097259D01*
X132752661Y-100070000D01*
X132746447Y-100070000D01*
X133368030Y-99448415D01*
X133312329Y-99409413D01*
X133118859Y-99319197D01*
X133118853Y-99319194D01*
X132912662Y-99263945D01*
X132912654Y-99263944D01*
X132700002Y-99245340D01*
X132699998Y-99245340D01*
X132487345Y-99263944D01*
X132487337Y-99263945D01*
X132281146Y-99319194D01*
X132281140Y-99319197D01*
X132087671Y-99409412D01*
X132087669Y-99409413D01*
X132031969Y-99448415D01*
X132031968Y-99448415D01*
X132653554Y-100070000D01*
X132647339Y-100070000D01*
X132545606Y-100097259D01*
X132454394Y-100149920D01*
X132379920Y-100224394D01*
X132327259Y-100315606D01*
X132300000Y-100417339D01*
X132300000Y-100423553D01*
X131678415Y-99801968D01*
X131678415Y-99801969D01*
X131639413Y-99857669D01*
X131639412Y-99857671D01*
X131549197Y-100051140D01*
X131549194Y-100051146D01*
X131493945Y-100257337D01*
X131493944Y-100257345D01*
X131475340Y-100469997D01*
X131475340Y-100470002D01*
X131493944Y-100682654D01*
X131493945Y-100682662D01*
X131549194Y-100888853D01*
X131549197Y-100888859D01*
X131639413Y-101082329D01*
X131678415Y-101138030D01*
X132300000Y-100516445D01*
X132300000Y-100522661D01*
X132327259Y-100624394D01*
X132379920Y-100715606D01*
X132454394Y-100790080D01*
X132545606Y-100842741D01*
X132647339Y-100870000D01*
X132653553Y-100870000D01*
X132031968Y-101491584D01*
X132087663Y-101530582D01*
X132087669Y-101530586D01*
X132281140Y-101620802D01*
X132286236Y-101622658D01*
X132285542Y-101624563D01*
X132337647Y-101656302D01*
X132368196Y-101719139D01*
X132359922Y-101788518D01*
X132315454Y-101842409D01*
X132285744Y-101855991D01*
X132286064Y-101856870D01*
X132280972Y-101858723D01*
X132280970Y-101858724D01*
X132280968Y-101858725D01*
X132087421Y-101948977D01*
X131912478Y-102071472D01*
X131761472Y-102222478D01*
X131638977Y-102397421D01*
X131548725Y-102590968D01*
X131548721Y-102590977D01*
X131493452Y-102797247D01*
X131493450Y-102797258D01*
X131474838Y-103009998D01*
X100500500Y-103009998D01*
X100500500Y-96999994D01*
X157494357Y-96999994D01*
X157494357Y-97000005D01*
X157514890Y-97247812D01*
X157514892Y-97247824D01*
X157575936Y-97488881D01*
X157675826Y-97716606D01*
X157811833Y-97924782D01*
X157811836Y-97924785D01*
X157980256Y-98107738D01*
X158176491Y-98260474D01*
X158176493Y-98260475D01*
X158394332Y-98378364D01*
X158395190Y-98378828D01*
X158614141Y-98453994D01*
X158628964Y-98459083D01*
X158630386Y-98459571D01*
X158875665Y-98500500D01*
X159124335Y-98500500D01*
X159369614Y-98459571D01*
X159604810Y-98378828D01*
X159823509Y-98260474D01*
X160019744Y-98107738D01*
X160188164Y-97924785D01*
X160324173Y-97716607D01*
X160424063Y-97488881D01*
X160485108Y-97247821D01*
X160505643Y-97000000D01*
X160505643Y-96999994D01*
X195494859Y-96999994D01*
X195494859Y-97000005D01*
X195515385Y-97247729D01*
X195515387Y-97247738D01*
X195576412Y-97488717D01*
X195676266Y-97716364D01*
X195776564Y-97869882D01*
X196517037Y-97129409D01*
X196534075Y-97192993D01*
X196599901Y-97307007D01*
X196692993Y-97400099D01*
X196807007Y-97465925D01*
X196870590Y-97482962D01*
X196129942Y-98223609D01*
X196176768Y-98260055D01*
X196176770Y-98260056D01*
X196395385Y-98378364D01*
X196395396Y-98378369D01*
X196630506Y-98459083D01*
X196875707Y-98500000D01*
X197124293Y-98500000D01*
X197369493Y-98459083D01*
X197604603Y-98378369D01*
X197604614Y-98378364D01*
X197823228Y-98260057D01*
X197823231Y-98260055D01*
X197870056Y-98223609D01*
X197129409Y-97482962D01*
X197192993Y-97465925D01*
X197307007Y-97400099D01*
X197400099Y-97307007D01*
X197465925Y-97192993D01*
X197482962Y-97129410D01*
X198223434Y-97869882D01*
X198323731Y-97716369D01*
X198423587Y-97488717D01*
X198484612Y-97247738D01*
X198484614Y-97247729D01*
X198505141Y-97000005D01*
X198505141Y-96999994D01*
X198484614Y-96752270D01*
X198484612Y-96752261D01*
X198423587Y-96511282D01*
X198323731Y-96283630D01*
X198223434Y-96130116D01*
X197482962Y-96870589D01*
X197465925Y-96807007D01*
X197400099Y-96692993D01*
X197307007Y-96599901D01*
X197192993Y-96534075D01*
X197129410Y-96517037D01*
X197870057Y-95776390D01*
X197870056Y-95776389D01*
X197823229Y-95739943D01*
X197604614Y-95621635D01*
X197604603Y-95621630D01*
X197369493Y-95540916D01*
X197124293Y-95500000D01*
X196875707Y-95500000D01*
X196630506Y-95540916D01*
X196395396Y-95621630D01*
X196395390Y-95621632D01*
X196176761Y-95739949D01*
X196129942Y-95776388D01*
X196129942Y-95776390D01*
X196870590Y-96517037D01*
X196807007Y-96534075D01*
X196692993Y-96599901D01*
X196599901Y-96692993D01*
X196534075Y-96807007D01*
X196517037Y-96870589D01*
X195776564Y-96130116D01*
X195676267Y-96283632D01*
X195576412Y-96511282D01*
X195515387Y-96752261D01*
X195515385Y-96752270D01*
X195494859Y-96999994D01*
X160505643Y-96999994D01*
X160489651Y-96807007D01*
X160485109Y-96752187D01*
X160485107Y-96752175D01*
X160424063Y-96511118D01*
X160324173Y-96283393D01*
X160188166Y-96075217D01*
X160166557Y-96051744D01*
X160019744Y-95892262D01*
X159823509Y-95739526D01*
X159823507Y-95739525D01*
X159823506Y-95739524D01*
X159604811Y-95621172D01*
X159604802Y-95621169D01*
X159369616Y-95540429D01*
X159124335Y-95499500D01*
X158875665Y-95499500D01*
X158630383Y-95540429D01*
X158395197Y-95621169D01*
X158395188Y-95621172D01*
X158176493Y-95739524D01*
X157980257Y-95892261D01*
X157811833Y-96075217D01*
X157675826Y-96283393D01*
X157575936Y-96511118D01*
X157514892Y-96752175D01*
X157514890Y-96752187D01*
X157494357Y-96999994D01*
X100500500Y-96999994D01*
X100500500Y-94824986D01*
X153250001Y-94824986D01*
X153260494Y-94927697D01*
X153315641Y-95094119D01*
X153315643Y-95094124D01*
X153407684Y-95243345D01*
X153531654Y-95367315D01*
X153680875Y-95459356D01*
X153680880Y-95459358D01*
X153847302Y-95514505D01*
X153847309Y-95514506D01*
X153950019Y-95524999D01*
X154399999Y-95524999D01*
X154900000Y-95524999D01*
X155349972Y-95524999D01*
X155349986Y-95524998D01*
X155452697Y-95514505D01*
X155619119Y-95459358D01*
X155619124Y-95459356D01*
X155768345Y-95367315D01*
X155892315Y-95243345D01*
X155984356Y-95094124D01*
X155984358Y-95094119D01*
X156039505Y-94927697D01*
X156039506Y-94927690D01*
X156049999Y-94824986D01*
X156050000Y-94824973D01*
X156050000Y-94700000D01*
X154900000Y-94700000D01*
X154900000Y-95524999D01*
X154399999Y-95524999D01*
X154400000Y-95524998D01*
X154400000Y-94700000D01*
X153250001Y-94700000D01*
X153250001Y-94824986D01*
X100500500Y-94824986D01*
X100500500Y-92999994D01*
X125694357Y-92999994D01*
X125694357Y-93000005D01*
X125714890Y-93247812D01*
X125714892Y-93247824D01*
X125775936Y-93488881D01*
X125875826Y-93716606D01*
X126011833Y-93924782D01*
X126011836Y-93924785D01*
X126180256Y-94107738D01*
X126376491Y-94260474D01*
X126595190Y-94378828D01*
X126830386Y-94459571D01*
X127075665Y-94500500D01*
X127324335Y-94500500D01*
X127569614Y-94459571D01*
X127804810Y-94378828D01*
X128023509Y-94260474D01*
X128219744Y-94107738D01*
X128388164Y-93924785D01*
X128524173Y-93716607D01*
X128624063Y-93488881D01*
X128685108Y-93247821D01*
X128705643Y-93000000D01*
X128685108Y-92752179D01*
X128633549Y-92548579D01*
X128624063Y-92511118D01*
X128524173Y-92283393D01*
X128388166Y-92075217D01*
X128298484Y-91977797D01*
X128219744Y-91892262D01*
X128023509Y-91739526D01*
X128023507Y-91739525D01*
X128023506Y-91739524D01*
X127804811Y-91621172D01*
X127804802Y-91621169D01*
X127569616Y-91540429D01*
X127324335Y-91499500D01*
X127075665Y-91499500D01*
X126830383Y-91540429D01*
X126595197Y-91621169D01*
X126595188Y-91621172D01*
X126376493Y-91739524D01*
X126180257Y-91892261D01*
X126011833Y-92075217D01*
X125875826Y-92283393D01*
X125775936Y-92511118D01*
X125714892Y-92752175D01*
X125714890Y-92752187D01*
X125694357Y-92999994D01*
X100500500Y-92999994D01*
X100500500Y-86999994D01*
X125694859Y-86999994D01*
X125694859Y-87000005D01*
X125715385Y-87247729D01*
X125715387Y-87247738D01*
X125776412Y-87488717D01*
X125876266Y-87716364D01*
X125976564Y-87869882D01*
X126717037Y-87129409D01*
X126734075Y-87192993D01*
X126799901Y-87307007D01*
X126892993Y-87400099D01*
X127007007Y-87465925D01*
X127070590Y-87482962D01*
X126329942Y-88223609D01*
X126376768Y-88260055D01*
X126376770Y-88260056D01*
X126595385Y-88378364D01*
X126595396Y-88378369D01*
X126830506Y-88459083D01*
X127075707Y-88500000D01*
X127324293Y-88500000D01*
X127569493Y-88459083D01*
X127804603Y-88378369D01*
X127804614Y-88378364D01*
X128023228Y-88260057D01*
X128023231Y-88260055D01*
X128070056Y-88223609D01*
X127329409Y-87482962D01*
X127392993Y-87465925D01*
X127507007Y-87400099D01*
X127600099Y-87307007D01*
X127665925Y-87192993D01*
X127682962Y-87129410D01*
X128423434Y-87869882D01*
X128523731Y-87716369D01*
X128623587Y-87488717D01*
X128684612Y-87247738D01*
X128684614Y-87247729D01*
X128705141Y-87000005D01*
X128705141Y-86999994D01*
X141694357Y-86999994D01*
X141694357Y-87000005D01*
X141714890Y-87247812D01*
X141714892Y-87247824D01*
X141775936Y-87488881D01*
X141875826Y-87716606D01*
X142011833Y-87924782D01*
X142011836Y-87924785D01*
X142180256Y-88107738D01*
X142376491Y-88260474D01*
X142376493Y-88260475D01*
X142594332Y-88378364D01*
X142595190Y-88378828D01*
X142607292Y-88382982D01*
X142664307Y-88423365D01*
X142690439Y-88488164D01*
X142677391Y-88556804D01*
X142629304Y-88607493D01*
X142607300Y-88617543D01*
X142595398Y-88621629D01*
X142595390Y-88621632D01*
X142376761Y-88739949D01*
X142329942Y-88776388D01*
X142329942Y-88776390D01*
X143070590Y-89517037D01*
X143007007Y-89534075D01*
X142892993Y-89599901D01*
X142799901Y-89692993D01*
X142734075Y-89807007D01*
X142717037Y-89870589D01*
X141976564Y-89130116D01*
X141876267Y-89283632D01*
X141776412Y-89511282D01*
X141715387Y-89752261D01*
X141715385Y-89752270D01*
X141694859Y-89999994D01*
X141694859Y-90000005D01*
X141715385Y-90247729D01*
X141715387Y-90247738D01*
X141776412Y-90488717D01*
X141876266Y-90716364D01*
X141976564Y-90869882D01*
X142717037Y-90129409D01*
X142734075Y-90192993D01*
X142799901Y-90307007D01*
X142892993Y-90400099D01*
X143007007Y-90465925D01*
X143070590Y-90482962D01*
X142329942Y-91223609D01*
X142376768Y-91260055D01*
X142376770Y-91260056D01*
X142595385Y-91378364D01*
X142595396Y-91378369D01*
X142607294Y-91382454D01*
X142664309Y-91422839D01*
X142690440Y-91487639D01*
X142677389Y-91556279D01*
X142629300Y-91606967D01*
X142607296Y-91617016D01*
X142595191Y-91621171D01*
X142595188Y-91621172D01*
X142376493Y-91739524D01*
X142180257Y-91892261D01*
X142011833Y-92075217D01*
X141875826Y-92283393D01*
X141775936Y-92511118D01*
X141714892Y-92752175D01*
X141714890Y-92752187D01*
X141694357Y-92999994D01*
X141694357Y-93000005D01*
X141714890Y-93247812D01*
X141714892Y-93247824D01*
X141775936Y-93488881D01*
X141875826Y-93716606D01*
X142011833Y-93924782D01*
X142011836Y-93924785D01*
X142180256Y-94107738D01*
X142376491Y-94260474D01*
X142595190Y-94378828D01*
X142830386Y-94459571D01*
X143075665Y-94500500D01*
X143324335Y-94500500D01*
X143569614Y-94459571D01*
X143804810Y-94378828D01*
X144023509Y-94260474D01*
X144219744Y-94107738D01*
X144388164Y-93924785D01*
X144524173Y-93716607D01*
X144624063Y-93488881D01*
X144685108Y-93247821D01*
X144705643Y-93000000D01*
X144685108Y-92752179D01*
X144633549Y-92548579D01*
X144624063Y-92511118D01*
X144524173Y-92283393D01*
X144388166Y-92075217D01*
X144298484Y-91977797D01*
X144219744Y-91892262D01*
X144023509Y-91739526D01*
X144023507Y-91739525D01*
X144023506Y-91739524D01*
X143804811Y-91621172D01*
X143804802Y-91621169D01*
X143792705Y-91617016D01*
X143735690Y-91576631D01*
X143709559Y-91511831D01*
X143722610Y-91443191D01*
X143770699Y-91392504D01*
X143792707Y-91382453D01*
X143804608Y-91378367D01*
X143804614Y-91378364D01*
X144023228Y-91260057D01*
X144023231Y-91260055D01*
X144070056Y-91223609D01*
X143329409Y-90482962D01*
X143392993Y-90465925D01*
X143507007Y-90400099D01*
X143600099Y-90307007D01*
X143665925Y-90192993D01*
X143682962Y-90129409D01*
X144423434Y-90869882D01*
X144523731Y-90716369D01*
X144623587Y-90488717D01*
X144684612Y-90247738D01*
X144684614Y-90247729D01*
X144705141Y-90000005D01*
X144705141Y-89999994D01*
X144684614Y-89752270D01*
X144684612Y-89752261D01*
X144623587Y-89511282D01*
X144523731Y-89283630D01*
X144423434Y-89130116D01*
X143682962Y-89870589D01*
X143665925Y-89807007D01*
X143600099Y-89692993D01*
X143507007Y-89599901D01*
X143392993Y-89534075D01*
X143329410Y-89517037D01*
X144070057Y-88776390D01*
X144070056Y-88776389D01*
X144023229Y-88739943D01*
X143804614Y-88621635D01*
X143804605Y-88621631D01*
X143792701Y-88617544D01*
X143735687Y-88577156D01*
X143709559Y-88512356D01*
X143722612Y-88443716D01*
X143770703Y-88393030D01*
X143792705Y-88382983D01*
X143804810Y-88378828D01*
X144023509Y-88260474D01*
X144219744Y-88107738D01*
X144388164Y-87924785D01*
X144524173Y-87716607D01*
X144624063Y-87488881D01*
X144685108Y-87247821D01*
X144705643Y-87000000D01*
X144705643Y-86999994D01*
X149494357Y-86999994D01*
X149494357Y-87000005D01*
X149514890Y-87247812D01*
X149514892Y-87247824D01*
X149575936Y-87488881D01*
X149675826Y-87716606D01*
X149811833Y-87924782D01*
X149811836Y-87924785D01*
X149980256Y-88107738D01*
X150176491Y-88260474D01*
X150176493Y-88260475D01*
X150394332Y-88378364D01*
X150395190Y-88378828D01*
X150405682Y-88382430D01*
X150406524Y-88382719D01*
X150463539Y-88423106D01*
X150489668Y-88487906D01*
X150476615Y-88556546D01*
X150428526Y-88607233D01*
X150406524Y-88617281D01*
X150395191Y-88621171D01*
X150395188Y-88621172D01*
X150176493Y-88739524D01*
X149980257Y-88892261D01*
X149811833Y-89075217D01*
X149675826Y-89283393D01*
X149575936Y-89511118D01*
X149514892Y-89752175D01*
X149514890Y-89752187D01*
X149494357Y-89999994D01*
X149494357Y-90000005D01*
X149514890Y-90247812D01*
X149514892Y-90247824D01*
X149575936Y-90488881D01*
X149675826Y-90716606D01*
X149811833Y-90924782D01*
X149811836Y-90924785D01*
X149980256Y-91107738D01*
X150176491Y-91260474D01*
X150176493Y-91260475D01*
X150395182Y-91378824D01*
X150395190Y-91378828D01*
X150405682Y-91382430D01*
X150406524Y-91382719D01*
X150463539Y-91423106D01*
X150489668Y-91487906D01*
X150476615Y-91556546D01*
X150428526Y-91607233D01*
X150406524Y-91617281D01*
X150395191Y-91621171D01*
X150395188Y-91621172D01*
X150176493Y-91739524D01*
X149980257Y-91892261D01*
X149811833Y-92075217D01*
X149675826Y-92283393D01*
X149575936Y-92511118D01*
X149514892Y-92752175D01*
X149514890Y-92752187D01*
X149494357Y-92999994D01*
X149494357Y-93000005D01*
X149514890Y-93247812D01*
X149514892Y-93247824D01*
X149575936Y-93488881D01*
X149675826Y-93716606D01*
X149811833Y-93924782D01*
X149811836Y-93924785D01*
X149980256Y-94107738D01*
X150176491Y-94260474D01*
X150395190Y-94378828D01*
X150630386Y-94459571D01*
X150875665Y-94500500D01*
X151124335Y-94500500D01*
X151369614Y-94459571D01*
X151604810Y-94378828D01*
X151823509Y-94260474D01*
X152019744Y-94107738D01*
X152188164Y-93924785D01*
X152324173Y-93716607D01*
X152424063Y-93488881D01*
X152485108Y-93247821D01*
X152505643Y-93000000D01*
X152485108Y-92752179D01*
X152433549Y-92548579D01*
X152424063Y-92511118D01*
X152324173Y-92283393D01*
X152188166Y-92075217D01*
X152098484Y-91977797D01*
X152019744Y-91892262D01*
X151823509Y-91739526D01*
X151823507Y-91739525D01*
X151823506Y-91739524D01*
X151604811Y-91621172D01*
X151604802Y-91621169D01*
X151593477Y-91617281D01*
X151536462Y-91576896D01*
X151510331Y-91512096D01*
X151523382Y-91443456D01*
X151571471Y-91392768D01*
X151593477Y-91382719D01*
X151597235Y-91381428D01*
X151604810Y-91378828D01*
X151805565Y-91270185D01*
X151814324Y-91265445D01*
X151873341Y-91250500D01*
X153125500Y-91250500D01*
X153192539Y-91270185D01*
X153238294Y-91322989D01*
X153249500Y-91374500D01*
X153249500Y-91875001D01*
X153249501Y-91875019D01*
X153260000Y-91977796D01*
X153260001Y-91977799D01*
X153315185Y-92144331D01*
X153315187Y-92144336D01*
X153407289Y-92293657D01*
X153531344Y-92417712D01*
X153681096Y-92510079D01*
X153727821Y-92562027D01*
X153740000Y-92615618D01*
X153740000Y-93334968D01*
X153720315Y-93402007D01*
X153681097Y-93440506D01*
X153531659Y-93532680D01*
X153531655Y-93532683D01*
X153407684Y-93656654D01*
X153315643Y-93805875D01*
X153315641Y-93805880D01*
X153260494Y-93972302D01*
X153260493Y-93972309D01*
X153250000Y-94075013D01*
X153250000Y-94200000D01*
X156049999Y-94200000D01*
X156049999Y-94075028D01*
X156049998Y-94075013D01*
X156039505Y-93972302D01*
X155984358Y-93805880D01*
X155984356Y-93805875D01*
X155892315Y-93656654D01*
X155768344Y-93532683D01*
X155768340Y-93532680D01*
X155618903Y-93440506D01*
X155572178Y-93388559D01*
X155560000Y-93334968D01*
X155560000Y-92615618D01*
X155579685Y-92548579D01*
X155618904Y-92510079D01*
X155619334Y-92509814D01*
X155768656Y-92417712D01*
X155892712Y-92293656D01*
X155984814Y-92144334D01*
X156039999Y-91977797D01*
X156050500Y-91875009D01*
X156050499Y-91374499D01*
X156070183Y-91307461D01*
X156122987Y-91261706D01*
X156174499Y-91250500D01*
X166098422Y-91250500D01*
X166292826Y-91219709D01*
X166480025Y-91158884D01*
X166655405Y-91069524D01*
X166814646Y-90953828D01*
X166953828Y-90814646D01*
X167069524Y-90655405D01*
X167158884Y-90480025D01*
X167219709Y-90292826D01*
X167226837Y-90247821D01*
X167250500Y-90098422D01*
X167250500Y-89901577D01*
X167219709Y-89707173D01*
X167158882Y-89519970D01*
X167069523Y-89344594D01*
X166953828Y-89185354D01*
X166814646Y-89046172D01*
X166655405Y-88930476D01*
X166480029Y-88841117D01*
X166292826Y-88780290D01*
X166098422Y-88749500D01*
X166098417Y-88749500D01*
X164898417Y-88749500D01*
X163748417Y-88749500D01*
X156174500Y-88749500D01*
X156107461Y-88729815D01*
X156061706Y-88677011D01*
X156050500Y-88625500D01*
X156050499Y-88124998D01*
X156050498Y-88124980D01*
X156039999Y-88022203D01*
X156039998Y-88022200D01*
X155984814Y-87855666D01*
X155892712Y-87706344D01*
X155768656Y-87582288D01*
X155619334Y-87490186D01*
X155618903Y-87489920D01*
X155572179Y-87437972D01*
X155560000Y-87384381D01*
X155560000Y-86665031D01*
X155579685Y-86597992D01*
X155618903Y-86559492D01*
X155768345Y-86467315D01*
X155892315Y-86343345D01*
X155984356Y-86194124D01*
X155984358Y-86194119D01*
X156039505Y-86027697D01*
X156039506Y-86027690D01*
X156049999Y-85924986D01*
X156050000Y-85924973D01*
X156050000Y-85800000D01*
X153250001Y-85800000D01*
X153250001Y-85924986D01*
X153260494Y-86027697D01*
X153315641Y-86194119D01*
X153315643Y-86194124D01*
X153407684Y-86343345D01*
X153531654Y-86467315D01*
X153681097Y-86559492D01*
X153727821Y-86611440D01*
X153740000Y-86665031D01*
X153740000Y-87384381D01*
X153720315Y-87451420D01*
X153681097Y-87489920D01*
X153531342Y-87582289D01*
X153407289Y-87706342D01*
X153315187Y-87855663D01*
X153315186Y-87855666D01*
X153260001Y-88022203D01*
X153260001Y-88022204D01*
X153260000Y-88022204D01*
X153249500Y-88124983D01*
X153249500Y-88124991D01*
X153249500Y-88423365D01*
X153249501Y-88625500D01*
X153229817Y-88692539D01*
X153177013Y-88738294D01*
X153125501Y-88749500D01*
X151873341Y-88749500D01*
X151814324Y-88734555D01*
X151604816Y-88621175D01*
X151604813Y-88621174D01*
X151604810Y-88621172D01*
X151604804Y-88621170D01*
X151604802Y-88621169D01*
X151593477Y-88617281D01*
X151536462Y-88576896D01*
X151510331Y-88512096D01*
X151523382Y-88443456D01*
X151571471Y-88392768D01*
X151593477Y-88382719D01*
X151597235Y-88381428D01*
X151604810Y-88378828D01*
X151823509Y-88260474D01*
X152019744Y-88107738D01*
X152188164Y-87924785D01*
X152324173Y-87716607D01*
X152424063Y-87488881D01*
X152485108Y-87247821D01*
X152505643Y-87000000D01*
X152489651Y-86807007D01*
X152485109Y-86752187D01*
X152485107Y-86752175D01*
X152424063Y-86511118D01*
X152324173Y-86283393D01*
X152188166Y-86075217D01*
X152166557Y-86051744D01*
X152019744Y-85892262D01*
X151823509Y-85739526D01*
X151823507Y-85739525D01*
X151823506Y-85739524D01*
X151604811Y-85621172D01*
X151604802Y-85621169D01*
X151369616Y-85540429D01*
X151124335Y-85499500D01*
X150875665Y-85499500D01*
X150630383Y-85540429D01*
X150395197Y-85621169D01*
X150395188Y-85621172D01*
X150176493Y-85739524D01*
X149980257Y-85892261D01*
X149811833Y-86075217D01*
X149675826Y-86283393D01*
X149575936Y-86511118D01*
X149514892Y-86752175D01*
X149514890Y-86752187D01*
X149494357Y-86999994D01*
X144705643Y-86999994D01*
X144689651Y-86807007D01*
X144685109Y-86752187D01*
X144685107Y-86752175D01*
X144624063Y-86511118D01*
X144524173Y-86283393D01*
X144388166Y-86075217D01*
X144366557Y-86051744D01*
X144219744Y-85892262D01*
X144023509Y-85739526D01*
X144023507Y-85739525D01*
X144023506Y-85739524D01*
X143804811Y-85621172D01*
X143804802Y-85621169D01*
X143569616Y-85540429D01*
X143324335Y-85499500D01*
X143075665Y-85499500D01*
X142830383Y-85540429D01*
X142595197Y-85621169D01*
X142595188Y-85621172D01*
X142376493Y-85739524D01*
X142180257Y-85892261D01*
X142011833Y-86075217D01*
X141875826Y-86283393D01*
X141775936Y-86511118D01*
X141714892Y-86752175D01*
X141714890Y-86752187D01*
X141694357Y-86999994D01*
X128705141Y-86999994D01*
X128684614Y-86752270D01*
X128684612Y-86752261D01*
X128623587Y-86511282D01*
X128523731Y-86283630D01*
X128423434Y-86130116D01*
X127682962Y-86870589D01*
X127665925Y-86807007D01*
X127600099Y-86692993D01*
X127507007Y-86599901D01*
X127392993Y-86534075D01*
X127329410Y-86517037D01*
X128070057Y-85776390D01*
X128070056Y-85776389D01*
X128023229Y-85739943D01*
X127804614Y-85621635D01*
X127804603Y-85621630D01*
X127569493Y-85540916D01*
X127324293Y-85500000D01*
X127075707Y-85500000D01*
X126830506Y-85540916D01*
X126595396Y-85621630D01*
X126595390Y-85621632D01*
X126376761Y-85739949D01*
X126329942Y-85776388D01*
X126329942Y-85776390D01*
X127070590Y-86517037D01*
X127007007Y-86534075D01*
X126892993Y-86599901D01*
X126799901Y-86692993D01*
X126734075Y-86807007D01*
X126717037Y-86870589D01*
X125976564Y-86130116D01*
X125876267Y-86283632D01*
X125776412Y-86511282D01*
X125715387Y-86752261D01*
X125715385Y-86752270D01*
X125694859Y-86999994D01*
X100500500Y-86999994D01*
X100500500Y-85175013D01*
X153250000Y-85175013D01*
X153250000Y-85300000D01*
X154400000Y-85300000D01*
X154900000Y-85300000D01*
X156049999Y-85300000D01*
X156049999Y-85175028D01*
X156049998Y-85175013D01*
X156039505Y-85072302D01*
X155984358Y-84905880D01*
X155984356Y-84905875D01*
X155892315Y-84756654D01*
X155768345Y-84632684D01*
X155619124Y-84540643D01*
X155619119Y-84540641D01*
X155452697Y-84485494D01*
X155452690Y-84485493D01*
X155349986Y-84475000D01*
X154900000Y-84475000D01*
X154900000Y-85300000D01*
X154400000Y-85300000D01*
X154400000Y-84475000D01*
X153950028Y-84475000D01*
X153950012Y-84475001D01*
X153847302Y-84485494D01*
X153680880Y-84540641D01*
X153680875Y-84540643D01*
X153531654Y-84632684D01*
X153407684Y-84756654D01*
X153315643Y-84905875D01*
X153315641Y-84905880D01*
X153260494Y-85072302D01*
X153260493Y-85072309D01*
X153250000Y-85175013D01*
X100500500Y-85175013D01*
X100500500Y-82999994D01*
X157494357Y-82999994D01*
X157494357Y-83000005D01*
X157514890Y-83247812D01*
X157514892Y-83247824D01*
X157575936Y-83488881D01*
X157675826Y-83716606D01*
X157811833Y-83924782D01*
X157811836Y-83924785D01*
X157980256Y-84107738D01*
X158176491Y-84260474D01*
X158395190Y-84378828D01*
X158630386Y-84459571D01*
X158875665Y-84500500D01*
X159124335Y-84500500D01*
X159369614Y-84459571D01*
X159604810Y-84378828D01*
X159823509Y-84260474D01*
X160019744Y-84107738D01*
X160188164Y-83924785D01*
X160324173Y-83716607D01*
X160424063Y-83488881D01*
X160485108Y-83247821D01*
X160505643Y-83000000D01*
X160505643Y-82999994D01*
X195494357Y-82999994D01*
X195494357Y-83000005D01*
X195514890Y-83247812D01*
X195514892Y-83247824D01*
X195575936Y-83488881D01*
X195675826Y-83716606D01*
X195811833Y-83924782D01*
X195811836Y-83924785D01*
X195980256Y-84107738D01*
X196176491Y-84260474D01*
X196395190Y-84378828D01*
X196630386Y-84459571D01*
X196875665Y-84500500D01*
X197124335Y-84500500D01*
X197369614Y-84459571D01*
X197604810Y-84378828D01*
X197823509Y-84260474D01*
X198019744Y-84107738D01*
X198188164Y-83924785D01*
X198324173Y-83716607D01*
X198424063Y-83488881D01*
X198485108Y-83247821D01*
X198505643Y-83000000D01*
X198485108Y-82752179D01*
X198424063Y-82511119D01*
X198324173Y-82283393D01*
X198188166Y-82075217D01*
X198166557Y-82051744D01*
X198019744Y-81892262D01*
X197823509Y-81739526D01*
X197823507Y-81739525D01*
X197823506Y-81739524D01*
X197604811Y-81621172D01*
X197604802Y-81621169D01*
X197369616Y-81540429D01*
X197124335Y-81499500D01*
X196875665Y-81499500D01*
X196630383Y-81540429D01*
X196395197Y-81621169D01*
X196395188Y-81621172D01*
X196176493Y-81739524D01*
X195980257Y-81892261D01*
X195811833Y-82075217D01*
X195675826Y-82283393D01*
X195575936Y-82511118D01*
X195514892Y-82752175D01*
X195514890Y-82752187D01*
X195494357Y-82999994D01*
X160505643Y-82999994D01*
X160485108Y-82752179D01*
X160424063Y-82511119D01*
X160324173Y-82283393D01*
X160188166Y-82075217D01*
X160166557Y-82051744D01*
X160019744Y-81892262D01*
X159823509Y-81739526D01*
X159823507Y-81739525D01*
X159823506Y-81739524D01*
X159604811Y-81621172D01*
X159604802Y-81621169D01*
X159369616Y-81540429D01*
X159124335Y-81499500D01*
X158875665Y-81499500D01*
X158630383Y-81540429D01*
X158395197Y-81621169D01*
X158395188Y-81621172D01*
X158176493Y-81739524D01*
X157980257Y-81892261D01*
X157811833Y-82075217D01*
X157675826Y-82283393D01*
X157575936Y-82511118D01*
X157514892Y-82752175D01*
X157514890Y-82752187D01*
X157494357Y-82999994D01*
X100500500Y-82999994D01*
X100500500Y-75359998D01*
X133224838Y-75359998D01*
X133224838Y-75360001D01*
X133243450Y-75572741D01*
X133243452Y-75572752D01*
X133298721Y-75779022D01*
X133298723Y-75779026D01*
X133298724Y-75779030D01*
X133341171Y-75870058D01*
X133388977Y-75972578D01*
X133511472Y-76147521D01*
X133662478Y-76298527D01*
X133662481Y-76298529D01*
X133837419Y-76421021D01*
X133837421Y-76421022D01*
X133837420Y-76421022D01*
X133901936Y-76451106D01*
X134030970Y-76511276D01*
X134030983Y-76511279D01*
X134036064Y-76513130D01*
X134035292Y-76515250D01*
X134086710Y-76546594D01*
X134117237Y-76609442D01*
X134108939Y-76678817D01*
X134064452Y-76732693D01*
X134035685Y-76745830D01*
X134036064Y-76746870D01*
X134030972Y-76748723D01*
X134030970Y-76748724D01*
X134030968Y-76748725D01*
X133837421Y-76838977D01*
X133662478Y-76961472D01*
X133511472Y-77112478D01*
X133388977Y-77287421D01*
X133298725Y-77480968D01*
X133298721Y-77480977D01*
X133243452Y-77687247D01*
X133243450Y-77687258D01*
X133224838Y-77899998D01*
X133224838Y-77900001D01*
X133243450Y-78112741D01*
X133243452Y-78112752D01*
X133298721Y-78319022D01*
X133298723Y-78319026D01*
X133298724Y-78319030D01*
X133341171Y-78410058D01*
X133388977Y-78512578D01*
X133511472Y-78687521D01*
X133662478Y-78838527D01*
X133662481Y-78838529D01*
X133837419Y-78961021D01*
X133837421Y-78961022D01*
X133837420Y-78961022D01*
X133901936Y-78991106D01*
X134030970Y-79051276D01*
X134237253Y-79106549D01*
X134389215Y-79119844D01*
X134449998Y-79125162D01*
X134450000Y-79125162D01*
X134450002Y-79125162D01*
X134503186Y-79120508D01*
X134662747Y-79106549D01*
X134869030Y-79051276D01*
X135062581Y-78961021D01*
X135237519Y-78838529D01*
X135388529Y-78687519D01*
X135511021Y-78512581D01*
X135601276Y-78319030D01*
X135656549Y-78112747D01*
X135675162Y-77900000D01*
X135656549Y-77687253D01*
X135601276Y-77480970D01*
X135511021Y-77287419D01*
X135388529Y-77112481D01*
X135388527Y-77112478D01*
X135237521Y-76961472D01*
X135062578Y-76838977D01*
X135062579Y-76838977D01*
X134933547Y-76778809D01*
X134869030Y-76748724D01*
X134869023Y-76748722D01*
X134863936Y-76746870D01*
X134864709Y-76744746D01*
X134813305Y-76713424D01*
X134782766Y-76650581D01*
X134791050Y-76581204D01*
X134835528Y-76527320D01*
X134864315Y-76514172D01*
X134863936Y-76513130D01*
X134869013Y-76511280D01*
X134869030Y-76511276D01*
X135062581Y-76421021D01*
X135237519Y-76298529D01*
X135388529Y-76147519D01*
X135511021Y-75972581D01*
X135601276Y-75779030D01*
X135656549Y-75572747D01*
X135675162Y-75360000D01*
X135656549Y-75147253D01*
X135601276Y-74940970D01*
X135511021Y-74747419D01*
X135388529Y-74572481D01*
X135388527Y-74572478D01*
X135237521Y-74421472D01*
X135062578Y-74298977D01*
X135062579Y-74298977D01*
X134933547Y-74238809D01*
X134869030Y-74208724D01*
X134869023Y-74208722D01*
X134863936Y-74206870D01*
X134864606Y-74205028D01*
X134812293Y-74173114D01*
X134781789Y-74110255D01*
X134790111Y-74040883D01*
X134834617Y-73987022D01*
X134864097Y-73973574D01*
X134863764Y-73972658D01*
X134868864Y-73970801D01*
X135062325Y-73880589D01*
X135118030Y-73841583D01*
X134496448Y-73220000D01*
X134502661Y-73220000D01*
X134604394Y-73192741D01*
X134695606Y-73140080D01*
X134770080Y-73065606D01*
X134822741Y-72974394D01*
X134850000Y-72872661D01*
X134850000Y-72866447D01*
X135471583Y-73488029D01*
X135510589Y-73432325D01*
X135600801Y-73238864D01*
X135600805Y-73238853D01*
X135656054Y-73032662D01*
X135656055Y-73032654D01*
X135674660Y-72820002D01*
X135674660Y-72819997D01*
X135656055Y-72607345D01*
X135656054Y-72607337D01*
X135600805Y-72401146D01*
X135600802Y-72401140D01*
X135510586Y-72207669D01*
X135510582Y-72207663D01*
X135471584Y-72151968D01*
X134850000Y-72773552D01*
X134850000Y-72767339D01*
X134822741Y-72665606D01*
X134770080Y-72574394D01*
X134695606Y-72499920D01*
X134604394Y-72447259D01*
X134502661Y-72420000D01*
X134496447Y-72420000D01*
X135118030Y-71798415D01*
X135062329Y-71759413D01*
X134868859Y-71669197D01*
X134868853Y-71669194D01*
X134662662Y-71613945D01*
X134662654Y-71613944D01*
X134450002Y-71595340D01*
X134449998Y-71595340D01*
X134237345Y-71613944D01*
X134237337Y-71613945D01*
X134031146Y-71669194D01*
X134031140Y-71669197D01*
X133837671Y-71759412D01*
X133837669Y-71759413D01*
X133781969Y-71798415D01*
X133781968Y-71798415D01*
X134403554Y-72420000D01*
X134397339Y-72420000D01*
X134295606Y-72447259D01*
X134204394Y-72499920D01*
X134129920Y-72574394D01*
X134077259Y-72665606D01*
X134050000Y-72767339D01*
X134050000Y-72773553D01*
X133428415Y-72151968D01*
X133428415Y-72151969D01*
X133389413Y-72207669D01*
X133389412Y-72207671D01*
X133299197Y-72401140D01*
X133299194Y-72401146D01*
X133243945Y-72607337D01*
X133243944Y-72607345D01*
X133225340Y-72819997D01*
X133225340Y-72820002D01*
X133243944Y-73032654D01*
X133243945Y-73032662D01*
X133299194Y-73238853D01*
X133299197Y-73238859D01*
X133389413Y-73432329D01*
X133428415Y-73488030D01*
X134050000Y-72866445D01*
X134050000Y-72872661D01*
X134077259Y-72974394D01*
X134129920Y-73065606D01*
X134204394Y-73140080D01*
X134295606Y-73192741D01*
X134397339Y-73220000D01*
X134403553Y-73220000D01*
X133781968Y-73841584D01*
X133837663Y-73880582D01*
X133837669Y-73880586D01*
X134031140Y-73970802D01*
X134036236Y-73972658D01*
X134035542Y-73974563D01*
X134087647Y-74006302D01*
X134118196Y-74069139D01*
X134109922Y-74138518D01*
X134065454Y-74192409D01*
X134035744Y-74205991D01*
X134036064Y-74206870D01*
X134030972Y-74208723D01*
X134030970Y-74208724D01*
X134030968Y-74208725D01*
X133837421Y-74298977D01*
X133662478Y-74421472D01*
X133511472Y-74572478D01*
X133388977Y-74747421D01*
X133298725Y-74940968D01*
X133298721Y-74940977D01*
X133243452Y-75147247D01*
X133243450Y-75147258D01*
X133224838Y-75359998D01*
X100500500Y-75359998D01*
X100500500Y-66869995D01*
X101564953Y-66869995D01*
X101564953Y-66870004D01*
X101585113Y-67139026D01*
X101585113Y-67139028D01*
X101645142Y-67402033D01*
X101645148Y-67402052D01*
X101743709Y-67653181D01*
X101743708Y-67653181D01*
X101878602Y-67886822D01*
X101932294Y-67954151D01*
X101932295Y-67954151D01*
X102654153Y-67232293D01*
X102661049Y-67248942D01*
X102748599Y-67379970D01*
X102860030Y-67491401D01*
X102991058Y-67578951D01*
X103007705Y-67585846D01*
X102284848Y-68308702D01*
X102467483Y-68433220D01*
X102467485Y-68433221D01*
X102710539Y-68550269D01*
X102710537Y-68550269D01*
X102968337Y-68629790D01*
X102968343Y-68629792D01*
X103235101Y-68669999D01*
X103235110Y-68670000D01*
X103504890Y-68670000D01*
X103504898Y-68669999D01*
X103771656Y-68629792D01*
X103771662Y-68629790D01*
X104029458Y-68550270D01*
X104247927Y-68445061D01*
X104316869Y-68433709D01*
X104381003Y-68461431D01*
X104419969Y-68519426D01*
X104421394Y-68589281D01*
X104417158Y-68602081D01*
X104332583Y-68817578D01*
X104332578Y-68817590D01*
X104332576Y-68817597D01*
X104274197Y-69073374D01*
X104274196Y-69073379D01*
X104254592Y-69334995D01*
X104254592Y-69335004D01*
X104274196Y-69596620D01*
X104274197Y-69596625D01*
X104274197Y-69596629D01*
X104274198Y-69596630D01*
X104282914Y-69634818D01*
X104332576Y-69852402D01*
X104332582Y-69852421D01*
X104428432Y-70096643D01*
X104534256Y-70279937D01*
X104550729Y-70347837D01*
X104527876Y-70413864D01*
X104472955Y-70457055D01*
X104403402Y-70463696D01*
X104357017Y-70444390D01*
X104272526Y-70386784D01*
X104272516Y-70386778D01*
X104029460Y-70269730D01*
X104029462Y-70269730D01*
X103771662Y-70190209D01*
X103771656Y-70190207D01*
X103504898Y-70150000D01*
X103235101Y-70150000D01*
X102968343Y-70190207D01*
X102968337Y-70190209D01*
X102710538Y-70269730D01*
X102467485Y-70386778D01*
X102467476Y-70386783D01*
X102284848Y-70511296D01*
X103007705Y-71234153D01*
X102991058Y-71241049D01*
X102860030Y-71328599D01*
X102748599Y-71440030D01*
X102661049Y-71571058D01*
X102654153Y-71587706D01*
X101932295Y-70865848D01*
X101878600Y-70933180D01*
X101743709Y-71166818D01*
X101645148Y-71417947D01*
X101645142Y-71417966D01*
X101585113Y-71680971D01*
X101585113Y-71680973D01*
X101564953Y-71949995D01*
X101564953Y-71950004D01*
X101585113Y-72219026D01*
X101585113Y-72219028D01*
X101645142Y-72482033D01*
X101645148Y-72482052D01*
X101743709Y-72733181D01*
X101743708Y-72733181D01*
X101878602Y-72966822D01*
X101932294Y-73034151D01*
X101932295Y-73034151D01*
X102654153Y-72312293D01*
X102661049Y-72328942D01*
X102748599Y-72459970D01*
X102860030Y-72571401D01*
X102991058Y-72658951D01*
X103007705Y-72665846D01*
X102284848Y-73388702D01*
X102467483Y-73513220D01*
X102467485Y-73513221D01*
X102710539Y-73630269D01*
X102710537Y-73630269D01*
X102968337Y-73709790D01*
X102968343Y-73709792D01*
X103235101Y-73749999D01*
X103235110Y-73750000D01*
X103504890Y-73750000D01*
X103504898Y-73749999D01*
X103771656Y-73709792D01*
X103771662Y-73709790D01*
X104029461Y-73630269D01*
X104272521Y-73513218D01*
X104455150Y-73388702D01*
X103732294Y-72665846D01*
X103748942Y-72658951D01*
X103879970Y-72571401D01*
X103991401Y-72459970D01*
X104078951Y-72328942D01*
X104085846Y-72312294D01*
X104807703Y-73034151D01*
X104807704Y-73034150D01*
X104861393Y-72966828D01*
X104861400Y-72966817D01*
X104996290Y-72733181D01*
X105094851Y-72482052D01*
X105094857Y-72482033D01*
X105154886Y-72219028D01*
X105154886Y-72219026D01*
X105175047Y-71950004D01*
X105175047Y-71949995D01*
X105154886Y-71680973D01*
X105154886Y-71680971D01*
X105094857Y-71417966D01*
X105094851Y-71417947D01*
X104996290Y-71166818D01*
X104996291Y-71166818D01*
X104882961Y-70970527D01*
X104866488Y-70902627D01*
X104889340Y-70836600D01*
X104944261Y-70793410D01*
X105013815Y-70786768D01*
X105060197Y-70806071D01*
X105132296Y-70855228D01*
X105132301Y-70855230D01*
X105132302Y-70855231D01*
X105132303Y-70855232D01*
X105230721Y-70902627D01*
X105368673Y-70969061D01*
X105368674Y-70969061D01*
X105368677Y-70969063D01*
X105619385Y-71046396D01*
X105878818Y-71085500D01*
X106141182Y-71085500D01*
X106400615Y-71046396D01*
X106651323Y-70969063D01*
X106686056Y-70952336D01*
X106754994Y-70940985D01*
X106819128Y-70968706D01*
X106858094Y-71026701D01*
X106859520Y-71096556D01*
X106847243Y-71126056D01*
X106823708Y-71166820D01*
X106725148Y-71417947D01*
X106725142Y-71417966D01*
X106665113Y-71680971D01*
X106665113Y-71680973D01*
X106644953Y-71949995D01*
X106644953Y-71950004D01*
X106665113Y-72219026D01*
X106665113Y-72219028D01*
X106725142Y-72482033D01*
X106725148Y-72482052D01*
X106823709Y-72733181D01*
X106823708Y-72733181D01*
X106958602Y-72966822D01*
X107012294Y-73034151D01*
X107734152Y-72312293D01*
X107741049Y-72328942D01*
X107828599Y-72459970D01*
X107940030Y-72571401D01*
X108071058Y-72658951D01*
X108087705Y-72665846D01*
X107364848Y-73388702D01*
X107547483Y-73513220D01*
X107547485Y-73513221D01*
X107790539Y-73630269D01*
X107790537Y-73630269D01*
X108048337Y-73709790D01*
X108048343Y-73709792D01*
X108315101Y-73749999D01*
X108315110Y-73750000D01*
X108584890Y-73750000D01*
X108584898Y-73749999D01*
X108851656Y-73709792D01*
X108851662Y-73709790D01*
X109109461Y-73630269D01*
X109352521Y-73513218D01*
X109535150Y-73388702D01*
X108812294Y-72665846D01*
X108828942Y-72658951D01*
X108959970Y-72571401D01*
X109071401Y-72459970D01*
X109158951Y-72328942D01*
X109165846Y-72312294D01*
X109887703Y-73034151D01*
X109887704Y-73034150D01*
X109941393Y-72966828D01*
X109941400Y-72966817D01*
X110076290Y-72733181D01*
X110174851Y-72482052D01*
X110174857Y-72482033D01*
X110234886Y-72219028D01*
X110234886Y-72219026D01*
X110255047Y-71950004D01*
X110255047Y-71949995D01*
X110234886Y-71680973D01*
X110234886Y-71680971D01*
X110174857Y-71417966D01*
X110174851Y-71417947D01*
X110076290Y-71166818D01*
X110076291Y-71166818D01*
X109941397Y-70933177D01*
X109887704Y-70865847D01*
X109165846Y-71587705D01*
X109158951Y-71571058D01*
X109071401Y-71440030D01*
X108959970Y-71328599D01*
X108828942Y-71241049D01*
X108812293Y-71234153D01*
X109535150Y-70511296D01*
X109352517Y-70386779D01*
X109352516Y-70386778D01*
X109109460Y-70269730D01*
X109109462Y-70269730D01*
X108851662Y-70190209D01*
X108851656Y-70190207D01*
X108584898Y-70150000D01*
X108315101Y-70150000D01*
X108048343Y-70190207D01*
X108048337Y-70190209D01*
X107790544Y-70269728D01*
X107738711Y-70294690D01*
X107669769Y-70306041D01*
X107605635Y-70278318D01*
X107566670Y-70220323D01*
X107565245Y-70150468D01*
X107577522Y-70120970D01*
X107591568Y-70096643D01*
X107687420Y-69852416D01*
X107745802Y-69596630D01*
X107748844Y-69556041D01*
X107765408Y-69335004D01*
X107765408Y-69334995D01*
X107745803Y-69073379D01*
X107745802Y-69073374D01*
X107745802Y-69073370D01*
X107687420Y-68817584D01*
X107647923Y-68716949D01*
X107641755Y-68647353D01*
X107674193Y-68585470D01*
X107734938Y-68550947D01*
X107799902Y-68553157D01*
X108048337Y-68629790D01*
X108048343Y-68629792D01*
X108315101Y-68669999D01*
X108315110Y-68670000D01*
X108584890Y-68670000D01*
X108584898Y-68669999D01*
X108851656Y-68629792D01*
X108851662Y-68629790D01*
X109109461Y-68550269D01*
X109352521Y-68433218D01*
X109535150Y-68308702D01*
X108812294Y-67585846D01*
X108828942Y-67578951D01*
X108959970Y-67491401D01*
X109071401Y-67379970D01*
X109158951Y-67248942D01*
X109165846Y-67232294D01*
X109887703Y-67954151D01*
X109887704Y-67954150D01*
X109941393Y-67886828D01*
X109941400Y-67886817D01*
X110076290Y-67653181D01*
X110174851Y-67402052D01*
X110174857Y-67402033D01*
X110234886Y-67139028D01*
X110234886Y-67139026D01*
X110255047Y-66870004D01*
X110255047Y-66869995D01*
X110234886Y-66600973D01*
X110234886Y-66600971D01*
X110174857Y-66337966D01*
X110174851Y-66337947D01*
X110076290Y-66086818D01*
X110076291Y-66086818D01*
X109941397Y-65853177D01*
X109887704Y-65785847D01*
X109165846Y-66507705D01*
X109158951Y-66491058D01*
X109071401Y-66360030D01*
X108959970Y-66248599D01*
X108828942Y-66161049D01*
X108812294Y-66154153D01*
X109535150Y-65431296D01*
X109352517Y-65306779D01*
X109352516Y-65306778D01*
X109109460Y-65189730D01*
X109109462Y-65189730D01*
X108851662Y-65110209D01*
X108851656Y-65110207D01*
X108584898Y-65070000D01*
X108315101Y-65070000D01*
X108048343Y-65110207D01*
X108048337Y-65110209D01*
X107790538Y-65189730D01*
X107547485Y-65306778D01*
X107547476Y-65306783D01*
X107364848Y-65431296D01*
X108087705Y-66154153D01*
X108071058Y-66161049D01*
X107940030Y-66248599D01*
X107828599Y-66360030D01*
X107741049Y-66491058D01*
X107734153Y-66507706D01*
X107012295Y-65785848D01*
X106958600Y-65853180D01*
X106823709Y-66086818D01*
X106725148Y-66337947D01*
X106725142Y-66337966D01*
X106665113Y-66600971D01*
X106665113Y-66600973D01*
X106644953Y-66869995D01*
X106644953Y-66870004D01*
X106665113Y-67139026D01*
X106665113Y-67139028D01*
X106725142Y-67402033D01*
X106725148Y-67402052D01*
X106774706Y-67528324D01*
X106780875Y-67597921D01*
X106748437Y-67659804D01*
X106687692Y-67694327D01*
X106622729Y-67692117D01*
X106517973Y-67659804D01*
X106400623Y-67623606D01*
X106400619Y-67623605D01*
X106400615Y-67623604D01*
X106275823Y-67604794D01*
X106141187Y-67584500D01*
X106141182Y-67584500D01*
X105878818Y-67584500D01*
X105878812Y-67584500D01*
X105717247Y-67608853D01*
X105619385Y-67623604D01*
X105619382Y-67623605D01*
X105619376Y-67623606D01*
X105368673Y-67700938D01*
X105171052Y-67796107D01*
X105102111Y-67807459D01*
X105037976Y-67779736D01*
X104999011Y-67721741D01*
X104997586Y-67651886D01*
X105001823Y-67639085D01*
X105094851Y-67402052D01*
X105094857Y-67402033D01*
X105154886Y-67139028D01*
X105154886Y-67139026D01*
X105175047Y-66870004D01*
X105175047Y-66869995D01*
X105154886Y-66600973D01*
X105154886Y-66600971D01*
X105094857Y-66337966D01*
X105094851Y-66337947D01*
X104996290Y-66086818D01*
X104996291Y-66086818D01*
X104861397Y-65853177D01*
X104807704Y-65785847D01*
X104085846Y-66507705D01*
X104078951Y-66491058D01*
X103991401Y-66360030D01*
X103879970Y-66248599D01*
X103748942Y-66161049D01*
X103732294Y-66154153D01*
X104455150Y-65431296D01*
X104272517Y-65306779D01*
X104272516Y-65306778D01*
X104029460Y-65189730D01*
X104029462Y-65189730D01*
X103771662Y-65110209D01*
X103771656Y-65110207D01*
X103504898Y-65070000D01*
X103235101Y-65070000D01*
X102968343Y-65110207D01*
X102968337Y-65110209D01*
X102710538Y-65189730D01*
X102467485Y-65306778D01*
X102467476Y-65306783D01*
X102284848Y-65431296D01*
X103007705Y-66154153D01*
X102991058Y-66161049D01*
X102860030Y-66248599D01*
X102748599Y-66360030D01*
X102661049Y-66491058D01*
X102654153Y-66507706D01*
X101932295Y-65785848D01*
X101878600Y-65853180D01*
X101743709Y-66086818D01*
X101645148Y-66337947D01*
X101645142Y-66337966D01*
X101585113Y-66600971D01*
X101585113Y-66600973D01*
X101564953Y-66869995D01*
X100500500Y-66869995D01*
X100500500Y-55072626D01*
X100520185Y-55005587D01*
X100523400Y-55002801D01*
X100721054Y-55002801D01*
X100743477Y-55037691D01*
X100748360Y-55066726D01*
X100764447Y-55404450D01*
X100822071Y-55805231D01*
X100917531Y-56198722D01*
X100917534Y-56198733D01*
X101049956Y-56581340D01*
X101049966Y-56581365D01*
X101218168Y-56949675D01*
X101420621Y-57300335D01*
X101420627Y-57300343D01*
X101655485Y-57630154D01*
X101822985Y-57823460D01*
X103313098Y-56333347D01*
X103380076Y-56420635D01*
X103579365Y-56619924D01*
X103666650Y-56686900D01*
X102174928Y-58178622D01*
X102213676Y-58215568D01*
X102213695Y-58215585D01*
X102531968Y-58465877D01*
X102872594Y-58684782D01*
X103232485Y-58870319D01*
X103608383Y-59020806D01*
X103608395Y-59020810D01*
X103996882Y-59134880D01*
X103996899Y-59134884D01*
X104394460Y-59211508D01*
X104394472Y-59211510D01*
X104797554Y-59250000D01*
X105202446Y-59250000D01*
X105605527Y-59211510D01*
X105605539Y-59211508D01*
X106003100Y-59134884D01*
X106003117Y-59134880D01*
X106391604Y-59020810D01*
X106391616Y-59020806D01*
X106767507Y-58870322D01*
X106767511Y-58870320D01*
X107127406Y-58684782D01*
X107468031Y-58465877D01*
X107786314Y-58215578D01*
X107825069Y-58178622D01*
X107652055Y-58005608D01*
X150499500Y-58005608D01*
X150499500Y-76137392D01*
X150502214Y-76147521D01*
X150533608Y-76264687D01*
X150553146Y-76298527D01*
X150599500Y-76378814D01*
X150692686Y-76472000D01*
X150806814Y-76537892D01*
X150934108Y-76572000D01*
X150934110Y-76572000D01*
X162065890Y-76572000D01*
X162065892Y-76572000D01*
X162193186Y-76537892D01*
X162307314Y-76472000D01*
X162400500Y-76378814D01*
X162466392Y-76264686D01*
X162500500Y-76137392D01*
X162500500Y-66119995D01*
X189844953Y-66119995D01*
X189844953Y-66120004D01*
X189865113Y-66389026D01*
X189865113Y-66389028D01*
X189925142Y-66652033D01*
X189925148Y-66652052D01*
X190023709Y-66903181D01*
X190023708Y-66903181D01*
X190158602Y-67136822D01*
X190212294Y-67204151D01*
X190212295Y-67204151D01*
X190934153Y-66482293D01*
X190941049Y-66498942D01*
X191028599Y-66629970D01*
X191140030Y-66741401D01*
X191271058Y-66828951D01*
X191287705Y-66835846D01*
X190564848Y-67558702D01*
X190747483Y-67683220D01*
X190747485Y-67683221D01*
X190990539Y-67800269D01*
X190990537Y-67800269D01*
X191248337Y-67879790D01*
X191248343Y-67879792D01*
X191515101Y-67919999D01*
X191515110Y-67920000D01*
X191784890Y-67920000D01*
X191784898Y-67919999D01*
X192051656Y-67879792D01*
X192051662Y-67879790D01*
X192309458Y-67800270D01*
X192527927Y-67695061D01*
X192596869Y-67683709D01*
X192661003Y-67711431D01*
X192699969Y-67769426D01*
X192701394Y-67839281D01*
X192697158Y-67852081D01*
X192612583Y-68067578D01*
X192612578Y-68067590D01*
X192612576Y-68067597D01*
X192554197Y-68323374D01*
X192554196Y-68323379D01*
X192534592Y-68584995D01*
X192534592Y-68585004D01*
X192554196Y-68846620D01*
X192554197Y-68846625D01*
X192612576Y-69102402D01*
X192612578Y-69102411D01*
X192612580Y-69102416D01*
X192703862Y-69335000D01*
X192708432Y-69346643D01*
X192814256Y-69529937D01*
X192830729Y-69597837D01*
X192807876Y-69663864D01*
X192752955Y-69707055D01*
X192683402Y-69713696D01*
X192637017Y-69694390D01*
X192552526Y-69636784D01*
X192552516Y-69636778D01*
X192309460Y-69519730D01*
X192309462Y-69519730D01*
X192051662Y-69440209D01*
X192051656Y-69440207D01*
X191784898Y-69400000D01*
X191515101Y-69400000D01*
X191248343Y-69440207D01*
X191248337Y-69440209D01*
X190990538Y-69519730D01*
X190747485Y-69636778D01*
X190747476Y-69636783D01*
X190564848Y-69761296D01*
X191287705Y-70484153D01*
X191271058Y-70491049D01*
X191140030Y-70578599D01*
X191028599Y-70690030D01*
X190941049Y-70821058D01*
X190934153Y-70837705D01*
X190212295Y-70115848D01*
X190158600Y-70183180D01*
X190023709Y-70416818D01*
X189925148Y-70667947D01*
X189925142Y-70667966D01*
X189865113Y-70930971D01*
X189865113Y-70930973D01*
X189844953Y-71199995D01*
X189844953Y-71200004D01*
X189865113Y-71469026D01*
X189865113Y-71469028D01*
X189925142Y-71732033D01*
X189925148Y-71732052D01*
X190023709Y-71983181D01*
X190023708Y-71983181D01*
X190158602Y-72216822D01*
X190212294Y-72284151D01*
X190212295Y-72284151D01*
X190934153Y-71562293D01*
X190941049Y-71578942D01*
X191028599Y-71709970D01*
X191140030Y-71821401D01*
X191271058Y-71908951D01*
X191287705Y-71915846D01*
X190564848Y-72638702D01*
X190747483Y-72763220D01*
X190747485Y-72763221D01*
X190990539Y-72880269D01*
X190990537Y-72880269D01*
X191248337Y-72959790D01*
X191248343Y-72959792D01*
X191515101Y-72999999D01*
X191515110Y-73000000D01*
X191784890Y-73000000D01*
X191784898Y-72999999D01*
X192051656Y-72959792D01*
X192051662Y-72959790D01*
X192309461Y-72880269D01*
X192552521Y-72763218D01*
X192735150Y-72638702D01*
X192012294Y-71915846D01*
X192028942Y-71908951D01*
X192159970Y-71821401D01*
X192271401Y-71709970D01*
X192358951Y-71578942D01*
X192365846Y-71562294D01*
X193087703Y-72284151D01*
X193087704Y-72284150D01*
X193141393Y-72216828D01*
X193141400Y-72216817D01*
X193276290Y-71983181D01*
X193374851Y-71732052D01*
X193374857Y-71732033D01*
X193434886Y-71469028D01*
X193434886Y-71469026D01*
X193455047Y-71200004D01*
X193455047Y-71199995D01*
X193434886Y-70930973D01*
X193434886Y-70930971D01*
X193374857Y-70667966D01*
X193374851Y-70667947D01*
X193276290Y-70416818D01*
X193276291Y-70416818D01*
X193162961Y-70220527D01*
X193146488Y-70152627D01*
X193169340Y-70086600D01*
X193224261Y-70043410D01*
X193293815Y-70036768D01*
X193340197Y-70056071D01*
X193412296Y-70105228D01*
X193412301Y-70105230D01*
X193412302Y-70105231D01*
X193412303Y-70105232D01*
X193505266Y-70150000D01*
X193648673Y-70219061D01*
X193648674Y-70219061D01*
X193648677Y-70219063D01*
X193899385Y-70296396D01*
X194158818Y-70335500D01*
X194421182Y-70335500D01*
X194680615Y-70296396D01*
X194931323Y-70219063D01*
X194966056Y-70202336D01*
X195034994Y-70190985D01*
X195099128Y-70218706D01*
X195138094Y-70276701D01*
X195139520Y-70346556D01*
X195127243Y-70376056D01*
X195103708Y-70416820D01*
X195005148Y-70667947D01*
X195005142Y-70667966D01*
X194945113Y-70930971D01*
X194945113Y-70930973D01*
X194924953Y-71199995D01*
X194924953Y-71200004D01*
X194945113Y-71469026D01*
X194945113Y-71469028D01*
X195005142Y-71732033D01*
X195005148Y-71732052D01*
X195103709Y-71983181D01*
X195103708Y-71983181D01*
X195238602Y-72216822D01*
X195292294Y-72284151D01*
X196014152Y-71562293D01*
X196021049Y-71578942D01*
X196108599Y-71709970D01*
X196220030Y-71821401D01*
X196351058Y-71908951D01*
X196367705Y-71915846D01*
X195644848Y-72638702D01*
X195827483Y-72763220D01*
X195827485Y-72763221D01*
X196070539Y-72880269D01*
X196070537Y-72880269D01*
X196328337Y-72959790D01*
X196328343Y-72959792D01*
X196595101Y-72999999D01*
X196595110Y-73000000D01*
X196864890Y-73000000D01*
X196864898Y-72999999D01*
X197131656Y-72959792D01*
X197131662Y-72959790D01*
X197389461Y-72880269D01*
X197632521Y-72763218D01*
X197815150Y-72638702D01*
X197092294Y-71915846D01*
X197108942Y-71908951D01*
X197239970Y-71821401D01*
X197351401Y-71709970D01*
X197438951Y-71578942D01*
X197445846Y-71562294D01*
X198167703Y-72284151D01*
X198167704Y-72284150D01*
X198221393Y-72216828D01*
X198221400Y-72216817D01*
X198356290Y-71983181D01*
X198454851Y-71732052D01*
X198454857Y-71732033D01*
X198514886Y-71469028D01*
X198514886Y-71469026D01*
X198535047Y-71200004D01*
X198535047Y-71199995D01*
X198514886Y-70930973D01*
X198514886Y-70930971D01*
X198454857Y-70667966D01*
X198454851Y-70667947D01*
X198356290Y-70416818D01*
X198356291Y-70416818D01*
X198221397Y-70183177D01*
X198167704Y-70115847D01*
X197445846Y-70837705D01*
X197438951Y-70821058D01*
X197351401Y-70690030D01*
X197239970Y-70578599D01*
X197108942Y-70491049D01*
X197092293Y-70484153D01*
X197815150Y-69761296D01*
X197632517Y-69636779D01*
X197632516Y-69636778D01*
X197389460Y-69519730D01*
X197389462Y-69519730D01*
X197131662Y-69440209D01*
X197131656Y-69440207D01*
X196864898Y-69400000D01*
X196595101Y-69400000D01*
X196328343Y-69440207D01*
X196328337Y-69440209D01*
X196070544Y-69519728D01*
X196018711Y-69544690D01*
X195949769Y-69556041D01*
X195885635Y-69528318D01*
X195846670Y-69470323D01*
X195845245Y-69400468D01*
X195857522Y-69370970D01*
X195871568Y-69346643D01*
X195967420Y-69102416D01*
X196025802Y-68846630D01*
X196035520Y-68716950D01*
X196045408Y-68585004D01*
X196045408Y-68584995D01*
X196025803Y-68323379D01*
X196025802Y-68323374D01*
X196025802Y-68323370D01*
X195967420Y-68067584D01*
X195927923Y-67966949D01*
X195921755Y-67897353D01*
X195954193Y-67835470D01*
X196014938Y-67800947D01*
X196079902Y-67803157D01*
X196328337Y-67879790D01*
X196328343Y-67879792D01*
X196595101Y-67919999D01*
X196595110Y-67920000D01*
X196864890Y-67920000D01*
X196864898Y-67919999D01*
X197131656Y-67879792D01*
X197131662Y-67879790D01*
X197389461Y-67800269D01*
X197632521Y-67683218D01*
X197815150Y-67558702D01*
X197092294Y-66835846D01*
X197108942Y-66828951D01*
X197239970Y-66741401D01*
X197351401Y-66629970D01*
X197438951Y-66498942D01*
X197445846Y-66482294D01*
X198167703Y-67204151D01*
X198167704Y-67204150D01*
X198221393Y-67136828D01*
X198221400Y-67136817D01*
X198356290Y-66903181D01*
X198454851Y-66652052D01*
X198454857Y-66652033D01*
X198514886Y-66389028D01*
X198514886Y-66389026D01*
X198535047Y-66120004D01*
X198535047Y-66119995D01*
X198514886Y-65850973D01*
X198514886Y-65850971D01*
X198454857Y-65587966D01*
X198454851Y-65587947D01*
X198356290Y-65336818D01*
X198356291Y-65336818D01*
X198221397Y-65103177D01*
X198167704Y-65035847D01*
X197445846Y-65757705D01*
X197438951Y-65741058D01*
X197351401Y-65610030D01*
X197239970Y-65498599D01*
X197108942Y-65411049D01*
X197092294Y-65404153D01*
X197815150Y-64681296D01*
X197632517Y-64556779D01*
X197632516Y-64556778D01*
X197389460Y-64439730D01*
X197389462Y-64439730D01*
X197131662Y-64360209D01*
X197131656Y-64360207D01*
X196864898Y-64320000D01*
X196595101Y-64320000D01*
X196328343Y-64360207D01*
X196328337Y-64360209D01*
X196070538Y-64439730D01*
X195827485Y-64556778D01*
X195827476Y-64556783D01*
X195644848Y-64681296D01*
X196367705Y-65404153D01*
X196351058Y-65411049D01*
X196220030Y-65498599D01*
X196108599Y-65610030D01*
X196021049Y-65741058D01*
X196014153Y-65757706D01*
X195292295Y-65035848D01*
X195238600Y-65103180D01*
X195103709Y-65336818D01*
X195005148Y-65587947D01*
X195005142Y-65587966D01*
X194945113Y-65850971D01*
X194945113Y-65850973D01*
X194924953Y-66119995D01*
X194924953Y-66120004D01*
X194945113Y-66389026D01*
X194945113Y-66389028D01*
X195005142Y-66652033D01*
X195005148Y-66652052D01*
X195054706Y-66778324D01*
X195060875Y-66847921D01*
X195028437Y-66909804D01*
X194967692Y-66944327D01*
X194902729Y-66942117D01*
X194797973Y-66909804D01*
X194680623Y-66873606D01*
X194680619Y-66873605D01*
X194680615Y-66873604D01*
X194555823Y-66854794D01*
X194421187Y-66834500D01*
X194421182Y-66834500D01*
X194158818Y-66834500D01*
X194158812Y-66834500D01*
X193997247Y-66858853D01*
X193899385Y-66873604D01*
X193899382Y-66873605D01*
X193899376Y-66873606D01*
X193648673Y-66950938D01*
X193451052Y-67046107D01*
X193382111Y-67057459D01*
X193317976Y-67029736D01*
X193279011Y-66971741D01*
X193277586Y-66901886D01*
X193281823Y-66889085D01*
X193374851Y-66652052D01*
X193374857Y-66652033D01*
X193434886Y-66389028D01*
X193434886Y-66389026D01*
X193455047Y-66120004D01*
X193455047Y-66119995D01*
X193434886Y-65850973D01*
X193434886Y-65850971D01*
X193374857Y-65587966D01*
X193374851Y-65587947D01*
X193276290Y-65336818D01*
X193276291Y-65336818D01*
X193141397Y-65103177D01*
X193087704Y-65035847D01*
X192365846Y-65757705D01*
X192358951Y-65741058D01*
X192271401Y-65610030D01*
X192159970Y-65498599D01*
X192028942Y-65411049D01*
X192012294Y-65404153D01*
X192735150Y-64681296D01*
X192552517Y-64556779D01*
X192552516Y-64556778D01*
X192309460Y-64439730D01*
X192309462Y-64439730D01*
X192051662Y-64360209D01*
X192051656Y-64360207D01*
X191784898Y-64320000D01*
X191515101Y-64320000D01*
X191248343Y-64360207D01*
X191248337Y-64360209D01*
X190990538Y-64439730D01*
X190747485Y-64556778D01*
X190747476Y-64556783D01*
X190564848Y-64681296D01*
X191287705Y-65404153D01*
X191271058Y-65411049D01*
X191140030Y-65498599D01*
X191028599Y-65610030D01*
X190941049Y-65741058D01*
X190934153Y-65757705D01*
X190212295Y-65035848D01*
X190158600Y-65103180D01*
X190023709Y-65336818D01*
X189925148Y-65587947D01*
X189925142Y-65587966D01*
X189865113Y-65850971D01*
X189865113Y-65850973D01*
X189844953Y-66119995D01*
X162500500Y-66119995D01*
X162500500Y-58005608D01*
X162466392Y-57878314D01*
X162400500Y-57764186D01*
X162307314Y-57671000D01*
X162250250Y-57638054D01*
X162193187Y-57605108D01*
X162129539Y-57588054D01*
X162065892Y-57571000D01*
X151065892Y-57571000D01*
X150934108Y-57571000D01*
X150806812Y-57605108D01*
X150692686Y-57671000D01*
X150692683Y-57671002D01*
X150599502Y-57764183D01*
X150599500Y-57764186D01*
X150533608Y-57878312D01*
X150499500Y-58005608D01*
X107652055Y-58005608D01*
X106333348Y-56686901D01*
X106420635Y-56619924D01*
X106619924Y-56420635D01*
X106686901Y-56333348D01*
X108177012Y-57823459D01*
X108344512Y-57630156D01*
X108344523Y-57630143D01*
X108579372Y-57300343D01*
X108579378Y-57300335D01*
X108781831Y-56949675D01*
X108950033Y-56581365D01*
X108950043Y-56581340D01*
X109082465Y-56198733D01*
X109082468Y-56198722D01*
X109177928Y-55805231D01*
X109235552Y-55404450D01*
X109254818Y-55000000D01*
X190745181Y-55000000D01*
X190764447Y-55404450D01*
X190822071Y-55805231D01*
X190917531Y-56198722D01*
X190917534Y-56198733D01*
X191049956Y-56581340D01*
X191049966Y-56581365D01*
X191218168Y-56949675D01*
X191420621Y-57300335D01*
X191420627Y-57300343D01*
X191655485Y-57630154D01*
X191822985Y-57823460D01*
X193313098Y-56333347D01*
X193380076Y-56420635D01*
X193579365Y-56619924D01*
X193666650Y-56686900D01*
X192174928Y-58178622D01*
X192213676Y-58215568D01*
X192213695Y-58215585D01*
X192531968Y-58465877D01*
X192872594Y-58684782D01*
X193232485Y-58870319D01*
X193608383Y-59020806D01*
X193608395Y-59020810D01*
X193996882Y-59134880D01*
X193996899Y-59134884D01*
X194394460Y-59211508D01*
X194394472Y-59211510D01*
X194797554Y-59250000D01*
X195202446Y-59250000D01*
X195605527Y-59211510D01*
X195605539Y-59211508D01*
X196003100Y-59134884D01*
X196003117Y-59134880D01*
X196391604Y-59020810D01*
X196391616Y-59020806D01*
X196767507Y-58870322D01*
X196767511Y-58870320D01*
X197127406Y-58684782D01*
X197468031Y-58465877D01*
X197786314Y-58215578D01*
X197825069Y-58178622D01*
X196333348Y-56686901D01*
X196420635Y-56619924D01*
X196619924Y-56420635D01*
X196686901Y-56333348D01*
X198177012Y-57823459D01*
X198344512Y-57630156D01*
X198344523Y-57630143D01*
X198579372Y-57300343D01*
X198579378Y-57300335D01*
X198781831Y-56949675D01*
X198950033Y-56581365D01*
X198950043Y-56581340D01*
X199082465Y-56198733D01*
X199082468Y-56198722D01*
X199177928Y-55805231D01*
X199235552Y-55404450D01*
X199251640Y-55066726D01*
X199274493Y-55000699D01*
X199278945Y-54997197D01*
X199256523Y-54962308D01*
X199251640Y-54933273D01*
X199235552Y-54595549D01*
X199177928Y-54194768D01*
X199082468Y-53801277D01*
X199082465Y-53801266D01*
X198950043Y-53418659D01*
X198950033Y-53418634D01*
X198781831Y-53050324D01*
X198579378Y-52699664D01*
X198579372Y-52699656D01*
X198344523Y-52369856D01*
X198344512Y-52369843D01*
X198177013Y-52176538D01*
X196686900Y-53666650D01*
X196619924Y-53579365D01*
X196420635Y-53380076D01*
X196333348Y-53313098D01*
X197825070Y-51821376D01*
X197786323Y-51784431D01*
X197786304Y-51784414D01*
X197468031Y-51534122D01*
X197127406Y-51315217D01*
X196767511Y-51129679D01*
X196767507Y-51129677D01*
X196391616Y-50979193D01*
X196391604Y-50979189D01*
X196003117Y-50865119D01*
X196003100Y-50865115D01*
X195605539Y-50788491D01*
X195605527Y-50788489D01*
X195202446Y-50750000D01*
X194797554Y-50750000D01*
X194394472Y-50788489D01*
X194394460Y-50788491D01*
X193996899Y-50865115D01*
X193996882Y-50865119D01*
X193608395Y-50979189D01*
X193608383Y-50979193D01*
X193232485Y-51129680D01*
X192872594Y-51315217D01*
X192531968Y-51534122D01*
X192213685Y-51784421D01*
X192213673Y-51784432D01*
X192174929Y-51821375D01*
X192174929Y-51821376D01*
X193666651Y-53313098D01*
X193579365Y-53380076D01*
X193380076Y-53579365D01*
X193313098Y-53666651D01*
X191822986Y-52176539D01*
X191655485Y-52369845D01*
X191420627Y-52699656D01*
X191420621Y-52699664D01*
X191218168Y-53050324D01*
X191049966Y-53418634D01*
X191049956Y-53418659D01*
X190917534Y-53801266D01*
X190917531Y-53801277D01*
X190822071Y-54194768D01*
X190764447Y-54595549D01*
X190745181Y-55000000D01*
X109254818Y-55000000D01*
X109235552Y-54595549D01*
X109177928Y-54194768D01*
X109082468Y-53801277D01*
X109082465Y-53801266D01*
X108950043Y-53418659D01*
X108950033Y-53418634D01*
X108781831Y-53050324D01*
X108579378Y-52699664D01*
X108579372Y-52699656D01*
X108344523Y-52369856D01*
X108344512Y-52369843D01*
X108177013Y-52176538D01*
X106686900Y-53666650D01*
X106619924Y-53579365D01*
X106420635Y-53380076D01*
X106333348Y-53313098D01*
X107825070Y-51821376D01*
X107786323Y-51784431D01*
X107786304Y-51784414D01*
X107468031Y-51534122D01*
X107127406Y-51315217D01*
X106767511Y-51129679D01*
X106767507Y-51129677D01*
X106391616Y-50979193D01*
X106391604Y-50979189D01*
X106003117Y-50865119D01*
X106003100Y-50865115D01*
X105605539Y-50788491D01*
X105605527Y-50788489D01*
X105202446Y-50750000D01*
X104797554Y-50750000D01*
X104394472Y-50788489D01*
X104394460Y-50788491D01*
X103996899Y-50865115D01*
X103996882Y-50865119D01*
X103608395Y-50979189D01*
X103608383Y-50979193D01*
X103232485Y-51129680D01*
X102872594Y-51315217D01*
X102531968Y-51534122D01*
X102213685Y-51784421D01*
X102213673Y-51784432D01*
X102174929Y-51821375D01*
X102174929Y-51821376D01*
X103666651Y-53313098D01*
X103579365Y-53380076D01*
X103380076Y-53579365D01*
X103313098Y-53666651D01*
X101822986Y-52176539D01*
X101655485Y-52369845D01*
X101420627Y-52699656D01*
X101420621Y-52699664D01*
X101218168Y-53050324D01*
X101049966Y-53418634D01*
X101049956Y-53418659D01*
X100917534Y-53801266D01*
X100917531Y-53801277D01*
X100822071Y-54194768D01*
X100764447Y-54595549D01*
X100748360Y-54933273D01*
X100725507Y-54999300D01*
X100721054Y-55002801D01*
X100523400Y-55002801D01*
X100528242Y-54998605D01*
X100503995Y-54956607D01*
X100500500Y-54927373D01*
X100500500Y-50624500D01*
X100520185Y-50557461D01*
X100572989Y-50511706D01*
X100624500Y-50500500D01*
X199375500Y-50500500D01*
X199442539Y-50520185D01*
G37*
%TD.AperFunction*%
%TD*%
M02*
