%TF.GenerationSoftware,KiCad,Pcbnew,8.0.5-dirty*%
%TF.CreationDate,2024-10-13T20:14:35-04:00*%
%TF.ProjectId,t41_2_power_amplifier,7434315f-325f-4706-9f77-65725f616d70,rev?*%
%TF.SameCoordinates,Original*%
%TF.FileFunction,Legend,Top*%
%TF.FilePolarity,Positive*%
%FSLAX46Y46*%
G04 Gerber Fmt 4.6, Leading zero omitted, Abs format (unit mm)*
G04 Created by KiCad (PCBNEW 8.0.5-dirty) date 2024-10-13 20:14:35*
%MOMM*%
%LPD*%
G01*
G04 APERTURE LIST*
G04 Aperture macros list*
%AMRoundRect*
0 Rectangle with rounded corners*
0 $1 Rounding radius*
0 $2 $3 $4 $5 $6 $7 $8 $9 X,Y pos of 4 corners*
0 Add a 4 corners polygon primitive as box body*
4,1,4,$2,$3,$4,$5,$6,$7,$8,$9,$2,$3,0*
0 Add four circle primitives for the rounded corners*
1,1,$1+$1,$2,$3*
1,1,$1+$1,$4,$5*
1,1,$1+$1,$6,$7*
1,1,$1+$1,$8,$9*
0 Add four rect primitives between the rounded corners*
20,1,$1+$1,$2,$3,$4,$5,0*
20,1,$1+$1,$4,$5,$6,$7,0*
20,1,$1+$1,$6,$7,$8,$9,0*
20,1,$1+$1,$8,$9,$2,$3,0*%
%AMFreePoly0*
4,1,9,3.862500,-0.866500,0.737500,-0.866500,0.737500,-0.450000,-0.737500,-0.450000,-0.737500,0.450000,0.737500,0.450000,0.737500,0.866500,3.862500,0.866500,3.862500,-0.866500,3.862500,-0.866500,$1*%
G04 Aperture macros list end*
%ADD10C,0.150000*%
%ADD11C,0.100000*%
%ADD12C,0.050000*%
%ADD13C,0.120000*%
%ADD14C,0.127000*%
%ADD15C,2.000000*%
%ADD16RoundRect,0.250000X-0.625000X0.312500X-0.625000X-0.312500X0.625000X-0.312500X0.625000X0.312500X0*%
%ADD17RoundRect,0.250000X-0.312500X-0.625000X0.312500X-0.625000X0.312500X0.625000X-0.312500X0.625000X0*%
%ADD18RoundRect,0.250000X0.625000X-0.312500X0.625000X0.312500X-0.625000X0.312500X-0.625000X-0.312500X0*%
%ADD19RoundRect,0.150000X0.150000X-0.512500X0.150000X0.512500X-0.150000X0.512500X-0.150000X-0.512500X0*%
%ADD20RoundRect,0.150000X-0.512500X-0.150000X0.512500X-0.150000X0.512500X0.150000X-0.512500X0.150000X0*%
%ADD21RoundRect,0.250000X0.325000X0.650000X-0.325000X0.650000X-0.325000X-0.650000X0.325000X-0.650000X0*%
%ADD22RoundRect,0.250000X-0.550000X1.500000X-0.550000X-1.500000X0.550000X-1.500000X0.550000X1.500000X0*%
%ADD23C,1.440000*%
%ADD24RoundRect,0.250000X-0.650000X0.325000X-0.650000X-0.325000X0.650000X-0.325000X0.650000X0.325000X0*%
%ADD25RoundRect,0.250000X-0.325000X-0.650000X0.325000X-0.650000X0.325000X0.650000X-0.325000X0.650000X0*%
%ADD26RoundRect,0.225000X-0.225000X0.425000X-0.225000X-0.425000X0.225000X-0.425000X0.225000X0.425000X0*%
%ADD27FreePoly0,270.000000*%
%ADD28RoundRect,0.250000X0.650000X-0.325000X0.650000X0.325000X-0.650000X0.325000X-0.650000X-0.325000X0*%
%ADD29RoundRect,0.250000X-1.400000X-1.000000X1.400000X-1.000000X1.400000X1.000000X-1.400000X1.000000X0*%
%ADD30RoundRect,0.102000X-0.785000X-1.410000X0.785000X-1.410000X0.785000X1.410000X-0.785000X1.410000X0*%
%ADD31R,1.524000X3.900000*%
%ADD32C,7.500000*%
%ADD33RoundRect,0.102000X0.735000X-1.385000X0.735000X1.385000X-0.735000X1.385000X-0.735000X-1.385000X0*%
%ADD34RoundRect,0.250000X0.312500X0.625000X-0.312500X0.625000X-0.312500X-0.625000X0.312500X-0.625000X0*%
%ADD35RoundRect,0.250000X1.075000X-0.375000X1.075000X0.375000X-1.075000X0.375000X-1.075000X-0.375000X0*%
%ADD36C,2.600000*%
%ADD37C,2.500000*%
%ADD38RoundRect,0.102000X-1.385000X-0.735000X1.385000X-0.735000X1.385000X0.735000X-1.385000X0.735000X0*%
%ADD39R,2.400000X2.400000*%
%ADD40C,2.400000*%
%ADD41C,2.100000*%
%ADD42RoundRect,0.250000X0.700000X-0.275000X0.700000X0.275000X-0.700000X0.275000X-0.700000X-0.275000X0*%
%ADD43RoundRect,0.250000X-0.275000X-0.700000X0.275000X-0.700000X0.275000X0.700000X-0.275000X0.700000X0*%
%ADD44RoundRect,0.375000X-0.625000X-0.375000X0.625000X-0.375000X0.625000X0.375000X-0.625000X0.375000X0*%
%ADD45RoundRect,0.500000X-0.500000X-1.400000X0.500000X-1.400000X0.500000X1.400000X-0.500000X1.400000X0*%
G04 APERTURE END LIST*
D10*
X167905826Y-54908628D02*
X167905826Y-53408628D01*
X168762969Y-54908628D02*
X168120112Y-54051485D01*
X168762969Y-53408628D02*
X167905826Y-54265771D01*
X169905826Y-54122914D02*
X169405826Y-54122914D01*
X169405826Y-54908628D02*
X169405826Y-53408628D01*
X169405826Y-53408628D02*
X170120112Y-53408628D01*
X171405826Y-53408628D02*
X170691540Y-53408628D01*
X170691540Y-53408628D02*
X170620112Y-54122914D01*
X170620112Y-54122914D02*
X170691540Y-54051485D01*
X170691540Y-54051485D02*
X170834398Y-53980057D01*
X170834398Y-53980057D02*
X171191540Y-53980057D01*
X171191540Y-53980057D02*
X171334398Y-54051485D01*
X171334398Y-54051485D02*
X171405826Y-54122914D01*
X171405826Y-54122914D02*
X171477255Y-54265771D01*
X171477255Y-54265771D02*
X171477255Y-54622914D01*
X171477255Y-54622914D02*
X171405826Y-54765771D01*
X171405826Y-54765771D02*
X171334398Y-54837200D01*
X171334398Y-54837200D02*
X171191540Y-54908628D01*
X171191540Y-54908628D02*
X170834398Y-54908628D01*
X170834398Y-54908628D02*
X170691540Y-54837200D01*
X170691540Y-54837200D02*
X170620112Y-54765771D01*
X172120111Y-54908628D02*
X172120111Y-53408628D01*
X172120111Y-53408628D02*
X172977254Y-54908628D01*
X172977254Y-54908628D02*
X172977254Y-53408628D01*
X137441541Y-53358628D02*
X138298684Y-53358628D01*
X137870112Y-54858628D02*
X137870112Y-53358628D01*
X139441541Y-53858628D02*
X139441541Y-54858628D01*
X139084398Y-53287200D02*
X138727255Y-54358628D01*
X138727255Y-54358628D02*
X139655826Y-54358628D01*
X141012969Y-54858628D02*
X140155826Y-54858628D01*
X140584397Y-54858628D02*
X140584397Y-53358628D01*
X140584397Y-53358628D02*
X140441540Y-53572914D01*
X140441540Y-53572914D02*
X140298683Y-53715771D01*
X140298683Y-53715771D02*
X140155826Y-53787200D01*
X141655825Y-54287200D02*
X142798683Y-54287200D01*
X143441540Y-53501485D02*
X143512968Y-53430057D01*
X143512968Y-53430057D02*
X143655826Y-53358628D01*
X143655826Y-53358628D02*
X144012968Y-53358628D01*
X144012968Y-53358628D02*
X144155826Y-53430057D01*
X144155826Y-53430057D02*
X144227254Y-53501485D01*
X144227254Y-53501485D02*
X144298683Y-53644342D01*
X144298683Y-53644342D02*
X144298683Y-53787200D01*
X144298683Y-53787200D02*
X144227254Y-54001485D01*
X144227254Y-54001485D02*
X143370111Y-54858628D01*
X143370111Y-54858628D02*
X144298683Y-54858628D01*
X146084396Y-54858628D02*
X146084396Y-53358628D01*
X146084396Y-53358628D02*
X146655825Y-53358628D01*
X146655825Y-53358628D02*
X146798682Y-53430057D01*
X146798682Y-53430057D02*
X146870111Y-53501485D01*
X146870111Y-53501485D02*
X146941539Y-53644342D01*
X146941539Y-53644342D02*
X146941539Y-53858628D01*
X146941539Y-53858628D02*
X146870111Y-54001485D01*
X146870111Y-54001485D02*
X146798682Y-54072914D01*
X146798682Y-54072914D02*
X146655825Y-54144342D01*
X146655825Y-54144342D02*
X146084396Y-54144342D01*
X147870111Y-53358628D02*
X148155825Y-53358628D01*
X148155825Y-53358628D02*
X148298682Y-53430057D01*
X148298682Y-53430057D02*
X148441539Y-53572914D01*
X148441539Y-53572914D02*
X148512968Y-53858628D01*
X148512968Y-53858628D02*
X148512968Y-54358628D01*
X148512968Y-54358628D02*
X148441539Y-54644342D01*
X148441539Y-54644342D02*
X148298682Y-54787200D01*
X148298682Y-54787200D02*
X148155825Y-54858628D01*
X148155825Y-54858628D02*
X147870111Y-54858628D01*
X147870111Y-54858628D02*
X147727254Y-54787200D01*
X147727254Y-54787200D02*
X147584396Y-54644342D01*
X147584396Y-54644342D02*
X147512968Y-54358628D01*
X147512968Y-54358628D02*
X147512968Y-53858628D01*
X147512968Y-53858628D02*
X147584396Y-53572914D01*
X147584396Y-53572914D02*
X147727254Y-53430057D01*
X147727254Y-53430057D02*
X147870111Y-53358628D01*
X149012968Y-53358628D02*
X149370111Y-54858628D01*
X149370111Y-54858628D02*
X149655825Y-53787200D01*
X149655825Y-53787200D02*
X149941540Y-54858628D01*
X149941540Y-54858628D02*
X150298683Y-53358628D01*
X150870111Y-54072914D02*
X151370111Y-54072914D01*
X151584397Y-54858628D02*
X150870111Y-54858628D01*
X150870111Y-54858628D02*
X150870111Y-53358628D01*
X150870111Y-53358628D02*
X151584397Y-53358628D01*
X153084397Y-54858628D02*
X152584397Y-54144342D01*
X152227254Y-54858628D02*
X152227254Y-53358628D01*
X152227254Y-53358628D02*
X152798683Y-53358628D01*
X152798683Y-53358628D02*
X152941540Y-53430057D01*
X152941540Y-53430057D02*
X153012969Y-53501485D01*
X153012969Y-53501485D02*
X153084397Y-53644342D01*
X153084397Y-53644342D02*
X153084397Y-53858628D01*
X153084397Y-53858628D02*
X153012969Y-54001485D01*
X153012969Y-54001485D02*
X152941540Y-54072914D01*
X152941540Y-54072914D02*
X152798683Y-54144342D01*
X152798683Y-54144342D02*
X152227254Y-54144342D01*
X154798683Y-54430057D02*
X155512969Y-54430057D01*
X154655826Y-54858628D02*
X155155826Y-53358628D01*
X155155826Y-53358628D02*
X155655826Y-54858628D01*
X156155825Y-54858628D02*
X156155825Y-53358628D01*
X156155825Y-53358628D02*
X156655825Y-54430057D01*
X156655825Y-54430057D02*
X157155825Y-53358628D01*
X157155825Y-53358628D02*
X157155825Y-54858628D01*
X157870111Y-54858628D02*
X157870111Y-53358628D01*
X157870111Y-53358628D02*
X158441540Y-53358628D01*
X158441540Y-53358628D02*
X158584397Y-53430057D01*
X158584397Y-53430057D02*
X158655826Y-53501485D01*
X158655826Y-53501485D02*
X158727254Y-53644342D01*
X158727254Y-53644342D02*
X158727254Y-53858628D01*
X158727254Y-53858628D02*
X158655826Y-54001485D01*
X158655826Y-54001485D02*
X158584397Y-54072914D01*
X158584397Y-54072914D02*
X158441540Y-54144342D01*
X158441540Y-54144342D02*
X157870111Y-54144342D01*
X160084397Y-54858628D02*
X159370111Y-54858628D01*
X159370111Y-54858628D02*
X159370111Y-53358628D01*
X160584397Y-54858628D02*
X160584397Y-53358628D01*
X161798683Y-54072914D02*
X161298683Y-54072914D01*
X161298683Y-54858628D02*
X161298683Y-53358628D01*
X161298683Y-53358628D02*
X162012969Y-53358628D01*
X162584397Y-54858628D02*
X162584397Y-53358628D01*
X163298683Y-54072914D02*
X163798683Y-54072914D01*
X164012969Y-54858628D02*
X163298683Y-54858628D01*
X163298683Y-54858628D02*
X163298683Y-53358628D01*
X163298683Y-53358628D02*
X164012969Y-53358628D01*
X165512969Y-54858628D02*
X165012969Y-54144342D01*
X164655826Y-54858628D02*
X164655826Y-53358628D01*
X164655826Y-53358628D02*
X165227255Y-53358628D01*
X165227255Y-53358628D02*
X165370112Y-53430057D01*
X165370112Y-53430057D02*
X165441541Y-53501485D01*
X165441541Y-53501485D02*
X165512969Y-53644342D01*
X165512969Y-53644342D02*
X165512969Y-53858628D01*
X165512969Y-53858628D02*
X165441541Y-54001485D01*
X165441541Y-54001485D02*
X165370112Y-54072914D01*
X165370112Y-54072914D02*
X165227255Y-54144342D01*
X165227255Y-54144342D02*
X164655826Y-54144342D01*
X135238095Y-81604819D02*
X135809523Y-81604819D01*
X135523809Y-82604819D02*
X135523809Y-81604819D01*
X136047619Y-81604819D02*
X136666666Y-81604819D01*
X136666666Y-81604819D02*
X136333333Y-81985771D01*
X136333333Y-81985771D02*
X136476190Y-81985771D01*
X136476190Y-81985771D02*
X136571428Y-82033390D01*
X136571428Y-82033390D02*
X136619047Y-82081009D01*
X136619047Y-82081009D02*
X136666666Y-82176247D01*
X136666666Y-82176247D02*
X136666666Y-82414342D01*
X136666666Y-82414342D02*
X136619047Y-82509580D01*
X136619047Y-82509580D02*
X136571428Y-82557200D01*
X136571428Y-82557200D02*
X136476190Y-82604819D01*
X136476190Y-82604819D02*
X136190476Y-82604819D01*
X136190476Y-82604819D02*
X136095238Y-82557200D01*
X136095238Y-82557200D02*
X136047619Y-82509580D01*
X151933333Y-82654819D02*
X151457143Y-82654819D01*
X151457143Y-82654819D02*
X151457143Y-81654819D01*
X152219048Y-81750057D02*
X152266667Y-81702438D01*
X152266667Y-81702438D02*
X152361905Y-81654819D01*
X152361905Y-81654819D02*
X152600000Y-81654819D01*
X152600000Y-81654819D02*
X152695238Y-81702438D01*
X152695238Y-81702438D02*
X152742857Y-81750057D01*
X152742857Y-81750057D02*
X152790476Y-81845295D01*
X152790476Y-81845295D02*
X152790476Y-81940533D01*
X152790476Y-81940533D02*
X152742857Y-82083390D01*
X152742857Y-82083390D02*
X152171429Y-82654819D01*
X152171429Y-82654819D02*
X152790476Y-82654819D01*
X177238095Y-72954819D02*
X177809523Y-72954819D01*
X177523809Y-73954819D02*
X177523809Y-72954819D01*
X178095238Y-73050057D02*
X178142857Y-73002438D01*
X178142857Y-73002438D02*
X178238095Y-72954819D01*
X178238095Y-72954819D02*
X178476190Y-72954819D01*
X178476190Y-72954819D02*
X178571428Y-73002438D01*
X178571428Y-73002438D02*
X178619047Y-73050057D01*
X178619047Y-73050057D02*
X178666666Y-73145295D01*
X178666666Y-73145295D02*
X178666666Y-73240533D01*
X178666666Y-73240533D02*
X178619047Y-73383390D01*
X178619047Y-73383390D02*
X178047619Y-73954819D01*
X178047619Y-73954819D02*
X178666666Y-73954819D01*
X127607142Y-70604819D02*
X127273809Y-70128628D01*
X127035714Y-70604819D02*
X127035714Y-69604819D01*
X127035714Y-69604819D02*
X127416666Y-69604819D01*
X127416666Y-69604819D02*
X127511904Y-69652438D01*
X127511904Y-69652438D02*
X127559523Y-69700057D01*
X127559523Y-69700057D02*
X127607142Y-69795295D01*
X127607142Y-69795295D02*
X127607142Y-69938152D01*
X127607142Y-69938152D02*
X127559523Y-70033390D01*
X127559523Y-70033390D02*
X127511904Y-70081009D01*
X127511904Y-70081009D02*
X127416666Y-70128628D01*
X127416666Y-70128628D02*
X127035714Y-70128628D01*
X127988095Y-69700057D02*
X128035714Y-69652438D01*
X128035714Y-69652438D02*
X128130952Y-69604819D01*
X128130952Y-69604819D02*
X128369047Y-69604819D01*
X128369047Y-69604819D02*
X128464285Y-69652438D01*
X128464285Y-69652438D02*
X128511904Y-69700057D01*
X128511904Y-69700057D02*
X128559523Y-69795295D01*
X128559523Y-69795295D02*
X128559523Y-69890533D01*
X128559523Y-69890533D02*
X128511904Y-70033390D01*
X128511904Y-70033390D02*
X127940476Y-70604819D01*
X127940476Y-70604819D02*
X128559523Y-70604819D01*
X128892857Y-69604819D02*
X129511904Y-69604819D01*
X129511904Y-69604819D02*
X129178571Y-69985771D01*
X129178571Y-69985771D02*
X129321428Y-69985771D01*
X129321428Y-69985771D02*
X129416666Y-70033390D01*
X129416666Y-70033390D02*
X129464285Y-70081009D01*
X129464285Y-70081009D02*
X129511904Y-70176247D01*
X129511904Y-70176247D02*
X129511904Y-70414342D01*
X129511904Y-70414342D02*
X129464285Y-70509580D01*
X129464285Y-70509580D02*
X129416666Y-70557200D01*
X129416666Y-70557200D02*
X129321428Y-70604819D01*
X129321428Y-70604819D02*
X129035714Y-70604819D01*
X129035714Y-70604819D02*
X128940476Y-70557200D01*
X128940476Y-70557200D02*
X128892857Y-70509580D01*
X127609523Y-72054819D02*
X127038095Y-72054819D01*
X127323809Y-72054819D02*
X127323809Y-71054819D01*
X127323809Y-71054819D02*
X127228571Y-71197676D01*
X127228571Y-71197676D02*
X127133333Y-71292914D01*
X127133333Y-71292914D02*
X127038095Y-71340533D01*
X128228571Y-71054819D02*
X128323809Y-71054819D01*
X128323809Y-71054819D02*
X128419047Y-71102438D01*
X128419047Y-71102438D02*
X128466666Y-71150057D01*
X128466666Y-71150057D02*
X128514285Y-71245295D01*
X128514285Y-71245295D02*
X128561904Y-71435771D01*
X128561904Y-71435771D02*
X128561904Y-71673866D01*
X128561904Y-71673866D02*
X128514285Y-71864342D01*
X128514285Y-71864342D02*
X128466666Y-71959580D01*
X128466666Y-71959580D02*
X128419047Y-72007200D01*
X128419047Y-72007200D02*
X128323809Y-72054819D01*
X128323809Y-72054819D02*
X128228571Y-72054819D01*
X128228571Y-72054819D02*
X128133333Y-72007200D01*
X128133333Y-72007200D02*
X128085714Y-71959580D01*
X128085714Y-71959580D02*
X128038095Y-71864342D01*
X128038095Y-71864342D02*
X127990476Y-71673866D01*
X127990476Y-71673866D02*
X127990476Y-71435771D01*
X127990476Y-71435771D02*
X128038095Y-71245295D01*
X128038095Y-71245295D02*
X128085714Y-71150057D01*
X128085714Y-71150057D02*
X128133333Y-71102438D01*
X128133333Y-71102438D02*
X128228571Y-71054819D01*
X126507142Y-75254819D02*
X126173809Y-74778628D01*
X125935714Y-75254819D02*
X125935714Y-74254819D01*
X125935714Y-74254819D02*
X126316666Y-74254819D01*
X126316666Y-74254819D02*
X126411904Y-74302438D01*
X126411904Y-74302438D02*
X126459523Y-74350057D01*
X126459523Y-74350057D02*
X126507142Y-74445295D01*
X126507142Y-74445295D02*
X126507142Y-74588152D01*
X126507142Y-74588152D02*
X126459523Y-74683390D01*
X126459523Y-74683390D02*
X126411904Y-74731009D01*
X126411904Y-74731009D02*
X126316666Y-74778628D01*
X126316666Y-74778628D02*
X125935714Y-74778628D01*
X126888095Y-74350057D02*
X126935714Y-74302438D01*
X126935714Y-74302438D02*
X127030952Y-74254819D01*
X127030952Y-74254819D02*
X127269047Y-74254819D01*
X127269047Y-74254819D02*
X127364285Y-74302438D01*
X127364285Y-74302438D02*
X127411904Y-74350057D01*
X127411904Y-74350057D02*
X127459523Y-74445295D01*
X127459523Y-74445295D02*
X127459523Y-74540533D01*
X127459523Y-74540533D02*
X127411904Y-74683390D01*
X127411904Y-74683390D02*
X126840476Y-75254819D01*
X126840476Y-75254819D02*
X127459523Y-75254819D01*
X127840476Y-74350057D02*
X127888095Y-74302438D01*
X127888095Y-74302438D02*
X127983333Y-74254819D01*
X127983333Y-74254819D02*
X128221428Y-74254819D01*
X128221428Y-74254819D02*
X128316666Y-74302438D01*
X128316666Y-74302438D02*
X128364285Y-74350057D01*
X128364285Y-74350057D02*
X128411904Y-74445295D01*
X128411904Y-74445295D02*
X128411904Y-74540533D01*
X128411904Y-74540533D02*
X128364285Y-74683390D01*
X128364285Y-74683390D02*
X127792857Y-75254819D01*
X127792857Y-75254819D02*
X128411904Y-75254819D01*
X126407142Y-76704819D02*
X125835714Y-76704819D01*
X126121428Y-76704819D02*
X126121428Y-75704819D01*
X126121428Y-75704819D02*
X126026190Y-75847676D01*
X126026190Y-75847676D02*
X125930952Y-75942914D01*
X125930952Y-75942914D02*
X125835714Y-75990533D01*
X127026190Y-75704819D02*
X127121428Y-75704819D01*
X127121428Y-75704819D02*
X127216666Y-75752438D01*
X127216666Y-75752438D02*
X127264285Y-75800057D01*
X127264285Y-75800057D02*
X127311904Y-75895295D01*
X127311904Y-75895295D02*
X127359523Y-76085771D01*
X127359523Y-76085771D02*
X127359523Y-76323866D01*
X127359523Y-76323866D02*
X127311904Y-76514342D01*
X127311904Y-76514342D02*
X127264285Y-76609580D01*
X127264285Y-76609580D02*
X127216666Y-76657200D01*
X127216666Y-76657200D02*
X127121428Y-76704819D01*
X127121428Y-76704819D02*
X127026190Y-76704819D01*
X127026190Y-76704819D02*
X126930952Y-76657200D01*
X126930952Y-76657200D02*
X126883333Y-76609580D01*
X126883333Y-76609580D02*
X126835714Y-76514342D01*
X126835714Y-76514342D02*
X126788095Y-76323866D01*
X126788095Y-76323866D02*
X126788095Y-76085771D01*
X126788095Y-76085771D02*
X126835714Y-75895295D01*
X126835714Y-75895295D02*
X126883333Y-75800057D01*
X126883333Y-75800057D02*
X126930952Y-75752438D01*
X126930952Y-75752438D02*
X127026190Y-75704819D01*
X127978571Y-75704819D02*
X128073809Y-75704819D01*
X128073809Y-75704819D02*
X128169047Y-75752438D01*
X128169047Y-75752438D02*
X128216666Y-75800057D01*
X128216666Y-75800057D02*
X128264285Y-75895295D01*
X128264285Y-75895295D02*
X128311904Y-76085771D01*
X128311904Y-76085771D02*
X128311904Y-76323866D01*
X128311904Y-76323866D02*
X128264285Y-76514342D01*
X128264285Y-76514342D02*
X128216666Y-76609580D01*
X128216666Y-76609580D02*
X128169047Y-76657200D01*
X128169047Y-76657200D02*
X128073809Y-76704819D01*
X128073809Y-76704819D02*
X127978571Y-76704819D01*
X127978571Y-76704819D02*
X127883333Y-76657200D01*
X127883333Y-76657200D02*
X127835714Y-76609580D01*
X127835714Y-76609580D02*
X127788095Y-76514342D01*
X127788095Y-76514342D02*
X127740476Y-76323866D01*
X127740476Y-76323866D02*
X127740476Y-76085771D01*
X127740476Y-76085771D02*
X127788095Y-75895295D01*
X127788095Y-75895295D02*
X127835714Y-75800057D01*
X127835714Y-75800057D02*
X127883333Y-75752438D01*
X127883333Y-75752438D02*
X127978571Y-75704819D01*
X128930952Y-75704819D02*
X129026190Y-75704819D01*
X129026190Y-75704819D02*
X129121428Y-75752438D01*
X129121428Y-75752438D02*
X129169047Y-75800057D01*
X129169047Y-75800057D02*
X129216666Y-75895295D01*
X129216666Y-75895295D02*
X129264285Y-76085771D01*
X129264285Y-76085771D02*
X129264285Y-76323866D01*
X129264285Y-76323866D02*
X129216666Y-76514342D01*
X129216666Y-76514342D02*
X129169047Y-76609580D01*
X129169047Y-76609580D02*
X129121428Y-76657200D01*
X129121428Y-76657200D02*
X129026190Y-76704819D01*
X129026190Y-76704819D02*
X128930952Y-76704819D01*
X128930952Y-76704819D02*
X128835714Y-76657200D01*
X128835714Y-76657200D02*
X128788095Y-76609580D01*
X128788095Y-76609580D02*
X128740476Y-76514342D01*
X128740476Y-76514342D02*
X128692857Y-76323866D01*
X128692857Y-76323866D02*
X128692857Y-76085771D01*
X128692857Y-76085771D02*
X128740476Y-75895295D01*
X128740476Y-75895295D02*
X128788095Y-75800057D01*
X128788095Y-75800057D02*
X128835714Y-75752438D01*
X128835714Y-75752438D02*
X128930952Y-75704819D01*
X117007142Y-74104819D02*
X116673809Y-73628628D01*
X116435714Y-74104819D02*
X116435714Y-73104819D01*
X116435714Y-73104819D02*
X116816666Y-73104819D01*
X116816666Y-73104819D02*
X116911904Y-73152438D01*
X116911904Y-73152438D02*
X116959523Y-73200057D01*
X116959523Y-73200057D02*
X117007142Y-73295295D01*
X117007142Y-73295295D02*
X117007142Y-73438152D01*
X117007142Y-73438152D02*
X116959523Y-73533390D01*
X116959523Y-73533390D02*
X116911904Y-73581009D01*
X116911904Y-73581009D02*
X116816666Y-73628628D01*
X116816666Y-73628628D02*
X116435714Y-73628628D01*
X117388095Y-73200057D02*
X117435714Y-73152438D01*
X117435714Y-73152438D02*
X117530952Y-73104819D01*
X117530952Y-73104819D02*
X117769047Y-73104819D01*
X117769047Y-73104819D02*
X117864285Y-73152438D01*
X117864285Y-73152438D02*
X117911904Y-73200057D01*
X117911904Y-73200057D02*
X117959523Y-73295295D01*
X117959523Y-73295295D02*
X117959523Y-73390533D01*
X117959523Y-73390533D02*
X117911904Y-73533390D01*
X117911904Y-73533390D02*
X117340476Y-74104819D01*
X117340476Y-74104819D02*
X117959523Y-74104819D01*
X118911904Y-74104819D02*
X118340476Y-74104819D01*
X118626190Y-74104819D02*
X118626190Y-73104819D01*
X118626190Y-73104819D02*
X118530952Y-73247676D01*
X118530952Y-73247676D02*
X118435714Y-73342914D01*
X118435714Y-73342914D02*
X118340476Y-73390533D01*
X117083333Y-75504819D02*
X116511905Y-75504819D01*
X116797619Y-75504819D02*
X116797619Y-74504819D01*
X116797619Y-74504819D02*
X116702381Y-74647676D01*
X116702381Y-74647676D02*
X116607143Y-74742914D01*
X116607143Y-74742914D02*
X116511905Y-74790533D01*
X117988095Y-74504819D02*
X117511905Y-74504819D01*
X117511905Y-74504819D02*
X117464286Y-74981009D01*
X117464286Y-74981009D02*
X117511905Y-74933390D01*
X117511905Y-74933390D02*
X117607143Y-74885771D01*
X117607143Y-74885771D02*
X117845238Y-74885771D01*
X117845238Y-74885771D02*
X117940476Y-74933390D01*
X117940476Y-74933390D02*
X117988095Y-74981009D01*
X117988095Y-74981009D02*
X118035714Y-75076247D01*
X118035714Y-75076247D02*
X118035714Y-75314342D01*
X118035714Y-75314342D02*
X117988095Y-75409580D01*
X117988095Y-75409580D02*
X117940476Y-75457200D01*
X117940476Y-75457200D02*
X117845238Y-75504819D01*
X117845238Y-75504819D02*
X117607143Y-75504819D01*
X117607143Y-75504819D02*
X117511905Y-75457200D01*
X117511905Y-75457200D02*
X117464286Y-75409580D01*
X118654762Y-74504819D02*
X118750000Y-74504819D01*
X118750000Y-74504819D02*
X118845238Y-74552438D01*
X118845238Y-74552438D02*
X118892857Y-74600057D01*
X118892857Y-74600057D02*
X118940476Y-74695295D01*
X118940476Y-74695295D02*
X118988095Y-74885771D01*
X118988095Y-74885771D02*
X118988095Y-75123866D01*
X118988095Y-75123866D02*
X118940476Y-75314342D01*
X118940476Y-75314342D02*
X118892857Y-75409580D01*
X118892857Y-75409580D02*
X118845238Y-75457200D01*
X118845238Y-75457200D02*
X118750000Y-75504819D01*
X118750000Y-75504819D02*
X118654762Y-75504819D01*
X118654762Y-75504819D02*
X118559524Y-75457200D01*
X118559524Y-75457200D02*
X118511905Y-75409580D01*
X118511905Y-75409580D02*
X118464286Y-75314342D01*
X118464286Y-75314342D02*
X118416667Y-75123866D01*
X118416667Y-75123866D02*
X118416667Y-74885771D01*
X118416667Y-74885771D02*
X118464286Y-74695295D01*
X118464286Y-74695295D02*
X118511905Y-74600057D01*
X118511905Y-74600057D02*
X118559524Y-74552438D01*
X118559524Y-74552438D02*
X118654762Y-74504819D01*
X114533333Y-61604819D02*
X114200000Y-61128628D01*
X113961905Y-61604819D02*
X113961905Y-60604819D01*
X113961905Y-60604819D02*
X114342857Y-60604819D01*
X114342857Y-60604819D02*
X114438095Y-60652438D01*
X114438095Y-60652438D02*
X114485714Y-60700057D01*
X114485714Y-60700057D02*
X114533333Y-60795295D01*
X114533333Y-60795295D02*
X114533333Y-60938152D01*
X114533333Y-60938152D02*
X114485714Y-61033390D01*
X114485714Y-61033390D02*
X114438095Y-61081009D01*
X114438095Y-61081009D02*
X114342857Y-61128628D01*
X114342857Y-61128628D02*
X113961905Y-61128628D01*
X115390476Y-60938152D02*
X115390476Y-61604819D01*
X115152381Y-60557200D02*
X114914286Y-61271485D01*
X114914286Y-61271485D02*
X115533333Y-61271485D01*
X116707142Y-61604819D02*
X116135714Y-61604819D01*
X116421428Y-61604819D02*
X116421428Y-60604819D01*
X116421428Y-60604819D02*
X116326190Y-60747676D01*
X116326190Y-60747676D02*
X116230952Y-60842914D01*
X116230952Y-60842914D02*
X116135714Y-60890533D01*
X117611904Y-60604819D02*
X117135714Y-60604819D01*
X117135714Y-60604819D02*
X117088095Y-61081009D01*
X117088095Y-61081009D02*
X117135714Y-61033390D01*
X117135714Y-61033390D02*
X117230952Y-60985771D01*
X117230952Y-60985771D02*
X117469047Y-60985771D01*
X117469047Y-60985771D02*
X117564285Y-61033390D01*
X117564285Y-61033390D02*
X117611904Y-61081009D01*
X117611904Y-61081009D02*
X117659523Y-61176247D01*
X117659523Y-61176247D02*
X117659523Y-61414342D01*
X117659523Y-61414342D02*
X117611904Y-61509580D01*
X117611904Y-61509580D02*
X117564285Y-61557200D01*
X117564285Y-61557200D02*
X117469047Y-61604819D01*
X117469047Y-61604819D02*
X117230952Y-61604819D01*
X117230952Y-61604819D02*
X117135714Y-61557200D01*
X117135714Y-61557200D02*
X117088095Y-61509580D01*
X118278571Y-60604819D02*
X118373809Y-60604819D01*
X118373809Y-60604819D02*
X118469047Y-60652438D01*
X118469047Y-60652438D02*
X118516666Y-60700057D01*
X118516666Y-60700057D02*
X118564285Y-60795295D01*
X118564285Y-60795295D02*
X118611904Y-60985771D01*
X118611904Y-60985771D02*
X118611904Y-61223866D01*
X118611904Y-61223866D02*
X118564285Y-61414342D01*
X118564285Y-61414342D02*
X118516666Y-61509580D01*
X118516666Y-61509580D02*
X118469047Y-61557200D01*
X118469047Y-61557200D02*
X118373809Y-61604819D01*
X118373809Y-61604819D02*
X118278571Y-61604819D01*
X118278571Y-61604819D02*
X118183333Y-61557200D01*
X118183333Y-61557200D02*
X118135714Y-61509580D01*
X118135714Y-61509580D02*
X118088095Y-61414342D01*
X118088095Y-61414342D02*
X118040476Y-61223866D01*
X118040476Y-61223866D02*
X118040476Y-60985771D01*
X118040476Y-60985771D02*
X118088095Y-60795295D01*
X118088095Y-60795295D02*
X118135714Y-60700057D01*
X118135714Y-60700057D02*
X118183333Y-60652438D01*
X118183333Y-60652438D02*
X118278571Y-60604819D01*
X119230952Y-60604819D02*
X119326190Y-60604819D01*
X119326190Y-60604819D02*
X119421428Y-60652438D01*
X119421428Y-60652438D02*
X119469047Y-60700057D01*
X119469047Y-60700057D02*
X119516666Y-60795295D01*
X119516666Y-60795295D02*
X119564285Y-60985771D01*
X119564285Y-60985771D02*
X119564285Y-61223866D01*
X119564285Y-61223866D02*
X119516666Y-61414342D01*
X119516666Y-61414342D02*
X119469047Y-61509580D01*
X119469047Y-61509580D02*
X119421428Y-61557200D01*
X119421428Y-61557200D02*
X119326190Y-61604819D01*
X119326190Y-61604819D02*
X119230952Y-61604819D01*
X119230952Y-61604819D02*
X119135714Y-61557200D01*
X119135714Y-61557200D02*
X119088095Y-61509580D01*
X119088095Y-61509580D02*
X119040476Y-61414342D01*
X119040476Y-61414342D02*
X118992857Y-61223866D01*
X118992857Y-61223866D02*
X118992857Y-60985771D01*
X118992857Y-60985771D02*
X119040476Y-60795295D01*
X119040476Y-60795295D02*
X119088095Y-60700057D01*
X119088095Y-60700057D02*
X119135714Y-60652438D01*
X119135714Y-60652438D02*
X119230952Y-60604819D01*
X120533333Y-62054819D02*
X120200000Y-61578628D01*
X119961905Y-62054819D02*
X119961905Y-61054819D01*
X119961905Y-61054819D02*
X120342857Y-61054819D01*
X120342857Y-61054819D02*
X120438095Y-61102438D01*
X120438095Y-61102438D02*
X120485714Y-61150057D01*
X120485714Y-61150057D02*
X120533333Y-61245295D01*
X120533333Y-61245295D02*
X120533333Y-61388152D01*
X120533333Y-61388152D02*
X120485714Y-61483390D01*
X120485714Y-61483390D02*
X120438095Y-61531009D01*
X120438095Y-61531009D02*
X120342857Y-61578628D01*
X120342857Y-61578628D02*
X119961905Y-61578628D01*
X120866667Y-61054819D02*
X121485714Y-61054819D01*
X121485714Y-61054819D02*
X121152381Y-61435771D01*
X121152381Y-61435771D02*
X121295238Y-61435771D01*
X121295238Y-61435771D02*
X121390476Y-61483390D01*
X121390476Y-61483390D02*
X121438095Y-61531009D01*
X121438095Y-61531009D02*
X121485714Y-61626247D01*
X121485714Y-61626247D02*
X121485714Y-61864342D01*
X121485714Y-61864342D02*
X121438095Y-61959580D01*
X121438095Y-61959580D02*
X121390476Y-62007200D01*
X121390476Y-62007200D02*
X121295238Y-62054819D01*
X121295238Y-62054819D02*
X121009524Y-62054819D01*
X121009524Y-62054819D02*
X120914286Y-62007200D01*
X120914286Y-62007200D02*
X120866667Y-61959580D01*
X122957142Y-62054819D02*
X122385714Y-62054819D01*
X122671428Y-62054819D02*
X122671428Y-61054819D01*
X122671428Y-61054819D02*
X122576190Y-61197676D01*
X122576190Y-61197676D02*
X122480952Y-61292914D01*
X122480952Y-61292914D02*
X122385714Y-61340533D01*
X123576190Y-61054819D02*
X123671428Y-61054819D01*
X123671428Y-61054819D02*
X123766666Y-61102438D01*
X123766666Y-61102438D02*
X123814285Y-61150057D01*
X123814285Y-61150057D02*
X123861904Y-61245295D01*
X123861904Y-61245295D02*
X123909523Y-61435771D01*
X123909523Y-61435771D02*
X123909523Y-61673866D01*
X123909523Y-61673866D02*
X123861904Y-61864342D01*
X123861904Y-61864342D02*
X123814285Y-61959580D01*
X123814285Y-61959580D02*
X123766666Y-62007200D01*
X123766666Y-62007200D02*
X123671428Y-62054819D01*
X123671428Y-62054819D02*
X123576190Y-62054819D01*
X123576190Y-62054819D02*
X123480952Y-62007200D01*
X123480952Y-62007200D02*
X123433333Y-61959580D01*
X123433333Y-61959580D02*
X123385714Y-61864342D01*
X123385714Y-61864342D02*
X123338095Y-61673866D01*
X123338095Y-61673866D02*
X123338095Y-61435771D01*
X123338095Y-61435771D02*
X123385714Y-61245295D01*
X123385714Y-61245295D02*
X123433333Y-61150057D01*
X123433333Y-61150057D02*
X123480952Y-61102438D01*
X123480952Y-61102438D02*
X123576190Y-61054819D01*
X124528571Y-61054819D02*
X124623809Y-61054819D01*
X124623809Y-61054819D02*
X124719047Y-61102438D01*
X124719047Y-61102438D02*
X124766666Y-61150057D01*
X124766666Y-61150057D02*
X124814285Y-61245295D01*
X124814285Y-61245295D02*
X124861904Y-61435771D01*
X124861904Y-61435771D02*
X124861904Y-61673866D01*
X124861904Y-61673866D02*
X124814285Y-61864342D01*
X124814285Y-61864342D02*
X124766666Y-61959580D01*
X124766666Y-61959580D02*
X124719047Y-62007200D01*
X124719047Y-62007200D02*
X124623809Y-62054819D01*
X124623809Y-62054819D02*
X124528571Y-62054819D01*
X124528571Y-62054819D02*
X124433333Y-62007200D01*
X124433333Y-62007200D02*
X124385714Y-61959580D01*
X124385714Y-61959580D02*
X124338095Y-61864342D01*
X124338095Y-61864342D02*
X124290476Y-61673866D01*
X124290476Y-61673866D02*
X124290476Y-61435771D01*
X124290476Y-61435771D02*
X124338095Y-61245295D01*
X124338095Y-61245295D02*
X124385714Y-61150057D01*
X124385714Y-61150057D02*
X124433333Y-61102438D01*
X124433333Y-61102438D02*
X124528571Y-61054819D01*
X125480952Y-61054819D02*
X125576190Y-61054819D01*
X125576190Y-61054819D02*
X125671428Y-61102438D01*
X125671428Y-61102438D02*
X125719047Y-61150057D01*
X125719047Y-61150057D02*
X125766666Y-61245295D01*
X125766666Y-61245295D02*
X125814285Y-61435771D01*
X125814285Y-61435771D02*
X125814285Y-61673866D01*
X125814285Y-61673866D02*
X125766666Y-61864342D01*
X125766666Y-61864342D02*
X125719047Y-61959580D01*
X125719047Y-61959580D02*
X125671428Y-62007200D01*
X125671428Y-62007200D02*
X125576190Y-62054819D01*
X125576190Y-62054819D02*
X125480952Y-62054819D01*
X125480952Y-62054819D02*
X125385714Y-62007200D01*
X125385714Y-62007200D02*
X125338095Y-61959580D01*
X125338095Y-61959580D02*
X125290476Y-61864342D01*
X125290476Y-61864342D02*
X125242857Y-61673866D01*
X125242857Y-61673866D02*
X125242857Y-61435771D01*
X125242857Y-61435771D02*
X125290476Y-61245295D01*
X125290476Y-61245295D02*
X125338095Y-61150057D01*
X125338095Y-61150057D02*
X125385714Y-61102438D01*
X125385714Y-61102438D02*
X125480952Y-61054819D01*
X119954761Y-74650057D02*
X119859523Y-74602438D01*
X119859523Y-74602438D02*
X119764285Y-74507200D01*
X119764285Y-74507200D02*
X119621428Y-74364342D01*
X119621428Y-74364342D02*
X119526190Y-74316723D01*
X119526190Y-74316723D02*
X119430952Y-74316723D01*
X119478571Y-74554819D02*
X119383333Y-74507200D01*
X119383333Y-74507200D02*
X119288095Y-74411961D01*
X119288095Y-74411961D02*
X119240476Y-74221485D01*
X119240476Y-74221485D02*
X119240476Y-73888152D01*
X119240476Y-73888152D02*
X119288095Y-73697676D01*
X119288095Y-73697676D02*
X119383333Y-73602438D01*
X119383333Y-73602438D02*
X119478571Y-73554819D01*
X119478571Y-73554819D02*
X119669047Y-73554819D01*
X119669047Y-73554819D02*
X119764285Y-73602438D01*
X119764285Y-73602438D02*
X119859523Y-73697676D01*
X119859523Y-73697676D02*
X119907142Y-73888152D01*
X119907142Y-73888152D02*
X119907142Y-74221485D01*
X119907142Y-74221485D02*
X119859523Y-74411961D01*
X119859523Y-74411961D02*
X119764285Y-74507200D01*
X119764285Y-74507200D02*
X119669047Y-74554819D01*
X119669047Y-74554819D02*
X119478571Y-74554819D01*
X120478571Y-73983390D02*
X120383333Y-73935771D01*
X120383333Y-73935771D02*
X120335714Y-73888152D01*
X120335714Y-73888152D02*
X120288095Y-73792914D01*
X120288095Y-73792914D02*
X120288095Y-73745295D01*
X120288095Y-73745295D02*
X120335714Y-73650057D01*
X120335714Y-73650057D02*
X120383333Y-73602438D01*
X120383333Y-73602438D02*
X120478571Y-73554819D01*
X120478571Y-73554819D02*
X120669047Y-73554819D01*
X120669047Y-73554819D02*
X120764285Y-73602438D01*
X120764285Y-73602438D02*
X120811904Y-73650057D01*
X120811904Y-73650057D02*
X120859523Y-73745295D01*
X120859523Y-73745295D02*
X120859523Y-73792914D01*
X120859523Y-73792914D02*
X120811904Y-73888152D01*
X120811904Y-73888152D02*
X120764285Y-73935771D01*
X120764285Y-73935771D02*
X120669047Y-73983390D01*
X120669047Y-73983390D02*
X120478571Y-73983390D01*
X120478571Y-73983390D02*
X120383333Y-74031009D01*
X120383333Y-74031009D02*
X120335714Y-74078628D01*
X120335714Y-74078628D02*
X120288095Y-74173866D01*
X120288095Y-74173866D02*
X120288095Y-74364342D01*
X120288095Y-74364342D02*
X120335714Y-74459580D01*
X120335714Y-74459580D02*
X120383333Y-74507200D01*
X120383333Y-74507200D02*
X120478571Y-74554819D01*
X120478571Y-74554819D02*
X120669047Y-74554819D01*
X120669047Y-74554819D02*
X120764285Y-74507200D01*
X120764285Y-74507200D02*
X120811904Y-74459580D01*
X120811904Y-74459580D02*
X120859523Y-74364342D01*
X120859523Y-74364342D02*
X120859523Y-74173866D01*
X120859523Y-74173866D02*
X120811904Y-74078628D01*
X120811904Y-74078628D02*
X120764285Y-74031009D01*
X120764285Y-74031009D02*
X120669047Y-73983390D01*
X124904761Y-66450057D02*
X124809523Y-66402438D01*
X124809523Y-66402438D02*
X124714285Y-66307200D01*
X124714285Y-66307200D02*
X124571428Y-66164342D01*
X124571428Y-66164342D02*
X124476190Y-66116723D01*
X124476190Y-66116723D02*
X124380952Y-66116723D01*
X124428571Y-66354819D02*
X124333333Y-66307200D01*
X124333333Y-66307200D02*
X124238095Y-66211961D01*
X124238095Y-66211961D02*
X124190476Y-66021485D01*
X124190476Y-66021485D02*
X124190476Y-65688152D01*
X124190476Y-65688152D02*
X124238095Y-65497676D01*
X124238095Y-65497676D02*
X124333333Y-65402438D01*
X124333333Y-65402438D02*
X124428571Y-65354819D01*
X124428571Y-65354819D02*
X124619047Y-65354819D01*
X124619047Y-65354819D02*
X124714285Y-65402438D01*
X124714285Y-65402438D02*
X124809523Y-65497676D01*
X124809523Y-65497676D02*
X124857142Y-65688152D01*
X124857142Y-65688152D02*
X124857142Y-66021485D01*
X124857142Y-66021485D02*
X124809523Y-66211961D01*
X124809523Y-66211961D02*
X124714285Y-66307200D01*
X124714285Y-66307200D02*
X124619047Y-66354819D01*
X124619047Y-66354819D02*
X124428571Y-66354819D01*
X125190476Y-65354819D02*
X125857142Y-65354819D01*
X125857142Y-65354819D02*
X125428571Y-66354819D01*
X122582142Y-80559580D02*
X122534523Y-80607200D01*
X122534523Y-80607200D02*
X122391666Y-80654819D01*
X122391666Y-80654819D02*
X122296428Y-80654819D01*
X122296428Y-80654819D02*
X122153571Y-80607200D01*
X122153571Y-80607200D02*
X122058333Y-80511961D01*
X122058333Y-80511961D02*
X122010714Y-80416723D01*
X122010714Y-80416723D02*
X121963095Y-80226247D01*
X121963095Y-80226247D02*
X121963095Y-80083390D01*
X121963095Y-80083390D02*
X122010714Y-79892914D01*
X122010714Y-79892914D02*
X122058333Y-79797676D01*
X122058333Y-79797676D02*
X122153571Y-79702438D01*
X122153571Y-79702438D02*
X122296428Y-79654819D01*
X122296428Y-79654819D02*
X122391666Y-79654819D01*
X122391666Y-79654819D02*
X122534523Y-79702438D01*
X122534523Y-79702438D02*
X122582142Y-79750057D01*
X122963095Y-79750057D02*
X123010714Y-79702438D01*
X123010714Y-79702438D02*
X123105952Y-79654819D01*
X123105952Y-79654819D02*
X123344047Y-79654819D01*
X123344047Y-79654819D02*
X123439285Y-79702438D01*
X123439285Y-79702438D02*
X123486904Y-79750057D01*
X123486904Y-79750057D02*
X123534523Y-79845295D01*
X123534523Y-79845295D02*
X123534523Y-79940533D01*
X123534523Y-79940533D02*
X123486904Y-80083390D01*
X123486904Y-80083390D02*
X122915476Y-80654819D01*
X122915476Y-80654819D02*
X123534523Y-80654819D01*
X124486904Y-80654819D02*
X123915476Y-80654819D01*
X124201190Y-80654819D02*
X124201190Y-79654819D01*
X124201190Y-79654819D02*
X124105952Y-79797676D01*
X124105952Y-79797676D02*
X124010714Y-79892914D01*
X124010714Y-79892914D02*
X123915476Y-79940533D01*
X121557143Y-80954819D02*
X121652381Y-80954819D01*
X121652381Y-80954819D02*
X121747619Y-81002438D01*
X121747619Y-81002438D02*
X121795238Y-81050057D01*
X121795238Y-81050057D02*
X121842857Y-81145295D01*
X121842857Y-81145295D02*
X121890476Y-81335771D01*
X121890476Y-81335771D02*
X121890476Y-81573866D01*
X121890476Y-81573866D02*
X121842857Y-81764342D01*
X121842857Y-81764342D02*
X121795238Y-81859580D01*
X121795238Y-81859580D02*
X121747619Y-81907200D01*
X121747619Y-81907200D02*
X121652381Y-81954819D01*
X121652381Y-81954819D02*
X121557143Y-81954819D01*
X121557143Y-81954819D02*
X121461905Y-81907200D01*
X121461905Y-81907200D02*
X121414286Y-81859580D01*
X121414286Y-81859580D02*
X121366667Y-81764342D01*
X121366667Y-81764342D02*
X121319048Y-81573866D01*
X121319048Y-81573866D02*
X121319048Y-81335771D01*
X121319048Y-81335771D02*
X121366667Y-81145295D01*
X121366667Y-81145295D02*
X121414286Y-81050057D01*
X121414286Y-81050057D02*
X121461905Y-81002438D01*
X121461905Y-81002438D02*
X121557143Y-80954819D01*
X122319048Y-81859580D02*
X122366667Y-81907200D01*
X122366667Y-81907200D02*
X122319048Y-81954819D01*
X122319048Y-81954819D02*
X122271429Y-81907200D01*
X122271429Y-81907200D02*
X122319048Y-81859580D01*
X122319048Y-81859580D02*
X122319048Y-81954819D01*
X123319047Y-81954819D02*
X122747619Y-81954819D01*
X123033333Y-81954819D02*
X123033333Y-80954819D01*
X123033333Y-80954819D02*
X122938095Y-81097676D01*
X122938095Y-81097676D02*
X122842857Y-81192914D01*
X122842857Y-81192914D02*
X122747619Y-81240533D01*
X124176190Y-81288152D02*
X124176190Y-81954819D01*
X123747619Y-81288152D02*
X123747619Y-81811961D01*
X123747619Y-81811961D02*
X123795238Y-81907200D01*
X123795238Y-81907200D02*
X123890476Y-81954819D01*
X123890476Y-81954819D02*
X124033333Y-81954819D01*
X124033333Y-81954819D02*
X124128571Y-81907200D01*
X124128571Y-81907200D02*
X124176190Y-81859580D01*
X124985714Y-81431009D02*
X124652381Y-81431009D01*
X124652381Y-81954819D02*
X124652381Y-80954819D01*
X124652381Y-80954819D02*
X125128571Y-80954819D01*
X107807142Y-64709580D02*
X107759523Y-64757200D01*
X107759523Y-64757200D02*
X107616666Y-64804819D01*
X107616666Y-64804819D02*
X107521428Y-64804819D01*
X107521428Y-64804819D02*
X107378571Y-64757200D01*
X107378571Y-64757200D02*
X107283333Y-64661961D01*
X107283333Y-64661961D02*
X107235714Y-64566723D01*
X107235714Y-64566723D02*
X107188095Y-64376247D01*
X107188095Y-64376247D02*
X107188095Y-64233390D01*
X107188095Y-64233390D02*
X107235714Y-64042914D01*
X107235714Y-64042914D02*
X107283333Y-63947676D01*
X107283333Y-63947676D02*
X107378571Y-63852438D01*
X107378571Y-63852438D02*
X107521428Y-63804819D01*
X107521428Y-63804819D02*
X107616666Y-63804819D01*
X107616666Y-63804819D02*
X107759523Y-63852438D01*
X107759523Y-63852438D02*
X107807142Y-63900057D01*
X108759523Y-64804819D02*
X108188095Y-64804819D01*
X108473809Y-64804819D02*
X108473809Y-63804819D01*
X108473809Y-63804819D02*
X108378571Y-63947676D01*
X108378571Y-63947676D02*
X108283333Y-64042914D01*
X108283333Y-64042914D02*
X108188095Y-64090533D01*
X109235714Y-64804819D02*
X109426190Y-64804819D01*
X109426190Y-64804819D02*
X109521428Y-64757200D01*
X109521428Y-64757200D02*
X109569047Y-64709580D01*
X109569047Y-64709580D02*
X109664285Y-64566723D01*
X109664285Y-64566723D02*
X109711904Y-64376247D01*
X109711904Y-64376247D02*
X109711904Y-63995295D01*
X109711904Y-63995295D02*
X109664285Y-63900057D01*
X109664285Y-63900057D02*
X109616666Y-63852438D01*
X109616666Y-63852438D02*
X109521428Y-63804819D01*
X109521428Y-63804819D02*
X109330952Y-63804819D01*
X109330952Y-63804819D02*
X109235714Y-63852438D01*
X109235714Y-63852438D02*
X109188095Y-63900057D01*
X109188095Y-63900057D02*
X109140476Y-63995295D01*
X109140476Y-63995295D02*
X109140476Y-64233390D01*
X109140476Y-64233390D02*
X109188095Y-64328628D01*
X109188095Y-64328628D02*
X109235714Y-64376247D01*
X109235714Y-64376247D02*
X109330952Y-64423866D01*
X109330952Y-64423866D02*
X109521428Y-64423866D01*
X109521428Y-64423866D02*
X109616666Y-64376247D01*
X109616666Y-64376247D02*
X109664285Y-64328628D01*
X109664285Y-64328628D02*
X109711904Y-64233390D01*
X110707143Y-63804819D02*
X110802381Y-63804819D01*
X110802381Y-63804819D02*
X110897619Y-63852438D01*
X110897619Y-63852438D02*
X110945238Y-63900057D01*
X110945238Y-63900057D02*
X110992857Y-63995295D01*
X110992857Y-63995295D02*
X111040476Y-64185771D01*
X111040476Y-64185771D02*
X111040476Y-64423866D01*
X111040476Y-64423866D02*
X110992857Y-64614342D01*
X110992857Y-64614342D02*
X110945238Y-64709580D01*
X110945238Y-64709580D02*
X110897619Y-64757200D01*
X110897619Y-64757200D02*
X110802381Y-64804819D01*
X110802381Y-64804819D02*
X110707143Y-64804819D01*
X110707143Y-64804819D02*
X110611905Y-64757200D01*
X110611905Y-64757200D02*
X110564286Y-64709580D01*
X110564286Y-64709580D02*
X110516667Y-64614342D01*
X110516667Y-64614342D02*
X110469048Y-64423866D01*
X110469048Y-64423866D02*
X110469048Y-64185771D01*
X110469048Y-64185771D02*
X110516667Y-63995295D01*
X110516667Y-63995295D02*
X110564286Y-63900057D01*
X110564286Y-63900057D02*
X110611905Y-63852438D01*
X110611905Y-63852438D02*
X110707143Y-63804819D01*
X111469048Y-64709580D02*
X111516667Y-64757200D01*
X111516667Y-64757200D02*
X111469048Y-64804819D01*
X111469048Y-64804819D02*
X111421429Y-64757200D01*
X111421429Y-64757200D02*
X111469048Y-64709580D01*
X111469048Y-64709580D02*
X111469048Y-64804819D01*
X112469047Y-64804819D02*
X111897619Y-64804819D01*
X112183333Y-64804819D02*
X112183333Y-63804819D01*
X112183333Y-63804819D02*
X112088095Y-63947676D01*
X112088095Y-63947676D02*
X111992857Y-64042914D01*
X111992857Y-64042914D02*
X111897619Y-64090533D01*
X113326190Y-64138152D02*
X113326190Y-64804819D01*
X112897619Y-64138152D02*
X112897619Y-64661961D01*
X112897619Y-64661961D02*
X112945238Y-64757200D01*
X112945238Y-64757200D02*
X113040476Y-64804819D01*
X113040476Y-64804819D02*
X113183333Y-64804819D01*
X113183333Y-64804819D02*
X113278571Y-64757200D01*
X113278571Y-64757200D02*
X113326190Y-64709580D01*
X114135714Y-64281009D02*
X113802381Y-64281009D01*
X113802381Y-64804819D02*
X113802381Y-63804819D01*
X113802381Y-63804819D02*
X114278571Y-63804819D01*
X119897142Y-107404819D02*
X119563809Y-106928628D01*
X119325714Y-107404819D02*
X119325714Y-106404819D01*
X119325714Y-106404819D02*
X119706666Y-106404819D01*
X119706666Y-106404819D02*
X119801904Y-106452438D01*
X119801904Y-106452438D02*
X119849523Y-106500057D01*
X119849523Y-106500057D02*
X119897142Y-106595295D01*
X119897142Y-106595295D02*
X119897142Y-106738152D01*
X119897142Y-106738152D02*
X119849523Y-106833390D01*
X119849523Y-106833390D02*
X119801904Y-106881009D01*
X119801904Y-106881009D02*
X119706666Y-106928628D01*
X119706666Y-106928628D02*
X119325714Y-106928628D01*
X120849523Y-107404819D02*
X120278095Y-107404819D01*
X120563809Y-107404819D02*
X120563809Y-106404819D01*
X120563809Y-106404819D02*
X120468571Y-106547676D01*
X120468571Y-106547676D02*
X120373333Y-106642914D01*
X120373333Y-106642914D02*
X120278095Y-106690533D01*
X121325714Y-107404819D02*
X121516190Y-107404819D01*
X121516190Y-107404819D02*
X121611428Y-107357200D01*
X121611428Y-107357200D02*
X121659047Y-107309580D01*
X121659047Y-107309580D02*
X121754285Y-107166723D01*
X121754285Y-107166723D02*
X121801904Y-106976247D01*
X121801904Y-106976247D02*
X121801904Y-106595295D01*
X121801904Y-106595295D02*
X121754285Y-106500057D01*
X121754285Y-106500057D02*
X121706666Y-106452438D01*
X121706666Y-106452438D02*
X121611428Y-106404819D01*
X121611428Y-106404819D02*
X121420952Y-106404819D01*
X121420952Y-106404819D02*
X121325714Y-106452438D01*
X121325714Y-106452438D02*
X121278095Y-106500057D01*
X121278095Y-106500057D02*
X121230476Y-106595295D01*
X121230476Y-106595295D02*
X121230476Y-106833390D01*
X121230476Y-106833390D02*
X121278095Y-106928628D01*
X121278095Y-106928628D02*
X121325714Y-106976247D01*
X121325714Y-106976247D02*
X121420952Y-107023866D01*
X121420952Y-107023866D02*
X121611428Y-107023866D01*
X121611428Y-107023866D02*
X121706666Y-106976247D01*
X121706666Y-106976247D02*
X121754285Y-106928628D01*
X121754285Y-106928628D02*
X121801904Y-106833390D01*
X119894761Y-108804819D02*
X119323333Y-108804819D01*
X119609047Y-108804819D02*
X119609047Y-107804819D01*
X119609047Y-107804819D02*
X119513809Y-107947676D01*
X119513809Y-107947676D02*
X119418571Y-108042914D01*
X119418571Y-108042914D02*
X119323333Y-108090533D01*
X120513809Y-107804819D02*
X120609047Y-107804819D01*
X120609047Y-107804819D02*
X120704285Y-107852438D01*
X120704285Y-107852438D02*
X120751904Y-107900057D01*
X120751904Y-107900057D02*
X120799523Y-107995295D01*
X120799523Y-107995295D02*
X120847142Y-108185771D01*
X120847142Y-108185771D02*
X120847142Y-108423866D01*
X120847142Y-108423866D02*
X120799523Y-108614342D01*
X120799523Y-108614342D02*
X120751904Y-108709580D01*
X120751904Y-108709580D02*
X120704285Y-108757200D01*
X120704285Y-108757200D02*
X120609047Y-108804819D01*
X120609047Y-108804819D02*
X120513809Y-108804819D01*
X120513809Y-108804819D02*
X120418571Y-108757200D01*
X120418571Y-108757200D02*
X120370952Y-108709580D01*
X120370952Y-108709580D02*
X120323333Y-108614342D01*
X120323333Y-108614342D02*
X120275714Y-108423866D01*
X120275714Y-108423866D02*
X120275714Y-108185771D01*
X120275714Y-108185771D02*
X120323333Y-107995295D01*
X120323333Y-107995295D02*
X120370952Y-107900057D01*
X120370952Y-107900057D02*
X120418571Y-107852438D01*
X120418571Y-107852438D02*
X120513809Y-107804819D01*
X121275714Y-108804819D02*
X121275714Y-107804819D01*
X121370952Y-108423866D02*
X121656666Y-108804819D01*
X121656666Y-108138152D02*
X121275714Y-108519104D01*
X135788095Y-118554819D02*
X135788095Y-119364342D01*
X135788095Y-119364342D02*
X135835714Y-119459580D01*
X135835714Y-119459580D02*
X135883333Y-119507200D01*
X135883333Y-119507200D02*
X135978571Y-119554819D01*
X135978571Y-119554819D02*
X136169047Y-119554819D01*
X136169047Y-119554819D02*
X136264285Y-119507200D01*
X136264285Y-119507200D02*
X136311904Y-119459580D01*
X136311904Y-119459580D02*
X136359523Y-119364342D01*
X136359523Y-119364342D02*
X136359523Y-118554819D01*
X137359523Y-119554819D02*
X136788095Y-119554819D01*
X137073809Y-119554819D02*
X137073809Y-118554819D01*
X137073809Y-118554819D02*
X136978571Y-118697676D01*
X136978571Y-118697676D02*
X136883333Y-118792914D01*
X136883333Y-118792914D02*
X136788095Y-118840533D01*
X126507142Y-124109580D02*
X126459523Y-124157200D01*
X126459523Y-124157200D02*
X126316666Y-124204819D01*
X126316666Y-124204819D02*
X126221428Y-124204819D01*
X126221428Y-124204819D02*
X126078571Y-124157200D01*
X126078571Y-124157200D02*
X125983333Y-124061961D01*
X125983333Y-124061961D02*
X125935714Y-123966723D01*
X125935714Y-123966723D02*
X125888095Y-123776247D01*
X125888095Y-123776247D02*
X125888095Y-123633390D01*
X125888095Y-123633390D02*
X125935714Y-123442914D01*
X125935714Y-123442914D02*
X125983333Y-123347676D01*
X125983333Y-123347676D02*
X126078571Y-123252438D01*
X126078571Y-123252438D02*
X126221428Y-123204819D01*
X126221428Y-123204819D02*
X126316666Y-123204819D01*
X126316666Y-123204819D02*
X126459523Y-123252438D01*
X126459523Y-123252438D02*
X126507142Y-123300057D01*
X126888095Y-123300057D02*
X126935714Y-123252438D01*
X126935714Y-123252438D02*
X127030952Y-123204819D01*
X127030952Y-123204819D02*
X127269047Y-123204819D01*
X127269047Y-123204819D02*
X127364285Y-123252438D01*
X127364285Y-123252438D02*
X127411904Y-123300057D01*
X127411904Y-123300057D02*
X127459523Y-123395295D01*
X127459523Y-123395295D02*
X127459523Y-123490533D01*
X127459523Y-123490533D02*
X127411904Y-123633390D01*
X127411904Y-123633390D02*
X126840476Y-124204819D01*
X126840476Y-124204819D02*
X127459523Y-124204819D01*
X128078571Y-123204819D02*
X128173809Y-123204819D01*
X128173809Y-123204819D02*
X128269047Y-123252438D01*
X128269047Y-123252438D02*
X128316666Y-123300057D01*
X128316666Y-123300057D02*
X128364285Y-123395295D01*
X128364285Y-123395295D02*
X128411904Y-123585771D01*
X128411904Y-123585771D02*
X128411904Y-123823866D01*
X128411904Y-123823866D02*
X128364285Y-124014342D01*
X128364285Y-124014342D02*
X128316666Y-124109580D01*
X128316666Y-124109580D02*
X128269047Y-124157200D01*
X128269047Y-124157200D02*
X128173809Y-124204819D01*
X128173809Y-124204819D02*
X128078571Y-124204819D01*
X128078571Y-124204819D02*
X127983333Y-124157200D01*
X127983333Y-124157200D02*
X127935714Y-124109580D01*
X127935714Y-124109580D02*
X127888095Y-124014342D01*
X127888095Y-124014342D02*
X127840476Y-123823866D01*
X127840476Y-123823866D02*
X127840476Y-123585771D01*
X127840476Y-123585771D02*
X127888095Y-123395295D01*
X127888095Y-123395295D02*
X127935714Y-123300057D01*
X127935714Y-123300057D02*
X127983333Y-123252438D01*
X127983333Y-123252438D02*
X128078571Y-123204819D01*
X134397618Y-124204819D02*
X133826190Y-124204819D01*
X134111904Y-124204819D02*
X134111904Y-123204819D01*
X134111904Y-123204819D02*
X134016666Y-123347676D01*
X134016666Y-123347676D02*
X133921428Y-123442914D01*
X133921428Y-123442914D02*
X133826190Y-123490533D01*
X135254761Y-123538152D02*
X135254761Y-124204819D01*
X134826190Y-123538152D02*
X134826190Y-124061961D01*
X134826190Y-124061961D02*
X134873809Y-124157200D01*
X134873809Y-124157200D02*
X134969047Y-124204819D01*
X134969047Y-124204819D02*
X135111904Y-124204819D01*
X135111904Y-124204819D02*
X135207142Y-124157200D01*
X135207142Y-124157200D02*
X135254761Y-124109580D01*
X135588095Y-123538152D02*
X135969047Y-123538152D01*
X135730952Y-124204819D02*
X135730952Y-123347676D01*
X135730952Y-123347676D02*
X135778571Y-123252438D01*
X135778571Y-123252438D02*
X135873809Y-123204819D01*
X135873809Y-123204819D02*
X135969047Y-123204819D01*
X172933333Y-136759580D02*
X172885714Y-136807200D01*
X172885714Y-136807200D02*
X172742857Y-136854819D01*
X172742857Y-136854819D02*
X172647619Y-136854819D01*
X172647619Y-136854819D02*
X172504762Y-136807200D01*
X172504762Y-136807200D02*
X172409524Y-136711961D01*
X172409524Y-136711961D02*
X172361905Y-136616723D01*
X172361905Y-136616723D02*
X172314286Y-136426247D01*
X172314286Y-136426247D02*
X172314286Y-136283390D01*
X172314286Y-136283390D02*
X172361905Y-136092914D01*
X172361905Y-136092914D02*
X172409524Y-135997676D01*
X172409524Y-135997676D02*
X172504762Y-135902438D01*
X172504762Y-135902438D02*
X172647619Y-135854819D01*
X172647619Y-135854819D02*
X172742857Y-135854819D01*
X172742857Y-135854819D02*
X172885714Y-135902438D01*
X172885714Y-135902438D02*
X172933333Y-135950057D01*
X173409524Y-136854819D02*
X173600000Y-136854819D01*
X173600000Y-136854819D02*
X173695238Y-136807200D01*
X173695238Y-136807200D02*
X173742857Y-136759580D01*
X173742857Y-136759580D02*
X173838095Y-136616723D01*
X173838095Y-136616723D02*
X173885714Y-136426247D01*
X173885714Y-136426247D02*
X173885714Y-136045295D01*
X173885714Y-136045295D02*
X173838095Y-135950057D01*
X173838095Y-135950057D02*
X173790476Y-135902438D01*
X173790476Y-135902438D02*
X173695238Y-135854819D01*
X173695238Y-135854819D02*
X173504762Y-135854819D01*
X173504762Y-135854819D02*
X173409524Y-135902438D01*
X173409524Y-135902438D02*
X173361905Y-135950057D01*
X173361905Y-135950057D02*
X173314286Y-136045295D01*
X173314286Y-136045295D02*
X173314286Y-136283390D01*
X173314286Y-136283390D02*
X173361905Y-136378628D01*
X173361905Y-136378628D02*
X173409524Y-136426247D01*
X173409524Y-136426247D02*
X173504762Y-136473866D01*
X173504762Y-136473866D02*
X173695238Y-136473866D01*
X173695238Y-136473866D02*
X173790476Y-136426247D01*
X173790476Y-136426247D02*
X173838095Y-136378628D01*
X173838095Y-136378628D02*
X173885714Y-136283390D01*
X171933333Y-137488152D02*
X171933333Y-138154819D01*
X171695238Y-137107200D02*
X171457143Y-137821485D01*
X171457143Y-137821485D02*
X172076190Y-137821485D01*
X172361905Y-137154819D02*
X173028571Y-137154819D01*
X173028571Y-137154819D02*
X172600000Y-138154819D01*
X173838095Y-137488152D02*
X173838095Y-138154819D01*
X173409524Y-137488152D02*
X173409524Y-138011961D01*
X173409524Y-138011961D02*
X173457143Y-138107200D01*
X173457143Y-138107200D02*
X173552381Y-138154819D01*
X173552381Y-138154819D02*
X173695238Y-138154819D01*
X173695238Y-138154819D02*
X173790476Y-138107200D01*
X173790476Y-138107200D02*
X173838095Y-138059580D01*
X174647619Y-137631009D02*
X174314286Y-137631009D01*
X174314286Y-138154819D02*
X174314286Y-137154819D01*
X174314286Y-137154819D02*
X174790476Y-137154819D01*
X129657142Y-74154819D02*
X129323809Y-73678628D01*
X129085714Y-74154819D02*
X129085714Y-73154819D01*
X129085714Y-73154819D02*
X129466666Y-73154819D01*
X129466666Y-73154819D02*
X129561904Y-73202438D01*
X129561904Y-73202438D02*
X129609523Y-73250057D01*
X129609523Y-73250057D02*
X129657142Y-73345295D01*
X129657142Y-73345295D02*
X129657142Y-73488152D01*
X129657142Y-73488152D02*
X129609523Y-73583390D01*
X129609523Y-73583390D02*
X129561904Y-73631009D01*
X129561904Y-73631009D02*
X129466666Y-73678628D01*
X129466666Y-73678628D02*
X129085714Y-73678628D01*
X130609523Y-74154819D02*
X130038095Y-74154819D01*
X130323809Y-74154819D02*
X130323809Y-73154819D01*
X130323809Y-73154819D02*
X130228571Y-73297676D01*
X130228571Y-73297676D02*
X130133333Y-73392914D01*
X130133333Y-73392914D02*
X130038095Y-73440533D01*
X131561904Y-74154819D02*
X130990476Y-74154819D01*
X131276190Y-74154819D02*
X131276190Y-73154819D01*
X131276190Y-73154819D02*
X131180952Y-73297676D01*
X131180952Y-73297676D02*
X131085714Y-73392914D01*
X131085714Y-73392914D02*
X130990476Y-73440533D01*
X130009524Y-74550057D02*
X130057143Y-74502438D01*
X130057143Y-74502438D02*
X130152381Y-74454819D01*
X130152381Y-74454819D02*
X130390476Y-74454819D01*
X130390476Y-74454819D02*
X130485714Y-74502438D01*
X130485714Y-74502438D02*
X130533333Y-74550057D01*
X130533333Y-74550057D02*
X130580952Y-74645295D01*
X130580952Y-74645295D02*
X130580952Y-74740533D01*
X130580952Y-74740533D02*
X130533333Y-74883390D01*
X130533333Y-74883390D02*
X129961905Y-75454819D01*
X129961905Y-75454819D02*
X130580952Y-75454819D01*
X131009524Y-75454819D02*
X131009524Y-74454819D01*
X131104762Y-75073866D02*
X131390476Y-75454819D01*
X131390476Y-74788152D02*
X131009524Y-75169104D01*
X145333333Y-76654819D02*
X145000000Y-76178628D01*
X144761905Y-76654819D02*
X144761905Y-75654819D01*
X144761905Y-75654819D02*
X145142857Y-75654819D01*
X145142857Y-75654819D02*
X145238095Y-75702438D01*
X145238095Y-75702438D02*
X145285714Y-75750057D01*
X145285714Y-75750057D02*
X145333333Y-75845295D01*
X145333333Y-75845295D02*
X145333333Y-75988152D01*
X145333333Y-75988152D02*
X145285714Y-76083390D01*
X145285714Y-76083390D02*
X145238095Y-76131009D01*
X145238095Y-76131009D02*
X145142857Y-76178628D01*
X145142857Y-76178628D02*
X144761905Y-76178628D01*
X145904762Y-76083390D02*
X145809524Y-76035771D01*
X145809524Y-76035771D02*
X145761905Y-75988152D01*
X145761905Y-75988152D02*
X145714286Y-75892914D01*
X145714286Y-75892914D02*
X145714286Y-75845295D01*
X145714286Y-75845295D02*
X145761905Y-75750057D01*
X145761905Y-75750057D02*
X145809524Y-75702438D01*
X145809524Y-75702438D02*
X145904762Y-75654819D01*
X145904762Y-75654819D02*
X146095238Y-75654819D01*
X146095238Y-75654819D02*
X146190476Y-75702438D01*
X146190476Y-75702438D02*
X146238095Y-75750057D01*
X146238095Y-75750057D02*
X146285714Y-75845295D01*
X146285714Y-75845295D02*
X146285714Y-75892914D01*
X146285714Y-75892914D02*
X146238095Y-75988152D01*
X146238095Y-75988152D02*
X146190476Y-76035771D01*
X146190476Y-76035771D02*
X146095238Y-76083390D01*
X146095238Y-76083390D02*
X145904762Y-76083390D01*
X145904762Y-76083390D02*
X145809524Y-76131009D01*
X145809524Y-76131009D02*
X145761905Y-76178628D01*
X145761905Y-76178628D02*
X145714286Y-76273866D01*
X145714286Y-76273866D02*
X145714286Y-76464342D01*
X145714286Y-76464342D02*
X145761905Y-76559580D01*
X145761905Y-76559580D02*
X145809524Y-76607200D01*
X145809524Y-76607200D02*
X145904762Y-76654819D01*
X145904762Y-76654819D02*
X146095238Y-76654819D01*
X146095238Y-76654819D02*
X146190476Y-76607200D01*
X146190476Y-76607200D02*
X146238095Y-76559580D01*
X146238095Y-76559580D02*
X146285714Y-76464342D01*
X146285714Y-76464342D02*
X146285714Y-76273866D01*
X146285714Y-76273866D02*
X146238095Y-76178628D01*
X146238095Y-76178628D02*
X146190476Y-76131009D01*
X146190476Y-76131009D02*
X146095238Y-76083390D01*
X145261904Y-77054819D02*
X144785714Y-77054819D01*
X144785714Y-77054819D02*
X144738095Y-77531009D01*
X144738095Y-77531009D02*
X144785714Y-77483390D01*
X144785714Y-77483390D02*
X144880952Y-77435771D01*
X144880952Y-77435771D02*
X145119047Y-77435771D01*
X145119047Y-77435771D02*
X145214285Y-77483390D01*
X145214285Y-77483390D02*
X145261904Y-77531009D01*
X145261904Y-77531009D02*
X145309523Y-77626247D01*
X145309523Y-77626247D02*
X145309523Y-77864342D01*
X145309523Y-77864342D02*
X145261904Y-77959580D01*
X145261904Y-77959580D02*
X145214285Y-78007200D01*
X145214285Y-78007200D02*
X145119047Y-78054819D01*
X145119047Y-78054819D02*
X144880952Y-78054819D01*
X144880952Y-78054819D02*
X144785714Y-78007200D01*
X144785714Y-78007200D02*
X144738095Y-77959580D01*
X146166666Y-77054819D02*
X145976190Y-77054819D01*
X145976190Y-77054819D02*
X145880952Y-77102438D01*
X145880952Y-77102438D02*
X145833333Y-77150057D01*
X145833333Y-77150057D02*
X145738095Y-77292914D01*
X145738095Y-77292914D02*
X145690476Y-77483390D01*
X145690476Y-77483390D02*
X145690476Y-77864342D01*
X145690476Y-77864342D02*
X145738095Y-77959580D01*
X145738095Y-77959580D02*
X145785714Y-78007200D01*
X145785714Y-78007200D02*
X145880952Y-78054819D01*
X145880952Y-78054819D02*
X146071428Y-78054819D01*
X146071428Y-78054819D02*
X146166666Y-78007200D01*
X146166666Y-78007200D02*
X146214285Y-77959580D01*
X146214285Y-77959580D02*
X146261904Y-77864342D01*
X146261904Y-77864342D02*
X146261904Y-77626247D01*
X146261904Y-77626247D02*
X146214285Y-77531009D01*
X146214285Y-77531009D02*
X146166666Y-77483390D01*
X146166666Y-77483390D02*
X146071428Y-77435771D01*
X146071428Y-77435771D02*
X145880952Y-77435771D01*
X145880952Y-77435771D02*
X145785714Y-77483390D01*
X145785714Y-77483390D02*
X145738095Y-77531009D01*
X145738095Y-77531009D02*
X145690476Y-77626247D01*
X145333333Y-71459580D02*
X145285714Y-71507200D01*
X145285714Y-71507200D02*
X145142857Y-71554819D01*
X145142857Y-71554819D02*
X145047619Y-71554819D01*
X145047619Y-71554819D02*
X144904762Y-71507200D01*
X144904762Y-71507200D02*
X144809524Y-71411961D01*
X144809524Y-71411961D02*
X144761905Y-71316723D01*
X144761905Y-71316723D02*
X144714286Y-71126247D01*
X144714286Y-71126247D02*
X144714286Y-70983390D01*
X144714286Y-70983390D02*
X144761905Y-70792914D01*
X144761905Y-70792914D02*
X144809524Y-70697676D01*
X144809524Y-70697676D02*
X144904762Y-70602438D01*
X144904762Y-70602438D02*
X145047619Y-70554819D01*
X145047619Y-70554819D02*
X145142857Y-70554819D01*
X145142857Y-70554819D02*
X145285714Y-70602438D01*
X145285714Y-70602438D02*
X145333333Y-70650057D01*
X145904762Y-70983390D02*
X145809524Y-70935771D01*
X145809524Y-70935771D02*
X145761905Y-70888152D01*
X145761905Y-70888152D02*
X145714286Y-70792914D01*
X145714286Y-70792914D02*
X145714286Y-70745295D01*
X145714286Y-70745295D02*
X145761905Y-70650057D01*
X145761905Y-70650057D02*
X145809524Y-70602438D01*
X145809524Y-70602438D02*
X145904762Y-70554819D01*
X145904762Y-70554819D02*
X146095238Y-70554819D01*
X146095238Y-70554819D02*
X146190476Y-70602438D01*
X146190476Y-70602438D02*
X146238095Y-70650057D01*
X146238095Y-70650057D02*
X146285714Y-70745295D01*
X146285714Y-70745295D02*
X146285714Y-70792914D01*
X146285714Y-70792914D02*
X146238095Y-70888152D01*
X146238095Y-70888152D02*
X146190476Y-70935771D01*
X146190476Y-70935771D02*
X146095238Y-70983390D01*
X146095238Y-70983390D02*
X145904762Y-70983390D01*
X145904762Y-70983390D02*
X145809524Y-71031009D01*
X145809524Y-71031009D02*
X145761905Y-71078628D01*
X145761905Y-71078628D02*
X145714286Y-71173866D01*
X145714286Y-71173866D02*
X145714286Y-71364342D01*
X145714286Y-71364342D02*
X145761905Y-71459580D01*
X145761905Y-71459580D02*
X145809524Y-71507200D01*
X145809524Y-71507200D02*
X145904762Y-71554819D01*
X145904762Y-71554819D02*
X146095238Y-71554819D01*
X146095238Y-71554819D02*
X146190476Y-71507200D01*
X146190476Y-71507200D02*
X146238095Y-71459580D01*
X146238095Y-71459580D02*
X146285714Y-71364342D01*
X146285714Y-71364342D02*
X146285714Y-71173866D01*
X146285714Y-71173866D02*
X146238095Y-71078628D01*
X146238095Y-71078628D02*
X146190476Y-71031009D01*
X146190476Y-71031009D02*
X146095238Y-70983390D01*
X144957143Y-71954819D02*
X145052381Y-71954819D01*
X145052381Y-71954819D02*
X145147619Y-72002438D01*
X145147619Y-72002438D02*
X145195238Y-72050057D01*
X145195238Y-72050057D02*
X145242857Y-72145295D01*
X145242857Y-72145295D02*
X145290476Y-72335771D01*
X145290476Y-72335771D02*
X145290476Y-72573866D01*
X145290476Y-72573866D02*
X145242857Y-72764342D01*
X145242857Y-72764342D02*
X145195238Y-72859580D01*
X145195238Y-72859580D02*
X145147619Y-72907200D01*
X145147619Y-72907200D02*
X145052381Y-72954819D01*
X145052381Y-72954819D02*
X144957143Y-72954819D01*
X144957143Y-72954819D02*
X144861905Y-72907200D01*
X144861905Y-72907200D02*
X144814286Y-72859580D01*
X144814286Y-72859580D02*
X144766667Y-72764342D01*
X144766667Y-72764342D02*
X144719048Y-72573866D01*
X144719048Y-72573866D02*
X144719048Y-72335771D01*
X144719048Y-72335771D02*
X144766667Y-72145295D01*
X144766667Y-72145295D02*
X144814286Y-72050057D01*
X144814286Y-72050057D02*
X144861905Y-72002438D01*
X144861905Y-72002438D02*
X144957143Y-71954819D01*
X145719048Y-72859580D02*
X145766667Y-72907200D01*
X145766667Y-72907200D02*
X145719048Y-72954819D01*
X145719048Y-72954819D02*
X145671429Y-72907200D01*
X145671429Y-72907200D02*
X145719048Y-72859580D01*
X145719048Y-72859580D02*
X145719048Y-72954819D01*
X146719047Y-72954819D02*
X146147619Y-72954819D01*
X146433333Y-72954819D02*
X146433333Y-71954819D01*
X146433333Y-71954819D02*
X146338095Y-72097676D01*
X146338095Y-72097676D02*
X146242857Y-72192914D01*
X146242857Y-72192914D02*
X146147619Y-72240533D01*
X147576190Y-72288152D02*
X147576190Y-72954819D01*
X147147619Y-72288152D02*
X147147619Y-72811961D01*
X147147619Y-72811961D02*
X147195238Y-72907200D01*
X147195238Y-72907200D02*
X147290476Y-72954819D01*
X147290476Y-72954819D02*
X147433333Y-72954819D01*
X147433333Y-72954819D02*
X147528571Y-72907200D01*
X147528571Y-72907200D02*
X147576190Y-72859580D01*
X148385714Y-72431009D02*
X148052381Y-72431009D01*
X148052381Y-72954819D02*
X148052381Y-71954819D01*
X148052381Y-71954819D02*
X148528571Y-71954819D01*
X129557142Y-114759580D02*
X129509523Y-114807200D01*
X129509523Y-114807200D02*
X129366666Y-114854819D01*
X129366666Y-114854819D02*
X129271428Y-114854819D01*
X129271428Y-114854819D02*
X129128571Y-114807200D01*
X129128571Y-114807200D02*
X129033333Y-114711961D01*
X129033333Y-114711961D02*
X128985714Y-114616723D01*
X128985714Y-114616723D02*
X128938095Y-114426247D01*
X128938095Y-114426247D02*
X128938095Y-114283390D01*
X128938095Y-114283390D02*
X128985714Y-114092914D01*
X128985714Y-114092914D02*
X129033333Y-113997676D01*
X129033333Y-113997676D02*
X129128571Y-113902438D01*
X129128571Y-113902438D02*
X129271428Y-113854819D01*
X129271428Y-113854819D02*
X129366666Y-113854819D01*
X129366666Y-113854819D02*
X129509523Y-113902438D01*
X129509523Y-113902438D02*
X129557142Y-113950057D01*
X130509523Y-114854819D02*
X129938095Y-114854819D01*
X130223809Y-114854819D02*
X130223809Y-113854819D01*
X130223809Y-113854819D02*
X130128571Y-113997676D01*
X130128571Y-113997676D02*
X130033333Y-114092914D01*
X130033333Y-114092914D02*
X129938095Y-114140533D01*
X131366666Y-114188152D02*
X131366666Y-114854819D01*
X131128571Y-113807200D02*
X130890476Y-114521485D01*
X130890476Y-114521485D02*
X131509523Y-114521485D01*
X127907143Y-115304819D02*
X128002381Y-115304819D01*
X128002381Y-115304819D02*
X128097619Y-115352438D01*
X128097619Y-115352438D02*
X128145238Y-115400057D01*
X128145238Y-115400057D02*
X128192857Y-115495295D01*
X128192857Y-115495295D02*
X128240476Y-115685771D01*
X128240476Y-115685771D02*
X128240476Y-115923866D01*
X128240476Y-115923866D02*
X128192857Y-116114342D01*
X128192857Y-116114342D02*
X128145238Y-116209580D01*
X128145238Y-116209580D02*
X128097619Y-116257200D01*
X128097619Y-116257200D02*
X128002381Y-116304819D01*
X128002381Y-116304819D02*
X127907143Y-116304819D01*
X127907143Y-116304819D02*
X127811905Y-116257200D01*
X127811905Y-116257200D02*
X127764286Y-116209580D01*
X127764286Y-116209580D02*
X127716667Y-116114342D01*
X127716667Y-116114342D02*
X127669048Y-115923866D01*
X127669048Y-115923866D02*
X127669048Y-115685771D01*
X127669048Y-115685771D02*
X127716667Y-115495295D01*
X127716667Y-115495295D02*
X127764286Y-115400057D01*
X127764286Y-115400057D02*
X127811905Y-115352438D01*
X127811905Y-115352438D02*
X127907143Y-115304819D01*
X128669048Y-116209580D02*
X128716667Y-116257200D01*
X128716667Y-116257200D02*
X128669048Y-116304819D01*
X128669048Y-116304819D02*
X128621429Y-116257200D01*
X128621429Y-116257200D02*
X128669048Y-116209580D01*
X128669048Y-116209580D02*
X128669048Y-116304819D01*
X129669047Y-116304819D02*
X129097619Y-116304819D01*
X129383333Y-116304819D02*
X129383333Y-115304819D01*
X129383333Y-115304819D02*
X129288095Y-115447676D01*
X129288095Y-115447676D02*
X129192857Y-115542914D01*
X129192857Y-115542914D02*
X129097619Y-115590533D01*
X130526190Y-115638152D02*
X130526190Y-116304819D01*
X130097619Y-115638152D02*
X130097619Y-116161961D01*
X130097619Y-116161961D02*
X130145238Y-116257200D01*
X130145238Y-116257200D02*
X130240476Y-116304819D01*
X130240476Y-116304819D02*
X130383333Y-116304819D01*
X130383333Y-116304819D02*
X130478571Y-116257200D01*
X130478571Y-116257200D02*
X130526190Y-116209580D01*
X131335714Y-115781009D02*
X131002381Y-115781009D01*
X131002381Y-116304819D02*
X131002381Y-115304819D01*
X131002381Y-115304819D02*
X131478571Y-115304819D01*
X115344761Y-82250057D02*
X115249523Y-82202438D01*
X115249523Y-82202438D02*
X115154285Y-82107200D01*
X115154285Y-82107200D02*
X115011428Y-81964342D01*
X115011428Y-81964342D02*
X114916190Y-81916723D01*
X114916190Y-81916723D02*
X114820952Y-81916723D01*
X114868571Y-82154819D02*
X114773333Y-82107200D01*
X114773333Y-82107200D02*
X114678095Y-82011961D01*
X114678095Y-82011961D02*
X114630476Y-81821485D01*
X114630476Y-81821485D02*
X114630476Y-81488152D01*
X114630476Y-81488152D02*
X114678095Y-81297676D01*
X114678095Y-81297676D02*
X114773333Y-81202438D01*
X114773333Y-81202438D02*
X114868571Y-81154819D01*
X114868571Y-81154819D02*
X115059047Y-81154819D01*
X115059047Y-81154819D02*
X115154285Y-81202438D01*
X115154285Y-81202438D02*
X115249523Y-81297676D01*
X115249523Y-81297676D02*
X115297142Y-81488152D01*
X115297142Y-81488152D02*
X115297142Y-81821485D01*
X115297142Y-81821485D02*
X115249523Y-82011961D01*
X115249523Y-82011961D02*
X115154285Y-82107200D01*
X115154285Y-82107200D02*
X115059047Y-82154819D01*
X115059047Y-82154819D02*
X114868571Y-82154819D01*
X115678095Y-81250057D02*
X115725714Y-81202438D01*
X115725714Y-81202438D02*
X115820952Y-81154819D01*
X115820952Y-81154819D02*
X116059047Y-81154819D01*
X116059047Y-81154819D02*
X116154285Y-81202438D01*
X116154285Y-81202438D02*
X116201904Y-81250057D01*
X116201904Y-81250057D02*
X116249523Y-81345295D01*
X116249523Y-81345295D02*
X116249523Y-81440533D01*
X116249523Y-81440533D02*
X116201904Y-81583390D01*
X116201904Y-81583390D02*
X115630476Y-82154819D01*
X115630476Y-82154819D02*
X116249523Y-82154819D01*
X142233333Y-102354819D02*
X141900000Y-101878628D01*
X141661905Y-102354819D02*
X141661905Y-101354819D01*
X141661905Y-101354819D02*
X142042857Y-101354819D01*
X142042857Y-101354819D02*
X142138095Y-101402438D01*
X142138095Y-101402438D02*
X142185714Y-101450057D01*
X142185714Y-101450057D02*
X142233333Y-101545295D01*
X142233333Y-101545295D02*
X142233333Y-101688152D01*
X142233333Y-101688152D02*
X142185714Y-101783390D01*
X142185714Y-101783390D02*
X142138095Y-101831009D01*
X142138095Y-101831009D02*
X142042857Y-101878628D01*
X142042857Y-101878628D02*
X141661905Y-101878628D01*
X143090476Y-101354819D02*
X142900000Y-101354819D01*
X142900000Y-101354819D02*
X142804762Y-101402438D01*
X142804762Y-101402438D02*
X142757143Y-101450057D01*
X142757143Y-101450057D02*
X142661905Y-101592914D01*
X142661905Y-101592914D02*
X142614286Y-101783390D01*
X142614286Y-101783390D02*
X142614286Y-102164342D01*
X142614286Y-102164342D02*
X142661905Y-102259580D01*
X142661905Y-102259580D02*
X142709524Y-102307200D01*
X142709524Y-102307200D02*
X142804762Y-102354819D01*
X142804762Y-102354819D02*
X142995238Y-102354819D01*
X142995238Y-102354819D02*
X143090476Y-102307200D01*
X143090476Y-102307200D02*
X143138095Y-102259580D01*
X143138095Y-102259580D02*
X143185714Y-102164342D01*
X143185714Y-102164342D02*
X143185714Y-101926247D01*
X143185714Y-101926247D02*
X143138095Y-101831009D01*
X143138095Y-101831009D02*
X143090476Y-101783390D01*
X143090476Y-101783390D02*
X142995238Y-101735771D01*
X142995238Y-101735771D02*
X142804762Y-101735771D01*
X142804762Y-101735771D02*
X142709524Y-101783390D01*
X142709524Y-101783390D02*
X142661905Y-101831009D01*
X142661905Y-101831009D02*
X142614286Y-101926247D01*
X142161904Y-102654819D02*
X141685714Y-102654819D01*
X141685714Y-102654819D02*
X141638095Y-103131009D01*
X141638095Y-103131009D02*
X141685714Y-103083390D01*
X141685714Y-103083390D02*
X141780952Y-103035771D01*
X141780952Y-103035771D02*
X142019047Y-103035771D01*
X142019047Y-103035771D02*
X142114285Y-103083390D01*
X142114285Y-103083390D02*
X142161904Y-103131009D01*
X142161904Y-103131009D02*
X142209523Y-103226247D01*
X142209523Y-103226247D02*
X142209523Y-103464342D01*
X142209523Y-103464342D02*
X142161904Y-103559580D01*
X142161904Y-103559580D02*
X142114285Y-103607200D01*
X142114285Y-103607200D02*
X142019047Y-103654819D01*
X142019047Y-103654819D02*
X141780952Y-103654819D01*
X141780952Y-103654819D02*
X141685714Y-103607200D01*
X141685714Y-103607200D02*
X141638095Y-103559580D01*
X143066666Y-102654819D02*
X142876190Y-102654819D01*
X142876190Y-102654819D02*
X142780952Y-102702438D01*
X142780952Y-102702438D02*
X142733333Y-102750057D01*
X142733333Y-102750057D02*
X142638095Y-102892914D01*
X142638095Y-102892914D02*
X142590476Y-103083390D01*
X142590476Y-103083390D02*
X142590476Y-103464342D01*
X142590476Y-103464342D02*
X142638095Y-103559580D01*
X142638095Y-103559580D02*
X142685714Y-103607200D01*
X142685714Y-103607200D02*
X142780952Y-103654819D01*
X142780952Y-103654819D02*
X142971428Y-103654819D01*
X142971428Y-103654819D02*
X143066666Y-103607200D01*
X143066666Y-103607200D02*
X143114285Y-103559580D01*
X143114285Y-103559580D02*
X143161904Y-103464342D01*
X143161904Y-103464342D02*
X143161904Y-103226247D01*
X143161904Y-103226247D02*
X143114285Y-103131009D01*
X143114285Y-103131009D02*
X143066666Y-103083390D01*
X143066666Y-103083390D02*
X142971428Y-103035771D01*
X142971428Y-103035771D02*
X142780952Y-103035771D01*
X142780952Y-103035771D02*
X142685714Y-103083390D01*
X142685714Y-103083390D02*
X142638095Y-103131009D01*
X142638095Y-103131009D02*
X142590476Y-103226247D01*
X145233333Y-98159580D02*
X145185714Y-98207200D01*
X145185714Y-98207200D02*
X145042857Y-98254819D01*
X145042857Y-98254819D02*
X144947619Y-98254819D01*
X144947619Y-98254819D02*
X144804762Y-98207200D01*
X144804762Y-98207200D02*
X144709524Y-98111961D01*
X144709524Y-98111961D02*
X144661905Y-98016723D01*
X144661905Y-98016723D02*
X144614286Y-97826247D01*
X144614286Y-97826247D02*
X144614286Y-97683390D01*
X144614286Y-97683390D02*
X144661905Y-97492914D01*
X144661905Y-97492914D02*
X144709524Y-97397676D01*
X144709524Y-97397676D02*
X144804762Y-97302438D01*
X144804762Y-97302438D02*
X144947619Y-97254819D01*
X144947619Y-97254819D02*
X145042857Y-97254819D01*
X145042857Y-97254819D02*
X145185714Y-97302438D01*
X145185714Y-97302438D02*
X145233333Y-97350057D01*
X146090476Y-97254819D02*
X145900000Y-97254819D01*
X145900000Y-97254819D02*
X145804762Y-97302438D01*
X145804762Y-97302438D02*
X145757143Y-97350057D01*
X145757143Y-97350057D02*
X145661905Y-97492914D01*
X145661905Y-97492914D02*
X145614286Y-97683390D01*
X145614286Y-97683390D02*
X145614286Y-98064342D01*
X145614286Y-98064342D02*
X145661905Y-98159580D01*
X145661905Y-98159580D02*
X145709524Y-98207200D01*
X145709524Y-98207200D02*
X145804762Y-98254819D01*
X145804762Y-98254819D02*
X145995238Y-98254819D01*
X145995238Y-98254819D02*
X146090476Y-98207200D01*
X146090476Y-98207200D02*
X146138095Y-98159580D01*
X146138095Y-98159580D02*
X146185714Y-98064342D01*
X146185714Y-98064342D02*
X146185714Y-97826247D01*
X146185714Y-97826247D02*
X146138095Y-97731009D01*
X146138095Y-97731009D02*
X146090476Y-97683390D01*
X146090476Y-97683390D02*
X145995238Y-97635771D01*
X145995238Y-97635771D02*
X145804762Y-97635771D01*
X145804762Y-97635771D02*
X145709524Y-97683390D01*
X145709524Y-97683390D02*
X145661905Y-97731009D01*
X145661905Y-97731009D02*
X145614286Y-97826247D01*
X147157143Y-97254819D02*
X147252381Y-97254819D01*
X147252381Y-97254819D02*
X147347619Y-97302438D01*
X147347619Y-97302438D02*
X147395238Y-97350057D01*
X147395238Y-97350057D02*
X147442857Y-97445295D01*
X147442857Y-97445295D02*
X147490476Y-97635771D01*
X147490476Y-97635771D02*
X147490476Y-97873866D01*
X147490476Y-97873866D02*
X147442857Y-98064342D01*
X147442857Y-98064342D02*
X147395238Y-98159580D01*
X147395238Y-98159580D02*
X147347619Y-98207200D01*
X147347619Y-98207200D02*
X147252381Y-98254819D01*
X147252381Y-98254819D02*
X147157143Y-98254819D01*
X147157143Y-98254819D02*
X147061905Y-98207200D01*
X147061905Y-98207200D02*
X147014286Y-98159580D01*
X147014286Y-98159580D02*
X146966667Y-98064342D01*
X146966667Y-98064342D02*
X146919048Y-97873866D01*
X146919048Y-97873866D02*
X146919048Y-97635771D01*
X146919048Y-97635771D02*
X146966667Y-97445295D01*
X146966667Y-97445295D02*
X147014286Y-97350057D01*
X147014286Y-97350057D02*
X147061905Y-97302438D01*
X147061905Y-97302438D02*
X147157143Y-97254819D01*
X147919048Y-98159580D02*
X147966667Y-98207200D01*
X147966667Y-98207200D02*
X147919048Y-98254819D01*
X147919048Y-98254819D02*
X147871429Y-98207200D01*
X147871429Y-98207200D02*
X147919048Y-98159580D01*
X147919048Y-98159580D02*
X147919048Y-98254819D01*
X148919047Y-98254819D02*
X148347619Y-98254819D01*
X148633333Y-98254819D02*
X148633333Y-97254819D01*
X148633333Y-97254819D02*
X148538095Y-97397676D01*
X148538095Y-97397676D02*
X148442857Y-97492914D01*
X148442857Y-97492914D02*
X148347619Y-97540533D01*
X149776190Y-97588152D02*
X149776190Y-98254819D01*
X149347619Y-97588152D02*
X149347619Y-98111961D01*
X149347619Y-98111961D02*
X149395238Y-98207200D01*
X149395238Y-98207200D02*
X149490476Y-98254819D01*
X149490476Y-98254819D02*
X149633333Y-98254819D01*
X149633333Y-98254819D02*
X149728571Y-98207200D01*
X149728571Y-98207200D02*
X149776190Y-98159580D01*
X150585714Y-97731009D02*
X150252381Y-97731009D01*
X150252381Y-98254819D02*
X150252381Y-97254819D01*
X150252381Y-97254819D02*
X150728571Y-97254819D01*
X144561905Y-131654819D02*
X144561905Y-130654819D01*
X144561905Y-130654819D02*
X144800000Y-130654819D01*
X144800000Y-130654819D02*
X144942857Y-130702438D01*
X144942857Y-130702438D02*
X145038095Y-130797676D01*
X145038095Y-130797676D02*
X145085714Y-130892914D01*
X145085714Y-130892914D02*
X145133333Y-131083390D01*
X145133333Y-131083390D02*
X145133333Y-131226247D01*
X145133333Y-131226247D02*
X145085714Y-131416723D01*
X145085714Y-131416723D02*
X145038095Y-131511961D01*
X145038095Y-131511961D02*
X144942857Y-131607200D01*
X144942857Y-131607200D02*
X144800000Y-131654819D01*
X144800000Y-131654819D02*
X144561905Y-131654819D01*
X146085714Y-131654819D02*
X145514286Y-131654819D01*
X145800000Y-131654819D02*
X145800000Y-130654819D01*
X145800000Y-130654819D02*
X145704762Y-130797676D01*
X145704762Y-130797676D02*
X145609524Y-130892914D01*
X145609524Y-130892914D02*
X145514286Y-130940533D01*
X117571666Y-125076009D02*
X117238333Y-125076009D01*
X117238333Y-125599819D02*
X117238333Y-124599819D01*
X117238333Y-124599819D02*
X117714523Y-124599819D01*
X118619285Y-125599819D02*
X118047857Y-125599819D01*
X118333571Y-125599819D02*
X118333571Y-124599819D01*
X118333571Y-124599819D02*
X118238333Y-124742676D01*
X118238333Y-124742676D02*
X118143095Y-124837914D01*
X118143095Y-124837914D02*
X118047857Y-124885533D01*
X142333333Y-105059580D02*
X142285714Y-105107200D01*
X142285714Y-105107200D02*
X142142857Y-105154819D01*
X142142857Y-105154819D02*
X142047619Y-105154819D01*
X142047619Y-105154819D02*
X141904762Y-105107200D01*
X141904762Y-105107200D02*
X141809524Y-105011961D01*
X141809524Y-105011961D02*
X141761905Y-104916723D01*
X141761905Y-104916723D02*
X141714286Y-104726247D01*
X141714286Y-104726247D02*
X141714286Y-104583390D01*
X141714286Y-104583390D02*
X141761905Y-104392914D01*
X141761905Y-104392914D02*
X141809524Y-104297676D01*
X141809524Y-104297676D02*
X141904762Y-104202438D01*
X141904762Y-104202438D02*
X142047619Y-104154819D01*
X142047619Y-104154819D02*
X142142857Y-104154819D01*
X142142857Y-104154819D02*
X142285714Y-104202438D01*
X142285714Y-104202438D02*
X142333333Y-104250057D01*
X142666667Y-104154819D02*
X143333333Y-104154819D01*
X143333333Y-104154819D02*
X142904762Y-105154819D01*
X141957143Y-105554819D02*
X142052381Y-105554819D01*
X142052381Y-105554819D02*
X142147619Y-105602438D01*
X142147619Y-105602438D02*
X142195238Y-105650057D01*
X142195238Y-105650057D02*
X142242857Y-105745295D01*
X142242857Y-105745295D02*
X142290476Y-105935771D01*
X142290476Y-105935771D02*
X142290476Y-106173866D01*
X142290476Y-106173866D02*
X142242857Y-106364342D01*
X142242857Y-106364342D02*
X142195238Y-106459580D01*
X142195238Y-106459580D02*
X142147619Y-106507200D01*
X142147619Y-106507200D02*
X142052381Y-106554819D01*
X142052381Y-106554819D02*
X141957143Y-106554819D01*
X141957143Y-106554819D02*
X141861905Y-106507200D01*
X141861905Y-106507200D02*
X141814286Y-106459580D01*
X141814286Y-106459580D02*
X141766667Y-106364342D01*
X141766667Y-106364342D02*
X141719048Y-106173866D01*
X141719048Y-106173866D02*
X141719048Y-105935771D01*
X141719048Y-105935771D02*
X141766667Y-105745295D01*
X141766667Y-105745295D02*
X141814286Y-105650057D01*
X141814286Y-105650057D02*
X141861905Y-105602438D01*
X141861905Y-105602438D02*
X141957143Y-105554819D01*
X142719048Y-106459580D02*
X142766667Y-106507200D01*
X142766667Y-106507200D02*
X142719048Y-106554819D01*
X142719048Y-106554819D02*
X142671429Y-106507200D01*
X142671429Y-106507200D02*
X142719048Y-106459580D01*
X142719048Y-106459580D02*
X142719048Y-106554819D01*
X143719047Y-106554819D02*
X143147619Y-106554819D01*
X143433333Y-106554819D02*
X143433333Y-105554819D01*
X143433333Y-105554819D02*
X143338095Y-105697676D01*
X143338095Y-105697676D02*
X143242857Y-105792914D01*
X143242857Y-105792914D02*
X143147619Y-105840533D01*
X144576190Y-105888152D02*
X144576190Y-106554819D01*
X144147619Y-105888152D02*
X144147619Y-106411961D01*
X144147619Y-106411961D02*
X144195238Y-106507200D01*
X144195238Y-106507200D02*
X144290476Y-106554819D01*
X144290476Y-106554819D02*
X144433333Y-106554819D01*
X144433333Y-106554819D02*
X144528571Y-106507200D01*
X144528571Y-106507200D02*
X144576190Y-106459580D01*
X145385714Y-106031009D02*
X145052381Y-106031009D01*
X145052381Y-106554819D02*
X145052381Y-105554819D01*
X145052381Y-105554819D02*
X145528571Y-105554819D01*
X164557142Y-136659580D02*
X164509523Y-136707200D01*
X164509523Y-136707200D02*
X164366666Y-136754819D01*
X164366666Y-136754819D02*
X164271428Y-136754819D01*
X164271428Y-136754819D02*
X164128571Y-136707200D01*
X164128571Y-136707200D02*
X164033333Y-136611961D01*
X164033333Y-136611961D02*
X163985714Y-136516723D01*
X163985714Y-136516723D02*
X163938095Y-136326247D01*
X163938095Y-136326247D02*
X163938095Y-136183390D01*
X163938095Y-136183390D02*
X163985714Y-135992914D01*
X163985714Y-135992914D02*
X164033333Y-135897676D01*
X164033333Y-135897676D02*
X164128571Y-135802438D01*
X164128571Y-135802438D02*
X164271428Y-135754819D01*
X164271428Y-135754819D02*
X164366666Y-135754819D01*
X164366666Y-135754819D02*
X164509523Y-135802438D01*
X164509523Y-135802438D02*
X164557142Y-135850057D01*
X165509523Y-136754819D02*
X164938095Y-136754819D01*
X165223809Y-136754819D02*
X165223809Y-135754819D01*
X165223809Y-135754819D02*
X165128571Y-135897676D01*
X165128571Y-135897676D02*
X165033333Y-135992914D01*
X165033333Y-135992914D02*
X164938095Y-136040533D01*
X166128571Y-135754819D02*
X166223809Y-135754819D01*
X166223809Y-135754819D02*
X166319047Y-135802438D01*
X166319047Y-135802438D02*
X166366666Y-135850057D01*
X166366666Y-135850057D02*
X166414285Y-135945295D01*
X166414285Y-135945295D02*
X166461904Y-136135771D01*
X166461904Y-136135771D02*
X166461904Y-136373866D01*
X166461904Y-136373866D02*
X166414285Y-136564342D01*
X166414285Y-136564342D02*
X166366666Y-136659580D01*
X166366666Y-136659580D02*
X166319047Y-136707200D01*
X166319047Y-136707200D02*
X166223809Y-136754819D01*
X166223809Y-136754819D02*
X166128571Y-136754819D01*
X166128571Y-136754819D02*
X166033333Y-136707200D01*
X166033333Y-136707200D02*
X165985714Y-136659580D01*
X165985714Y-136659580D02*
X165938095Y-136564342D01*
X165938095Y-136564342D02*
X165890476Y-136373866D01*
X165890476Y-136373866D02*
X165890476Y-136135771D01*
X165890476Y-136135771D02*
X165938095Y-135945295D01*
X165938095Y-135945295D02*
X165985714Y-135850057D01*
X165985714Y-135850057D02*
X166033333Y-135802438D01*
X166033333Y-135802438D02*
X166128571Y-135754819D01*
X163933333Y-137388152D02*
X163933333Y-138054819D01*
X163695238Y-137007200D02*
X163457143Y-137721485D01*
X163457143Y-137721485D02*
X164076190Y-137721485D01*
X164361905Y-137054819D02*
X165028571Y-137054819D01*
X165028571Y-137054819D02*
X164600000Y-138054819D01*
X165838095Y-137388152D02*
X165838095Y-138054819D01*
X165409524Y-137388152D02*
X165409524Y-137911961D01*
X165409524Y-137911961D02*
X165457143Y-138007200D01*
X165457143Y-138007200D02*
X165552381Y-138054819D01*
X165552381Y-138054819D02*
X165695238Y-138054819D01*
X165695238Y-138054819D02*
X165790476Y-138007200D01*
X165790476Y-138007200D02*
X165838095Y-137959580D01*
X166647619Y-137531009D02*
X166314286Y-137531009D01*
X166314286Y-138054819D02*
X166314286Y-137054819D01*
X166314286Y-137054819D02*
X166790476Y-137054819D01*
X107307142Y-84254819D02*
X106973809Y-83778628D01*
X106735714Y-84254819D02*
X106735714Y-83254819D01*
X106735714Y-83254819D02*
X107116666Y-83254819D01*
X107116666Y-83254819D02*
X107211904Y-83302438D01*
X107211904Y-83302438D02*
X107259523Y-83350057D01*
X107259523Y-83350057D02*
X107307142Y-83445295D01*
X107307142Y-83445295D02*
X107307142Y-83588152D01*
X107307142Y-83588152D02*
X107259523Y-83683390D01*
X107259523Y-83683390D02*
X107211904Y-83731009D01*
X107211904Y-83731009D02*
X107116666Y-83778628D01*
X107116666Y-83778628D02*
X106735714Y-83778628D01*
X108259523Y-84254819D02*
X107688095Y-84254819D01*
X107973809Y-84254819D02*
X107973809Y-83254819D01*
X107973809Y-83254819D02*
X107878571Y-83397676D01*
X107878571Y-83397676D02*
X107783333Y-83492914D01*
X107783333Y-83492914D02*
X107688095Y-83540533D01*
X108640476Y-83350057D02*
X108688095Y-83302438D01*
X108688095Y-83302438D02*
X108783333Y-83254819D01*
X108783333Y-83254819D02*
X109021428Y-83254819D01*
X109021428Y-83254819D02*
X109116666Y-83302438D01*
X109116666Y-83302438D02*
X109164285Y-83350057D01*
X109164285Y-83350057D02*
X109211904Y-83445295D01*
X109211904Y-83445295D02*
X109211904Y-83540533D01*
X109211904Y-83540533D02*
X109164285Y-83683390D01*
X109164285Y-83683390D02*
X108592857Y-84254819D01*
X108592857Y-84254819D02*
X109211904Y-84254819D01*
X110483333Y-84254819D02*
X109911905Y-84254819D01*
X110197619Y-84254819D02*
X110197619Y-83254819D01*
X110197619Y-83254819D02*
X110102381Y-83397676D01*
X110102381Y-83397676D02*
X110007143Y-83492914D01*
X110007143Y-83492914D02*
X109911905Y-83540533D01*
X111388095Y-83254819D02*
X110911905Y-83254819D01*
X110911905Y-83254819D02*
X110864286Y-83731009D01*
X110864286Y-83731009D02*
X110911905Y-83683390D01*
X110911905Y-83683390D02*
X111007143Y-83635771D01*
X111007143Y-83635771D02*
X111245238Y-83635771D01*
X111245238Y-83635771D02*
X111340476Y-83683390D01*
X111340476Y-83683390D02*
X111388095Y-83731009D01*
X111388095Y-83731009D02*
X111435714Y-83826247D01*
X111435714Y-83826247D02*
X111435714Y-84064342D01*
X111435714Y-84064342D02*
X111388095Y-84159580D01*
X111388095Y-84159580D02*
X111340476Y-84207200D01*
X111340476Y-84207200D02*
X111245238Y-84254819D01*
X111245238Y-84254819D02*
X111007143Y-84254819D01*
X111007143Y-84254819D02*
X110911905Y-84207200D01*
X110911905Y-84207200D02*
X110864286Y-84159580D01*
X112054762Y-83254819D02*
X112150000Y-83254819D01*
X112150000Y-83254819D02*
X112245238Y-83302438D01*
X112245238Y-83302438D02*
X112292857Y-83350057D01*
X112292857Y-83350057D02*
X112340476Y-83445295D01*
X112340476Y-83445295D02*
X112388095Y-83635771D01*
X112388095Y-83635771D02*
X112388095Y-83873866D01*
X112388095Y-83873866D02*
X112340476Y-84064342D01*
X112340476Y-84064342D02*
X112292857Y-84159580D01*
X112292857Y-84159580D02*
X112245238Y-84207200D01*
X112245238Y-84207200D02*
X112150000Y-84254819D01*
X112150000Y-84254819D02*
X112054762Y-84254819D01*
X112054762Y-84254819D02*
X111959524Y-84207200D01*
X111959524Y-84207200D02*
X111911905Y-84159580D01*
X111911905Y-84159580D02*
X111864286Y-84064342D01*
X111864286Y-84064342D02*
X111816667Y-83873866D01*
X111816667Y-83873866D02*
X111816667Y-83635771D01*
X111816667Y-83635771D02*
X111864286Y-83445295D01*
X111864286Y-83445295D02*
X111911905Y-83350057D01*
X111911905Y-83350057D02*
X111959524Y-83302438D01*
X111959524Y-83302438D02*
X112054762Y-83254819D01*
X149054761Y-68150057D02*
X148959523Y-68102438D01*
X148959523Y-68102438D02*
X148864285Y-68007200D01*
X148864285Y-68007200D02*
X148721428Y-67864342D01*
X148721428Y-67864342D02*
X148626190Y-67816723D01*
X148626190Y-67816723D02*
X148530952Y-67816723D01*
X148578571Y-68054819D02*
X148483333Y-68007200D01*
X148483333Y-68007200D02*
X148388095Y-67911961D01*
X148388095Y-67911961D02*
X148340476Y-67721485D01*
X148340476Y-67721485D02*
X148340476Y-67388152D01*
X148340476Y-67388152D02*
X148388095Y-67197676D01*
X148388095Y-67197676D02*
X148483333Y-67102438D01*
X148483333Y-67102438D02*
X148578571Y-67054819D01*
X148578571Y-67054819D02*
X148769047Y-67054819D01*
X148769047Y-67054819D02*
X148864285Y-67102438D01*
X148864285Y-67102438D02*
X148959523Y-67197676D01*
X148959523Y-67197676D02*
X149007142Y-67388152D01*
X149007142Y-67388152D02*
X149007142Y-67721485D01*
X149007142Y-67721485D02*
X148959523Y-67911961D01*
X148959523Y-67911961D02*
X148864285Y-68007200D01*
X148864285Y-68007200D02*
X148769047Y-68054819D01*
X148769047Y-68054819D02*
X148578571Y-68054819D01*
X149340476Y-67054819D02*
X149959523Y-67054819D01*
X149959523Y-67054819D02*
X149626190Y-67435771D01*
X149626190Y-67435771D02*
X149769047Y-67435771D01*
X149769047Y-67435771D02*
X149864285Y-67483390D01*
X149864285Y-67483390D02*
X149911904Y-67531009D01*
X149911904Y-67531009D02*
X149959523Y-67626247D01*
X149959523Y-67626247D02*
X149959523Y-67864342D01*
X149959523Y-67864342D02*
X149911904Y-67959580D01*
X149911904Y-67959580D02*
X149864285Y-68007200D01*
X149864285Y-68007200D02*
X149769047Y-68054819D01*
X149769047Y-68054819D02*
X149483333Y-68054819D01*
X149483333Y-68054819D02*
X149388095Y-68007200D01*
X149388095Y-68007200D02*
X149340476Y-67959580D01*
X110657142Y-80109580D02*
X110609523Y-80157200D01*
X110609523Y-80157200D02*
X110466666Y-80204819D01*
X110466666Y-80204819D02*
X110371428Y-80204819D01*
X110371428Y-80204819D02*
X110228571Y-80157200D01*
X110228571Y-80157200D02*
X110133333Y-80061961D01*
X110133333Y-80061961D02*
X110085714Y-79966723D01*
X110085714Y-79966723D02*
X110038095Y-79776247D01*
X110038095Y-79776247D02*
X110038095Y-79633390D01*
X110038095Y-79633390D02*
X110085714Y-79442914D01*
X110085714Y-79442914D02*
X110133333Y-79347676D01*
X110133333Y-79347676D02*
X110228571Y-79252438D01*
X110228571Y-79252438D02*
X110371428Y-79204819D01*
X110371428Y-79204819D02*
X110466666Y-79204819D01*
X110466666Y-79204819D02*
X110609523Y-79252438D01*
X110609523Y-79252438D02*
X110657142Y-79300057D01*
X111609523Y-80204819D02*
X111038095Y-80204819D01*
X111323809Y-80204819D02*
X111323809Y-79204819D01*
X111323809Y-79204819D02*
X111228571Y-79347676D01*
X111228571Y-79347676D02*
X111133333Y-79442914D01*
X111133333Y-79442914D02*
X111038095Y-79490533D01*
X112514285Y-79204819D02*
X112038095Y-79204819D01*
X112038095Y-79204819D02*
X111990476Y-79681009D01*
X111990476Y-79681009D02*
X112038095Y-79633390D01*
X112038095Y-79633390D02*
X112133333Y-79585771D01*
X112133333Y-79585771D02*
X112371428Y-79585771D01*
X112371428Y-79585771D02*
X112466666Y-79633390D01*
X112466666Y-79633390D02*
X112514285Y-79681009D01*
X112514285Y-79681009D02*
X112561904Y-79776247D01*
X112561904Y-79776247D02*
X112561904Y-80014342D01*
X112561904Y-80014342D02*
X112514285Y-80109580D01*
X112514285Y-80109580D02*
X112466666Y-80157200D01*
X112466666Y-80157200D02*
X112371428Y-80204819D01*
X112371428Y-80204819D02*
X112133333Y-80204819D01*
X112133333Y-80204819D02*
X112038095Y-80157200D01*
X112038095Y-80157200D02*
X111990476Y-80109580D01*
X113457143Y-79204819D02*
X113552381Y-79204819D01*
X113552381Y-79204819D02*
X113647619Y-79252438D01*
X113647619Y-79252438D02*
X113695238Y-79300057D01*
X113695238Y-79300057D02*
X113742857Y-79395295D01*
X113742857Y-79395295D02*
X113790476Y-79585771D01*
X113790476Y-79585771D02*
X113790476Y-79823866D01*
X113790476Y-79823866D02*
X113742857Y-80014342D01*
X113742857Y-80014342D02*
X113695238Y-80109580D01*
X113695238Y-80109580D02*
X113647619Y-80157200D01*
X113647619Y-80157200D02*
X113552381Y-80204819D01*
X113552381Y-80204819D02*
X113457143Y-80204819D01*
X113457143Y-80204819D02*
X113361905Y-80157200D01*
X113361905Y-80157200D02*
X113314286Y-80109580D01*
X113314286Y-80109580D02*
X113266667Y-80014342D01*
X113266667Y-80014342D02*
X113219048Y-79823866D01*
X113219048Y-79823866D02*
X113219048Y-79585771D01*
X113219048Y-79585771D02*
X113266667Y-79395295D01*
X113266667Y-79395295D02*
X113314286Y-79300057D01*
X113314286Y-79300057D02*
X113361905Y-79252438D01*
X113361905Y-79252438D02*
X113457143Y-79204819D01*
X114219048Y-80109580D02*
X114266667Y-80157200D01*
X114266667Y-80157200D02*
X114219048Y-80204819D01*
X114219048Y-80204819D02*
X114171429Y-80157200D01*
X114171429Y-80157200D02*
X114219048Y-80109580D01*
X114219048Y-80109580D02*
X114219048Y-80204819D01*
X115219047Y-80204819D02*
X114647619Y-80204819D01*
X114933333Y-80204819D02*
X114933333Y-79204819D01*
X114933333Y-79204819D02*
X114838095Y-79347676D01*
X114838095Y-79347676D02*
X114742857Y-79442914D01*
X114742857Y-79442914D02*
X114647619Y-79490533D01*
X116076190Y-79538152D02*
X116076190Y-80204819D01*
X115647619Y-79538152D02*
X115647619Y-80061961D01*
X115647619Y-80061961D02*
X115695238Y-80157200D01*
X115695238Y-80157200D02*
X115790476Y-80204819D01*
X115790476Y-80204819D02*
X115933333Y-80204819D01*
X115933333Y-80204819D02*
X116028571Y-80157200D01*
X116028571Y-80157200D02*
X116076190Y-80109580D01*
X116885714Y-79681009D02*
X116552381Y-79681009D01*
X116552381Y-80204819D02*
X116552381Y-79204819D01*
X116552381Y-79204819D02*
X117028571Y-79204819D01*
X127557142Y-102254819D02*
X127223809Y-101778628D01*
X126985714Y-102254819D02*
X126985714Y-101254819D01*
X126985714Y-101254819D02*
X127366666Y-101254819D01*
X127366666Y-101254819D02*
X127461904Y-101302438D01*
X127461904Y-101302438D02*
X127509523Y-101350057D01*
X127509523Y-101350057D02*
X127557142Y-101445295D01*
X127557142Y-101445295D02*
X127557142Y-101588152D01*
X127557142Y-101588152D02*
X127509523Y-101683390D01*
X127509523Y-101683390D02*
X127461904Y-101731009D01*
X127461904Y-101731009D02*
X127366666Y-101778628D01*
X127366666Y-101778628D02*
X126985714Y-101778628D01*
X128509523Y-102254819D02*
X127938095Y-102254819D01*
X128223809Y-102254819D02*
X128223809Y-101254819D01*
X128223809Y-101254819D02*
X128128571Y-101397676D01*
X128128571Y-101397676D02*
X128033333Y-101492914D01*
X128033333Y-101492914D02*
X127938095Y-101540533D01*
X128842857Y-101254819D02*
X129509523Y-101254819D01*
X129509523Y-101254819D02*
X129080952Y-102254819D01*
X127609524Y-102850057D02*
X127657143Y-102802438D01*
X127657143Y-102802438D02*
X127752381Y-102754819D01*
X127752381Y-102754819D02*
X127990476Y-102754819D01*
X127990476Y-102754819D02*
X128085714Y-102802438D01*
X128085714Y-102802438D02*
X128133333Y-102850057D01*
X128133333Y-102850057D02*
X128180952Y-102945295D01*
X128180952Y-102945295D02*
X128180952Y-103040533D01*
X128180952Y-103040533D02*
X128133333Y-103183390D01*
X128133333Y-103183390D02*
X127561905Y-103754819D01*
X127561905Y-103754819D02*
X128180952Y-103754819D01*
X128609524Y-103754819D02*
X128609524Y-102754819D01*
X128704762Y-103373866D02*
X128990476Y-103754819D01*
X128990476Y-103088152D02*
X128609524Y-103469104D01*
X114257142Y-77204819D02*
X113923809Y-76728628D01*
X113685714Y-77204819D02*
X113685714Y-76204819D01*
X113685714Y-76204819D02*
X114066666Y-76204819D01*
X114066666Y-76204819D02*
X114161904Y-76252438D01*
X114161904Y-76252438D02*
X114209523Y-76300057D01*
X114209523Y-76300057D02*
X114257142Y-76395295D01*
X114257142Y-76395295D02*
X114257142Y-76538152D01*
X114257142Y-76538152D02*
X114209523Y-76633390D01*
X114209523Y-76633390D02*
X114161904Y-76681009D01*
X114161904Y-76681009D02*
X114066666Y-76728628D01*
X114066666Y-76728628D02*
X113685714Y-76728628D01*
X115209523Y-77204819D02*
X114638095Y-77204819D01*
X114923809Y-77204819D02*
X114923809Y-76204819D01*
X114923809Y-76204819D02*
X114828571Y-76347676D01*
X114828571Y-76347676D02*
X114733333Y-76442914D01*
X114733333Y-76442914D02*
X114638095Y-76490533D01*
X116114285Y-76204819D02*
X115638095Y-76204819D01*
X115638095Y-76204819D02*
X115590476Y-76681009D01*
X115590476Y-76681009D02*
X115638095Y-76633390D01*
X115638095Y-76633390D02*
X115733333Y-76585771D01*
X115733333Y-76585771D02*
X115971428Y-76585771D01*
X115971428Y-76585771D02*
X116066666Y-76633390D01*
X116066666Y-76633390D02*
X116114285Y-76681009D01*
X116114285Y-76681009D02*
X116161904Y-76776247D01*
X116161904Y-76776247D02*
X116161904Y-77014342D01*
X116161904Y-77014342D02*
X116114285Y-77109580D01*
X116114285Y-77109580D02*
X116066666Y-77157200D01*
X116066666Y-77157200D02*
X115971428Y-77204819D01*
X115971428Y-77204819D02*
X115733333Y-77204819D01*
X115733333Y-77204819D02*
X115638095Y-77157200D01*
X115638095Y-77157200D02*
X115590476Y-77109580D01*
X114661904Y-77554819D02*
X114185714Y-77554819D01*
X114185714Y-77554819D02*
X114138095Y-78031009D01*
X114138095Y-78031009D02*
X114185714Y-77983390D01*
X114185714Y-77983390D02*
X114280952Y-77935771D01*
X114280952Y-77935771D02*
X114519047Y-77935771D01*
X114519047Y-77935771D02*
X114614285Y-77983390D01*
X114614285Y-77983390D02*
X114661904Y-78031009D01*
X114661904Y-78031009D02*
X114709523Y-78126247D01*
X114709523Y-78126247D02*
X114709523Y-78364342D01*
X114709523Y-78364342D02*
X114661904Y-78459580D01*
X114661904Y-78459580D02*
X114614285Y-78507200D01*
X114614285Y-78507200D02*
X114519047Y-78554819D01*
X114519047Y-78554819D02*
X114280952Y-78554819D01*
X114280952Y-78554819D02*
X114185714Y-78507200D01*
X114185714Y-78507200D02*
X114138095Y-78459580D01*
X115566666Y-77554819D02*
X115376190Y-77554819D01*
X115376190Y-77554819D02*
X115280952Y-77602438D01*
X115280952Y-77602438D02*
X115233333Y-77650057D01*
X115233333Y-77650057D02*
X115138095Y-77792914D01*
X115138095Y-77792914D02*
X115090476Y-77983390D01*
X115090476Y-77983390D02*
X115090476Y-78364342D01*
X115090476Y-78364342D02*
X115138095Y-78459580D01*
X115138095Y-78459580D02*
X115185714Y-78507200D01*
X115185714Y-78507200D02*
X115280952Y-78554819D01*
X115280952Y-78554819D02*
X115471428Y-78554819D01*
X115471428Y-78554819D02*
X115566666Y-78507200D01*
X115566666Y-78507200D02*
X115614285Y-78459580D01*
X115614285Y-78459580D02*
X115661904Y-78364342D01*
X115661904Y-78364342D02*
X115661904Y-78126247D01*
X115661904Y-78126247D02*
X115614285Y-78031009D01*
X115614285Y-78031009D02*
X115566666Y-77983390D01*
X115566666Y-77983390D02*
X115471428Y-77935771D01*
X115471428Y-77935771D02*
X115280952Y-77935771D01*
X115280952Y-77935771D02*
X115185714Y-77983390D01*
X115185714Y-77983390D02*
X115138095Y-78031009D01*
X115138095Y-78031009D02*
X115090476Y-78126247D01*
X169059524Y-109781009D02*
X169392857Y-109781009D01*
X169535714Y-110304819D02*
X169059524Y-110304819D01*
X169059524Y-110304819D02*
X169059524Y-109304819D01*
X169059524Y-109304819D02*
X169535714Y-109304819D01*
X170488095Y-110304819D02*
X169916667Y-110304819D01*
X170202381Y-110304819D02*
X170202381Y-109304819D01*
X170202381Y-109304819D02*
X170107143Y-109447676D01*
X170107143Y-109447676D02*
X170011905Y-109542914D01*
X170011905Y-109542914D02*
X169916667Y-109590533D01*
X116109580Y-118542857D02*
X116157200Y-118590476D01*
X116157200Y-118590476D02*
X116204819Y-118733333D01*
X116204819Y-118733333D02*
X116204819Y-118828571D01*
X116204819Y-118828571D02*
X116157200Y-118971428D01*
X116157200Y-118971428D02*
X116061961Y-119066666D01*
X116061961Y-119066666D02*
X115966723Y-119114285D01*
X115966723Y-119114285D02*
X115776247Y-119161904D01*
X115776247Y-119161904D02*
X115633390Y-119161904D01*
X115633390Y-119161904D02*
X115442914Y-119114285D01*
X115442914Y-119114285D02*
X115347676Y-119066666D01*
X115347676Y-119066666D02*
X115252438Y-118971428D01*
X115252438Y-118971428D02*
X115204819Y-118828571D01*
X115204819Y-118828571D02*
X115204819Y-118733333D01*
X115204819Y-118733333D02*
X115252438Y-118590476D01*
X115252438Y-118590476D02*
X115300057Y-118542857D01*
X116204819Y-117590476D02*
X116204819Y-118161904D01*
X116204819Y-117876190D02*
X115204819Y-117876190D01*
X115204819Y-117876190D02*
X115347676Y-117971428D01*
X115347676Y-117971428D02*
X115442914Y-118066666D01*
X115442914Y-118066666D02*
X115490533Y-118161904D01*
X116204819Y-116638095D02*
X116204819Y-117209523D01*
X116204819Y-116923809D02*
X115204819Y-116923809D01*
X115204819Y-116923809D02*
X115347676Y-117019047D01*
X115347676Y-117019047D02*
X115442914Y-117114285D01*
X115442914Y-117114285D02*
X115490533Y-117209523D01*
X124307142Y-84004819D02*
X123973809Y-83528628D01*
X123735714Y-84004819D02*
X123735714Y-83004819D01*
X123735714Y-83004819D02*
X124116666Y-83004819D01*
X124116666Y-83004819D02*
X124211904Y-83052438D01*
X124211904Y-83052438D02*
X124259523Y-83100057D01*
X124259523Y-83100057D02*
X124307142Y-83195295D01*
X124307142Y-83195295D02*
X124307142Y-83338152D01*
X124307142Y-83338152D02*
X124259523Y-83433390D01*
X124259523Y-83433390D02*
X124211904Y-83481009D01*
X124211904Y-83481009D02*
X124116666Y-83528628D01*
X124116666Y-83528628D02*
X123735714Y-83528628D01*
X125259523Y-84004819D02*
X124688095Y-84004819D01*
X124973809Y-84004819D02*
X124973809Y-83004819D01*
X124973809Y-83004819D02*
X124878571Y-83147676D01*
X124878571Y-83147676D02*
X124783333Y-83242914D01*
X124783333Y-83242914D02*
X124688095Y-83290533D01*
X125878571Y-83004819D02*
X125973809Y-83004819D01*
X125973809Y-83004819D02*
X126069047Y-83052438D01*
X126069047Y-83052438D02*
X126116666Y-83100057D01*
X126116666Y-83100057D02*
X126164285Y-83195295D01*
X126164285Y-83195295D02*
X126211904Y-83385771D01*
X126211904Y-83385771D02*
X126211904Y-83623866D01*
X126211904Y-83623866D02*
X126164285Y-83814342D01*
X126164285Y-83814342D02*
X126116666Y-83909580D01*
X126116666Y-83909580D02*
X126069047Y-83957200D01*
X126069047Y-83957200D02*
X125973809Y-84004819D01*
X125973809Y-84004819D02*
X125878571Y-84004819D01*
X125878571Y-84004819D02*
X125783333Y-83957200D01*
X125783333Y-83957200D02*
X125735714Y-83909580D01*
X125735714Y-83909580D02*
X125688095Y-83814342D01*
X125688095Y-83814342D02*
X125640476Y-83623866D01*
X125640476Y-83623866D02*
X125640476Y-83385771D01*
X125640476Y-83385771D02*
X125688095Y-83195295D01*
X125688095Y-83195295D02*
X125735714Y-83100057D01*
X125735714Y-83100057D02*
X125783333Y-83052438D01*
X125783333Y-83052438D02*
X125878571Y-83004819D01*
X124357142Y-85354819D02*
X123785714Y-85354819D01*
X124071428Y-85354819D02*
X124071428Y-84354819D01*
X124071428Y-84354819D02*
X123976190Y-84497676D01*
X123976190Y-84497676D02*
X123880952Y-84592914D01*
X123880952Y-84592914D02*
X123785714Y-84640533D01*
X125261904Y-84354819D02*
X124785714Y-84354819D01*
X124785714Y-84354819D02*
X124738095Y-84831009D01*
X124738095Y-84831009D02*
X124785714Y-84783390D01*
X124785714Y-84783390D02*
X124880952Y-84735771D01*
X124880952Y-84735771D02*
X125119047Y-84735771D01*
X125119047Y-84735771D02*
X125214285Y-84783390D01*
X125214285Y-84783390D02*
X125261904Y-84831009D01*
X125261904Y-84831009D02*
X125309523Y-84926247D01*
X125309523Y-84926247D02*
X125309523Y-85164342D01*
X125309523Y-85164342D02*
X125261904Y-85259580D01*
X125261904Y-85259580D02*
X125214285Y-85307200D01*
X125214285Y-85307200D02*
X125119047Y-85354819D01*
X125119047Y-85354819D02*
X124880952Y-85354819D01*
X124880952Y-85354819D02*
X124785714Y-85307200D01*
X124785714Y-85307200D02*
X124738095Y-85259580D01*
X125928571Y-84354819D02*
X126023809Y-84354819D01*
X126023809Y-84354819D02*
X126119047Y-84402438D01*
X126119047Y-84402438D02*
X126166666Y-84450057D01*
X126166666Y-84450057D02*
X126214285Y-84545295D01*
X126214285Y-84545295D02*
X126261904Y-84735771D01*
X126261904Y-84735771D02*
X126261904Y-84973866D01*
X126261904Y-84973866D02*
X126214285Y-85164342D01*
X126214285Y-85164342D02*
X126166666Y-85259580D01*
X126166666Y-85259580D02*
X126119047Y-85307200D01*
X126119047Y-85307200D02*
X126023809Y-85354819D01*
X126023809Y-85354819D02*
X125928571Y-85354819D01*
X125928571Y-85354819D02*
X125833333Y-85307200D01*
X125833333Y-85307200D02*
X125785714Y-85259580D01*
X125785714Y-85259580D02*
X125738095Y-85164342D01*
X125738095Y-85164342D02*
X125690476Y-84973866D01*
X125690476Y-84973866D02*
X125690476Y-84735771D01*
X125690476Y-84735771D02*
X125738095Y-84545295D01*
X125738095Y-84545295D02*
X125785714Y-84450057D01*
X125785714Y-84450057D02*
X125833333Y-84402438D01*
X125833333Y-84402438D02*
X125928571Y-84354819D01*
X126880952Y-84354819D02*
X126976190Y-84354819D01*
X126976190Y-84354819D02*
X127071428Y-84402438D01*
X127071428Y-84402438D02*
X127119047Y-84450057D01*
X127119047Y-84450057D02*
X127166666Y-84545295D01*
X127166666Y-84545295D02*
X127214285Y-84735771D01*
X127214285Y-84735771D02*
X127214285Y-84973866D01*
X127214285Y-84973866D02*
X127166666Y-85164342D01*
X127166666Y-85164342D02*
X127119047Y-85259580D01*
X127119047Y-85259580D02*
X127071428Y-85307200D01*
X127071428Y-85307200D02*
X126976190Y-85354819D01*
X126976190Y-85354819D02*
X126880952Y-85354819D01*
X126880952Y-85354819D02*
X126785714Y-85307200D01*
X126785714Y-85307200D02*
X126738095Y-85259580D01*
X126738095Y-85259580D02*
X126690476Y-85164342D01*
X126690476Y-85164342D02*
X126642857Y-84973866D01*
X126642857Y-84973866D02*
X126642857Y-84735771D01*
X126642857Y-84735771D02*
X126690476Y-84545295D01*
X126690476Y-84545295D02*
X126738095Y-84450057D01*
X126738095Y-84450057D02*
X126785714Y-84402438D01*
X126785714Y-84402438D02*
X126880952Y-84354819D01*
X113013333Y-98090255D02*
X112537143Y-98090255D01*
X112537143Y-98090255D02*
X112537143Y-97090255D01*
X113870476Y-98090255D02*
X113299048Y-98090255D01*
X113584762Y-98090255D02*
X113584762Y-97090255D01*
X113584762Y-97090255D02*
X113489524Y-97233112D01*
X113489524Y-97233112D02*
X113394286Y-97328350D01*
X113394286Y-97328350D02*
X113299048Y-97375969D01*
X111813333Y-99390255D02*
X111241905Y-99390255D01*
X111527619Y-99390255D02*
X111527619Y-98390255D01*
X111527619Y-98390255D02*
X111432381Y-98533112D01*
X111432381Y-98533112D02*
X111337143Y-98628350D01*
X111337143Y-98628350D02*
X111241905Y-98675969D01*
X112432381Y-98390255D02*
X112527619Y-98390255D01*
X112527619Y-98390255D02*
X112622857Y-98437874D01*
X112622857Y-98437874D02*
X112670476Y-98485493D01*
X112670476Y-98485493D02*
X112718095Y-98580731D01*
X112718095Y-98580731D02*
X112765714Y-98771207D01*
X112765714Y-98771207D02*
X112765714Y-99009302D01*
X112765714Y-99009302D02*
X112718095Y-99199778D01*
X112718095Y-99199778D02*
X112670476Y-99295016D01*
X112670476Y-99295016D02*
X112622857Y-99342636D01*
X112622857Y-99342636D02*
X112527619Y-99390255D01*
X112527619Y-99390255D02*
X112432381Y-99390255D01*
X112432381Y-99390255D02*
X112337143Y-99342636D01*
X112337143Y-99342636D02*
X112289524Y-99295016D01*
X112289524Y-99295016D02*
X112241905Y-99199778D01*
X112241905Y-99199778D02*
X112194286Y-99009302D01*
X112194286Y-99009302D02*
X112194286Y-98771207D01*
X112194286Y-98771207D02*
X112241905Y-98580731D01*
X112241905Y-98580731D02*
X112289524Y-98485493D01*
X112289524Y-98485493D02*
X112337143Y-98437874D01*
X112337143Y-98437874D02*
X112432381Y-98390255D01*
X113622857Y-98723588D02*
X113622857Y-99390255D01*
X113194286Y-98723588D02*
X113194286Y-99247397D01*
X113194286Y-99247397D02*
X113241905Y-99342636D01*
X113241905Y-99342636D02*
X113337143Y-99390255D01*
X113337143Y-99390255D02*
X113480000Y-99390255D01*
X113480000Y-99390255D02*
X113575238Y-99342636D01*
X113575238Y-99342636D02*
X113622857Y-99295016D01*
X114099048Y-99390255D02*
X114099048Y-98390255D01*
X114099048Y-98866445D02*
X114670476Y-98866445D01*
X114670476Y-99390255D02*
X114670476Y-98390255D01*
X158157142Y-136359580D02*
X158109523Y-136407200D01*
X158109523Y-136407200D02*
X157966666Y-136454819D01*
X157966666Y-136454819D02*
X157871428Y-136454819D01*
X157871428Y-136454819D02*
X157728571Y-136407200D01*
X157728571Y-136407200D02*
X157633333Y-136311961D01*
X157633333Y-136311961D02*
X157585714Y-136216723D01*
X157585714Y-136216723D02*
X157538095Y-136026247D01*
X157538095Y-136026247D02*
X157538095Y-135883390D01*
X157538095Y-135883390D02*
X157585714Y-135692914D01*
X157585714Y-135692914D02*
X157633333Y-135597676D01*
X157633333Y-135597676D02*
X157728571Y-135502438D01*
X157728571Y-135502438D02*
X157871428Y-135454819D01*
X157871428Y-135454819D02*
X157966666Y-135454819D01*
X157966666Y-135454819D02*
X158109523Y-135502438D01*
X158109523Y-135502438D02*
X158157142Y-135550057D01*
X159109523Y-136454819D02*
X158538095Y-136454819D01*
X158823809Y-136454819D02*
X158823809Y-135454819D01*
X158823809Y-135454819D02*
X158728571Y-135597676D01*
X158728571Y-135597676D02*
X158633333Y-135692914D01*
X158633333Y-135692914D02*
X158538095Y-135740533D01*
X159442857Y-135454819D02*
X160061904Y-135454819D01*
X160061904Y-135454819D02*
X159728571Y-135835771D01*
X159728571Y-135835771D02*
X159871428Y-135835771D01*
X159871428Y-135835771D02*
X159966666Y-135883390D01*
X159966666Y-135883390D02*
X160014285Y-135931009D01*
X160014285Y-135931009D02*
X160061904Y-136026247D01*
X160061904Y-136026247D02*
X160061904Y-136264342D01*
X160061904Y-136264342D02*
X160014285Y-136359580D01*
X160014285Y-136359580D02*
X159966666Y-136407200D01*
X159966666Y-136407200D02*
X159871428Y-136454819D01*
X159871428Y-136454819D02*
X159585714Y-136454819D01*
X159585714Y-136454819D02*
X159490476Y-136407200D01*
X159490476Y-136407200D02*
X159442857Y-136359580D01*
X157157143Y-136854819D02*
X157252381Y-136854819D01*
X157252381Y-136854819D02*
X157347619Y-136902438D01*
X157347619Y-136902438D02*
X157395238Y-136950057D01*
X157395238Y-136950057D02*
X157442857Y-137045295D01*
X157442857Y-137045295D02*
X157490476Y-137235771D01*
X157490476Y-137235771D02*
X157490476Y-137473866D01*
X157490476Y-137473866D02*
X157442857Y-137664342D01*
X157442857Y-137664342D02*
X157395238Y-137759580D01*
X157395238Y-137759580D02*
X157347619Y-137807200D01*
X157347619Y-137807200D02*
X157252381Y-137854819D01*
X157252381Y-137854819D02*
X157157143Y-137854819D01*
X157157143Y-137854819D02*
X157061905Y-137807200D01*
X157061905Y-137807200D02*
X157014286Y-137759580D01*
X157014286Y-137759580D02*
X156966667Y-137664342D01*
X156966667Y-137664342D02*
X156919048Y-137473866D01*
X156919048Y-137473866D02*
X156919048Y-137235771D01*
X156919048Y-137235771D02*
X156966667Y-137045295D01*
X156966667Y-137045295D02*
X157014286Y-136950057D01*
X157014286Y-136950057D02*
X157061905Y-136902438D01*
X157061905Y-136902438D02*
X157157143Y-136854819D01*
X157919048Y-137759580D02*
X157966667Y-137807200D01*
X157966667Y-137807200D02*
X157919048Y-137854819D01*
X157919048Y-137854819D02*
X157871429Y-137807200D01*
X157871429Y-137807200D02*
X157919048Y-137759580D01*
X157919048Y-137759580D02*
X157919048Y-137854819D01*
X158919047Y-137854819D02*
X158347619Y-137854819D01*
X158633333Y-137854819D02*
X158633333Y-136854819D01*
X158633333Y-136854819D02*
X158538095Y-136997676D01*
X158538095Y-136997676D02*
X158442857Y-137092914D01*
X158442857Y-137092914D02*
X158347619Y-137140533D01*
X159776190Y-137188152D02*
X159776190Y-137854819D01*
X159347619Y-137188152D02*
X159347619Y-137711961D01*
X159347619Y-137711961D02*
X159395238Y-137807200D01*
X159395238Y-137807200D02*
X159490476Y-137854819D01*
X159490476Y-137854819D02*
X159633333Y-137854819D01*
X159633333Y-137854819D02*
X159728571Y-137807200D01*
X159728571Y-137807200D02*
X159776190Y-137759580D01*
X160585714Y-137331009D02*
X160252381Y-137331009D01*
X160252381Y-137854819D02*
X160252381Y-136854819D01*
X160252381Y-136854819D02*
X160728571Y-136854819D01*
X121507142Y-91509580D02*
X121459523Y-91557200D01*
X121459523Y-91557200D02*
X121316666Y-91604819D01*
X121316666Y-91604819D02*
X121221428Y-91604819D01*
X121221428Y-91604819D02*
X121078571Y-91557200D01*
X121078571Y-91557200D02*
X120983333Y-91461961D01*
X120983333Y-91461961D02*
X120935714Y-91366723D01*
X120935714Y-91366723D02*
X120888095Y-91176247D01*
X120888095Y-91176247D02*
X120888095Y-91033390D01*
X120888095Y-91033390D02*
X120935714Y-90842914D01*
X120935714Y-90842914D02*
X120983333Y-90747676D01*
X120983333Y-90747676D02*
X121078571Y-90652438D01*
X121078571Y-90652438D02*
X121221428Y-90604819D01*
X121221428Y-90604819D02*
X121316666Y-90604819D01*
X121316666Y-90604819D02*
X121459523Y-90652438D01*
X121459523Y-90652438D02*
X121507142Y-90700057D01*
X122459523Y-91604819D02*
X121888095Y-91604819D01*
X122173809Y-91604819D02*
X122173809Y-90604819D01*
X122173809Y-90604819D02*
X122078571Y-90747676D01*
X122078571Y-90747676D02*
X121983333Y-90842914D01*
X121983333Y-90842914D02*
X121888095Y-90890533D01*
X123316666Y-90604819D02*
X123126190Y-90604819D01*
X123126190Y-90604819D02*
X123030952Y-90652438D01*
X123030952Y-90652438D02*
X122983333Y-90700057D01*
X122983333Y-90700057D02*
X122888095Y-90842914D01*
X122888095Y-90842914D02*
X122840476Y-91033390D01*
X122840476Y-91033390D02*
X122840476Y-91414342D01*
X122840476Y-91414342D02*
X122888095Y-91509580D01*
X122888095Y-91509580D02*
X122935714Y-91557200D01*
X122935714Y-91557200D02*
X123030952Y-91604819D01*
X123030952Y-91604819D02*
X123221428Y-91604819D01*
X123221428Y-91604819D02*
X123316666Y-91557200D01*
X123316666Y-91557200D02*
X123364285Y-91509580D01*
X123364285Y-91509580D02*
X123411904Y-91414342D01*
X123411904Y-91414342D02*
X123411904Y-91176247D01*
X123411904Y-91176247D02*
X123364285Y-91081009D01*
X123364285Y-91081009D02*
X123316666Y-91033390D01*
X123316666Y-91033390D02*
X123221428Y-90985771D01*
X123221428Y-90985771D02*
X123030952Y-90985771D01*
X123030952Y-90985771D02*
X122935714Y-91033390D01*
X122935714Y-91033390D02*
X122888095Y-91081009D01*
X122888095Y-91081009D02*
X122840476Y-91176247D01*
X119457143Y-94304819D02*
X119552381Y-94304819D01*
X119552381Y-94304819D02*
X119647619Y-94352438D01*
X119647619Y-94352438D02*
X119695238Y-94400057D01*
X119695238Y-94400057D02*
X119742857Y-94495295D01*
X119742857Y-94495295D02*
X119790476Y-94685771D01*
X119790476Y-94685771D02*
X119790476Y-94923866D01*
X119790476Y-94923866D02*
X119742857Y-95114342D01*
X119742857Y-95114342D02*
X119695238Y-95209580D01*
X119695238Y-95209580D02*
X119647619Y-95257200D01*
X119647619Y-95257200D02*
X119552381Y-95304819D01*
X119552381Y-95304819D02*
X119457143Y-95304819D01*
X119457143Y-95304819D02*
X119361905Y-95257200D01*
X119361905Y-95257200D02*
X119314286Y-95209580D01*
X119314286Y-95209580D02*
X119266667Y-95114342D01*
X119266667Y-95114342D02*
X119219048Y-94923866D01*
X119219048Y-94923866D02*
X119219048Y-94685771D01*
X119219048Y-94685771D02*
X119266667Y-94495295D01*
X119266667Y-94495295D02*
X119314286Y-94400057D01*
X119314286Y-94400057D02*
X119361905Y-94352438D01*
X119361905Y-94352438D02*
X119457143Y-94304819D01*
X120219048Y-95209580D02*
X120266667Y-95257200D01*
X120266667Y-95257200D02*
X120219048Y-95304819D01*
X120219048Y-95304819D02*
X120171429Y-95257200D01*
X120171429Y-95257200D02*
X120219048Y-95209580D01*
X120219048Y-95209580D02*
X120219048Y-95304819D01*
X121219047Y-95304819D02*
X120647619Y-95304819D01*
X120933333Y-95304819D02*
X120933333Y-94304819D01*
X120933333Y-94304819D02*
X120838095Y-94447676D01*
X120838095Y-94447676D02*
X120742857Y-94542914D01*
X120742857Y-94542914D02*
X120647619Y-94590533D01*
X122076190Y-94638152D02*
X122076190Y-95304819D01*
X121647619Y-94638152D02*
X121647619Y-95161961D01*
X121647619Y-95161961D02*
X121695238Y-95257200D01*
X121695238Y-95257200D02*
X121790476Y-95304819D01*
X121790476Y-95304819D02*
X121933333Y-95304819D01*
X121933333Y-95304819D02*
X122028571Y-95257200D01*
X122028571Y-95257200D02*
X122076190Y-95209580D01*
X122885714Y-94781009D02*
X122552381Y-94781009D01*
X122552381Y-95304819D02*
X122552381Y-94304819D01*
X122552381Y-94304819D02*
X123028571Y-94304819D01*
X194231666Y-63314819D02*
X194231666Y-64029104D01*
X194231666Y-64029104D02*
X194184047Y-64171961D01*
X194184047Y-64171961D02*
X194088809Y-64267200D01*
X194088809Y-64267200D02*
X193945952Y-64314819D01*
X193945952Y-64314819D02*
X193850714Y-64314819D01*
X195231666Y-64314819D02*
X194660238Y-64314819D01*
X194945952Y-64314819D02*
X194945952Y-63314819D01*
X194945952Y-63314819D02*
X194850714Y-63457676D01*
X194850714Y-63457676D02*
X194755476Y-63552914D01*
X194755476Y-63552914D02*
X194660238Y-63600533D01*
X147333333Y-79554819D02*
X147000000Y-79078628D01*
X146761905Y-79554819D02*
X146761905Y-78554819D01*
X146761905Y-78554819D02*
X147142857Y-78554819D01*
X147142857Y-78554819D02*
X147238095Y-78602438D01*
X147238095Y-78602438D02*
X147285714Y-78650057D01*
X147285714Y-78650057D02*
X147333333Y-78745295D01*
X147333333Y-78745295D02*
X147333333Y-78888152D01*
X147333333Y-78888152D02*
X147285714Y-78983390D01*
X147285714Y-78983390D02*
X147238095Y-79031009D01*
X147238095Y-79031009D02*
X147142857Y-79078628D01*
X147142857Y-79078628D02*
X146761905Y-79078628D01*
X148285714Y-79554819D02*
X147714286Y-79554819D01*
X148000000Y-79554819D02*
X148000000Y-78554819D01*
X148000000Y-78554819D02*
X147904762Y-78697676D01*
X147904762Y-78697676D02*
X147809524Y-78792914D01*
X147809524Y-78792914D02*
X147714286Y-78840533D01*
X149685714Y-79554819D02*
X149114286Y-79554819D01*
X149400000Y-79554819D02*
X149400000Y-78554819D01*
X149400000Y-78554819D02*
X149304762Y-78697676D01*
X149304762Y-78697676D02*
X149209524Y-78792914D01*
X149209524Y-78792914D02*
X149114286Y-78840533D01*
X149204761Y-111750057D02*
X149109523Y-111702438D01*
X149109523Y-111702438D02*
X149014285Y-111607200D01*
X149014285Y-111607200D02*
X148871428Y-111464342D01*
X148871428Y-111464342D02*
X148776190Y-111416723D01*
X148776190Y-111416723D02*
X148680952Y-111416723D01*
X148728571Y-111654819D02*
X148633333Y-111607200D01*
X148633333Y-111607200D02*
X148538095Y-111511961D01*
X148538095Y-111511961D02*
X148490476Y-111321485D01*
X148490476Y-111321485D02*
X148490476Y-110988152D01*
X148490476Y-110988152D02*
X148538095Y-110797676D01*
X148538095Y-110797676D02*
X148633333Y-110702438D01*
X148633333Y-110702438D02*
X148728571Y-110654819D01*
X148728571Y-110654819D02*
X148919047Y-110654819D01*
X148919047Y-110654819D02*
X149014285Y-110702438D01*
X149014285Y-110702438D02*
X149109523Y-110797676D01*
X149109523Y-110797676D02*
X149157142Y-110988152D01*
X149157142Y-110988152D02*
X149157142Y-111321485D01*
X149157142Y-111321485D02*
X149109523Y-111511961D01*
X149109523Y-111511961D02*
X149014285Y-111607200D01*
X149014285Y-111607200D02*
X148919047Y-111654819D01*
X148919047Y-111654819D02*
X148728571Y-111654819D01*
X150109523Y-111654819D02*
X149538095Y-111654819D01*
X149823809Y-111654819D02*
X149823809Y-110654819D01*
X149823809Y-110654819D02*
X149728571Y-110797676D01*
X149728571Y-110797676D02*
X149633333Y-110892914D01*
X149633333Y-110892914D02*
X149538095Y-110940533D01*
X158233333Y-85859580D02*
X158185714Y-85907200D01*
X158185714Y-85907200D02*
X158042857Y-85954819D01*
X158042857Y-85954819D02*
X157947619Y-85954819D01*
X157947619Y-85954819D02*
X157804762Y-85907200D01*
X157804762Y-85907200D02*
X157709524Y-85811961D01*
X157709524Y-85811961D02*
X157661905Y-85716723D01*
X157661905Y-85716723D02*
X157614286Y-85526247D01*
X157614286Y-85526247D02*
X157614286Y-85383390D01*
X157614286Y-85383390D02*
X157661905Y-85192914D01*
X157661905Y-85192914D02*
X157709524Y-85097676D01*
X157709524Y-85097676D02*
X157804762Y-85002438D01*
X157804762Y-85002438D02*
X157947619Y-84954819D01*
X157947619Y-84954819D02*
X158042857Y-84954819D01*
X158042857Y-84954819D02*
X158185714Y-85002438D01*
X158185714Y-85002438D02*
X158233333Y-85050057D01*
X158614286Y-85050057D02*
X158661905Y-85002438D01*
X158661905Y-85002438D02*
X158757143Y-84954819D01*
X158757143Y-84954819D02*
X158995238Y-84954819D01*
X158995238Y-84954819D02*
X159090476Y-85002438D01*
X159090476Y-85002438D02*
X159138095Y-85050057D01*
X159138095Y-85050057D02*
X159185714Y-85145295D01*
X159185714Y-85145295D02*
X159185714Y-85240533D01*
X159185714Y-85240533D02*
X159138095Y-85383390D01*
X159138095Y-85383390D02*
X158566667Y-85954819D01*
X158566667Y-85954819D02*
X159185714Y-85954819D01*
X157252380Y-87354819D02*
X156680952Y-87354819D01*
X156966666Y-87354819D02*
X156966666Y-86354819D01*
X156966666Y-86354819D02*
X156871428Y-86497676D01*
X156871428Y-86497676D02*
X156776190Y-86592914D01*
X156776190Y-86592914D02*
X156680952Y-86640533D01*
X157871428Y-86354819D02*
X157966666Y-86354819D01*
X157966666Y-86354819D02*
X158061904Y-86402438D01*
X158061904Y-86402438D02*
X158109523Y-86450057D01*
X158109523Y-86450057D02*
X158157142Y-86545295D01*
X158157142Y-86545295D02*
X158204761Y-86735771D01*
X158204761Y-86735771D02*
X158204761Y-86973866D01*
X158204761Y-86973866D02*
X158157142Y-87164342D01*
X158157142Y-87164342D02*
X158109523Y-87259580D01*
X158109523Y-87259580D02*
X158061904Y-87307200D01*
X158061904Y-87307200D02*
X157966666Y-87354819D01*
X157966666Y-87354819D02*
X157871428Y-87354819D01*
X157871428Y-87354819D02*
X157776190Y-87307200D01*
X157776190Y-87307200D02*
X157728571Y-87259580D01*
X157728571Y-87259580D02*
X157680952Y-87164342D01*
X157680952Y-87164342D02*
X157633333Y-86973866D01*
X157633333Y-86973866D02*
X157633333Y-86735771D01*
X157633333Y-86735771D02*
X157680952Y-86545295D01*
X157680952Y-86545295D02*
X157728571Y-86450057D01*
X157728571Y-86450057D02*
X157776190Y-86402438D01*
X157776190Y-86402438D02*
X157871428Y-86354819D01*
X158823809Y-86354819D02*
X158919047Y-86354819D01*
X158919047Y-86354819D02*
X159014285Y-86402438D01*
X159014285Y-86402438D02*
X159061904Y-86450057D01*
X159061904Y-86450057D02*
X159109523Y-86545295D01*
X159109523Y-86545295D02*
X159157142Y-86735771D01*
X159157142Y-86735771D02*
X159157142Y-86973866D01*
X159157142Y-86973866D02*
X159109523Y-87164342D01*
X159109523Y-87164342D02*
X159061904Y-87259580D01*
X159061904Y-87259580D02*
X159014285Y-87307200D01*
X159014285Y-87307200D02*
X158919047Y-87354819D01*
X158919047Y-87354819D02*
X158823809Y-87354819D01*
X158823809Y-87354819D02*
X158728571Y-87307200D01*
X158728571Y-87307200D02*
X158680952Y-87259580D01*
X158680952Y-87259580D02*
X158633333Y-87164342D01*
X158633333Y-87164342D02*
X158585714Y-86973866D01*
X158585714Y-86973866D02*
X158585714Y-86735771D01*
X158585714Y-86735771D02*
X158633333Y-86545295D01*
X158633333Y-86545295D02*
X158680952Y-86450057D01*
X158680952Y-86450057D02*
X158728571Y-86402438D01*
X158728571Y-86402438D02*
X158823809Y-86354819D01*
X159585714Y-86688152D02*
X159585714Y-87688152D01*
X159585714Y-86735771D02*
X159680952Y-86688152D01*
X159680952Y-86688152D02*
X159871428Y-86688152D01*
X159871428Y-86688152D02*
X159966666Y-86735771D01*
X159966666Y-86735771D02*
X160014285Y-86783390D01*
X160014285Y-86783390D02*
X160061904Y-86878628D01*
X160061904Y-86878628D02*
X160061904Y-87164342D01*
X160061904Y-87164342D02*
X160014285Y-87259580D01*
X160014285Y-87259580D02*
X159966666Y-87307200D01*
X159966666Y-87307200D02*
X159871428Y-87354819D01*
X159871428Y-87354819D02*
X159680952Y-87354819D01*
X159680952Y-87354819D02*
X159585714Y-87307200D01*
X160823809Y-86831009D02*
X160490476Y-86831009D01*
X160490476Y-87354819D02*
X160490476Y-86354819D01*
X160490476Y-86354819D02*
X160966666Y-86354819D01*
X119657142Y-101604819D02*
X119323809Y-101128628D01*
X119085714Y-101604819D02*
X119085714Y-100604819D01*
X119085714Y-100604819D02*
X119466666Y-100604819D01*
X119466666Y-100604819D02*
X119561904Y-100652438D01*
X119561904Y-100652438D02*
X119609523Y-100700057D01*
X119609523Y-100700057D02*
X119657142Y-100795295D01*
X119657142Y-100795295D02*
X119657142Y-100938152D01*
X119657142Y-100938152D02*
X119609523Y-101033390D01*
X119609523Y-101033390D02*
X119561904Y-101081009D01*
X119561904Y-101081009D02*
X119466666Y-101128628D01*
X119466666Y-101128628D02*
X119085714Y-101128628D01*
X120609523Y-101604819D02*
X120038095Y-101604819D01*
X120323809Y-101604819D02*
X120323809Y-100604819D01*
X120323809Y-100604819D02*
X120228571Y-100747676D01*
X120228571Y-100747676D02*
X120133333Y-100842914D01*
X120133333Y-100842914D02*
X120038095Y-100890533D01*
X121466666Y-100938152D02*
X121466666Y-101604819D01*
X121228571Y-100557200D02*
X120990476Y-101271485D01*
X120990476Y-101271485D02*
X121609523Y-101271485D01*
X119207142Y-103004819D02*
X118635714Y-103004819D01*
X118921428Y-103004819D02*
X118921428Y-102004819D01*
X118921428Y-102004819D02*
X118826190Y-102147676D01*
X118826190Y-102147676D02*
X118730952Y-102242914D01*
X118730952Y-102242914D02*
X118635714Y-102290533D01*
X119826190Y-102004819D02*
X119921428Y-102004819D01*
X119921428Y-102004819D02*
X120016666Y-102052438D01*
X120016666Y-102052438D02*
X120064285Y-102100057D01*
X120064285Y-102100057D02*
X120111904Y-102195295D01*
X120111904Y-102195295D02*
X120159523Y-102385771D01*
X120159523Y-102385771D02*
X120159523Y-102623866D01*
X120159523Y-102623866D02*
X120111904Y-102814342D01*
X120111904Y-102814342D02*
X120064285Y-102909580D01*
X120064285Y-102909580D02*
X120016666Y-102957200D01*
X120016666Y-102957200D02*
X119921428Y-103004819D01*
X119921428Y-103004819D02*
X119826190Y-103004819D01*
X119826190Y-103004819D02*
X119730952Y-102957200D01*
X119730952Y-102957200D02*
X119683333Y-102909580D01*
X119683333Y-102909580D02*
X119635714Y-102814342D01*
X119635714Y-102814342D02*
X119588095Y-102623866D01*
X119588095Y-102623866D02*
X119588095Y-102385771D01*
X119588095Y-102385771D02*
X119635714Y-102195295D01*
X119635714Y-102195295D02*
X119683333Y-102100057D01*
X119683333Y-102100057D02*
X119730952Y-102052438D01*
X119730952Y-102052438D02*
X119826190Y-102004819D01*
X120778571Y-102004819D02*
X120873809Y-102004819D01*
X120873809Y-102004819D02*
X120969047Y-102052438D01*
X120969047Y-102052438D02*
X121016666Y-102100057D01*
X121016666Y-102100057D02*
X121064285Y-102195295D01*
X121064285Y-102195295D02*
X121111904Y-102385771D01*
X121111904Y-102385771D02*
X121111904Y-102623866D01*
X121111904Y-102623866D02*
X121064285Y-102814342D01*
X121064285Y-102814342D02*
X121016666Y-102909580D01*
X121016666Y-102909580D02*
X120969047Y-102957200D01*
X120969047Y-102957200D02*
X120873809Y-103004819D01*
X120873809Y-103004819D02*
X120778571Y-103004819D01*
X120778571Y-103004819D02*
X120683333Y-102957200D01*
X120683333Y-102957200D02*
X120635714Y-102909580D01*
X120635714Y-102909580D02*
X120588095Y-102814342D01*
X120588095Y-102814342D02*
X120540476Y-102623866D01*
X120540476Y-102623866D02*
X120540476Y-102385771D01*
X120540476Y-102385771D02*
X120588095Y-102195295D01*
X120588095Y-102195295D02*
X120635714Y-102100057D01*
X120635714Y-102100057D02*
X120683333Y-102052438D01*
X120683333Y-102052438D02*
X120778571Y-102004819D01*
X121730952Y-102004819D02*
X121826190Y-102004819D01*
X121826190Y-102004819D02*
X121921428Y-102052438D01*
X121921428Y-102052438D02*
X121969047Y-102100057D01*
X121969047Y-102100057D02*
X122016666Y-102195295D01*
X122016666Y-102195295D02*
X122064285Y-102385771D01*
X122064285Y-102385771D02*
X122064285Y-102623866D01*
X122064285Y-102623866D02*
X122016666Y-102814342D01*
X122016666Y-102814342D02*
X121969047Y-102909580D01*
X121969047Y-102909580D02*
X121921428Y-102957200D01*
X121921428Y-102957200D02*
X121826190Y-103004819D01*
X121826190Y-103004819D02*
X121730952Y-103004819D01*
X121730952Y-103004819D02*
X121635714Y-102957200D01*
X121635714Y-102957200D02*
X121588095Y-102909580D01*
X121588095Y-102909580D02*
X121540476Y-102814342D01*
X121540476Y-102814342D02*
X121492857Y-102623866D01*
X121492857Y-102623866D02*
X121492857Y-102385771D01*
X121492857Y-102385771D02*
X121540476Y-102195295D01*
X121540476Y-102195295D02*
X121588095Y-102100057D01*
X121588095Y-102100057D02*
X121635714Y-102052438D01*
X121635714Y-102052438D02*
X121730952Y-102004819D01*
X148309524Y-125331009D02*
X148642857Y-125331009D01*
X148785714Y-125854819D02*
X148309524Y-125854819D01*
X148309524Y-125854819D02*
X148309524Y-124854819D01*
X148309524Y-124854819D02*
X148785714Y-124854819D01*
X149166667Y-124950057D02*
X149214286Y-124902438D01*
X149214286Y-124902438D02*
X149309524Y-124854819D01*
X149309524Y-124854819D02*
X149547619Y-124854819D01*
X149547619Y-124854819D02*
X149642857Y-124902438D01*
X149642857Y-124902438D02*
X149690476Y-124950057D01*
X149690476Y-124950057D02*
X149738095Y-125045295D01*
X149738095Y-125045295D02*
X149738095Y-125140533D01*
X149738095Y-125140533D02*
X149690476Y-125283390D01*
X149690476Y-125283390D02*
X149119048Y-125854819D01*
X149119048Y-125854819D02*
X149738095Y-125854819D01*
X106666666Y-123354819D02*
X106666666Y-124069104D01*
X106666666Y-124069104D02*
X106619047Y-124211961D01*
X106619047Y-124211961D02*
X106523809Y-124307200D01*
X106523809Y-124307200D02*
X106380952Y-124354819D01*
X106380952Y-124354819D02*
X106285714Y-124354819D01*
X107619047Y-123354819D02*
X107142857Y-123354819D01*
X107142857Y-123354819D02*
X107095238Y-123831009D01*
X107095238Y-123831009D02*
X107142857Y-123783390D01*
X107142857Y-123783390D02*
X107238095Y-123735771D01*
X107238095Y-123735771D02*
X107476190Y-123735771D01*
X107476190Y-123735771D02*
X107571428Y-123783390D01*
X107571428Y-123783390D02*
X107619047Y-123831009D01*
X107619047Y-123831009D02*
X107666666Y-123926247D01*
X107666666Y-123926247D02*
X107666666Y-124164342D01*
X107666666Y-124164342D02*
X107619047Y-124259580D01*
X107619047Y-124259580D02*
X107571428Y-124307200D01*
X107571428Y-124307200D02*
X107476190Y-124354819D01*
X107476190Y-124354819D02*
X107238095Y-124354819D01*
X107238095Y-124354819D02*
X107142857Y-124307200D01*
X107142857Y-124307200D02*
X107095238Y-124259580D01*
X103366666Y-63804819D02*
X103366666Y-64519104D01*
X103366666Y-64519104D02*
X103319047Y-64661961D01*
X103319047Y-64661961D02*
X103223809Y-64757200D01*
X103223809Y-64757200D02*
X103080952Y-64804819D01*
X103080952Y-64804819D02*
X102985714Y-64804819D01*
X103795238Y-63900057D02*
X103842857Y-63852438D01*
X103842857Y-63852438D02*
X103938095Y-63804819D01*
X103938095Y-63804819D02*
X104176190Y-63804819D01*
X104176190Y-63804819D02*
X104271428Y-63852438D01*
X104271428Y-63852438D02*
X104319047Y-63900057D01*
X104319047Y-63900057D02*
X104366666Y-63995295D01*
X104366666Y-63995295D02*
X104366666Y-64090533D01*
X104366666Y-64090533D02*
X104319047Y-64233390D01*
X104319047Y-64233390D02*
X103747619Y-64804819D01*
X103747619Y-64804819D02*
X104366666Y-64804819D01*
X103316666Y-113304819D02*
X103316666Y-114019104D01*
X103316666Y-114019104D02*
X103269047Y-114161961D01*
X103269047Y-114161961D02*
X103173809Y-114257200D01*
X103173809Y-114257200D02*
X103030952Y-114304819D01*
X103030952Y-114304819D02*
X102935714Y-114304819D01*
X103697619Y-113304819D02*
X104316666Y-113304819D01*
X104316666Y-113304819D02*
X103983333Y-113685771D01*
X103983333Y-113685771D02*
X104126190Y-113685771D01*
X104126190Y-113685771D02*
X104221428Y-113733390D01*
X104221428Y-113733390D02*
X104269047Y-113781009D01*
X104269047Y-113781009D02*
X104316666Y-113876247D01*
X104316666Y-113876247D02*
X104316666Y-114114342D01*
X104316666Y-114114342D02*
X104269047Y-114209580D01*
X104269047Y-114209580D02*
X104221428Y-114257200D01*
X104221428Y-114257200D02*
X104126190Y-114304819D01*
X104126190Y-114304819D02*
X103840476Y-114304819D01*
X103840476Y-114304819D02*
X103745238Y-114257200D01*
X103745238Y-114257200D02*
X103697619Y-114209580D01*
X121071009Y-112340475D02*
X121071009Y-112007142D01*
X121594819Y-111864285D02*
X121594819Y-112340475D01*
X121594819Y-112340475D02*
X120594819Y-112340475D01*
X120594819Y-112340475D02*
X120594819Y-111864285D01*
X120594819Y-110959523D02*
X120594819Y-111435713D01*
X120594819Y-111435713D02*
X121071009Y-111483332D01*
X121071009Y-111483332D02*
X121023390Y-111435713D01*
X121023390Y-111435713D02*
X120975771Y-111340475D01*
X120975771Y-111340475D02*
X120975771Y-111102380D01*
X120975771Y-111102380D02*
X121023390Y-111007142D01*
X121023390Y-111007142D02*
X121071009Y-110959523D01*
X121071009Y-110959523D02*
X121166247Y-110911904D01*
X121166247Y-110911904D02*
X121404342Y-110911904D01*
X121404342Y-110911904D02*
X121499580Y-110959523D01*
X121499580Y-110959523D02*
X121547200Y-111007142D01*
X121547200Y-111007142D02*
X121594819Y-111102380D01*
X121594819Y-111102380D02*
X121594819Y-111340475D01*
X121594819Y-111340475D02*
X121547200Y-111435713D01*
X121547200Y-111435713D02*
X121499580Y-111483332D01*
X107957142Y-112104819D02*
X107623809Y-111628628D01*
X107385714Y-112104819D02*
X107385714Y-111104819D01*
X107385714Y-111104819D02*
X107766666Y-111104819D01*
X107766666Y-111104819D02*
X107861904Y-111152438D01*
X107861904Y-111152438D02*
X107909523Y-111200057D01*
X107909523Y-111200057D02*
X107957142Y-111295295D01*
X107957142Y-111295295D02*
X107957142Y-111438152D01*
X107957142Y-111438152D02*
X107909523Y-111533390D01*
X107909523Y-111533390D02*
X107861904Y-111581009D01*
X107861904Y-111581009D02*
X107766666Y-111628628D01*
X107766666Y-111628628D02*
X107385714Y-111628628D01*
X108338095Y-111200057D02*
X108385714Y-111152438D01*
X108385714Y-111152438D02*
X108480952Y-111104819D01*
X108480952Y-111104819D02*
X108719047Y-111104819D01*
X108719047Y-111104819D02*
X108814285Y-111152438D01*
X108814285Y-111152438D02*
X108861904Y-111200057D01*
X108861904Y-111200057D02*
X108909523Y-111295295D01*
X108909523Y-111295295D02*
X108909523Y-111390533D01*
X108909523Y-111390533D02*
X108861904Y-111533390D01*
X108861904Y-111533390D02*
X108290476Y-112104819D01*
X108290476Y-112104819D02*
X108909523Y-112104819D01*
X109528571Y-111104819D02*
X109623809Y-111104819D01*
X109623809Y-111104819D02*
X109719047Y-111152438D01*
X109719047Y-111152438D02*
X109766666Y-111200057D01*
X109766666Y-111200057D02*
X109814285Y-111295295D01*
X109814285Y-111295295D02*
X109861904Y-111485771D01*
X109861904Y-111485771D02*
X109861904Y-111723866D01*
X109861904Y-111723866D02*
X109814285Y-111914342D01*
X109814285Y-111914342D02*
X109766666Y-112009580D01*
X109766666Y-112009580D02*
X109719047Y-112057200D01*
X109719047Y-112057200D02*
X109623809Y-112104819D01*
X109623809Y-112104819D02*
X109528571Y-112104819D01*
X109528571Y-112104819D02*
X109433333Y-112057200D01*
X109433333Y-112057200D02*
X109385714Y-112009580D01*
X109385714Y-112009580D02*
X109338095Y-111914342D01*
X109338095Y-111914342D02*
X109290476Y-111723866D01*
X109290476Y-111723866D02*
X109290476Y-111485771D01*
X109290476Y-111485771D02*
X109338095Y-111295295D01*
X109338095Y-111295295D02*
X109385714Y-111200057D01*
X109385714Y-111200057D02*
X109433333Y-111152438D01*
X109433333Y-111152438D02*
X109528571Y-111104819D01*
X107954761Y-113554819D02*
X107383333Y-113554819D01*
X107669047Y-113554819D02*
X107669047Y-112554819D01*
X107669047Y-112554819D02*
X107573809Y-112697676D01*
X107573809Y-112697676D02*
X107478571Y-112792914D01*
X107478571Y-112792914D02*
X107383333Y-112840533D01*
X108573809Y-112554819D02*
X108669047Y-112554819D01*
X108669047Y-112554819D02*
X108764285Y-112602438D01*
X108764285Y-112602438D02*
X108811904Y-112650057D01*
X108811904Y-112650057D02*
X108859523Y-112745295D01*
X108859523Y-112745295D02*
X108907142Y-112935771D01*
X108907142Y-112935771D02*
X108907142Y-113173866D01*
X108907142Y-113173866D02*
X108859523Y-113364342D01*
X108859523Y-113364342D02*
X108811904Y-113459580D01*
X108811904Y-113459580D02*
X108764285Y-113507200D01*
X108764285Y-113507200D02*
X108669047Y-113554819D01*
X108669047Y-113554819D02*
X108573809Y-113554819D01*
X108573809Y-113554819D02*
X108478571Y-113507200D01*
X108478571Y-113507200D02*
X108430952Y-113459580D01*
X108430952Y-113459580D02*
X108383333Y-113364342D01*
X108383333Y-113364342D02*
X108335714Y-113173866D01*
X108335714Y-113173866D02*
X108335714Y-112935771D01*
X108335714Y-112935771D02*
X108383333Y-112745295D01*
X108383333Y-112745295D02*
X108430952Y-112650057D01*
X108430952Y-112650057D02*
X108478571Y-112602438D01*
X108478571Y-112602438D02*
X108573809Y-112554819D01*
X109335714Y-113554819D02*
X109335714Y-112554819D01*
X109430952Y-113173866D02*
X109716666Y-113554819D01*
X109716666Y-112888152D02*
X109335714Y-113269104D01*
X131907142Y-110559580D02*
X131859523Y-110607200D01*
X131859523Y-110607200D02*
X131716666Y-110654819D01*
X131716666Y-110654819D02*
X131621428Y-110654819D01*
X131621428Y-110654819D02*
X131478571Y-110607200D01*
X131478571Y-110607200D02*
X131383333Y-110511961D01*
X131383333Y-110511961D02*
X131335714Y-110416723D01*
X131335714Y-110416723D02*
X131288095Y-110226247D01*
X131288095Y-110226247D02*
X131288095Y-110083390D01*
X131288095Y-110083390D02*
X131335714Y-109892914D01*
X131335714Y-109892914D02*
X131383333Y-109797676D01*
X131383333Y-109797676D02*
X131478571Y-109702438D01*
X131478571Y-109702438D02*
X131621428Y-109654819D01*
X131621428Y-109654819D02*
X131716666Y-109654819D01*
X131716666Y-109654819D02*
X131859523Y-109702438D01*
X131859523Y-109702438D02*
X131907142Y-109750057D01*
X132859523Y-110654819D02*
X132288095Y-110654819D01*
X132573809Y-110654819D02*
X132573809Y-109654819D01*
X132573809Y-109654819D02*
X132478571Y-109797676D01*
X132478571Y-109797676D02*
X132383333Y-109892914D01*
X132383333Y-109892914D02*
X132288095Y-109940533D01*
X133430952Y-110083390D02*
X133335714Y-110035771D01*
X133335714Y-110035771D02*
X133288095Y-109988152D01*
X133288095Y-109988152D02*
X133240476Y-109892914D01*
X133240476Y-109892914D02*
X133240476Y-109845295D01*
X133240476Y-109845295D02*
X133288095Y-109750057D01*
X133288095Y-109750057D02*
X133335714Y-109702438D01*
X133335714Y-109702438D02*
X133430952Y-109654819D01*
X133430952Y-109654819D02*
X133621428Y-109654819D01*
X133621428Y-109654819D02*
X133716666Y-109702438D01*
X133716666Y-109702438D02*
X133764285Y-109750057D01*
X133764285Y-109750057D02*
X133811904Y-109845295D01*
X133811904Y-109845295D02*
X133811904Y-109892914D01*
X133811904Y-109892914D02*
X133764285Y-109988152D01*
X133764285Y-109988152D02*
X133716666Y-110035771D01*
X133716666Y-110035771D02*
X133621428Y-110083390D01*
X133621428Y-110083390D02*
X133430952Y-110083390D01*
X133430952Y-110083390D02*
X133335714Y-110131009D01*
X133335714Y-110131009D02*
X133288095Y-110178628D01*
X133288095Y-110178628D02*
X133240476Y-110273866D01*
X133240476Y-110273866D02*
X133240476Y-110464342D01*
X133240476Y-110464342D02*
X133288095Y-110559580D01*
X133288095Y-110559580D02*
X133335714Y-110607200D01*
X133335714Y-110607200D02*
X133430952Y-110654819D01*
X133430952Y-110654819D02*
X133621428Y-110654819D01*
X133621428Y-110654819D02*
X133716666Y-110607200D01*
X133716666Y-110607200D02*
X133764285Y-110559580D01*
X133764285Y-110559580D02*
X133811904Y-110464342D01*
X133811904Y-110464342D02*
X133811904Y-110273866D01*
X133811904Y-110273866D02*
X133764285Y-110178628D01*
X133764285Y-110178628D02*
X133716666Y-110131009D01*
X133716666Y-110131009D02*
X133621428Y-110083390D01*
X135404761Y-110654819D02*
X134833333Y-110654819D01*
X135119047Y-110654819D02*
X135119047Y-109654819D01*
X135119047Y-109654819D02*
X135023809Y-109797676D01*
X135023809Y-109797676D02*
X134928571Y-109892914D01*
X134928571Y-109892914D02*
X134833333Y-109940533D01*
X136261904Y-109988152D02*
X136261904Y-110654819D01*
X135833333Y-109988152D02*
X135833333Y-110511961D01*
X135833333Y-110511961D02*
X135880952Y-110607200D01*
X135880952Y-110607200D02*
X135976190Y-110654819D01*
X135976190Y-110654819D02*
X136119047Y-110654819D01*
X136119047Y-110654819D02*
X136214285Y-110607200D01*
X136214285Y-110607200D02*
X136261904Y-110559580D01*
X137071428Y-110131009D02*
X136738095Y-110131009D01*
X136738095Y-110654819D02*
X136738095Y-109654819D01*
X136738095Y-109654819D02*
X137214285Y-109654819D01*
X111609524Y-115531009D02*
X111942857Y-115531009D01*
X112085714Y-116054819D02*
X111609524Y-116054819D01*
X111609524Y-116054819D02*
X111609524Y-115054819D01*
X111609524Y-115054819D02*
X112085714Y-115054819D01*
X112942857Y-115388152D02*
X112942857Y-116054819D01*
X112704762Y-115007200D02*
X112466667Y-115721485D01*
X112466667Y-115721485D02*
X113085714Y-115721485D01*
X154926524Y-125349609D02*
X155259857Y-125349609D01*
X155402714Y-125873419D02*
X154926524Y-125873419D01*
X154926524Y-125873419D02*
X154926524Y-124873419D01*
X154926524Y-124873419D02*
X155402714Y-124873419D01*
X155736048Y-124873419D02*
X156355095Y-124873419D01*
X156355095Y-124873419D02*
X156021762Y-125254371D01*
X156021762Y-125254371D02*
X156164619Y-125254371D01*
X156164619Y-125254371D02*
X156259857Y-125301990D01*
X156259857Y-125301990D02*
X156307476Y-125349609D01*
X156307476Y-125349609D02*
X156355095Y-125444847D01*
X156355095Y-125444847D02*
X156355095Y-125682942D01*
X156355095Y-125682942D02*
X156307476Y-125778180D01*
X156307476Y-125778180D02*
X156259857Y-125825800D01*
X156259857Y-125825800D02*
X156164619Y-125873419D01*
X156164619Y-125873419D02*
X155878905Y-125873419D01*
X155878905Y-125873419D02*
X155783667Y-125825800D01*
X155783667Y-125825800D02*
X155736048Y-125778180D01*
X137333333Y-96754819D02*
X137000000Y-96278628D01*
X136761905Y-96754819D02*
X136761905Y-95754819D01*
X136761905Y-95754819D02*
X137142857Y-95754819D01*
X137142857Y-95754819D02*
X137238095Y-95802438D01*
X137238095Y-95802438D02*
X137285714Y-95850057D01*
X137285714Y-95850057D02*
X137333333Y-95945295D01*
X137333333Y-95945295D02*
X137333333Y-96088152D01*
X137333333Y-96088152D02*
X137285714Y-96183390D01*
X137285714Y-96183390D02*
X137238095Y-96231009D01*
X137238095Y-96231009D02*
X137142857Y-96278628D01*
X137142857Y-96278628D02*
X136761905Y-96278628D01*
X138238095Y-95754819D02*
X137761905Y-95754819D01*
X137761905Y-95754819D02*
X137714286Y-96231009D01*
X137714286Y-96231009D02*
X137761905Y-96183390D01*
X137761905Y-96183390D02*
X137857143Y-96135771D01*
X137857143Y-96135771D02*
X138095238Y-96135771D01*
X138095238Y-96135771D02*
X138190476Y-96183390D01*
X138190476Y-96183390D02*
X138238095Y-96231009D01*
X138238095Y-96231009D02*
X138285714Y-96326247D01*
X138285714Y-96326247D02*
X138285714Y-96564342D01*
X138285714Y-96564342D02*
X138238095Y-96659580D01*
X138238095Y-96659580D02*
X138190476Y-96707200D01*
X138190476Y-96707200D02*
X138095238Y-96754819D01*
X138095238Y-96754819D02*
X137857143Y-96754819D01*
X137857143Y-96754819D02*
X137761905Y-96707200D01*
X137761905Y-96707200D02*
X137714286Y-96659580D01*
X139261904Y-95754819D02*
X138785714Y-95754819D01*
X138785714Y-95754819D02*
X138738095Y-96231009D01*
X138738095Y-96231009D02*
X138785714Y-96183390D01*
X138785714Y-96183390D02*
X138880952Y-96135771D01*
X138880952Y-96135771D02*
X139119047Y-96135771D01*
X139119047Y-96135771D02*
X139214285Y-96183390D01*
X139214285Y-96183390D02*
X139261904Y-96231009D01*
X139261904Y-96231009D02*
X139309523Y-96326247D01*
X139309523Y-96326247D02*
X139309523Y-96564342D01*
X139309523Y-96564342D02*
X139261904Y-96659580D01*
X139261904Y-96659580D02*
X139214285Y-96707200D01*
X139214285Y-96707200D02*
X139119047Y-96754819D01*
X139119047Y-96754819D02*
X138880952Y-96754819D01*
X138880952Y-96754819D02*
X138785714Y-96707200D01*
X138785714Y-96707200D02*
X138738095Y-96659580D01*
X140166666Y-95754819D02*
X139976190Y-95754819D01*
X139976190Y-95754819D02*
X139880952Y-95802438D01*
X139880952Y-95802438D02*
X139833333Y-95850057D01*
X139833333Y-95850057D02*
X139738095Y-95992914D01*
X139738095Y-95992914D02*
X139690476Y-96183390D01*
X139690476Y-96183390D02*
X139690476Y-96564342D01*
X139690476Y-96564342D02*
X139738095Y-96659580D01*
X139738095Y-96659580D02*
X139785714Y-96707200D01*
X139785714Y-96707200D02*
X139880952Y-96754819D01*
X139880952Y-96754819D02*
X140071428Y-96754819D01*
X140071428Y-96754819D02*
X140166666Y-96707200D01*
X140166666Y-96707200D02*
X140214285Y-96659580D01*
X140214285Y-96659580D02*
X140261904Y-96564342D01*
X140261904Y-96564342D02*
X140261904Y-96326247D01*
X140261904Y-96326247D02*
X140214285Y-96231009D01*
X140214285Y-96231009D02*
X140166666Y-96183390D01*
X140166666Y-96183390D02*
X140071428Y-96135771D01*
X140071428Y-96135771D02*
X139880952Y-96135771D01*
X139880952Y-96135771D02*
X139785714Y-96183390D01*
X139785714Y-96183390D02*
X139738095Y-96231009D01*
X139738095Y-96231009D02*
X139690476Y-96326247D01*
X113544761Y-103150057D02*
X113449523Y-103102438D01*
X113449523Y-103102438D02*
X113354285Y-103007200D01*
X113354285Y-103007200D02*
X113211428Y-102864342D01*
X113211428Y-102864342D02*
X113116190Y-102816723D01*
X113116190Y-102816723D02*
X113020952Y-102816723D01*
X113068571Y-103054819D02*
X112973333Y-103007200D01*
X112973333Y-103007200D02*
X112878095Y-102911961D01*
X112878095Y-102911961D02*
X112830476Y-102721485D01*
X112830476Y-102721485D02*
X112830476Y-102388152D01*
X112830476Y-102388152D02*
X112878095Y-102197676D01*
X112878095Y-102197676D02*
X112973333Y-102102438D01*
X112973333Y-102102438D02*
X113068571Y-102054819D01*
X113068571Y-102054819D02*
X113259047Y-102054819D01*
X113259047Y-102054819D02*
X113354285Y-102102438D01*
X113354285Y-102102438D02*
X113449523Y-102197676D01*
X113449523Y-102197676D02*
X113497142Y-102388152D01*
X113497142Y-102388152D02*
X113497142Y-102721485D01*
X113497142Y-102721485D02*
X113449523Y-102911961D01*
X113449523Y-102911961D02*
X113354285Y-103007200D01*
X113354285Y-103007200D02*
X113259047Y-103054819D01*
X113259047Y-103054819D02*
X113068571Y-103054819D01*
X114401904Y-102054819D02*
X113925714Y-102054819D01*
X113925714Y-102054819D02*
X113878095Y-102531009D01*
X113878095Y-102531009D02*
X113925714Y-102483390D01*
X113925714Y-102483390D02*
X114020952Y-102435771D01*
X114020952Y-102435771D02*
X114259047Y-102435771D01*
X114259047Y-102435771D02*
X114354285Y-102483390D01*
X114354285Y-102483390D02*
X114401904Y-102531009D01*
X114401904Y-102531009D02*
X114449523Y-102626247D01*
X114449523Y-102626247D02*
X114449523Y-102864342D01*
X114449523Y-102864342D02*
X114401904Y-102959580D01*
X114401904Y-102959580D02*
X114354285Y-103007200D01*
X114354285Y-103007200D02*
X114259047Y-103054819D01*
X114259047Y-103054819D02*
X114020952Y-103054819D01*
X114020952Y-103054819D02*
X113925714Y-103007200D01*
X113925714Y-103007200D02*
X113878095Y-102959580D01*
X108244761Y-96100057D02*
X108149523Y-96052438D01*
X108149523Y-96052438D02*
X108054285Y-95957200D01*
X108054285Y-95957200D02*
X107911428Y-95814342D01*
X107911428Y-95814342D02*
X107816190Y-95766723D01*
X107816190Y-95766723D02*
X107720952Y-95766723D01*
X107768571Y-96004819D02*
X107673333Y-95957200D01*
X107673333Y-95957200D02*
X107578095Y-95861961D01*
X107578095Y-95861961D02*
X107530476Y-95671485D01*
X107530476Y-95671485D02*
X107530476Y-95338152D01*
X107530476Y-95338152D02*
X107578095Y-95147676D01*
X107578095Y-95147676D02*
X107673333Y-95052438D01*
X107673333Y-95052438D02*
X107768571Y-95004819D01*
X107768571Y-95004819D02*
X107959047Y-95004819D01*
X107959047Y-95004819D02*
X108054285Y-95052438D01*
X108054285Y-95052438D02*
X108149523Y-95147676D01*
X108149523Y-95147676D02*
X108197142Y-95338152D01*
X108197142Y-95338152D02*
X108197142Y-95671485D01*
X108197142Y-95671485D02*
X108149523Y-95861961D01*
X108149523Y-95861961D02*
X108054285Y-95957200D01*
X108054285Y-95957200D02*
X107959047Y-96004819D01*
X107959047Y-96004819D02*
X107768571Y-96004819D01*
X109054285Y-95338152D02*
X109054285Y-96004819D01*
X108816190Y-94957200D02*
X108578095Y-95671485D01*
X108578095Y-95671485D02*
X109197142Y-95671485D01*
X108257142Y-75404819D02*
X107923809Y-74928628D01*
X107685714Y-75404819D02*
X107685714Y-74404819D01*
X107685714Y-74404819D02*
X108066666Y-74404819D01*
X108066666Y-74404819D02*
X108161904Y-74452438D01*
X108161904Y-74452438D02*
X108209523Y-74500057D01*
X108209523Y-74500057D02*
X108257142Y-74595295D01*
X108257142Y-74595295D02*
X108257142Y-74738152D01*
X108257142Y-74738152D02*
X108209523Y-74833390D01*
X108209523Y-74833390D02*
X108161904Y-74881009D01*
X108161904Y-74881009D02*
X108066666Y-74928628D01*
X108066666Y-74928628D02*
X107685714Y-74928628D01*
X109209523Y-75404819D02*
X108638095Y-75404819D01*
X108923809Y-75404819D02*
X108923809Y-74404819D01*
X108923809Y-74404819D02*
X108828571Y-74547676D01*
X108828571Y-74547676D02*
X108733333Y-74642914D01*
X108733333Y-74642914D02*
X108638095Y-74690533D01*
X110066666Y-74404819D02*
X109876190Y-74404819D01*
X109876190Y-74404819D02*
X109780952Y-74452438D01*
X109780952Y-74452438D02*
X109733333Y-74500057D01*
X109733333Y-74500057D02*
X109638095Y-74642914D01*
X109638095Y-74642914D02*
X109590476Y-74833390D01*
X109590476Y-74833390D02*
X109590476Y-75214342D01*
X109590476Y-75214342D02*
X109638095Y-75309580D01*
X109638095Y-75309580D02*
X109685714Y-75357200D01*
X109685714Y-75357200D02*
X109780952Y-75404819D01*
X109780952Y-75404819D02*
X109971428Y-75404819D01*
X109971428Y-75404819D02*
X110066666Y-75357200D01*
X110066666Y-75357200D02*
X110114285Y-75309580D01*
X110114285Y-75309580D02*
X110161904Y-75214342D01*
X110161904Y-75214342D02*
X110161904Y-74976247D01*
X110161904Y-74976247D02*
X110114285Y-74881009D01*
X110114285Y-74881009D02*
X110066666Y-74833390D01*
X110066666Y-74833390D02*
X109971428Y-74785771D01*
X109971428Y-74785771D02*
X109780952Y-74785771D01*
X109780952Y-74785771D02*
X109685714Y-74833390D01*
X109685714Y-74833390D02*
X109638095Y-74881009D01*
X109638095Y-74881009D02*
X109590476Y-74976247D01*
X108711904Y-75854819D02*
X108235714Y-75854819D01*
X108235714Y-75854819D02*
X108188095Y-76331009D01*
X108188095Y-76331009D02*
X108235714Y-76283390D01*
X108235714Y-76283390D02*
X108330952Y-76235771D01*
X108330952Y-76235771D02*
X108569047Y-76235771D01*
X108569047Y-76235771D02*
X108664285Y-76283390D01*
X108664285Y-76283390D02*
X108711904Y-76331009D01*
X108711904Y-76331009D02*
X108759523Y-76426247D01*
X108759523Y-76426247D02*
X108759523Y-76664342D01*
X108759523Y-76664342D02*
X108711904Y-76759580D01*
X108711904Y-76759580D02*
X108664285Y-76807200D01*
X108664285Y-76807200D02*
X108569047Y-76854819D01*
X108569047Y-76854819D02*
X108330952Y-76854819D01*
X108330952Y-76854819D02*
X108235714Y-76807200D01*
X108235714Y-76807200D02*
X108188095Y-76759580D01*
X109616666Y-75854819D02*
X109426190Y-75854819D01*
X109426190Y-75854819D02*
X109330952Y-75902438D01*
X109330952Y-75902438D02*
X109283333Y-75950057D01*
X109283333Y-75950057D02*
X109188095Y-76092914D01*
X109188095Y-76092914D02*
X109140476Y-76283390D01*
X109140476Y-76283390D02*
X109140476Y-76664342D01*
X109140476Y-76664342D02*
X109188095Y-76759580D01*
X109188095Y-76759580D02*
X109235714Y-76807200D01*
X109235714Y-76807200D02*
X109330952Y-76854819D01*
X109330952Y-76854819D02*
X109521428Y-76854819D01*
X109521428Y-76854819D02*
X109616666Y-76807200D01*
X109616666Y-76807200D02*
X109664285Y-76759580D01*
X109664285Y-76759580D02*
X109711904Y-76664342D01*
X109711904Y-76664342D02*
X109711904Y-76426247D01*
X109711904Y-76426247D02*
X109664285Y-76331009D01*
X109664285Y-76331009D02*
X109616666Y-76283390D01*
X109616666Y-76283390D02*
X109521428Y-76235771D01*
X109521428Y-76235771D02*
X109330952Y-76235771D01*
X109330952Y-76235771D02*
X109235714Y-76283390D01*
X109235714Y-76283390D02*
X109188095Y-76331009D01*
X109188095Y-76331009D02*
X109140476Y-76426247D01*
X108954761Y-109225057D02*
X108859523Y-109177438D01*
X108859523Y-109177438D02*
X108764285Y-109082200D01*
X108764285Y-109082200D02*
X108621428Y-108939342D01*
X108621428Y-108939342D02*
X108526190Y-108891723D01*
X108526190Y-108891723D02*
X108430952Y-108891723D01*
X108478571Y-109129819D02*
X108383333Y-109082200D01*
X108383333Y-109082200D02*
X108288095Y-108986961D01*
X108288095Y-108986961D02*
X108240476Y-108796485D01*
X108240476Y-108796485D02*
X108240476Y-108463152D01*
X108240476Y-108463152D02*
X108288095Y-108272676D01*
X108288095Y-108272676D02*
X108383333Y-108177438D01*
X108383333Y-108177438D02*
X108478571Y-108129819D01*
X108478571Y-108129819D02*
X108669047Y-108129819D01*
X108669047Y-108129819D02*
X108764285Y-108177438D01*
X108764285Y-108177438D02*
X108859523Y-108272676D01*
X108859523Y-108272676D02*
X108907142Y-108463152D01*
X108907142Y-108463152D02*
X108907142Y-108796485D01*
X108907142Y-108796485D02*
X108859523Y-108986961D01*
X108859523Y-108986961D02*
X108764285Y-109082200D01*
X108764285Y-109082200D02*
X108669047Y-109129819D01*
X108669047Y-109129819D02*
X108478571Y-109129819D01*
X109764285Y-108129819D02*
X109573809Y-108129819D01*
X109573809Y-108129819D02*
X109478571Y-108177438D01*
X109478571Y-108177438D02*
X109430952Y-108225057D01*
X109430952Y-108225057D02*
X109335714Y-108367914D01*
X109335714Y-108367914D02*
X109288095Y-108558390D01*
X109288095Y-108558390D02*
X109288095Y-108939342D01*
X109288095Y-108939342D02*
X109335714Y-109034580D01*
X109335714Y-109034580D02*
X109383333Y-109082200D01*
X109383333Y-109082200D02*
X109478571Y-109129819D01*
X109478571Y-109129819D02*
X109669047Y-109129819D01*
X109669047Y-109129819D02*
X109764285Y-109082200D01*
X109764285Y-109082200D02*
X109811904Y-109034580D01*
X109811904Y-109034580D02*
X109859523Y-108939342D01*
X109859523Y-108939342D02*
X109859523Y-108701247D01*
X109859523Y-108701247D02*
X109811904Y-108606009D01*
X109811904Y-108606009D02*
X109764285Y-108558390D01*
X109764285Y-108558390D02*
X109669047Y-108510771D01*
X109669047Y-108510771D02*
X109478571Y-108510771D01*
X109478571Y-108510771D02*
X109383333Y-108558390D01*
X109383333Y-108558390D02*
X109335714Y-108606009D01*
X109335714Y-108606009D02*
X109288095Y-108701247D01*
X150157142Y-136359580D02*
X150109523Y-136407200D01*
X150109523Y-136407200D02*
X149966666Y-136454819D01*
X149966666Y-136454819D02*
X149871428Y-136454819D01*
X149871428Y-136454819D02*
X149728571Y-136407200D01*
X149728571Y-136407200D02*
X149633333Y-136311961D01*
X149633333Y-136311961D02*
X149585714Y-136216723D01*
X149585714Y-136216723D02*
X149538095Y-136026247D01*
X149538095Y-136026247D02*
X149538095Y-135883390D01*
X149538095Y-135883390D02*
X149585714Y-135692914D01*
X149585714Y-135692914D02*
X149633333Y-135597676D01*
X149633333Y-135597676D02*
X149728571Y-135502438D01*
X149728571Y-135502438D02*
X149871428Y-135454819D01*
X149871428Y-135454819D02*
X149966666Y-135454819D01*
X149966666Y-135454819D02*
X150109523Y-135502438D01*
X150109523Y-135502438D02*
X150157142Y-135550057D01*
X151109523Y-136454819D02*
X150538095Y-136454819D01*
X150823809Y-136454819D02*
X150823809Y-135454819D01*
X150823809Y-135454819D02*
X150728571Y-135597676D01*
X150728571Y-135597676D02*
X150633333Y-135692914D01*
X150633333Y-135692914D02*
X150538095Y-135740533D01*
X151490476Y-135550057D02*
X151538095Y-135502438D01*
X151538095Y-135502438D02*
X151633333Y-135454819D01*
X151633333Y-135454819D02*
X151871428Y-135454819D01*
X151871428Y-135454819D02*
X151966666Y-135502438D01*
X151966666Y-135502438D02*
X152014285Y-135550057D01*
X152014285Y-135550057D02*
X152061904Y-135645295D01*
X152061904Y-135645295D02*
X152061904Y-135740533D01*
X152061904Y-135740533D02*
X152014285Y-135883390D01*
X152014285Y-135883390D02*
X151442857Y-136454819D01*
X151442857Y-136454819D02*
X152061904Y-136454819D01*
X149057143Y-136854819D02*
X149152381Y-136854819D01*
X149152381Y-136854819D02*
X149247619Y-136902438D01*
X149247619Y-136902438D02*
X149295238Y-136950057D01*
X149295238Y-136950057D02*
X149342857Y-137045295D01*
X149342857Y-137045295D02*
X149390476Y-137235771D01*
X149390476Y-137235771D02*
X149390476Y-137473866D01*
X149390476Y-137473866D02*
X149342857Y-137664342D01*
X149342857Y-137664342D02*
X149295238Y-137759580D01*
X149295238Y-137759580D02*
X149247619Y-137807200D01*
X149247619Y-137807200D02*
X149152381Y-137854819D01*
X149152381Y-137854819D02*
X149057143Y-137854819D01*
X149057143Y-137854819D02*
X148961905Y-137807200D01*
X148961905Y-137807200D02*
X148914286Y-137759580D01*
X148914286Y-137759580D02*
X148866667Y-137664342D01*
X148866667Y-137664342D02*
X148819048Y-137473866D01*
X148819048Y-137473866D02*
X148819048Y-137235771D01*
X148819048Y-137235771D02*
X148866667Y-137045295D01*
X148866667Y-137045295D02*
X148914286Y-136950057D01*
X148914286Y-136950057D02*
X148961905Y-136902438D01*
X148961905Y-136902438D02*
X149057143Y-136854819D01*
X149819048Y-137759580D02*
X149866667Y-137807200D01*
X149866667Y-137807200D02*
X149819048Y-137854819D01*
X149819048Y-137854819D02*
X149771429Y-137807200D01*
X149771429Y-137807200D02*
X149819048Y-137759580D01*
X149819048Y-137759580D02*
X149819048Y-137854819D01*
X150819047Y-137854819D02*
X150247619Y-137854819D01*
X150533333Y-137854819D02*
X150533333Y-136854819D01*
X150533333Y-136854819D02*
X150438095Y-136997676D01*
X150438095Y-136997676D02*
X150342857Y-137092914D01*
X150342857Y-137092914D02*
X150247619Y-137140533D01*
X151676190Y-137188152D02*
X151676190Y-137854819D01*
X151247619Y-137188152D02*
X151247619Y-137711961D01*
X151247619Y-137711961D02*
X151295238Y-137807200D01*
X151295238Y-137807200D02*
X151390476Y-137854819D01*
X151390476Y-137854819D02*
X151533333Y-137854819D01*
X151533333Y-137854819D02*
X151628571Y-137807200D01*
X151628571Y-137807200D02*
X151676190Y-137759580D01*
X152485714Y-137331009D02*
X152152381Y-137331009D01*
X152152381Y-137854819D02*
X152152381Y-136854819D01*
X152152381Y-136854819D02*
X152628571Y-136854819D01*
X161859580Y-93666666D02*
X161907200Y-93714285D01*
X161907200Y-93714285D02*
X161954819Y-93857142D01*
X161954819Y-93857142D02*
X161954819Y-93952380D01*
X161954819Y-93952380D02*
X161907200Y-94095237D01*
X161907200Y-94095237D02*
X161811961Y-94190475D01*
X161811961Y-94190475D02*
X161716723Y-94238094D01*
X161716723Y-94238094D02*
X161526247Y-94285713D01*
X161526247Y-94285713D02*
X161383390Y-94285713D01*
X161383390Y-94285713D02*
X161192914Y-94238094D01*
X161192914Y-94238094D02*
X161097676Y-94190475D01*
X161097676Y-94190475D02*
X161002438Y-94095237D01*
X161002438Y-94095237D02*
X160954819Y-93952380D01*
X160954819Y-93952380D02*
X160954819Y-93857142D01*
X160954819Y-93857142D02*
X161002438Y-93714285D01*
X161002438Y-93714285D02*
X161050057Y-93666666D01*
X160954819Y-93333332D02*
X160954819Y-92714285D01*
X160954819Y-92714285D02*
X161335771Y-93047618D01*
X161335771Y-93047618D02*
X161335771Y-92904761D01*
X161335771Y-92904761D02*
X161383390Y-92809523D01*
X161383390Y-92809523D02*
X161431009Y-92761904D01*
X161431009Y-92761904D02*
X161526247Y-92714285D01*
X161526247Y-92714285D02*
X161764342Y-92714285D01*
X161764342Y-92714285D02*
X161859580Y-92761904D01*
X161859580Y-92761904D02*
X161907200Y-92809523D01*
X161907200Y-92809523D02*
X161954819Y-92904761D01*
X161954819Y-92904761D02*
X161954819Y-93190475D01*
X161954819Y-93190475D02*
X161907200Y-93285713D01*
X161907200Y-93285713D02*
X161859580Y-93333332D01*
X161954819Y-98347619D02*
X161954819Y-98919047D01*
X161954819Y-98633333D02*
X160954819Y-98633333D01*
X160954819Y-98633333D02*
X161097676Y-98728571D01*
X161097676Y-98728571D02*
X161192914Y-98823809D01*
X161192914Y-98823809D02*
X161240533Y-98919047D01*
X160954819Y-97728571D02*
X160954819Y-97633333D01*
X160954819Y-97633333D02*
X161002438Y-97538095D01*
X161002438Y-97538095D02*
X161050057Y-97490476D01*
X161050057Y-97490476D02*
X161145295Y-97442857D01*
X161145295Y-97442857D02*
X161335771Y-97395238D01*
X161335771Y-97395238D02*
X161573866Y-97395238D01*
X161573866Y-97395238D02*
X161764342Y-97442857D01*
X161764342Y-97442857D02*
X161859580Y-97490476D01*
X161859580Y-97490476D02*
X161907200Y-97538095D01*
X161907200Y-97538095D02*
X161954819Y-97633333D01*
X161954819Y-97633333D02*
X161954819Y-97728571D01*
X161954819Y-97728571D02*
X161907200Y-97823809D01*
X161907200Y-97823809D02*
X161859580Y-97871428D01*
X161859580Y-97871428D02*
X161764342Y-97919047D01*
X161764342Y-97919047D02*
X161573866Y-97966666D01*
X161573866Y-97966666D02*
X161335771Y-97966666D01*
X161335771Y-97966666D02*
X161145295Y-97919047D01*
X161145295Y-97919047D02*
X161050057Y-97871428D01*
X161050057Y-97871428D02*
X161002438Y-97823809D01*
X161002438Y-97823809D02*
X160954819Y-97728571D01*
X160954819Y-96776190D02*
X160954819Y-96680952D01*
X160954819Y-96680952D02*
X161002438Y-96585714D01*
X161002438Y-96585714D02*
X161050057Y-96538095D01*
X161050057Y-96538095D02*
X161145295Y-96490476D01*
X161145295Y-96490476D02*
X161335771Y-96442857D01*
X161335771Y-96442857D02*
X161573866Y-96442857D01*
X161573866Y-96442857D02*
X161764342Y-96490476D01*
X161764342Y-96490476D02*
X161859580Y-96538095D01*
X161859580Y-96538095D02*
X161907200Y-96585714D01*
X161907200Y-96585714D02*
X161954819Y-96680952D01*
X161954819Y-96680952D02*
X161954819Y-96776190D01*
X161954819Y-96776190D02*
X161907200Y-96871428D01*
X161907200Y-96871428D02*
X161859580Y-96919047D01*
X161859580Y-96919047D02*
X161764342Y-96966666D01*
X161764342Y-96966666D02*
X161573866Y-97014285D01*
X161573866Y-97014285D02*
X161335771Y-97014285D01*
X161335771Y-97014285D02*
X161145295Y-96966666D01*
X161145295Y-96966666D02*
X161050057Y-96919047D01*
X161050057Y-96919047D02*
X161002438Y-96871428D01*
X161002438Y-96871428D02*
X160954819Y-96776190D01*
X161288152Y-96014285D02*
X162288152Y-96014285D01*
X161335771Y-96014285D02*
X161288152Y-95919047D01*
X161288152Y-95919047D02*
X161288152Y-95728571D01*
X161288152Y-95728571D02*
X161335771Y-95633333D01*
X161335771Y-95633333D02*
X161383390Y-95585714D01*
X161383390Y-95585714D02*
X161478628Y-95538095D01*
X161478628Y-95538095D02*
X161764342Y-95538095D01*
X161764342Y-95538095D02*
X161859580Y-95585714D01*
X161859580Y-95585714D02*
X161907200Y-95633333D01*
X161907200Y-95633333D02*
X161954819Y-95728571D01*
X161954819Y-95728571D02*
X161954819Y-95919047D01*
X161954819Y-95919047D02*
X161907200Y-96014285D01*
X161431009Y-94776190D02*
X161431009Y-95109523D01*
X161954819Y-95109523D02*
X160954819Y-95109523D01*
X160954819Y-95109523D02*
X160954819Y-94633333D01*
X111157142Y-66354819D02*
X110823809Y-65878628D01*
X110585714Y-66354819D02*
X110585714Y-65354819D01*
X110585714Y-65354819D02*
X110966666Y-65354819D01*
X110966666Y-65354819D02*
X111061904Y-65402438D01*
X111061904Y-65402438D02*
X111109523Y-65450057D01*
X111109523Y-65450057D02*
X111157142Y-65545295D01*
X111157142Y-65545295D02*
X111157142Y-65688152D01*
X111157142Y-65688152D02*
X111109523Y-65783390D01*
X111109523Y-65783390D02*
X111061904Y-65831009D01*
X111061904Y-65831009D02*
X110966666Y-65878628D01*
X110966666Y-65878628D02*
X110585714Y-65878628D01*
X112109523Y-66354819D02*
X111538095Y-66354819D01*
X111823809Y-66354819D02*
X111823809Y-65354819D01*
X111823809Y-65354819D02*
X111728571Y-65497676D01*
X111728571Y-65497676D02*
X111633333Y-65592914D01*
X111633333Y-65592914D02*
X111538095Y-65640533D01*
X112680952Y-65783390D02*
X112585714Y-65735771D01*
X112585714Y-65735771D02*
X112538095Y-65688152D01*
X112538095Y-65688152D02*
X112490476Y-65592914D01*
X112490476Y-65592914D02*
X112490476Y-65545295D01*
X112490476Y-65545295D02*
X112538095Y-65450057D01*
X112538095Y-65450057D02*
X112585714Y-65402438D01*
X112585714Y-65402438D02*
X112680952Y-65354819D01*
X112680952Y-65354819D02*
X112871428Y-65354819D01*
X112871428Y-65354819D02*
X112966666Y-65402438D01*
X112966666Y-65402438D02*
X113014285Y-65450057D01*
X113014285Y-65450057D02*
X113061904Y-65545295D01*
X113061904Y-65545295D02*
X113061904Y-65592914D01*
X113061904Y-65592914D02*
X113014285Y-65688152D01*
X113014285Y-65688152D02*
X112966666Y-65735771D01*
X112966666Y-65735771D02*
X112871428Y-65783390D01*
X112871428Y-65783390D02*
X112680952Y-65783390D01*
X112680952Y-65783390D02*
X112585714Y-65831009D01*
X112585714Y-65831009D02*
X112538095Y-65878628D01*
X112538095Y-65878628D02*
X112490476Y-65973866D01*
X112490476Y-65973866D02*
X112490476Y-66164342D01*
X112490476Y-66164342D02*
X112538095Y-66259580D01*
X112538095Y-66259580D02*
X112585714Y-66307200D01*
X112585714Y-66307200D02*
X112680952Y-66354819D01*
X112680952Y-66354819D02*
X112871428Y-66354819D01*
X112871428Y-66354819D02*
X112966666Y-66307200D01*
X112966666Y-66307200D02*
X113014285Y-66259580D01*
X113014285Y-66259580D02*
X113061904Y-66164342D01*
X113061904Y-66164342D02*
X113061904Y-65973866D01*
X113061904Y-65973866D02*
X113014285Y-65878628D01*
X113014285Y-65878628D02*
X112966666Y-65831009D01*
X112966666Y-65831009D02*
X112871428Y-65783390D01*
X111061904Y-66754819D02*
X110585714Y-66754819D01*
X110585714Y-66754819D02*
X110538095Y-67231009D01*
X110538095Y-67231009D02*
X110585714Y-67183390D01*
X110585714Y-67183390D02*
X110680952Y-67135771D01*
X110680952Y-67135771D02*
X110919047Y-67135771D01*
X110919047Y-67135771D02*
X111014285Y-67183390D01*
X111014285Y-67183390D02*
X111061904Y-67231009D01*
X111061904Y-67231009D02*
X111109523Y-67326247D01*
X111109523Y-67326247D02*
X111109523Y-67564342D01*
X111109523Y-67564342D02*
X111061904Y-67659580D01*
X111061904Y-67659580D02*
X111014285Y-67707200D01*
X111014285Y-67707200D02*
X110919047Y-67754819D01*
X110919047Y-67754819D02*
X110680952Y-67754819D01*
X110680952Y-67754819D02*
X110585714Y-67707200D01*
X110585714Y-67707200D02*
X110538095Y-67659580D01*
X111966666Y-66754819D02*
X111776190Y-66754819D01*
X111776190Y-66754819D02*
X111680952Y-66802438D01*
X111680952Y-66802438D02*
X111633333Y-66850057D01*
X111633333Y-66850057D02*
X111538095Y-66992914D01*
X111538095Y-66992914D02*
X111490476Y-67183390D01*
X111490476Y-67183390D02*
X111490476Y-67564342D01*
X111490476Y-67564342D02*
X111538095Y-67659580D01*
X111538095Y-67659580D02*
X111585714Y-67707200D01*
X111585714Y-67707200D02*
X111680952Y-67754819D01*
X111680952Y-67754819D02*
X111871428Y-67754819D01*
X111871428Y-67754819D02*
X111966666Y-67707200D01*
X111966666Y-67707200D02*
X112014285Y-67659580D01*
X112014285Y-67659580D02*
X112061904Y-67564342D01*
X112061904Y-67564342D02*
X112061904Y-67326247D01*
X112061904Y-67326247D02*
X112014285Y-67231009D01*
X112014285Y-67231009D02*
X111966666Y-67183390D01*
X111966666Y-67183390D02*
X111871428Y-67135771D01*
X111871428Y-67135771D02*
X111680952Y-67135771D01*
X111680952Y-67135771D02*
X111585714Y-67183390D01*
X111585714Y-67183390D02*
X111538095Y-67231009D01*
X111538095Y-67231009D02*
X111490476Y-67326247D01*
X139533333Y-81359580D02*
X139485714Y-81407200D01*
X139485714Y-81407200D02*
X139342857Y-81454819D01*
X139342857Y-81454819D02*
X139247619Y-81454819D01*
X139247619Y-81454819D02*
X139104762Y-81407200D01*
X139104762Y-81407200D02*
X139009524Y-81311961D01*
X139009524Y-81311961D02*
X138961905Y-81216723D01*
X138961905Y-81216723D02*
X138914286Y-81026247D01*
X138914286Y-81026247D02*
X138914286Y-80883390D01*
X138914286Y-80883390D02*
X138961905Y-80692914D01*
X138961905Y-80692914D02*
X139009524Y-80597676D01*
X139009524Y-80597676D02*
X139104762Y-80502438D01*
X139104762Y-80502438D02*
X139247619Y-80454819D01*
X139247619Y-80454819D02*
X139342857Y-80454819D01*
X139342857Y-80454819D02*
X139485714Y-80502438D01*
X139485714Y-80502438D02*
X139533333Y-80550057D01*
X140438095Y-80454819D02*
X139961905Y-80454819D01*
X139961905Y-80454819D02*
X139914286Y-80931009D01*
X139914286Y-80931009D02*
X139961905Y-80883390D01*
X139961905Y-80883390D02*
X140057143Y-80835771D01*
X140057143Y-80835771D02*
X140295238Y-80835771D01*
X140295238Y-80835771D02*
X140390476Y-80883390D01*
X140390476Y-80883390D02*
X140438095Y-80931009D01*
X140438095Y-80931009D02*
X140485714Y-81026247D01*
X140485714Y-81026247D02*
X140485714Y-81264342D01*
X140485714Y-81264342D02*
X140438095Y-81359580D01*
X140438095Y-81359580D02*
X140390476Y-81407200D01*
X140390476Y-81407200D02*
X140295238Y-81454819D01*
X140295238Y-81454819D02*
X140057143Y-81454819D01*
X140057143Y-81454819D02*
X139961905Y-81407200D01*
X139961905Y-81407200D02*
X139914286Y-81359580D01*
X138257143Y-81654819D02*
X138352381Y-81654819D01*
X138352381Y-81654819D02*
X138447619Y-81702438D01*
X138447619Y-81702438D02*
X138495238Y-81750057D01*
X138495238Y-81750057D02*
X138542857Y-81845295D01*
X138542857Y-81845295D02*
X138590476Y-82035771D01*
X138590476Y-82035771D02*
X138590476Y-82273866D01*
X138590476Y-82273866D02*
X138542857Y-82464342D01*
X138542857Y-82464342D02*
X138495238Y-82559580D01*
X138495238Y-82559580D02*
X138447619Y-82607200D01*
X138447619Y-82607200D02*
X138352381Y-82654819D01*
X138352381Y-82654819D02*
X138257143Y-82654819D01*
X138257143Y-82654819D02*
X138161905Y-82607200D01*
X138161905Y-82607200D02*
X138114286Y-82559580D01*
X138114286Y-82559580D02*
X138066667Y-82464342D01*
X138066667Y-82464342D02*
X138019048Y-82273866D01*
X138019048Y-82273866D02*
X138019048Y-82035771D01*
X138019048Y-82035771D02*
X138066667Y-81845295D01*
X138066667Y-81845295D02*
X138114286Y-81750057D01*
X138114286Y-81750057D02*
X138161905Y-81702438D01*
X138161905Y-81702438D02*
X138257143Y-81654819D01*
X139019048Y-82559580D02*
X139066667Y-82607200D01*
X139066667Y-82607200D02*
X139019048Y-82654819D01*
X139019048Y-82654819D02*
X138971429Y-82607200D01*
X138971429Y-82607200D02*
X139019048Y-82559580D01*
X139019048Y-82559580D02*
X139019048Y-82654819D01*
X140019047Y-82654819D02*
X139447619Y-82654819D01*
X139733333Y-82654819D02*
X139733333Y-81654819D01*
X139733333Y-81654819D02*
X139638095Y-81797676D01*
X139638095Y-81797676D02*
X139542857Y-81892914D01*
X139542857Y-81892914D02*
X139447619Y-81940533D01*
X140876190Y-81988152D02*
X140876190Y-82654819D01*
X140447619Y-81988152D02*
X140447619Y-82511961D01*
X140447619Y-82511961D02*
X140495238Y-82607200D01*
X140495238Y-82607200D02*
X140590476Y-82654819D01*
X140590476Y-82654819D02*
X140733333Y-82654819D01*
X140733333Y-82654819D02*
X140828571Y-82607200D01*
X140828571Y-82607200D02*
X140876190Y-82559580D01*
X141685714Y-82131009D02*
X141352381Y-82131009D01*
X141352381Y-82654819D02*
X141352381Y-81654819D01*
X141352381Y-81654819D02*
X141828571Y-81654819D01*
X121673333Y-88404819D02*
X121340000Y-87928628D01*
X121101905Y-88404819D02*
X121101905Y-87404819D01*
X121101905Y-87404819D02*
X121482857Y-87404819D01*
X121482857Y-87404819D02*
X121578095Y-87452438D01*
X121578095Y-87452438D02*
X121625714Y-87500057D01*
X121625714Y-87500057D02*
X121673333Y-87595295D01*
X121673333Y-87595295D02*
X121673333Y-87738152D01*
X121673333Y-87738152D02*
X121625714Y-87833390D01*
X121625714Y-87833390D02*
X121578095Y-87881009D01*
X121578095Y-87881009D02*
X121482857Y-87928628D01*
X121482857Y-87928628D02*
X121101905Y-87928628D01*
X122149524Y-88404819D02*
X122340000Y-88404819D01*
X122340000Y-88404819D02*
X122435238Y-88357200D01*
X122435238Y-88357200D02*
X122482857Y-88309580D01*
X122482857Y-88309580D02*
X122578095Y-88166723D01*
X122578095Y-88166723D02*
X122625714Y-87976247D01*
X122625714Y-87976247D02*
X122625714Y-87595295D01*
X122625714Y-87595295D02*
X122578095Y-87500057D01*
X122578095Y-87500057D02*
X122530476Y-87452438D01*
X122530476Y-87452438D02*
X122435238Y-87404819D01*
X122435238Y-87404819D02*
X122244762Y-87404819D01*
X122244762Y-87404819D02*
X122149524Y-87452438D01*
X122149524Y-87452438D02*
X122101905Y-87500057D01*
X122101905Y-87500057D02*
X122054286Y-87595295D01*
X122054286Y-87595295D02*
X122054286Y-87833390D01*
X122054286Y-87833390D02*
X122101905Y-87928628D01*
X122101905Y-87928628D02*
X122149524Y-87976247D01*
X122149524Y-87976247D02*
X122244762Y-88023866D01*
X122244762Y-88023866D02*
X122435238Y-88023866D01*
X122435238Y-88023866D02*
X122530476Y-87976247D01*
X122530476Y-87976247D02*
X122578095Y-87928628D01*
X122578095Y-87928628D02*
X122625714Y-87833390D01*
X121557142Y-89804819D02*
X120985714Y-89804819D01*
X121271428Y-89804819D02*
X121271428Y-88804819D01*
X121271428Y-88804819D02*
X121176190Y-88947676D01*
X121176190Y-88947676D02*
X121080952Y-89042914D01*
X121080952Y-89042914D02*
X120985714Y-89090533D01*
X122176190Y-88804819D02*
X122271428Y-88804819D01*
X122271428Y-88804819D02*
X122366666Y-88852438D01*
X122366666Y-88852438D02*
X122414285Y-88900057D01*
X122414285Y-88900057D02*
X122461904Y-88995295D01*
X122461904Y-88995295D02*
X122509523Y-89185771D01*
X122509523Y-89185771D02*
X122509523Y-89423866D01*
X122509523Y-89423866D02*
X122461904Y-89614342D01*
X122461904Y-89614342D02*
X122414285Y-89709580D01*
X122414285Y-89709580D02*
X122366666Y-89757200D01*
X122366666Y-89757200D02*
X122271428Y-89804819D01*
X122271428Y-89804819D02*
X122176190Y-89804819D01*
X122176190Y-89804819D02*
X122080952Y-89757200D01*
X122080952Y-89757200D02*
X122033333Y-89709580D01*
X122033333Y-89709580D02*
X121985714Y-89614342D01*
X121985714Y-89614342D02*
X121938095Y-89423866D01*
X121938095Y-89423866D02*
X121938095Y-89185771D01*
X121938095Y-89185771D02*
X121985714Y-88995295D01*
X121985714Y-88995295D02*
X122033333Y-88900057D01*
X122033333Y-88900057D02*
X122080952Y-88852438D01*
X122080952Y-88852438D02*
X122176190Y-88804819D01*
X123128571Y-88804819D02*
X123223809Y-88804819D01*
X123223809Y-88804819D02*
X123319047Y-88852438D01*
X123319047Y-88852438D02*
X123366666Y-88900057D01*
X123366666Y-88900057D02*
X123414285Y-88995295D01*
X123414285Y-88995295D02*
X123461904Y-89185771D01*
X123461904Y-89185771D02*
X123461904Y-89423866D01*
X123461904Y-89423866D02*
X123414285Y-89614342D01*
X123414285Y-89614342D02*
X123366666Y-89709580D01*
X123366666Y-89709580D02*
X123319047Y-89757200D01*
X123319047Y-89757200D02*
X123223809Y-89804819D01*
X123223809Y-89804819D02*
X123128571Y-89804819D01*
X123128571Y-89804819D02*
X123033333Y-89757200D01*
X123033333Y-89757200D02*
X122985714Y-89709580D01*
X122985714Y-89709580D02*
X122938095Y-89614342D01*
X122938095Y-89614342D02*
X122890476Y-89423866D01*
X122890476Y-89423866D02*
X122890476Y-89185771D01*
X122890476Y-89185771D02*
X122938095Y-88995295D01*
X122938095Y-88995295D02*
X122985714Y-88900057D01*
X122985714Y-88900057D02*
X123033333Y-88852438D01*
X123033333Y-88852438D02*
X123128571Y-88804819D01*
X124080952Y-88804819D02*
X124176190Y-88804819D01*
X124176190Y-88804819D02*
X124271428Y-88852438D01*
X124271428Y-88852438D02*
X124319047Y-88900057D01*
X124319047Y-88900057D02*
X124366666Y-88995295D01*
X124366666Y-88995295D02*
X124414285Y-89185771D01*
X124414285Y-89185771D02*
X124414285Y-89423866D01*
X124414285Y-89423866D02*
X124366666Y-89614342D01*
X124366666Y-89614342D02*
X124319047Y-89709580D01*
X124319047Y-89709580D02*
X124271428Y-89757200D01*
X124271428Y-89757200D02*
X124176190Y-89804819D01*
X124176190Y-89804819D02*
X124080952Y-89804819D01*
X124080952Y-89804819D02*
X123985714Y-89757200D01*
X123985714Y-89757200D02*
X123938095Y-89709580D01*
X123938095Y-89709580D02*
X123890476Y-89614342D01*
X123890476Y-89614342D02*
X123842857Y-89423866D01*
X123842857Y-89423866D02*
X123842857Y-89185771D01*
X123842857Y-89185771D02*
X123890476Y-88995295D01*
X123890476Y-88995295D02*
X123938095Y-88900057D01*
X123938095Y-88900057D02*
X123985714Y-88852438D01*
X123985714Y-88852438D02*
X124080952Y-88804819D01*
X103607142Y-90454819D02*
X103273809Y-89978628D01*
X103035714Y-90454819D02*
X103035714Y-89454819D01*
X103035714Y-89454819D02*
X103416666Y-89454819D01*
X103416666Y-89454819D02*
X103511904Y-89502438D01*
X103511904Y-89502438D02*
X103559523Y-89550057D01*
X103559523Y-89550057D02*
X103607142Y-89645295D01*
X103607142Y-89645295D02*
X103607142Y-89788152D01*
X103607142Y-89788152D02*
X103559523Y-89883390D01*
X103559523Y-89883390D02*
X103511904Y-89931009D01*
X103511904Y-89931009D02*
X103416666Y-89978628D01*
X103416666Y-89978628D02*
X103035714Y-89978628D01*
X104559523Y-90454819D02*
X103988095Y-90454819D01*
X104273809Y-90454819D02*
X104273809Y-89454819D01*
X104273809Y-89454819D02*
X104178571Y-89597676D01*
X104178571Y-89597676D02*
X104083333Y-89692914D01*
X104083333Y-89692914D02*
X103988095Y-89740533D01*
X104892857Y-89454819D02*
X105511904Y-89454819D01*
X105511904Y-89454819D02*
X105178571Y-89835771D01*
X105178571Y-89835771D02*
X105321428Y-89835771D01*
X105321428Y-89835771D02*
X105416666Y-89883390D01*
X105416666Y-89883390D02*
X105464285Y-89931009D01*
X105464285Y-89931009D02*
X105511904Y-90026247D01*
X105511904Y-90026247D02*
X105511904Y-90264342D01*
X105511904Y-90264342D02*
X105464285Y-90359580D01*
X105464285Y-90359580D02*
X105416666Y-90407200D01*
X105416666Y-90407200D02*
X105321428Y-90454819D01*
X105321428Y-90454819D02*
X105035714Y-90454819D01*
X105035714Y-90454819D02*
X104940476Y-90407200D01*
X104940476Y-90407200D02*
X104892857Y-90359580D01*
X104559523Y-91904819D02*
X103988095Y-91904819D01*
X104273809Y-91904819D02*
X104273809Y-90904819D01*
X104273809Y-90904819D02*
X104178571Y-91047676D01*
X104178571Y-91047676D02*
X104083333Y-91142914D01*
X104083333Y-91142914D02*
X103988095Y-91190533D01*
X105178571Y-90904819D02*
X105273809Y-90904819D01*
X105273809Y-90904819D02*
X105369047Y-90952438D01*
X105369047Y-90952438D02*
X105416666Y-91000057D01*
X105416666Y-91000057D02*
X105464285Y-91095295D01*
X105464285Y-91095295D02*
X105511904Y-91285771D01*
X105511904Y-91285771D02*
X105511904Y-91523866D01*
X105511904Y-91523866D02*
X105464285Y-91714342D01*
X105464285Y-91714342D02*
X105416666Y-91809580D01*
X105416666Y-91809580D02*
X105369047Y-91857200D01*
X105369047Y-91857200D02*
X105273809Y-91904819D01*
X105273809Y-91904819D02*
X105178571Y-91904819D01*
X105178571Y-91904819D02*
X105083333Y-91857200D01*
X105083333Y-91857200D02*
X105035714Y-91809580D01*
X105035714Y-91809580D02*
X104988095Y-91714342D01*
X104988095Y-91714342D02*
X104940476Y-91523866D01*
X104940476Y-91523866D02*
X104940476Y-91285771D01*
X104940476Y-91285771D02*
X104988095Y-91095295D01*
X104988095Y-91095295D02*
X105035714Y-91000057D01*
X105035714Y-91000057D02*
X105083333Y-90952438D01*
X105083333Y-90952438D02*
X105178571Y-90904819D01*
X140033333Y-72954819D02*
X139700000Y-72478628D01*
X139461905Y-72954819D02*
X139461905Y-71954819D01*
X139461905Y-71954819D02*
X139842857Y-71954819D01*
X139842857Y-71954819D02*
X139938095Y-72002438D01*
X139938095Y-72002438D02*
X139985714Y-72050057D01*
X139985714Y-72050057D02*
X140033333Y-72145295D01*
X140033333Y-72145295D02*
X140033333Y-72288152D01*
X140033333Y-72288152D02*
X139985714Y-72383390D01*
X139985714Y-72383390D02*
X139938095Y-72431009D01*
X139938095Y-72431009D02*
X139842857Y-72478628D01*
X139842857Y-72478628D02*
X139461905Y-72478628D01*
X140366667Y-71954819D02*
X141033333Y-71954819D01*
X141033333Y-71954819D02*
X140604762Y-72954819D01*
X139861904Y-73254819D02*
X139385714Y-73254819D01*
X139385714Y-73254819D02*
X139338095Y-73731009D01*
X139338095Y-73731009D02*
X139385714Y-73683390D01*
X139385714Y-73683390D02*
X139480952Y-73635771D01*
X139480952Y-73635771D02*
X139719047Y-73635771D01*
X139719047Y-73635771D02*
X139814285Y-73683390D01*
X139814285Y-73683390D02*
X139861904Y-73731009D01*
X139861904Y-73731009D02*
X139909523Y-73826247D01*
X139909523Y-73826247D02*
X139909523Y-74064342D01*
X139909523Y-74064342D02*
X139861904Y-74159580D01*
X139861904Y-74159580D02*
X139814285Y-74207200D01*
X139814285Y-74207200D02*
X139719047Y-74254819D01*
X139719047Y-74254819D02*
X139480952Y-74254819D01*
X139480952Y-74254819D02*
X139385714Y-74207200D01*
X139385714Y-74207200D02*
X139338095Y-74159580D01*
X140766666Y-73254819D02*
X140576190Y-73254819D01*
X140576190Y-73254819D02*
X140480952Y-73302438D01*
X140480952Y-73302438D02*
X140433333Y-73350057D01*
X140433333Y-73350057D02*
X140338095Y-73492914D01*
X140338095Y-73492914D02*
X140290476Y-73683390D01*
X140290476Y-73683390D02*
X140290476Y-74064342D01*
X140290476Y-74064342D02*
X140338095Y-74159580D01*
X140338095Y-74159580D02*
X140385714Y-74207200D01*
X140385714Y-74207200D02*
X140480952Y-74254819D01*
X140480952Y-74254819D02*
X140671428Y-74254819D01*
X140671428Y-74254819D02*
X140766666Y-74207200D01*
X140766666Y-74207200D02*
X140814285Y-74159580D01*
X140814285Y-74159580D02*
X140861904Y-74064342D01*
X140861904Y-74064342D02*
X140861904Y-73826247D01*
X140861904Y-73826247D02*
X140814285Y-73731009D01*
X140814285Y-73731009D02*
X140766666Y-73683390D01*
X140766666Y-73683390D02*
X140671428Y-73635771D01*
X140671428Y-73635771D02*
X140480952Y-73635771D01*
X140480952Y-73635771D02*
X140385714Y-73683390D01*
X140385714Y-73683390D02*
X140338095Y-73731009D01*
X140338095Y-73731009D02*
X140290476Y-73826247D01*
X125457142Y-97959580D02*
X125409523Y-98007200D01*
X125409523Y-98007200D02*
X125266666Y-98054819D01*
X125266666Y-98054819D02*
X125171428Y-98054819D01*
X125171428Y-98054819D02*
X125028571Y-98007200D01*
X125028571Y-98007200D02*
X124933333Y-97911961D01*
X124933333Y-97911961D02*
X124885714Y-97816723D01*
X124885714Y-97816723D02*
X124838095Y-97626247D01*
X124838095Y-97626247D02*
X124838095Y-97483390D01*
X124838095Y-97483390D02*
X124885714Y-97292914D01*
X124885714Y-97292914D02*
X124933333Y-97197676D01*
X124933333Y-97197676D02*
X125028571Y-97102438D01*
X125028571Y-97102438D02*
X125171428Y-97054819D01*
X125171428Y-97054819D02*
X125266666Y-97054819D01*
X125266666Y-97054819D02*
X125409523Y-97102438D01*
X125409523Y-97102438D02*
X125457142Y-97150057D01*
X126409523Y-98054819D02*
X125838095Y-98054819D01*
X126123809Y-98054819D02*
X126123809Y-97054819D01*
X126123809Y-97054819D02*
X126028571Y-97197676D01*
X126028571Y-97197676D02*
X125933333Y-97292914D01*
X125933333Y-97292914D02*
X125838095Y-97340533D01*
X126742857Y-97054819D02*
X127409523Y-97054819D01*
X127409523Y-97054819D02*
X126980952Y-98054819D01*
X125107143Y-98504819D02*
X125202381Y-98504819D01*
X125202381Y-98504819D02*
X125297619Y-98552438D01*
X125297619Y-98552438D02*
X125345238Y-98600057D01*
X125345238Y-98600057D02*
X125392857Y-98695295D01*
X125392857Y-98695295D02*
X125440476Y-98885771D01*
X125440476Y-98885771D02*
X125440476Y-99123866D01*
X125440476Y-99123866D02*
X125392857Y-99314342D01*
X125392857Y-99314342D02*
X125345238Y-99409580D01*
X125345238Y-99409580D02*
X125297619Y-99457200D01*
X125297619Y-99457200D02*
X125202381Y-99504819D01*
X125202381Y-99504819D02*
X125107143Y-99504819D01*
X125107143Y-99504819D02*
X125011905Y-99457200D01*
X125011905Y-99457200D02*
X124964286Y-99409580D01*
X124964286Y-99409580D02*
X124916667Y-99314342D01*
X124916667Y-99314342D02*
X124869048Y-99123866D01*
X124869048Y-99123866D02*
X124869048Y-98885771D01*
X124869048Y-98885771D02*
X124916667Y-98695295D01*
X124916667Y-98695295D02*
X124964286Y-98600057D01*
X124964286Y-98600057D02*
X125011905Y-98552438D01*
X125011905Y-98552438D02*
X125107143Y-98504819D01*
X125869048Y-99409580D02*
X125916667Y-99457200D01*
X125916667Y-99457200D02*
X125869048Y-99504819D01*
X125869048Y-99504819D02*
X125821429Y-99457200D01*
X125821429Y-99457200D02*
X125869048Y-99409580D01*
X125869048Y-99409580D02*
X125869048Y-99504819D01*
X126869047Y-99504819D02*
X126297619Y-99504819D01*
X126583333Y-99504819D02*
X126583333Y-98504819D01*
X126583333Y-98504819D02*
X126488095Y-98647676D01*
X126488095Y-98647676D02*
X126392857Y-98742914D01*
X126392857Y-98742914D02*
X126297619Y-98790533D01*
X127726190Y-98838152D02*
X127726190Y-99504819D01*
X127297619Y-98838152D02*
X127297619Y-99361961D01*
X127297619Y-99361961D02*
X127345238Y-99457200D01*
X127345238Y-99457200D02*
X127440476Y-99504819D01*
X127440476Y-99504819D02*
X127583333Y-99504819D01*
X127583333Y-99504819D02*
X127678571Y-99457200D01*
X127678571Y-99457200D02*
X127726190Y-99409580D01*
X128535714Y-98981009D02*
X128202381Y-98981009D01*
X128202381Y-99504819D02*
X128202381Y-98504819D01*
X128202381Y-98504819D02*
X128678571Y-98504819D01*
X146433333Y-100584819D02*
X146100000Y-100108628D01*
X145861905Y-100584819D02*
X145861905Y-99584819D01*
X145861905Y-99584819D02*
X146242857Y-99584819D01*
X146242857Y-99584819D02*
X146338095Y-99632438D01*
X146338095Y-99632438D02*
X146385714Y-99680057D01*
X146385714Y-99680057D02*
X146433333Y-99775295D01*
X146433333Y-99775295D02*
X146433333Y-99918152D01*
X146433333Y-99918152D02*
X146385714Y-100013390D01*
X146385714Y-100013390D02*
X146338095Y-100061009D01*
X146338095Y-100061009D02*
X146242857Y-100108628D01*
X146242857Y-100108628D02*
X145861905Y-100108628D01*
X146814286Y-99680057D02*
X146861905Y-99632438D01*
X146861905Y-99632438D02*
X146957143Y-99584819D01*
X146957143Y-99584819D02*
X147195238Y-99584819D01*
X147195238Y-99584819D02*
X147290476Y-99632438D01*
X147290476Y-99632438D02*
X147338095Y-99680057D01*
X147338095Y-99680057D02*
X147385714Y-99775295D01*
X147385714Y-99775295D02*
X147385714Y-99870533D01*
X147385714Y-99870533D02*
X147338095Y-100013390D01*
X147338095Y-100013390D02*
X146766667Y-100584819D01*
X146766667Y-100584819D02*
X147385714Y-100584819D01*
X146885714Y-104224819D02*
X146314286Y-104224819D01*
X146600000Y-104224819D02*
X146600000Y-103224819D01*
X146600000Y-103224819D02*
X146504762Y-103367676D01*
X146504762Y-103367676D02*
X146409524Y-103462914D01*
X146409524Y-103462914D02*
X146314286Y-103510533D01*
%TO.C,T3*%
D11*
X129700000Y-83000000D02*
X140700000Y-83000000D01*
X140700000Y-97000000D01*
X129700000Y-97000000D01*
X129700000Y-83000000D01*
%TO.C,L2*%
X145500000Y-83000000D02*
X156500000Y-83000000D01*
X156500000Y-97000000D01*
X145500000Y-97000000D01*
X145500000Y-83000000D01*
%TO.C,T2*%
D12*
X163000000Y-75000000D02*
X193000000Y-75000000D01*
X193000000Y-105000000D01*
X163000000Y-105000000D01*
X163000000Y-75000000D01*
D13*
%TO.C,R23*%
X126310000Y-70285436D02*
X126310000Y-71739564D01*
X124490000Y-70285436D02*
X124490000Y-71739564D01*
%TO.C,R22*%
X122510436Y-74340000D02*
X123964564Y-74340000D01*
X122510436Y-76160000D02*
X123964564Y-76160000D01*
%TO.C,R21*%
X116890000Y-71189564D02*
X116890000Y-69735436D01*
X118710000Y-71189564D02*
X118710000Y-69735436D01*
%TO.C,R4*%
X115985436Y-62140000D02*
X117439564Y-62140000D01*
X115985436Y-63960000D02*
X117439564Y-63960000D01*
%TO.C,R3*%
X121260436Y-62540000D02*
X122714564Y-62540000D01*
X121260436Y-64360000D02*
X122714564Y-64360000D01*
%TO.C,Q8*%
X120240000Y-71337500D02*
X120240000Y-72137500D01*
X120240000Y-71337500D02*
X120240000Y-70537500D01*
X123360000Y-71337500D02*
X123360000Y-72137500D01*
X123360000Y-71337500D02*
X123360000Y-70537500D01*
X120290000Y-72637500D02*
X119960000Y-72877500D01*
X119960000Y-72397500D01*
X120290000Y-72637500D01*
G36*
X120290000Y-72637500D02*
G01*
X119960000Y-72877500D01*
X119960000Y-72397500D01*
X120290000Y-72637500D01*
G37*
%TO.C,Q7*%
X121712500Y-65640000D02*
X120912500Y-65640000D01*
X121712500Y-65640000D02*
X122512500Y-65640000D01*
X121712500Y-68760000D02*
X120912500Y-68760000D01*
X121712500Y-68760000D02*
X122512500Y-68760000D01*
X120412500Y-65690000D02*
X120172500Y-65360000D01*
X120652500Y-65360000D01*
X120412500Y-65690000D01*
G36*
X120412500Y-65690000D02*
G01*
X120172500Y-65360000D01*
X120652500Y-65360000D01*
X120412500Y-65690000D01*
G37*
%TO.C,C21*%
X123936252Y-79260000D02*
X122513748Y-79260000D01*
X123936252Y-77440000D02*
X122513748Y-77440000D01*
%TO.C,C19*%
X117111252Y-67160000D02*
X115688748Y-67160000D01*
X117111252Y-65340000D02*
X115688748Y-65340000D01*
%TO.C,R19*%
X115900436Y-106590000D02*
X117354564Y-106590000D01*
X115900436Y-108410000D02*
X117354564Y-108410000D01*
%TO.C,U1*%
X132090000Y-119787500D02*
X132090000Y-118987500D01*
X132090000Y-119787500D02*
X132090000Y-120587500D01*
X135210000Y-119787500D02*
X135210000Y-118987500D01*
X135210000Y-119787500D02*
X135210000Y-120587500D01*
X132140000Y-121087500D02*
X131810000Y-121327500D01*
X131810000Y-120847500D01*
X132140000Y-121087500D01*
G36*
X132140000Y-121087500D02*
G01*
X131810000Y-121327500D01*
X131810000Y-120847500D01*
X132140000Y-121087500D01*
G37*
%TO.C,C20*%
X131936252Y-122790000D02*
X130513748Y-122790000D01*
X131936252Y-124610000D02*
X130513748Y-124610000D01*
%TO.C,C9*%
X169690000Y-128204437D02*
X169690000Y-133960000D01*
X169690000Y-133960000D02*
X172040000Y-133960000D01*
X170754437Y-127140000D02*
X169690000Y-128204437D01*
X170754437Y-127140000D02*
X172040000Y-127140000D01*
X174947500Y-126112500D02*
X174947500Y-126900000D01*
X175341250Y-126506250D02*
X174553750Y-126506250D01*
X175445563Y-127140000D02*
X174160000Y-127140000D01*
X175445563Y-127140000D02*
X176510000Y-128204437D01*
X176510000Y-128204437D02*
X176510000Y-133960000D01*
X176510000Y-133960000D02*
X174160000Y-133960000D01*
%TO.C,R11*%
X131910000Y-70475000D02*
X131910000Y-80245000D01*
X136980000Y-70475000D02*
X131910000Y-70475000D01*
X136980000Y-70475000D02*
X136980000Y-80245000D01*
X136980000Y-80245000D02*
X131910000Y-80245000D01*
%TO.C,R8*%
X142290000Y-77589564D02*
X142290000Y-76135436D01*
X144110000Y-77589564D02*
X144110000Y-76135436D01*
%TO.C,C8*%
X142290000Y-70963748D02*
X142290000Y-72386252D01*
X144110000Y-70963748D02*
X144110000Y-72386252D01*
%TO.C,C14*%
X133463748Y-114490000D02*
X134886252Y-114490000D01*
X133463748Y-116310000D02*
X134886252Y-116310000D01*
%TO.C,Q2*%
X113080000Y-86460000D02*
X113080000Y-83740000D01*
X114060000Y-86460000D02*
X113080000Y-86460000D01*
X116820000Y-86460000D02*
X117800000Y-86460000D01*
X117800000Y-83880000D02*
X117800000Y-86460000D01*
X117980000Y-83570000D02*
X117650000Y-83330000D01*
X117980000Y-83090000D01*
X117980000Y-83570000D01*
G36*
X117980000Y-83570000D02*
G01*
X117650000Y-83330000D01*
X117980000Y-83090000D01*
X117980000Y-83570000D01*
G37*
%TO.C,R6*%
X138110436Y-101340000D02*
X139564564Y-101340000D01*
X138110436Y-103160000D02*
X139564564Y-103160000D01*
%TO.C,C6*%
X142290000Y-98486252D02*
X142290000Y-97063748D01*
X144110000Y-98486252D02*
X144110000Y-97063748D01*
%TO.C,D1*%
X137650000Y-126340000D02*
X137650000Y-134850000D01*
X137650000Y-126340000D02*
X144150000Y-126340000D01*
X144150000Y-126340000D02*
X144150000Y-134850000D01*
D14*
%TO.C,F1*%
X114825000Y-127595000D02*
X114825000Y-134325000D01*
X116880000Y-127595000D02*
X114825000Y-127595000D01*
X116880000Y-134325000D02*
X114825000Y-134325000D01*
X119130000Y-127595000D02*
X130330000Y-127595000D01*
X130330000Y-134325000D02*
X119130000Y-134325000D01*
X132580000Y-127595000D02*
X134635000Y-127595000D01*
X132580000Y-134325000D02*
X134635000Y-134325000D01*
X134635000Y-127595000D02*
X134635000Y-134325000D01*
D13*
%TO.C,C7*%
X138138748Y-104440000D02*
X139561252Y-104440000D01*
X138138748Y-106260000D02*
X139561252Y-106260000D01*
%TO.C,C10*%
X161740000Y-128204437D02*
X161740000Y-133960000D01*
X161740000Y-133960000D02*
X164090000Y-133960000D01*
X162804437Y-127140000D02*
X161740000Y-128204437D01*
X162804437Y-127140000D02*
X164090000Y-127140000D01*
X166997500Y-126112500D02*
X166997500Y-126900000D01*
X167391250Y-126506250D02*
X166603750Y-126506250D01*
X167495563Y-127140000D02*
X166210000Y-127140000D01*
X167495563Y-127140000D02*
X168560000Y-128204437D01*
X168560000Y-128204437D02*
X168560000Y-133960000D01*
X168560000Y-133960000D02*
X166210000Y-133960000D01*
%TO.C,R12*%
X108175436Y-84890000D02*
X109629564Y-84890000D01*
X108175436Y-86710000D02*
X109629564Y-86710000D01*
%TO.C,C15*%
X119360000Y-79061252D02*
X119360000Y-77638748D01*
X117540000Y-79061252D02*
X117540000Y-77638748D01*
%TO.C,R17*%
X130160000Y-98125000D02*
X130160000Y-107895000D01*
X135230000Y-98125000D02*
X130160000Y-98125000D01*
X135230000Y-98125000D02*
X135230000Y-107895000D01*
X135230000Y-107895000D02*
X130160000Y-107895000D01*
%TO.C,R15*%
X115810000Y-74139564D02*
X115810000Y-72685436D01*
X113990000Y-74139564D02*
X113990000Y-72685436D01*
D14*
%TO.C,E1*%
X165275000Y-111880000D02*
X165275000Y-107820000D01*
X168325000Y-111880000D02*
X168325000Y-107820000D01*
D13*
%TO.C,C11*%
X116036252Y-119790000D02*
X114613748Y-119790000D01*
X116036252Y-121610000D02*
X114613748Y-121610000D01*
%TO.C,R10*%
X121764564Y-83790000D02*
X120310436Y-83790000D01*
X121764564Y-85610000D02*
X120310436Y-85610000D01*
%TO.C,L1*%
X115320000Y-98637500D02*
X115320000Y-97433372D01*
X118040000Y-98637500D02*
X118040000Y-97433372D01*
%TO.C,C13*%
X157890000Y-131913748D02*
X157890000Y-133336252D01*
X159710000Y-131913748D02*
X159710000Y-133336252D01*
%TO.C,C16*%
X121786252Y-92090000D02*
X120363748Y-92090000D01*
X121786252Y-93910000D02*
X120363748Y-93910000D01*
D11*
%TO.C,J1*%
X190865000Y-69885000D02*
X190865000Y-67435000D01*
X192890000Y-71985000D02*
X195440000Y-71985000D01*
X193040000Y-65310000D02*
X195365000Y-65310000D01*
X197590000Y-67510000D02*
X197590000Y-69685000D01*
D13*
%TO.C,R1*%
X147760436Y-80040000D02*
X149214564Y-80040000D01*
X147760436Y-81860000D02*
X149214564Y-81860000D01*
%TO.C,C2*%
X157540000Y-89263748D02*
X157540000Y-90686252D01*
X159360000Y-89263748D02*
X159360000Y-90686252D01*
%TO.C,R14*%
X119420000Y-97295872D02*
X119420000Y-98750000D01*
X121240000Y-97295872D02*
X121240000Y-98750000D01*
D14*
%TO.C,E2*%
X146930000Y-126325000D02*
X150990000Y-126325000D01*
X146930000Y-129375000D02*
X150990000Y-129375000D01*
D13*
%TO.C,J5*%
X101350000Y-125000000D02*
X101350000Y-125500000D01*
X101590000Y-125240000D02*
X101590000Y-135360000D01*
X102090000Y-125000000D02*
X101350000Y-125000000D01*
X102150000Y-125240000D02*
X102150000Y-135360000D01*
X103250000Y-125240000D02*
X103250000Y-135360000D01*
X111910000Y-125240000D02*
X101590000Y-125240000D01*
X111910000Y-125240000D02*
X111910000Y-135360000D01*
X111910000Y-135360000D02*
X101590000Y-135360000D01*
X105494507Y-127827011D02*
G75*
G02*
X105618000Y-127192000I1555481J27013D01*
G01*
X105618615Y-128407587D02*
G75*
G02*
X105495000Y-127800000I1431385J607587D01*
G01*
X106442258Y-126367891D02*
G75*
G02*
X107658000Y-126368000I607742J-1432109D01*
G01*
X107657742Y-129232109D02*
G75*
G02*
X106442000Y-129232000I-607743J1432112D01*
G01*
X108482109Y-127192258D02*
G75*
G02*
X108482000Y-128408000I-1432109J-607742D01*
G01*
X108605000Y-132800000D02*
G75*
G02*
X105495000Y-132800000I-1555000J0D01*
G01*
X105495000Y-132800000D02*
G75*
G02*
X108605000Y-132800000I1555000J0D01*
G01*
D11*
%TO.C,J2*%
X102585000Y-70635000D02*
X102585000Y-68185000D01*
X104610000Y-72735000D02*
X107160000Y-72735000D01*
X104760000Y-66060000D02*
X107085000Y-66060000D01*
X109310000Y-68260000D02*
X109310000Y-70435000D01*
%TO.C,J3*%
X102900000Y-114900000D02*
X102900000Y-115400000D01*
X102900000Y-114900000D02*
X103400000Y-114900000D01*
X102900000Y-123100000D02*
X102900000Y-122600000D01*
X102900000Y-123100000D02*
X103400000Y-123100000D01*
X108900000Y-114900000D02*
X108400000Y-114900000D01*
X108900000Y-114900000D02*
X108900000Y-115400000D01*
X108900000Y-123100000D02*
X108400000Y-123100000D01*
X108900000Y-123100000D02*
X108900000Y-122600000D01*
D13*
%TO.C,E5*%
X118130000Y-112460242D02*
X118130000Y-110789758D01*
X119950000Y-112460242D02*
X119950000Y-110789758D01*
%TO.C,R20*%
X111772936Y-111665000D02*
X113227064Y-111665000D01*
X111772936Y-113485000D02*
X113227064Y-113485000D01*
%TO.C,C18*%
X133463748Y-111140000D02*
X134886252Y-111140000D01*
X133463748Y-112960000D02*
X134886252Y-112960000D01*
%TO.C,E4*%
X111464758Y-116590000D02*
X113135242Y-116590000D01*
X111464758Y-118410000D02*
X113135242Y-118410000D01*
D14*
%TO.C,E3*%
X154980000Y-126325000D02*
X159040000Y-126325000D01*
X154980000Y-129375000D02*
X159040000Y-129375000D01*
D13*
%TO.C,R5*%
X138110436Y-98340000D02*
X139564564Y-98340000D01*
X138110436Y-100160000D02*
X139564564Y-100160000D01*
%TO.C,Q5*%
X115130000Y-103487500D02*
X115130000Y-102687500D01*
X115130000Y-103487500D02*
X115130000Y-104287500D01*
X118250000Y-103487500D02*
X118250000Y-102687500D01*
X118250000Y-103487500D02*
X118250000Y-104287500D01*
X115180000Y-104787500D02*
X114850000Y-105027500D01*
X114850000Y-104547500D01*
X115180000Y-104787500D01*
G36*
X115180000Y-104787500D02*
G01*
X114850000Y-105027500D01*
X114850000Y-104547500D01*
X115180000Y-104787500D01*
G37*
%TO.C,Q4*%
X111690000Y-88040000D02*
X115450000Y-88040000D01*
X111690000Y-94860000D02*
X115450000Y-94860000D01*
X115450000Y-88040000D02*
X115450000Y-89300000D01*
X115450000Y-94860000D02*
X115450000Y-93600000D01*
X110410000Y-88140000D02*
X110170000Y-87810000D01*
X110650000Y-87810000D01*
X110410000Y-88140000D01*
G36*
X110410000Y-88140000D02*
G01*
X110170000Y-87810000D01*
X110650000Y-87810000D01*
X110410000Y-88140000D01*
G37*
%TO.C,R16*%
X112860000Y-74127064D02*
X112860000Y-72672936D01*
X111040000Y-74127064D02*
X111040000Y-72672936D01*
%TO.C,Q6*%
X110440000Y-108675000D02*
X110440000Y-107875000D01*
X110440000Y-108675000D02*
X110440000Y-109475000D01*
X113560000Y-108675000D02*
X113560000Y-107875000D01*
X113560000Y-108675000D02*
X113560000Y-109475000D01*
X110490000Y-109975000D02*
X110160000Y-110215000D01*
X110160000Y-109735000D01*
X110490000Y-109975000D01*
G36*
X110490000Y-109975000D02*
G01*
X110160000Y-110215000D01*
X110160000Y-109735000D01*
X110490000Y-109975000D01*
G37*
%TO.C,C12*%
X149840000Y-131913748D02*
X149840000Y-133336252D01*
X151660000Y-131913748D02*
X151660000Y-133336252D01*
%TO.C,C3*%
X160540000Y-89263748D02*
X160540000Y-90686252D01*
X162360000Y-89263748D02*
X162360000Y-90686252D01*
%TO.C,R18*%
X112710436Y-68390000D02*
X114164564Y-68390000D01*
X112710436Y-70210000D02*
X114164564Y-70210000D01*
%TO.C,C5*%
X142290000Y-81713748D02*
X142290000Y-83136252D01*
X144110000Y-81713748D02*
X144110000Y-83136252D01*
%TO.C,R9*%
X118680000Y-87960436D02*
X118680000Y-89414564D01*
X120500000Y-87960436D02*
X120500000Y-89414564D01*
%TO.C,R13*%
X106130000Y-89235436D02*
X106130000Y-90689564D01*
X107950000Y-89235436D02*
X107950000Y-90689564D01*
%TO.C,R7*%
X139240000Y-77589564D02*
X139240000Y-76135436D01*
X141060000Y-77589564D02*
X141060000Y-76135436D01*
%TO.C,C17*%
X122490000Y-98736252D02*
X122490000Y-97313748D01*
X124310000Y-98736252D02*
X124310000Y-97313748D01*
%TO.C,R2*%
X145872936Y-101040000D02*
X147327064Y-101040000D01*
X145872936Y-102860000D02*
X147327064Y-102860000D01*
%TD*%
%LPC*%
D15*
%TO.C,T3*%
X127200000Y-87000000D03*
X127200000Y-93000000D03*
X143200000Y-93000000D03*
X143200000Y-90000000D03*
X143200000Y-87000000D03*
%TD*%
%TO.C,L2*%
X151000000Y-87000000D03*
X151000000Y-90000000D03*
X151000000Y-93000000D03*
%TD*%
%TO.C,T2*%
X159000000Y-83000000D03*
X159000000Y-97000000D03*
X197000000Y-97000000D03*
X197000000Y-83000000D03*
%TD*%
D16*
%TO.C,R23*%
X125400000Y-69550000D03*
X125400000Y-72475000D03*
%TD*%
D17*
%TO.C,R22*%
X121775000Y-75250000D03*
X124700000Y-75250000D03*
%TD*%
D18*
%TO.C,R21*%
X117800000Y-71925000D03*
X117800000Y-69000000D03*
%TD*%
D17*
%TO.C,R4*%
X115250000Y-63050000D03*
X118175000Y-63050000D03*
%TD*%
%TO.C,R3*%
X120525000Y-63450000D03*
X123450000Y-63450000D03*
%TD*%
D19*
%TO.C,Q8*%
X120850000Y-72475000D03*
X122750000Y-72475000D03*
X121800000Y-70200000D03*
%TD*%
D20*
%TO.C,Q7*%
X120575000Y-66250000D03*
X120575000Y-68150000D03*
X122850000Y-67200000D03*
%TD*%
D21*
%TO.C,C21*%
X124700000Y-78350000D03*
X121750000Y-78350000D03*
%TD*%
%TO.C,C19*%
X117875000Y-66250000D03*
X114925000Y-66250000D03*
%TD*%
D17*
%TO.C,R19*%
X115165000Y-107500000D03*
X118090000Y-107500000D03*
%TD*%
D19*
%TO.C,U1*%
X132700000Y-120925000D03*
X133650000Y-120925000D03*
X134600000Y-120925000D03*
X134600000Y-118650000D03*
X132700000Y-118650000D03*
%TD*%
D21*
%TO.C,C20*%
X132700000Y-123700000D03*
X129750000Y-123700000D03*
%TD*%
D22*
%TO.C,C9*%
X173100000Y-127850000D03*
X173100000Y-133250000D03*
%TD*%
D23*
%TO.C,R11*%
X134450000Y-77900000D03*
X134450000Y-75360000D03*
X134450000Y-72820000D03*
%TD*%
D18*
%TO.C,R8*%
X143200000Y-78325000D03*
X143200000Y-75400000D03*
%TD*%
D24*
%TO.C,C8*%
X143200000Y-70200000D03*
X143200000Y-73150000D03*
%TD*%
D25*
%TO.C,C14*%
X132700000Y-115400000D03*
X135650000Y-115400000D03*
%TD*%
D26*
%TO.C,Q2*%
X116940000Y-83150000D03*
D27*
X115440000Y-83237500D03*
D26*
X113940000Y-83150000D03*
%TD*%
D17*
%TO.C,R6*%
X137375000Y-102250000D03*
X140300000Y-102250000D03*
%TD*%
D28*
%TO.C,C6*%
X143200000Y-99250000D03*
X143200000Y-96300000D03*
%TD*%
D29*
%TO.C,D1*%
X140900000Y-127850000D03*
X140900000Y-134650000D03*
%TD*%
D30*
%TO.C,F1*%
X118000000Y-127800000D03*
X118000000Y-134120000D03*
X131460000Y-127800000D03*
X131460000Y-134120000D03*
%TD*%
D25*
%TO.C,C7*%
X137375000Y-105350000D03*
X140325000Y-105350000D03*
%TD*%
D22*
%TO.C,C10*%
X165150000Y-127850000D03*
X165150000Y-133250000D03*
%TD*%
D17*
%TO.C,R12*%
X107440000Y-85800000D03*
X110365000Y-85800000D03*
%TD*%
D31*
%TO.C,Q3*%
X154000000Y-78621500D03*
X156500000Y-78621500D03*
X159000000Y-78621500D03*
%TD*%
D32*
%TO.C,H4*%
X195000000Y-55000000D03*
%TD*%
D28*
%TO.C,C15*%
X118450000Y-79825000D03*
X118450000Y-76875000D03*
%TD*%
D23*
%TO.C,R17*%
X132700000Y-105550000D03*
X132700000Y-103010000D03*
X132700000Y-100470000D03*
%TD*%
D18*
%TO.C,R15*%
X114900000Y-74875000D03*
X114900000Y-71950000D03*
%TD*%
D33*
%TO.C,E1*%
X166800000Y-111640000D03*
X166800000Y-108060000D03*
%TD*%
D21*
%TO.C,C11*%
X116800000Y-120700000D03*
X113850000Y-120700000D03*
%TD*%
D32*
%TO.C,H1*%
X105000000Y-55000000D03*
%TD*%
%TO.C,H3*%
X195000000Y-145000000D03*
%TD*%
D34*
%TO.C,R10*%
X122500000Y-84700000D03*
X119575000Y-84700000D03*
%TD*%
D35*
%TO.C,L1*%
X116680000Y-99435436D03*
X116680000Y-96635436D03*
%TD*%
D24*
%TO.C,C13*%
X158800000Y-131150000D03*
X158800000Y-134100000D03*
%TD*%
D21*
%TO.C,C16*%
X122550000Y-93000000D03*
X119600000Y-93000000D03*
%TD*%
D36*
%TO.C,J1*%
X191650000Y-66120000D03*
X191650000Y-71200000D03*
X196730000Y-66120000D03*
X196730000Y-71200000D03*
D37*
X194290000Y-68585000D03*
%TD*%
D17*
%TO.C,R1*%
X147025000Y-80950000D03*
X149950000Y-80950000D03*
%TD*%
D31*
%TO.C,Q1*%
X154000000Y-101837500D03*
X156500000Y-101837500D03*
X159000000Y-101837500D03*
%TD*%
D24*
%TO.C,C2*%
X158450000Y-88500000D03*
X158450000Y-91450000D03*
%TD*%
D16*
%TO.C,R14*%
X120330000Y-96560436D03*
X120330000Y-99485436D03*
%TD*%
D38*
%TO.C,E2*%
X147170000Y-127850000D03*
X150750000Y-127850000D03*
%TD*%
D39*
%TO.C,J5*%
X107050000Y-127800000D03*
D40*
X107050000Y-132800000D03*
%TD*%
D36*
%TO.C,J2*%
X103370000Y-66870000D03*
X103370000Y-71950000D03*
X108450000Y-66870000D03*
X108450000Y-71950000D03*
D37*
X106010000Y-69335000D03*
%TD*%
D41*
%TO.C,J3*%
X105900000Y-117500000D03*
X105900000Y-120000000D03*
%TD*%
D42*
%TO.C,E5*%
X119040000Y-113200000D03*
X119040000Y-110050000D03*
%TD*%
D17*
%TO.C,R20*%
X111037500Y-112575000D03*
X113962500Y-112575000D03*
%TD*%
D25*
%TO.C,C18*%
X132700000Y-112050000D03*
X135650000Y-112050000D03*
%TD*%
D43*
%TO.C,E4*%
X110725000Y-117500000D03*
X113875000Y-117500000D03*
%TD*%
D38*
%TO.C,E3*%
X155220000Y-127850000D03*
X158800000Y-127850000D03*
%TD*%
D17*
%TO.C,R5*%
X137375000Y-99250000D03*
X140300000Y-99250000D03*
%TD*%
D19*
%TO.C,Q5*%
X115740000Y-104625000D03*
X117640000Y-104625000D03*
X116690000Y-102350000D03*
%TD*%
D44*
%TO.C,Q4*%
X110390000Y-89150000D03*
X110390000Y-91450000D03*
X110390000Y-93750000D03*
D45*
X116690000Y-91450000D03*
%TD*%
D18*
%TO.C,R16*%
X111950000Y-74862500D03*
X111950000Y-71937500D03*
%TD*%
D19*
%TO.C,Q6*%
X111050000Y-109812500D03*
X112950000Y-109812500D03*
X112000000Y-107537500D03*
%TD*%
D32*
%TO.C,H2*%
X105000000Y-145000000D03*
%TD*%
D24*
%TO.C,C12*%
X150750000Y-131150000D03*
X150750000Y-134100000D03*
%TD*%
%TO.C,C3*%
X161450000Y-88500000D03*
X161450000Y-91450000D03*
%TD*%
D17*
%TO.C,R18*%
X111975000Y-69300000D03*
X114900000Y-69300000D03*
%TD*%
D24*
%TO.C,C5*%
X143200000Y-80950000D03*
X143200000Y-83900000D03*
%TD*%
D16*
%TO.C,R9*%
X119590000Y-87225000D03*
X119590000Y-90150000D03*
%TD*%
%TO.C,R13*%
X107040000Y-88500000D03*
X107040000Y-91425000D03*
%TD*%
D18*
%TO.C,R7*%
X140150000Y-78325000D03*
X140150000Y-75400000D03*
%TD*%
D28*
%TO.C,C17*%
X123400000Y-99500000D03*
X123400000Y-96550000D03*
%TD*%
D17*
%TO.C,R2*%
X145137500Y-101950000D03*
X148062500Y-101950000D03*
%TD*%
%LPD*%
M02*
