%TF.GenerationSoftware,KiCad,Pcbnew,8.0.5-dirty*%
%TF.CreationDate,2024-10-13T20:14:36-04:00*%
%TF.ProjectId,t41_2_power_amplifier,7434315f-325f-4706-9f77-65725f616d70,rev?*%
%TF.SameCoordinates,Original*%
%TF.FileFunction,Soldermask,Top*%
%TF.FilePolarity,Negative*%
%FSLAX46Y46*%
G04 Gerber Fmt 4.6, Leading zero omitted, Abs format (unit mm)*
G04 Created by KiCad (PCBNEW 8.0.5-dirty) date 2024-10-13 20:14:36*
%MOMM*%
%LPD*%
G01*
G04 APERTURE LIST*
G04 Aperture macros list*
%AMRoundRect*
0 Rectangle with rounded corners*
0 $1 Rounding radius*
0 $2 $3 $4 $5 $6 $7 $8 $9 X,Y pos of 4 corners*
0 Add a 4 corners polygon primitive as box body*
4,1,4,$2,$3,$4,$5,$6,$7,$8,$9,$2,$3,0*
0 Add four circle primitives for the rounded corners*
1,1,$1+$1,$2,$3*
1,1,$1+$1,$4,$5*
1,1,$1+$1,$6,$7*
1,1,$1+$1,$8,$9*
0 Add four rect primitives between the rounded corners*
20,1,$1+$1,$2,$3,$4,$5,0*
20,1,$1+$1,$4,$5,$6,$7,0*
20,1,$1+$1,$6,$7,$8,$9,0*
20,1,$1+$1,$8,$9,$2,$3,0*%
%AMFreePoly0*
4,1,9,3.862500,-0.866500,0.737500,-0.866500,0.737500,-0.450000,-0.737500,-0.450000,-0.737500,0.450000,0.737500,0.450000,0.737500,0.866500,3.862500,0.866500,3.862500,-0.866500,3.862500,-0.866500,$1*%
G04 Aperture macros list end*
%ADD10C,2.000000*%
%ADD11RoundRect,0.250000X-0.625000X0.312500X-0.625000X-0.312500X0.625000X-0.312500X0.625000X0.312500X0*%
%ADD12RoundRect,0.250000X-0.312500X-0.625000X0.312500X-0.625000X0.312500X0.625000X-0.312500X0.625000X0*%
%ADD13RoundRect,0.250000X0.625000X-0.312500X0.625000X0.312500X-0.625000X0.312500X-0.625000X-0.312500X0*%
%ADD14RoundRect,0.150000X0.150000X-0.512500X0.150000X0.512500X-0.150000X0.512500X-0.150000X-0.512500X0*%
%ADD15RoundRect,0.150000X-0.512500X-0.150000X0.512500X-0.150000X0.512500X0.150000X-0.512500X0.150000X0*%
%ADD16RoundRect,0.250000X0.325000X0.650000X-0.325000X0.650000X-0.325000X-0.650000X0.325000X-0.650000X0*%
%ADD17RoundRect,0.250000X-0.550000X1.500000X-0.550000X-1.500000X0.550000X-1.500000X0.550000X1.500000X0*%
%ADD18C,1.440000*%
%ADD19RoundRect,0.250000X-0.650000X0.325000X-0.650000X-0.325000X0.650000X-0.325000X0.650000X0.325000X0*%
%ADD20RoundRect,0.250000X-0.325000X-0.650000X0.325000X-0.650000X0.325000X0.650000X-0.325000X0.650000X0*%
%ADD21RoundRect,0.225000X-0.225000X0.425000X-0.225000X-0.425000X0.225000X-0.425000X0.225000X0.425000X0*%
%ADD22FreePoly0,270.000000*%
%ADD23RoundRect,0.250000X0.650000X-0.325000X0.650000X0.325000X-0.650000X0.325000X-0.650000X-0.325000X0*%
%ADD24RoundRect,0.250000X-1.400000X-1.000000X1.400000X-1.000000X1.400000X1.000000X-1.400000X1.000000X0*%
%ADD25RoundRect,0.102000X-0.785000X-1.410000X0.785000X-1.410000X0.785000X1.410000X-0.785000X1.410000X0*%
%ADD26R,1.524000X3.900000*%
%ADD27C,7.500000*%
%ADD28RoundRect,0.102000X0.735000X-1.385000X0.735000X1.385000X-0.735000X1.385000X-0.735000X-1.385000X0*%
%ADD29RoundRect,0.250000X0.312500X0.625000X-0.312500X0.625000X-0.312500X-0.625000X0.312500X-0.625000X0*%
%ADD30RoundRect,0.250000X1.075000X-0.375000X1.075000X0.375000X-1.075000X0.375000X-1.075000X-0.375000X0*%
%ADD31C,2.600000*%
%ADD32C,2.500000*%
%ADD33RoundRect,0.102000X-1.385000X-0.735000X1.385000X-0.735000X1.385000X0.735000X-1.385000X0.735000X0*%
%ADD34R,2.400000X2.400000*%
%ADD35C,2.400000*%
%ADD36C,2.100000*%
%ADD37RoundRect,0.250000X0.700000X-0.275000X0.700000X0.275000X-0.700000X0.275000X-0.700000X-0.275000X0*%
%ADD38RoundRect,0.250000X-0.275000X-0.700000X0.275000X-0.700000X0.275000X0.700000X-0.275000X0.700000X0*%
%ADD39RoundRect,0.375000X-0.625000X-0.375000X0.625000X-0.375000X0.625000X0.375000X-0.625000X0.375000X0*%
%ADD40RoundRect,0.500000X-0.500000X-1.400000X0.500000X-1.400000X0.500000X1.400000X-0.500000X1.400000X0*%
G04 APERTURE END LIST*
D10*
%TO.C,T3*%
X127200000Y-87000000D03*
X127200000Y-93000000D03*
X143200000Y-93000000D03*
X143200000Y-90000000D03*
X143200000Y-87000000D03*
%TD*%
%TO.C,L2*%
X151000000Y-87000000D03*
X151000000Y-90000000D03*
X151000000Y-93000000D03*
%TD*%
%TO.C,T2*%
X159000000Y-83000000D03*
X159000000Y-97000000D03*
X197000000Y-97000000D03*
X197000000Y-83000000D03*
%TD*%
D11*
%TO.C,R23*%
X125400000Y-69550000D03*
X125400000Y-72475000D03*
%TD*%
D12*
%TO.C,R22*%
X121775000Y-75250000D03*
X124700000Y-75250000D03*
%TD*%
D13*
%TO.C,R21*%
X117800000Y-71925000D03*
X117800000Y-69000000D03*
%TD*%
D12*
%TO.C,R4*%
X115250000Y-63050000D03*
X118175000Y-63050000D03*
%TD*%
%TO.C,R3*%
X120525000Y-63450000D03*
X123450000Y-63450000D03*
%TD*%
D14*
%TO.C,Q8*%
X120850000Y-72475000D03*
X122750000Y-72475000D03*
X121800000Y-70200000D03*
%TD*%
D15*
%TO.C,Q7*%
X120575000Y-66250000D03*
X120575000Y-68150000D03*
X122850000Y-67200000D03*
%TD*%
D16*
%TO.C,C21*%
X124700000Y-78350000D03*
X121750000Y-78350000D03*
%TD*%
%TO.C,C19*%
X117875000Y-66250000D03*
X114925000Y-66250000D03*
%TD*%
D12*
%TO.C,R19*%
X115165000Y-107500000D03*
X118090000Y-107500000D03*
%TD*%
D14*
%TO.C,U1*%
X132700000Y-120925000D03*
X133650000Y-120925000D03*
X134600000Y-120925000D03*
X134600000Y-118650000D03*
X132700000Y-118650000D03*
%TD*%
D16*
%TO.C,C20*%
X132700000Y-123700000D03*
X129750000Y-123700000D03*
%TD*%
D17*
%TO.C,C9*%
X173100000Y-127850000D03*
X173100000Y-133250000D03*
%TD*%
D18*
%TO.C,R11*%
X134450000Y-77900000D03*
X134450000Y-75360000D03*
X134450000Y-72820000D03*
%TD*%
D13*
%TO.C,R8*%
X143200000Y-78325000D03*
X143200000Y-75400000D03*
%TD*%
D19*
%TO.C,C8*%
X143200000Y-70200000D03*
X143200000Y-73150000D03*
%TD*%
D20*
%TO.C,C14*%
X132700000Y-115400000D03*
X135650000Y-115400000D03*
%TD*%
D21*
%TO.C,Q2*%
X116940000Y-83150000D03*
D22*
X115440000Y-83237500D03*
D21*
X113940000Y-83150000D03*
%TD*%
D12*
%TO.C,R6*%
X137375000Y-102250000D03*
X140300000Y-102250000D03*
%TD*%
D23*
%TO.C,C6*%
X143200000Y-99250000D03*
X143200000Y-96300000D03*
%TD*%
D24*
%TO.C,D1*%
X140900000Y-127850000D03*
X140900000Y-134650000D03*
%TD*%
D25*
%TO.C,F1*%
X118000000Y-127800000D03*
X118000000Y-134120000D03*
X131460000Y-127800000D03*
X131460000Y-134120000D03*
%TD*%
D20*
%TO.C,C7*%
X137375000Y-105350000D03*
X140325000Y-105350000D03*
%TD*%
D17*
%TO.C,C10*%
X165150000Y-127850000D03*
X165150000Y-133250000D03*
%TD*%
D12*
%TO.C,R12*%
X107440000Y-85800000D03*
X110365000Y-85800000D03*
%TD*%
D26*
%TO.C,Q3*%
X154000000Y-78621500D03*
X156500000Y-78621500D03*
X159000000Y-78621500D03*
%TD*%
D27*
%TO.C,H4*%
X195000000Y-55000000D03*
%TD*%
D23*
%TO.C,C15*%
X118450000Y-79825000D03*
X118450000Y-76875000D03*
%TD*%
D18*
%TO.C,R17*%
X132700000Y-105550000D03*
X132700000Y-103010000D03*
X132700000Y-100470000D03*
%TD*%
D13*
%TO.C,R15*%
X114900000Y-74875000D03*
X114900000Y-71950000D03*
%TD*%
D28*
%TO.C,E1*%
X166800000Y-111640000D03*
X166800000Y-108060000D03*
%TD*%
D16*
%TO.C,C11*%
X116800000Y-120700000D03*
X113850000Y-120700000D03*
%TD*%
D27*
%TO.C,H1*%
X105000000Y-55000000D03*
%TD*%
%TO.C,H3*%
X195000000Y-145000000D03*
%TD*%
D29*
%TO.C,R10*%
X122500000Y-84700000D03*
X119575000Y-84700000D03*
%TD*%
D30*
%TO.C,L1*%
X116680000Y-99435436D03*
X116680000Y-96635436D03*
%TD*%
D19*
%TO.C,C13*%
X158800000Y-131150000D03*
X158800000Y-134100000D03*
%TD*%
D16*
%TO.C,C16*%
X122550000Y-93000000D03*
X119600000Y-93000000D03*
%TD*%
D31*
%TO.C,J1*%
X191650000Y-66120000D03*
X191650000Y-71200000D03*
X196730000Y-66120000D03*
X196730000Y-71200000D03*
D32*
X194290000Y-68585000D03*
%TD*%
D12*
%TO.C,R1*%
X147025000Y-80950000D03*
X149950000Y-80950000D03*
%TD*%
D26*
%TO.C,Q1*%
X154000000Y-101837500D03*
X156500000Y-101837500D03*
X159000000Y-101837500D03*
%TD*%
D19*
%TO.C,C2*%
X158450000Y-88500000D03*
X158450000Y-91450000D03*
%TD*%
D11*
%TO.C,R14*%
X120330000Y-96560436D03*
X120330000Y-99485436D03*
%TD*%
D33*
%TO.C,E2*%
X147170000Y-127850000D03*
X150750000Y-127850000D03*
%TD*%
D34*
%TO.C,J5*%
X107050000Y-127800000D03*
D35*
X107050000Y-132800000D03*
%TD*%
D31*
%TO.C,J2*%
X103370000Y-66870000D03*
X103370000Y-71950000D03*
X108450000Y-66870000D03*
X108450000Y-71950000D03*
D32*
X106010000Y-69335000D03*
%TD*%
D36*
%TO.C,J3*%
X105900000Y-117500000D03*
X105900000Y-120000000D03*
%TD*%
D37*
%TO.C,E5*%
X119040000Y-113200000D03*
X119040000Y-110050000D03*
%TD*%
D12*
%TO.C,R20*%
X111037500Y-112575000D03*
X113962500Y-112575000D03*
%TD*%
D20*
%TO.C,C18*%
X132700000Y-112050000D03*
X135650000Y-112050000D03*
%TD*%
D38*
%TO.C,E4*%
X110725000Y-117500000D03*
X113875000Y-117500000D03*
%TD*%
D33*
%TO.C,E3*%
X155220000Y-127850000D03*
X158800000Y-127850000D03*
%TD*%
D12*
%TO.C,R5*%
X137375000Y-99250000D03*
X140300000Y-99250000D03*
%TD*%
D14*
%TO.C,Q5*%
X115740000Y-104625000D03*
X117640000Y-104625000D03*
X116690000Y-102350000D03*
%TD*%
D39*
%TO.C,Q4*%
X110390000Y-89150000D03*
X110390000Y-91450000D03*
X110390000Y-93750000D03*
D40*
X116690000Y-91450000D03*
%TD*%
D13*
%TO.C,R16*%
X111950000Y-74862500D03*
X111950000Y-71937500D03*
%TD*%
D14*
%TO.C,Q6*%
X111050000Y-109812500D03*
X112950000Y-109812500D03*
X112000000Y-107537500D03*
%TD*%
D27*
%TO.C,H2*%
X105000000Y-145000000D03*
%TD*%
D19*
%TO.C,C12*%
X150750000Y-131150000D03*
X150750000Y-134100000D03*
%TD*%
%TO.C,C3*%
X161450000Y-88500000D03*
X161450000Y-91450000D03*
%TD*%
D12*
%TO.C,R18*%
X111975000Y-69300000D03*
X114900000Y-69300000D03*
%TD*%
D19*
%TO.C,C5*%
X143200000Y-80950000D03*
X143200000Y-83900000D03*
%TD*%
D11*
%TO.C,R9*%
X119590000Y-87225000D03*
X119590000Y-90150000D03*
%TD*%
%TO.C,R13*%
X107040000Y-88500000D03*
X107040000Y-91425000D03*
%TD*%
D13*
%TO.C,R7*%
X140150000Y-78325000D03*
X140150000Y-75400000D03*
%TD*%
D23*
%TO.C,C17*%
X123400000Y-99500000D03*
X123400000Y-96550000D03*
%TD*%
D12*
%TO.C,R2*%
X145137500Y-101950000D03*
X148062500Y-101950000D03*
%TD*%
M02*
