%TF.GenerationSoftware,KiCad,Pcbnew,8.0.5-dirty*%
%TF.CreationDate,2024-10-13T20:14:35-04:00*%
%TF.ProjectId,t41_2_power_amplifier,7434315f-325f-4706-9f77-65725f616d70,rev?*%
%TF.SameCoordinates,Original*%
%TF.FileFunction,Legend,Bot*%
%TF.FilePolarity,Positive*%
%FSLAX46Y46*%
G04 Gerber Fmt 4.6, Leading zero omitted, Abs format (unit mm)*
G04 Created by KiCad (PCBNEW 8.0.5-dirty) date 2024-10-13 20:14:35*
%MOMM*%
%LPD*%
G01*
G04 APERTURE LIST*
G04 Aperture macros list*
%AMRoundRect*
0 Rectangle with rounded corners*
0 $1 Rounding radius*
0 $2 $3 $4 $5 $6 $7 $8 $9 X,Y pos of 4 corners*
0 Add a 4 corners polygon primitive as box body*
4,1,4,$2,$3,$4,$5,$6,$7,$8,$9,$2,$3,0*
0 Add four circle primitives for the rounded corners*
1,1,$1+$1,$2,$3*
1,1,$1+$1,$4,$5*
1,1,$1+$1,$6,$7*
1,1,$1+$1,$8,$9*
0 Add four rect primitives between the rounded corners*
20,1,$1+$1,$2,$3,$4,$5,0*
20,1,$1+$1,$4,$5,$6,$7,0*
20,1,$1+$1,$6,$7,$8,$9,0*
20,1,$1+$1,$8,$9,$2,$3,0*%
G04 Aperture macros list end*
%ADD10C,0.150000*%
%ADD11C,0.120000*%
%ADD12C,2.000000*%
%ADD13C,1.440000*%
%ADD14C,7.500000*%
%ADD15C,2.600000*%
%ADD16C,2.500000*%
%ADD17R,2.400000X2.400000*%
%ADD18C,2.400000*%
%ADD19C,2.100000*%
%ADD20RoundRect,0.250000X0.650000X-0.325000X0.650000X0.325000X-0.650000X0.325000X-0.650000X-0.325000X0*%
%ADD21RoundRect,0.250000X-0.650000X0.325000X-0.650000X-0.325000X0.650000X-0.325000X0.650000X0.325000X0*%
G04 APERTURE END LIST*
D10*
X156859580Y-86858333D02*
X156907200Y-86810714D01*
X156907200Y-86810714D02*
X156954819Y-86667857D01*
X156954819Y-86667857D02*
X156954819Y-86572619D01*
X156954819Y-86572619D02*
X156907200Y-86429762D01*
X156907200Y-86429762D02*
X156811961Y-86334524D01*
X156811961Y-86334524D02*
X156716723Y-86286905D01*
X156716723Y-86286905D02*
X156526247Y-86239286D01*
X156526247Y-86239286D02*
X156383390Y-86239286D01*
X156383390Y-86239286D02*
X156192914Y-86286905D01*
X156192914Y-86286905D02*
X156097676Y-86334524D01*
X156097676Y-86334524D02*
X156002438Y-86429762D01*
X156002438Y-86429762D02*
X155954819Y-86572619D01*
X155954819Y-86572619D02*
X155954819Y-86667857D01*
X155954819Y-86667857D02*
X156002438Y-86810714D01*
X156002438Y-86810714D02*
X156050057Y-86858333D01*
X156954819Y-87810714D02*
X156954819Y-87239286D01*
X156954819Y-87525000D02*
X155954819Y-87525000D01*
X155954819Y-87525000D02*
X156097676Y-87429762D01*
X156097676Y-87429762D02*
X156192914Y-87334524D01*
X156192914Y-87334524D02*
X156240533Y-87239286D01*
X152254819Y-85382143D02*
X152254819Y-85477381D01*
X152254819Y-85477381D02*
X152302438Y-85572619D01*
X152302438Y-85572619D02*
X152350057Y-85620238D01*
X152350057Y-85620238D02*
X152445295Y-85667857D01*
X152445295Y-85667857D02*
X152635771Y-85715476D01*
X152635771Y-85715476D02*
X152873866Y-85715476D01*
X152873866Y-85715476D02*
X153064342Y-85667857D01*
X153064342Y-85667857D02*
X153159580Y-85620238D01*
X153159580Y-85620238D02*
X153207200Y-85572619D01*
X153207200Y-85572619D02*
X153254819Y-85477381D01*
X153254819Y-85477381D02*
X153254819Y-85382143D01*
X153254819Y-85382143D02*
X153207200Y-85286905D01*
X153207200Y-85286905D02*
X153159580Y-85239286D01*
X153159580Y-85239286D02*
X153064342Y-85191667D01*
X153064342Y-85191667D02*
X152873866Y-85144048D01*
X152873866Y-85144048D02*
X152635771Y-85144048D01*
X152635771Y-85144048D02*
X152445295Y-85191667D01*
X152445295Y-85191667D02*
X152350057Y-85239286D01*
X152350057Y-85239286D02*
X152302438Y-85286905D01*
X152302438Y-85286905D02*
X152254819Y-85382143D01*
X153159580Y-86144048D02*
X153207200Y-86191667D01*
X153207200Y-86191667D02*
X153254819Y-86144048D01*
X153254819Y-86144048D02*
X153207200Y-86096429D01*
X153207200Y-86096429D02*
X153159580Y-86144048D01*
X153159580Y-86144048D02*
X153254819Y-86144048D01*
X153254819Y-87144047D02*
X153254819Y-86572619D01*
X153254819Y-86858333D02*
X152254819Y-86858333D01*
X152254819Y-86858333D02*
X152397676Y-86763095D01*
X152397676Y-86763095D02*
X152492914Y-86667857D01*
X152492914Y-86667857D02*
X152540533Y-86572619D01*
X152588152Y-88001190D02*
X153254819Y-88001190D01*
X152588152Y-87572619D02*
X153111961Y-87572619D01*
X153111961Y-87572619D02*
X153207200Y-87620238D01*
X153207200Y-87620238D02*
X153254819Y-87715476D01*
X153254819Y-87715476D02*
X153254819Y-87858333D01*
X153254819Y-87858333D02*
X153207200Y-87953571D01*
X153207200Y-87953571D02*
X153159580Y-88001190D01*
X152731009Y-88810714D02*
X152731009Y-88477381D01*
X153254819Y-88477381D02*
X152254819Y-88477381D01*
X152254819Y-88477381D02*
X152254819Y-88953571D01*
X153159580Y-92808333D02*
X153207200Y-92760714D01*
X153207200Y-92760714D02*
X153254819Y-92617857D01*
X153254819Y-92617857D02*
X153254819Y-92522619D01*
X153254819Y-92522619D02*
X153207200Y-92379762D01*
X153207200Y-92379762D02*
X153111961Y-92284524D01*
X153111961Y-92284524D02*
X153016723Y-92236905D01*
X153016723Y-92236905D02*
X152826247Y-92189286D01*
X152826247Y-92189286D02*
X152683390Y-92189286D01*
X152683390Y-92189286D02*
X152492914Y-92236905D01*
X152492914Y-92236905D02*
X152397676Y-92284524D01*
X152397676Y-92284524D02*
X152302438Y-92379762D01*
X152302438Y-92379762D02*
X152254819Y-92522619D01*
X152254819Y-92522619D02*
X152254819Y-92617857D01*
X152254819Y-92617857D02*
X152302438Y-92760714D01*
X152302438Y-92760714D02*
X152350057Y-92808333D01*
X152588152Y-93665476D02*
X153254819Y-93665476D01*
X152207200Y-93427381D02*
X152921485Y-93189286D01*
X152921485Y-93189286D02*
X152921485Y-93808333D01*
X155954819Y-91332143D02*
X155954819Y-91427381D01*
X155954819Y-91427381D02*
X156002438Y-91522619D01*
X156002438Y-91522619D02*
X156050057Y-91570238D01*
X156050057Y-91570238D02*
X156145295Y-91617857D01*
X156145295Y-91617857D02*
X156335771Y-91665476D01*
X156335771Y-91665476D02*
X156573866Y-91665476D01*
X156573866Y-91665476D02*
X156764342Y-91617857D01*
X156764342Y-91617857D02*
X156859580Y-91570238D01*
X156859580Y-91570238D02*
X156907200Y-91522619D01*
X156907200Y-91522619D02*
X156954819Y-91427381D01*
X156954819Y-91427381D02*
X156954819Y-91332143D01*
X156954819Y-91332143D02*
X156907200Y-91236905D01*
X156907200Y-91236905D02*
X156859580Y-91189286D01*
X156859580Y-91189286D02*
X156764342Y-91141667D01*
X156764342Y-91141667D02*
X156573866Y-91094048D01*
X156573866Y-91094048D02*
X156335771Y-91094048D01*
X156335771Y-91094048D02*
X156145295Y-91141667D01*
X156145295Y-91141667D02*
X156050057Y-91189286D01*
X156050057Y-91189286D02*
X156002438Y-91236905D01*
X156002438Y-91236905D02*
X155954819Y-91332143D01*
X156859580Y-92094048D02*
X156907200Y-92141667D01*
X156907200Y-92141667D02*
X156954819Y-92094048D01*
X156954819Y-92094048D02*
X156907200Y-92046429D01*
X156907200Y-92046429D02*
X156859580Y-92094048D01*
X156859580Y-92094048D02*
X156954819Y-92094048D01*
X156954819Y-93094047D02*
X156954819Y-92522619D01*
X156954819Y-92808333D02*
X155954819Y-92808333D01*
X155954819Y-92808333D02*
X156097676Y-92713095D01*
X156097676Y-92713095D02*
X156192914Y-92617857D01*
X156192914Y-92617857D02*
X156240533Y-92522619D01*
X156288152Y-93951190D02*
X156954819Y-93951190D01*
X156288152Y-93522619D02*
X156811961Y-93522619D01*
X156811961Y-93522619D02*
X156907200Y-93570238D01*
X156907200Y-93570238D02*
X156954819Y-93665476D01*
X156954819Y-93665476D02*
X156954819Y-93808333D01*
X156954819Y-93808333D02*
X156907200Y-93903571D01*
X156907200Y-93903571D02*
X156859580Y-93951190D01*
X156431009Y-94760714D02*
X156431009Y-94427381D01*
X156954819Y-94427381D02*
X155954819Y-94427381D01*
X155954819Y-94427381D02*
X155954819Y-94903571D01*
D11*
%TO.C,C1*%
X153740000Y-86313748D02*
X153740000Y-87736252D01*
X155560000Y-86313748D02*
X155560000Y-87736252D01*
%TO.C,C4*%
X153740000Y-93686252D02*
X153740000Y-92263748D01*
X155560000Y-93686252D02*
X155560000Y-92263748D01*
%TD*%
%LPC*%
D12*
%TO.C,T3*%
X127200000Y-87000000D03*
X127200000Y-93000000D03*
X143200000Y-93000000D03*
X143200000Y-90000000D03*
X143200000Y-87000000D03*
%TD*%
%TO.C,L2*%
X151000000Y-87000000D03*
X151000000Y-90000000D03*
X151000000Y-93000000D03*
%TD*%
%TO.C,T2*%
X159000000Y-83000000D03*
X159000000Y-97000000D03*
X197000000Y-97000000D03*
X197000000Y-83000000D03*
%TD*%
D13*
%TO.C,R11*%
X134450000Y-77900000D03*
X134450000Y-75360000D03*
X134450000Y-72820000D03*
%TD*%
D14*
%TO.C,H4*%
X195000000Y-55000000D03*
%TD*%
D13*
%TO.C,R17*%
X132700000Y-105550000D03*
X132700000Y-103010000D03*
X132700000Y-100470000D03*
%TD*%
D14*
%TO.C,H1*%
X105000000Y-55000000D03*
%TD*%
%TO.C,H3*%
X195000000Y-145000000D03*
%TD*%
D15*
%TO.C,J1*%
X191650000Y-66120000D03*
X191650000Y-71200000D03*
X196730000Y-66120000D03*
X196730000Y-71200000D03*
D16*
X194290000Y-68585000D03*
%TD*%
D17*
%TO.C,J5*%
X107050000Y-127800000D03*
D18*
X107050000Y-132800000D03*
%TD*%
D15*
%TO.C,J2*%
X103370000Y-66870000D03*
X103370000Y-71950000D03*
X108450000Y-66870000D03*
X108450000Y-71950000D03*
D16*
X106010000Y-69335000D03*
%TD*%
D19*
%TO.C,J3*%
X105900000Y-117500000D03*
X105900000Y-120000000D03*
%TD*%
D14*
%TO.C,H2*%
X105000000Y-145000000D03*
%TD*%
D20*
%TO.C,C1*%
X154650000Y-88500000D03*
X154650000Y-85550000D03*
%TD*%
D21*
%TO.C,C4*%
X154650000Y-91500000D03*
X154650000Y-94450000D03*
%TD*%
%LPD*%
M02*
