G04 #@! TF.GenerationSoftware,KiCad,Pcbnew,9.0.2*
G04 #@! TF.CreationDate,2025-06-22T17:02:30-04:00*
G04 #@! TF.ProjectId,t41_2_power_amplifier,7434315f-325f-4706-9f77-65725f616d70,1.7*
G04 #@! TF.SameCoordinates,Original*
G04 #@! TF.FileFunction,Legend,Bot*
G04 #@! TF.FilePolarity,Positive*
%FSLAX46Y46*%
G04 Gerber Fmt 4.6, Leading zero omitted, Abs format (unit mm)*
G04 Created by KiCad (PCBNEW 9.0.2) date 2025-06-22 17:02:30*
%MOMM*%
%LPD*%
G01*
G04 APERTURE LIST*
G04 Aperture macros list*
%AMRoundRect*
0 Rectangle with rounded corners*
0 $1 Rounding radius*
0 $2 $3 $4 $5 $6 $7 $8 $9 X,Y pos of 4 corners*
0 Add a 4 corners polygon primitive as box body*
4,1,4,$2,$3,$4,$5,$6,$7,$8,$9,$2,$3,0*
0 Add four circle primitives for the rounded corners*
1,1,$1+$1,$2,$3*
1,1,$1+$1,$4,$5*
1,1,$1+$1,$6,$7*
1,1,$1+$1,$8,$9*
0 Add four rect primitives between the rounded corners*
20,1,$1+$1,$2,$3,$4,$5,0*
20,1,$1+$1,$4,$5,$6,$7,0*
20,1,$1+$1,$6,$7,$8,$9,0*
20,1,$1+$1,$8,$9,$2,$3,0*%
G04 Aperture macros list end*
%ADD10C,0.150000*%
%ADD11C,0.120000*%
%ADD12C,1.440000*%
%ADD13C,2.000000*%
%ADD14C,2.200000*%
%ADD15C,1.905000*%
%ADD16C,7.500000*%
%ADD17C,2.100000*%
%ADD18C,2.600000*%
%ADD19C,2.500000*%
%ADD20RoundRect,0.250001X-0.949999X0.949999X-0.949999X-0.949999X0.949999X-0.949999X0.949999X0.949999X0*%
%ADD21C,2.400000*%
%ADD22RoundRect,0.250000X-0.650000X0.325000X-0.650000X-0.325000X0.650000X-0.325000X0.650000X0.325000X0*%
%ADD23RoundRect,0.250000X0.650000X-0.325000X0.650000X0.325000X-0.650000X0.325000X-0.650000X-0.325000X0*%
G04 APERTURE END LIST*
D10*
X152009580Y-92808333D02*
X152057200Y-92760714D01*
X152057200Y-92760714D02*
X152104819Y-92617857D01*
X152104819Y-92617857D02*
X152104819Y-92522619D01*
X152104819Y-92522619D02*
X152057200Y-92379762D01*
X152057200Y-92379762D02*
X151961961Y-92284524D01*
X151961961Y-92284524D02*
X151866723Y-92236905D01*
X151866723Y-92236905D02*
X151676247Y-92189286D01*
X151676247Y-92189286D02*
X151533390Y-92189286D01*
X151533390Y-92189286D02*
X151342914Y-92236905D01*
X151342914Y-92236905D02*
X151247676Y-92284524D01*
X151247676Y-92284524D02*
X151152438Y-92379762D01*
X151152438Y-92379762D02*
X151104819Y-92522619D01*
X151104819Y-92522619D02*
X151104819Y-92617857D01*
X151104819Y-92617857D02*
X151152438Y-92760714D01*
X151152438Y-92760714D02*
X151200057Y-92808333D01*
X151438152Y-93665476D02*
X152104819Y-93665476D01*
X151057200Y-93427381D02*
X151771485Y-93189286D01*
X151771485Y-93189286D02*
X151771485Y-93808333D01*
X154804819Y-91332143D02*
X154804819Y-91427381D01*
X154804819Y-91427381D02*
X154852438Y-91522619D01*
X154852438Y-91522619D02*
X154900057Y-91570238D01*
X154900057Y-91570238D02*
X154995295Y-91617857D01*
X154995295Y-91617857D02*
X155185771Y-91665476D01*
X155185771Y-91665476D02*
X155423866Y-91665476D01*
X155423866Y-91665476D02*
X155614342Y-91617857D01*
X155614342Y-91617857D02*
X155709580Y-91570238D01*
X155709580Y-91570238D02*
X155757200Y-91522619D01*
X155757200Y-91522619D02*
X155804819Y-91427381D01*
X155804819Y-91427381D02*
X155804819Y-91332143D01*
X155804819Y-91332143D02*
X155757200Y-91236905D01*
X155757200Y-91236905D02*
X155709580Y-91189286D01*
X155709580Y-91189286D02*
X155614342Y-91141667D01*
X155614342Y-91141667D02*
X155423866Y-91094048D01*
X155423866Y-91094048D02*
X155185771Y-91094048D01*
X155185771Y-91094048D02*
X154995295Y-91141667D01*
X154995295Y-91141667D02*
X154900057Y-91189286D01*
X154900057Y-91189286D02*
X154852438Y-91236905D01*
X154852438Y-91236905D02*
X154804819Y-91332143D01*
X155709580Y-92094048D02*
X155757200Y-92141667D01*
X155757200Y-92141667D02*
X155804819Y-92094048D01*
X155804819Y-92094048D02*
X155757200Y-92046429D01*
X155757200Y-92046429D02*
X155709580Y-92094048D01*
X155709580Y-92094048D02*
X155804819Y-92094048D01*
X155804819Y-93094047D02*
X155804819Y-92522619D01*
X155804819Y-92808333D02*
X154804819Y-92808333D01*
X154804819Y-92808333D02*
X154947676Y-92713095D01*
X154947676Y-92713095D02*
X155042914Y-92617857D01*
X155042914Y-92617857D02*
X155090533Y-92522619D01*
X155138152Y-93951190D02*
X155804819Y-93951190D01*
X155138152Y-93522619D02*
X155661961Y-93522619D01*
X155661961Y-93522619D02*
X155757200Y-93570238D01*
X155757200Y-93570238D02*
X155804819Y-93665476D01*
X155804819Y-93665476D02*
X155804819Y-93808333D01*
X155804819Y-93808333D02*
X155757200Y-93903571D01*
X155757200Y-93903571D02*
X155709580Y-93951190D01*
X155281009Y-94760714D02*
X155281009Y-94427381D01*
X155804819Y-94427381D02*
X154804819Y-94427381D01*
X154804819Y-94427381D02*
X154804819Y-94903571D01*
X155709580Y-86858333D02*
X155757200Y-86810714D01*
X155757200Y-86810714D02*
X155804819Y-86667857D01*
X155804819Y-86667857D02*
X155804819Y-86572619D01*
X155804819Y-86572619D02*
X155757200Y-86429762D01*
X155757200Y-86429762D02*
X155661961Y-86334524D01*
X155661961Y-86334524D02*
X155566723Y-86286905D01*
X155566723Y-86286905D02*
X155376247Y-86239286D01*
X155376247Y-86239286D02*
X155233390Y-86239286D01*
X155233390Y-86239286D02*
X155042914Y-86286905D01*
X155042914Y-86286905D02*
X154947676Y-86334524D01*
X154947676Y-86334524D02*
X154852438Y-86429762D01*
X154852438Y-86429762D02*
X154804819Y-86572619D01*
X154804819Y-86572619D02*
X154804819Y-86667857D01*
X154804819Y-86667857D02*
X154852438Y-86810714D01*
X154852438Y-86810714D02*
X154900057Y-86858333D01*
X155804819Y-87810714D02*
X155804819Y-87239286D01*
X155804819Y-87525000D02*
X154804819Y-87525000D01*
X154804819Y-87525000D02*
X154947676Y-87429762D01*
X154947676Y-87429762D02*
X155042914Y-87334524D01*
X155042914Y-87334524D02*
X155090533Y-87239286D01*
X151104819Y-85382143D02*
X151104819Y-85477381D01*
X151104819Y-85477381D02*
X151152438Y-85572619D01*
X151152438Y-85572619D02*
X151200057Y-85620238D01*
X151200057Y-85620238D02*
X151295295Y-85667857D01*
X151295295Y-85667857D02*
X151485771Y-85715476D01*
X151485771Y-85715476D02*
X151723866Y-85715476D01*
X151723866Y-85715476D02*
X151914342Y-85667857D01*
X151914342Y-85667857D02*
X152009580Y-85620238D01*
X152009580Y-85620238D02*
X152057200Y-85572619D01*
X152057200Y-85572619D02*
X152104819Y-85477381D01*
X152104819Y-85477381D02*
X152104819Y-85382143D01*
X152104819Y-85382143D02*
X152057200Y-85286905D01*
X152057200Y-85286905D02*
X152009580Y-85239286D01*
X152009580Y-85239286D02*
X151914342Y-85191667D01*
X151914342Y-85191667D02*
X151723866Y-85144048D01*
X151723866Y-85144048D02*
X151485771Y-85144048D01*
X151485771Y-85144048D02*
X151295295Y-85191667D01*
X151295295Y-85191667D02*
X151200057Y-85239286D01*
X151200057Y-85239286D02*
X151152438Y-85286905D01*
X151152438Y-85286905D02*
X151104819Y-85382143D01*
X152009580Y-86144048D02*
X152057200Y-86191667D01*
X152057200Y-86191667D02*
X152104819Y-86144048D01*
X152104819Y-86144048D02*
X152057200Y-86096429D01*
X152057200Y-86096429D02*
X152009580Y-86144048D01*
X152009580Y-86144048D02*
X152104819Y-86144048D01*
X152104819Y-87144047D02*
X152104819Y-86572619D01*
X152104819Y-86858333D02*
X151104819Y-86858333D01*
X151104819Y-86858333D02*
X151247676Y-86763095D01*
X151247676Y-86763095D02*
X151342914Y-86667857D01*
X151342914Y-86667857D02*
X151390533Y-86572619D01*
X151438152Y-88001190D02*
X152104819Y-88001190D01*
X151438152Y-87572619D02*
X151961961Y-87572619D01*
X151961961Y-87572619D02*
X152057200Y-87620238D01*
X152057200Y-87620238D02*
X152104819Y-87715476D01*
X152104819Y-87715476D02*
X152104819Y-87858333D01*
X152104819Y-87858333D02*
X152057200Y-87953571D01*
X152057200Y-87953571D02*
X152009580Y-88001190D01*
X151581009Y-88810714D02*
X151581009Y-88477381D01*
X152104819Y-88477381D02*
X151104819Y-88477381D01*
X151104819Y-88477381D02*
X151104819Y-88953571D01*
D11*
X152590000Y-93686252D02*
X152590000Y-92263748D01*
X154410000Y-93686252D02*
X154410000Y-92263748D01*
X152590000Y-86313748D02*
X152590000Y-87736252D01*
X154410000Y-86313748D02*
X154410000Y-87736252D01*
%LPC*%
D12*
X134450000Y-77900000D03*
X134450000Y-75360000D03*
X134450000Y-72820000D03*
D13*
X127200000Y-87000000D03*
X127200000Y-93000000D03*
X143200000Y-93000000D03*
D14*
X143200000Y-90000000D03*
D13*
X143200000Y-87000000D03*
D15*
X152500000Y-78621500D03*
X155000000Y-78621500D03*
X157500000Y-78621500D03*
D16*
X180000000Y-59000000D03*
D17*
X161300000Y-94400000D03*
X161300000Y-100400000D03*
D13*
X181300000Y-100400000D03*
X181300000Y-94400000D03*
D12*
X132700000Y-105550000D03*
X132700000Y-103010000D03*
X132700000Y-100470000D03*
D17*
X161300000Y-79600000D03*
X161300000Y-85600000D03*
D13*
X181300000Y-85600000D03*
X181300000Y-79600000D03*
D16*
X120500000Y-59000000D03*
X180000000Y-142000000D03*
D18*
X172200000Y-66000000D03*
X172200000Y-71080000D03*
X177280000Y-66000000D03*
X177280000Y-71080000D03*
D19*
X174840000Y-68465000D03*
D15*
X157500000Y-101837500D03*
X155000000Y-101837500D03*
X152500000Y-101837500D03*
D20*
X123600000Y-127800000D03*
D21*
X123600000Y-132800000D03*
D18*
X117950000Y-84500000D03*
X117950000Y-89580000D03*
X123030000Y-84500000D03*
X123030000Y-89580000D03*
D19*
X120590000Y-86965000D03*
D17*
X120900000Y-117500000D03*
X120900000Y-120000000D03*
D16*
X120500000Y-142000000D03*
X143000000Y-118000000D03*
D13*
X150000000Y-87000000D03*
D14*
X150000000Y-90000000D03*
D13*
X150000000Y-93000000D03*
D22*
X153500000Y-91500000D03*
X153500000Y-94450000D03*
D23*
X153500000Y-88500000D03*
X153500000Y-85550000D03*
%LPD*%
M02*
