G04 #@! TF.GenerationSoftware,KiCad,Pcbnew,9.0.1*
G04 #@! TF.CreationDate,2025-05-04T20:25:12-04:00*
G04 #@! TF.ProjectId,t41_2_power_amplifier,7434315f-325f-4706-9f77-65725f616d70,1.5*
G04 #@! TF.SameCoordinates,Original*
G04 #@! TF.FileFunction,Copper,L2,Bot*
G04 #@! TF.FilePolarity,Positive*
%FSLAX46Y46*%
G04 Gerber Fmt 4.6, Leading zero omitted, Abs format (unit mm)*
G04 Created by KiCad (PCBNEW 9.0.1) date 2025-05-04 20:25:12*
%MOMM*%
%LPD*%
G01*
G04 APERTURE LIST*
G04 Aperture macros list*
%AMRoundRect*
0 Rectangle with rounded corners*
0 $1 Rounding radius*
0 $2 $3 $4 $5 $6 $7 $8 $9 X,Y pos of 4 corners*
0 Add a 4 corners polygon primitive as box body*
4,1,4,$2,$3,$4,$5,$6,$7,$8,$9,$2,$3,0*
0 Add four circle primitives for the rounded corners*
1,1,$1+$1,$2,$3*
1,1,$1+$1,$4,$5*
1,1,$1+$1,$6,$7*
1,1,$1+$1,$8,$9*
0 Add four rect primitives between the rounded corners*
20,1,$1+$1,$2,$3,$4,$5,0*
20,1,$1+$1,$4,$5,$6,$7,0*
20,1,$1+$1,$6,$7,$8,$9,0*
20,1,$1+$1,$8,$9,$2,$3,0*%
G04 Aperture macros list end*
G04 #@! TA.AperFunction,ComponentPad*
%ADD10C,1.440000*%
G04 #@! TD*
G04 #@! TA.AperFunction,ComponentPad*
%ADD11C,2.000000*%
G04 #@! TD*
G04 #@! TA.AperFunction,ComponentPad*
%ADD12C,2.200000*%
G04 #@! TD*
G04 #@! TA.AperFunction,ComponentPad*
%ADD13C,1.905000*%
G04 #@! TD*
G04 #@! TA.AperFunction,ComponentPad*
%ADD14C,7.500000*%
G04 #@! TD*
G04 #@! TA.AperFunction,ComponentPad*
%ADD15C,2.600000*%
G04 #@! TD*
G04 #@! TA.AperFunction,ComponentPad*
%ADD16C,2.500000*%
G04 #@! TD*
G04 #@! TA.AperFunction,ComponentPad*
%ADD17RoundRect,0.250001X-0.949999X0.949999X-0.949999X-0.949999X0.949999X-0.949999X0.949999X0.949999X0*%
G04 #@! TD*
G04 #@! TA.AperFunction,ComponentPad*
%ADD18C,2.400000*%
G04 #@! TD*
G04 #@! TA.AperFunction,ComponentPad*
%ADD19C,2.100000*%
G04 #@! TD*
G04 #@! TA.AperFunction,SMDPad,CuDef*
%ADD20RoundRect,0.250000X-0.650000X0.325000X-0.650000X-0.325000X0.650000X-0.325000X0.650000X0.325000X0*%
G04 #@! TD*
G04 #@! TA.AperFunction,SMDPad,CuDef*
%ADD21RoundRect,0.250000X0.650000X-0.325000X0.650000X0.325000X-0.650000X0.325000X-0.650000X-0.325000X0*%
G04 #@! TD*
G04 #@! TA.AperFunction,ViaPad*
%ADD22C,1.000000*%
G04 #@! TD*
G04 #@! TA.AperFunction,Conductor*
%ADD23C,1.500000*%
G04 #@! TD*
G04 #@! TA.AperFunction,Conductor*
%ADD24C,1.000000*%
G04 #@! TD*
G04 #@! TA.AperFunction,Conductor*
%ADD25C,0.250000*%
G04 #@! TD*
G04 APERTURE END LIST*
D10*
X134450000Y-77900000D03*
X134450000Y-75360000D03*
X134450000Y-72820000D03*
D11*
X127200000Y-87000000D03*
X127200000Y-93000000D03*
X143200000Y-93000000D03*
D12*
X143200000Y-90000000D03*
D11*
X143200000Y-87000000D03*
D13*
X154000000Y-78621500D03*
X156500000Y-78621500D03*
X159000000Y-78621500D03*
D14*
X180000000Y-59000000D03*
D11*
X162700000Y-94400000D03*
X162700000Y-100400000D03*
X182700000Y-100400000D03*
X182700000Y-94400000D03*
D10*
X132700000Y-105550000D03*
X132700000Y-103010000D03*
X132700000Y-100470000D03*
D11*
X162700000Y-79600000D03*
X162700000Y-85600000D03*
X182700000Y-85600000D03*
X182700000Y-79600000D03*
D14*
X120000000Y-59000000D03*
X180000000Y-142000000D03*
D15*
X173600000Y-66000000D03*
X173600000Y-71080000D03*
X178680000Y-66000000D03*
X178680000Y-71080000D03*
D16*
X176240000Y-68465000D03*
D13*
X159000000Y-101837500D03*
X156500000Y-101837500D03*
X154000000Y-101837500D03*
D17*
X123600000Y-127800000D03*
D18*
X123600000Y-132800000D03*
D15*
X117950000Y-84500000D03*
X117950000Y-89580000D03*
X123030000Y-84500000D03*
X123030000Y-89580000D03*
D16*
X120590000Y-86965000D03*
D19*
X120900000Y-117500000D03*
X120900000Y-120000000D03*
D14*
X120000000Y-142000000D03*
D11*
X151000000Y-87000000D03*
D12*
X151000000Y-90000000D03*
D11*
X151000000Y-93000000D03*
D20*
X154600000Y-91500000D03*
X154600000Y-94450000D03*
D21*
X154650000Y-88500000D03*
X154650000Y-85550000D03*
D22*
X163800000Y-90000000D03*
X166000000Y-90000000D03*
X164900000Y-90000000D03*
X162700000Y-90000000D03*
X164600000Y-99300000D03*
X151100000Y-122000000D03*
X151700000Y-84850000D03*
X155550000Y-100000000D03*
X161050000Y-78300000D03*
X145100000Y-79300000D03*
X164500000Y-114000000D03*
X155150000Y-107000000D03*
X182600000Y-91500000D03*
X149350000Y-100300000D03*
X169400000Y-118300000D03*
X154600000Y-81600000D03*
X150000000Y-82950000D03*
X133100000Y-116300000D03*
X157450000Y-80400000D03*
X163500000Y-65800000D03*
X163750000Y-134100000D03*
X164300000Y-81000000D03*
X182700000Y-76800000D03*
X149300000Y-65850000D03*
X137000000Y-125800000D03*
X182700000Y-98000000D03*
X164500000Y-105300000D03*
X159250000Y-99750000D03*
X156500000Y-76500000D03*
X153000000Y-97800000D03*
X151900000Y-101900000D03*
X151200000Y-105900000D03*
X138500000Y-122200000D03*
X155500000Y-80350000D03*
X153000000Y-76800000D03*
X164600000Y-91900000D03*
X134250000Y-104350000D03*
X141400000Y-79900000D03*
X133150000Y-88650000D03*
X160850000Y-103300000D03*
X180400000Y-116300000D03*
X174600000Y-134800000D03*
X156450000Y-80950000D03*
X164300000Y-96000000D03*
X143200000Y-68300000D03*
X156900000Y-85400000D03*
X161200000Y-87100000D03*
X156400000Y-103850000D03*
X149600000Y-76000000D03*
X152450000Y-94750000D03*
X168900000Y-90500000D03*
X157850000Y-100150000D03*
X148700000Y-90000000D03*
X156150000Y-137300000D03*
X152050000Y-77950000D03*
X164200000Y-84100000D03*
X141750000Y-100700000D03*
X133200000Y-82100000D03*
X133600000Y-120700000D03*
X151500000Y-130250000D03*
X160150000Y-133200000D03*
X160550000Y-100500000D03*
X159100000Y-105850000D03*
X178100000Y-81500000D03*
X154650000Y-96200000D03*
X152300000Y-99800000D03*
X145300000Y-82750000D03*
X145500000Y-125700000D03*
X161100000Y-92800000D03*
X140300000Y-107600000D03*
X164600000Y-88100000D03*
X170200000Y-134800000D03*
X182700000Y-102800000D03*
X156750000Y-99800000D03*
X160700000Y-95600000D03*
X138400000Y-119300000D03*
X152150000Y-133200000D03*
X155200000Y-103550000D03*
X163900000Y-130400000D03*
X160900000Y-84400000D03*
X157200000Y-98600000D03*
X159600000Y-88100000D03*
X182700000Y-83200000D03*
X152050000Y-79400000D03*
X168200000Y-129800000D03*
X160450000Y-77050000D03*
X135700000Y-88650000D03*
X129000000Y-97900000D03*
X153200000Y-56000000D03*
X159500000Y-91800000D03*
X160000000Y-56100000D03*
X156900000Y-94600000D03*
X169000000Y-105300000D03*
X136000000Y-76800000D03*
X155250000Y-76950000D03*
X164800000Y-123700000D03*
X131000000Y-106500000D03*
X142800000Y-122400000D03*
X149100000Y-103800000D03*
X182700000Y-88000000D03*
X168900000Y-96600000D03*
X157750000Y-76950000D03*
X154650000Y-83700000D03*
X141250000Y-97300000D03*
X167400000Y-88400000D03*
X170600000Y-113000000D03*
X144800000Y-115400000D03*
X169100000Y-114200000D03*
X157400000Y-82850000D03*
X131295000Y-117500000D03*
X143300000Y-120950000D03*
D23*
X163650000Y-90000000D02*
X164800000Y-90000000D01*
D24*
X154650000Y-88500000D02*
X154650000Y-91500000D01*
D23*
X154250000Y-90000000D02*
X163650000Y-90000000D01*
X164800000Y-90000000D02*
X166000000Y-90000000D01*
X151000000Y-90000000D02*
X154250000Y-90000000D01*
D25*
X135707500Y-120950000D02*
X143300000Y-120950000D01*
X132257500Y-117500000D02*
X135707500Y-120950000D01*
X131295000Y-117500000D02*
X132257500Y-117500000D01*
D23*
X176240000Y-85540000D02*
X177100000Y-86400000D01*
X179100000Y-83200000D02*
X182700000Y-79600000D01*
X176240000Y-68465000D02*
X176240000Y-85540000D01*
X179100000Y-86400000D02*
X179100000Y-83200000D01*
X177100000Y-86400000D02*
X179100000Y-86400000D01*
X182700000Y-94400000D02*
X179100000Y-90800000D01*
X179100000Y-90800000D02*
X179100000Y-86400000D01*
G04 #@! TA.AperFunction,Conductor*
G36*
X185442539Y-54520185D02*
G01*
X185488294Y-54572989D01*
X185499500Y-54624500D01*
X185499500Y-146375500D01*
X185479815Y-146442539D01*
X185427011Y-146488294D01*
X185375500Y-146499500D01*
X115624500Y-146499500D01*
X115557461Y-146479815D01*
X115511706Y-146427011D01*
X115500500Y-146375500D01*
X115500500Y-141814437D01*
X115750000Y-141814437D01*
X115750000Y-142185562D01*
X115782345Y-142555267D01*
X115782345Y-142555271D01*
X115846787Y-142920735D01*
X115846791Y-142920752D01*
X115942837Y-143279206D01*
X116069775Y-143627963D01*
X116226607Y-143964292D01*
X116226615Y-143964307D01*
X116412166Y-144285690D01*
X116412175Y-144285705D01*
X116625040Y-144589707D01*
X116822005Y-144824439D01*
X116822006Y-144824440D01*
X118313098Y-143333348D01*
X118380076Y-143420635D01*
X118579365Y-143619924D01*
X118666650Y-143686900D01*
X117175558Y-145177992D01*
X117175559Y-145177993D01*
X117410292Y-145374959D01*
X117714294Y-145587824D01*
X117714309Y-145587833D01*
X118035692Y-145773384D01*
X118035707Y-145773392D01*
X118372036Y-145930224D01*
X118720793Y-146057162D01*
X119079247Y-146153208D01*
X119079264Y-146153212D01*
X119444730Y-146217654D01*
X119814437Y-146249999D01*
X119814440Y-146250000D01*
X120185560Y-146250000D01*
X120185562Y-146249999D01*
X120555267Y-146217654D01*
X120555271Y-146217654D01*
X120920735Y-146153212D01*
X120920752Y-146153208D01*
X121279206Y-146057162D01*
X121627963Y-145930224D01*
X121964292Y-145773392D01*
X121964307Y-145773384D01*
X122285690Y-145587833D01*
X122285705Y-145587824D01*
X122589700Y-145374964D01*
X122824439Y-145177993D01*
X122824440Y-145177992D01*
X121333348Y-143686901D01*
X121420635Y-143619924D01*
X121619924Y-143420635D01*
X121686900Y-143333348D01*
X123177992Y-144824440D01*
X123177993Y-144824439D01*
X123374964Y-144589700D01*
X123587824Y-144285705D01*
X123587833Y-144285690D01*
X123773384Y-143964307D01*
X123773392Y-143964292D01*
X123930224Y-143627963D01*
X124057162Y-143279206D01*
X124153208Y-142920752D01*
X124153212Y-142920735D01*
X124217654Y-142555271D01*
X124217654Y-142555267D01*
X124249999Y-142185562D01*
X124250000Y-142185560D01*
X124250000Y-141814440D01*
X124249999Y-141814437D01*
X175750000Y-141814437D01*
X175750000Y-142185562D01*
X175782345Y-142555267D01*
X175782345Y-142555271D01*
X175846787Y-142920735D01*
X175846791Y-142920752D01*
X175942837Y-143279206D01*
X176069775Y-143627963D01*
X176226607Y-143964292D01*
X176226615Y-143964307D01*
X176412166Y-144285690D01*
X176412175Y-144285705D01*
X176625040Y-144589707D01*
X176822005Y-144824439D01*
X176822006Y-144824440D01*
X178313098Y-143333348D01*
X178380076Y-143420635D01*
X178579365Y-143619924D01*
X178666650Y-143686900D01*
X177175558Y-145177992D01*
X177175559Y-145177993D01*
X177410292Y-145374959D01*
X177714294Y-145587824D01*
X177714309Y-145587833D01*
X178035692Y-145773384D01*
X178035707Y-145773392D01*
X178372036Y-145930224D01*
X178720793Y-146057162D01*
X179079247Y-146153208D01*
X179079264Y-146153212D01*
X179444730Y-146217654D01*
X179814437Y-146249999D01*
X179814440Y-146250000D01*
X180185560Y-146250000D01*
X180185562Y-146249999D01*
X180555267Y-146217654D01*
X180555271Y-146217654D01*
X180920735Y-146153212D01*
X180920752Y-146153208D01*
X181279206Y-146057162D01*
X181627963Y-145930224D01*
X181964292Y-145773392D01*
X181964307Y-145773384D01*
X182285690Y-145587833D01*
X182285705Y-145587824D01*
X182589700Y-145374964D01*
X182824439Y-145177993D01*
X182824440Y-145177992D01*
X181333348Y-143686901D01*
X181420635Y-143619924D01*
X181619924Y-143420635D01*
X181686900Y-143333348D01*
X183177992Y-144824440D01*
X183177993Y-144824439D01*
X183374964Y-144589700D01*
X183587824Y-144285705D01*
X183587833Y-144285690D01*
X183773384Y-143964307D01*
X183773392Y-143964292D01*
X183930224Y-143627963D01*
X184057162Y-143279206D01*
X184153208Y-142920752D01*
X184153212Y-142920735D01*
X184217654Y-142555271D01*
X184217654Y-142555267D01*
X184249999Y-142185562D01*
X184250000Y-142185560D01*
X184250000Y-141814440D01*
X184249999Y-141814437D01*
X184217654Y-141444732D01*
X184217654Y-141444728D01*
X184153212Y-141079264D01*
X184153208Y-141079247D01*
X184057162Y-140720793D01*
X183930224Y-140372036D01*
X183773392Y-140035707D01*
X183773384Y-140035692D01*
X183587833Y-139714309D01*
X183587824Y-139714294D01*
X183374959Y-139410292D01*
X183177993Y-139175559D01*
X183177992Y-139175558D01*
X181686900Y-140666650D01*
X181619924Y-140579365D01*
X181420635Y-140380076D01*
X181333347Y-140313098D01*
X182824440Y-138822006D01*
X182824439Y-138822005D01*
X182589707Y-138625040D01*
X182285705Y-138412175D01*
X182285690Y-138412166D01*
X181964307Y-138226615D01*
X181964292Y-138226607D01*
X181627963Y-138069775D01*
X181279206Y-137942837D01*
X180920752Y-137846791D01*
X180920735Y-137846787D01*
X180555269Y-137782345D01*
X180185562Y-137750000D01*
X179814437Y-137750000D01*
X179444732Y-137782345D01*
X179444728Y-137782345D01*
X179079264Y-137846787D01*
X179079247Y-137846791D01*
X178720793Y-137942837D01*
X178372036Y-138069775D01*
X178035707Y-138226607D01*
X178035692Y-138226615D01*
X177714309Y-138412166D01*
X177714294Y-138412175D01*
X177410292Y-138625040D01*
X177175559Y-138822005D01*
X177175558Y-138822006D01*
X178666651Y-140313098D01*
X178579365Y-140380076D01*
X178380076Y-140579365D01*
X178313098Y-140666651D01*
X176822006Y-139175558D01*
X176822005Y-139175559D01*
X176625040Y-139410292D01*
X176412175Y-139714294D01*
X176412166Y-139714309D01*
X176226615Y-140035692D01*
X176226607Y-140035707D01*
X176069775Y-140372036D01*
X175942837Y-140720793D01*
X175846791Y-141079247D01*
X175846787Y-141079264D01*
X175782345Y-141444728D01*
X175782345Y-141444732D01*
X175750000Y-141814437D01*
X124249999Y-141814437D01*
X124217654Y-141444732D01*
X124217654Y-141444728D01*
X124153212Y-141079264D01*
X124153208Y-141079247D01*
X124057162Y-140720793D01*
X123930224Y-140372036D01*
X123773392Y-140035707D01*
X123773384Y-140035692D01*
X123587833Y-139714309D01*
X123587824Y-139714294D01*
X123374959Y-139410292D01*
X123177993Y-139175559D01*
X123177992Y-139175558D01*
X121686900Y-140666650D01*
X121619924Y-140579365D01*
X121420635Y-140380076D01*
X121333347Y-140313098D01*
X122824440Y-138822006D01*
X122824439Y-138822005D01*
X122589707Y-138625040D01*
X122285705Y-138412175D01*
X122285690Y-138412166D01*
X121964307Y-138226615D01*
X121964292Y-138226607D01*
X121627963Y-138069775D01*
X121279206Y-137942837D01*
X120920752Y-137846791D01*
X120920735Y-137846787D01*
X120555269Y-137782345D01*
X120185562Y-137750000D01*
X119814437Y-137750000D01*
X119444732Y-137782345D01*
X119444728Y-137782345D01*
X119079264Y-137846787D01*
X119079247Y-137846791D01*
X118720793Y-137942837D01*
X118372036Y-138069775D01*
X118035707Y-138226607D01*
X118035692Y-138226615D01*
X117714309Y-138412166D01*
X117714294Y-138412175D01*
X117410292Y-138625040D01*
X117175559Y-138822005D01*
X117175558Y-138822006D01*
X118666651Y-140313098D01*
X118579365Y-140380076D01*
X118380076Y-140579365D01*
X118313098Y-140666651D01*
X116822006Y-139175558D01*
X116822005Y-139175559D01*
X116625040Y-139410292D01*
X116412175Y-139714294D01*
X116412166Y-139714309D01*
X116226615Y-140035692D01*
X116226607Y-140035707D01*
X116069775Y-140372036D01*
X115942837Y-140720793D01*
X115846791Y-141079247D01*
X115846787Y-141079264D01*
X115782345Y-141444728D01*
X115782345Y-141444732D01*
X115750000Y-141814437D01*
X115500500Y-141814437D01*
X115500500Y-132688575D01*
X121900000Y-132688575D01*
X121900000Y-132911424D01*
X121929085Y-133132354D01*
X121929088Y-133132367D01*
X121986763Y-133347618D01*
X122072045Y-133553502D01*
X122072054Y-133553520D01*
X122183464Y-133746491D01*
X122183473Y-133746504D01*
X122234040Y-133812403D01*
X122234043Y-133812403D01*
X123035387Y-133011059D01*
X123040889Y-133031591D01*
X123119881Y-133168408D01*
X123231592Y-133280119D01*
X123368409Y-133359111D01*
X123388940Y-133364612D01*
X122587595Y-134165955D01*
X122587595Y-134165956D01*
X122653507Y-134216533D01*
X122846485Y-134327949D01*
X122846497Y-134327954D01*
X123052381Y-134413236D01*
X123267632Y-134470911D01*
X123267645Y-134470914D01*
X123488575Y-134500000D01*
X123711425Y-134500000D01*
X123932354Y-134470914D01*
X123932367Y-134470911D01*
X124147618Y-134413236D01*
X124353502Y-134327954D01*
X124353514Y-134327949D01*
X124546498Y-134216530D01*
X124612403Y-134165957D01*
X124612404Y-134165956D01*
X123811059Y-133364612D01*
X123831591Y-133359111D01*
X123968408Y-133280119D01*
X124080119Y-133168408D01*
X124159111Y-133031591D01*
X124164612Y-133011059D01*
X124965956Y-133812404D01*
X124965957Y-133812403D01*
X125016530Y-133746498D01*
X125127949Y-133553514D01*
X125127954Y-133553502D01*
X125213236Y-133347618D01*
X125270911Y-133132367D01*
X125270914Y-133132354D01*
X125300000Y-132911424D01*
X125300000Y-132688575D01*
X125270914Y-132467645D01*
X125270911Y-132467632D01*
X125213236Y-132252381D01*
X125127954Y-132046497D01*
X125127949Y-132046485D01*
X125016533Y-131853507D01*
X124965956Y-131787595D01*
X124965955Y-131787595D01*
X124164612Y-132588939D01*
X124159111Y-132568409D01*
X124080119Y-132431592D01*
X123968408Y-132319881D01*
X123831591Y-132240889D01*
X123811058Y-132235387D01*
X124612403Y-131434043D01*
X124612403Y-131434040D01*
X124546504Y-131383473D01*
X124546491Y-131383464D01*
X124353520Y-131272054D01*
X124353502Y-131272045D01*
X124147618Y-131186763D01*
X123932367Y-131129088D01*
X123932354Y-131129085D01*
X123711425Y-131100000D01*
X123488575Y-131100000D01*
X123267645Y-131129085D01*
X123267632Y-131129088D01*
X123052381Y-131186763D01*
X122846497Y-131272045D01*
X122846479Y-131272054D01*
X122653511Y-131383462D01*
X122587595Y-131434042D01*
X123388941Y-132235387D01*
X123368409Y-132240889D01*
X123231592Y-132319881D01*
X123119881Y-132431592D01*
X123040889Y-132568409D01*
X123035387Y-132588940D01*
X122234042Y-131787595D01*
X122183462Y-131853511D01*
X122072054Y-132046479D01*
X122072045Y-132046497D01*
X121986763Y-132252381D01*
X121929088Y-132467632D01*
X121929085Y-132467645D01*
X121900000Y-132688575D01*
X115500500Y-132688575D01*
X115500500Y-126799984D01*
X121899500Y-126799984D01*
X121899500Y-128800015D01*
X121910000Y-128902795D01*
X121910001Y-128902796D01*
X121965186Y-129069335D01*
X121965187Y-129069337D01*
X122057286Y-129218651D01*
X122057289Y-129218655D01*
X122181344Y-129342710D01*
X122181348Y-129342713D01*
X122330662Y-129434812D01*
X122330664Y-129434813D01*
X122330666Y-129434814D01*
X122497203Y-129489999D01*
X122599992Y-129500500D01*
X122599997Y-129500500D01*
X124600003Y-129500500D01*
X124600008Y-129500500D01*
X124702797Y-129489999D01*
X124869334Y-129434814D01*
X125018655Y-129342711D01*
X125142711Y-129218655D01*
X125234814Y-129069334D01*
X125289999Y-128902797D01*
X125300500Y-128800008D01*
X125300500Y-126799992D01*
X125289999Y-126697203D01*
X125234814Y-126530666D01*
X125142711Y-126381345D01*
X125018655Y-126257289D01*
X125018651Y-126257286D01*
X124869337Y-126165187D01*
X124869335Y-126165186D01*
X124786065Y-126137593D01*
X124702797Y-126110001D01*
X124702795Y-126110000D01*
X124600015Y-126099500D01*
X124600008Y-126099500D01*
X122599992Y-126099500D01*
X122599984Y-126099500D01*
X122497204Y-126110000D01*
X122497203Y-126110001D01*
X122330664Y-126165186D01*
X122330662Y-126165187D01*
X122181348Y-126257286D01*
X122181344Y-126257289D01*
X122057289Y-126381344D01*
X122057286Y-126381348D01*
X121965187Y-126530662D01*
X121965186Y-126530664D01*
X121910001Y-126697203D01*
X121910000Y-126697204D01*
X121899500Y-126799984D01*
X115500500Y-126799984D01*
X115500500Y-117377973D01*
X119349500Y-117377973D01*
X119349500Y-117622026D01*
X119368262Y-117740487D01*
X119387679Y-117863076D01*
X119463096Y-118095185D01*
X119555807Y-118277142D01*
X119573896Y-118312642D01*
X119717339Y-118510076D01*
X119717343Y-118510081D01*
X119717345Y-118510083D01*
X119889917Y-118682655D01*
X120051308Y-118799912D01*
X120066097Y-118812544D01*
X120729765Y-119476212D01*
X120687708Y-119487482D01*
X120562292Y-119559890D01*
X120459890Y-119662292D01*
X120387482Y-119787708D01*
X120376212Y-119829765D01*
X119641544Y-119095097D01*
X119574319Y-119187626D01*
X119463560Y-119405001D01*
X119388165Y-119637040D01*
X119350000Y-119878006D01*
X119350000Y-120121993D01*
X119388165Y-120362959D01*
X119463560Y-120594998D01*
X119574323Y-120812380D01*
X119641543Y-120904901D01*
X119641544Y-120904902D01*
X120376212Y-120170234D01*
X120387482Y-120212292D01*
X120459890Y-120337708D01*
X120562292Y-120440110D01*
X120687708Y-120512518D01*
X120729765Y-120523787D01*
X119995096Y-121258454D01*
X119995097Y-121258456D01*
X120087619Y-121325676D01*
X120305001Y-121436439D01*
X120537040Y-121511834D01*
X120778007Y-121550000D01*
X121021993Y-121550000D01*
X121262959Y-121511834D01*
X121494998Y-121436439D01*
X121712377Y-121325678D01*
X121804901Y-121258454D01*
X121804902Y-121258454D01*
X121070234Y-120523787D01*
X121112292Y-120512518D01*
X121237708Y-120440110D01*
X121340110Y-120337708D01*
X121412518Y-120212292D01*
X121423787Y-120170234D01*
X122158454Y-120904902D01*
X122158454Y-120904901D01*
X122225678Y-120812377D01*
X122336439Y-120594998D01*
X122411834Y-120362959D01*
X122450000Y-120121993D01*
X122450000Y-119878006D01*
X122411834Y-119637040D01*
X122336439Y-119405001D01*
X122225676Y-119187619D01*
X122158456Y-119095097D01*
X122158454Y-119095096D01*
X121423787Y-119829764D01*
X121412518Y-119787708D01*
X121340110Y-119662292D01*
X121237708Y-119559890D01*
X121112292Y-119487482D01*
X121070232Y-119476212D01*
X121733901Y-118812544D01*
X121748684Y-118799917D01*
X121910083Y-118682655D01*
X122082655Y-118510083D01*
X122226106Y-118312639D01*
X122336904Y-118095185D01*
X122412321Y-117863076D01*
X122450500Y-117622027D01*
X122450500Y-117598543D01*
X130294499Y-117598543D01*
X130332947Y-117791829D01*
X130332950Y-117791839D01*
X130408364Y-117973907D01*
X130408371Y-117973920D01*
X130517860Y-118137781D01*
X130517863Y-118137785D01*
X130657214Y-118277136D01*
X130657218Y-118277139D01*
X130821079Y-118386628D01*
X130821092Y-118386635D01*
X131003160Y-118462049D01*
X131003165Y-118462051D01*
X131003169Y-118462051D01*
X131003170Y-118462052D01*
X131196456Y-118500500D01*
X131196459Y-118500500D01*
X131393543Y-118500500D01*
X131523582Y-118474632D01*
X131586835Y-118462051D01*
X131768914Y-118386632D01*
X131932782Y-118277139D01*
X131953735Y-118256184D01*
X132015055Y-118222701D01*
X132084746Y-118227684D01*
X132129096Y-118256186D01*
X135221639Y-121348729D01*
X135221642Y-121348733D01*
X135308767Y-121435858D01*
X135385690Y-121487256D01*
X135391490Y-121491132D01*
X135391493Y-121491134D01*
X135411210Y-121504309D01*
X135411212Y-121504310D01*
X135411215Y-121504312D01*
X135477896Y-121531931D01*
X135477898Y-121531933D01*
X135518140Y-121548601D01*
X135525048Y-121551463D01*
X135585471Y-121563481D01*
X135645893Y-121575500D01*
X135645894Y-121575500D01*
X142459217Y-121575500D01*
X142526256Y-121595185D01*
X142546893Y-121611814D01*
X142639958Y-121704879D01*
X142662219Y-121727140D01*
X142826079Y-121836628D01*
X142826092Y-121836635D01*
X143008160Y-121912049D01*
X143008165Y-121912051D01*
X143008169Y-121912051D01*
X143008170Y-121912052D01*
X143201456Y-121950500D01*
X143201459Y-121950500D01*
X143398543Y-121950500D01*
X143528582Y-121924632D01*
X143591835Y-121912051D01*
X143773914Y-121836632D01*
X143937782Y-121727139D01*
X144077139Y-121587782D01*
X144186632Y-121423914D01*
X144262051Y-121241835D01*
X144294789Y-121077251D01*
X144300500Y-121048543D01*
X144300500Y-120851456D01*
X144262052Y-120658170D01*
X144262051Y-120658169D01*
X144262051Y-120658165D01*
X144201723Y-120512518D01*
X144186635Y-120476092D01*
X144186628Y-120476079D01*
X144077139Y-120312218D01*
X144077136Y-120312214D01*
X143937785Y-120172863D01*
X143937781Y-120172860D01*
X143773920Y-120063371D01*
X143773907Y-120063364D01*
X143591839Y-119987950D01*
X143591829Y-119987947D01*
X143398543Y-119949500D01*
X143398541Y-119949500D01*
X143201459Y-119949500D01*
X143201457Y-119949500D01*
X143008170Y-119987947D01*
X143008160Y-119987950D01*
X142826092Y-120063364D01*
X142826079Y-120063371D01*
X142662219Y-120172859D01*
X142622787Y-120212292D01*
X142546896Y-120288182D01*
X142485576Y-120321666D01*
X142459217Y-120324500D01*
X136017952Y-120324500D01*
X135950913Y-120304815D01*
X135930271Y-120288181D01*
X133813469Y-118171379D01*
X150999500Y-118171379D01*
X150999500Y-118603620D01*
X151033412Y-119034513D01*
X151033412Y-119034514D01*
X151057662Y-119187619D01*
X151101028Y-119461422D01*
X151201930Y-119881710D01*
X151236449Y-119987947D01*
X151335494Y-120292780D01*
X151426513Y-120512518D01*
X151500904Y-120692115D01*
X151609325Y-120904902D01*
X151697136Y-121077240D01*
X151697142Y-121077251D01*
X151922966Y-121445762D01*
X151922971Y-121445769D01*
X151922973Y-121445772D01*
X151998699Y-121550000D01*
X152177025Y-121795446D01*
X152177035Y-121795460D01*
X152457737Y-122124117D01*
X152457743Y-122124124D01*
X152763376Y-122429757D01*
X152763382Y-122429762D01*
X153092039Y-122710464D01*
X153092046Y-122710469D01*
X153441728Y-122964527D01*
X153441732Y-122964529D01*
X153441737Y-122964533D01*
X153810248Y-123190357D01*
X153810254Y-123190360D01*
X153810265Y-123190367D01*
X154195385Y-123386596D01*
X154594714Y-123552003D01*
X154594719Y-123552005D01*
X154699240Y-123585965D01*
X155005790Y-123685570D01*
X155426078Y-123786472D01*
X155852987Y-123854088D01*
X156283885Y-123888000D01*
X156283893Y-123888000D01*
X156716107Y-123888000D01*
X156716115Y-123888000D01*
X157147013Y-123854088D01*
X157573922Y-123786472D01*
X157994210Y-123685570D01*
X158405286Y-123552003D01*
X158804615Y-123386596D01*
X159189735Y-123190367D01*
X159558272Y-122964527D01*
X159907954Y-122710469D01*
X160236624Y-122429757D01*
X160542257Y-122124124D01*
X160822969Y-121795454D01*
X161077027Y-121445772D01*
X161302867Y-121077235D01*
X161499096Y-120692115D01*
X161664503Y-120292786D01*
X161798070Y-119881710D01*
X161898972Y-119461422D01*
X161966588Y-119034513D01*
X162000500Y-118603615D01*
X162000500Y-118171385D01*
X161966588Y-117740487D01*
X161898972Y-117313578D01*
X161798070Y-116893290D01*
X161682613Y-116537950D01*
X161664505Y-116482219D01*
X161596211Y-116317343D01*
X161499096Y-116082885D01*
X161302867Y-115697765D01*
X161077027Y-115329228D01*
X160822969Y-114979546D01*
X160822964Y-114979539D01*
X160542262Y-114650882D01*
X160542257Y-114650876D01*
X160236624Y-114345243D01*
X160102283Y-114230504D01*
X159907960Y-114064535D01*
X159907946Y-114064525D01*
X159558273Y-113810474D01*
X159558262Y-113810466D01*
X159189751Y-113584642D01*
X159189740Y-113584636D01*
X159189739Y-113584635D01*
X159189735Y-113584633D01*
X158804615Y-113388404D01*
X158676677Y-113335410D01*
X158405280Y-113222994D01*
X158112796Y-113127961D01*
X157994210Y-113089430D01*
X157573922Y-112988528D01*
X157147013Y-112920912D01*
X156716120Y-112887000D01*
X156716115Y-112887000D01*
X156283885Y-112887000D01*
X156283879Y-112887000D01*
X155852986Y-112920912D01*
X155852985Y-112920912D01*
X155426083Y-112988527D01*
X155426080Y-112988527D01*
X155426078Y-112988528D01*
X155275562Y-113024663D01*
X155005801Y-113089427D01*
X155005795Y-113089428D01*
X155005790Y-113089430D01*
X155005778Y-113089434D01*
X154594719Y-113222994D01*
X154195387Y-113388403D01*
X153810259Y-113584636D01*
X153810248Y-113584642D01*
X153441737Y-113810466D01*
X153441726Y-113810474D01*
X153092053Y-114064525D01*
X153092039Y-114064535D01*
X152763382Y-114345237D01*
X152763368Y-114345250D01*
X152457750Y-114650868D01*
X152457737Y-114650882D01*
X152177035Y-114979539D01*
X152177025Y-114979553D01*
X151922974Y-115329226D01*
X151922966Y-115329237D01*
X151697142Y-115697748D01*
X151697136Y-115697759D01*
X151500903Y-116082887D01*
X151335494Y-116482219D01*
X151257305Y-116722863D01*
X151204347Y-116885853D01*
X151201934Y-116893278D01*
X151201927Y-116893301D01*
X151101027Y-117313583D01*
X151033412Y-117740485D01*
X151033412Y-117740486D01*
X150999500Y-118171379D01*
X133813469Y-118171379D01*
X132750650Y-117108560D01*
X132743360Y-117101270D01*
X132743358Y-117101267D01*
X132656233Y-117014142D01*
X132605009Y-116979915D01*
X132553786Y-116945688D01*
X132553783Y-116945686D01*
X132553782Y-116945686D01*
X132553781Y-116945685D01*
X132463238Y-116908182D01*
X132463234Y-116908181D01*
X132455108Y-116904815D01*
X132439952Y-116898537D01*
X132379529Y-116886518D01*
X132366289Y-116883884D01*
X132319110Y-116874500D01*
X132319107Y-116874500D01*
X132319106Y-116874500D01*
X132135783Y-116874500D01*
X132068744Y-116854815D01*
X132048106Y-116838185D01*
X131932782Y-116722861D01*
X131932781Y-116722860D01*
X131932780Y-116722859D01*
X131768920Y-116613371D01*
X131768907Y-116613364D01*
X131586839Y-116537950D01*
X131586829Y-116537947D01*
X131393543Y-116499500D01*
X131393541Y-116499500D01*
X131196459Y-116499500D01*
X131196457Y-116499500D01*
X131003170Y-116537947D01*
X131003160Y-116537950D01*
X130821092Y-116613364D01*
X130821079Y-116613371D01*
X130657218Y-116722860D01*
X130657214Y-116722863D01*
X130517863Y-116862214D01*
X130517860Y-116862218D01*
X130408371Y-117026079D01*
X130408364Y-117026092D01*
X130332950Y-117208160D01*
X130332947Y-117208170D01*
X130294500Y-117401456D01*
X130294500Y-117401459D01*
X130294500Y-117598541D01*
X130294500Y-117598543D01*
X130294499Y-117598543D01*
X122450500Y-117598543D01*
X122450500Y-117377973D01*
X122412321Y-117136924D01*
X122336904Y-116904815D01*
X122226106Y-116687361D01*
X122117553Y-116537950D01*
X122082660Y-116489923D01*
X122082656Y-116489918D01*
X121910081Y-116317343D01*
X121910076Y-116317339D01*
X121712642Y-116173896D01*
X121712641Y-116173895D01*
X121712639Y-116173894D01*
X121495185Y-116063096D01*
X121263076Y-115987679D01*
X121263074Y-115987678D01*
X121263072Y-115987678D01*
X121094769Y-115961021D01*
X121022027Y-115949500D01*
X120777973Y-115949500D01*
X120722093Y-115958350D01*
X120536927Y-115987678D01*
X120304812Y-116063097D01*
X120087357Y-116173896D01*
X119889923Y-116317339D01*
X119889918Y-116317343D01*
X119717343Y-116489918D01*
X119717339Y-116489923D01*
X119573896Y-116687357D01*
X119463097Y-116904812D01*
X119463096Y-116904814D01*
X119463096Y-116904815D01*
X119449816Y-116945686D01*
X119387678Y-117136927D01*
X119349500Y-117377973D01*
X115500500Y-117377973D01*
X115500500Y-102913945D01*
X131479500Y-102913945D01*
X131479500Y-103106054D01*
X131509553Y-103295802D01*
X131568916Y-103478506D01*
X131568918Y-103478509D01*
X131656135Y-103649681D01*
X131769055Y-103805102D01*
X131904898Y-103940945D01*
X132060319Y-104053865D01*
X132231491Y-104141082D01*
X132231493Y-104141083D01*
X132296081Y-104162069D01*
X132353756Y-104201506D01*
X132380955Y-104265865D01*
X132369041Y-104334711D01*
X132321797Y-104386187D01*
X132296081Y-104397931D01*
X132231493Y-104418916D01*
X132060318Y-104506135D01*
X131971645Y-104570560D01*
X131904898Y-104619055D01*
X131904896Y-104619057D01*
X131904895Y-104619057D01*
X131769057Y-104754895D01*
X131769057Y-104754896D01*
X131769055Y-104754898D01*
X131720560Y-104821645D01*
X131656135Y-104910318D01*
X131568916Y-105081493D01*
X131509553Y-105264197D01*
X131479500Y-105453945D01*
X131479500Y-105646054D01*
X131509553Y-105835802D01*
X131568916Y-106018506D01*
X131568918Y-106018509D01*
X131656135Y-106189681D01*
X131769055Y-106345102D01*
X131904898Y-106480945D01*
X132060319Y-106593865D01*
X132231491Y-106681082D01*
X132231493Y-106681083D01*
X132322845Y-106710764D01*
X132414199Y-106740447D01*
X132603945Y-106770500D01*
X132603946Y-106770500D01*
X132796054Y-106770500D01*
X132796055Y-106770500D01*
X132985801Y-106740447D01*
X133168509Y-106681082D01*
X133339681Y-106593865D01*
X133495102Y-106480945D01*
X133630945Y-106345102D01*
X133743865Y-106189681D01*
X133831082Y-106018509D01*
X133890447Y-105835801D01*
X133920500Y-105646055D01*
X133920500Y-105453945D01*
X133890447Y-105264199D01*
X133831082Y-105081491D01*
X133743865Y-104910319D01*
X133630945Y-104754898D01*
X133495102Y-104619055D01*
X133339681Y-104506135D01*
X133168504Y-104418915D01*
X133103919Y-104397931D01*
X133046243Y-104358494D01*
X133019044Y-104294136D01*
X133030958Y-104225289D01*
X133078202Y-104173813D01*
X133103919Y-104162069D01*
X133168504Y-104141084D01*
X133168506Y-104141082D01*
X133168509Y-104141082D01*
X133339681Y-104053865D01*
X133495102Y-103940945D01*
X133630945Y-103805102D01*
X133743865Y-103649681D01*
X133831082Y-103478509D01*
X133890447Y-103295801D01*
X133920500Y-103106055D01*
X133920500Y-102913945D01*
X133890447Y-102724199D01*
X133831082Y-102541491D01*
X133743865Y-102370319D01*
X133630945Y-102214898D01*
X133495102Y-102079055D01*
X133339681Y-101966135D01*
X133168509Y-101878918D01*
X133168508Y-101878917D01*
X133168505Y-101878916D01*
X133103108Y-101857667D01*
X133077072Y-101839864D01*
X133050070Y-101823581D01*
X133048454Y-101820295D01*
X133045432Y-101818229D01*
X133033153Y-101789173D01*
X133019242Y-101760880D01*
X133019659Y-101757243D01*
X133018234Y-101753871D01*
X133023551Y-101723146D01*
X152547000Y-101723146D01*
X152547000Y-101951853D01*
X152582778Y-102177746D01*
X152582778Y-102177749D01*
X152653450Y-102395255D01*
X152653452Y-102395258D01*
X152757283Y-102599038D01*
X152891714Y-102784066D01*
X153053434Y-102945786D01*
X153238462Y-103080217D01*
X153441327Y-103183582D01*
X153442244Y-103184049D01*
X153659751Y-103254721D01*
X153659752Y-103254721D01*
X153659755Y-103254722D01*
X153885646Y-103290500D01*
X153885647Y-103290500D01*
X154114353Y-103290500D01*
X154114354Y-103290500D01*
X154340245Y-103254722D01*
X154340248Y-103254721D01*
X154340249Y-103254721D01*
X154557755Y-103184049D01*
X154557755Y-103184048D01*
X154557758Y-103184048D01*
X154761538Y-103080217D01*
X154946566Y-102945786D01*
X155108286Y-102784066D01*
X155158749Y-102714609D01*
X155162927Y-102709936D01*
X155187488Y-102694682D01*
X155210385Y-102677026D01*
X155217641Y-102675956D01*
X155222282Y-102673074D01*
X155235776Y-102673282D01*
X155265103Y-102668959D01*
X155311348Y-102672598D01*
X155976212Y-102007734D01*
X155987482Y-102049792D01*
X156059890Y-102175208D01*
X156162292Y-102277610D01*
X156287708Y-102350018D01*
X156329765Y-102361287D01*
X155664899Y-103026151D01*
X155738725Y-103079788D01*
X155738731Y-103079792D01*
X155942431Y-103183582D01*
X156159875Y-103254234D01*
X156385687Y-103290000D01*
X156614313Y-103290000D01*
X156840124Y-103254234D01*
X156840125Y-103254234D01*
X157057568Y-103183582D01*
X157261276Y-103079788D01*
X157335098Y-103026151D01*
X156670234Y-102361287D01*
X156712292Y-102350018D01*
X156837708Y-102277610D01*
X156940110Y-102175208D01*
X157012518Y-102049792D01*
X157023787Y-102007735D01*
X157688650Y-102672598D01*
X157734896Y-102668959D01*
X157803273Y-102683323D01*
X157844942Y-102719690D01*
X157891714Y-102784066D01*
X158053434Y-102945786D01*
X158238462Y-103080217D01*
X158441327Y-103183582D01*
X158442244Y-103184049D01*
X158659751Y-103254721D01*
X158659752Y-103254721D01*
X158659755Y-103254722D01*
X158885646Y-103290500D01*
X158885647Y-103290500D01*
X159114353Y-103290500D01*
X159114354Y-103290500D01*
X159340245Y-103254722D01*
X159340248Y-103254721D01*
X159340249Y-103254721D01*
X159557755Y-103184049D01*
X159557755Y-103184048D01*
X159557758Y-103184048D01*
X159761538Y-103080217D01*
X159946566Y-102945786D01*
X160108286Y-102784066D01*
X160242717Y-102599038D01*
X160346548Y-102395258D01*
X160354651Y-102370319D01*
X160417221Y-102177749D01*
X160417221Y-102177748D01*
X160417222Y-102177745D01*
X160453000Y-101951854D01*
X160453000Y-101723146D01*
X160417222Y-101497255D01*
X160417221Y-101497251D01*
X160417221Y-101497250D01*
X160346549Y-101279744D01*
X160341128Y-101269104D01*
X160242717Y-101075962D01*
X160108286Y-100890934D01*
X159946566Y-100729214D01*
X159761538Y-100594783D01*
X159705078Y-100566015D01*
X159557755Y-100490950D01*
X159340248Y-100420278D01*
X159209116Y-100399509D01*
X159114354Y-100384500D01*
X158885646Y-100384500D01*
X158810349Y-100396426D01*
X158659753Y-100420278D01*
X158659750Y-100420278D01*
X158442244Y-100490950D01*
X158238461Y-100594783D01*
X158164051Y-100648846D01*
X158053434Y-100729214D01*
X158053432Y-100729216D01*
X158053431Y-100729216D01*
X157891716Y-100890931D01*
X157891709Y-100890940D01*
X157844943Y-100955307D01*
X157789613Y-100997973D01*
X157734898Y-101006039D01*
X157688651Y-101002399D01*
X157023787Y-101667264D01*
X157012518Y-101625208D01*
X156940110Y-101499792D01*
X156837708Y-101397390D01*
X156712292Y-101324982D01*
X156670233Y-101313712D01*
X157335099Y-100648847D01*
X157261276Y-100595211D01*
X157057568Y-100491417D01*
X156840124Y-100420765D01*
X156614313Y-100385000D01*
X156385687Y-100385000D01*
X156159875Y-100420765D01*
X156159874Y-100420765D01*
X155942431Y-100491417D01*
X155738719Y-100595213D01*
X155664900Y-100648846D01*
X155664899Y-100648847D01*
X156329765Y-101313712D01*
X156287708Y-101324982D01*
X156162292Y-101397390D01*
X156059890Y-101499792D01*
X155987482Y-101625208D01*
X155976212Y-101667265D01*
X155311347Y-101002399D01*
X155265101Y-101006039D01*
X155261146Y-101005208D01*
X155257289Y-101006406D01*
X155227239Y-100998084D01*
X155196724Y-100991674D01*
X155192729Y-100988528D01*
X155189954Y-100987760D01*
X155180016Y-100978519D01*
X155162926Y-100965062D01*
X155158745Y-100960385D01*
X155108286Y-100890934D01*
X154946566Y-100729214D01*
X154761538Y-100594783D01*
X154705078Y-100566015D01*
X154557755Y-100490950D01*
X154340248Y-100420278D01*
X154170826Y-100393444D01*
X154114354Y-100384500D01*
X153885646Y-100384500D01*
X153810349Y-100396426D01*
X153659753Y-100420278D01*
X153659750Y-100420278D01*
X153442244Y-100490950D01*
X153238461Y-100594783D01*
X153164051Y-100648846D01*
X153053434Y-100729214D01*
X153053432Y-100729216D01*
X153053431Y-100729216D01*
X152891716Y-100890931D01*
X152891716Y-100890932D01*
X152891714Y-100890934D01*
X152857285Y-100938321D01*
X152757283Y-101075961D01*
X152653450Y-101279744D01*
X152582778Y-101497250D01*
X152582778Y-101497253D01*
X152547000Y-101723146D01*
X133023551Y-101723146D01*
X133023612Y-101722795D01*
X133027207Y-101691466D01*
X133029524Y-101688631D01*
X133030149Y-101685024D01*
X133051468Y-101661795D01*
X133071435Y-101637377D01*
X133075889Y-101635186D01*
X133077393Y-101633549D01*
X133103108Y-101621805D01*
X133168320Y-101600616D01*
X133339419Y-101513436D01*
X133368646Y-101492201D01*
X133368646Y-101492200D01*
X132746447Y-100870000D01*
X132752661Y-100870000D01*
X132854394Y-100842741D01*
X132945606Y-100790080D01*
X133020080Y-100715606D01*
X133072741Y-100624394D01*
X133100000Y-100522661D01*
X133100000Y-100516446D01*
X133722200Y-101138646D01*
X133722201Y-101138646D01*
X133743436Y-101109419D01*
X133830616Y-100938321D01*
X133889959Y-100755684D01*
X133920000Y-100566015D01*
X133920000Y-100373984D01*
X133905415Y-100281902D01*
X161199500Y-100281902D01*
X161199500Y-100518097D01*
X161236446Y-100751368D01*
X161309433Y-100975996D01*
X161360369Y-101075962D01*
X161416657Y-101186433D01*
X161555483Y-101377510D01*
X161722490Y-101544517D01*
X161913567Y-101683343D01*
X161990996Y-101722795D01*
X162124003Y-101790566D01*
X162124005Y-101790566D01*
X162124008Y-101790568D01*
X162215498Y-101820295D01*
X162348631Y-101863553D01*
X162581903Y-101900500D01*
X162581908Y-101900500D01*
X162818097Y-101900500D01*
X163051368Y-101863553D01*
X163105627Y-101845923D01*
X163275992Y-101790568D01*
X163486433Y-101683343D01*
X163677510Y-101544517D01*
X163844517Y-101377510D01*
X163983343Y-101186433D01*
X164090568Y-100975992D01*
X164163553Y-100751368D01*
X164183664Y-100624394D01*
X164200500Y-100518097D01*
X164200500Y-100281947D01*
X181200000Y-100281947D01*
X181200000Y-100518052D01*
X181236934Y-100751247D01*
X181309897Y-100975802D01*
X181417087Y-101186174D01*
X181477338Y-101269104D01*
X181477340Y-101269105D01*
X182217037Y-100529408D01*
X182234075Y-100592993D01*
X182299901Y-100707007D01*
X182392993Y-100800099D01*
X182507007Y-100865925D01*
X182570590Y-100882962D01*
X181830893Y-101622658D01*
X181913828Y-101682914D01*
X182124197Y-101790102D01*
X182348752Y-101863065D01*
X182348751Y-101863065D01*
X182581948Y-101900000D01*
X182818052Y-101900000D01*
X183051247Y-101863065D01*
X183275802Y-101790102D01*
X183486163Y-101682918D01*
X183486169Y-101682914D01*
X183569104Y-101622658D01*
X183569105Y-101622658D01*
X182829408Y-100882962D01*
X182892993Y-100865925D01*
X183007007Y-100800099D01*
X183100099Y-100707007D01*
X183165925Y-100592993D01*
X183182962Y-100529409D01*
X183922658Y-101269105D01*
X183922658Y-101269104D01*
X183982914Y-101186169D01*
X183982918Y-101186163D01*
X184090102Y-100975802D01*
X184163065Y-100751247D01*
X184200000Y-100518052D01*
X184200000Y-100281947D01*
X184163065Y-100048752D01*
X184090102Y-99824197D01*
X183982914Y-99613828D01*
X183922658Y-99530894D01*
X183922658Y-99530893D01*
X183182962Y-100270590D01*
X183165925Y-100207007D01*
X183100099Y-100092993D01*
X183007007Y-99999901D01*
X182892993Y-99934075D01*
X182829409Y-99917037D01*
X183569105Y-99177340D01*
X183569104Y-99177338D01*
X183486174Y-99117087D01*
X183275802Y-99009897D01*
X183051247Y-98936934D01*
X183051248Y-98936934D01*
X182818052Y-98900000D01*
X182581948Y-98900000D01*
X182348752Y-98936934D01*
X182124197Y-99009897D01*
X181913830Y-99117084D01*
X181830894Y-99177340D01*
X182570591Y-99917037D01*
X182507007Y-99934075D01*
X182392993Y-99999901D01*
X182299901Y-100092993D01*
X182234075Y-100207007D01*
X182217037Y-100270590D01*
X181477340Y-99530894D01*
X181417084Y-99613830D01*
X181309897Y-99824197D01*
X181236934Y-100048752D01*
X181200000Y-100281947D01*
X164200500Y-100281947D01*
X164200500Y-100281902D01*
X164163553Y-100048631D01*
X164115259Y-99900000D01*
X164090568Y-99824008D01*
X164090566Y-99824005D01*
X164090566Y-99824003D01*
X163983477Y-99613830D01*
X163983343Y-99613567D01*
X163844517Y-99422490D01*
X163677510Y-99255483D01*
X163486433Y-99116657D01*
X163275996Y-99009433D01*
X163051368Y-98936446D01*
X162818097Y-98899500D01*
X162818092Y-98899500D01*
X162581908Y-98899500D01*
X162581903Y-98899500D01*
X162348631Y-98936446D01*
X162124003Y-99009433D01*
X161913566Y-99116657D01*
X161830047Y-99177338D01*
X161722490Y-99255483D01*
X161722488Y-99255485D01*
X161722487Y-99255485D01*
X161555485Y-99422487D01*
X161555485Y-99422488D01*
X161555483Y-99422490D01*
X161537096Y-99447798D01*
X161416657Y-99613566D01*
X161309433Y-99824003D01*
X161236446Y-100048631D01*
X161199500Y-100281902D01*
X133905415Y-100281902D01*
X133889959Y-100184315D01*
X133830616Y-100001678D01*
X133743434Y-99830577D01*
X133722201Y-99801352D01*
X133722200Y-99801351D01*
X133100000Y-100423552D01*
X133100000Y-100417339D01*
X133072741Y-100315606D01*
X133020080Y-100224394D01*
X132945606Y-100149920D01*
X132854394Y-100097259D01*
X132752661Y-100070000D01*
X132746447Y-100070000D01*
X133368646Y-99447798D01*
X133339415Y-99426561D01*
X133168321Y-99339383D01*
X132985684Y-99280040D01*
X132796015Y-99250000D01*
X132603985Y-99250000D01*
X132414315Y-99280040D01*
X132231678Y-99339383D01*
X132060578Y-99426564D01*
X132031352Y-99447798D01*
X132031351Y-99447798D01*
X132653554Y-100070000D01*
X132647339Y-100070000D01*
X132545606Y-100097259D01*
X132454394Y-100149920D01*
X132379920Y-100224394D01*
X132327259Y-100315606D01*
X132300000Y-100417339D01*
X132300000Y-100423553D01*
X131677798Y-99801351D01*
X131677798Y-99801352D01*
X131656564Y-99830578D01*
X131569383Y-100001678D01*
X131510040Y-100184315D01*
X131480000Y-100373984D01*
X131480000Y-100566015D01*
X131510040Y-100755684D01*
X131569383Y-100938321D01*
X131656561Y-101109415D01*
X131677798Y-101138646D01*
X132300000Y-100516445D01*
X132300000Y-100522661D01*
X132327259Y-100624394D01*
X132379920Y-100715606D01*
X132454394Y-100790080D01*
X132545606Y-100842741D01*
X132647339Y-100870000D01*
X132653554Y-100870000D01*
X132031351Y-101492200D01*
X132031352Y-101492201D01*
X132060577Y-101513434D01*
X132231680Y-101600616D01*
X132296891Y-101621805D01*
X132354567Y-101661242D01*
X132381765Y-101725601D01*
X132369850Y-101794447D01*
X132322606Y-101845923D01*
X132296892Y-101857667D01*
X132231492Y-101878917D01*
X132060318Y-101966135D01*
X131971645Y-102030560D01*
X131904898Y-102079055D01*
X131904896Y-102079057D01*
X131904895Y-102079057D01*
X131769057Y-102214895D01*
X131769057Y-102214896D01*
X131769055Y-102214898D01*
X131723492Y-102277610D01*
X131656135Y-102370318D01*
X131568916Y-102541493D01*
X131509553Y-102724197D01*
X131479500Y-102913945D01*
X115500500Y-102913945D01*
X115500500Y-94824986D01*
X153200001Y-94824986D01*
X153210494Y-94927697D01*
X153265641Y-95094119D01*
X153265643Y-95094124D01*
X153357684Y-95243345D01*
X153481654Y-95367315D01*
X153630875Y-95459356D01*
X153630880Y-95459358D01*
X153797302Y-95514505D01*
X153797309Y-95514506D01*
X153900019Y-95524999D01*
X154349999Y-95524999D01*
X154850000Y-95524999D01*
X155299972Y-95524999D01*
X155299986Y-95524998D01*
X155402697Y-95514505D01*
X155569119Y-95459358D01*
X155569124Y-95459356D01*
X155718345Y-95367315D01*
X155842315Y-95243345D01*
X155934356Y-95094124D01*
X155934358Y-95094119D01*
X155989505Y-94927697D01*
X155989506Y-94927690D01*
X155999999Y-94824986D01*
X156000000Y-94824973D01*
X156000000Y-94700000D01*
X154850000Y-94700000D01*
X154850000Y-95524999D01*
X154349999Y-95524999D01*
X154350000Y-95524998D01*
X154350000Y-94700000D01*
X153200001Y-94700000D01*
X153200001Y-94824986D01*
X115500500Y-94824986D01*
X115500500Y-92881947D01*
X125700000Y-92881947D01*
X125700000Y-93118052D01*
X125736934Y-93351247D01*
X125809897Y-93575802D01*
X125917087Y-93786174D01*
X125977338Y-93869104D01*
X125977340Y-93869105D01*
X126717037Y-93129408D01*
X126734075Y-93192993D01*
X126799901Y-93307007D01*
X126892993Y-93400099D01*
X127007007Y-93465925D01*
X127070590Y-93482962D01*
X126330893Y-94222658D01*
X126413828Y-94282914D01*
X126624197Y-94390102D01*
X126848752Y-94463065D01*
X126848751Y-94463065D01*
X127081948Y-94500000D01*
X127318052Y-94500000D01*
X127551247Y-94463065D01*
X127775802Y-94390102D01*
X127986163Y-94282918D01*
X127986169Y-94282914D01*
X128069104Y-94222658D01*
X128069105Y-94222658D01*
X127329408Y-93482962D01*
X127392993Y-93465925D01*
X127507007Y-93400099D01*
X127600099Y-93307007D01*
X127665925Y-93192993D01*
X127682962Y-93129409D01*
X128422658Y-93869105D01*
X128422658Y-93869104D01*
X128482914Y-93786169D01*
X128482918Y-93786163D01*
X128590102Y-93575802D01*
X128663065Y-93351247D01*
X128700000Y-93118052D01*
X128700000Y-92881947D01*
X128663065Y-92648752D01*
X128590102Y-92424197D01*
X128482914Y-92213828D01*
X128422658Y-92130894D01*
X128422658Y-92130893D01*
X127682962Y-92870590D01*
X127665925Y-92807007D01*
X127600099Y-92692993D01*
X127507007Y-92599901D01*
X127392993Y-92534075D01*
X127329409Y-92517037D01*
X128069105Y-91777340D01*
X128069104Y-91777338D01*
X127986174Y-91717087D01*
X127775802Y-91609897D01*
X127551247Y-91536934D01*
X127551248Y-91536934D01*
X127318052Y-91500000D01*
X127081948Y-91500000D01*
X126848752Y-91536934D01*
X126624197Y-91609897D01*
X126413830Y-91717084D01*
X126330894Y-91777340D01*
X127070591Y-92517037D01*
X127007007Y-92534075D01*
X126892993Y-92599901D01*
X126799901Y-92692993D01*
X126734075Y-92807007D01*
X126717037Y-92870591D01*
X125977340Y-92130894D01*
X125917084Y-92213830D01*
X125809897Y-92424197D01*
X125736934Y-92648752D01*
X125700000Y-92881947D01*
X115500500Y-92881947D01*
X115500500Y-84382014D01*
X116150000Y-84382014D01*
X116150000Y-84617985D01*
X116180799Y-84851914D01*
X116241870Y-85079837D01*
X116332160Y-85297819D01*
X116332165Y-85297828D01*
X116450144Y-85502171D01*
X116450145Y-85502172D01*
X116512721Y-85583723D01*
X117234152Y-84862292D01*
X117241049Y-84878942D01*
X117328599Y-85009970D01*
X117440030Y-85121401D01*
X117571058Y-85208951D01*
X117587706Y-85215846D01*
X116866275Y-85937277D01*
X116947827Y-85999854D01*
X116947828Y-85999855D01*
X117152171Y-86117834D01*
X117152180Y-86117839D01*
X117370163Y-86208129D01*
X117370161Y-86208129D01*
X117598085Y-86269200D01*
X117832014Y-86299999D01*
X117832029Y-86300000D01*
X118067971Y-86300000D01*
X118067985Y-86299999D01*
X118301914Y-86269200D01*
X118529837Y-86208129D01*
X118747819Y-86117839D01*
X118747828Y-86117834D01*
X118823602Y-86074086D01*
X118891502Y-86057613D01*
X118957529Y-86080465D01*
X119000720Y-86135386D01*
X119007362Y-86204939D01*
X119000164Y-86228925D01*
X118928842Y-86401111D01*
X118928842Y-86401112D01*
X118869453Y-86622759D01*
X118869451Y-86622770D01*
X118839500Y-86850258D01*
X118839500Y-87079741D01*
X118864446Y-87269215D01*
X118869452Y-87307238D01*
X118881935Y-87353826D01*
X118928842Y-87528887D01*
X119016650Y-87740876D01*
X119016656Y-87740888D01*
X119092278Y-87871870D01*
X119111315Y-87904842D01*
X119127788Y-87972742D01*
X119104935Y-88038769D01*
X119050014Y-88081960D01*
X118980461Y-88088601D01*
X118941928Y-88074229D01*
X118747835Y-87962168D01*
X118747819Y-87962160D01*
X118529836Y-87871870D01*
X118529838Y-87871870D01*
X118301914Y-87810799D01*
X118067985Y-87780000D01*
X117832014Y-87780000D01*
X117598085Y-87810799D01*
X117370162Y-87871870D01*
X117152180Y-87962160D01*
X117152171Y-87962165D01*
X116947828Y-88080144D01*
X116947818Y-88080150D01*
X116866275Y-88142720D01*
X116866275Y-88142721D01*
X117587706Y-88864152D01*
X117571058Y-88871049D01*
X117440030Y-88958599D01*
X117328599Y-89070030D01*
X117241049Y-89201058D01*
X117234152Y-89217706D01*
X116512721Y-88496275D01*
X116512720Y-88496275D01*
X116450150Y-88577818D01*
X116450144Y-88577828D01*
X116332165Y-88782171D01*
X116332160Y-88782180D01*
X116241870Y-89000162D01*
X116180799Y-89228085D01*
X116150000Y-89462014D01*
X116150000Y-89697985D01*
X116180799Y-89931914D01*
X116241870Y-90159837D01*
X116332160Y-90377819D01*
X116332165Y-90377828D01*
X116450144Y-90582171D01*
X116450145Y-90582172D01*
X116512721Y-90663723D01*
X117234152Y-89942292D01*
X117241049Y-89958942D01*
X117328599Y-90089970D01*
X117440030Y-90201401D01*
X117571058Y-90288951D01*
X117587706Y-90295846D01*
X116866275Y-91017277D01*
X116947827Y-91079854D01*
X116947828Y-91079855D01*
X117152171Y-91197834D01*
X117152180Y-91197839D01*
X117370163Y-91288129D01*
X117370161Y-91288129D01*
X117598085Y-91349200D01*
X117832014Y-91379999D01*
X117832029Y-91380000D01*
X118067971Y-91380000D01*
X118067985Y-91379999D01*
X118301914Y-91349200D01*
X118529837Y-91288129D01*
X118747819Y-91197839D01*
X118747828Y-91197834D01*
X118952181Y-91079850D01*
X119033723Y-91017279D01*
X119033723Y-91017276D01*
X118312293Y-90295847D01*
X118328942Y-90288951D01*
X118459970Y-90201401D01*
X118571401Y-90089970D01*
X118658951Y-89958942D01*
X118665847Y-89942293D01*
X119387276Y-90663723D01*
X119387279Y-90663723D01*
X119449850Y-90582181D01*
X119567834Y-90377828D01*
X119567839Y-90377819D01*
X119658129Y-90159837D01*
X119719200Y-89931914D01*
X119749999Y-89697985D01*
X119750000Y-89697971D01*
X119750000Y-89462028D01*
X119749999Y-89462014D01*
X119719200Y-89228085D01*
X119658129Y-89000162D01*
X119567839Y-88782180D01*
X119567834Y-88782171D01*
X119464920Y-88603921D01*
X119448447Y-88536021D01*
X119471299Y-88469994D01*
X119526220Y-88426803D01*
X119595773Y-88420161D01*
X119634302Y-88434531D01*
X119814112Y-88538344D01*
X119814117Y-88538346D01*
X119814123Y-88538349D01*
X119887721Y-88568834D01*
X120026113Y-88626158D01*
X120247762Y-88685548D01*
X120475266Y-88715500D01*
X120475273Y-88715500D01*
X120704727Y-88715500D01*
X120704734Y-88715500D01*
X120932238Y-88685548D01*
X121153887Y-88626158D01*
X121274247Y-88576302D01*
X121343714Y-88568834D01*
X121406194Y-88600109D01*
X121441846Y-88660198D01*
X121439353Y-88730023D01*
X121429086Y-88752863D01*
X121412166Y-88782169D01*
X121412160Y-88782180D01*
X121321870Y-89000162D01*
X121260799Y-89228085D01*
X121230000Y-89462014D01*
X121230000Y-89697985D01*
X121260799Y-89931914D01*
X121321870Y-90159837D01*
X121412160Y-90377819D01*
X121412165Y-90377828D01*
X121530144Y-90582171D01*
X121530145Y-90582172D01*
X121592721Y-90663723D01*
X122314152Y-89942292D01*
X122321049Y-89958942D01*
X122408599Y-90089970D01*
X122520030Y-90201401D01*
X122651058Y-90288951D01*
X122667706Y-90295846D01*
X121946275Y-91017277D01*
X122027827Y-91079854D01*
X122027828Y-91079855D01*
X122232171Y-91197834D01*
X122232180Y-91197839D01*
X122450163Y-91288129D01*
X122450161Y-91288129D01*
X122678085Y-91349200D01*
X122912014Y-91379999D01*
X122912029Y-91380000D01*
X123147971Y-91380000D01*
X123147985Y-91379999D01*
X123381914Y-91349200D01*
X123609837Y-91288129D01*
X123827819Y-91197839D01*
X123827828Y-91197834D01*
X124032181Y-91079850D01*
X124113723Y-91017279D01*
X124113723Y-91017276D01*
X123392293Y-90295847D01*
X123408942Y-90288951D01*
X123539970Y-90201401D01*
X123651401Y-90089970D01*
X123738951Y-89958942D01*
X123745847Y-89942293D01*
X124467276Y-90663723D01*
X124467279Y-90663723D01*
X124529850Y-90582181D01*
X124647834Y-90377828D01*
X124647839Y-90377819D01*
X124738129Y-90159837D01*
X124799200Y-89931914D01*
X124806816Y-89874071D01*
X141600000Y-89874071D01*
X141600000Y-90125928D01*
X141639397Y-90374669D01*
X141717219Y-90614184D01*
X141831557Y-90838583D01*
X141905748Y-90940697D01*
X141905748Y-90940698D01*
X142635387Y-90211059D01*
X142640889Y-90231591D01*
X142719881Y-90368408D01*
X142831592Y-90480119D01*
X142968409Y-90559111D01*
X142988940Y-90564612D01*
X142259300Y-91294250D01*
X142361416Y-91368442D01*
X142512356Y-91445351D01*
X142563152Y-91493326D01*
X142579947Y-91561147D01*
X142557409Y-91627282D01*
X142512356Y-91666321D01*
X142413566Y-91716657D01*
X142330047Y-91777338D01*
X142222490Y-91855483D01*
X142222488Y-91855485D01*
X142222487Y-91855485D01*
X142055485Y-92022487D01*
X142055485Y-92022488D01*
X142055483Y-92022490D01*
X141995862Y-92104550D01*
X141916657Y-92213566D01*
X141809433Y-92424003D01*
X141736446Y-92648631D01*
X141699500Y-92881902D01*
X141699500Y-93118097D01*
X141736446Y-93351368D01*
X141809433Y-93575996D01*
X141828577Y-93613567D01*
X141916657Y-93786433D01*
X142055483Y-93977510D01*
X142222490Y-94144517D01*
X142413567Y-94283343D01*
X142512991Y-94334002D01*
X142624003Y-94390566D01*
X142624005Y-94390566D01*
X142624008Y-94390568D01*
X142653034Y-94399999D01*
X142848631Y-94463553D01*
X143081903Y-94500500D01*
X143081908Y-94500500D01*
X143318097Y-94500500D01*
X143551368Y-94463553D01*
X143552870Y-94463065D01*
X143775992Y-94390568D01*
X143986433Y-94283343D01*
X144177510Y-94144517D01*
X144344517Y-93977510D01*
X144483343Y-93786433D01*
X144590568Y-93575992D01*
X144663553Y-93351368D01*
X144663572Y-93351247D01*
X144700500Y-93118097D01*
X144700500Y-92881902D01*
X144663553Y-92648631D01*
X144615259Y-92500000D01*
X144590568Y-92424008D01*
X144590566Y-92424005D01*
X144590566Y-92424003D01*
X144483477Y-92213830D01*
X144483343Y-92213567D01*
X144344517Y-92022490D01*
X144177510Y-91855483D01*
X143986433Y-91716657D01*
X143887643Y-91666321D01*
X143836847Y-91618346D01*
X143820052Y-91550525D01*
X143842589Y-91484390D01*
X143887643Y-91445351D01*
X144038575Y-91368446D01*
X144038581Y-91368442D01*
X144140697Y-91294250D01*
X144140698Y-91294250D01*
X143411059Y-90564612D01*
X143431591Y-90559111D01*
X143568408Y-90480119D01*
X143680119Y-90368408D01*
X143759111Y-90231591D01*
X143764612Y-90211060D01*
X144494250Y-90940698D01*
X144494250Y-90940697D01*
X144568442Y-90838581D01*
X144568446Y-90838575D01*
X144682780Y-90614184D01*
X144760602Y-90374669D01*
X144800000Y-90125928D01*
X144800000Y-89874071D01*
X144799995Y-89874038D01*
X149399500Y-89874038D01*
X149399500Y-90125962D01*
X149416083Y-90230664D01*
X149438910Y-90374785D01*
X149516760Y-90614383D01*
X149595413Y-90768747D01*
X149630995Y-90838581D01*
X149631132Y-90838848D01*
X149779201Y-91042649D01*
X149779205Y-91042654D01*
X149957345Y-91220794D01*
X149957350Y-91220798D01*
X150135117Y-91349952D01*
X150161155Y-91368870D01*
X150302182Y-91440727D01*
X150311807Y-91445631D01*
X150362603Y-91493606D01*
X150379398Y-91561427D01*
X150356861Y-91627562D01*
X150311807Y-91666601D01*
X150213566Y-91716657D01*
X150130047Y-91777338D01*
X150022490Y-91855483D01*
X150022488Y-91855485D01*
X150022487Y-91855485D01*
X149855485Y-92022487D01*
X149855485Y-92022488D01*
X149855483Y-92022490D01*
X149795862Y-92104550D01*
X149716657Y-92213566D01*
X149609433Y-92424003D01*
X149536446Y-92648631D01*
X149499500Y-92881902D01*
X149499500Y-93118097D01*
X149536446Y-93351368D01*
X149609433Y-93575996D01*
X149628577Y-93613567D01*
X149716657Y-93786433D01*
X149855483Y-93977510D01*
X150022490Y-94144517D01*
X150213567Y-94283343D01*
X150312991Y-94334002D01*
X150424003Y-94390566D01*
X150424005Y-94390566D01*
X150424008Y-94390568D01*
X150453034Y-94399999D01*
X150648631Y-94463553D01*
X150881903Y-94500500D01*
X150881908Y-94500500D01*
X151118097Y-94500500D01*
X151351368Y-94463553D01*
X151352870Y-94463065D01*
X151575992Y-94390568D01*
X151786433Y-94283343D01*
X151788354Y-94281947D01*
X161200000Y-94281947D01*
X161200000Y-94518052D01*
X161236934Y-94751247D01*
X161309897Y-94975802D01*
X161417087Y-95186174D01*
X161477338Y-95269104D01*
X161477340Y-95269105D01*
X162217037Y-94529408D01*
X162234075Y-94592993D01*
X162299901Y-94707007D01*
X162392993Y-94800099D01*
X162507007Y-94865925D01*
X162570590Y-94882962D01*
X161830893Y-95622658D01*
X161913828Y-95682914D01*
X162124197Y-95790102D01*
X162348752Y-95863065D01*
X162348751Y-95863065D01*
X162581948Y-95900000D01*
X162818052Y-95900000D01*
X163051247Y-95863065D01*
X163275802Y-95790102D01*
X163486163Y-95682918D01*
X163486169Y-95682914D01*
X163569104Y-95622658D01*
X163569105Y-95622658D01*
X162829408Y-94882962D01*
X162892993Y-94865925D01*
X163007007Y-94800099D01*
X163100099Y-94707007D01*
X163165925Y-94592993D01*
X163182962Y-94529408D01*
X163922658Y-95269105D01*
X163922658Y-95269104D01*
X163982914Y-95186169D01*
X163982918Y-95186163D01*
X164090102Y-94975802D01*
X164163065Y-94751247D01*
X164200000Y-94518052D01*
X164200000Y-94281947D01*
X164163065Y-94048752D01*
X164090102Y-93824197D01*
X163982914Y-93613828D01*
X163922658Y-93530894D01*
X163922658Y-93530893D01*
X163182962Y-94270590D01*
X163165925Y-94207007D01*
X163100099Y-94092993D01*
X163007007Y-93999901D01*
X162892993Y-93934075D01*
X162829409Y-93917037D01*
X163569105Y-93177340D01*
X163569104Y-93177338D01*
X163486174Y-93117087D01*
X163275802Y-93009897D01*
X163051247Y-92936934D01*
X163051248Y-92936934D01*
X162818052Y-92900000D01*
X162581948Y-92900000D01*
X162348752Y-92936934D01*
X162124197Y-93009897D01*
X161913830Y-93117084D01*
X161830894Y-93177340D01*
X162570591Y-93917037D01*
X162507007Y-93934075D01*
X162392993Y-93999901D01*
X162299901Y-94092993D01*
X162234075Y-94207007D01*
X162217037Y-94270590D01*
X161477340Y-93530894D01*
X161417084Y-93613830D01*
X161309897Y-93824197D01*
X161236934Y-94048752D01*
X161200000Y-94281947D01*
X151788354Y-94281947D01*
X151977510Y-94144517D01*
X152144517Y-93977510D01*
X152283343Y-93786433D01*
X152390568Y-93575992D01*
X152463553Y-93351368D01*
X152463572Y-93351247D01*
X152500500Y-93118097D01*
X152500500Y-92881902D01*
X152463553Y-92648631D01*
X152415259Y-92500000D01*
X152390568Y-92424008D01*
X152390566Y-92424005D01*
X152390566Y-92424003D01*
X152283477Y-92213830D01*
X152283343Y-92213567D01*
X152144517Y-92022490D01*
X151977510Y-91855483D01*
X151786433Y-91716657D01*
X151688191Y-91666600D01*
X151637396Y-91618627D01*
X151620601Y-91550806D01*
X151643138Y-91484671D01*
X151688190Y-91445632D01*
X151838845Y-91368870D01*
X151949976Y-91288129D01*
X151969173Y-91274182D01*
X152034979Y-91250702D01*
X152042058Y-91250500D01*
X153075500Y-91250500D01*
X153142539Y-91270185D01*
X153188294Y-91322989D01*
X153199500Y-91374500D01*
X153199500Y-91875001D01*
X153199501Y-91875019D01*
X153210000Y-91977796D01*
X153210001Y-91977799D01*
X153260732Y-92130893D01*
X153265186Y-92144334D01*
X153357288Y-92293656D01*
X153481344Y-92417712D01*
X153630666Y-92509814D01*
X153630667Y-92509814D01*
X153630670Y-92509816D01*
X153654999Y-92517877D01*
X153712446Y-92557647D01*
X153739271Y-92622162D01*
X153740000Y-92635584D01*
X153740000Y-93314941D01*
X153720315Y-93381980D01*
X153667511Y-93427735D01*
X153655006Y-93432646D01*
X153630880Y-93440640D01*
X153481654Y-93532684D01*
X153357684Y-93656654D01*
X153265643Y-93805875D01*
X153265641Y-93805880D01*
X153210494Y-93972302D01*
X153210493Y-93972309D01*
X153200000Y-94075013D01*
X153200000Y-94200000D01*
X155999999Y-94200000D01*
X155999999Y-94075028D01*
X155999998Y-94075013D01*
X155989505Y-93972302D01*
X155934358Y-93805880D01*
X155934356Y-93805875D01*
X155842315Y-93656654D01*
X155718344Y-93532683D01*
X155718340Y-93532680D01*
X155618903Y-93471346D01*
X155612080Y-93463760D01*
X155602797Y-93459521D01*
X155589108Y-93438220D01*
X155572178Y-93419398D01*
X155569533Y-93407761D01*
X155565023Y-93400743D01*
X155560000Y-93365808D01*
X155560000Y-92584778D01*
X155579685Y-92517739D01*
X155618904Y-92479239D01*
X155718656Y-92417712D01*
X155842712Y-92293656D01*
X155934814Y-92144334D01*
X155989999Y-91977797D01*
X156000500Y-91875009D01*
X156000499Y-91374499D01*
X156020183Y-91307461D01*
X156072987Y-91261706D01*
X156124499Y-91250500D01*
X166098422Y-91250500D01*
X166292826Y-91219709D01*
X166480025Y-91158884D01*
X166655405Y-91069524D01*
X166814646Y-90953828D01*
X166953828Y-90814646D01*
X167069524Y-90655405D01*
X167158884Y-90480025D01*
X167219709Y-90292826D01*
X167229408Y-90231591D01*
X167250500Y-90098422D01*
X167250500Y-89901577D01*
X167219709Y-89707173D01*
X167158882Y-89519970D01*
X167097754Y-89400000D01*
X167069524Y-89344595D01*
X166953828Y-89185354D01*
X166814646Y-89046172D01*
X166655405Y-88930476D01*
X166480029Y-88841117D01*
X166292826Y-88780290D01*
X166098422Y-88749500D01*
X166098417Y-88749500D01*
X164898417Y-88749500D01*
X163748417Y-88749500D01*
X156174500Y-88749500D01*
X156107461Y-88729815D01*
X156061706Y-88677011D01*
X156050500Y-88625500D01*
X156050499Y-88124998D01*
X156050498Y-88124980D01*
X156039999Y-88022203D01*
X156039998Y-88022200D01*
X156025190Y-87977512D01*
X155984814Y-87855666D01*
X155892712Y-87706344D01*
X155768656Y-87582288D01*
X155619334Y-87490186D01*
X155618903Y-87489920D01*
X155572179Y-87437972D01*
X155560000Y-87384381D01*
X155560000Y-86665031D01*
X155579685Y-86597992D01*
X155618903Y-86559492D01*
X155768345Y-86467315D01*
X155892315Y-86343345D01*
X155984356Y-86194124D01*
X155984358Y-86194119D01*
X156039505Y-86027697D01*
X156039506Y-86027690D01*
X156049999Y-85924986D01*
X156050000Y-85924973D01*
X156050000Y-85800000D01*
X153250001Y-85800000D01*
X153250001Y-85924986D01*
X153260494Y-86027697D01*
X153315641Y-86194119D01*
X153315643Y-86194124D01*
X153407684Y-86343345D01*
X153531654Y-86467315D01*
X153681097Y-86559492D01*
X153727821Y-86611440D01*
X153740000Y-86665031D01*
X153740000Y-87384381D01*
X153720315Y-87451420D01*
X153681097Y-87489920D01*
X153531342Y-87582289D01*
X153407289Y-87706342D01*
X153315187Y-87855663D01*
X153315185Y-87855668D01*
X153298891Y-87904842D01*
X153260001Y-88022203D01*
X153260001Y-88022204D01*
X153260000Y-88022204D01*
X153249500Y-88124983D01*
X153249500Y-88124991D01*
X153249500Y-88434533D01*
X153249501Y-88625500D01*
X153229817Y-88692539D01*
X153177013Y-88738294D01*
X153125501Y-88749500D01*
X152042058Y-88749500D01*
X151975019Y-88729815D01*
X151969173Y-88725818D01*
X151838848Y-88631132D01*
X151838847Y-88631131D01*
X151838845Y-88631130D01*
X151734232Y-88577827D01*
X151688192Y-88554368D01*
X151637396Y-88506393D01*
X151620601Y-88438572D01*
X151643139Y-88372437D01*
X151688190Y-88333399D01*
X151786433Y-88283343D01*
X151977510Y-88144517D01*
X152144517Y-87977510D01*
X152283343Y-87786433D01*
X152390568Y-87575992D01*
X152463553Y-87351368D01*
X152470542Y-87307240D01*
X152500500Y-87118097D01*
X152500500Y-86881902D01*
X152463553Y-86648631D01*
X152405221Y-86469105D01*
X152390568Y-86424008D01*
X152390566Y-86424005D01*
X152390566Y-86424003D01*
X152283342Y-86213566D01*
X152283137Y-86213284D01*
X152144517Y-86022490D01*
X151977510Y-85855483D01*
X151786433Y-85716657D01*
X151686672Y-85665826D01*
X151575996Y-85609433D01*
X151546960Y-85599999D01*
X151473010Y-85575971D01*
X151351368Y-85536446D01*
X151118097Y-85499500D01*
X151118092Y-85499500D01*
X150881908Y-85499500D01*
X150881903Y-85499500D01*
X150648631Y-85536446D01*
X150424003Y-85609433D01*
X150213566Y-85716657D01*
X150108500Y-85792993D01*
X150022490Y-85855483D01*
X150022488Y-85855485D01*
X150022487Y-85855485D01*
X149855485Y-86022487D01*
X149855485Y-86022488D01*
X149855483Y-86022490D01*
X149851705Y-86027690D01*
X149716657Y-86213566D01*
X149609433Y-86424003D01*
X149536446Y-86648631D01*
X149499500Y-86881902D01*
X149499500Y-87118097D01*
X149536446Y-87351368D01*
X149609433Y-87575996D01*
X149713379Y-87780000D01*
X149716657Y-87786433D01*
X149855483Y-87977510D01*
X150022490Y-88144517D01*
X150165797Y-88248636D01*
X150213568Y-88283344D01*
X150311806Y-88333398D01*
X150362603Y-88381372D01*
X150379398Y-88449193D01*
X150356861Y-88515328D01*
X150311807Y-88554367D01*
X150161156Y-88631128D01*
X150161155Y-88631129D01*
X149957350Y-88779201D01*
X149957345Y-88779205D01*
X149779205Y-88957345D01*
X149779201Y-88957350D01*
X149631132Y-89161151D01*
X149516760Y-89385616D01*
X149453601Y-89580000D01*
X149438910Y-89625215D01*
X149399500Y-89874038D01*
X144799995Y-89874038D01*
X144760602Y-89625330D01*
X144682780Y-89385815D01*
X144568442Y-89161416D01*
X144494250Y-89059301D01*
X144494250Y-89059300D01*
X143764612Y-89788939D01*
X143759111Y-89768409D01*
X143680119Y-89631592D01*
X143568408Y-89519881D01*
X143431591Y-89440889D01*
X143411058Y-89435387D01*
X144140698Y-88705748D01*
X144038581Y-88631555D01*
X143887642Y-88554647D01*
X143836847Y-88506673D01*
X143820052Y-88438852D01*
X143842590Y-88372717D01*
X143887642Y-88333679D01*
X143986433Y-88283343D01*
X144177510Y-88144517D01*
X144344517Y-87977510D01*
X144483343Y-87786433D01*
X144590568Y-87575992D01*
X144663553Y-87351368D01*
X144670542Y-87307240D01*
X144700500Y-87118097D01*
X144700500Y-86881902D01*
X144663553Y-86648631D01*
X144605221Y-86469105D01*
X144590568Y-86424008D01*
X144590566Y-86424005D01*
X144590566Y-86424003D01*
X144483342Y-86213566D01*
X144483137Y-86213284D01*
X144344517Y-86022490D01*
X144177510Y-85855483D01*
X143986433Y-85716657D01*
X143886672Y-85665826D01*
X143775996Y-85609433D01*
X143551368Y-85536446D01*
X143318097Y-85499500D01*
X143318092Y-85499500D01*
X143081908Y-85499500D01*
X143081903Y-85499500D01*
X142848631Y-85536446D01*
X142624003Y-85609433D01*
X142413566Y-85716657D01*
X142308500Y-85792993D01*
X142222490Y-85855483D01*
X142222488Y-85855485D01*
X142222487Y-85855485D01*
X142055485Y-86022487D01*
X142055485Y-86022488D01*
X142055483Y-86022490D01*
X142051705Y-86027690D01*
X141916657Y-86213566D01*
X141809433Y-86424003D01*
X141736446Y-86648631D01*
X141699500Y-86881902D01*
X141699500Y-87118097D01*
X141736446Y-87351368D01*
X141809433Y-87575996D01*
X141913379Y-87780000D01*
X141916657Y-87786433D01*
X142055483Y-87977510D01*
X142222490Y-88144517D01*
X142413567Y-88283343D01*
X142512357Y-88333679D01*
X142563152Y-88381652D01*
X142579947Y-88449473D01*
X142557410Y-88515608D01*
X142512357Y-88554647D01*
X142361415Y-88631557D01*
X142259301Y-88705747D01*
X142259300Y-88705748D01*
X142988940Y-89435387D01*
X142968409Y-89440889D01*
X142831592Y-89519881D01*
X142719881Y-89631592D01*
X142640889Y-89768409D01*
X142635387Y-89788940D01*
X141905748Y-89059300D01*
X141905747Y-89059301D01*
X141831559Y-89161413D01*
X141717219Y-89385815D01*
X141639397Y-89625330D01*
X141600000Y-89874071D01*
X124806816Y-89874071D01*
X124809588Y-89853019D01*
X124829999Y-89697985D01*
X124830000Y-89697971D01*
X124830000Y-89462028D01*
X124829999Y-89462014D01*
X124799200Y-89228085D01*
X124738129Y-89000162D01*
X124647839Y-88782180D01*
X124647834Y-88782171D01*
X124529855Y-88577828D01*
X124529854Y-88577827D01*
X124467277Y-88496275D01*
X123745846Y-89217705D01*
X123738951Y-89201058D01*
X123651401Y-89070030D01*
X123539970Y-88958599D01*
X123408942Y-88871049D01*
X123392292Y-88864152D01*
X124113723Y-88142721D01*
X124032172Y-88080145D01*
X124032171Y-88080144D01*
X123827828Y-87962165D01*
X123827819Y-87962160D01*
X123609836Y-87871870D01*
X123609838Y-87871870D01*
X123381914Y-87810799D01*
X123147985Y-87780000D01*
X122912014Y-87780000D01*
X122678085Y-87810799D01*
X122450162Y-87871870D01*
X122311286Y-87929394D01*
X122241817Y-87936863D01*
X122179338Y-87905587D01*
X122143686Y-87845498D01*
X122146180Y-87775673D01*
X122156449Y-87752830D01*
X122163344Y-87740888D01*
X122251158Y-87528887D01*
X122310548Y-87307238D01*
X122340500Y-87079734D01*
X122340500Y-86881902D01*
X125699500Y-86881902D01*
X125699500Y-87118097D01*
X125736446Y-87351368D01*
X125809433Y-87575996D01*
X125913379Y-87780000D01*
X125916657Y-87786433D01*
X126055483Y-87977510D01*
X126222490Y-88144517D01*
X126413567Y-88283343D01*
X126511806Y-88333398D01*
X126624003Y-88390566D01*
X126624005Y-88390566D01*
X126624008Y-88390568D01*
X126744412Y-88429689D01*
X126848631Y-88463553D01*
X127081903Y-88500500D01*
X127081908Y-88500500D01*
X127318097Y-88500500D01*
X127551368Y-88463553D01*
X127775992Y-88390568D01*
X127986433Y-88283343D01*
X128177510Y-88144517D01*
X128344517Y-87977510D01*
X128483343Y-87786433D01*
X128590568Y-87575992D01*
X128663553Y-87351368D01*
X128670542Y-87307240D01*
X128700500Y-87118097D01*
X128700500Y-86881902D01*
X128663553Y-86648631D01*
X128605221Y-86469105D01*
X128590568Y-86424008D01*
X128590566Y-86424005D01*
X128590566Y-86424003D01*
X128483342Y-86213566D01*
X128483137Y-86213284D01*
X128344517Y-86022490D01*
X128177510Y-85855483D01*
X127986433Y-85716657D01*
X127886672Y-85665826D01*
X127775996Y-85609433D01*
X127551368Y-85536446D01*
X127318097Y-85499500D01*
X127318092Y-85499500D01*
X127081908Y-85499500D01*
X127081903Y-85499500D01*
X126848631Y-85536446D01*
X126624003Y-85609433D01*
X126413566Y-85716657D01*
X126308500Y-85792993D01*
X126222490Y-85855483D01*
X126222488Y-85855485D01*
X126222487Y-85855485D01*
X126055485Y-86022487D01*
X126055485Y-86022488D01*
X126055483Y-86022490D01*
X126051705Y-86027690D01*
X125916657Y-86213566D01*
X125809433Y-86424003D01*
X125736446Y-86648631D01*
X125699500Y-86881902D01*
X122340500Y-86881902D01*
X122340500Y-86850266D01*
X122310548Y-86622762D01*
X122251158Y-86401113D01*
X122228010Y-86345230D01*
X122220542Y-86275763D01*
X122251817Y-86213284D01*
X122311906Y-86177632D01*
X122381731Y-86180126D01*
X122390025Y-86183219D01*
X122450165Y-86208130D01*
X122678085Y-86269200D01*
X122912014Y-86299999D01*
X122912029Y-86300000D01*
X123147971Y-86300000D01*
X123147985Y-86299999D01*
X123381914Y-86269200D01*
X123609837Y-86208129D01*
X123827819Y-86117839D01*
X123827828Y-86117834D01*
X124032181Y-85999850D01*
X124113723Y-85937279D01*
X124113723Y-85937276D01*
X123392293Y-85215847D01*
X123408942Y-85208951D01*
X123539970Y-85121401D01*
X123651401Y-85009970D01*
X123738951Y-84878942D01*
X123745847Y-84862293D01*
X124467276Y-85583723D01*
X124467279Y-85583723D01*
X124529850Y-85502181D01*
X124541532Y-85481947D01*
X161200000Y-85481947D01*
X161200000Y-85718052D01*
X161236934Y-85951247D01*
X161309897Y-86175802D01*
X161417087Y-86386174D01*
X161477338Y-86469104D01*
X161477340Y-86469105D01*
X162217037Y-85729408D01*
X162234075Y-85792993D01*
X162299901Y-85907007D01*
X162392993Y-86000099D01*
X162507007Y-86065925D01*
X162570590Y-86082962D01*
X161830893Y-86822658D01*
X161913828Y-86882914D01*
X162124197Y-86990102D01*
X162348752Y-87063065D01*
X162348751Y-87063065D01*
X162581948Y-87100000D01*
X162818052Y-87100000D01*
X163051247Y-87063065D01*
X163275802Y-86990102D01*
X163486163Y-86882918D01*
X163486169Y-86882914D01*
X163569104Y-86822658D01*
X163569105Y-86822658D01*
X162829408Y-86082962D01*
X162892993Y-86065925D01*
X163007007Y-86000099D01*
X163100099Y-85907007D01*
X163165925Y-85792993D01*
X163182962Y-85729408D01*
X163922658Y-86469105D01*
X163922658Y-86469104D01*
X163982914Y-86386169D01*
X163982918Y-86386163D01*
X164090102Y-86175802D01*
X164163065Y-85951247D01*
X164200000Y-85718052D01*
X164200000Y-85481947D01*
X164163065Y-85248752D01*
X164090102Y-85024197D01*
X163982914Y-84813828D01*
X163922658Y-84730894D01*
X163922658Y-84730893D01*
X163182962Y-85470590D01*
X163165925Y-85407007D01*
X163100099Y-85292993D01*
X163007007Y-85199901D01*
X162892993Y-85134075D01*
X162829409Y-85117037D01*
X163569105Y-84377340D01*
X163569104Y-84377338D01*
X163486174Y-84317087D01*
X163275802Y-84209897D01*
X163051247Y-84136934D01*
X163051248Y-84136934D01*
X162818052Y-84100000D01*
X162581948Y-84100000D01*
X162348752Y-84136934D01*
X162124197Y-84209897D01*
X161913830Y-84317084D01*
X161830894Y-84377340D01*
X162570591Y-85117037D01*
X162507007Y-85134075D01*
X162392993Y-85199901D01*
X162299901Y-85292993D01*
X162234075Y-85407007D01*
X162217037Y-85470590D01*
X161477340Y-84730894D01*
X161417084Y-84813830D01*
X161309897Y-85024197D01*
X161236934Y-85248752D01*
X161200000Y-85481947D01*
X124541532Y-85481947D01*
X124647834Y-85297828D01*
X124647839Y-85297819D01*
X124698707Y-85175013D01*
X153250000Y-85175013D01*
X153250000Y-85300000D01*
X154400000Y-85300000D01*
X154900000Y-85300000D01*
X156049999Y-85300000D01*
X156049999Y-85175028D01*
X156049998Y-85175013D01*
X156039505Y-85072302D01*
X155984358Y-84905880D01*
X155984356Y-84905875D01*
X155892315Y-84756654D01*
X155768345Y-84632684D01*
X155619124Y-84540643D01*
X155619119Y-84540641D01*
X155452697Y-84485494D01*
X155452690Y-84485493D01*
X155349986Y-84475000D01*
X154900000Y-84475000D01*
X154900000Y-85300000D01*
X154400000Y-85300000D01*
X154400000Y-84475000D01*
X153950028Y-84475000D01*
X153950012Y-84475001D01*
X153847302Y-84485494D01*
X153680880Y-84540641D01*
X153680875Y-84540643D01*
X153531654Y-84632684D01*
X153407684Y-84756654D01*
X153315643Y-84905875D01*
X153315641Y-84905880D01*
X153260494Y-85072302D01*
X153260493Y-85072309D01*
X153250000Y-85175013D01*
X124698707Y-85175013D01*
X124719666Y-85124412D01*
X124719666Y-85124411D01*
X124738130Y-85079834D01*
X124799200Y-84851914D01*
X124829999Y-84617985D01*
X124830000Y-84617971D01*
X124830000Y-84382028D01*
X124829999Y-84382014D01*
X124799200Y-84148085D01*
X124738129Y-83920162D01*
X124647839Y-83702180D01*
X124647834Y-83702171D01*
X124529855Y-83497828D01*
X124529854Y-83497827D01*
X124467277Y-83416275D01*
X123745846Y-84137705D01*
X123738951Y-84121058D01*
X123651401Y-83990030D01*
X123539970Y-83878599D01*
X123408942Y-83791049D01*
X123392293Y-83784152D01*
X124113723Y-83062721D01*
X124032172Y-83000145D01*
X124032171Y-83000144D01*
X123827828Y-82882165D01*
X123827819Y-82882160D01*
X123609836Y-82791870D01*
X123609838Y-82791870D01*
X123381914Y-82730799D01*
X123147985Y-82700000D01*
X122912014Y-82700000D01*
X122678085Y-82730799D01*
X122450162Y-82791870D01*
X122232180Y-82882160D01*
X122232171Y-82882165D01*
X122027828Y-83000144D01*
X122027818Y-83000150D01*
X121946275Y-83062720D01*
X121946275Y-83062721D01*
X122667706Y-83784152D01*
X122651058Y-83791049D01*
X122520030Y-83878599D01*
X122408599Y-83990030D01*
X122321049Y-84121058D01*
X122314152Y-84137706D01*
X121592721Y-83416275D01*
X121592720Y-83416275D01*
X121530150Y-83497818D01*
X121530144Y-83497828D01*
X121412165Y-83702171D01*
X121412160Y-83702180D01*
X121321870Y-83920162D01*
X121260799Y-84148085D01*
X121230000Y-84382014D01*
X121230000Y-84617985D01*
X121260799Y-84851914D01*
X121321870Y-85079837D01*
X121354102Y-85157653D01*
X121361571Y-85227123D01*
X121330295Y-85289602D01*
X121270206Y-85325253D01*
X121200381Y-85322759D01*
X121192101Y-85319671D01*
X121153887Y-85303842D01*
X121153885Y-85303841D01*
X121153884Y-85303841D01*
X121088035Y-85286197D01*
X120932238Y-85244452D01*
X120894215Y-85239446D01*
X120704741Y-85214500D01*
X120704734Y-85214500D01*
X120475266Y-85214500D01*
X120475258Y-85214500D01*
X120258715Y-85243009D01*
X120247762Y-85244452D01*
X120155187Y-85269257D01*
X120026112Y-85303842D01*
X119814123Y-85391650D01*
X119814106Y-85391659D01*
X119755696Y-85425381D01*
X119687796Y-85441852D01*
X119621769Y-85418999D01*
X119578580Y-85364077D01*
X119571939Y-85294524D01*
X119579137Y-85270540D01*
X119658130Y-85079834D01*
X119719200Y-84851914D01*
X119749999Y-84617985D01*
X119750000Y-84617971D01*
X119750000Y-84382028D01*
X119749999Y-84382014D01*
X119719200Y-84148085D01*
X119658129Y-83920162D01*
X119567839Y-83702180D01*
X119567834Y-83702171D01*
X119449855Y-83497828D01*
X119449854Y-83497827D01*
X119387277Y-83416275D01*
X118665846Y-84137706D01*
X118658951Y-84121058D01*
X118571401Y-83990030D01*
X118459970Y-83878599D01*
X118328942Y-83791049D01*
X118312293Y-83784152D01*
X119033723Y-83062721D01*
X118952172Y-83000145D01*
X118952171Y-83000144D01*
X118747828Y-82882165D01*
X118747819Y-82882160D01*
X118529836Y-82791870D01*
X118529838Y-82791870D01*
X118301914Y-82730799D01*
X118067985Y-82700000D01*
X117832014Y-82700000D01*
X117598085Y-82730799D01*
X117370162Y-82791870D01*
X117152180Y-82882160D01*
X117152171Y-82882165D01*
X116947828Y-83000144D01*
X116947818Y-83000150D01*
X116866275Y-83062720D01*
X116866275Y-83062721D01*
X117587706Y-83784152D01*
X117571058Y-83791049D01*
X117440030Y-83878599D01*
X117328599Y-83990030D01*
X117241049Y-84121058D01*
X117234152Y-84137706D01*
X116512721Y-83416275D01*
X116512720Y-83416275D01*
X116450150Y-83497818D01*
X116450144Y-83497828D01*
X116332165Y-83702171D01*
X116332160Y-83702180D01*
X116241870Y-83920162D01*
X116180799Y-84148085D01*
X116150000Y-84382014D01*
X115500500Y-84382014D01*
X115500500Y-75263945D01*
X133229500Y-75263945D01*
X133229500Y-75456054D01*
X133259553Y-75645802D01*
X133318916Y-75828506D01*
X133318918Y-75828509D01*
X133406135Y-75999681D01*
X133519055Y-76155102D01*
X133654898Y-76290945D01*
X133810319Y-76403865D01*
X133981491Y-76491082D01*
X133981493Y-76491083D01*
X134046081Y-76512069D01*
X134103756Y-76551506D01*
X134130955Y-76615865D01*
X134119041Y-76684711D01*
X134071797Y-76736187D01*
X134046081Y-76747931D01*
X133981493Y-76768916D01*
X133810318Y-76856135D01*
X133721645Y-76920560D01*
X133654898Y-76969055D01*
X133654896Y-76969057D01*
X133654895Y-76969057D01*
X133519057Y-77104895D01*
X133519057Y-77104896D01*
X133519055Y-77104898D01*
X133472845Y-77168500D01*
X133406135Y-77260318D01*
X133318916Y-77431493D01*
X133259553Y-77614197D01*
X133229500Y-77803945D01*
X133229500Y-77996054D01*
X133259553Y-78185802D01*
X133318916Y-78368506D01*
X133363235Y-78455485D01*
X133406135Y-78539681D01*
X133519055Y-78695102D01*
X133654898Y-78830945D01*
X133810319Y-78943865D01*
X133871529Y-78975053D01*
X133981493Y-79031083D01*
X134072845Y-79060764D01*
X134164199Y-79090447D01*
X134353945Y-79120500D01*
X134353946Y-79120500D01*
X134546054Y-79120500D01*
X134546055Y-79120500D01*
X134735801Y-79090447D01*
X134918509Y-79031082D01*
X135089681Y-78943865D01*
X135245102Y-78830945D01*
X135380945Y-78695102D01*
X135493865Y-78539681D01*
X135510443Y-78507146D01*
X152547000Y-78507146D01*
X152547000Y-78735853D01*
X152582778Y-78961746D01*
X152582778Y-78961749D01*
X152653450Y-79179255D01*
X152696645Y-79264030D01*
X152757283Y-79383038D01*
X152891714Y-79568066D01*
X153053434Y-79729786D01*
X153238462Y-79864217D01*
X153409506Y-79951368D01*
X153442244Y-79968049D01*
X153659751Y-80038721D01*
X153659752Y-80038721D01*
X153659755Y-80038722D01*
X153885646Y-80074500D01*
X153885647Y-80074500D01*
X154114353Y-80074500D01*
X154114354Y-80074500D01*
X154340245Y-80038722D01*
X154340248Y-80038721D01*
X154340249Y-80038721D01*
X154557755Y-79968049D01*
X154557755Y-79968048D01*
X154557758Y-79968048D01*
X154761538Y-79864217D01*
X154946566Y-79729786D01*
X155108286Y-79568066D01*
X155158749Y-79498609D01*
X155162927Y-79493936D01*
X155187488Y-79478682D01*
X155210385Y-79461026D01*
X155217641Y-79459956D01*
X155222282Y-79457074D01*
X155235776Y-79457282D01*
X155265103Y-79452959D01*
X155311348Y-79456598D01*
X155976212Y-78791734D01*
X155987482Y-78833792D01*
X156059890Y-78959208D01*
X156162292Y-79061610D01*
X156287708Y-79134018D01*
X156329765Y-79145287D01*
X155664899Y-79810151D01*
X155738725Y-79863788D01*
X155738731Y-79863792D01*
X155942431Y-79967582D01*
X156159875Y-80038234D01*
X156385687Y-80074000D01*
X156614313Y-80074000D01*
X156840124Y-80038234D01*
X156840125Y-80038234D01*
X157057568Y-79967582D01*
X157261276Y-79863788D01*
X157335098Y-79810151D01*
X156670234Y-79145287D01*
X156712292Y-79134018D01*
X156837708Y-79061610D01*
X156940110Y-78959208D01*
X157012518Y-78833792D01*
X157023787Y-78791735D01*
X157688650Y-79456598D01*
X157734896Y-79452959D01*
X157803273Y-79467323D01*
X157844942Y-79503690D01*
X157891714Y-79568066D01*
X158053434Y-79729786D01*
X158238462Y-79864217D01*
X158409506Y-79951368D01*
X158442244Y-79968049D01*
X158659751Y-80038721D01*
X158659752Y-80038721D01*
X158659755Y-80038722D01*
X158885646Y-80074500D01*
X158885647Y-80074500D01*
X159114353Y-80074500D01*
X159114354Y-80074500D01*
X159340245Y-80038722D01*
X159340248Y-80038721D01*
X159340249Y-80038721D01*
X159557755Y-79968049D01*
X159557755Y-79968048D01*
X159557758Y-79968048D01*
X159761538Y-79864217D01*
X159946566Y-79729786D01*
X160108286Y-79568066D01*
X160170888Y-79481902D01*
X161199500Y-79481902D01*
X161199500Y-79718097D01*
X161236446Y-79951368D01*
X161309433Y-80175996D01*
X161416657Y-80386433D01*
X161555483Y-80577510D01*
X161722490Y-80744517D01*
X161913567Y-80883343D01*
X162012991Y-80934002D01*
X162124003Y-80990566D01*
X162124005Y-80990566D01*
X162124008Y-80990568D01*
X162244412Y-81029689D01*
X162348631Y-81063553D01*
X162581903Y-81100500D01*
X162581908Y-81100500D01*
X162818097Y-81100500D01*
X163051368Y-81063553D01*
X163051371Y-81063552D01*
X163275992Y-80990568D01*
X163486433Y-80883343D01*
X163677510Y-80744517D01*
X163844517Y-80577510D01*
X163983343Y-80386433D01*
X164090568Y-80175992D01*
X164163553Y-79951368D01*
X164200500Y-79718097D01*
X164200500Y-79481902D01*
X164163553Y-79248631D01*
X164112155Y-79090446D01*
X164090568Y-79024008D01*
X164090566Y-79024005D01*
X164090566Y-79024003D01*
X163993648Y-78833792D01*
X163983343Y-78813567D01*
X163844517Y-78622490D01*
X163677510Y-78455483D01*
X163486433Y-78316657D01*
X163416943Y-78281250D01*
X163275996Y-78209433D01*
X163051368Y-78136446D01*
X162818097Y-78099500D01*
X162818092Y-78099500D01*
X162581908Y-78099500D01*
X162581903Y-78099500D01*
X162348631Y-78136446D01*
X162124003Y-78209433D01*
X161913566Y-78316657D01*
X161842203Y-78368506D01*
X161722490Y-78455483D01*
X161722488Y-78455485D01*
X161722487Y-78455485D01*
X161555485Y-78622487D01*
X161555485Y-78622488D01*
X161555483Y-78622490D01*
X161503594Y-78693909D01*
X161416657Y-78813566D01*
X161309433Y-79024003D01*
X161236446Y-79248631D01*
X161199500Y-79481902D01*
X160170888Y-79481902D01*
X160242717Y-79383038D01*
X160346548Y-79179258D01*
X160417222Y-78961745D01*
X160453000Y-78735854D01*
X160453000Y-78507146D01*
X160417222Y-78281255D01*
X160417221Y-78281251D01*
X160417221Y-78281250D01*
X160346549Y-78063744D01*
X160242716Y-77859961D01*
X160192181Y-77790406D01*
X160108286Y-77674934D01*
X159946566Y-77513214D01*
X159761538Y-77378783D01*
X159557755Y-77274950D01*
X159340248Y-77204278D01*
X159170826Y-77177444D01*
X159114354Y-77168500D01*
X158885646Y-77168500D01*
X158810349Y-77180426D01*
X158659753Y-77204278D01*
X158659750Y-77204278D01*
X158442244Y-77274950D01*
X158238461Y-77378783D01*
X158165916Y-77431491D01*
X158053434Y-77513214D01*
X158053432Y-77513216D01*
X158053431Y-77513216D01*
X157891716Y-77674931D01*
X157891709Y-77674940D01*
X157844943Y-77739307D01*
X157789613Y-77781973D01*
X157734898Y-77790039D01*
X157688651Y-77786399D01*
X157023787Y-78451264D01*
X157012518Y-78409208D01*
X156940110Y-78283792D01*
X156837708Y-78181390D01*
X156712292Y-78108982D01*
X156670233Y-78097712D01*
X157335099Y-77432847D01*
X157261276Y-77379211D01*
X157057568Y-77275417D01*
X156840124Y-77204765D01*
X156614313Y-77169000D01*
X156385687Y-77169000D01*
X156159875Y-77204765D01*
X156159874Y-77204765D01*
X155942431Y-77275417D01*
X155738719Y-77379213D01*
X155664900Y-77432846D01*
X155664899Y-77432847D01*
X156329765Y-78097712D01*
X156287708Y-78108982D01*
X156162292Y-78181390D01*
X156059890Y-78283792D01*
X155987482Y-78409208D01*
X155976212Y-78451265D01*
X155311347Y-77786399D01*
X155265101Y-77790039D01*
X155261146Y-77789208D01*
X155257289Y-77790406D01*
X155227239Y-77782084D01*
X155196724Y-77775674D01*
X155192729Y-77772528D01*
X155189954Y-77771760D01*
X155180016Y-77762519D01*
X155162926Y-77749062D01*
X155158745Y-77744385D01*
X155108286Y-77674934D01*
X154946566Y-77513214D01*
X154761538Y-77378783D01*
X154557755Y-77274950D01*
X154340248Y-77204278D01*
X154170826Y-77177444D01*
X154114354Y-77168500D01*
X153885646Y-77168500D01*
X153810349Y-77180426D01*
X153659753Y-77204278D01*
X153659750Y-77204278D01*
X153442244Y-77274950D01*
X153238461Y-77378783D01*
X153165916Y-77431491D01*
X153053434Y-77513214D01*
X153053432Y-77513216D01*
X153053431Y-77513216D01*
X152891716Y-77674931D01*
X152891716Y-77674932D01*
X152891714Y-77674934D01*
X152891710Y-77674940D01*
X152757283Y-77859961D01*
X152653450Y-78063744D01*
X152582778Y-78281250D01*
X152582778Y-78281253D01*
X152547000Y-78507146D01*
X135510443Y-78507146D01*
X135581082Y-78368509D01*
X135640447Y-78185801D01*
X135670500Y-77996055D01*
X135670500Y-77803945D01*
X135640447Y-77614199D01*
X135581523Y-77432847D01*
X135581083Y-77431493D01*
X135554226Y-77378783D01*
X135493865Y-77260319D01*
X135380945Y-77104898D01*
X135245102Y-76969055D01*
X135089681Y-76856135D01*
X134918504Y-76768915D01*
X134853919Y-76747931D01*
X134796243Y-76708494D01*
X134769044Y-76644136D01*
X134780958Y-76575289D01*
X134828202Y-76523813D01*
X134853919Y-76512069D01*
X134918504Y-76491084D01*
X134918506Y-76491082D01*
X134918509Y-76491082D01*
X135089681Y-76403865D01*
X135245102Y-76290945D01*
X135380945Y-76155102D01*
X135493865Y-75999681D01*
X135581082Y-75828509D01*
X135640447Y-75645801D01*
X135670500Y-75456055D01*
X135670500Y-75263945D01*
X135640447Y-75074199D01*
X135581082Y-74891491D01*
X135493865Y-74720319D01*
X135380945Y-74564898D01*
X135245102Y-74429055D01*
X135089681Y-74316135D01*
X134918509Y-74228918D01*
X134918508Y-74228917D01*
X134918505Y-74228916D01*
X134853108Y-74207667D01*
X134795432Y-74168229D01*
X134768234Y-74103871D01*
X134780149Y-74035024D01*
X134827393Y-73983549D01*
X134853108Y-73971805D01*
X134918319Y-73950616D01*
X135089419Y-73863436D01*
X135118646Y-73842201D01*
X135118646Y-73842200D01*
X134496447Y-73220000D01*
X134502661Y-73220000D01*
X134604394Y-73192741D01*
X134695606Y-73140080D01*
X134770080Y-73065606D01*
X134822741Y-72974394D01*
X134850000Y-72872661D01*
X134850000Y-72866446D01*
X135472200Y-73488646D01*
X135472201Y-73488646D01*
X135493436Y-73459419D01*
X135580616Y-73288321D01*
X135639959Y-73105684D01*
X135670000Y-72916015D01*
X135670000Y-72723984D01*
X135639959Y-72534315D01*
X135580616Y-72351678D01*
X135493434Y-72180577D01*
X135472201Y-72151352D01*
X135472200Y-72151351D01*
X134850000Y-72773552D01*
X134850000Y-72767339D01*
X134822741Y-72665606D01*
X134770080Y-72574394D01*
X134695606Y-72499920D01*
X134604394Y-72447259D01*
X134502661Y-72420000D01*
X134496447Y-72420000D01*
X135118646Y-71797798D01*
X135089415Y-71776561D01*
X134918321Y-71689383D01*
X134735684Y-71630040D01*
X134546015Y-71600000D01*
X134353985Y-71600000D01*
X134164315Y-71630040D01*
X133981678Y-71689383D01*
X133810578Y-71776564D01*
X133781352Y-71797798D01*
X133781351Y-71797798D01*
X134403554Y-72420000D01*
X134397339Y-72420000D01*
X134295606Y-72447259D01*
X134204394Y-72499920D01*
X134129920Y-72574394D01*
X134077259Y-72665606D01*
X134050000Y-72767339D01*
X134050000Y-72773553D01*
X133427798Y-72151351D01*
X133427798Y-72151352D01*
X133406564Y-72180578D01*
X133319383Y-72351678D01*
X133260040Y-72534315D01*
X133230000Y-72723984D01*
X133230000Y-72916015D01*
X133260040Y-73105684D01*
X133319383Y-73288321D01*
X133406561Y-73459415D01*
X133427798Y-73488646D01*
X134050000Y-72866445D01*
X134050000Y-72872661D01*
X134077259Y-72974394D01*
X134129920Y-73065606D01*
X134204394Y-73140080D01*
X134295606Y-73192741D01*
X134397339Y-73220000D01*
X134403554Y-73220000D01*
X133781351Y-73842200D01*
X133781352Y-73842201D01*
X133810577Y-73863434D01*
X133981680Y-73950616D01*
X134046891Y-73971805D01*
X134104567Y-74011242D01*
X134131765Y-74075601D01*
X134119850Y-74144447D01*
X134072606Y-74195923D01*
X134046892Y-74207667D01*
X133981492Y-74228917D01*
X133810318Y-74316135D01*
X133721645Y-74380560D01*
X133654898Y-74429055D01*
X133654896Y-74429057D01*
X133654895Y-74429057D01*
X133519057Y-74564895D01*
X133519057Y-74564896D01*
X133519055Y-74564898D01*
X133470560Y-74631645D01*
X133406135Y-74720318D01*
X133318916Y-74891493D01*
X133259553Y-75074197D01*
X133229500Y-75263945D01*
X115500500Y-75263945D01*
X115500500Y-58814437D01*
X115750000Y-58814437D01*
X115750000Y-59185562D01*
X115782345Y-59555267D01*
X115782345Y-59555271D01*
X115846787Y-59920735D01*
X115846791Y-59920752D01*
X115942837Y-60279206D01*
X116069775Y-60627963D01*
X116226607Y-60964292D01*
X116226615Y-60964307D01*
X116412166Y-61285690D01*
X116412175Y-61285705D01*
X116625040Y-61589707D01*
X116822005Y-61824439D01*
X116822006Y-61824440D01*
X118313098Y-60333348D01*
X118380076Y-60420635D01*
X118579365Y-60619924D01*
X118666650Y-60686900D01*
X117175558Y-62177992D01*
X117175559Y-62177993D01*
X117410292Y-62374959D01*
X117714294Y-62587824D01*
X117714309Y-62587833D01*
X118035692Y-62773384D01*
X118035707Y-62773392D01*
X118372036Y-62930224D01*
X118720793Y-63057162D01*
X119079247Y-63153208D01*
X119079264Y-63153212D01*
X119444730Y-63217654D01*
X119814437Y-63249999D01*
X119814440Y-63250000D01*
X120185560Y-63250000D01*
X120185562Y-63249999D01*
X120555267Y-63217654D01*
X120555271Y-63217654D01*
X120920735Y-63153212D01*
X120920752Y-63153208D01*
X121279206Y-63057162D01*
X121627963Y-62930224D01*
X121964292Y-62773392D01*
X121964307Y-62773384D01*
X122285690Y-62587833D01*
X122285705Y-62587824D01*
X122589700Y-62374964D01*
X122824439Y-62177993D01*
X122824440Y-62177992D01*
X122501833Y-61855385D01*
X150999500Y-61855385D01*
X150999500Y-61875235D01*
X150999500Y-62287615D01*
X151033412Y-62718513D01*
X151101028Y-63145422D01*
X151201930Y-63565710D01*
X151201934Y-63565721D01*
X151335494Y-63976780D01*
X151406887Y-64149138D01*
X151500904Y-64376115D01*
X151595985Y-64562721D01*
X151697136Y-64761240D01*
X151697142Y-64761251D01*
X151922966Y-65129762D01*
X151922971Y-65129769D01*
X151922973Y-65129772D01*
X152040147Y-65291049D01*
X152177025Y-65479446D01*
X152177035Y-65479460D01*
X152319656Y-65646446D01*
X152457743Y-65808124D01*
X152763376Y-66113757D01*
X152763382Y-66113762D01*
X153092039Y-66394464D01*
X153092046Y-66394469D01*
X153441728Y-66648527D01*
X153441732Y-66648529D01*
X153441737Y-66648533D01*
X153810248Y-66874357D01*
X153810254Y-66874360D01*
X153810265Y-66874367D01*
X154195385Y-67070596D01*
X154594714Y-67236003D01*
X154594719Y-67236005D01*
X154699240Y-67269965D01*
X155005790Y-67369570D01*
X155426078Y-67470472D01*
X155852987Y-67538088D01*
X156283885Y-67572000D01*
X156283893Y-67572000D01*
X156716107Y-67572000D01*
X156716115Y-67572000D01*
X157147013Y-67538088D01*
X157573922Y-67470472D01*
X157994210Y-67369570D01*
X158238276Y-67290267D01*
X158296365Y-67271394D01*
X158405280Y-67236005D01*
X158405280Y-67236004D01*
X158405286Y-67236003D01*
X158804615Y-67070596D01*
X159189735Y-66874367D01*
X159558272Y-66648527D01*
X159907954Y-66394469D01*
X160236624Y-66113757D01*
X160468367Y-65882014D01*
X171800000Y-65882014D01*
X171800000Y-66117985D01*
X171830799Y-66351914D01*
X171891870Y-66579837D01*
X171982160Y-66797819D01*
X171982165Y-66797828D01*
X172100144Y-67002171D01*
X172100145Y-67002172D01*
X172162721Y-67083723D01*
X172884152Y-66362292D01*
X172891049Y-66378942D01*
X172978599Y-66509970D01*
X173090030Y-66621401D01*
X173221058Y-66708951D01*
X173237706Y-66715846D01*
X172516275Y-67437277D01*
X172597827Y-67499854D01*
X172597828Y-67499855D01*
X172802171Y-67617834D01*
X172802180Y-67617839D01*
X173020163Y-67708129D01*
X173020161Y-67708129D01*
X173248085Y-67769200D01*
X173482014Y-67799999D01*
X173482029Y-67800000D01*
X173717971Y-67800000D01*
X173717985Y-67799999D01*
X173951914Y-67769200D01*
X174179837Y-67708129D01*
X174397819Y-67617839D01*
X174397828Y-67617834D01*
X174473602Y-67574086D01*
X174541502Y-67557613D01*
X174607529Y-67580465D01*
X174650720Y-67635386D01*
X174657362Y-67704939D01*
X174650164Y-67728925D01*
X174578842Y-67901111D01*
X174578842Y-67901112D01*
X174519453Y-68122759D01*
X174519451Y-68122770D01*
X174489500Y-68350258D01*
X174489500Y-68579741D01*
X174514446Y-68769215D01*
X174519452Y-68807238D01*
X174519453Y-68807240D01*
X174578842Y-69028887D01*
X174666650Y-69240876D01*
X174666656Y-69240888D01*
X174742278Y-69371870D01*
X174761315Y-69404842D01*
X174777788Y-69472742D01*
X174754935Y-69538769D01*
X174700014Y-69581960D01*
X174630461Y-69588601D01*
X174591928Y-69574229D01*
X174397835Y-69462168D01*
X174397819Y-69462160D01*
X174179836Y-69371870D01*
X174179838Y-69371870D01*
X173951914Y-69310799D01*
X173717985Y-69280000D01*
X173482014Y-69280000D01*
X173248085Y-69310799D01*
X173020162Y-69371870D01*
X172802180Y-69462160D01*
X172802171Y-69462165D01*
X172597828Y-69580144D01*
X172597818Y-69580150D01*
X172516275Y-69642720D01*
X172516275Y-69642721D01*
X173237706Y-70364152D01*
X173221058Y-70371049D01*
X173090030Y-70458599D01*
X172978599Y-70570030D01*
X172891049Y-70701058D01*
X172884152Y-70717706D01*
X172162721Y-69996275D01*
X172162720Y-69996275D01*
X172100150Y-70077818D01*
X172100144Y-70077828D01*
X171982165Y-70282171D01*
X171982160Y-70282180D01*
X171891870Y-70500162D01*
X171830799Y-70728085D01*
X171800000Y-70962014D01*
X171800000Y-71197985D01*
X171830799Y-71431914D01*
X171891870Y-71659837D01*
X171982160Y-71877819D01*
X171982165Y-71877828D01*
X172100144Y-72082171D01*
X172100145Y-72082172D01*
X172162721Y-72163723D01*
X172884152Y-71442292D01*
X172891049Y-71458942D01*
X172978599Y-71589970D01*
X173090030Y-71701401D01*
X173221058Y-71788951D01*
X173237705Y-71795846D01*
X172516275Y-72517277D01*
X172597827Y-72579854D01*
X172597828Y-72579855D01*
X172802171Y-72697834D01*
X172802180Y-72697839D01*
X173020163Y-72788129D01*
X173020161Y-72788129D01*
X173248085Y-72849200D01*
X173482014Y-72879999D01*
X173482029Y-72880000D01*
X173717971Y-72880000D01*
X173717985Y-72879999D01*
X173951914Y-72849200D01*
X174179837Y-72788129D01*
X174397819Y-72697839D01*
X174397828Y-72697834D01*
X174602171Y-72579855D01*
X174602180Y-72579849D01*
X174790014Y-72435720D01*
X174855183Y-72410526D01*
X174923628Y-72424564D01*
X174973617Y-72473378D01*
X174989500Y-72534096D01*
X174989500Y-85638422D01*
X175020290Y-85832826D01*
X175081117Y-86020030D01*
X175160488Y-86175802D01*
X175170476Y-86195405D01*
X175286172Y-86354646D01*
X176285355Y-87353829D01*
X176444595Y-87469524D01*
X176527454Y-87511742D01*
X176619969Y-87558882D01*
X176619971Y-87558882D01*
X176619974Y-87558884D01*
X176692004Y-87582288D01*
X176807173Y-87619709D01*
X177001578Y-87650500D01*
X177001583Y-87650500D01*
X177001584Y-87650500D01*
X177198417Y-87650500D01*
X177725500Y-87650500D01*
X177792539Y-87670185D01*
X177838294Y-87722989D01*
X177849500Y-87774500D01*
X177849500Y-90898422D01*
X177880290Y-91092826D01*
X177941117Y-91280030D01*
X177992055Y-91380000D01*
X178030476Y-91455405D01*
X178146172Y-91614646D01*
X178146174Y-91614648D01*
X181199216Y-94667690D01*
X181232701Y-94729013D01*
X181234008Y-94735970D01*
X181236447Y-94751368D01*
X181309432Y-94975992D01*
X181416657Y-95186433D01*
X181555483Y-95377510D01*
X181722490Y-95544517D01*
X181913567Y-95683343D01*
X182012991Y-95734002D01*
X182124003Y-95790566D01*
X182124005Y-95790566D01*
X182124008Y-95790568D01*
X182244412Y-95829689D01*
X182348631Y-95863553D01*
X182581903Y-95900500D01*
X182581908Y-95900500D01*
X182818097Y-95900500D01*
X183051368Y-95863553D01*
X183052870Y-95863065D01*
X183275992Y-95790568D01*
X183486433Y-95683343D01*
X183677510Y-95544517D01*
X183844517Y-95377510D01*
X183983343Y-95186433D01*
X184090568Y-94975992D01*
X184163553Y-94751368D01*
X184188637Y-94592993D01*
X184200500Y-94518097D01*
X184200500Y-94281902D01*
X184163553Y-94048631D01*
X184105221Y-93869105D01*
X184090568Y-93824008D01*
X184090566Y-93824005D01*
X184090566Y-93824003D01*
X183983477Y-93613830D01*
X183983343Y-93613567D01*
X183844517Y-93422490D01*
X183677510Y-93255483D01*
X183486433Y-93116657D01*
X183275992Y-93009432D01*
X183051368Y-92936447D01*
X183044034Y-92935285D01*
X183035970Y-92934008D01*
X182972836Y-92904077D01*
X182967690Y-92899216D01*
X180386819Y-90318345D01*
X180353334Y-90257022D01*
X180350500Y-90230664D01*
X180350500Y-85481947D01*
X181200000Y-85481947D01*
X181200000Y-85718052D01*
X181236934Y-85951247D01*
X181309897Y-86175802D01*
X181417087Y-86386174D01*
X181477338Y-86469104D01*
X181477340Y-86469105D01*
X182217037Y-85729408D01*
X182234075Y-85792993D01*
X182299901Y-85907007D01*
X182392993Y-86000099D01*
X182507007Y-86065925D01*
X182570590Y-86082962D01*
X181830893Y-86822658D01*
X181913828Y-86882914D01*
X182124197Y-86990102D01*
X182348752Y-87063065D01*
X182348751Y-87063065D01*
X182581948Y-87100000D01*
X182818052Y-87100000D01*
X183051247Y-87063065D01*
X183275802Y-86990102D01*
X183486163Y-86882918D01*
X183486169Y-86882914D01*
X183569104Y-86822658D01*
X183569105Y-86822658D01*
X182829408Y-86082962D01*
X182892993Y-86065925D01*
X183007007Y-86000099D01*
X183100099Y-85907007D01*
X183165925Y-85792993D01*
X183182962Y-85729409D01*
X183922658Y-86469105D01*
X183922658Y-86469104D01*
X183982914Y-86386169D01*
X183982918Y-86386163D01*
X184090102Y-86175802D01*
X184163065Y-85951247D01*
X184200000Y-85718052D01*
X184200000Y-85481947D01*
X184163065Y-85248752D01*
X184090102Y-85024197D01*
X183982914Y-84813828D01*
X183922658Y-84730894D01*
X183922658Y-84730893D01*
X183182962Y-85470590D01*
X183165925Y-85407007D01*
X183100099Y-85292993D01*
X183007007Y-85199901D01*
X182892993Y-85134075D01*
X182829409Y-85117037D01*
X183569105Y-84377340D01*
X183569104Y-84377338D01*
X183486174Y-84317087D01*
X183275802Y-84209897D01*
X183051247Y-84136934D01*
X183051248Y-84136934D01*
X182818052Y-84100000D01*
X182581948Y-84100000D01*
X182348752Y-84136934D01*
X182124197Y-84209897D01*
X181913830Y-84317084D01*
X181830894Y-84377340D01*
X182570591Y-85117037D01*
X182507007Y-85134075D01*
X182392993Y-85199901D01*
X182299901Y-85292993D01*
X182234075Y-85407007D01*
X182217037Y-85470590D01*
X181477340Y-84730894D01*
X181417084Y-84813830D01*
X181309897Y-85024197D01*
X181236934Y-85248752D01*
X181200000Y-85481947D01*
X180350500Y-85481947D01*
X180350500Y-83769335D01*
X180370185Y-83702296D01*
X180386814Y-83681659D01*
X182967691Y-81100781D01*
X183029012Y-81067298D01*
X183035947Y-81065995D01*
X183051368Y-81063553D01*
X183275992Y-80990568D01*
X183486433Y-80883343D01*
X183677510Y-80744517D01*
X183844517Y-80577510D01*
X183983343Y-80386433D01*
X184090568Y-80175992D01*
X184163553Y-79951368D01*
X184200500Y-79718097D01*
X184200500Y-79481902D01*
X184163553Y-79248631D01*
X184112155Y-79090446D01*
X184090568Y-79024008D01*
X184090566Y-79024005D01*
X184090566Y-79024003D01*
X183993648Y-78833792D01*
X183983343Y-78813567D01*
X183844517Y-78622490D01*
X183677510Y-78455483D01*
X183486433Y-78316657D01*
X183416943Y-78281250D01*
X183275996Y-78209433D01*
X183051368Y-78136446D01*
X182818097Y-78099500D01*
X182818092Y-78099500D01*
X182581908Y-78099500D01*
X182581903Y-78099500D01*
X182348631Y-78136446D01*
X182124003Y-78209433D01*
X181913566Y-78316657D01*
X181842203Y-78368506D01*
X181722490Y-78455483D01*
X181722488Y-78455485D01*
X181722487Y-78455485D01*
X181555485Y-78622487D01*
X181555485Y-78622488D01*
X181555483Y-78622490D01*
X181503594Y-78693909D01*
X181416657Y-78813566D01*
X181309433Y-79024005D01*
X181236447Y-79248631D01*
X181234008Y-79264030D01*
X181204076Y-79327163D01*
X181199216Y-79332308D01*
X178146174Y-82385351D01*
X178146172Y-82385354D01*
X178096485Y-82453741D01*
X178030476Y-82544594D01*
X177940669Y-82720851D01*
X177939608Y-82724612D01*
X177880291Y-82907169D01*
X177880291Y-82907172D01*
X177849500Y-83101577D01*
X177849500Y-85025500D01*
X177846949Y-85034185D01*
X177848238Y-85043147D01*
X177837259Y-85067187D01*
X177829815Y-85092539D01*
X177822974Y-85098466D01*
X177819213Y-85106703D01*
X177796978Y-85120992D01*
X177777011Y-85138294D01*
X177766496Y-85140581D01*
X177760435Y-85144477D01*
X177725500Y-85149500D01*
X177669336Y-85149500D01*
X177602297Y-85129815D01*
X177581655Y-85113181D01*
X177526819Y-85058345D01*
X177493334Y-84997022D01*
X177490500Y-84970664D01*
X177490500Y-72686476D01*
X177510185Y-72619437D01*
X177562989Y-72573682D01*
X177632147Y-72563738D01*
X177676501Y-72579089D01*
X177882171Y-72697834D01*
X177882180Y-72697839D01*
X178100163Y-72788129D01*
X178100161Y-72788129D01*
X178328085Y-72849200D01*
X178562014Y-72879999D01*
X178562029Y-72880000D01*
X178797971Y-72880000D01*
X178797985Y-72879999D01*
X179031914Y-72849200D01*
X179259837Y-72788129D01*
X179477819Y-72697839D01*
X179477828Y-72697834D01*
X179682181Y-72579850D01*
X179763723Y-72517279D01*
X179763723Y-72517276D01*
X179042293Y-71795846D01*
X179058942Y-71788951D01*
X179189970Y-71701401D01*
X179301401Y-71589970D01*
X179388951Y-71458942D01*
X179395846Y-71442293D01*
X180117276Y-72163723D01*
X180117279Y-72163723D01*
X180179850Y-72082181D01*
X180297834Y-71877828D01*
X180297839Y-71877819D01*
X180388129Y-71659837D01*
X180449200Y-71431914D01*
X180479999Y-71197985D01*
X180480000Y-71197971D01*
X180480000Y-70962028D01*
X180479999Y-70962014D01*
X180449200Y-70728085D01*
X180388129Y-70500162D01*
X180297839Y-70282180D01*
X180297834Y-70282171D01*
X180179855Y-70077828D01*
X180179854Y-70077827D01*
X180117277Y-69996275D01*
X179395846Y-70717705D01*
X179388951Y-70701058D01*
X179301401Y-70570030D01*
X179189970Y-70458599D01*
X179058942Y-70371049D01*
X179042291Y-70364152D01*
X179763723Y-69642721D01*
X179682172Y-69580145D01*
X179682171Y-69580144D01*
X179477828Y-69462165D01*
X179477819Y-69462160D01*
X179259836Y-69371870D01*
X179259838Y-69371870D01*
X179031914Y-69310799D01*
X178797985Y-69280000D01*
X178562014Y-69280000D01*
X178328085Y-69310799D01*
X178100162Y-69371870D01*
X177961286Y-69429394D01*
X177891817Y-69436863D01*
X177829338Y-69405587D01*
X177793686Y-69345498D01*
X177796180Y-69275673D01*
X177806449Y-69252830D01*
X177813344Y-69240888D01*
X177901158Y-69028887D01*
X177960548Y-68807238D01*
X177990500Y-68579734D01*
X177990500Y-68350266D01*
X177960548Y-68122762D01*
X177901158Y-67901113D01*
X177878010Y-67845230D01*
X177870542Y-67775763D01*
X177901817Y-67713284D01*
X177961906Y-67677632D01*
X178031731Y-67680126D01*
X178040025Y-67683219D01*
X178100165Y-67708130D01*
X178328085Y-67769200D01*
X178562014Y-67799999D01*
X178562029Y-67800000D01*
X178797971Y-67800000D01*
X178797985Y-67799999D01*
X179031914Y-67769200D01*
X179259837Y-67708129D01*
X179477819Y-67617839D01*
X179477828Y-67617834D01*
X179682181Y-67499850D01*
X179763723Y-67437279D01*
X179763723Y-67437276D01*
X179042293Y-66715847D01*
X179058942Y-66708951D01*
X179189970Y-66621401D01*
X179301401Y-66509970D01*
X179388951Y-66378942D01*
X179395846Y-66362293D01*
X180117276Y-67083723D01*
X180117279Y-67083723D01*
X180179850Y-67002181D01*
X180297834Y-66797828D01*
X180297839Y-66797819D01*
X180388129Y-66579837D01*
X180449200Y-66351914D01*
X180479999Y-66117985D01*
X180480000Y-66117971D01*
X180480000Y-65882028D01*
X180479999Y-65882014D01*
X180449200Y-65648085D01*
X180388129Y-65420162D01*
X180297839Y-65202180D01*
X180297834Y-65202171D01*
X180179855Y-64997828D01*
X180179854Y-64997827D01*
X180117277Y-64916275D01*
X179395846Y-65637705D01*
X179388951Y-65621058D01*
X179301401Y-65490030D01*
X179189970Y-65378599D01*
X179058942Y-65291049D01*
X179042293Y-65284152D01*
X179763723Y-64562721D01*
X179682172Y-64500145D01*
X179682171Y-64500144D01*
X179477828Y-64382165D01*
X179477819Y-64382160D01*
X179259836Y-64291870D01*
X179259838Y-64291870D01*
X179031914Y-64230799D01*
X178797985Y-64200000D01*
X178562014Y-64200000D01*
X178328085Y-64230799D01*
X178100162Y-64291870D01*
X177882180Y-64382160D01*
X177882171Y-64382165D01*
X177677828Y-64500144D01*
X177677818Y-64500150D01*
X177596275Y-64562720D01*
X177596275Y-64562721D01*
X178317706Y-65284152D01*
X178301058Y-65291049D01*
X178170030Y-65378599D01*
X178058599Y-65490030D01*
X177971049Y-65621058D01*
X177964152Y-65637706D01*
X177242721Y-64916275D01*
X177242720Y-64916275D01*
X177180150Y-64997818D01*
X177180144Y-64997828D01*
X177062165Y-65202171D01*
X177062160Y-65202180D01*
X176971870Y-65420162D01*
X176910799Y-65648085D01*
X176880000Y-65882014D01*
X176880000Y-66117985D01*
X176910799Y-66351914D01*
X176971870Y-66579837D01*
X177004102Y-66657653D01*
X177011571Y-66727123D01*
X176980295Y-66789602D01*
X176920206Y-66825253D01*
X176850381Y-66822759D01*
X176842101Y-66819671D01*
X176803887Y-66803842D01*
X176803885Y-66803841D01*
X176803884Y-66803841D01*
X176738035Y-66786197D01*
X176582238Y-66744452D01*
X176544215Y-66739446D01*
X176354741Y-66714500D01*
X176354734Y-66714500D01*
X176125266Y-66714500D01*
X176125258Y-66714500D01*
X175908715Y-66743009D01*
X175897762Y-66744452D01*
X175805187Y-66769257D01*
X175676112Y-66803842D01*
X175464123Y-66891650D01*
X175464106Y-66891659D01*
X175405696Y-66925381D01*
X175337796Y-66941852D01*
X175271769Y-66918999D01*
X175228580Y-66864077D01*
X175221939Y-66794524D01*
X175229137Y-66770540D01*
X175308130Y-66579834D01*
X175369200Y-66351914D01*
X175399999Y-66117985D01*
X175400000Y-66117971D01*
X175400000Y-65882028D01*
X175399999Y-65882014D01*
X175369200Y-65648085D01*
X175308129Y-65420162D01*
X175217839Y-65202180D01*
X175217834Y-65202171D01*
X175099855Y-64997828D01*
X175099854Y-64997827D01*
X175037277Y-64916275D01*
X174315846Y-65637706D01*
X174308951Y-65621058D01*
X174221401Y-65490030D01*
X174109970Y-65378599D01*
X173978942Y-65291049D01*
X173962293Y-65284152D01*
X174683723Y-64562721D01*
X174602172Y-64500145D01*
X174602171Y-64500144D01*
X174397828Y-64382165D01*
X174397819Y-64382160D01*
X174179836Y-64291870D01*
X174179838Y-64291870D01*
X173951914Y-64230799D01*
X173717985Y-64200000D01*
X173482014Y-64200000D01*
X173248085Y-64230799D01*
X173020162Y-64291870D01*
X172802180Y-64382160D01*
X172802171Y-64382165D01*
X172597828Y-64500144D01*
X172597818Y-64500150D01*
X172516275Y-64562720D01*
X172516275Y-64562721D01*
X173237706Y-65284152D01*
X173221058Y-65291049D01*
X173090030Y-65378599D01*
X172978599Y-65490030D01*
X172891049Y-65621058D01*
X172884152Y-65637706D01*
X172162721Y-64916275D01*
X172162720Y-64916275D01*
X172100150Y-64997818D01*
X172100144Y-64997828D01*
X171982165Y-65202171D01*
X171982160Y-65202180D01*
X171891870Y-65420162D01*
X171830799Y-65648085D01*
X171800000Y-65882014D01*
X160468367Y-65882014D01*
X160542257Y-65808124D01*
X160577681Y-65766649D01*
X160822964Y-65479460D01*
X160822964Y-65479459D01*
X160822969Y-65479454D01*
X161077027Y-65129772D01*
X161302867Y-64761235D01*
X161499096Y-64376115D01*
X161664503Y-63976786D01*
X161798070Y-63565710D01*
X161898972Y-63145422D01*
X161966588Y-62718513D01*
X162000500Y-62287615D01*
X162000500Y-61855385D01*
X161966588Y-61424487D01*
X161898972Y-60997578D01*
X161798070Y-60577290D01*
X161664503Y-60166214D01*
X161499096Y-59766885D01*
X161302867Y-59381765D01*
X161182634Y-59185562D01*
X161077033Y-59013237D01*
X161077029Y-59013232D01*
X161077027Y-59013228D01*
X160932597Y-58814437D01*
X175750000Y-58814437D01*
X175750000Y-59185562D01*
X175782345Y-59555267D01*
X175782345Y-59555271D01*
X175846787Y-59920735D01*
X175846791Y-59920752D01*
X175942837Y-60279206D01*
X176069775Y-60627963D01*
X176226607Y-60964292D01*
X176226615Y-60964307D01*
X176412166Y-61285690D01*
X176412175Y-61285705D01*
X176625040Y-61589707D01*
X176822005Y-61824439D01*
X176822006Y-61824440D01*
X178313098Y-60333348D01*
X178380076Y-60420635D01*
X178579365Y-60619924D01*
X178666650Y-60686900D01*
X177175558Y-62177992D01*
X177175559Y-62177993D01*
X177410292Y-62374959D01*
X177714294Y-62587824D01*
X177714309Y-62587833D01*
X178035692Y-62773384D01*
X178035707Y-62773392D01*
X178372036Y-62930224D01*
X178720793Y-63057162D01*
X179079247Y-63153208D01*
X179079264Y-63153212D01*
X179444730Y-63217654D01*
X179814437Y-63249999D01*
X179814440Y-63250000D01*
X180185560Y-63250000D01*
X180185562Y-63249999D01*
X180555267Y-63217654D01*
X180555271Y-63217654D01*
X180920735Y-63153212D01*
X180920752Y-63153208D01*
X181279206Y-63057162D01*
X181627963Y-62930224D01*
X181964292Y-62773392D01*
X181964307Y-62773384D01*
X182285690Y-62587833D01*
X182285705Y-62587824D01*
X182589700Y-62374964D01*
X182824439Y-62177993D01*
X182824440Y-62177992D01*
X181333348Y-60686901D01*
X181420635Y-60619924D01*
X181619924Y-60420635D01*
X181686900Y-60333348D01*
X183177992Y-61824440D01*
X183177993Y-61824439D01*
X183374964Y-61589700D01*
X183587824Y-61285705D01*
X183587833Y-61285690D01*
X183773384Y-60964307D01*
X183773392Y-60964292D01*
X183930224Y-60627963D01*
X184057162Y-60279206D01*
X184153208Y-59920752D01*
X184153212Y-59920735D01*
X184217654Y-59555271D01*
X184217654Y-59555267D01*
X184249999Y-59185562D01*
X184250000Y-59185560D01*
X184250000Y-58814440D01*
X184249999Y-58814437D01*
X184217654Y-58444732D01*
X184217654Y-58444728D01*
X184153212Y-58079264D01*
X184153208Y-58079247D01*
X184057162Y-57720793D01*
X183930224Y-57372036D01*
X183773392Y-57035707D01*
X183773384Y-57035692D01*
X183587833Y-56714309D01*
X183587824Y-56714294D01*
X183374959Y-56410292D01*
X183177993Y-56175559D01*
X183177992Y-56175558D01*
X181686900Y-57666650D01*
X181619924Y-57579365D01*
X181420635Y-57380076D01*
X181333347Y-57313098D01*
X182824440Y-55822006D01*
X182824439Y-55822005D01*
X182589707Y-55625040D01*
X182285705Y-55412175D01*
X182285690Y-55412166D01*
X181964307Y-55226615D01*
X181964292Y-55226607D01*
X181627963Y-55069775D01*
X181279206Y-54942837D01*
X180920752Y-54846791D01*
X180920735Y-54846787D01*
X180555269Y-54782345D01*
X180185562Y-54750000D01*
X179814437Y-54750000D01*
X179444732Y-54782345D01*
X179444728Y-54782345D01*
X179079264Y-54846787D01*
X179079247Y-54846791D01*
X178720793Y-54942837D01*
X178372036Y-55069775D01*
X178035707Y-55226607D01*
X178035692Y-55226615D01*
X177714309Y-55412166D01*
X177714294Y-55412175D01*
X177410292Y-55625040D01*
X177175559Y-55822005D01*
X177175558Y-55822006D01*
X178666651Y-57313098D01*
X178579365Y-57380076D01*
X178380076Y-57579365D01*
X178313098Y-57666651D01*
X176822006Y-56175558D01*
X176822005Y-56175559D01*
X176625040Y-56410292D01*
X176412175Y-56714294D01*
X176412166Y-56714309D01*
X176226615Y-57035692D01*
X176226607Y-57035707D01*
X176069775Y-57372036D01*
X175942837Y-57720793D01*
X175846791Y-58079247D01*
X175846787Y-58079264D01*
X175782345Y-58444728D01*
X175782345Y-58444732D01*
X175750000Y-58814437D01*
X160932597Y-58814437D01*
X160822969Y-58663546D01*
X160822964Y-58663539D01*
X160542262Y-58334882D01*
X160542257Y-58334876D01*
X160236624Y-58029243D01*
X160102283Y-57914504D01*
X159907960Y-57748535D01*
X159907946Y-57748525D01*
X159558273Y-57494474D01*
X159558262Y-57494466D01*
X159189751Y-57268642D01*
X159189740Y-57268636D01*
X159189739Y-57268635D01*
X159189735Y-57268633D01*
X158804615Y-57072404D01*
X158676677Y-57019410D01*
X158405280Y-56906994D01*
X158112796Y-56811961D01*
X157994210Y-56773430D01*
X157573922Y-56672528D01*
X157147013Y-56604912D01*
X156716120Y-56571000D01*
X156716115Y-56571000D01*
X156283885Y-56571000D01*
X156283879Y-56571000D01*
X155852986Y-56604912D01*
X155852985Y-56604912D01*
X155426083Y-56672527D01*
X155426080Y-56672527D01*
X155426078Y-56672528D01*
X155275562Y-56708663D01*
X155005801Y-56773427D01*
X155005795Y-56773428D01*
X155005790Y-56773430D01*
X155005778Y-56773434D01*
X154594719Y-56906994D01*
X154195387Y-57072403D01*
X153810259Y-57268636D01*
X153810248Y-57268642D01*
X153441737Y-57494466D01*
X153441726Y-57494474D01*
X153092053Y-57748525D01*
X153092039Y-57748535D01*
X152763382Y-58029237D01*
X152763368Y-58029250D01*
X152457750Y-58334868D01*
X152457737Y-58334882D01*
X152177035Y-58663539D01*
X152177025Y-58663553D01*
X151922974Y-59013226D01*
X151922966Y-59013237D01*
X151697142Y-59381748D01*
X151697136Y-59381759D01*
X151500903Y-59766887D01*
X151335494Y-60166219D01*
X151201934Y-60577278D01*
X151201927Y-60577301D01*
X151168035Y-60718474D01*
X151116673Y-60932414D01*
X151101027Y-60997583D01*
X151033412Y-61424485D01*
X151033412Y-61424486D01*
X151005965Y-61773244D01*
X150999500Y-61855385D01*
X122501833Y-61855385D01*
X121333348Y-60686901D01*
X121420635Y-60619924D01*
X121619924Y-60420635D01*
X121686900Y-60333348D01*
X123177992Y-61824440D01*
X123177993Y-61824439D01*
X123220952Y-61773244D01*
X123374964Y-61589700D01*
X123587824Y-61285705D01*
X123587833Y-61285690D01*
X123773384Y-60964307D01*
X123773392Y-60964292D01*
X123930224Y-60627963D01*
X124057162Y-60279206D01*
X124153208Y-59920752D01*
X124153212Y-59920735D01*
X124217654Y-59555271D01*
X124217654Y-59555267D01*
X124249999Y-59185562D01*
X124250000Y-59185560D01*
X124250000Y-58814440D01*
X124249999Y-58814437D01*
X124217654Y-58444732D01*
X124217654Y-58444728D01*
X124153212Y-58079264D01*
X124153208Y-58079247D01*
X124057162Y-57720793D01*
X123930224Y-57372036D01*
X123773392Y-57035707D01*
X123773384Y-57035692D01*
X123587833Y-56714309D01*
X123587824Y-56714294D01*
X123374959Y-56410292D01*
X123177993Y-56175559D01*
X123177992Y-56175558D01*
X121686900Y-57666650D01*
X121619924Y-57579365D01*
X121420635Y-57380076D01*
X121333347Y-57313098D01*
X122824440Y-55822006D01*
X122824439Y-55822005D01*
X122589707Y-55625040D01*
X122285705Y-55412175D01*
X122285690Y-55412166D01*
X121964307Y-55226615D01*
X121964292Y-55226607D01*
X121627963Y-55069775D01*
X121279206Y-54942837D01*
X120920752Y-54846791D01*
X120920735Y-54846787D01*
X120555269Y-54782345D01*
X120185562Y-54750000D01*
X119814437Y-54750000D01*
X119444732Y-54782345D01*
X119444728Y-54782345D01*
X119079264Y-54846787D01*
X119079247Y-54846791D01*
X118720793Y-54942837D01*
X118372036Y-55069775D01*
X118035707Y-55226607D01*
X118035692Y-55226615D01*
X117714309Y-55412166D01*
X117714294Y-55412175D01*
X117410292Y-55625040D01*
X117175559Y-55822005D01*
X117175558Y-55822006D01*
X118666651Y-57313098D01*
X118579365Y-57380076D01*
X118380076Y-57579365D01*
X118313098Y-57666651D01*
X116822006Y-56175558D01*
X116822005Y-56175559D01*
X116625040Y-56410292D01*
X116412175Y-56714294D01*
X116412166Y-56714309D01*
X116226615Y-57035692D01*
X116226607Y-57035707D01*
X116069775Y-57372036D01*
X115942837Y-57720793D01*
X115846791Y-58079247D01*
X115846787Y-58079264D01*
X115782345Y-58444728D01*
X115782345Y-58444732D01*
X115750000Y-58814437D01*
X115500500Y-58814437D01*
X115500500Y-54624500D01*
X115520185Y-54557461D01*
X115572989Y-54511706D01*
X115624500Y-54500500D01*
X185375500Y-54500500D01*
X185442539Y-54520185D01*
G37*
G04 #@! TD.AperFunction*
M02*
