M48
; DRILL file {KiCad 9.0.1} date 2025-05-04T20:25:14-0400
; FORMAT={-:-/ absolute / metric / decimal}
; #@! TF.CreationDate,2025-05-04T20:25:14-04:00
; #@! TF.GenerationSoftware,Kicad,Pcbnew,9.0.1
; #@! TF.FileFunction,Plated,1,2,PTH
FMAT,2
METRIC
; #@! TA.AperFunction,Plated,PTH,ViaDrill
T1C0.500
; #@! TA.AperFunction,Plated,PTH,ComponentDrill
T2C0.800
; #@! TA.AperFunction,Plated,PTH,ComponentDrill
T3C1.000
; #@! TA.AperFunction,Plated,PTH,ComponentDrill
T4C1.100
; #@! TA.AperFunction,Plated,PTH,ComponentDrill
T5C1.200
; #@! TA.AperFunction,Plated,PTH,ComponentDrill
T6C1.500
; #@! TA.AperFunction,Plated,PTH,ComponentDrill
T7C1.600
; #@! TA.AperFunction,Plated,PTH,ComponentDrill
T8C4.300
%
G90
G05
T1
X129.0Y-97.9
X131.0Y-106.5
X131.295Y-117.5
X133.1Y-116.3
X133.15Y-88.65
X133.2Y-82.1
X133.6Y-120.7
X134.25Y-104.35
X135.7Y-88.65
X136.0Y-76.8
X137.0Y-125.8
X138.4Y-119.3
X138.5Y-122.2
X140.3Y-107.6
X141.25Y-97.3
X141.4Y-79.9
X141.75Y-100.7
X142.8Y-122.4
X143.2Y-68.3
X143.3Y-120.95
X144.8Y-115.4
X145.1Y-79.3
X145.3Y-82.75
X145.5Y-125.7
X148.7Y-90.0
X149.1Y-103.8
X149.3Y-65.85
X149.35Y-100.3
X149.6Y-76.0
X150.0Y-82.95
X151.1Y-122.0
X151.2Y-105.9
X151.5Y-130.25
X151.7Y-84.85
X151.9Y-101.9
X152.05Y-77.95
X152.05Y-79.4
X152.15Y-133.2
X152.3Y-99.8
X152.45Y-94.75
X153.0Y-76.8
X153.0Y-97.8
X153.2Y-56.0
X154.6Y-81.6
X154.65Y-83.7
X154.65Y-96.2
X155.15Y-107.0
X155.2Y-103.55
X155.25Y-76.95
X155.5Y-80.35
X155.55Y-100.0
X156.15Y-137.3
X156.4Y-103.85
X156.45Y-80.95
X156.5Y-76.5
X156.75Y-99.8
X156.9Y-85.4
X156.9Y-94.6
X157.2Y-98.6
X157.4Y-82.85
X157.45Y-80.4
X157.75Y-76.95
X157.85Y-100.15
X159.1Y-105.85
X159.25Y-99.75
X159.5Y-91.8
X159.6Y-88.1
X160.0Y-56.1
X160.15Y-133.2
X160.45Y-77.05
X160.55Y-100.5
X160.7Y-95.6
X160.85Y-103.3
X160.9Y-84.4
X161.05Y-78.3
X161.1Y-92.8
X161.2Y-87.1
X162.7Y-90.0
X163.5Y-65.8
X163.75Y-134.1
X163.8Y-90.0
X163.9Y-130.4
X164.2Y-84.1
X164.3Y-81.0
X164.3Y-96.0
X164.5Y-105.3
X164.5Y-114.0
X164.6Y-88.1
X164.6Y-91.9
X164.6Y-99.3
X164.8Y-123.7
X164.9Y-90.0
X166.0Y-90.0
X167.4Y-88.4
X168.2Y-129.8
X168.9Y-90.5
X168.9Y-96.6
X169.0Y-105.3
X169.1Y-114.2
X169.4Y-118.3
X170.2Y-134.8
X170.6Y-113.0
X174.6Y-134.8
X178.1Y-81.5
X180.4Y-116.3
X182.6Y-91.5
X182.7Y-76.8
X182.7Y-83.2
X182.7Y-88.0
X182.7Y-98.0
X182.7Y-102.8
T2
X132.7Y-100.47
X132.7Y-103.01
X132.7Y-105.55
X134.45Y-72.82
X134.45Y-75.36
X134.45Y-77.9
T3
X127.2Y-87.0
X127.2Y-93.0
X143.2Y-87.0
X143.2Y-93.0
X151.0Y-87.0
X151.0Y-93.0
X162.7Y-79.6
X162.7Y-85.6
X162.7Y-94.4
X162.7Y-100.4
X182.7Y-79.6
X182.7Y-85.6
X182.7Y-94.4
X182.7Y-100.4
T4
X120.9Y-117.5
X120.9Y-120.0
X154.0Y-78.621
X154.0Y-101.837
X156.5Y-78.621
X156.5Y-101.837
X159.0Y-78.621
X159.0Y-101.837
T5
X123.6Y-127.8
X123.6Y-132.8
X143.2Y-90.0
X151.0Y-90.0
T6
X120.59Y-86.965
X176.24Y-68.465
T7
X117.95Y-84.5
X117.95Y-89.58
X123.03Y-84.5
X123.03Y-89.58
X173.6Y-66.0
X173.6Y-71.08
X178.68Y-66.0
X178.68Y-71.08
T8
X120.0Y-59.0
X120.0Y-142.0
X180.0Y-59.0
X180.0Y-142.0
M30
