G04 #@! TF.GenerationSoftware,KiCad,Pcbnew,9.0.1*
G04 #@! TF.CreationDate,2025-04-20T18:42:32-04:00*
G04 #@! TF.ProjectId,t41_2_power_amplifier,7434315f-325f-4706-9f77-65725f616d70,rev?*
G04 #@! TF.SameCoordinates,Original*
G04 #@! TF.FileFunction,Copper,L2,Bot*
G04 #@! TF.FilePolarity,Positive*
%FSLAX46Y46*%
G04 Gerber Fmt 4.6, Leading zero omitted, Abs format (unit mm)*
G04 Created by KiCad (PCBNEW 9.0.1) date 2025-04-20 18:42:32*
%MOMM*%
%LPD*%
G01*
G04 APERTURE LIST*
G04 Aperture macros list*
%AMRoundRect*
0 Rectangle with rounded corners*
0 $1 Rounding radius*
0 $2 $3 $4 $5 $6 $7 $8 $9 X,Y pos of 4 corners*
0 Add a 4 corners polygon primitive as box body*
4,1,4,$2,$3,$4,$5,$6,$7,$8,$9,$2,$3,0*
0 Add four circle primitives for the rounded corners*
1,1,$1+$1,$2,$3*
1,1,$1+$1,$4,$5*
1,1,$1+$1,$6,$7*
1,1,$1+$1,$8,$9*
0 Add four rect primitives between the rounded corners*
20,1,$1+$1,$2,$3,$4,$5,0*
20,1,$1+$1,$4,$5,$6,$7,0*
20,1,$1+$1,$6,$7,$8,$9,0*
20,1,$1+$1,$8,$9,$2,$3,0*%
G04 Aperture macros list end*
G04 #@! TA.AperFunction,ComponentPad*
%ADD10C,1.440000*%
G04 #@! TD*
G04 #@! TA.AperFunction,ComponentPad*
%ADD11C,2.000000*%
G04 #@! TD*
G04 #@! TA.AperFunction,ComponentPad*
%ADD12C,2.200000*%
G04 #@! TD*
G04 #@! TA.AperFunction,ComponentPad*
%ADD13C,7.500000*%
G04 #@! TD*
G04 #@! TA.AperFunction,ComponentPad*
%ADD14C,2.600000*%
G04 #@! TD*
G04 #@! TA.AperFunction,ComponentPad*
%ADD15C,2.500000*%
G04 #@! TD*
G04 #@! TA.AperFunction,ComponentPad*
%ADD16R,2.400000X2.400000*%
G04 #@! TD*
G04 #@! TA.AperFunction,ComponentPad*
%ADD17C,2.400000*%
G04 #@! TD*
G04 #@! TA.AperFunction,ComponentPad*
%ADD18C,2.100000*%
G04 #@! TD*
G04 #@! TA.AperFunction,SMDPad,CuDef*
%ADD19RoundRect,0.250000X-0.650000X0.325000X-0.650000X-0.325000X0.650000X-0.325000X0.650000X0.325000X0*%
G04 #@! TD*
G04 #@! TA.AperFunction,SMDPad,CuDef*
%ADD20RoundRect,0.250000X0.650000X-0.325000X0.650000X0.325000X-0.650000X0.325000X-0.650000X-0.325000X0*%
G04 #@! TD*
G04 #@! TA.AperFunction,SMDPad,CuDef*
%ADD21RoundRect,0.250000X-0.325000X-0.650000X0.325000X-0.650000X0.325000X0.650000X-0.325000X0.650000X0*%
G04 #@! TD*
G04 #@! TA.AperFunction,ViaPad*
%ADD22C,1.000000*%
G04 #@! TD*
G04 #@! TA.AperFunction,Conductor*
%ADD23C,1.500000*%
G04 #@! TD*
G04 #@! TA.AperFunction,Conductor*
%ADD24C,1.000000*%
G04 #@! TD*
G04 #@! TA.AperFunction,Conductor*
%ADD25C,0.250000*%
G04 #@! TD*
G04 APERTURE END LIST*
D10*
X134450000Y-77900000D03*
X134450000Y-75360000D03*
X134450000Y-72820000D03*
D11*
X127200000Y-87000000D03*
X127200000Y-93000000D03*
X143200000Y-93000000D03*
D12*
X143200000Y-90000000D03*
D11*
X143200000Y-87000000D03*
D13*
X188000000Y-59000000D03*
D11*
X162700000Y-94400000D03*
X162700000Y-100400000D03*
X182700000Y-100400000D03*
X182700000Y-94400000D03*
D10*
X132700000Y-105550000D03*
X132700000Y-103010000D03*
X132700000Y-100470000D03*
D11*
X162700000Y-79600000D03*
X162700000Y-85600000D03*
X182700000Y-85600000D03*
X182700000Y-79600000D03*
D13*
X120000000Y-59000000D03*
X188000000Y-142000000D03*
D14*
X184460000Y-67460000D03*
X184460000Y-72540000D03*
X189540000Y-67460000D03*
X189540000Y-72540000D03*
D15*
X187100000Y-69925000D03*
D16*
X123600000Y-127800000D03*
D17*
X123600000Y-132800000D03*
D14*
X117950000Y-84500000D03*
X117950000Y-89580000D03*
X123030000Y-84500000D03*
X123030000Y-89580000D03*
D15*
X120590000Y-86965000D03*
D18*
X120900000Y-117500000D03*
X120900000Y-120000000D03*
D13*
X120000000Y-142000000D03*
D11*
X151000000Y-87000000D03*
D12*
X151000000Y-90000000D03*
D11*
X151000000Y-93000000D03*
D19*
X154600000Y-91500000D03*
X154600000Y-94450000D03*
D20*
X154650000Y-88500000D03*
X154650000Y-85550000D03*
D21*
X165400000Y-85600000D03*
X168350000Y-85600000D03*
X165425000Y-94400000D03*
X168375000Y-94400000D03*
D22*
X163650000Y-90000000D03*
X166000000Y-90000000D03*
X164800000Y-90000000D03*
X164600000Y-99300000D03*
X150000000Y-123400000D03*
X151700000Y-84850000D03*
X162500000Y-77200000D03*
X145100000Y-79300000D03*
X163550000Y-113550000D03*
X149350000Y-100300000D03*
X169400000Y-118300000D03*
X133100000Y-116300000D03*
X150150000Y-103600000D03*
X156500000Y-79900000D03*
X163500000Y-65800000D03*
X163750000Y-134100000D03*
X168900000Y-92200000D03*
X164300000Y-81000000D03*
X149300000Y-65850000D03*
X170200000Y-94400000D03*
X149600000Y-113450000D03*
X186500000Y-93300000D03*
X163550000Y-105650000D03*
X158900000Y-98800000D03*
X156500000Y-77200000D03*
X162400000Y-97700000D03*
X153000000Y-97800000D03*
X152100000Y-100300000D03*
X144800000Y-112000000D03*
X156500000Y-81700000D03*
X184200000Y-90100000D03*
X152050000Y-77200000D03*
X164600000Y-91900000D03*
X134250000Y-104350000D03*
X163100000Y-83600000D03*
X141400000Y-79900000D03*
X133150000Y-88650000D03*
X160850000Y-103300000D03*
X180400000Y-116300000D03*
X174600000Y-134800000D03*
X154550000Y-81750000D03*
X164300000Y-96200000D03*
X143200000Y-68300000D03*
X156900000Y-85400000D03*
X160700000Y-87000000D03*
X156500000Y-103350000D03*
X149600000Y-76000000D03*
X168400000Y-83300000D03*
X152450000Y-94750000D03*
X168900000Y-90500000D03*
X157800000Y-98800000D03*
X148700000Y-90000000D03*
X156150000Y-137300000D03*
X151300000Y-78300000D03*
X164400000Y-83800000D03*
X141750000Y-100700000D03*
X133200000Y-82100000D03*
X133600000Y-120700000D03*
X151500000Y-130250000D03*
X160150000Y-133200000D03*
X160800000Y-101300000D03*
X160600000Y-96000000D03*
X187700000Y-78100000D03*
X154650000Y-96200000D03*
X150800000Y-99700000D03*
X145300000Y-82750000D03*
X146600000Y-125200000D03*
X160850000Y-92600000D03*
X156500000Y-78491000D03*
X140300000Y-107600000D03*
X191900000Y-77500000D03*
X164600000Y-88100000D03*
X170200000Y-134800000D03*
X188000000Y-88900000D03*
X156500000Y-99000000D03*
X138400000Y-119300000D03*
X152150000Y-133200000D03*
X170200000Y-85600000D03*
X163900000Y-130400000D03*
X160600000Y-85300000D03*
X159600000Y-88100000D03*
X191900000Y-81300000D03*
X152050000Y-79400000D03*
X168200000Y-129800000D03*
X187700000Y-81900000D03*
X156500000Y-100400000D03*
X160950000Y-77200000D03*
X135700000Y-88650000D03*
X168900000Y-98400000D03*
X129000000Y-97900000D03*
X153200000Y-56000000D03*
X159700000Y-91900000D03*
X160000000Y-56100000D03*
X156900000Y-94600000D03*
X169400000Y-105600000D03*
X136000000Y-76800000D03*
X163500000Y-123200000D03*
X131000000Y-106500000D03*
X144500000Y-122200000D03*
X160700000Y-81500000D03*
X191900000Y-85000000D03*
X168900000Y-96600000D03*
X154650000Y-83700000D03*
X141250000Y-97300000D03*
X168400000Y-87900000D03*
X144800000Y-115400000D03*
X169700000Y-112900000D03*
X157300000Y-83300000D03*
X131295000Y-117500000D03*
X143300000Y-120950000D03*
X150900000Y-101950000D03*
X152200000Y-101950000D03*
X159000000Y-100400000D03*
X149600000Y-101950000D03*
X159000000Y-102800000D03*
X159000000Y-101600000D03*
D23*
X163650000Y-90000000D02*
X164800000Y-90000000D01*
D24*
X154650000Y-88500000D02*
X154650000Y-91500000D01*
X165425000Y-94400000D02*
X162700000Y-94400000D01*
D23*
X154250000Y-90000000D02*
X163650000Y-90000000D01*
X164800000Y-90000000D02*
X166000000Y-90000000D01*
X151000000Y-90000000D02*
X154250000Y-90000000D01*
D24*
X162700000Y-85600000D02*
X165300000Y-85600000D01*
D25*
X158150000Y-103750000D02*
X159800000Y-103750000D01*
X135707500Y-120950000D02*
X143300000Y-120950000D01*
X132257500Y-117500000D02*
X135707500Y-120950000D01*
X131295000Y-117500000D02*
X132257500Y-117500000D01*
D24*
X159000000Y-101959000D02*
X159000000Y-100400000D01*
X149600000Y-101950000D02*
X150900000Y-101950000D01*
X150900000Y-101950000D02*
X152200000Y-101950000D01*
X152200000Y-101950000D02*
X158991000Y-101950000D01*
X158991000Y-101950000D02*
X159000000Y-101959000D01*
X159000000Y-102800000D02*
X159000000Y-101600000D01*
G04 #@! TA.AperFunction,Conductor*
G36*
X192442539Y-54520185D02*
G01*
X192488294Y-54572989D01*
X192499500Y-54624500D01*
X192499500Y-146375500D01*
X192479815Y-146442539D01*
X192427011Y-146488294D01*
X192375500Y-146499500D01*
X115624500Y-146499500D01*
X115557461Y-146479815D01*
X115511706Y-146427011D01*
X115500500Y-146375500D01*
X115500500Y-141814437D01*
X115750000Y-141814437D01*
X115750000Y-142185562D01*
X115782345Y-142555267D01*
X115782345Y-142555271D01*
X115846787Y-142920735D01*
X115846791Y-142920752D01*
X115942837Y-143279206D01*
X116069775Y-143627963D01*
X116226607Y-143964292D01*
X116226615Y-143964307D01*
X116412166Y-144285690D01*
X116412175Y-144285705D01*
X116625040Y-144589707D01*
X116822005Y-144824439D01*
X116822006Y-144824440D01*
X118313098Y-143333348D01*
X118380076Y-143420635D01*
X118579365Y-143619924D01*
X118666650Y-143686900D01*
X117175558Y-145177992D01*
X117175559Y-145177993D01*
X117410292Y-145374959D01*
X117714294Y-145587824D01*
X117714309Y-145587833D01*
X118035692Y-145773384D01*
X118035707Y-145773392D01*
X118372036Y-145930224D01*
X118720793Y-146057162D01*
X119079247Y-146153208D01*
X119079264Y-146153212D01*
X119444730Y-146217654D01*
X119814437Y-146249999D01*
X119814440Y-146250000D01*
X120185560Y-146250000D01*
X120185562Y-146249999D01*
X120555267Y-146217654D01*
X120555271Y-146217654D01*
X120920735Y-146153212D01*
X120920752Y-146153208D01*
X121279206Y-146057162D01*
X121627963Y-145930224D01*
X121964292Y-145773392D01*
X121964307Y-145773384D01*
X122285690Y-145587833D01*
X122285705Y-145587824D01*
X122589700Y-145374964D01*
X122824439Y-145177993D01*
X122824440Y-145177992D01*
X121333348Y-143686901D01*
X121420635Y-143619924D01*
X121619924Y-143420635D01*
X121686900Y-143333348D01*
X123177992Y-144824440D01*
X123177993Y-144824439D01*
X123374964Y-144589700D01*
X123587824Y-144285705D01*
X123587833Y-144285690D01*
X123773384Y-143964307D01*
X123773392Y-143964292D01*
X123930224Y-143627963D01*
X124057162Y-143279206D01*
X124153208Y-142920752D01*
X124153212Y-142920735D01*
X124217654Y-142555271D01*
X124217654Y-142555267D01*
X124249999Y-142185562D01*
X124250000Y-142185560D01*
X124250000Y-141814440D01*
X124249999Y-141814437D01*
X183750000Y-141814437D01*
X183750000Y-142185562D01*
X183782345Y-142555267D01*
X183782345Y-142555271D01*
X183846787Y-142920735D01*
X183846791Y-142920752D01*
X183942837Y-143279206D01*
X184069775Y-143627963D01*
X184226607Y-143964292D01*
X184226615Y-143964307D01*
X184412166Y-144285690D01*
X184412175Y-144285705D01*
X184625040Y-144589707D01*
X184822005Y-144824439D01*
X184822006Y-144824440D01*
X186313098Y-143333348D01*
X186380076Y-143420635D01*
X186579365Y-143619924D01*
X186666650Y-143686900D01*
X185175558Y-145177992D01*
X185175559Y-145177993D01*
X185410292Y-145374959D01*
X185714294Y-145587824D01*
X185714309Y-145587833D01*
X186035692Y-145773384D01*
X186035707Y-145773392D01*
X186372036Y-145930224D01*
X186720793Y-146057162D01*
X187079247Y-146153208D01*
X187079264Y-146153212D01*
X187444730Y-146217654D01*
X187814437Y-146249999D01*
X187814440Y-146250000D01*
X188185560Y-146250000D01*
X188185562Y-146249999D01*
X188555267Y-146217654D01*
X188555271Y-146217654D01*
X188920735Y-146153212D01*
X188920752Y-146153208D01*
X189279206Y-146057162D01*
X189627963Y-145930224D01*
X189964292Y-145773392D01*
X189964307Y-145773384D01*
X190285690Y-145587833D01*
X190285705Y-145587824D01*
X190589700Y-145374964D01*
X190824439Y-145177993D01*
X190824440Y-145177992D01*
X189333348Y-143686901D01*
X189420635Y-143619924D01*
X189619924Y-143420635D01*
X189686900Y-143333348D01*
X191177992Y-144824440D01*
X191177993Y-144824439D01*
X191374964Y-144589700D01*
X191587824Y-144285705D01*
X191587833Y-144285690D01*
X191773384Y-143964307D01*
X191773392Y-143964292D01*
X191930224Y-143627963D01*
X192057162Y-143279206D01*
X192153208Y-142920752D01*
X192153212Y-142920735D01*
X192217654Y-142555271D01*
X192217654Y-142555267D01*
X192249999Y-142185562D01*
X192250000Y-142185560D01*
X192250000Y-141814440D01*
X192249999Y-141814437D01*
X192217654Y-141444732D01*
X192217654Y-141444728D01*
X192153212Y-141079264D01*
X192153208Y-141079247D01*
X192057162Y-140720793D01*
X191930224Y-140372036D01*
X191773392Y-140035707D01*
X191773384Y-140035692D01*
X191587833Y-139714309D01*
X191587824Y-139714294D01*
X191374959Y-139410292D01*
X191177993Y-139175559D01*
X191177992Y-139175558D01*
X189686900Y-140666650D01*
X189619924Y-140579365D01*
X189420635Y-140380076D01*
X189333347Y-140313098D01*
X190824440Y-138822006D01*
X190824439Y-138822005D01*
X190589707Y-138625040D01*
X190285705Y-138412175D01*
X190285690Y-138412166D01*
X189964307Y-138226615D01*
X189964292Y-138226607D01*
X189627963Y-138069775D01*
X189279206Y-137942837D01*
X188920752Y-137846791D01*
X188920735Y-137846787D01*
X188555269Y-137782345D01*
X188185562Y-137750000D01*
X187814437Y-137750000D01*
X187444732Y-137782345D01*
X187444728Y-137782345D01*
X187079264Y-137846787D01*
X187079247Y-137846791D01*
X186720793Y-137942837D01*
X186372036Y-138069775D01*
X186035707Y-138226607D01*
X186035692Y-138226615D01*
X185714309Y-138412166D01*
X185714294Y-138412175D01*
X185410292Y-138625040D01*
X185175559Y-138822005D01*
X185175558Y-138822006D01*
X186666651Y-140313098D01*
X186579365Y-140380076D01*
X186380076Y-140579365D01*
X186313098Y-140666651D01*
X184822006Y-139175558D01*
X184822005Y-139175559D01*
X184625040Y-139410292D01*
X184412175Y-139714294D01*
X184412166Y-139714309D01*
X184226615Y-140035692D01*
X184226607Y-140035707D01*
X184069775Y-140372036D01*
X183942837Y-140720793D01*
X183846791Y-141079247D01*
X183846787Y-141079264D01*
X183782345Y-141444728D01*
X183782345Y-141444732D01*
X183750000Y-141814437D01*
X124249999Y-141814437D01*
X124217654Y-141444732D01*
X124217654Y-141444728D01*
X124153212Y-141079264D01*
X124153208Y-141079247D01*
X124057162Y-140720793D01*
X123930224Y-140372036D01*
X123773392Y-140035707D01*
X123773384Y-140035692D01*
X123587833Y-139714309D01*
X123587824Y-139714294D01*
X123374959Y-139410292D01*
X123177993Y-139175559D01*
X123177992Y-139175558D01*
X121686900Y-140666650D01*
X121619924Y-140579365D01*
X121420635Y-140380076D01*
X121333347Y-140313098D01*
X122824440Y-138822006D01*
X122824439Y-138822005D01*
X122589707Y-138625040D01*
X122285705Y-138412175D01*
X122285690Y-138412166D01*
X121964307Y-138226615D01*
X121964292Y-138226607D01*
X121627963Y-138069775D01*
X121279206Y-137942837D01*
X120920752Y-137846791D01*
X120920735Y-137846787D01*
X120555269Y-137782345D01*
X120185562Y-137750000D01*
X119814437Y-137750000D01*
X119444732Y-137782345D01*
X119444728Y-137782345D01*
X119079264Y-137846787D01*
X119079247Y-137846791D01*
X118720793Y-137942837D01*
X118372036Y-138069775D01*
X118035707Y-138226607D01*
X118035692Y-138226615D01*
X117714309Y-138412166D01*
X117714294Y-138412175D01*
X117410292Y-138625040D01*
X117175559Y-138822005D01*
X117175558Y-138822006D01*
X118666651Y-140313098D01*
X118579365Y-140380076D01*
X118380076Y-140579365D01*
X118313098Y-140666651D01*
X116822006Y-139175558D01*
X116822005Y-139175559D01*
X116625040Y-139410292D01*
X116412175Y-139714294D01*
X116412166Y-139714309D01*
X116226615Y-140035692D01*
X116226607Y-140035707D01*
X116069775Y-140372036D01*
X115942837Y-140720793D01*
X115846791Y-141079247D01*
X115846787Y-141079264D01*
X115782345Y-141444728D01*
X115782345Y-141444732D01*
X115750000Y-141814437D01*
X115500500Y-141814437D01*
X115500500Y-132688575D01*
X121900000Y-132688575D01*
X121900000Y-132911424D01*
X121929085Y-133132354D01*
X121929088Y-133132367D01*
X121986763Y-133347618D01*
X122072045Y-133553502D01*
X122072054Y-133553520D01*
X122183464Y-133746491D01*
X122183473Y-133746504D01*
X122234040Y-133812403D01*
X122234043Y-133812403D01*
X123035387Y-133011059D01*
X123040889Y-133031591D01*
X123119881Y-133168408D01*
X123231592Y-133280119D01*
X123368409Y-133359111D01*
X123388940Y-133364612D01*
X122587595Y-134165955D01*
X122587595Y-134165956D01*
X122653507Y-134216533D01*
X122846485Y-134327949D01*
X122846497Y-134327954D01*
X123052381Y-134413236D01*
X123267632Y-134470911D01*
X123267645Y-134470914D01*
X123488575Y-134500000D01*
X123711425Y-134500000D01*
X123932354Y-134470914D01*
X123932367Y-134470911D01*
X124147618Y-134413236D01*
X124353502Y-134327954D01*
X124353514Y-134327949D01*
X124546498Y-134216530D01*
X124612403Y-134165957D01*
X124612404Y-134165956D01*
X123811059Y-133364612D01*
X123831591Y-133359111D01*
X123968408Y-133280119D01*
X124080119Y-133168408D01*
X124159111Y-133031591D01*
X124164612Y-133011059D01*
X124965956Y-133812404D01*
X124965957Y-133812403D01*
X125016530Y-133746498D01*
X125127949Y-133553514D01*
X125127954Y-133553502D01*
X125213236Y-133347618D01*
X125270911Y-133132367D01*
X125270914Y-133132354D01*
X125300000Y-132911424D01*
X125300000Y-132688575D01*
X125270914Y-132467645D01*
X125270911Y-132467632D01*
X125213236Y-132252381D01*
X125127954Y-132046497D01*
X125127949Y-132046485D01*
X125016533Y-131853507D01*
X124965956Y-131787595D01*
X124965955Y-131787595D01*
X124164612Y-132588939D01*
X124159111Y-132568409D01*
X124080119Y-132431592D01*
X123968408Y-132319881D01*
X123831591Y-132240889D01*
X123811058Y-132235387D01*
X124612403Y-131434043D01*
X124612403Y-131434040D01*
X124546504Y-131383473D01*
X124546491Y-131383464D01*
X124353520Y-131272054D01*
X124353502Y-131272045D01*
X124147618Y-131186763D01*
X123932367Y-131129088D01*
X123932354Y-131129085D01*
X123711425Y-131100000D01*
X123488575Y-131100000D01*
X123267645Y-131129085D01*
X123267632Y-131129088D01*
X123052381Y-131186763D01*
X122846497Y-131272045D01*
X122846479Y-131272054D01*
X122653511Y-131383462D01*
X122587595Y-131434042D01*
X123388941Y-132235387D01*
X123368409Y-132240889D01*
X123231592Y-132319881D01*
X123119881Y-132431592D01*
X123040889Y-132568409D01*
X123035387Y-132588940D01*
X122234042Y-131787595D01*
X122183462Y-131853511D01*
X122072054Y-132046479D01*
X122072045Y-132046497D01*
X121986763Y-132252381D01*
X121929088Y-132467632D01*
X121929085Y-132467645D01*
X121900000Y-132688575D01*
X115500500Y-132688575D01*
X115500500Y-126552135D01*
X121899500Y-126552135D01*
X121899500Y-129047870D01*
X121899501Y-129047876D01*
X121905908Y-129107483D01*
X121956202Y-129242328D01*
X121956206Y-129242335D01*
X122042452Y-129357544D01*
X122042455Y-129357547D01*
X122157664Y-129443793D01*
X122157671Y-129443797D01*
X122292517Y-129494091D01*
X122292516Y-129494091D01*
X122299444Y-129494835D01*
X122352127Y-129500500D01*
X124847872Y-129500499D01*
X124907483Y-129494091D01*
X125042331Y-129443796D01*
X125157546Y-129357546D01*
X125243796Y-129242331D01*
X125294091Y-129107483D01*
X125300500Y-129047873D01*
X125300499Y-126552128D01*
X125294091Y-126492517D01*
X125243796Y-126357669D01*
X125243795Y-126357668D01*
X125243793Y-126357664D01*
X125157547Y-126242455D01*
X125157544Y-126242452D01*
X125042335Y-126156206D01*
X125042328Y-126156202D01*
X124907482Y-126105908D01*
X124907483Y-126105908D01*
X124847883Y-126099501D01*
X124847881Y-126099500D01*
X124847873Y-126099500D01*
X124847864Y-126099500D01*
X122352129Y-126099500D01*
X122352123Y-126099501D01*
X122292516Y-126105908D01*
X122157671Y-126156202D01*
X122157664Y-126156206D01*
X122042455Y-126242452D01*
X122042452Y-126242455D01*
X121956206Y-126357664D01*
X121956202Y-126357671D01*
X121905908Y-126492517D01*
X121899501Y-126552116D01*
X121899501Y-126552123D01*
X121899500Y-126552135D01*
X115500500Y-126552135D01*
X115500500Y-117377973D01*
X119349500Y-117377973D01*
X119349500Y-117622027D01*
X119387679Y-117863076D01*
X119463096Y-118095185D01*
X119555807Y-118277142D01*
X119573896Y-118312642D01*
X119717339Y-118510076D01*
X119717343Y-118510081D01*
X119717345Y-118510083D01*
X119889917Y-118682655D01*
X120051308Y-118799912D01*
X120066097Y-118812544D01*
X120729765Y-119476212D01*
X120687708Y-119487482D01*
X120562292Y-119559890D01*
X120459890Y-119662292D01*
X120387482Y-119787708D01*
X120376212Y-119829765D01*
X119641544Y-119095097D01*
X119574319Y-119187626D01*
X119463560Y-119405001D01*
X119388165Y-119637040D01*
X119350000Y-119878006D01*
X119350000Y-120121993D01*
X119388165Y-120362959D01*
X119463560Y-120594998D01*
X119574323Y-120812380D01*
X119641543Y-120904901D01*
X119641544Y-120904902D01*
X120376212Y-120170234D01*
X120387482Y-120212292D01*
X120459890Y-120337708D01*
X120562292Y-120440110D01*
X120687708Y-120512518D01*
X120729765Y-120523787D01*
X119995096Y-121258454D01*
X119995097Y-121258456D01*
X120087619Y-121325676D01*
X120305001Y-121436439D01*
X120537040Y-121511834D01*
X120778007Y-121550000D01*
X121021993Y-121550000D01*
X121262959Y-121511834D01*
X121494998Y-121436439D01*
X121712377Y-121325678D01*
X121804901Y-121258454D01*
X121804902Y-121258454D01*
X121070234Y-120523787D01*
X121112292Y-120512518D01*
X121237708Y-120440110D01*
X121340110Y-120337708D01*
X121412518Y-120212292D01*
X121423787Y-120170234D01*
X122158454Y-120904902D01*
X122158454Y-120904901D01*
X122225678Y-120812377D01*
X122336439Y-120594998D01*
X122411834Y-120362959D01*
X122450000Y-120121993D01*
X122450000Y-119878006D01*
X122411834Y-119637040D01*
X122336439Y-119405001D01*
X122225676Y-119187619D01*
X122158456Y-119095097D01*
X122158454Y-119095096D01*
X121423787Y-119829764D01*
X121412518Y-119787708D01*
X121340110Y-119662292D01*
X121237708Y-119559890D01*
X121112292Y-119487482D01*
X121070232Y-119476212D01*
X121733901Y-118812544D01*
X121748684Y-118799917D01*
X121910083Y-118682655D01*
X122082655Y-118510083D01*
X122226106Y-118312639D01*
X122336904Y-118095185D01*
X122412321Y-117863076D01*
X122450500Y-117622027D01*
X122450500Y-117598543D01*
X130294499Y-117598543D01*
X130332947Y-117791829D01*
X130332950Y-117791839D01*
X130408364Y-117973907D01*
X130408371Y-117973920D01*
X130517860Y-118137781D01*
X130517863Y-118137785D01*
X130657214Y-118277136D01*
X130657218Y-118277139D01*
X130821079Y-118386628D01*
X130821092Y-118386635D01*
X131003160Y-118462049D01*
X131003165Y-118462051D01*
X131003169Y-118462051D01*
X131003170Y-118462052D01*
X131196456Y-118500500D01*
X131196459Y-118500500D01*
X131393543Y-118500500D01*
X131523582Y-118474632D01*
X131586835Y-118462051D01*
X131768914Y-118386632D01*
X131932782Y-118277139D01*
X131953735Y-118256184D01*
X132015055Y-118222701D01*
X132084746Y-118227684D01*
X132129096Y-118256186D01*
X135221639Y-121348729D01*
X135221642Y-121348733D01*
X135308767Y-121435858D01*
X135385690Y-121487256D01*
X135391490Y-121491132D01*
X135391493Y-121491134D01*
X135411210Y-121504309D01*
X135411212Y-121504310D01*
X135411215Y-121504312D01*
X135477896Y-121531931D01*
X135477898Y-121531933D01*
X135518140Y-121548601D01*
X135525048Y-121551463D01*
X135585471Y-121563481D01*
X135645893Y-121575500D01*
X135645894Y-121575500D01*
X142459217Y-121575500D01*
X142526256Y-121595185D01*
X142546893Y-121611814D01*
X142662215Y-121727136D01*
X142662219Y-121727140D01*
X142826079Y-121836628D01*
X142826092Y-121836635D01*
X142947686Y-121887000D01*
X143008165Y-121912051D01*
X143008169Y-121912051D01*
X143008170Y-121912052D01*
X143201456Y-121950500D01*
X143201459Y-121950500D01*
X143398543Y-121950500D01*
X143528582Y-121924632D01*
X143591835Y-121912051D01*
X143773914Y-121836632D01*
X143937782Y-121727139D01*
X144077139Y-121587782D01*
X144186632Y-121423914D01*
X144262051Y-121241835D01*
X144300500Y-121048541D01*
X144300500Y-120851459D01*
X144300500Y-120851456D01*
X144262052Y-120658170D01*
X144262051Y-120658169D01*
X144262051Y-120658165D01*
X144201723Y-120512518D01*
X144186635Y-120476092D01*
X144186628Y-120476079D01*
X144077139Y-120312218D01*
X144077136Y-120312214D01*
X143937785Y-120172863D01*
X143937781Y-120172860D01*
X143773920Y-120063371D01*
X143773907Y-120063364D01*
X143591839Y-119987950D01*
X143591829Y-119987947D01*
X143398543Y-119949500D01*
X143398541Y-119949500D01*
X143201459Y-119949500D01*
X143201457Y-119949500D01*
X143008170Y-119987947D01*
X143008160Y-119987950D01*
X142826092Y-120063364D01*
X142826079Y-120063371D01*
X142662219Y-120172859D01*
X142622787Y-120212292D01*
X142546896Y-120288182D01*
X142485576Y-120321666D01*
X142459217Y-120324500D01*
X136017952Y-120324500D01*
X135950913Y-120304815D01*
X135930271Y-120288181D01*
X132750650Y-117108560D01*
X132743360Y-117101270D01*
X132743358Y-117101267D01*
X132656233Y-117014142D01*
X132605009Y-116979915D01*
X132553786Y-116945688D01*
X132553783Y-116945686D01*
X132553782Y-116945686D01*
X132553781Y-116945685D01*
X132463238Y-116908182D01*
X132463234Y-116908181D01*
X132455108Y-116904815D01*
X132439952Y-116898537D01*
X132379529Y-116886518D01*
X132366289Y-116883884D01*
X132319110Y-116874500D01*
X132319107Y-116874500D01*
X132319106Y-116874500D01*
X132135783Y-116874500D01*
X132068744Y-116854815D01*
X132048106Y-116838185D01*
X131932782Y-116722861D01*
X131932781Y-116722860D01*
X131932780Y-116722859D01*
X131768920Y-116613371D01*
X131768907Y-116613364D01*
X131586839Y-116537950D01*
X131586829Y-116537947D01*
X131393543Y-116499500D01*
X131393541Y-116499500D01*
X131196459Y-116499500D01*
X131196457Y-116499500D01*
X131003170Y-116537947D01*
X131003160Y-116537950D01*
X130821092Y-116613364D01*
X130821079Y-116613371D01*
X130657218Y-116722860D01*
X130657214Y-116722863D01*
X130517863Y-116862214D01*
X130517860Y-116862218D01*
X130408371Y-117026079D01*
X130408364Y-117026092D01*
X130332950Y-117208160D01*
X130332947Y-117208170D01*
X130294500Y-117401456D01*
X130294500Y-117401459D01*
X130294500Y-117598541D01*
X130294500Y-117598543D01*
X130294499Y-117598543D01*
X122450500Y-117598543D01*
X122450500Y-117377973D01*
X122412321Y-117136924D01*
X122336904Y-116904815D01*
X122226106Y-116687361D01*
X122117553Y-116537950D01*
X122082660Y-116489923D01*
X122082656Y-116489918D01*
X121910081Y-116317343D01*
X121910076Y-116317339D01*
X121712642Y-116173896D01*
X121712641Y-116173895D01*
X121712639Y-116173894D01*
X121495185Y-116063096D01*
X121263076Y-115987679D01*
X121263074Y-115987678D01*
X121263072Y-115987678D01*
X121094769Y-115961021D01*
X121022027Y-115949500D01*
X120777973Y-115949500D01*
X120722093Y-115958350D01*
X120536927Y-115987678D01*
X120304812Y-116063097D01*
X120087357Y-116173896D01*
X119889923Y-116317339D01*
X119889918Y-116317343D01*
X119717343Y-116489918D01*
X119717339Y-116489923D01*
X119573896Y-116687357D01*
X119463097Y-116904812D01*
X119463096Y-116904814D01*
X119463096Y-116904815D01*
X119449816Y-116945686D01*
X119387678Y-117136927D01*
X119349500Y-117377973D01*
X115500500Y-117377973D01*
X115500500Y-102913945D01*
X131479500Y-102913945D01*
X131479500Y-103106054D01*
X131509553Y-103295802D01*
X131568916Y-103478506D01*
X131568918Y-103478509D01*
X131656135Y-103649681D01*
X131769055Y-103805102D01*
X131904898Y-103940945D01*
X132060319Y-104053865D01*
X132111971Y-104080183D01*
X132231493Y-104141083D01*
X132296081Y-104162069D01*
X132353756Y-104201506D01*
X132380955Y-104265865D01*
X132369041Y-104334711D01*
X132321797Y-104386187D01*
X132296081Y-104397931D01*
X132231493Y-104418916D01*
X132060318Y-104506135D01*
X131971645Y-104570560D01*
X131904898Y-104619055D01*
X131904896Y-104619057D01*
X131904895Y-104619057D01*
X131769057Y-104754895D01*
X131769057Y-104754896D01*
X131769055Y-104754898D01*
X131720560Y-104821645D01*
X131656135Y-104910318D01*
X131568916Y-105081493D01*
X131509553Y-105264197D01*
X131479500Y-105453945D01*
X131479500Y-105646054D01*
X131509553Y-105835802D01*
X131568916Y-106018506D01*
X131568918Y-106018509D01*
X131656135Y-106189681D01*
X131769055Y-106345102D01*
X131904898Y-106480945D01*
X132060319Y-106593865D01*
X132231491Y-106681082D01*
X132231493Y-106681083D01*
X132322845Y-106710764D01*
X132414199Y-106740447D01*
X132603945Y-106770500D01*
X132603946Y-106770500D01*
X132796054Y-106770500D01*
X132796055Y-106770500D01*
X132985801Y-106740447D01*
X133168509Y-106681082D01*
X133339681Y-106593865D01*
X133495102Y-106480945D01*
X133630945Y-106345102D01*
X133743865Y-106189681D01*
X133831082Y-106018509D01*
X133890447Y-105835801D01*
X133920500Y-105646055D01*
X133920500Y-105453945D01*
X133890447Y-105264199D01*
X133831082Y-105081491D01*
X133743865Y-104910319D01*
X133630945Y-104754898D01*
X133495102Y-104619055D01*
X133339681Y-104506135D01*
X133168504Y-104418915D01*
X133103919Y-104397931D01*
X133046243Y-104358494D01*
X133019044Y-104294136D01*
X133030958Y-104225289D01*
X133078202Y-104173813D01*
X133103919Y-104162069D01*
X133168504Y-104141084D01*
X133168506Y-104141082D01*
X133168509Y-104141082D01*
X133339681Y-104053865D01*
X133495102Y-103940945D01*
X133630945Y-103805102D01*
X133743865Y-103649681D01*
X133831082Y-103478509D01*
X133890447Y-103295801D01*
X133920500Y-103106055D01*
X133920500Y-102913945D01*
X133890447Y-102724199D01*
X133846123Y-102587782D01*
X133831083Y-102541493D01*
X133771173Y-102423914D01*
X133743865Y-102370319D01*
X133630945Y-102214898D01*
X133495102Y-102079055D01*
X133453106Y-102048543D01*
X148599499Y-102048543D01*
X148637947Y-102241829D01*
X148637950Y-102241839D01*
X148713364Y-102423907D01*
X148713371Y-102423920D01*
X148822860Y-102587781D01*
X148822863Y-102587785D01*
X148962214Y-102727136D01*
X148962218Y-102727139D01*
X149126079Y-102836628D01*
X149126092Y-102836635D01*
X149308160Y-102912049D01*
X149308165Y-102912051D01*
X149308169Y-102912051D01*
X149308170Y-102912052D01*
X149501456Y-102950500D01*
X149501459Y-102950500D01*
X150801459Y-102950500D01*
X152101459Y-102950500D01*
X157908071Y-102950500D01*
X157975110Y-102970185D01*
X158020865Y-103022989D01*
X158029688Y-103050308D01*
X158037947Y-103091829D01*
X158037950Y-103091839D01*
X158113364Y-103273907D01*
X158113371Y-103273920D01*
X158222860Y-103437781D01*
X158222863Y-103437785D01*
X158362214Y-103577136D01*
X158362218Y-103577139D01*
X158486075Y-103659898D01*
X158530880Y-103713510D01*
X158539587Y-103782835D01*
X158509433Y-103845863D01*
X158449990Y-103882582D01*
X158417184Y-103887000D01*
X150934108Y-103887000D01*
X150806812Y-103921108D01*
X150692686Y-103987000D01*
X150692683Y-103987002D01*
X150599502Y-104080183D01*
X150599500Y-104080186D01*
X150533608Y-104194312D01*
X150499500Y-104321608D01*
X150499500Y-122453391D01*
X150533608Y-122580687D01*
X150566554Y-122637750D01*
X150599500Y-122694814D01*
X150692686Y-122788000D01*
X150806814Y-122853892D01*
X150934108Y-122888000D01*
X150934110Y-122888000D01*
X162065890Y-122888000D01*
X162065892Y-122888000D01*
X162193186Y-122853892D01*
X162307314Y-122788000D01*
X162400500Y-122694814D01*
X162466392Y-122580686D01*
X162500500Y-122453392D01*
X162500500Y-104321608D01*
X162466392Y-104194314D01*
X162400500Y-104080186D01*
X162307314Y-103987000D01*
X162227545Y-103940945D01*
X162193187Y-103921108D01*
X162129539Y-103904054D01*
X162065892Y-103887000D01*
X159582816Y-103887000D01*
X159515777Y-103867315D01*
X159470022Y-103814511D01*
X159460078Y-103745353D01*
X159489103Y-103681797D01*
X159513925Y-103659898D01*
X159565184Y-103625647D01*
X159637782Y-103577139D01*
X159777139Y-103437782D01*
X159886632Y-103273914D01*
X159962051Y-103091835D01*
X159997436Y-102913945D01*
X160000500Y-102898543D01*
X160000500Y-100301456D01*
X160000499Y-100301454D01*
X160000453Y-100301219D01*
X160000453Y-100301218D01*
X159996611Y-100281902D01*
X161199500Y-100281902D01*
X161199500Y-100518097D01*
X161236446Y-100751368D01*
X161309433Y-100975996D01*
X161377414Y-101109415D01*
X161416657Y-101186433D01*
X161555483Y-101377510D01*
X161722490Y-101544517D01*
X161913567Y-101683343D01*
X161996503Y-101725601D01*
X162124003Y-101790566D01*
X162124005Y-101790566D01*
X162124008Y-101790568D01*
X162244412Y-101829689D01*
X162348631Y-101863553D01*
X162581903Y-101900500D01*
X162581908Y-101900500D01*
X162818097Y-101900500D01*
X163051368Y-101863553D01*
X163088589Y-101851459D01*
X163275992Y-101790568D01*
X163486433Y-101683343D01*
X163677510Y-101544517D01*
X163844517Y-101377510D01*
X163983343Y-101186433D01*
X164090568Y-100975992D01*
X164163553Y-100751368D01*
X164192910Y-100566015D01*
X164200500Y-100518097D01*
X164200500Y-100281947D01*
X181200000Y-100281947D01*
X181200000Y-100518052D01*
X181236934Y-100751247D01*
X181309897Y-100975802D01*
X181417087Y-101186174D01*
X181477338Y-101269104D01*
X181477340Y-101269105D01*
X182217037Y-100529408D01*
X182234075Y-100592993D01*
X182299901Y-100707007D01*
X182392993Y-100800099D01*
X182507007Y-100865925D01*
X182570590Y-100882962D01*
X181830893Y-101622658D01*
X181913828Y-101682914D01*
X182124197Y-101790102D01*
X182348752Y-101863065D01*
X182348751Y-101863065D01*
X182581948Y-101900000D01*
X182818052Y-101900000D01*
X183051247Y-101863065D01*
X183275802Y-101790102D01*
X183486163Y-101682918D01*
X183486169Y-101682914D01*
X183569104Y-101622658D01*
X183569105Y-101622658D01*
X182829408Y-100882962D01*
X182892993Y-100865925D01*
X183007007Y-100800099D01*
X183100099Y-100707007D01*
X183165925Y-100592993D01*
X183182962Y-100529409D01*
X183922658Y-101269105D01*
X183922658Y-101269104D01*
X183982914Y-101186169D01*
X183982918Y-101186163D01*
X184090102Y-100975802D01*
X184163065Y-100751247D01*
X184200000Y-100518052D01*
X184200000Y-100281947D01*
X184163065Y-100048752D01*
X184090102Y-99824197D01*
X183982914Y-99613828D01*
X183922658Y-99530894D01*
X183922658Y-99530893D01*
X183182962Y-100270590D01*
X183165925Y-100207007D01*
X183100099Y-100092993D01*
X183007007Y-99999901D01*
X182892993Y-99934075D01*
X182829409Y-99917037D01*
X183569105Y-99177340D01*
X183569104Y-99177338D01*
X183486174Y-99117087D01*
X183275802Y-99009897D01*
X183051247Y-98936934D01*
X183051248Y-98936934D01*
X182818052Y-98900000D01*
X182581948Y-98900000D01*
X182348752Y-98936934D01*
X182124197Y-99009897D01*
X181913830Y-99117084D01*
X181830894Y-99177340D01*
X182570591Y-99917037D01*
X182507007Y-99934075D01*
X182392993Y-99999901D01*
X182299901Y-100092993D01*
X182234075Y-100207007D01*
X182217037Y-100270590D01*
X181477340Y-99530894D01*
X181417084Y-99613830D01*
X181309897Y-99824197D01*
X181236934Y-100048752D01*
X181200000Y-100281947D01*
X164200500Y-100281947D01*
X164200500Y-100281902D01*
X164163553Y-100048631D01*
X164115259Y-99900000D01*
X164090568Y-99824008D01*
X164090566Y-99824005D01*
X164090566Y-99824003D01*
X164034002Y-99712991D01*
X163983343Y-99613567D01*
X163844517Y-99422490D01*
X163677510Y-99255483D01*
X163486433Y-99116657D01*
X163275996Y-99009433D01*
X163051368Y-98936446D01*
X162818097Y-98899500D01*
X162818092Y-98899500D01*
X162581908Y-98899500D01*
X162581903Y-98899500D01*
X162348631Y-98936446D01*
X162124003Y-99009433D01*
X161913566Y-99116657D01*
X161830047Y-99177338D01*
X161722490Y-99255483D01*
X161722488Y-99255485D01*
X161722487Y-99255485D01*
X161555485Y-99422487D01*
X161555485Y-99422488D01*
X161555483Y-99422490D01*
X161544251Y-99437950D01*
X161416657Y-99613566D01*
X161309433Y-99824003D01*
X161236446Y-100048631D01*
X161199500Y-100281902D01*
X159996611Y-100281902D01*
X159962052Y-100108170D01*
X159962051Y-100108169D01*
X159962051Y-100108165D01*
X159937392Y-100048632D01*
X159886635Y-99926092D01*
X159886628Y-99926079D01*
X159777139Y-99762218D01*
X159777136Y-99762214D01*
X159637785Y-99622863D01*
X159637781Y-99622860D01*
X159473920Y-99513371D01*
X159473907Y-99513364D01*
X159291839Y-99437950D01*
X159291829Y-99437947D01*
X159098543Y-99399500D01*
X159098541Y-99399500D01*
X158901459Y-99399500D01*
X158901457Y-99399500D01*
X158708170Y-99437947D01*
X158708160Y-99437950D01*
X158526092Y-99513364D01*
X158526079Y-99513371D01*
X158362218Y-99622860D01*
X158362214Y-99622863D01*
X158222863Y-99762214D01*
X158222860Y-99762218D01*
X158113371Y-99926079D01*
X158113364Y-99926092D01*
X158037950Y-100108160D01*
X158037947Y-100108170D01*
X157999500Y-100301456D01*
X157999500Y-100825500D01*
X157979815Y-100892539D01*
X157927011Y-100938294D01*
X157875500Y-100949500D01*
X149501457Y-100949500D01*
X149308170Y-100987947D01*
X149308160Y-100987950D01*
X149126092Y-101063364D01*
X149126079Y-101063371D01*
X148962218Y-101172860D01*
X148962214Y-101172863D01*
X148822863Y-101312214D01*
X148822860Y-101312218D01*
X148713371Y-101476079D01*
X148713364Y-101476092D01*
X148637950Y-101658160D01*
X148637947Y-101658170D01*
X148599500Y-101851456D01*
X148599500Y-101851459D01*
X148599500Y-102048541D01*
X148599500Y-102048543D01*
X148599499Y-102048543D01*
X133453106Y-102048543D01*
X133417391Y-102022595D01*
X133339679Y-101966133D01*
X133319500Y-101955852D01*
X133168509Y-101878918D01*
X133168508Y-101878917D01*
X133168505Y-101878916D01*
X133103108Y-101857667D01*
X133045432Y-101818229D01*
X133018234Y-101753871D01*
X133030149Y-101685024D01*
X133077393Y-101633549D01*
X133103108Y-101621805D01*
X133168319Y-101600616D01*
X133339419Y-101513436D01*
X133368646Y-101492201D01*
X133368646Y-101492200D01*
X132746447Y-100870000D01*
X132752661Y-100870000D01*
X132854394Y-100842741D01*
X132945606Y-100790080D01*
X133020080Y-100715606D01*
X133072741Y-100624394D01*
X133100000Y-100522661D01*
X133100000Y-100516446D01*
X133722200Y-101138646D01*
X133722201Y-101138646D01*
X133743436Y-101109419D01*
X133830616Y-100938321D01*
X133889959Y-100755684D01*
X133920000Y-100566015D01*
X133920000Y-100373984D01*
X133889959Y-100184315D01*
X133830616Y-100001678D01*
X133743434Y-99830577D01*
X133722201Y-99801352D01*
X133722200Y-99801351D01*
X133100000Y-100423552D01*
X133100000Y-100417339D01*
X133072741Y-100315606D01*
X133020080Y-100224394D01*
X132945606Y-100149920D01*
X132854394Y-100097259D01*
X132752661Y-100070000D01*
X132746447Y-100070000D01*
X133368646Y-99447798D01*
X133339415Y-99426561D01*
X133168321Y-99339383D01*
X132985684Y-99280040D01*
X132796015Y-99250000D01*
X132603985Y-99250000D01*
X132414315Y-99280040D01*
X132231678Y-99339383D01*
X132060578Y-99426564D01*
X132031352Y-99447798D01*
X132031351Y-99447798D01*
X132653554Y-100070000D01*
X132647339Y-100070000D01*
X132545606Y-100097259D01*
X132454394Y-100149920D01*
X132379920Y-100224394D01*
X132327259Y-100315606D01*
X132300000Y-100417339D01*
X132300000Y-100423553D01*
X131677798Y-99801351D01*
X131677798Y-99801352D01*
X131656564Y-99830578D01*
X131569383Y-100001678D01*
X131510040Y-100184315D01*
X131480000Y-100373984D01*
X131480000Y-100566015D01*
X131510040Y-100755684D01*
X131569383Y-100938321D01*
X131656561Y-101109415D01*
X131677798Y-101138646D01*
X132300000Y-100516445D01*
X132300000Y-100522661D01*
X132327259Y-100624394D01*
X132379920Y-100715606D01*
X132454394Y-100790080D01*
X132545606Y-100842741D01*
X132647339Y-100870000D01*
X132653554Y-100870000D01*
X132031351Y-101492200D01*
X132031352Y-101492201D01*
X132060577Y-101513434D01*
X132231680Y-101600616D01*
X132296891Y-101621805D01*
X132354567Y-101661242D01*
X132381765Y-101725601D01*
X132369850Y-101794447D01*
X132322606Y-101845923D01*
X132296892Y-101857667D01*
X132231492Y-101878917D01*
X132060318Y-101966135D01*
X131971645Y-102030560D01*
X131904898Y-102079055D01*
X131904896Y-102079057D01*
X131904895Y-102079057D01*
X131769057Y-102214895D01*
X131769057Y-102214896D01*
X131769055Y-102214898D01*
X131720560Y-102281645D01*
X131656135Y-102370318D01*
X131568916Y-102541493D01*
X131509553Y-102724197D01*
X131479500Y-102913945D01*
X115500500Y-102913945D01*
X115500500Y-94824986D01*
X153200001Y-94824986D01*
X153210494Y-94927697D01*
X153265641Y-95094119D01*
X153265643Y-95094124D01*
X153357684Y-95243345D01*
X153481654Y-95367315D01*
X153630875Y-95459356D01*
X153630880Y-95459358D01*
X153797302Y-95514505D01*
X153797309Y-95514506D01*
X153900019Y-95524999D01*
X154349999Y-95524999D01*
X154850000Y-95524999D01*
X155299972Y-95524999D01*
X155299986Y-95524998D01*
X155402697Y-95514505D01*
X155569119Y-95459358D01*
X155569124Y-95459356D01*
X155718345Y-95367315D01*
X155842315Y-95243345D01*
X155934356Y-95094124D01*
X155934358Y-95094119D01*
X155989505Y-94927697D01*
X155989506Y-94927690D01*
X155999999Y-94824986D01*
X156000000Y-94824973D01*
X156000000Y-94700000D01*
X154850000Y-94700000D01*
X154850000Y-95524999D01*
X154349999Y-95524999D01*
X154350000Y-95524998D01*
X154350000Y-94700000D01*
X153200001Y-94700000D01*
X153200001Y-94824986D01*
X115500500Y-94824986D01*
X115500500Y-92881947D01*
X125700000Y-92881947D01*
X125700000Y-93118052D01*
X125736934Y-93351247D01*
X125809897Y-93575802D01*
X125917087Y-93786174D01*
X125977338Y-93869104D01*
X125977340Y-93869105D01*
X126717037Y-93129408D01*
X126734075Y-93192993D01*
X126799901Y-93307007D01*
X126892993Y-93400099D01*
X127007007Y-93465925D01*
X127070590Y-93482962D01*
X126330893Y-94222658D01*
X126413828Y-94282914D01*
X126624197Y-94390102D01*
X126848752Y-94463065D01*
X126848751Y-94463065D01*
X127081948Y-94500000D01*
X127318052Y-94500000D01*
X127551247Y-94463065D01*
X127775802Y-94390102D01*
X127986163Y-94282918D01*
X127986169Y-94282914D01*
X128069104Y-94222658D01*
X128069105Y-94222658D01*
X127329408Y-93482962D01*
X127392993Y-93465925D01*
X127507007Y-93400099D01*
X127600099Y-93307007D01*
X127665925Y-93192993D01*
X127682962Y-93129409D01*
X128422658Y-93869105D01*
X128422658Y-93869104D01*
X128482914Y-93786169D01*
X128482918Y-93786163D01*
X128590102Y-93575802D01*
X128663065Y-93351247D01*
X128700000Y-93118052D01*
X128700000Y-92881947D01*
X128663065Y-92648752D01*
X128590102Y-92424197D01*
X128482914Y-92213828D01*
X128422658Y-92130894D01*
X128422658Y-92130893D01*
X127682962Y-92870590D01*
X127665925Y-92807007D01*
X127600099Y-92692993D01*
X127507007Y-92599901D01*
X127392993Y-92534075D01*
X127329409Y-92517037D01*
X128069105Y-91777340D01*
X128069104Y-91777338D01*
X127986174Y-91717087D01*
X127775802Y-91609897D01*
X127551247Y-91536934D01*
X127551248Y-91536934D01*
X127318052Y-91500000D01*
X127081948Y-91500000D01*
X126848752Y-91536934D01*
X126624197Y-91609897D01*
X126413830Y-91717084D01*
X126330894Y-91777340D01*
X127070591Y-92517037D01*
X127007007Y-92534075D01*
X126892993Y-92599901D01*
X126799901Y-92692993D01*
X126734075Y-92807007D01*
X126717037Y-92870591D01*
X125977340Y-92130894D01*
X125917084Y-92213830D01*
X125809897Y-92424197D01*
X125736934Y-92648752D01*
X125700000Y-92881947D01*
X115500500Y-92881947D01*
X115500500Y-84382014D01*
X116150000Y-84382014D01*
X116150000Y-84617985D01*
X116180799Y-84851914D01*
X116241870Y-85079837D01*
X116332160Y-85297819D01*
X116332165Y-85297828D01*
X116450144Y-85502171D01*
X116450145Y-85502172D01*
X116512721Y-85583723D01*
X117234152Y-84862292D01*
X117241049Y-84878942D01*
X117328599Y-85009970D01*
X117440030Y-85121401D01*
X117571058Y-85208951D01*
X117587706Y-85215846D01*
X116866275Y-85937277D01*
X116947827Y-85999854D01*
X116947828Y-85999855D01*
X117152171Y-86117834D01*
X117152180Y-86117839D01*
X117370163Y-86208129D01*
X117370161Y-86208129D01*
X117598085Y-86269200D01*
X117832014Y-86299999D01*
X117832029Y-86300000D01*
X118067971Y-86300000D01*
X118067985Y-86299999D01*
X118301914Y-86269200D01*
X118529837Y-86208129D01*
X118747819Y-86117839D01*
X118747828Y-86117834D01*
X118823602Y-86074086D01*
X118891502Y-86057613D01*
X118957529Y-86080465D01*
X119000720Y-86135386D01*
X119007362Y-86204939D01*
X119000164Y-86228925D01*
X118928842Y-86401111D01*
X118928842Y-86401112D01*
X118922707Y-86424008D01*
X118870143Y-86620185D01*
X118869453Y-86622759D01*
X118869451Y-86622770D01*
X118839500Y-86850258D01*
X118839500Y-87079741D01*
X118864446Y-87269215D01*
X118869452Y-87307238D01*
X118890122Y-87384381D01*
X118928842Y-87528887D01*
X119016650Y-87740876D01*
X119016656Y-87740888D01*
X119092278Y-87871870D01*
X119111315Y-87904842D01*
X119127788Y-87972742D01*
X119104935Y-88038769D01*
X119050014Y-88081960D01*
X118980461Y-88088601D01*
X118941928Y-88074229D01*
X118747835Y-87962168D01*
X118747819Y-87962160D01*
X118529836Y-87871870D01*
X118529838Y-87871870D01*
X118301914Y-87810799D01*
X118067985Y-87780000D01*
X117832014Y-87780000D01*
X117598085Y-87810799D01*
X117370162Y-87871870D01*
X117152180Y-87962160D01*
X117152171Y-87962165D01*
X116947828Y-88080144D01*
X116947818Y-88080150D01*
X116866275Y-88142720D01*
X116866275Y-88142721D01*
X117587706Y-88864152D01*
X117571058Y-88871049D01*
X117440030Y-88958599D01*
X117328599Y-89070030D01*
X117241049Y-89201058D01*
X117234152Y-89217706D01*
X116512721Y-88496275D01*
X116512720Y-88496275D01*
X116450150Y-88577818D01*
X116450144Y-88577828D01*
X116332165Y-88782171D01*
X116332160Y-88782180D01*
X116241870Y-89000162D01*
X116180799Y-89228085D01*
X116150000Y-89462014D01*
X116150000Y-89697985D01*
X116180799Y-89931914D01*
X116241870Y-90159837D01*
X116332160Y-90377819D01*
X116332165Y-90377828D01*
X116450144Y-90582171D01*
X116450145Y-90582172D01*
X116512721Y-90663723D01*
X117234152Y-89942292D01*
X117241049Y-89958942D01*
X117328599Y-90089970D01*
X117440030Y-90201401D01*
X117571058Y-90288951D01*
X117587706Y-90295846D01*
X116866275Y-91017277D01*
X116947827Y-91079854D01*
X116947828Y-91079855D01*
X117152171Y-91197834D01*
X117152180Y-91197839D01*
X117370163Y-91288129D01*
X117370161Y-91288129D01*
X117598085Y-91349200D01*
X117832014Y-91379999D01*
X117832029Y-91380000D01*
X118067971Y-91380000D01*
X118067985Y-91379999D01*
X118301914Y-91349200D01*
X118529837Y-91288129D01*
X118747819Y-91197839D01*
X118747828Y-91197834D01*
X118952181Y-91079850D01*
X119033723Y-91017279D01*
X119033723Y-91017276D01*
X118312293Y-90295847D01*
X118328942Y-90288951D01*
X118459970Y-90201401D01*
X118571401Y-90089970D01*
X118658951Y-89958942D01*
X118665847Y-89942293D01*
X119387276Y-90663723D01*
X119387279Y-90663723D01*
X119449850Y-90582181D01*
X119567834Y-90377828D01*
X119567839Y-90377819D01*
X119658129Y-90159837D01*
X119719200Y-89931914D01*
X119749999Y-89697985D01*
X119750000Y-89697971D01*
X119750000Y-89462028D01*
X119749999Y-89462014D01*
X119719200Y-89228085D01*
X119658129Y-89000162D01*
X119567839Y-88782180D01*
X119567834Y-88782171D01*
X119464920Y-88603921D01*
X119448447Y-88536021D01*
X119471299Y-88469994D01*
X119526220Y-88426803D01*
X119595773Y-88420161D01*
X119634302Y-88434531D01*
X119814112Y-88538344D01*
X119814117Y-88538346D01*
X119814123Y-88538349D01*
X119887721Y-88568834D01*
X120026113Y-88626158D01*
X120247762Y-88685548D01*
X120475266Y-88715500D01*
X120475273Y-88715500D01*
X120704727Y-88715500D01*
X120704734Y-88715500D01*
X120932238Y-88685548D01*
X121153887Y-88626158D01*
X121274247Y-88576302D01*
X121343714Y-88568834D01*
X121406194Y-88600109D01*
X121441846Y-88660198D01*
X121439353Y-88730023D01*
X121429086Y-88752863D01*
X121412166Y-88782169D01*
X121412160Y-88782180D01*
X121321870Y-89000162D01*
X121260799Y-89228085D01*
X121230000Y-89462014D01*
X121230000Y-89697985D01*
X121260799Y-89931914D01*
X121321870Y-90159837D01*
X121412160Y-90377819D01*
X121412165Y-90377828D01*
X121530144Y-90582171D01*
X121530145Y-90582172D01*
X121592721Y-90663723D01*
X122314152Y-89942292D01*
X122321049Y-89958942D01*
X122408599Y-90089970D01*
X122520030Y-90201401D01*
X122651058Y-90288951D01*
X122667706Y-90295846D01*
X121946275Y-91017277D01*
X122027827Y-91079854D01*
X122027828Y-91079855D01*
X122232171Y-91197834D01*
X122232180Y-91197839D01*
X122450163Y-91288129D01*
X122450161Y-91288129D01*
X122678085Y-91349200D01*
X122912014Y-91379999D01*
X122912029Y-91380000D01*
X123147971Y-91380000D01*
X123147985Y-91379999D01*
X123381914Y-91349200D01*
X123609837Y-91288129D01*
X123827819Y-91197839D01*
X123827828Y-91197834D01*
X124032181Y-91079850D01*
X124113723Y-91017279D01*
X124113723Y-91017276D01*
X123392293Y-90295847D01*
X123408942Y-90288951D01*
X123539970Y-90201401D01*
X123651401Y-90089970D01*
X123738951Y-89958942D01*
X123745847Y-89942293D01*
X124467276Y-90663723D01*
X124467279Y-90663723D01*
X124529850Y-90582181D01*
X124647834Y-90377828D01*
X124647839Y-90377819D01*
X124738129Y-90159837D01*
X124799200Y-89931914D01*
X124806816Y-89874071D01*
X141600000Y-89874071D01*
X141600000Y-90125928D01*
X141639397Y-90374669D01*
X141717219Y-90614184D01*
X141831557Y-90838583D01*
X141905748Y-90940697D01*
X141905748Y-90940698D01*
X142635387Y-90211059D01*
X142640889Y-90231591D01*
X142719881Y-90368408D01*
X142831592Y-90480119D01*
X142968409Y-90559111D01*
X142988940Y-90564612D01*
X142259300Y-91294250D01*
X142361416Y-91368442D01*
X142512356Y-91445351D01*
X142563152Y-91493326D01*
X142579947Y-91561147D01*
X142557409Y-91627282D01*
X142512356Y-91666321D01*
X142413566Y-91716657D01*
X142330047Y-91777338D01*
X142222490Y-91855483D01*
X142222488Y-91855485D01*
X142222487Y-91855485D01*
X142055485Y-92022487D01*
X142055485Y-92022488D01*
X142055483Y-92022490D01*
X141995862Y-92104550D01*
X141916657Y-92213566D01*
X141809433Y-92424003D01*
X141736446Y-92648631D01*
X141699500Y-92881902D01*
X141699500Y-93118097D01*
X141736446Y-93351368D01*
X141809433Y-93575996D01*
X141872631Y-93700028D01*
X141916657Y-93786433D01*
X142055483Y-93977510D01*
X142222490Y-94144517D01*
X142413567Y-94283343D01*
X142512991Y-94334002D01*
X142624003Y-94390566D01*
X142624005Y-94390566D01*
X142624008Y-94390568D01*
X142744412Y-94429689D01*
X142848631Y-94463553D01*
X143081903Y-94500500D01*
X143081908Y-94500500D01*
X143318097Y-94500500D01*
X143551368Y-94463553D01*
X143552870Y-94463065D01*
X143775992Y-94390568D01*
X143986433Y-94283343D01*
X144177510Y-94144517D01*
X144344517Y-93977510D01*
X144483343Y-93786433D01*
X144590568Y-93575992D01*
X144663553Y-93351368D01*
X144665259Y-93340597D01*
X144700500Y-93118097D01*
X144700500Y-92881902D01*
X144663553Y-92648631D01*
X144615259Y-92500000D01*
X144590568Y-92424008D01*
X144590566Y-92424005D01*
X144590566Y-92424003D01*
X144483477Y-92213830D01*
X144483343Y-92213567D01*
X144344517Y-92022490D01*
X144177510Y-91855483D01*
X143986433Y-91716657D01*
X143887643Y-91666321D01*
X143836847Y-91618346D01*
X143820052Y-91550525D01*
X143842589Y-91484390D01*
X143887643Y-91445351D01*
X144038575Y-91368446D01*
X144038581Y-91368442D01*
X144140697Y-91294250D01*
X144140698Y-91294250D01*
X143411059Y-90564612D01*
X143431591Y-90559111D01*
X143568408Y-90480119D01*
X143680119Y-90368408D01*
X143759111Y-90231591D01*
X143764612Y-90211060D01*
X144494250Y-90940698D01*
X144494250Y-90940697D01*
X144568442Y-90838581D01*
X144568446Y-90838575D01*
X144682780Y-90614184D01*
X144760602Y-90374669D01*
X144800000Y-90125928D01*
X144800000Y-89874071D01*
X144799995Y-89874038D01*
X149399500Y-89874038D01*
X149399500Y-90125962D01*
X149416230Y-90231591D01*
X149438910Y-90374785D01*
X149516760Y-90614383D01*
X149595413Y-90768747D01*
X149630995Y-90838581D01*
X149631132Y-90838848D01*
X149779201Y-91042649D01*
X149779205Y-91042654D01*
X149957345Y-91220794D01*
X149957350Y-91220798D01*
X150135117Y-91349952D01*
X150161155Y-91368870D01*
X150302182Y-91440727D01*
X150311807Y-91445631D01*
X150362603Y-91493606D01*
X150379398Y-91561427D01*
X150356861Y-91627562D01*
X150311807Y-91666601D01*
X150213566Y-91716657D01*
X150130047Y-91777338D01*
X150022490Y-91855483D01*
X150022488Y-91855485D01*
X150022487Y-91855485D01*
X149855485Y-92022487D01*
X149855485Y-92022488D01*
X149855483Y-92022490D01*
X149795862Y-92104550D01*
X149716657Y-92213566D01*
X149609433Y-92424003D01*
X149536446Y-92648631D01*
X149499500Y-92881902D01*
X149499500Y-93118097D01*
X149536446Y-93351368D01*
X149609433Y-93575996D01*
X149672631Y-93700028D01*
X149716657Y-93786433D01*
X149855483Y-93977510D01*
X150022490Y-94144517D01*
X150213567Y-94283343D01*
X150312991Y-94334002D01*
X150424003Y-94390566D01*
X150424005Y-94390566D01*
X150424008Y-94390568D01*
X150544412Y-94429689D01*
X150648631Y-94463553D01*
X150881903Y-94500500D01*
X150881908Y-94500500D01*
X151118097Y-94500500D01*
X151351368Y-94463553D01*
X151352870Y-94463065D01*
X151575992Y-94390568D01*
X151786433Y-94283343D01*
X151788416Y-94281902D01*
X161199500Y-94281902D01*
X161199500Y-94518097D01*
X161236446Y-94751368D01*
X161309433Y-94975996D01*
X161372625Y-95100016D01*
X161416657Y-95186433D01*
X161555483Y-95377510D01*
X161722490Y-95544517D01*
X161913567Y-95683343D01*
X162012991Y-95734002D01*
X162124003Y-95790566D01*
X162124005Y-95790566D01*
X162124008Y-95790568D01*
X162244412Y-95829689D01*
X162348631Y-95863553D01*
X162581903Y-95900500D01*
X162581908Y-95900500D01*
X162818097Y-95900500D01*
X163051368Y-95863553D01*
X163275992Y-95790568D01*
X163486433Y-95683343D01*
X163677510Y-95544517D01*
X163785208Y-95436819D01*
X163846531Y-95403334D01*
X163872889Y-95400500D01*
X164365202Y-95400500D01*
X164432241Y-95420185D01*
X164470739Y-95459401D01*
X164507288Y-95518656D01*
X164631344Y-95642712D01*
X164780666Y-95734814D01*
X164947203Y-95789999D01*
X165049991Y-95800500D01*
X165800008Y-95800499D01*
X165800016Y-95800498D01*
X165800019Y-95800498D01*
X165856302Y-95794748D01*
X165902797Y-95789999D01*
X166069334Y-95734814D01*
X166218656Y-95642712D01*
X166342712Y-95518656D01*
X166434814Y-95369334D01*
X166489999Y-95202797D01*
X166500500Y-95100009D01*
X166500500Y-95099986D01*
X167300001Y-95099986D01*
X167310494Y-95202697D01*
X167365641Y-95369119D01*
X167365643Y-95369124D01*
X167457684Y-95518345D01*
X167581654Y-95642315D01*
X167730875Y-95734356D01*
X167730880Y-95734358D01*
X167897302Y-95789505D01*
X167897309Y-95789506D01*
X168000019Y-95799999D01*
X168124999Y-95799999D01*
X168625000Y-95799999D01*
X168749972Y-95799999D01*
X168749986Y-95799998D01*
X168852697Y-95789505D01*
X169019119Y-95734358D01*
X169019124Y-95734356D01*
X169168345Y-95642315D01*
X169292315Y-95518345D01*
X169384356Y-95369124D01*
X169384358Y-95369119D01*
X169439505Y-95202697D01*
X169439506Y-95202690D01*
X169449999Y-95099986D01*
X169450000Y-95099973D01*
X169450000Y-94650000D01*
X168625000Y-94650000D01*
X168625000Y-95799999D01*
X168124999Y-95799999D01*
X168125000Y-95799998D01*
X168125000Y-94650000D01*
X167300001Y-94650000D01*
X167300001Y-95099986D01*
X166500500Y-95099986D01*
X166500500Y-94463065D01*
X166500500Y-94281902D01*
X181199500Y-94281902D01*
X181199500Y-94518097D01*
X181236446Y-94751368D01*
X181309433Y-94975996D01*
X181372625Y-95100016D01*
X181416657Y-95186433D01*
X181555483Y-95377510D01*
X181722490Y-95544517D01*
X181913567Y-95683343D01*
X182012991Y-95734002D01*
X182124003Y-95790566D01*
X182124005Y-95790566D01*
X182124008Y-95790568D01*
X182244412Y-95829689D01*
X182348631Y-95863553D01*
X182581903Y-95900500D01*
X182581908Y-95900500D01*
X182818097Y-95900500D01*
X183051368Y-95863553D01*
X183275992Y-95790568D01*
X183486433Y-95683343D01*
X183677510Y-95544517D01*
X183844517Y-95377510D01*
X183983343Y-95186433D01*
X184090568Y-94975992D01*
X184163553Y-94751368D01*
X184179608Y-94650000D01*
X184200500Y-94518097D01*
X184200500Y-94281902D01*
X184163553Y-94048631D01*
X184105221Y-93869105D01*
X184090568Y-93824008D01*
X184090566Y-93824005D01*
X184090566Y-93824003D01*
X183983342Y-93613566D01*
X183844517Y-93422490D01*
X183677510Y-93255483D01*
X183486433Y-93116657D01*
X183386672Y-93065826D01*
X183275996Y-93009433D01*
X183051368Y-92936446D01*
X182818097Y-92899500D01*
X182818092Y-92899500D01*
X182581908Y-92899500D01*
X182581903Y-92899500D01*
X182348631Y-92936446D01*
X182124003Y-93009433D01*
X181913566Y-93116657D01*
X181857643Y-93157288D01*
X181722490Y-93255483D01*
X181722488Y-93255485D01*
X181722487Y-93255485D01*
X181555485Y-93422487D01*
X181555485Y-93422488D01*
X181555483Y-93422490D01*
X181523926Y-93465925D01*
X181416657Y-93613566D01*
X181309433Y-93824003D01*
X181236446Y-94048631D01*
X181199500Y-94281902D01*
X166500500Y-94281902D01*
X166500500Y-94277036D01*
X166500499Y-93700013D01*
X167300000Y-93700013D01*
X167300000Y-94150000D01*
X168125000Y-94150000D01*
X168625000Y-94150000D01*
X169449999Y-94150000D01*
X169449999Y-93700028D01*
X169449998Y-93700013D01*
X169439505Y-93597302D01*
X169384358Y-93430880D01*
X169384356Y-93430875D01*
X169292315Y-93281654D01*
X169168345Y-93157684D01*
X169019124Y-93065643D01*
X169019119Y-93065641D01*
X168852697Y-93010494D01*
X168852690Y-93010493D01*
X168749986Y-93000000D01*
X168625000Y-93000000D01*
X168625000Y-94150000D01*
X168125000Y-94150000D01*
X168125000Y-93000000D01*
X168000027Y-93000000D01*
X168000012Y-93000001D01*
X167897302Y-93010494D01*
X167730880Y-93065641D01*
X167730875Y-93065643D01*
X167581654Y-93157684D01*
X167457684Y-93281654D01*
X167365643Y-93430875D01*
X167365641Y-93430880D01*
X167310494Y-93597302D01*
X167310493Y-93597309D01*
X167300000Y-93700013D01*
X166500499Y-93700013D01*
X166500499Y-93699998D01*
X166500498Y-93699981D01*
X166489999Y-93597203D01*
X166489998Y-93597200D01*
X166448294Y-93471346D01*
X166434814Y-93430666D01*
X166342712Y-93281344D01*
X166218656Y-93157288D01*
X166069334Y-93065186D01*
X165902797Y-93010001D01*
X165902795Y-93010000D01*
X165800010Y-92999500D01*
X165049998Y-92999500D01*
X165049980Y-92999501D01*
X164947203Y-93010000D01*
X164947200Y-93010001D01*
X164780668Y-93065185D01*
X164780663Y-93065187D01*
X164631342Y-93157289D01*
X164507289Y-93281342D01*
X164470741Y-93340597D01*
X164418793Y-93387321D01*
X164365202Y-93399500D01*
X163872889Y-93399500D01*
X163805850Y-93379815D01*
X163785208Y-93363181D01*
X163677512Y-93255485D01*
X163677510Y-93255483D01*
X163486433Y-93116657D01*
X163386672Y-93065826D01*
X163275996Y-93009433D01*
X163051368Y-92936446D01*
X162818097Y-92899500D01*
X162818092Y-92899500D01*
X162581908Y-92899500D01*
X162581903Y-92899500D01*
X162348631Y-92936446D01*
X162124003Y-93009433D01*
X161913566Y-93116657D01*
X161857643Y-93157288D01*
X161722490Y-93255483D01*
X161722488Y-93255485D01*
X161722487Y-93255485D01*
X161555485Y-93422487D01*
X161555485Y-93422488D01*
X161555483Y-93422490D01*
X161523926Y-93465925D01*
X161416657Y-93613566D01*
X161309433Y-93824003D01*
X161236446Y-94048631D01*
X161199500Y-94281902D01*
X151788416Y-94281902D01*
X151977510Y-94144517D01*
X152144517Y-93977510D01*
X152283343Y-93786433D01*
X152390568Y-93575992D01*
X152463553Y-93351368D01*
X152465259Y-93340597D01*
X152500500Y-93118097D01*
X152500500Y-92881902D01*
X152463553Y-92648631D01*
X152415259Y-92500000D01*
X152390568Y-92424008D01*
X152390566Y-92424005D01*
X152390566Y-92424003D01*
X152283477Y-92213830D01*
X152283343Y-92213567D01*
X152144517Y-92022490D01*
X151977510Y-91855483D01*
X151786433Y-91716657D01*
X151688191Y-91666600D01*
X151637396Y-91618627D01*
X151620601Y-91550806D01*
X151643138Y-91484671D01*
X151688190Y-91445632D01*
X151838845Y-91368870D01*
X151949976Y-91288129D01*
X151969173Y-91274182D01*
X152034979Y-91250702D01*
X152042058Y-91250500D01*
X153075500Y-91250500D01*
X153142539Y-91270185D01*
X153188294Y-91322989D01*
X153199500Y-91374500D01*
X153199500Y-91875001D01*
X153199501Y-91875019D01*
X153210000Y-91977796D01*
X153210001Y-91977799D01*
X153260732Y-92130893D01*
X153265186Y-92144334D01*
X153357288Y-92293656D01*
X153481344Y-92417712D01*
X153630666Y-92509814D01*
X153630667Y-92509814D01*
X153630670Y-92509816D01*
X153654999Y-92517877D01*
X153712446Y-92557647D01*
X153739271Y-92622162D01*
X153740000Y-92635584D01*
X153740000Y-93314941D01*
X153720315Y-93381980D01*
X153667511Y-93427735D01*
X153655006Y-93432646D01*
X153630880Y-93440640D01*
X153481654Y-93532684D01*
X153357684Y-93656654D01*
X153265643Y-93805875D01*
X153265641Y-93805880D01*
X153210494Y-93972302D01*
X153210493Y-93972309D01*
X153200000Y-94075013D01*
X153200000Y-94200000D01*
X155999999Y-94200000D01*
X155999999Y-94075028D01*
X155999998Y-94075013D01*
X155989505Y-93972302D01*
X155934358Y-93805880D01*
X155934356Y-93805875D01*
X155842315Y-93656654D01*
X155718344Y-93532683D01*
X155718340Y-93532680D01*
X155618903Y-93471346D01*
X155572178Y-93419398D01*
X155560000Y-93365808D01*
X155560000Y-92584778D01*
X155579685Y-92517739D01*
X155618904Y-92479239D01*
X155718656Y-92417712D01*
X155842712Y-92293656D01*
X155934814Y-92144334D01*
X155989999Y-91977797D01*
X156000500Y-91875009D01*
X156000499Y-91374499D01*
X156020183Y-91307461D01*
X156072987Y-91261706D01*
X156124499Y-91250500D01*
X166098422Y-91250500D01*
X166292826Y-91219709D01*
X166480025Y-91158884D01*
X166655405Y-91069524D01*
X166814646Y-90953828D01*
X166953828Y-90814646D01*
X167069524Y-90655405D01*
X167158884Y-90480025D01*
X167219709Y-90292826D01*
X167229408Y-90231591D01*
X167250500Y-90098422D01*
X167250500Y-89901577D01*
X167219709Y-89707173D01*
X167158882Y-89519970D01*
X167097754Y-89400000D01*
X167069524Y-89344595D01*
X166953828Y-89185354D01*
X166814646Y-89046172D01*
X166655405Y-88930476D01*
X166480029Y-88841117D01*
X166292826Y-88780290D01*
X166098422Y-88749500D01*
X166098417Y-88749500D01*
X164898417Y-88749500D01*
X163748417Y-88749500D01*
X156174500Y-88749500D01*
X156107461Y-88729815D01*
X156061706Y-88677011D01*
X156050500Y-88625500D01*
X156050499Y-88124998D01*
X156050498Y-88124980D01*
X156039999Y-88022203D01*
X156039998Y-88022200D01*
X156025190Y-87977512D01*
X155984814Y-87855666D01*
X155892712Y-87706344D01*
X155768656Y-87582288D01*
X155619334Y-87490186D01*
X155618903Y-87489920D01*
X155572179Y-87437972D01*
X155560000Y-87384381D01*
X155560000Y-86665031D01*
X155579685Y-86597992D01*
X155618903Y-86559492D01*
X155768345Y-86467315D01*
X155892315Y-86343345D01*
X155984356Y-86194124D01*
X155984358Y-86194119D01*
X156039505Y-86027697D01*
X156039506Y-86027690D01*
X156049999Y-85924986D01*
X156050000Y-85924973D01*
X156050000Y-85800000D01*
X153250001Y-85800000D01*
X153250001Y-85924986D01*
X153260494Y-86027697D01*
X153315641Y-86194119D01*
X153315643Y-86194124D01*
X153407684Y-86343345D01*
X153531654Y-86467315D01*
X153681097Y-86559492D01*
X153727821Y-86611440D01*
X153740000Y-86665031D01*
X153740000Y-87384381D01*
X153720315Y-87451420D01*
X153681097Y-87489920D01*
X153531342Y-87582289D01*
X153407289Y-87706342D01*
X153315187Y-87855663D01*
X153315185Y-87855668D01*
X153298891Y-87904842D01*
X153260001Y-88022203D01*
X153260001Y-88022204D01*
X153260000Y-88022204D01*
X153249500Y-88124983D01*
X153249500Y-88124991D01*
X153249500Y-88434533D01*
X153249501Y-88625500D01*
X153229817Y-88692539D01*
X153177013Y-88738294D01*
X153125501Y-88749500D01*
X152042058Y-88749500D01*
X151975019Y-88729815D01*
X151969173Y-88725818D01*
X151838848Y-88631132D01*
X151838847Y-88631131D01*
X151838845Y-88631130D01*
X151734232Y-88577827D01*
X151688192Y-88554368D01*
X151637396Y-88506393D01*
X151620601Y-88438572D01*
X151643139Y-88372437D01*
X151688190Y-88333399D01*
X151786433Y-88283343D01*
X151977510Y-88144517D01*
X152144517Y-87977510D01*
X152283343Y-87786433D01*
X152390568Y-87575992D01*
X152463553Y-87351368D01*
X152470542Y-87307240D01*
X152500500Y-87118097D01*
X152500500Y-86881902D01*
X152463553Y-86648631D01*
X152405221Y-86469105D01*
X152390568Y-86424008D01*
X152390566Y-86424005D01*
X152390566Y-86424003D01*
X152283342Y-86213566D01*
X152283137Y-86213284D01*
X152144517Y-86022490D01*
X151977510Y-85855483D01*
X151786433Y-85716657D01*
X151686672Y-85665826D01*
X151575996Y-85609433D01*
X151546960Y-85599999D01*
X151473714Y-85576200D01*
X151351368Y-85536446D01*
X151118097Y-85499500D01*
X151118092Y-85499500D01*
X150881908Y-85499500D01*
X150881903Y-85499500D01*
X150648631Y-85536446D01*
X150424003Y-85609433D01*
X150213566Y-85716657D01*
X150108500Y-85792993D01*
X150022490Y-85855483D01*
X150022488Y-85855485D01*
X150022487Y-85855485D01*
X149855485Y-86022487D01*
X149855485Y-86022488D01*
X149855483Y-86022490D01*
X149851705Y-86027690D01*
X149716657Y-86213566D01*
X149609433Y-86424003D01*
X149536446Y-86648631D01*
X149499500Y-86881902D01*
X149499500Y-87118097D01*
X149536446Y-87351368D01*
X149609433Y-87575996D01*
X149713379Y-87780000D01*
X149716657Y-87786433D01*
X149855483Y-87977510D01*
X150022490Y-88144517D01*
X150165797Y-88248636D01*
X150213568Y-88283344D01*
X150311806Y-88333398D01*
X150362603Y-88381372D01*
X150379398Y-88449193D01*
X150356861Y-88515328D01*
X150311807Y-88554367D01*
X150161156Y-88631128D01*
X150161155Y-88631129D01*
X149957350Y-88779201D01*
X149957345Y-88779205D01*
X149779205Y-88957345D01*
X149779201Y-88957350D01*
X149631132Y-89161151D01*
X149516760Y-89385616D01*
X149453601Y-89580000D01*
X149438910Y-89625215D01*
X149399500Y-89874038D01*
X144799995Y-89874038D01*
X144760602Y-89625330D01*
X144682780Y-89385815D01*
X144568442Y-89161416D01*
X144494250Y-89059301D01*
X144494250Y-89059300D01*
X143764612Y-89788939D01*
X143759111Y-89768409D01*
X143680119Y-89631592D01*
X143568408Y-89519881D01*
X143431591Y-89440889D01*
X143411058Y-89435387D01*
X144140698Y-88705748D01*
X144038581Y-88631555D01*
X143887642Y-88554647D01*
X143836847Y-88506673D01*
X143820052Y-88438852D01*
X143842590Y-88372717D01*
X143887642Y-88333679D01*
X143986433Y-88283343D01*
X144177510Y-88144517D01*
X144344517Y-87977510D01*
X144483343Y-87786433D01*
X144590568Y-87575992D01*
X144663553Y-87351368D01*
X144670542Y-87307240D01*
X144700500Y-87118097D01*
X144700500Y-86881902D01*
X144663553Y-86648631D01*
X144605221Y-86469105D01*
X144590568Y-86424008D01*
X144590566Y-86424005D01*
X144590566Y-86424003D01*
X144483342Y-86213566D01*
X144483137Y-86213284D01*
X144344517Y-86022490D01*
X144177510Y-85855483D01*
X143986433Y-85716657D01*
X143886672Y-85665826D01*
X143775996Y-85609433D01*
X143551368Y-85536446D01*
X143318097Y-85499500D01*
X143318092Y-85499500D01*
X143081908Y-85499500D01*
X143081903Y-85499500D01*
X142848631Y-85536446D01*
X142624003Y-85609433D01*
X142413566Y-85716657D01*
X142308500Y-85792993D01*
X142222490Y-85855483D01*
X142222488Y-85855485D01*
X142222487Y-85855485D01*
X142055485Y-86022487D01*
X142055485Y-86022488D01*
X142055483Y-86022490D01*
X142051705Y-86027690D01*
X141916657Y-86213566D01*
X141809433Y-86424003D01*
X141736446Y-86648631D01*
X141699500Y-86881902D01*
X141699500Y-87118097D01*
X141736446Y-87351368D01*
X141809433Y-87575996D01*
X141913379Y-87780000D01*
X141916657Y-87786433D01*
X142055483Y-87977510D01*
X142222490Y-88144517D01*
X142413567Y-88283343D01*
X142512357Y-88333679D01*
X142563152Y-88381652D01*
X142579947Y-88449473D01*
X142557410Y-88515608D01*
X142512357Y-88554647D01*
X142361415Y-88631557D01*
X142259301Y-88705747D01*
X142259300Y-88705748D01*
X142988940Y-89435387D01*
X142968409Y-89440889D01*
X142831592Y-89519881D01*
X142719881Y-89631592D01*
X142640889Y-89768409D01*
X142635387Y-89788940D01*
X141905748Y-89059300D01*
X141905747Y-89059301D01*
X141831559Y-89161413D01*
X141717219Y-89385815D01*
X141639397Y-89625330D01*
X141600000Y-89874071D01*
X124806816Y-89874071D01*
X124809588Y-89853019D01*
X124829999Y-89697985D01*
X124830000Y-89697971D01*
X124830000Y-89462028D01*
X124829999Y-89462014D01*
X124799200Y-89228085D01*
X124738129Y-89000162D01*
X124647839Y-88782180D01*
X124647834Y-88782171D01*
X124529855Y-88577828D01*
X124529854Y-88577827D01*
X124467277Y-88496275D01*
X123745846Y-89217705D01*
X123738951Y-89201058D01*
X123651401Y-89070030D01*
X123539970Y-88958599D01*
X123408942Y-88871049D01*
X123392292Y-88864152D01*
X124113723Y-88142721D01*
X124032172Y-88080145D01*
X124032171Y-88080144D01*
X123827828Y-87962165D01*
X123827819Y-87962160D01*
X123609836Y-87871870D01*
X123609838Y-87871870D01*
X123381914Y-87810799D01*
X123147985Y-87780000D01*
X122912014Y-87780000D01*
X122678085Y-87810799D01*
X122450162Y-87871870D01*
X122311286Y-87929394D01*
X122241817Y-87936863D01*
X122179338Y-87905587D01*
X122143686Y-87845498D01*
X122146180Y-87775673D01*
X122156449Y-87752830D01*
X122163344Y-87740888D01*
X122251158Y-87528887D01*
X122310548Y-87307238D01*
X122340500Y-87079734D01*
X122340500Y-86881902D01*
X125699500Y-86881902D01*
X125699500Y-87118097D01*
X125736446Y-87351368D01*
X125809433Y-87575996D01*
X125913379Y-87780000D01*
X125916657Y-87786433D01*
X126055483Y-87977510D01*
X126222490Y-88144517D01*
X126413567Y-88283343D01*
X126511806Y-88333398D01*
X126624003Y-88390566D01*
X126624005Y-88390566D01*
X126624008Y-88390568D01*
X126744412Y-88429689D01*
X126848631Y-88463553D01*
X127081903Y-88500500D01*
X127081908Y-88500500D01*
X127318097Y-88500500D01*
X127551368Y-88463553D01*
X127775992Y-88390568D01*
X127986433Y-88283343D01*
X128177510Y-88144517D01*
X128344517Y-87977510D01*
X128483343Y-87786433D01*
X128590568Y-87575992D01*
X128663553Y-87351368D01*
X128670542Y-87307240D01*
X128700500Y-87118097D01*
X128700500Y-86881902D01*
X128663553Y-86648631D01*
X128605221Y-86469105D01*
X128590568Y-86424008D01*
X128590566Y-86424005D01*
X128590566Y-86424003D01*
X128483342Y-86213566D01*
X128483137Y-86213284D01*
X128344517Y-86022490D01*
X128177510Y-85855483D01*
X127986433Y-85716657D01*
X127886672Y-85665826D01*
X127775996Y-85609433D01*
X127551368Y-85536446D01*
X127318097Y-85499500D01*
X127318092Y-85499500D01*
X127081908Y-85499500D01*
X127081903Y-85499500D01*
X126848631Y-85536446D01*
X126624003Y-85609433D01*
X126413566Y-85716657D01*
X126308500Y-85792993D01*
X126222490Y-85855483D01*
X126222488Y-85855485D01*
X126222487Y-85855485D01*
X126055485Y-86022487D01*
X126055485Y-86022488D01*
X126055483Y-86022490D01*
X126051705Y-86027690D01*
X125916657Y-86213566D01*
X125809433Y-86424003D01*
X125736446Y-86648631D01*
X125699500Y-86881902D01*
X122340500Y-86881902D01*
X122340500Y-86850266D01*
X122310548Y-86622762D01*
X122251158Y-86401113D01*
X122228010Y-86345230D01*
X122220542Y-86275763D01*
X122251817Y-86213284D01*
X122311906Y-86177632D01*
X122381731Y-86180126D01*
X122390025Y-86183219D01*
X122450165Y-86208130D01*
X122678085Y-86269200D01*
X122912014Y-86299999D01*
X122912029Y-86300000D01*
X123147971Y-86300000D01*
X123147985Y-86299999D01*
X123381914Y-86269200D01*
X123609837Y-86208129D01*
X123827819Y-86117839D01*
X123827828Y-86117834D01*
X124032181Y-85999850D01*
X124113723Y-85937279D01*
X124113723Y-85937276D01*
X123392293Y-85215847D01*
X123408942Y-85208951D01*
X123539970Y-85121401D01*
X123651401Y-85009970D01*
X123738951Y-84878942D01*
X123745847Y-84862293D01*
X124467276Y-85583723D01*
X124467279Y-85583723D01*
X124529850Y-85502181D01*
X124541558Y-85481902D01*
X161199500Y-85481902D01*
X161199500Y-85718097D01*
X161236446Y-85951368D01*
X161309433Y-86175996D01*
X161416519Y-86386163D01*
X161416657Y-86386433D01*
X161555483Y-86577510D01*
X161722490Y-86744517D01*
X161913567Y-86883343D01*
X162012991Y-86934002D01*
X162124003Y-86990566D01*
X162124005Y-86990566D01*
X162124008Y-86990568D01*
X162244412Y-87029689D01*
X162348631Y-87063553D01*
X162581903Y-87100500D01*
X162581908Y-87100500D01*
X162818097Y-87100500D01*
X163051368Y-87063553D01*
X163052870Y-87063065D01*
X163275992Y-86990568D01*
X163486433Y-86883343D01*
X163677510Y-86744517D01*
X163785208Y-86636819D01*
X163846531Y-86603334D01*
X163872889Y-86600500D01*
X164340202Y-86600500D01*
X164407241Y-86620185D01*
X164445739Y-86659401D01*
X164482288Y-86718656D01*
X164606344Y-86842712D01*
X164755666Y-86934814D01*
X164922203Y-86989999D01*
X165024991Y-87000500D01*
X165775008Y-87000499D01*
X165775016Y-87000498D01*
X165775019Y-87000498D01*
X165831302Y-86994748D01*
X165877797Y-86989999D01*
X166044334Y-86934814D01*
X166193656Y-86842712D01*
X166317712Y-86718656D01*
X166409814Y-86569334D01*
X166464999Y-86402797D01*
X166475500Y-86300009D01*
X166475500Y-86299986D01*
X167275001Y-86299986D01*
X167285494Y-86402697D01*
X167340641Y-86569119D01*
X167340643Y-86569124D01*
X167432684Y-86718345D01*
X167556654Y-86842315D01*
X167705875Y-86934356D01*
X167705880Y-86934358D01*
X167872302Y-86989505D01*
X167872309Y-86989506D01*
X167975019Y-86999999D01*
X168099999Y-86999999D01*
X168600000Y-86999999D01*
X168724972Y-86999999D01*
X168724986Y-86999998D01*
X168827697Y-86989505D01*
X168994119Y-86934358D01*
X168994124Y-86934356D01*
X169143345Y-86842315D01*
X169267317Y-86718343D01*
X169272278Y-86710301D01*
X169359356Y-86569124D01*
X169359358Y-86569119D01*
X169414505Y-86402697D01*
X169414506Y-86402690D01*
X169424999Y-86299986D01*
X169425000Y-86299973D01*
X169425000Y-85850000D01*
X168600000Y-85850000D01*
X168600000Y-86999999D01*
X168099999Y-86999999D01*
X168100000Y-86999998D01*
X168100000Y-85850000D01*
X167275001Y-85850000D01*
X167275001Y-86299986D01*
X166475500Y-86299986D01*
X166475500Y-85600001D01*
X166475500Y-85481947D01*
X181200000Y-85481947D01*
X181200000Y-85718052D01*
X181236934Y-85951247D01*
X181309897Y-86175802D01*
X181417087Y-86386174D01*
X181477338Y-86469104D01*
X181477340Y-86469105D01*
X182217037Y-85729408D01*
X182234075Y-85792993D01*
X182299901Y-85907007D01*
X182392993Y-86000099D01*
X182507007Y-86065925D01*
X182570590Y-86082962D01*
X181830893Y-86822658D01*
X181913828Y-86882914D01*
X182124197Y-86990102D01*
X182348752Y-87063065D01*
X182348751Y-87063065D01*
X182581948Y-87100000D01*
X182818052Y-87100000D01*
X183051247Y-87063065D01*
X183275802Y-86990102D01*
X183486163Y-86882918D01*
X183486169Y-86882914D01*
X183569104Y-86822658D01*
X183569105Y-86822658D01*
X182829408Y-86082962D01*
X182892993Y-86065925D01*
X183007007Y-86000099D01*
X183100099Y-85907007D01*
X183165925Y-85792993D01*
X183182962Y-85729409D01*
X183922658Y-86469105D01*
X183922658Y-86469104D01*
X183982914Y-86386169D01*
X183982918Y-86386163D01*
X184090102Y-86175802D01*
X184163065Y-85951247D01*
X184200000Y-85718052D01*
X184200000Y-85481947D01*
X184163065Y-85248752D01*
X184090102Y-85024197D01*
X183982914Y-84813828D01*
X183922658Y-84730894D01*
X183922658Y-84730893D01*
X183182962Y-85470590D01*
X183165925Y-85407007D01*
X183100099Y-85292993D01*
X183007007Y-85199901D01*
X182892993Y-85134075D01*
X182829409Y-85117037D01*
X183569105Y-84377340D01*
X183569104Y-84377338D01*
X183486174Y-84317087D01*
X183275802Y-84209897D01*
X183051247Y-84136934D01*
X183051248Y-84136934D01*
X182818052Y-84100000D01*
X182581948Y-84100000D01*
X182348752Y-84136934D01*
X182124197Y-84209897D01*
X181913830Y-84317084D01*
X181830894Y-84377340D01*
X182570591Y-85117037D01*
X182507007Y-85134075D01*
X182392993Y-85199901D01*
X182299901Y-85292993D01*
X182234075Y-85407007D01*
X182217037Y-85470590D01*
X181477340Y-84730894D01*
X181417084Y-84813830D01*
X181309897Y-85024197D01*
X181236934Y-85248752D01*
X181200000Y-85481947D01*
X166475500Y-85481947D01*
X166475500Y-85477075D01*
X166475499Y-84900013D01*
X167275000Y-84900013D01*
X167275000Y-85350000D01*
X168100000Y-85350000D01*
X168600000Y-85350000D01*
X169424999Y-85350000D01*
X169424999Y-84900028D01*
X169424998Y-84900013D01*
X169414505Y-84797302D01*
X169359358Y-84630880D01*
X169359356Y-84630875D01*
X169272276Y-84489696D01*
X169272275Y-84489693D01*
X169267319Y-84481658D01*
X169143345Y-84357684D01*
X168994124Y-84265643D01*
X168994119Y-84265641D01*
X168827697Y-84210494D01*
X168827690Y-84210493D01*
X168724986Y-84200000D01*
X168600000Y-84200000D01*
X168600000Y-85350000D01*
X168100000Y-85350000D01*
X168100000Y-84200000D01*
X167975027Y-84200000D01*
X167975012Y-84200001D01*
X167872302Y-84210494D01*
X167705880Y-84265641D01*
X167705875Y-84265643D01*
X167556654Y-84357684D01*
X167432684Y-84481654D01*
X167340643Y-84630875D01*
X167340641Y-84630880D01*
X167285494Y-84797302D01*
X167285493Y-84797309D01*
X167275000Y-84900013D01*
X166475499Y-84900013D01*
X166475499Y-84899998D01*
X166475498Y-84899981D01*
X166464999Y-84797203D01*
X166464998Y-84797200D01*
X166451562Y-84756654D01*
X166409814Y-84630666D01*
X166317712Y-84481344D01*
X166193656Y-84357288D01*
X166044334Y-84265186D01*
X165877797Y-84210001D01*
X165877795Y-84210000D01*
X165775010Y-84199500D01*
X165024998Y-84199500D01*
X165024980Y-84199501D01*
X164922203Y-84210000D01*
X164922200Y-84210001D01*
X164755668Y-84265185D01*
X164755663Y-84265187D01*
X164606342Y-84357289D01*
X164482289Y-84481342D01*
X164445741Y-84540597D01*
X164393793Y-84587321D01*
X164340202Y-84599500D01*
X163872889Y-84599500D01*
X163805850Y-84579815D01*
X163785208Y-84563181D01*
X163677512Y-84455485D01*
X163677510Y-84455483D01*
X163486433Y-84316657D01*
X163275996Y-84209433D01*
X163051368Y-84136446D01*
X162818097Y-84099500D01*
X162818092Y-84099500D01*
X162581908Y-84099500D01*
X162581903Y-84099500D01*
X162348631Y-84136446D01*
X162124003Y-84209433D01*
X161913566Y-84316657D01*
X161857643Y-84357288D01*
X161722490Y-84455483D01*
X161722488Y-84455485D01*
X161722487Y-84455485D01*
X161555485Y-84622487D01*
X161555485Y-84622488D01*
X161555483Y-84622490D01*
X161548077Y-84632684D01*
X161416657Y-84813566D01*
X161309433Y-85024003D01*
X161236446Y-85248631D01*
X161199500Y-85481902D01*
X124541558Y-85481902D01*
X124647834Y-85297828D01*
X124647839Y-85297819D01*
X124698707Y-85175013D01*
X153250000Y-85175013D01*
X153250000Y-85300000D01*
X154400000Y-85300000D01*
X154900000Y-85300000D01*
X156049999Y-85300000D01*
X156049999Y-85175028D01*
X156049998Y-85175013D01*
X156039505Y-85072302D01*
X155984358Y-84905880D01*
X155984356Y-84905875D01*
X155892315Y-84756654D01*
X155768345Y-84632684D01*
X155619124Y-84540643D01*
X155619119Y-84540641D01*
X155452697Y-84485494D01*
X155452690Y-84485493D01*
X155349986Y-84475000D01*
X154900000Y-84475000D01*
X154900000Y-85300000D01*
X154400000Y-85300000D01*
X154400000Y-84475000D01*
X153950028Y-84475000D01*
X153950012Y-84475001D01*
X153847302Y-84485494D01*
X153680880Y-84540641D01*
X153680875Y-84540643D01*
X153531654Y-84632684D01*
X153407684Y-84756654D01*
X153315643Y-84905875D01*
X153315641Y-84905880D01*
X153260494Y-85072302D01*
X153260493Y-85072309D01*
X153250000Y-85175013D01*
X124698707Y-85175013D01*
X124719666Y-85124412D01*
X124719666Y-85124411D01*
X124738130Y-85079834D01*
X124799200Y-84851914D01*
X124829999Y-84617985D01*
X124830000Y-84617971D01*
X124830000Y-84382028D01*
X124829999Y-84382014D01*
X124799200Y-84148085D01*
X124738129Y-83920162D01*
X124647839Y-83702180D01*
X124647834Y-83702171D01*
X124529855Y-83497828D01*
X124529854Y-83497827D01*
X124467277Y-83416275D01*
X123745846Y-84137705D01*
X123738951Y-84121058D01*
X123651401Y-83990030D01*
X123539970Y-83878599D01*
X123408942Y-83791049D01*
X123392293Y-83784152D01*
X124113723Y-83062721D01*
X124032172Y-83000145D01*
X124032171Y-83000144D01*
X123827828Y-82882165D01*
X123827819Y-82882160D01*
X123609836Y-82791870D01*
X123609838Y-82791870D01*
X123381914Y-82730799D01*
X123147985Y-82700000D01*
X122912014Y-82700000D01*
X122678085Y-82730799D01*
X122450162Y-82791870D01*
X122232180Y-82882160D01*
X122232171Y-82882165D01*
X122027828Y-83000144D01*
X122027818Y-83000150D01*
X121946275Y-83062720D01*
X121946275Y-83062721D01*
X122667706Y-83784152D01*
X122651058Y-83791049D01*
X122520030Y-83878599D01*
X122408599Y-83990030D01*
X122321049Y-84121058D01*
X122314152Y-84137706D01*
X121592721Y-83416275D01*
X121592720Y-83416275D01*
X121530150Y-83497818D01*
X121530144Y-83497828D01*
X121412165Y-83702171D01*
X121412160Y-83702180D01*
X121321870Y-83920162D01*
X121260799Y-84148085D01*
X121230000Y-84382014D01*
X121230000Y-84617985D01*
X121260799Y-84851914D01*
X121321870Y-85079837D01*
X121354102Y-85157653D01*
X121361571Y-85227123D01*
X121330295Y-85289602D01*
X121270206Y-85325253D01*
X121200381Y-85322759D01*
X121192101Y-85319671D01*
X121153887Y-85303842D01*
X121153885Y-85303841D01*
X121153884Y-85303841D01*
X121088035Y-85286197D01*
X120932238Y-85244452D01*
X120894215Y-85239446D01*
X120704741Y-85214500D01*
X120704734Y-85214500D01*
X120475266Y-85214500D01*
X120475258Y-85214500D01*
X120258715Y-85243009D01*
X120247762Y-85244452D01*
X120155187Y-85269257D01*
X120026112Y-85303842D01*
X119814123Y-85391650D01*
X119814106Y-85391659D01*
X119755696Y-85425381D01*
X119687796Y-85441852D01*
X119621769Y-85418999D01*
X119578580Y-85364077D01*
X119571939Y-85294524D01*
X119579137Y-85270540D01*
X119658130Y-85079834D01*
X119719200Y-84851914D01*
X119749999Y-84617985D01*
X119750000Y-84617971D01*
X119750000Y-84382028D01*
X119749999Y-84382014D01*
X119719200Y-84148085D01*
X119658129Y-83920162D01*
X119567839Y-83702180D01*
X119567834Y-83702171D01*
X119449855Y-83497828D01*
X119449854Y-83497827D01*
X119387277Y-83416275D01*
X118665846Y-84137706D01*
X118658951Y-84121058D01*
X118571401Y-83990030D01*
X118459970Y-83878599D01*
X118328942Y-83791049D01*
X118312293Y-83784152D01*
X119033723Y-83062721D01*
X118952172Y-83000145D01*
X118952171Y-83000144D01*
X118747828Y-82882165D01*
X118747819Y-82882160D01*
X118529836Y-82791870D01*
X118529838Y-82791870D01*
X118301914Y-82730799D01*
X118067985Y-82700000D01*
X117832014Y-82700000D01*
X117598085Y-82730799D01*
X117370162Y-82791870D01*
X117152180Y-82882160D01*
X117152171Y-82882165D01*
X116947828Y-83000144D01*
X116947818Y-83000150D01*
X116866275Y-83062720D01*
X116866275Y-83062721D01*
X117587706Y-83784152D01*
X117571058Y-83791049D01*
X117440030Y-83878599D01*
X117328599Y-83990030D01*
X117241049Y-84121058D01*
X117234152Y-84137706D01*
X116512721Y-83416275D01*
X116512720Y-83416275D01*
X116450150Y-83497818D01*
X116450144Y-83497828D01*
X116332165Y-83702171D01*
X116332160Y-83702180D01*
X116241870Y-83920162D01*
X116180799Y-84148085D01*
X116150000Y-84382014D01*
X115500500Y-84382014D01*
X115500500Y-79481902D01*
X161199500Y-79481902D01*
X161199500Y-79718097D01*
X161236446Y-79951368D01*
X161309433Y-80175996D01*
X161416657Y-80386433D01*
X161555483Y-80577510D01*
X161722490Y-80744517D01*
X161913567Y-80883343D01*
X162012991Y-80934002D01*
X162124003Y-80990566D01*
X162124005Y-80990566D01*
X162124008Y-80990568D01*
X162244412Y-81029689D01*
X162348631Y-81063553D01*
X162581903Y-81100500D01*
X162581908Y-81100500D01*
X162818097Y-81100500D01*
X163051368Y-81063553D01*
X163275992Y-80990568D01*
X163486433Y-80883343D01*
X163677510Y-80744517D01*
X163844517Y-80577510D01*
X163983343Y-80386433D01*
X164090568Y-80175992D01*
X164163553Y-79951368D01*
X164200500Y-79718097D01*
X164200500Y-79481902D01*
X181199500Y-79481902D01*
X181199500Y-79718097D01*
X181236446Y-79951368D01*
X181309433Y-80175996D01*
X181416657Y-80386433D01*
X181555483Y-80577510D01*
X181722490Y-80744517D01*
X181913567Y-80883343D01*
X182012991Y-80934002D01*
X182124003Y-80990566D01*
X182124005Y-80990566D01*
X182124008Y-80990568D01*
X182244412Y-81029689D01*
X182348631Y-81063553D01*
X182581903Y-81100500D01*
X182581908Y-81100500D01*
X182818097Y-81100500D01*
X183051368Y-81063553D01*
X183275992Y-80990568D01*
X183486433Y-80883343D01*
X183677510Y-80744517D01*
X183844517Y-80577510D01*
X183983343Y-80386433D01*
X184090568Y-80175992D01*
X184163553Y-79951368D01*
X184200500Y-79718097D01*
X184200500Y-79481902D01*
X184163553Y-79248631D01*
X184112155Y-79090446D01*
X184090568Y-79024008D01*
X184090566Y-79024005D01*
X184090566Y-79024003D01*
X184034002Y-78912991D01*
X183983343Y-78813567D01*
X183844517Y-78622490D01*
X183677510Y-78455483D01*
X183486433Y-78316657D01*
X183275996Y-78209433D01*
X183051368Y-78136446D01*
X182818097Y-78099500D01*
X182818092Y-78099500D01*
X182581908Y-78099500D01*
X182581903Y-78099500D01*
X182348631Y-78136446D01*
X182124003Y-78209433D01*
X181913566Y-78316657D01*
X181842203Y-78368506D01*
X181722490Y-78455483D01*
X181722488Y-78455485D01*
X181722487Y-78455485D01*
X181555485Y-78622487D01*
X181555485Y-78622488D01*
X181555483Y-78622490D01*
X181502727Y-78695102D01*
X181416657Y-78813566D01*
X181309433Y-79024003D01*
X181236446Y-79248631D01*
X181199500Y-79481902D01*
X164200500Y-79481902D01*
X164163553Y-79248631D01*
X164112155Y-79090446D01*
X164090568Y-79024008D01*
X164090566Y-79024005D01*
X164090566Y-79024003D01*
X164034002Y-78912991D01*
X163983343Y-78813567D01*
X163844517Y-78622490D01*
X163677510Y-78455483D01*
X163486433Y-78316657D01*
X163275996Y-78209433D01*
X163051368Y-78136446D01*
X162818097Y-78099500D01*
X162818092Y-78099500D01*
X162581908Y-78099500D01*
X162581903Y-78099500D01*
X162348631Y-78136446D01*
X162124003Y-78209433D01*
X161913566Y-78316657D01*
X161842203Y-78368506D01*
X161722490Y-78455483D01*
X161722488Y-78455485D01*
X161722487Y-78455485D01*
X161555485Y-78622487D01*
X161555485Y-78622488D01*
X161555483Y-78622490D01*
X161502727Y-78695102D01*
X161416657Y-78813566D01*
X161309433Y-79024003D01*
X161236446Y-79248631D01*
X161199500Y-79481902D01*
X115500500Y-79481902D01*
X115500500Y-75263945D01*
X133229500Y-75263945D01*
X133229500Y-75456054D01*
X133259553Y-75645802D01*
X133318916Y-75828506D01*
X133318918Y-75828509D01*
X133406135Y-75999681D01*
X133519055Y-76155102D01*
X133654898Y-76290945D01*
X133810319Y-76403865D01*
X133944035Y-76471997D01*
X133981493Y-76491083D01*
X134046081Y-76512069D01*
X134103756Y-76551506D01*
X134130955Y-76615865D01*
X134119041Y-76684711D01*
X134071797Y-76736187D01*
X134046081Y-76747931D01*
X133981493Y-76768916D01*
X133810318Y-76856135D01*
X133721645Y-76920560D01*
X133654898Y-76969055D01*
X133654896Y-76969057D01*
X133654895Y-76969057D01*
X133519057Y-77104895D01*
X133519057Y-77104896D01*
X133519055Y-77104898D01*
X133470560Y-77171645D01*
X133406135Y-77260318D01*
X133318916Y-77431493D01*
X133259553Y-77614197D01*
X133229500Y-77803945D01*
X133229500Y-77996054D01*
X133259553Y-78185802D01*
X133318916Y-78368506D01*
X133363235Y-78455485D01*
X133406135Y-78539681D01*
X133519055Y-78695102D01*
X133654898Y-78830945D01*
X133810319Y-78943865D01*
X133967598Y-79024003D01*
X133981493Y-79031083D01*
X134072845Y-79060764D01*
X134164199Y-79090447D01*
X134353945Y-79120500D01*
X134353946Y-79120500D01*
X134546054Y-79120500D01*
X134546055Y-79120500D01*
X134735801Y-79090447D01*
X134918509Y-79031082D01*
X135089681Y-78943865D01*
X135245102Y-78830945D01*
X135380945Y-78695102D01*
X135493865Y-78539681D01*
X135581082Y-78368509D01*
X135640447Y-78185801D01*
X135670500Y-77996055D01*
X135670500Y-77803945D01*
X135640447Y-77614199D01*
X135581082Y-77431491D01*
X135493865Y-77260319D01*
X135380945Y-77104898D01*
X135245102Y-76969055D01*
X135089681Y-76856135D01*
X134918504Y-76768915D01*
X134853919Y-76747931D01*
X134796243Y-76708494D01*
X134769044Y-76644136D01*
X134780958Y-76575289D01*
X134828202Y-76523813D01*
X134853919Y-76512069D01*
X134918504Y-76491084D01*
X134918506Y-76491082D01*
X134918509Y-76491082D01*
X135089681Y-76403865D01*
X135245102Y-76290945D01*
X135380945Y-76155102D01*
X135493865Y-75999681D01*
X135581082Y-75828509D01*
X135640447Y-75645801D01*
X135670500Y-75456055D01*
X135670500Y-75263945D01*
X135640447Y-75074199D01*
X135581082Y-74891491D01*
X135493865Y-74720319D01*
X135380945Y-74564898D01*
X135245102Y-74429055D01*
X135089681Y-74316135D01*
X134918509Y-74228918D01*
X134918508Y-74228917D01*
X134918505Y-74228916D01*
X134853108Y-74207667D01*
X134795432Y-74168229D01*
X134768234Y-74103871D01*
X134780149Y-74035024D01*
X134827393Y-73983549D01*
X134853108Y-73971805D01*
X134918319Y-73950616D01*
X135089419Y-73863436D01*
X135118646Y-73842201D01*
X135118646Y-73842200D01*
X134496447Y-73220000D01*
X134502661Y-73220000D01*
X134604394Y-73192741D01*
X134695606Y-73140080D01*
X134770080Y-73065606D01*
X134822741Y-72974394D01*
X134850000Y-72872661D01*
X134850000Y-72866446D01*
X135472200Y-73488646D01*
X135472201Y-73488646D01*
X135493436Y-73459419D01*
X135580616Y-73288321D01*
X135639959Y-73105684D01*
X135670000Y-72916015D01*
X135670000Y-72723984D01*
X135639959Y-72534315D01*
X135580616Y-72351678D01*
X135493434Y-72180577D01*
X135472201Y-72151352D01*
X135472200Y-72151351D01*
X134850000Y-72773552D01*
X134850000Y-72767339D01*
X134822741Y-72665606D01*
X134770080Y-72574394D01*
X134695606Y-72499920D01*
X134604394Y-72447259D01*
X134502661Y-72420000D01*
X134496447Y-72420000D01*
X135118646Y-71797798D01*
X135089415Y-71776561D01*
X134918321Y-71689383D01*
X134735684Y-71630040D01*
X134546015Y-71600000D01*
X134353985Y-71600000D01*
X134164315Y-71630040D01*
X133981678Y-71689383D01*
X133810578Y-71776564D01*
X133781352Y-71797798D01*
X133781351Y-71797798D01*
X134403554Y-72420000D01*
X134397339Y-72420000D01*
X134295606Y-72447259D01*
X134204394Y-72499920D01*
X134129920Y-72574394D01*
X134077259Y-72665606D01*
X134050000Y-72767339D01*
X134050000Y-72773553D01*
X133427798Y-72151351D01*
X133427798Y-72151352D01*
X133406564Y-72180578D01*
X133319383Y-72351678D01*
X133260040Y-72534315D01*
X133230000Y-72723984D01*
X133230000Y-72916015D01*
X133260040Y-73105684D01*
X133319383Y-73288321D01*
X133406561Y-73459415D01*
X133427798Y-73488646D01*
X134050000Y-72866445D01*
X134050000Y-72872661D01*
X134077259Y-72974394D01*
X134129920Y-73065606D01*
X134204394Y-73140080D01*
X134295606Y-73192741D01*
X134397339Y-73220000D01*
X134403554Y-73220000D01*
X133781351Y-73842200D01*
X133781352Y-73842201D01*
X133810577Y-73863434D01*
X133981680Y-73950616D01*
X134046891Y-73971805D01*
X134104567Y-74011242D01*
X134131765Y-74075601D01*
X134119850Y-74144447D01*
X134072606Y-74195923D01*
X134046892Y-74207667D01*
X133981492Y-74228917D01*
X133810318Y-74316135D01*
X133721645Y-74380560D01*
X133654898Y-74429055D01*
X133654896Y-74429057D01*
X133654895Y-74429057D01*
X133519057Y-74564895D01*
X133519057Y-74564896D01*
X133519055Y-74564898D01*
X133470560Y-74631645D01*
X133406135Y-74720318D01*
X133318916Y-74891493D01*
X133259553Y-75074197D01*
X133229500Y-75263945D01*
X115500500Y-75263945D01*
X115500500Y-58814437D01*
X115750000Y-58814437D01*
X115750000Y-59185562D01*
X115782345Y-59555267D01*
X115782345Y-59555271D01*
X115846787Y-59920735D01*
X115846791Y-59920752D01*
X115942837Y-60279206D01*
X116069775Y-60627963D01*
X116226607Y-60964292D01*
X116226615Y-60964307D01*
X116412166Y-61285690D01*
X116412175Y-61285705D01*
X116625040Y-61589707D01*
X116822005Y-61824439D01*
X116822006Y-61824440D01*
X118313098Y-60333348D01*
X118380076Y-60420635D01*
X118579365Y-60619924D01*
X118666650Y-60686900D01*
X117175558Y-62177992D01*
X117175559Y-62177993D01*
X117410292Y-62374959D01*
X117714294Y-62587824D01*
X117714309Y-62587833D01*
X118035692Y-62773384D01*
X118035707Y-62773392D01*
X118372036Y-62930224D01*
X118720793Y-63057162D01*
X119079247Y-63153208D01*
X119079264Y-63153212D01*
X119444730Y-63217654D01*
X119814437Y-63249999D01*
X119814440Y-63250000D01*
X120185560Y-63250000D01*
X120185562Y-63249999D01*
X120555267Y-63217654D01*
X120555271Y-63217654D01*
X120920735Y-63153212D01*
X120920752Y-63153208D01*
X121279206Y-63057162D01*
X121627963Y-62930224D01*
X121964292Y-62773392D01*
X121964307Y-62773384D01*
X122285690Y-62587833D01*
X122285705Y-62587824D01*
X122589700Y-62374964D01*
X122824439Y-62177993D01*
X122824440Y-62177992D01*
X121333348Y-60686901D01*
X121420635Y-60619924D01*
X121619924Y-60420635D01*
X121686900Y-60333348D01*
X123177992Y-61824440D01*
X123177993Y-61824439D01*
X123374964Y-61589700D01*
X123587824Y-61285705D01*
X123587833Y-61285690D01*
X123773384Y-60964307D01*
X123773392Y-60964292D01*
X123930224Y-60627963D01*
X124057162Y-60279206D01*
X124153208Y-59920752D01*
X124153212Y-59920735D01*
X124217654Y-59555271D01*
X124217654Y-59555267D01*
X124249999Y-59185562D01*
X124250000Y-59185560D01*
X124250000Y-58814440D01*
X124249999Y-58814437D01*
X124217654Y-58444732D01*
X124217654Y-58444728D01*
X124153212Y-58079264D01*
X124153208Y-58079247D01*
X124139899Y-58029574D01*
X124133477Y-58005608D01*
X150499500Y-58005608D01*
X150499500Y-76137392D01*
X150504246Y-76155103D01*
X150533608Y-76264687D01*
X150566554Y-76321750D01*
X150599500Y-76378814D01*
X150692686Y-76472000D01*
X150806814Y-76537892D01*
X150934108Y-76572000D01*
X150934110Y-76572000D01*
X162065890Y-76572000D01*
X162065892Y-76572000D01*
X162193186Y-76537892D01*
X162307314Y-76472000D01*
X162400500Y-76378814D01*
X162466392Y-76264686D01*
X162500500Y-76137392D01*
X162500500Y-67342014D01*
X182660000Y-67342014D01*
X182660000Y-67577985D01*
X182690799Y-67811914D01*
X182751870Y-68039837D01*
X182842160Y-68257819D01*
X182842165Y-68257828D01*
X182960144Y-68462171D01*
X182960145Y-68462172D01*
X183022721Y-68543723D01*
X183744152Y-67822292D01*
X183751049Y-67838942D01*
X183838599Y-67969970D01*
X183950030Y-68081401D01*
X184081058Y-68168951D01*
X184097706Y-68175846D01*
X183376275Y-68897277D01*
X183457827Y-68959854D01*
X183457828Y-68959855D01*
X183662171Y-69077834D01*
X183662180Y-69077839D01*
X183880163Y-69168129D01*
X183880161Y-69168129D01*
X184108085Y-69229200D01*
X184342014Y-69259999D01*
X184342029Y-69260000D01*
X184577971Y-69260000D01*
X184577985Y-69259999D01*
X184811914Y-69229200D01*
X185039837Y-69168129D01*
X185257819Y-69077839D01*
X185257828Y-69077834D01*
X185333602Y-69034086D01*
X185401502Y-69017613D01*
X185467529Y-69040465D01*
X185510720Y-69095386D01*
X185517362Y-69164939D01*
X185510164Y-69188925D01*
X185438842Y-69361111D01*
X185438842Y-69361112D01*
X185379453Y-69582759D01*
X185379451Y-69582770D01*
X185349500Y-69810258D01*
X185349500Y-70039741D01*
X185374446Y-70229215D01*
X185379452Y-70267238D01*
X185379453Y-70267240D01*
X185438842Y-70488887D01*
X185526650Y-70700876D01*
X185526656Y-70700888D01*
X185602278Y-70831870D01*
X185621315Y-70864842D01*
X185637788Y-70932742D01*
X185614935Y-70998769D01*
X185560014Y-71041960D01*
X185490461Y-71048601D01*
X185451928Y-71034229D01*
X185257835Y-70922168D01*
X185257819Y-70922160D01*
X185039836Y-70831870D01*
X185039838Y-70831870D01*
X184811914Y-70770799D01*
X184577985Y-70740000D01*
X184342014Y-70740000D01*
X184108085Y-70770799D01*
X183880162Y-70831870D01*
X183662180Y-70922160D01*
X183662171Y-70922165D01*
X183457828Y-71040144D01*
X183457818Y-71040150D01*
X183376275Y-71102720D01*
X183376275Y-71102721D01*
X184097706Y-71824152D01*
X184081058Y-71831049D01*
X183950030Y-71918599D01*
X183838599Y-72030030D01*
X183751049Y-72161058D01*
X183744153Y-72177706D01*
X183022721Y-71456275D01*
X183022720Y-71456275D01*
X182960150Y-71537818D01*
X182960144Y-71537828D01*
X182842165Y-71742171D01*
X182842160Y-71742180D01*
X182751870Y-71960162D01*
X182690799Y-72188085D01*
X182660000Y-72422014D01*
X182660000Y-72657985D01*
X182690799Y-72891914D01*
X182751870Y-73119837D01*
X182842160Y-73337819D01*
X182842165Y-73337828D01*
X182960144Y-73542171D01*
X182960145Y-73542172D01*
X183022721Y-73623723D01*
X183744152Y-72902292D01*
X183751049Y-72918942D01*
X183838599Y-73049970D01*
X183950030Y-73161401D01*
X184081058Y-73248951D01*
X184097706Y-73255846D01*
X183376275Y-73977277D01*
X183457827Y-74039854D01*
X183457828Y-74039855D01*
X183662171Y-74157834D01*
X183662180Y-74157839D01*
X183880163Y-74248129D01*
X183880161Y-74248129D01*
X184108085Y-74309200D01*
X184342014Y-74339999D01*
X184342029Y-74340000D01*
X184577971Y-74340000D01*
X184577985Y-74339999D01*
X184811914Y-74309200D01*
X185039837Y-74248129D01*
X185257819Y-74157839D01*
X185257828Y-74157834D01*
X185462181Y-74039850D01*
X185543723Y-73977279D01*
X185543723Y-73977276D01*
X184822293Y-73255847D01*
X184838942Y-73248951D01*
X184969970Y-73161401D01*
X185081401Y-73049970D01*
X185168951Y-72918942D01*
X185175847Y-72902293D01*
X185897276Y-73623723D01*
X185897279Y-73623723D01*
X185959850Y-73542181D01*
X186077834Y-73337828D01*
X186077839Y-73337819D01*
X186168129Y-73119837D01*
X186229200Y-72891914D01*
X186259999Y-72657985D01*
X186260000Y-72657971D01*
X186260000Y-72422028D01*
X186259999Y-72422014D01*
X186229200Y-72188085D01*
X186168129Y-71960162D01*
X186077839Y-71742180D01*
X186077834Y-71742171D01*
X185974920Y-71563921D01*
X185958447Y-71496021D01*
X185981299Y-71429994D01*
X186036220Y-71386803D01*
X186105773Y-71380161D01*
X186144302Y-71394531D01*
X186324112Y-71498344D01*
X186324117Y-71498346D01*
X186324123Y-71498349D01*
X186397721Y-71528834D01*
X186536113Y-71586158D01*
X186757762Y-71645548D01*
X186985266Y-71675500D01*
X186985273Y-71675500D01*
X187214727Y-71675500D01*
X187214734Y-71675500D01*
X187442238Y-71645548D01*
X187663887Y-71586158D01*
X187784247Y-71536302D01*
X187853714Y-71528834D01*
X187916194Y-71560109D01*
X187951846Y-71620198D01*
X187949353Y-71690023D01*
X187939086Y-71712863D01*
X187922166Y-71742169D01*
X187922160Y-71742180D01*
X187831870Y-71960162D01*
X187770799Y-72188085D01*
X187740000Y-72422014D01*
X187740000Y-72657985D01*
X187770799Y-72891914D01*
X187831870Y-73119837D01*
X187922160Y-73337819D01*
X187922165Y-73337828D01*
X188040144Y-73542171D01*
X188040145Y-73542172D01*
X188102721Y-73623723D01*
X188824152Y-72902292D01*
X188831049Y-72918942D01*
X188918599Y-73049970D01*
X189030030Y-73161401D01*
X189161058Y-73248951D01*
X189177706Y-73255846D01*
X188456275Y-73977277D01*
X188537827Y-74039854D01*
X188537828Y-74039855D01*
X188742171Y-74157834D01*
X188742180Y-74157839D01*
X188960163Y-74248129D01*
X188960161Y-74248129D01*
X189188085Y-74309200D01*
X189422014Y-74339999D01*
X189422029Y-74340000D01*
X189657971Y-74340000D01*
X189657985Y-74339999D01*
X189891914Y-74309200D01*
X190119837Y-74248129D01*
X190337819Y-74157839D01*
X190337828Y-74157834D01*
X190542181Y-74039850D01*
X190623723Y-73977279D01*
X190623723Y-73977276D01*
X189902293Y-73255847D01*
X189918942Y-73248951D01*
X190049970Y-73161401D01*
X190161401Y-73049970D01*
X190248951Y-72918942D01*
X190255846Y-72902293D01*
X190977276Y-73623723D01*
X190977279Y-73623723D01*
X191039850Y-73542181D01*
X191157834Y-73337828D01*
X191157839Y-73337819D01*
X191248129Y-73119837D01*
X191309200Y-72891914D01*
X191339999Y-72657985D01*
X191340000Y-72657971D01*
X191340000Y-72422028D01*
X191339999Y-72422014D01*
X191309200Y-72188085D01*
X191248129Y-71960162D01*
X191157839Y-71742180D01*
X191157834Y-71742171D01*
X191039855Y-71537828D01*
X191039854Y-71537827D01*
X190977277Y-71456275D01*
X190255846Y-72177705D01*
X190248951Y-72161058D01*
X190161401Y-72030030D01*
X190049970Y-71918599D01*
X189918942Y-71831049D01*
X189902292Y-71824152D01*
X190623723Y-71102721D01*
X190542172Y-71040145D01*
X190542171Y-71040144D01*
X190337828Y-70922165D01*
X190337819Y-70922160D01*
X190119836Y-70831870D01*
X190119838Y-70831870D01*
X189891914Y-70770799D01*
X189657985Y-70740000D01*
X189422014Y-70740000D01*
X189188085Y-70770799D01*
X188960162Y-70831870D01*
X188821286Y-70889394D01*
X188751817Y-70896863D01*
X188689338Y-70865587D01*
X188653686Y-70805498D01*
X188656180Y-70735673D01*
X188666449Y-70712830D01*
X188673344Y-70700888D01*
X188761158Y-70488887D01*
X188820548Y-70267238D01*
X188850500Y-70039734D01*
X188850500Y-69810266D01*
X188820548Y-69582762D01*
X188761158Y-69361113D01*
X188738010Y-69305230D01*
X188730542Y-69235763D01*
X188761817Y-69173284D01*
X188821906Y-69137632D01*
X188891731Y-69140126D01*
X188900025Y-69143219D01*
X188960165Y-69168130D01*
X189188085Y-69229200D01*
X189422014Y-69259999D01*
X189422029Y-69260000D01*
X189657971Y-69260000D01*
X189657985Y-69259999D01*
X189891914Y-69229200D01*
X190119837Y-69168129D01*
X190337819Y-69077839D01*
X190337828Y-69077834D01*
X190542181Y-68959850D01*
X190623723Y-68897279D01*
X190623723Y-68897276D01*
X189902293Y-68175847D01*
X189918942Y-68168951D01*
X190049970Y-68081401D01*
X190161401Y-67969970D01*
X190248951Y-67838942D01*
X190255846Y-67822293D01*
X190977276Y-68543723D01*
X190977279Y-68543723D01*
X191039850Y-68462181D01*
X191157834Y-68257828D01*
X191157839Y-68257819D01*
X191248129Y-68039837D01*
X191309200Y-67811914D01*
X191339999Y-67577985D01*
X191340000Y-67577971D01*
X191340000Y-67342028D01*
X191339999Y-67342014D01*
X191309200Y-67108085D01*
X191248129Y-66880162D01*
X191157839Y-66662180D01*
X191157834Y-66662171D01*
X191039855Y-66457828D01*
X191039854Y-66457827D01*
X190977277Y-66376275D01*
X190255846Y-67097705D01*
X190248951Y-67081058D01*
X190161401Y-66950030D01*
X190049970Y-66838599D01*
X189918942Y-66751049D01*
X189902293Y-66744152D01*
X190623723Y-66022721D01*
X190542172Y-65960145D01*
X190542171Y-65960144D01*
X190337828Y-65842165D01*
X190337819Y-65842160D01*
X190119836Y-65751870D01*
X190119838Y-65751870D01*
X189891914Y-65690799D01*
X189657985Y-65660000D01*
X189422014Y-65660000D01*
X189188085Y-65690799D01*
X188960162Y-65751870D01*
X188742180Y-65842160D01*
X188742171Y-65842165D01*
X188537828Y-65960144D01*
X188537818Y-65960150D01*
X188456275Y-66022720D01*
X188456275Y-66022721D01*
X189177706Y-66744152D01*
X189161058Y-66751049D01*
X189030030Y-66838599D01*
X188918599Y-66950030D01*
X188831049Y-67081058D01*
X188824152Y-67097706D01*
X188102721Y-66376275D01*
X188102720Y-66376275D01*
X188040150Y-66457818D01*
X188040144Y-66457828D01*
X187922165Y-66662171D01*
X187922160Y-66662180D01*
X187831870Y-66880162D01*
X187770799Y-67108085D01*
X187740000Y-67342014D01*
X187740000Y-67577985D01*
X187770799Y-67811914D01*
X187831870Y-68039837D01*
X187864102Y-68117653D01*
X187871571Y-68187123D01*
X187840295Y-68249602D01*
X187780206Y-68285253D01*
X187710381Y-68282759D01*
X187702101Y-68279671D01*
X187663887Y-68263842D01*
X187663885Y-68263841D01*
X187663884Y-68263841D01*
X187598035Y-68246197D01*
X187442238Y-68204452D01*
X187404215Y-68199446D01*
X187214741Y-68174500D01*
X187214734Y-68174500D01*
X186985266Y-68174500D01*
X186985258Y-68174500D01*
X186768715Y-68203009D01*
X186757762Y-68204452D01*
X186665187Y-68229257D01*
X186536112Y-68263842D01*
X186324123Y-68351650D01*
X186324106Y-68351659D01*
X186265696Y-68385381D01*
X186197796Y-68401852D01*
X186131769Y-68378999D01*
X186088580Y-68324077D01*
X186081939Y-68254524D01*
X186089137Y-68230540D01*
X186168130Y-68039834D01*
X186229200Y-67811914D01*
X186259999Y-67577985D01*
X186260000Y-67577971D01*
X186260000Y-67342028D01*
X186259999Y-67342014D01*
X186229200Y-67108085D01*
X186168129Y-66880162D01*
X186077839Y-66662180D01*
X186077834Y-66662171D01*
X185959855Y-66457828D01*
X185959854Y-66457827D01*
X185897277Y-66376275D01*
X185175846Y-67097706D01*
X185168951Y-67081058D01*
X185081401Y-66950030D01*
X184969970Y-66838599D01*
X184838942Y-66751049D01*
X184822293Y-66744152D01*
X185543723Y-66022721D01*
X185462172Y-65960145D01*
X185462171Y-65960144D01*
X185257828Y-65842165D01*
X185257819Y-65842160D01*
X185039836Y-65751870D01*
X185039838Y-65751870D01*
X184811914Y-65690799D01*
X184577985Y-65660000D01*
X184342014Y-65660000D01*
X184108085Y-65690799D01*
X183880162Y-65751870D01*
X183662180Y-65842160D01*
X183662171Y-65842165D01*
X183457828Y-65960144D01*
X183457818Y-65960150D01*
X183376275Y-66022720D01*
X183376275Y-66022721D01*
X184097706Y-66744152D01*
X184081058Y-66751049D01*
X183950030Y-66838599D01*
X183838599Y-66950030D01*
X183751049Y-67081058D01*
X183744153Y-67097706D01*
X183022721Y-66376275D01*
X183022720Y-66376275D01*
X182960150Y-66457818D01*
X182960144Y-66457828D01*
X182842165Y-66662171D01*
X182842160Y-66662180D01*
X182751870Y-66880162D01*
X182690799Y-67108085D01*
X182660000Y-67342014D01*
X162500500Y-67342014D01*
X162500500Y-58814437D01*
X183750000Y-58814437D01*
X183750000Y-59185562D01*
X183782345Y-59555267D01*
X183782345Y-59555271D01*
X183846787Y-59920735D01*
X183846791Y-59920752D01*
X183942837Y-60279206D01*
X184069775Y-60627963D01*
X184226607Y-60964292D01*
X184226615Y-60964307D01*
X184412166Y-61285690D01*
X184412175Y-61285705D01*
X184625040Y-61589707D01*
X184822005Y-61824439D01*
X184822006Y-61824440D01*
X186313098Y-60333348D01*
X186380076Y-60420635D01*
X186579365Y-60619924D01*
X186666650Y-60686900D01*
X185175558Y-62177992D01*
X185175559Y-62177993D01*
X185410292Y-62374959D01*
X185714294Y-62587824D01*
X185714309Y-62587833D01*
X186035692Y-62773384D01*
X186035707Y-62773392D01*
X186372036Y-62930224D01*
X186720793Y-63057162D01*
X187079247Y-63153208D01*
X187079264Y-63153212D01*
X187444730Y-63217654D01*
X187814437Y-63249999D01*
X187814440Y-63250000D01*
X188185560Y-63250000D01*
X188185562Y-63249999D01*
X188555267Y-63217654D01*
X188555271Y-63217654D01*
X188920735Y-63153212D01*
X188920752Y-63153208D01*
X189279206Y-63057162D01*
X189627963Y-62930224D01*
X189964292Y-62773392D01*
X189964307Y-62773384D01*
X190285690Y-62587833D01*
X190285705Y-62587824D01*
X190589700Y-62374964D01*
X190824439Y-62177993D01*
X190824440Y-62177992D01*
X189333348Y-60686901D01*
X189420635Y-60619924D01*
X189619924Y-60420635D01*
X189686900Y-60333348D01*
X191177992Y-61824440D01*
X191177993Y-61824439D01*
X191374964Y-61589700D01*
X191587824Y-61285705D01*
X191587833Y-61285690D01*
X191773384Y-60964307D01*
X191773392Y-60964292D01*
X191930224Y-60627963D01*
X192057162Y-60279206D01*
X192153208Y-59920752D01*
X192153212Y-59920735D01*
X192217654Y-59555271D01*
X192217654Y-59555267D01*
X192249999Y-59185562D01*
X192250000Y-59185560D01*
X192250000Y-58814440D01*
X192249999Y-58814437D01*
X192217654Y-58444732D01*
X192217654Y-58444728D01*
X192153212Y-58079264D01*
X192153208Y-58079247D01*
X192057162Y-57720793D01*
X191930224Y-57372036D01*
X191773392Y-57035707D01*
X191773384Y-57035692D01*
X191587833Y-56714309D01*
X191587824Y-56714294D01*
X191374959Y-56410292D01*
X191177993Y-56175559D01*
X191177992Y-56175558D01*
X189686900Y-57666650D01*
X189619924Y-57579365D01*
X189420635Y-57380076D01*
X189333347Y-57313098D01*
X190824440Y-55822006D01*
X190824439Y-55822005D01*
X190589707Y-55625040D01*
X190285705Y-55412175D01*
X190285690Y-55412166D01*
X189964307Y-55226615D01*
X189964292Y-55226607D01*
X189627963Y-55069775D01*
X189279206Y-54942837D01*
X188920752Y-54846791D01*
X188920735Y-54846787D01*
X188555269Y-54782345D01*
X188185562Y-54750000D01*
X187814437Y-54750000D01*
X187444732Y-54782345D01*
X187444728Y-54782345D01*
X187079264Y-54846787D01*
X187079247Y-54846791D01*
X186720793Y-54942837D01*
X186372036Y-55069775D01*
X186035707Y-55226607D01*
X186035692Y-55226615D01*
X185714309Y-55412166D01*
X185714294Y-55412175D01*
X185410292Y-55625040D01*
X185175559Y-55822005D01*
X185175558Y-55822006D01*
X186666651Y-57313098D01*
X186579365Y-57380076D01*
X186380076Y-57579365D01*
X186313098Y-57666651D01*
X184822006Y-56175558D01*
X184822005Y-56175559D01*
X184625040Y-56410292D01*
X184412175Y-56714294D01*
X184412166Y-56714309D01*
X184226615Y-57035692D01*
X184226607Y-57035707D01*
X184069775Y-57372036D01*
X183942837Y-57720793D01*
X183846791Y-58079247D01*
X183846787Y-58079264D01*
X183782345Y-58444728D01*
X183782345Y-58444732D01*
X183750000Y-58814437D01*
X162500500Y-58814437D01*
X162500500Y-58005608D01*
X162466392Y-57878314D01*
X162400500Y-57764186D01*
X162307314Y-57671000D01*
X162250250Y-57638054D01*
X162193187Y-57605108D01*
X162129539Y-57588054D01*
X162065892Y-57571000D01*
X151065892Y-57571000D01*
X150934108Y-57571000D01*
X150806812Y-57605108D01*
X150692686Y-57671000D01*
X150692683Y-57671002D01*
X150599502Y-57764183D01*
X150599500Y-57764186D01*
X150533608Y-57878312D01*
X150499500Y-58005608D01*
X124133477Y-58005608D01*
X124057162Y-57720793D01*
X123930224Y-57372036D01*
X123773392Y-57035707D01*
X123773384Y-57035692D01*
X123587833Y-56714309D01*
X123587824Y-56714294D01*
X123374959Y-56410292D01*
X123177993Y-56175559D01*
X123177992Y-56175558D01*
X121686900Y-57666650D01*
X121619924Y-57579365D01*
X121420635Y-57380076D01*
X121333347Y-57313098D01*
X122824440Y-55822006D01*
X122824439Y-55822005D01*
X122589707Y-55625040D01*
X122285705Y-55412175D01*
X122285690Y-55412166D01*
X121964307Y-55226615D01*
X121964292Y-55226607D01*
X121627963Y-55069775D01*
X121279206Y-54942837D01*
X120920752Y-54846791D01*
X120920735Y-54846787D01*
X120555269Y-54782345D01*
X120185562Y-54750000D01*
X119814437Y-54750000D01*
X119444732Y-54782345D01*
X119444728Y-54782345D01*
X119079264Y-54846787D01*
X119079247Y-54846791D01*
X118720793Y-54942837D01*
X118372036Y-55069775D01*
X118035707Y-55226607D01*
X118035692Y-55226615D01*
X117714309Y-55412166D01*
X117714294Y-55412175D01*
X117410292Y-55625040D01*
X117175559Y-55822005D01*
X117175558Y-55822006D01*
X118666651Y-57313098D01*
X118579365Y-57380076D01*
X118380076Y-57579365D01*
X118313098Y-57666651D01*
X116822006Y-56175558D01*
X116822005Y-56175559D01*
X116625040Y-56410292D01*
X116412175Y-56714294D01*
X116412166Y-56714309D01*
X116226615Y-57035692D01*
X116226607Y-57035707D01*
X116069775Y-57372036D01*
X115942837Y-57720793D01*
X115846791Y-58079247D01*
X115846787Y-58079264D01*
X115782345Y-58444728D01*
X115782345Y-58444732D01*
X115750000Y-58814437D01*
X115500500Y-58814437D01*
X115500500Y-54624500D01*
X115520185Y-54557461D01*
X115572989Y-54511706D01*
X115624500Y-54500500D01*
X192375500Y-54500500D01*
X192442539Y-54520185D01*
G37*
G04 #@! TD.AperFunction*
M02*
