%TF.GenerationSoftware,KiCad,Pcbnew,8.0.5-dirty*%
%TF.CreationDate,2024-10-13T20:14:36-04:00*%
%TF.ProjectId,t41_2_power_amplifier,7434315f-325f-4706-9f77-65725f616d70,rev?*%
%TF.SameCoordinates,Original*%
%TF.FileFunction,Soldermask,Bot*%
%TF.FilePolarity,Negative*%
%FSLAX46Y46*%
G04 Gerber Fmt 4.6, Leading zero omitted, Abs format (unit mm)*
G04 Created by KiCad (PCBNEW 8.0.5-dirty) date 2024-10-13 20:14:36*
%MOMM*%
%LPD*%
G01*
G04 APERTURE LIST*
G04 Aperture macros list*
%AMRoundRect*
0 Rectangle with rounded corners*
0 $1 Rounding radius*
0 $2 $3 $4 $5 $6 $7 $8 $9 X,Y pos of 4 corners*
0 Add a 4 corners polygon primitive as box body*
4,1,4,$2,$3,$4,$5,$6,$7,$8,$9,$2,$3,0*
0 Add four circle primitives for the rounded corners*
1,1,$1+$1,$2,$3*
1,1,$1+$1,$4,$5*
1,1,$1+$1,$6,$7*
1,1,$1+$1,$8,$9*
0 Add four rect primitives between the rounded corners*
20,1,$1+$1,$2,$3,$4,$5,0*
20,1,$1+$1,$4,$5,$6,$7,0*
20,1,$1+$1,$6,$7,$8,$9,0*
20,1,$1+$1,$8,$9,$2,$3,0*%
G04 Aperture macros list end*
%ADD10C,2.000000*%
%ADD11C,1.440000*%
%ADD12C,7.500000*%
%ADD13C,2.600000*%
%ADD14C,2.500000*%
%ADD15R,2.400000X2.400000*%
%ADD16C,2.400000*%
%ADD17C,2.100000*%
%ADD18RoundRect,0.250000X0.650000X-0.325000X0.650000X0.325000X-0.650000X0.325000X-0.650000X-0.325000X0*%
%ADD19RoundRect,0.250000X-0.650000X0.325000X-0.650000X-0.325000X0.650000X-0.325000X0.650000X0.325000X0*%
G04 APERTURE END LIST*
D10*
%TO.C,T3*%
X127200000Y-87000000D03*
X127200000Y-93000000D03*
X143200000Y-93000000D03*
X143200000Y-90000000D03*
X143200000Y-87000000D03*
%TD*%
%TO.C,L2*%
X151000000Y-87000000D03*
X151000000Y-90000000D03*
X151000000Y-93000000D03*
%TD*%
%TO.C,T2*%
X159000000Y-83000000D03*
X159000000Y-97000000D03*
X197000000Y-97000000D03*
X197000000Y-83000000D03*
%TD*%
D11*
%TO.C,R11*%
X134450000Y-77900000D03*
X134450000Y-75360000D03*
X134450000Y-72820000D03*
%TD*%
D12*
%TO.C,H4*%
X195000000Y-55000000D03*
%TD*%
D11*
%TO.C,R17*%
X132700000Y-105550000D03*
X132700000Y-103010000D03*
X132700000Y-100470000D03*
%TD*%
D12*
%TO.C,H1*%
X105000000Y-55000000D03*
%TD*%
%TO.C,H3*%
X195000000Y-145000000D03*
%TD*%
D13*
%TO.C,J1*%
X191650000Y-66120000D03*
X191650000Y-71200000D03*
X196730000Y-66120000D03*
X196730000Y-71200000D03*
D14*
X194290000Y-68585000D03*
%TD*%
D15*
%TO.C,J5*%
X107050000Y-127800000D03*
D16*
X107050000Y-132800000D03*
%TD*%
D13*
%TO.C,J2*%
X103370000Y-66870000D03*
X103370000Y-71950000D03*
X108450000Y-66870000D03*
X108450000Y-71950000D03*
D14*
X106010000Y-69335000D03*
%TD*%
D17*
%TO.C,J3*%
X105900000Y-117500000D03*
X105900000Y-120000000D03*
%TD*%
D12*
%TO.C,H2*%
X105000000Y-145000000D03*
%TD*%
D18*
%TO.C,C1*%
X154650000Y-88500000D03*
X154650000Y-85550000D03*
%TD*%
D19*
%TO.C,C4*%
X154650000Y-91500000D03*
X154650000Y-94450000D03*
%TD*%
M02*
