M48
; DRILL file {KiCad 9.0.2} date 2025-06-01T21:14:13-0400
; FORMAT={-:-/ absolute / metric / decimal}
; #@! TF.CreationDate,2025-06-01T21:14:13-04:00
; #@! TF.GenerationSoftware,Kicad,Pcbnew,9.0.2
; #@! TF.FileFunction,Plated,1,2,PTH
FMAT,2
METRIC
; #@! TA.AperFunction,Plated,PTH,ViaDrill
T1C0.500
; #@! TA.AperFunction,Plated,PTH,ComponentDrill
T2C0.800
; #@! TA.AperFunction,Plated,PTH,ComponentDrill
T3C1.000
; #@! TA.AperFunction,Plated,PTH,ComponentDrill
T4C1.100
; #@! TA.AperFunction,Plated,PTH,ComponentDrill
T5C1.200
; #@! TA.AperFunction,Plated,PTH,ComponentDrill
T6C1.500
; #@! TA.AperFunction,Plated,PTH,ComponentDrill
T7C1.600
; #@! TA.AperFunction,Plated,PTH,ComponentDrill
T8C4.300
%
G90
G05
T1
X117.0Y-102.5
X126.1Y-112.2
X129.0Y-97.9
X129.1Y-113.4
X129.6Y-125.2
X131.0Y-106.5
X131.4Y-113.4
X133.15Y-88.65
X133.2Y-82.1
X134.25Y-104.35
X134.3Y-108.5
X134.5Y-116.6
X135.7Y-88.65
X135.7Y-109.4
X135.925Y-114.825
X136.0Y-76.8
X136.0Y-113.0
X136.9Y-125.4
X139.4Y-123.7
X140.3Y-107.6
X140.7Y-112.4
X141.25Y-97.3
X141.4Y-79.9
X141.6Y-100.8
X143.2Y-68.3
X145.0Y-126.7
X145.1Y-79.3
X145.2Y-95.7
X145.2Y-99.9
X145.5Y-83.0
X146.7Y-110.7
X147.1Y-104.0
X147.6Y-90.0
X149.6Y-76.0
X149.8Y-106.6
X150.0Y-82.95
X150.1Y-145.0
X150.3Y-78.6
X150.5Y-57.5
X150.5Y-66.7
X150.5Y-102.6
X150.5Y-114.0
X150.5Y-122.7
X150.7Y-100.5
X150.8Y-77.4
X151.3Y-94.8
X151.4Y-85.1
X151.5Y-130.25
X151.8Y-98.1
X151.8Y-103.9
X152.0Y-81.5
X152.15Y-133.2
X152.2Y-76.5
X153.5Y-83.7
X153.5Y-96.3
X153.6Y-80.3
X153.7Y-103.6
X153.75Y-76.9
X154.1Y-100.1
X154.8Y-80.7
X155.0Y-76.5
X155.0Y-104.0
X155.0Y-107.2
X155.3Y-99.8
X155.5Y-84.3
X155.5Y-91.9
X155.8Y-82.3
X156.0Y-80.4
X156.15Y-137.3
X156.25Y-76.9
X156.3Y-103.6
X156.4Y-88.1
X156.5Y-100.1
X156.9Y-98.9
X157.7Y-99.8
X158.5Y-76.7
X158.6Y-105.9
X158.7Y-91.9
X159.3Y-84.5
X159.5Y-57.5
X159.5Y-66.7
X159.5Y-114.0
X159.6Y-78.2
X159.6Y-87.3
X159.6Y-122.7
X159.7Y-101.9
X160.15Y-133.2
X160.2Y-96.9
X162.1Y-83.5
X162.7Y-90.0
X162.9Y-98.9
X163.0Y-88.1
X163.2Y-78.1
X163.7Y-90.0
X163.75Y-134.1
X163.9Y-130.4
X164.1Y-92.5
X164.5Y-105.3
X164.5Y-114.0
X164.6Y-90.0
X164.6Y-96.6
X164.6Y-100.8
X164.8Y-123.7
X166.7Y-89.0
X168.8Y-91.3
X169.1Y-96.6
X169.1Y-100.8
X169.1Y-105.3
X169.4Y-114.3
X169.4Y-118.3
X171.2Y-129.7
X171.75Y-134.1
X172.9Y-80.2
X175.7Y-88.4
X176.4Y-113.2
X176.4Y-116.3
X176.7Y-81.5
X177.4Y-134.9
X179.2Y-95.1
X179.7Y-89.9
X180.1Y-121.3
X181.3Y-77.3
X181.3Y-83.3
X181.3Y-87.9
X181.3Y-98.0
X181.3Y-102.8
X181.9Y-92.1
X183.6Y-79.6
X183.6Y-94.4
T2
X132.7Y-100.47
X132.7Y-103.01
X132.7Y-105.55
X134.45Y-72.82
X134.45Y-75.36
X134.45Y-77.9
T3
X127.2Y-87.0
X127.2Y-93.0
X143.2Y-87.0
X143.2Y-93.0
X150.0Y-87.0
X150.0Y-93.0
X181.3Y-79.6
X181.3Y-85.6
X181.3Y-94.4
X181.3Y-100.4
T4
X120.9Y-117.5
X120.9Y-120.0
X152.5Y-78.621
X152.5Y-101.837
X155.0Y-78.621
X155.0Y-101.837
X157.5Y-78.621
X157.5Y-101.837
X161.3Y-79.6
X161.3Y-85.6
X161.3Y-94.4
X161.3Y-100.4
T5
X123.6Y-127.8
X123.6Y-132.8
X143.2Y-90.0
X150.0Y-90.0
T6
X120.59Y-86.965
X174.84Y-68.465
T7
X117.95Y-84.5
X117.95Y-89.58
X123.03Y-84.5
X123.03Y-89.58
X172.2Y-66.0
X172.2Y-71.08
X177.28Y-66.0
X177.28Y-71.08
T8
X120.5Y-59.0
X120.5Y-142.0
X143.0Y-118.0
X180.0Y-59.0
X180.0Y-142.0
M30
