G04 #@! TF.GenerationSoftware,KiCad,Pcbnew,9.0.1*
G04 #@! TF.CreationDate,2025-05-04T20:25:12-04:00*
G04 #@! TF.ProjectId,t41_2_power_amplifier,7434315f-325f-4706-9f77-65725f616d70,1.5*
G04 #@! TF.SameCoordinates,Original*
G04 #@! TF.FileFunction,Copper,L1,Top*
G04 #@! TF.FilePolarity,Positive*
%FSLAX46Y46*%
G04 Gerber Fmt 4.6, Leading zero omitted, Abs format (unit mm)*
G04 Created by KiCad (PCBNEW 9.0.1) date 2025-05-04 20:25:12*
%MOMM*%
%LPD*%
G01*
G04 APERTURE LIST*
G04 Aperture macros list*
%AMRoundRect*
0 Rectangle with rounded corners*
0 $1 Rounding radius*
0 $2 $3 $4 $5 $6 $7 $8 $9 X,Y pos of 4 corners*
0 Add a 4 corners polygon primitive as box body*
4,1,4,$2,$3,$4,$5,$6,$7,$8,$9,$2,$3,0*
0 Add four circle primitives for the rounded corners*
1,1,$1+$1,$2,$3*
1,1,$1+$1,$4,$5*
1,1,$1+$1,$6,$7*
1,1,$1+$1,$8,$9*
0 Add four rect primitives between the rounded corners*
20,1,$1+$1,$2,$3,$4,$5,0*
20,1,$1+$1,$4,$5,$6,$7,0*
20,1,$1+$1,$6,$7,$8,$9,0*
20,1,$1+$1,$8,$9,$2,$3,0*%
G04 Aperture macros list end*
G04 #@! TA.AperFunction,SMDPad,CuDef*
%ADD10RoundRect,0.250000X0.625000X-0.312500X0.625000X0.312500X-0.625000X0.312500X-0.625000X-0.312500X0*%
G04 #@! TD*
G04 #@! TA.AperFunction,SMDPad,CuDef*
%ADD11RoundRect,0.150000X0.150000X-0.512500X0.150000X0.512500X-0.150000X0.512500X-0.150000X-0.512500X0*%
G04 #@! TD*
G04 #@! TA.AperFunction,SMDPad,CuDef*
%ADD12RoundRect,0.250000X0.325000X0.650000X-0.325000X0.650000X-0.325000X-0.650000X0.325000X-0.650000X0*%
G04 #@! TD*
G04 #@! TA.AperFunction,SMDPad,CuDef*
%ADD13RoundRect,0.250000X-1.500000X-0.550000X1.500000X-0.550000X1.500000X0.550000X-1.500000X0.550000X0*%
G04 #@! TD*
G04 #@! TA.AperFunction,ComponentPad*
%ADD14C,1.440000*%
G04 #@! TD*
G04 #@! TA.AperFunction,SMDPad,CuDef*
%ADD15RoundRect,0.250000X-0.650000X0.325000X-0.650000X-0.325000X0.650000X-0.325000X0.650000X0.325000X0*%
G04 #@! TD*
G04 #@! TA.AperFunction,ComponentPad*
%ADD16C,2.000000*%
G04 #@! TD*
G04 #@! TA.AperFunction,ComponentPad*
%ADD17C,2.200000*%
G04 #@! TD*
G04 #@! TA.AperFunction,SMDPad,CuDef*
%ADD18RoundRect,0.250000X-0.325000X-0.650000X0.325000X-0.650000X0.325000X0.650000X-0.325000X0.650000X0*%
G04 #@! TD*
G04 #@! TA.AperFunction,SMDPad,CuDef*
%ADD19RoundRect,0.250000X-0.312500X-0.625000X0.312500X-0.625000X0.312500X0.625000X-0.312500X0.625000X0*%
G04 #@! TD*
G04 #@! TA.AperFunction,SMDPad,CuDef*
%ADD20RoundRect,0.250000X0.650000X-0.325000X0.650000X0.325000X-0.650000X0.325000X-0.650000X-0.325000X0*%
G04 #@! TD*
G04 #@! TA.AperFunction,SMDPad,CuDef*
%ADD21RoundRect,0.250000X-1.400000X-1.000000X1.400000X-1.000000X1.400000X1.000000X-1.400000X1.000000X0*%
G04 #@! TD*
G04 #@! TA.AperFunction,SMDPad,CuDef*
%ADD22R,1.570000X2.820000*%
G04 #@! TD*
G04 #@! TA.AperFunction,SMDPad,CuDef*
%ADD23RoundRect,0.250000X-0.550000X1.500000X-0.550000X-1.500000X0.550000X-1.500000X0.550000X1.500000X0*%
G04 #@! TD*
G04 #@! TA.AperFunction,ComponentPad*
%ADD24C,1.905000*%
G04 #@! TD*
G04 #@! TA.AperFunction,ComponentPad*
%ADD25C,7.500000*%
G04 #@! TD*
G04 #@! TA.AperFunction,SMDPad,CuDef*
%ADD26R,1.470000X2.770000*%
G04 #@! TD*
G04 #@! TA.AperFunction,ComponentPad*
%ADD27C,2.600000*%
G04 #@! TD*
G04 #@! TA.AperFunction,ComponentPad*
%ADD28C,2.500000*%
G04 #@! TD*
G04 #@! TA.AperFunction,SMDPad,CuDef*
%ADD29R,2.770000X1.470000*%
G04 #@! TD*
G04 #@! TA.AperFunction,ComponentPad*
%ADD30RoundRect,0.250001X-0.949999X0.949999X-0.949999X-0.949999X0.949999X-0.949999X0.949999X0.949999X0*%
G04 #@! TD*
G04 #@! TA.AperFunction,ComponentPad*
%ADD31C,2.400000*%
G04 #@! TD*
G04 #@! TA.AperFunction,ComponentPad*
%ADD32C,2.100000*%
G04 #@! TD*
G04 #@! TA.AperFunction,SMDPad,CuDef*
%ADD33RoundRect,0.250000X-0.275000X-0.700000X0.275000X-0.700000X0.275000X0.700000X-0.275000X0.700000X0*%
G04 #@! TD*
G04 #@! TA.AperFunction,SMDPad,CuDef*
%ADD34RoundRect,0.250000X0.312500X0.625000X-0.312500X0.625000X-0.312500X-0.625000X0.312500X-0.625000X0*%
G04 #@! TD*
G04 #@! TA.AperFunction,SMDPad,CuDef*
%ADD35RoundRect,0.250000X-0.625000X0.312500X-0.625000X-0.312500X0.625000X-0.312500X0.625000X0.312500X0*%
G04 #@! TD*
G04 #@! TA.AperFunction,ViaPad*
%ADD36C,1.000000*%
G04 #@! TD*
G04 #@! TA.AperFunction,Conductor*
%ADD37C,1.500000*%
G04 #@! TD*
G04 #@! TA.AperFunction,Conductor*
%ADD38C,0.500000*%
G04 #@! TD*
G04 #@! TA.AperFunction,Conductor*
%ADD39C,2.000000*%
G04 #@! TD*
G04 #@! TA.AperFunction,Conductor*
%ADD40C,0.250000*%
G04 #@! TD*
G04 #@! TA.AperFunction,Conductor*
%ADD41C,1.000000*%
G04 #@! TD*
G04 #@! TA.AperFunction,Conductor*
%ADD42C,0.750000*%
G04 #@! TD*
G04 #@! TA.AperFunction,Conductor*
%ADD43C,2.500000*%
G04 #@! TD*
G04 APERTURE END LIST*
D10*
X170200000Y-111262500D03*
X170200000Y-108337500D03*
D11*
X140000000Y-120925000D03*
X140950000Y-120925000D03*
X141900000Y-120925000D03*
X141900000Y-118650000D03*
X140000000Y-118650000D03*
D12*
X140000000Y-123700000D03*
X137050000Y-123700000D03*
D13*
X171600000Y-116300000D03*
X177000000Y-116300000D03*
D14*
X134450000Y-77900000D03*
X134450000Y-75360000D03*
X134450000Y-72820000D03*
D10*
X143200000Y-78325000D03*
X143200000Y-75400000D03*
D15*
X143200000Y-70200000D03*
X143200000Y-73150000D03*
D16*
X127200000Y-87000000D03*
X127200000Y-93000000D03*
X143200000Y-93000000D03*
D17*
X143200000Y-90000000D03*
D16*
X143200000Y-87000000D03*
D18*
X140000000Y-115400000D03*
X142950000Y-115400000D03*
D19*
X137375000Y-102250000D03*
X140300000Y-102250000D03*
D20*
X143200000Y-99250000D03*
X143200000Y-96300000D03*
D21*
X156150000Y-127850000D03*
X156150000Y-134650000D03*
D22*
X133870000Y-127800000D03*
X133870000Y-134120000D03*
X147330000Y-127800000D03*
X147330000Y-134120000D03*
D18*
X137375000Y-105350000D03*
X140325000Y-105350000D03*
D23*
X172400000Y-127850000D03*
X172400000Y-133250000D03*
D24*
X154000000Y-78621500D03*
X156500000Y-78621500D03*
X159000000Y-78621500D03*
D25*
X180000000Y-59000000D03*
D16*
X162700000Y-94400000D03*
X162700000Y-100400000D03*
X182700000Y-100400000D03*
X182700000Y-94400000D03*
D14*
X132700000Y-105550000D03*
X132700000Y-103010000D03*
X132700000Y-100470000D03*
D26*
X166800000Y-111640000D03*
X166800000Y-108060000D03*
D12*
X131675000Y-120700000D03*
X128725000Y-120700000D03*
D16*
X162700000Y-79600000D03*
X162700000Y-85600000D03*
X182700000Y-85600000D03*
X182700000Y-79600000D03*
D25*
X120000000Y-59000000D03*
X180000000Y-142000000D03*
D18*
X171550000Y-121900000D03*
X174500000Y-121900000D03*
D27*
X173600000Y-66000000D03*
X173600000Y-71080000D03*
X178680000Y-66000000D03*
X178680000Y-71080000D03*
D28*
X176240000Y-68465000D03*
D19*
X147025000Y-80950000D03*
X149950000Y-80950000D03*
D24*
X159000000Y-101837500D03*
X156500000Y-101837500D03*
X154000000Y-101837500D03*
D29*
X162420000Y-127850000D03*
X166000000Y-127850000D03*
D30*
X123600000Y-127800000D03*
D31*
X123600000Y-132800000D03*
D27*
X117950000Y-84500000D03*
X117950000Y-89580000D03*
X123030000Y-84500000D03*
X123030000Y-89580000D03*
D28*
X120590000Y-86965000D03*
D32*
X120900000Y-117500000D03*
X120900000Y-120000000D03*
D33*
X125550000Y-117500000D03*
X128700000Y-117500000D03*
D26*
X166800000Y-119890000D03*
X166800000Y-116310000D03*
D19*
X137375000Y-99250000D03*
X140300000Y-99250000D03*
D25*
X120000000Y-142000000D03*
D15*
X166000000Y-131150000D03*
X166000000Y-134100000D03*
D34*
X149100000Y-123700000D03*
X146175000Y-123700000D03*
D15*
X143200000Y-80950000D03*
X143200000Y-83900000D03*
D35*
X131300000Y-112075000D03*
X131300000Y-115000000D03*
D10*
X140150000Y-78325000D03*
X140150000Y-75400000D03*
D16*
X151000000Y-87000000D03*
D17*
X151000000Y-90000000D03*
D16*
X151000000Y-93000000D03*
D19*
X145137500Y-101950000D03*
X148062500Y-101950000D03*
D18*
X158950000Y-82600000D03*
X161900000Y-82600000D03*
X159000000Y-97300000D03*
X161950000Y-97300000D03*
D36*
X163800000Y-90000000D03*
X166000000Y-90000000D03*
X164900000Y-90000000D03*
X162700000Y-90000000D03*
X164600000Y-99300000D03*
X151100000Y-122000000D03*
X151700000Y-84850000D03*
X155550000Y-100000000D03*
X161050000Y-78300000D03*
X145100000Y-79300000D03*
X164500000Y-114000000D03*
X155150000Y-107000000D03*
X182600000Y-91500000D03*
X149350000Y-100300000D03*
X169400000Y-118300000D03*
X154600000Y-81600000D03*
X150000000Y-82950000D03*
X133100000Y-116300000D03*
X157450000Y-80400000D03*
X163500000Y-65800000D03*
X163750000Y-134100000D03*
X164300000Y-81000000D03*
X182700000Y-76800000D03*
X149300000Y-65850000D03*
X137000000Y-125800000D03*
X182700000Y-98000000D03*
X164500000Y-105300000D03*
X159250000Y-99750000D03*
X156500000Y-76500000D03*
X153000000Y-97800000D03*
X151900000Y-101900000D03*
X151200000Y-105900000D03*
X138500000Y-122200000D03*
X155500000Y-80350000D03*
X153000000Y-76800000D03*
X164600000Y-91900000D03*
X134250000Y-104350000D03*
X141400000Y-79900000D03*
X133150000Y-88650000D03*
X160850000Y-103300000D03*
X180400000Y-116300000D03*
X174600000Y-134800000D03*
X156450000Y-80950000D03*
X164300000Y-96000000D03*
X143200000Y-68300000D03*
X156900000Y-85400000D03*
X161200000Y-87100000D03*
X156400000Y-103850000D03*
X149600000Y-76000000D03*
X152450000Y-94750000D03*
X168900000Y-90500000D03*
X157850000Y-100150000D03*
X148700000Y-90000000D03*
X156150000Y-137300000D03*
X152050000Y-77950000D03*
X164200000Y-84100000D03*
X141750000Y-100700000D03*
X133200000Y-82100000D03*
X133600000Y-120700000D03*
X151500000Y-130250000D03*
X160150000Y-133200000D03*
X160550000Y-100500000D03*
X159100000Y-105850000D03*
X178100000Y-81500000D03*
X154650000Y-96200000D03*
X152300000Y-99800000D03*
X145300000Y-82750000D03*
X145500000Y-125700000D03*
X161100000Y-92800000D03*
X140300000Y-107600000D03*
X164600000Y-88100000D03*
X170200000Y-134800000D03*
X182700000Y-102800000D03*
X156750000Y-99800000D03*
X160700000Y-95600000D03*
X138400000Y-119300000D03*
X152150000Y-133200000D03*
X155200000Y-103550000D03*
X163900000Y-130400000D03*
X160900000Y-84400000D03*
X157200000Y-98600000D03*
X159600000Y-88100000D03*
X182700000Y-83200000D03*
X152050000Y-79400000D03*
X168200000Y-129800000D03*
X160450000Y-77050000D03*
X135700000Y-88650000D03*
X129000000Y-97900000D03*
X153200000Y-56000000D03*
X159500000Y-91800000D03*
X160000000Y-56100000D03*
X156900000Y-94600000D03*
X169000000Y-105300000D03*
X136000000Y-76800000D03*
X155250000Y-76950000D03*
X164800000Y-123700000D03*
X131000000Y-106500000D03*
X142800000Y-122400000D03*
X149100000Y-103800000D03*
X182700000Y-88000000D03*
X168900000Y-96600000D03*
X157750000Y-76950000D03*
X154650000Y-83700000D03*
X141250000Y-97300000D03*
X167400000Y-88400000D03*
X170600000Y-113000000D03*
X144800000Y-115400000D03*
X169100000Y-114200000D03*
X157400000Y-82850000D03*
X131295000Y-117500000D03*
X143300000Y-120950000D03*
D37*
X164800000Y-90000000D02*
X166000000Y-90000000D01*
X164800000Y-90000000D02*
X163650000Y-90000000D01*
D38*
X167077500Y-108337500D02*
X166800000Y-108060000D01*
D39*
X166800000Y-108060000D02*
X166800000Y-90800000D01*
D38*
X170200000Y-108337500D02*
X167077500Y-108337500D01*
D37*
X162700000Y-90000000D02*
X163650000Y-90000000D01*
D39*
X166800000Y-90800000D02*
X166000000Y-90000000D01*
D40*
X157850000Y-100150000D02*
X157850000Y-100450000D01*
D41*
X159000000Y-83700000D02*
X159000000Y-83000000D01*
X151000000Y-87000000D02*
X158450000Y-87000000D01*
X159000000Y-86450000D02*
X159000000Y-85000000D01*
X158450000Y-87000000D02*
X159000000Y-86450000D01*
X159000000Y-78500000D02*
X159000000Y-83000000D01*
X159000000Y-85450000D02*
X159000000Y-83700000D01*
X154000000Y-99200000D02*
X154000000Y-101959000D01*
X158450000Y-93000000D02*
X159000000Y-93550000D01*
X159000000Y-96700000D02*
X158700000Y-97000000D01*
X151000000Y-93000000D02*
X158450000Y-93000000D01*
X156200000Y-97000000D02*
X154000000Y-99200000D01*
X158700000Y-97000000D02*
X156200000Y-97000000D01*
X159000000Y-93550000D02*
X159000000Y-96700000D01*
X143200000Y-87000000D02*
X143200000Y-83900000D01*
X143200000Y-80950000D02*
X147025000Y-80950000D01*
D38*
X143200000Y-78325000D02*
X143200000Y-80950000D01*
X143200000Y-78325000D02*
X140150000Y-78325000D01*
D41*
X143200000Y-96300000D02*
X143200000Y-93000000D01*
D40*
X140300000Y-99250000D02*
X140300000Y-102250000D01*
X140300000Y-99250000D02*
X143200000Y-99250000D01*
D41*
X145137500Y-101950000D02*
X145137500Y-101187500D01*
X145137500Y-101187500D02*
X143200000Y-99250000D01*
D40*
X132700000Y-103010000D02*
X134890000Y-103010000D01*
X134890000Y-103010000D02*
X135650000Y-102250000D01*
X135650000Y-102250000D02*
X137375000Y-102250000D01*
X137375000Y-102250000D02*
X137375000Y-99250000D01*
D42*
X137375000Y-105350000D02*
X137375000Y-102250000D01*
D38*
X140110000Y-75360000D02*
X140150000Y-75400000D01*
X134450000Y-75360000D02*
X140110000Y-75360000D01*
X143200000Y-75400000D02*
X140150000Y-75400000D01*
D42*
X143200000Y-73150000D02*
X143200000Y-75400000D01*
D41*
X166000000Y-127850000D02*
X166000000Y-131150000D01*
D38*
X151500000Y-123700000D02*
X152950000Y-125150000D01*
X149100000Y-123700000D02*
X151500000Y-123700000D01*
D37*
X166800000Y-124300000D02*
X168800000Y-126300000D01*
X166000000Y-127850000D02*
X168800000Y-127850000D01*
X168800000Y-126300000D02*
X168800000Y-127850000D01*
D38*
X152950000Y-125150000D02*
X164750000Y-125150000D01*
X166000000Y-126400000D02*
X166000000Y-127850000D01*
X164750000Y-125150000D02*
X166000000Y-126400000D01*
D37*
X168800000Y-127850000D02*
X172400000Y-127850000D01*
X166800000Y-119890000D02*
X166800000Y-124300000D01*
D40*
X131295000Y-117500000D02*
X128700000Y-117500000D01*
X128700000Y-120675000D02*
X128725000Y-120700000D01*
X131295000Y-117500000D02*
X131300000Y-117495000D01*
X131300000Y-117495000D02*
X131300000Y-115000000D01*
D42*
X128700000Y-117500000D02*
X128700000Y-120675000D01*
D40*
X143275000Y-120925000D02*
X143300000Y-120950000D01*
X141900000Y-120925000D02*
X143275000Y-120925000D01*
X140000000Y-115400000D02*
X140000000Y-113900000D01*
D38*
X140000000Y-118650000D02*
X140000000Y-115400000D01*
D40*
X140000000Y-113900000D02*
X132700000Y-106600000D01*
X134450000Y-77900000D02*
X134450000Y-93450000D01*
X132700000Y-106600000D02*
X132700000Y-106400000D01*
X130350000Y-103200000D02*
X132700000Y-105550000D01*
X130350000Y-97550000D02*
X130350000Y-103200000D01*
X134450000Y-93450000D02*
X130350000Y-97550000D01*
X132700000Y-106400000D02*
X132700000Y-105550000D01*
D41*
X120625000Y-87000000D02*
X120590000Y-86965000D01*
D37*
X127200000Y-87000000D02*
X120625000Y-87000000D01*
D41*
X156100000Y-127800000D02*
X156150000Y-127850000D01*
D43*
X156150000Y-127850000D02*
X147380000Y-127850000D01*
D41*
X147380000Y-127850000D02*
X147330000Y-127800000D01*
D37*
X156150000Y-127850000D02*
X162420000Y-127850000D01*
D40*
X120900000Y-117500000D02*
X125550000Y-117500000D01*
D43*
X133870000Y-127800000D02*
X123600000Y-127800000D01*
D38*
X167177500Y-111262500D02*
X166800000Y-111640000D01*
D42*
X171550000Y-121900000D02*
X171550000Y-116350000D01*
D37*
X166810000Y-116300000D02*
X166800000Y-116310000D01*
D39*
X166800000Y-116310000D02*
X166800000Y-111640000D01*
D37*
X171600000Y-116300000D02*
X166810000Y-116300000D01*
D38*
X170200000Y-111262500D02*
X167177500Y-111262500D01*
D42*
X171550000Y-116350000D02*
X171600000Y-116300000D01*
D41*
X157250000Y-105400000D02*
X159000000Y-103650000D01*
X153050000Y-105400000D02*
X157250000Y-105400000D01*
X149600000Y-101950000D02*
X153050000Y-105400000D01*
X159000000Y-103650000D02*
X159000000Y-101837500D01*
X148062500Y-101950000D02*
X149600000Y-101950000D01*
X154000000Y-79950000D02*
X154000000Y-78500000D01*
X153000000Y-80950000D02*
X154000000Y-79950000D01*
X149950000Y-80950000D02*
X153000000Y-80950000D01*
X162700000Y-80000000D02*
X161900000Y-80800000D01*
X162700000Y-79600000D02*
X162700000Y-80000000D01*
X161900000Y-80800000D02*
X161900000Y-82600000D01*
X161950000Y-97300000D02*
X162700000Y-98050000D01*
X162700000Y-98050000D02*
X162700000Y-100400000D01*
D40*
X139975000Y-120950000D02*
X140000000Y-120925000D01*
D38*
X140000000Y-123700000D02*
X146175000Y-123700000D01*
X140000000Y-123700000D02*
X140000000Y-120925000D01*
G04 #@! TA.AperFunction,Conductor*
G36*
X185442539Y-54520185D02*
G01*
X185488294Y-54572989D01*
X185499500Y-54624500D01*
X185499500Y-146375500D01*
X185479815Y-146442539D01*
X185427011Y-146488294D01*
X185375500Y-146499500D01*
X115624500Y-146499500D01*
X115557461Y-146479815D01*
X115511706Y-146427011D01*
X115500500Y-146375500D01*
X115500500Y-141814437D01*
X115750000Y-141814437D01*
X115750000Y-142185562D01*
X115782345Y-142555267D01*
X115782345Y-142555271D01*
X115846787Y-142920735D01*
X115846791Y-142920752D01*
X115942837Y-143279206D01*
X116069775Y-143627963D01*
X116226607Y-143964292D01*
X116226615Y-143964307D01*
X116412166Y-144285690D01*
X116412175Y-144285705D01*
X116625040Y-144589707D01*
X116822005Y-144824439D01*
X116822006Y-144824440D01*
X118313098Y-143333348D01*
X118380076Y-143420635D01*
X118579365Y-143619924D01*
X118666650Y-143686900D01*
X117175558Y-145177992D01*
X117175559Y-145177993D01*
X117410292Y-145374959D01*
X117714294Y-145587824D01*
X117714309Y-145587833D01*
X118035692Y-145773384D01*
X118035707Y-145773392D01*
X118372036Y-145930224D01*
X118720793Y-146057162D01*
X119079247Y-146153208D01*
X119079264Y-146153212D01*
X119444730Y-146217654D01*
X119814437Y-146249999D01*
X119814440Y-146250000D01*
X120185560Y-146250000D01*
X120185562Y-146249999D01*
X120555267Y-146217654D01*
X120555271Y-146217654D01*
X120920735Y-146153212D01*
X120920752Y-146153208D01*
X121279206Y-146057162D01*
X121627963Y-145930224D01*
X121964292Y-145773392D01*
X121964307Y-145773384D01*
X122285690Y-145587833D01*
X122285705Y-145587824D01*
X122589700Y-145374964D01*
X122824439Y-145177993D01*
X122824440Y-145177992D01*
X121333348Y-143686901D01*
X121420635Y-143619924D01*
X121619924Y-143420635D01*
X121686900Y-143333348D01*
X123177992Y-144824440D01*
X123177993Y-144824439D01*
X123374964Y-144589700D01*
X123587824Y-144285705D01*
X123587833Y-144285690D01*
X123773384Y-143964307D01*
X123773392Y-143964292D01*
X123930224Y-143627963D01*
X124057162Y-143279206D01*
X124153208Y-142920752D01*
X124153212Y-142920735D01*
X124217654Y-142555271D01*
X124217654Y-142555267D01*
X124249999Y-142185562D01*
X124250000Y-142185560D01*
X124250000Y-141814440D01*
X124249999Y-141814437D01*
X175750000Y-141814437D01*
X175750000Y-142185562D01*
X175782345Y-142555267D01*
X175782345Y-142555271D01*
X175846787Y-142920735D01*
X175846791Y-142920752D01*
X175942837Y-143279206D01*
X176069775Y-143627963D01*
X176226607Y-143964292D01*
X176226615Y-143964307D01*
X176412166Y-144285690D01*
X176412175Y-144285705D01*
X176625040Y-144589707D01*
X176822005Y-144824439D01*
X176822006Y-144824440D01*
X178313098Y-143333348D01*
X178380076Y-143420635D01*
X178579365Y-143619924D01*
X178666650Y-143686900D01*
X177175558Y-145177992D01*
X177175559Y-145177993D01*
X177410292Y-145374959D01*
X177714294Y-145587824D01*
X177714309Y-145587833D01*
X178035692Y-145773384D01*
X178035707Y-145773392D01*
X178372036Y-145930224D01*
X178720793Y-146057162D01*
X179079247Y-146153208D01*
X179079264Y-146153212D01*
X179444730Y-146217654D01*
X179814437Y-146249999D01*
X179814440Y-146250000D01*
X180185560Y-146250000D01*
X180185562Y-146249999D01*
X180555267Y-146217654D01*
X180555271Y-146217654D01*
X180920735Y-146153212D01*
X180920752Y-146153208D01*
X181279206Y-146057162D01*
X181627963Y-145930224D01*
X181964292Y-145773392D01*
X181964307Y-145773384D01*
X182285690Y-145587833D01*
X182285705Y-145587824D01*
X182589700Y-145374964D01*
X182824439Y-145177993D01*
X182824440Y-145177992D01*
X181333348Y-143686901D01*
X181420635Y-143619924D01*
X181619924Y-143420635D01*
X181686900Y-143333348D01*
X183177992Y-144824440D01*
X183177993Y-144824439D01*
X183374964Y-144589700D01*
X183587824Y-144285705D01*
X183587833Y-144285690D01*
X183773384Y-143964307D01*
X183773392Y-143964292D01*
X183930224Y-143627963D01*
X184057162Y-143279206D01*
X184153208Y-142920752D01*
X184153212Y-142920735D01*
X184217654Y-142555271D01*
X184217654Y-142555267D01*
X184249999Y-142185562D01*
X184250000Y-142185560D01*
X184250000Y-141814440D01*
X184249999Y-141814437D01*
X184217654Y-141444732D01*
X184217654Y-141444728D01*
X184153212Y-141079264D01*
X184153208Y-141079247D01*
X184057162Y-140720793D01*
X183930224Y-140372036D01*
X183773392Y-140035707D01*
X183773384Y-140035692D01*
X183587833Y-139714309D01*
X183587824Y-139714294D01*
X183374959Y-139410292D01*
X183177993Y-139175559D01*
X183177992Y-139175558D01*
X181686900Y-140666650D01*
X181619924Y-140579365D01*
X181420635Y-140380076D01*
X181333347Y-140313098D01*
X182824440Y-138822006D01*
X182824439Y-138822005D01*
X182589707Y-138625040D01*
X182285705Y-138412175D01*
X182285690Y-138412166D01*
X181964307Y-138226615D01*
X181964292Y-138226607D01*
X181627963Y-138069775D01*
X181279206Y-137942837D01*
X180920752Y-137846791D01*
X180920735Y-137846787D01*
X180555269Y-137782345D01*
X180185562Y-137750000D01*
X179814437Y-137750000D01*
X179444732Y-137782345D01*
X179444728Y-137782345D01*
X179079264Y-137846787D01*
X179079247Y-137846791D01*
X178720793Y-137942837D01*
X178372036Y-138069775D01*
X178035707Y-138226607D01*
X178035692Y-138226615D01*
X177714309Y-138412166D01*
X177714294Y-138412175D01*
X177410292Y-138625040D01*
X177175559Y-138822005D01*
X177175558Y-138822006D01*
X178666651Y-140313098D01*
X178579365Y-140380076D01*
X178380076Y-140579365D01*
X178313098Y-140666651D01*
X176822006Y-139175558D01*
X176822005Y-139175559D01*
X176625040Y-139410292D01*
X176412175Y-139714294D01*
X176412166Y-139714309D01*
X176226615Y-140035692D01*
X176226607Y-140035707D01*
X176069775Y-140372036D01*
X175942837Y-140720793D01*
X175846791Y-141079247D01*
X175846787Y-141079264D01*
X175782345Y-141444728D01*
X175782345Y-141444732D01*
X175750000Y-141814437D01*
X124249999Y-141814437D01*
X124217654Y-141444732D01*
X124217654Y-141444728D01*
X124153212Y-141079264D01*
X124153208Y-141079247D01*
X124057162Y-140720793D01*
X123930224Y-140372036D01*
X123773392Y-140035707D01*
X123773384Y-140035692D01*
X123587833Y-139714309D01*
X123587824Y-139714294D01*
X123374959Y-139410292D01*
X123177993Y-139175559D01*
X123177992Y-139175558D01*
X121686900Y-140666650D01*
X121619924Y-140579365D01*
X121420635Y-140380076D01*
X121333347Y-140313098D01*
X122824440Y-138822006D01*
X122824439Y-138822005D01*
X122589707Y-138625040D01*
X122285705Y-138412175D01*
X122285690Y-138412166D01*
X121964307Y-138226615D01*
X121964292Y-138226607D01*
X121627963Y-138069775D01*
X121279206Y-137942837D01*
X120920752Y-137846791D01*
X120920735Y-137846787D01*
X120555269Y-137782345D01*
X120185562Y-137750000D01*
X119814437Y-137750000D01*
X119444732Y-137782345D01*
X119444728Y-137782345D01*
X119079264Y-137846787D01*
X119079247Y-137846791D01*
X118720793Y-137942837D01*
X118372036Y-138069775D01*
X118035707Y-138226607D01*
X118035692Y-138226615D01*
X117714309Y-138412166D01*
X117714294Y-138412175D01*
X117410292Y-138625040D01*
X117175559Y-138822005D01*
X117175558Y-138822006D01*
X118666651Y-140313098D01*
X118579365Y-140380076D01*
X118380076Y-140579365D01*
X118313098Y-140666651D01*
X116822006Y-139175558D01*
X116822005Y-139175559D01*
X116625040Y-139410292D01*
X116412175Y-139714294D01*
X116412166Y-139714309D01*
X116226615Y-140035692D01*
X116226607Y-140035707D01*
X116069775Y-140372036D01*
X115942837Y-140720793D01*
X115846791Y-141079247D01*
X115846787Y-141079264D01*
X115782345Y-141444728D01*
X115782345Y-141444732D01*
X115750000Y-141814437D01*
X115500500Y-141814437D01*
X115500500Y-132688575D01*
X121900000Y-132688575D01*
X121900000Y-132911424D01*
X121929085Y-133132354D01*
X121929088Y-133132367D01*
X121986763Y-133347618D01*
X122072045Y-133553502D01*
X122072054Y-133553520D01*
X122183464Y-133746491D01*
X122183473Y-133746504D01*
X122234040Y-133812403D01*
X122234043Y-133812403D01*
X123035387Y-133011059D01*
X123040889Y-133031591D01*
X123119881Y-133168408D01*
X123231592Y-133280119D01*
X123368409Y-133359111D01*
X123388940Y-133364612D01*
X122587595Y-134165955D01*
X122587595Y-134165956D01*
X122653507Y-134216533D01*
X122846485Y-134327949D01*
X122846497Y-134327954D01*
X123052381Y-134413236D01*
X123267632Y-134470911D01*
X123267645Y-134470914D01*
X123488575Y-134500000D01*
X123711425Y-134500000D01*
X123932354Y-134470914D01*
X123932367Y-134470911D01*
X124147618Y-134413236D01*
X124353502Y-134327954D01*
X124353514Y-134327949D01*
X124546498Y-134216530D01*
X124612403Y-134165957D01*
X124612404Y-134165956D01*
X123811059Y-133364612D01*
X123831591Y-133359111D01*
X123968408Y-133280119D01*
X124080119Y-133168408D01*
X124159111Y-133031591D01*
X124164612Y-133011059D01*
X124965956Y-133812404D01*
X124965957Y-133812403D01*
X125016530Y-133746498D01*
X125127949Y-133553514D01*
X125127954Y-133553502D01*
X125213236Y-133347618D01*
X125270911Y-133132367D01*
X125270914Y-133132354D01*
X125300000Y-132911424D01*
X125300000Y-132688579D01*
X125298211Y-132674988D01*
X125298211Y-132674985D01*
X125296519Y-132662135D01*
X132584500Y-132662135D01*
X132584500Y-135577870D01*
X132584501Y-135577876D01*
X132590908Y-135637483D01*
X132641202Y-135772328D01*
X132641206Y-135772335D01*
X132727452Y-135887544D01*
X132727455Y-135887547D01*
X132842664Y-135973793D01*
X132842671Y-135973797D01*
X132977517Y-136024091D01*
X132977516Y-136024091D01*
X132984444Y-136024835D01*
X133037127Y-136030500D01*
X134702872Y-136030499D01*
X134762483Y-136024091D01*
X134897331Y-135973796D01*
X135012546Y-135887546D01*
X135098796Y-135772331D01*
X135149091Y-135637483D01*
X135155500Y-135577873D01*
X135155499Y-132662135D01*
X146044500Y-132662135D01*
X146044500Y-135577870D01*
X146044501Y-135577876D01*
X146050908Y-135637483D01*
X146101202Y-135772328D01*
X146101206Y-135772335D01*
X146187452Y-135887544D01*
X146187455Y-135887547D01*
X146302664Y-135973793D01*
X146302671Y-135973797D01*
X146437517Y-136024091D01*
X146437516Y-136024091D01*
X146444444Y-136024835D01*
X146497127Y-136030500D01*
X148162872Y-136030499D01*
X148222483Y-136024091D01*
X148357331Y-135973796D01*
X148472546Y-135887546D01*
X148558796Y-135772331D01*
X148585779Y-135699986D01*
X154000001Y-135699986D01*
X154010494Y-135802697D01*
X154065641Y-135969119D01*
X154065643Y-135969124D01*
X154157684Y-136118345D01*
X154281654Y-136242315D01*
X154430875Y-136334356D01*
X154430880Y-136334358D01*
X154597302Y-136389505D01*
X154597309Y-136389506D01*
X154700019Y-136399999D01*
X155899999Y-136399999D01*
X156400000Y-136399999D01*
X157599972Y-136399999D01*
X157599986Y-136399998D01*
X157702697Y-136389505D01*
X157869119Y-136334358D01*
X157869124Y-136334356D01*
X158018345Y-136242315D01*
X158142315Y-136118345D01*
X158234356Y-135969124D01*
X158234358Y-135969119D01*
X158289505Y-135802697D01*
X158289506Y-135802690D01*
X158299999Y-135699986D01*
X158300000Y-135699973D01*
X158300000Y-134900000D01*
X156400000Y-134900000D01*
X156400000Y-136399999D01*
X155899999Y-136399999D01*
X155900000Y-136399998D01*
X155900000Y-134900000D01*
X154000001Y-134900000D01*
X154000001Y-135699986D01*
X148585779Y-135699986D01*
X148609091Y-135637483D01*
X148615500Y-135577873D01*
X148615499Y-134474986D01*
X164600001Y-134474986D01*
X164610494Y-134577697D01*
X164665641Y-134744119D01*
X164665643Y-134744124D01*
X164757684Y-134893345D01*
X164881654Y-135017315D01*
X165030875Y-135109356D01*
X165030880Y-135109358D01*
X165197302Y-135164505D01*
X165197309Y-135164506D01*
X165300019Y-135174999D01*
X165749999Y-135174999D01*
X166250000Y-135174999D01*
X166699972Y-135174999D01*
X166699986Y-135174998D01*
X166802697Y-135164505D01*
X166969119Y-135109358D01*
X166969124Y-135109356D01*
X167118345Y-135017315D01*
X167242315Y-134893345D01*
X167299900Y-134799986D01*
X171100001Y-134799986D01*
X171110494Y-134902697D01*
X171165641Y-135069119D01*
X171165643Y-135069124D01*
X171257684Y-135218345D01*
X171381654Y-135342315D01*
X171530875Y-135434356D01*
X171530880Y-135434358D01*
X171697302Y-135489505D01*
X171697309Y-135489506D01*
X171800019Y-135499999D01*
X172149999Y-135499999D01*
X172650000Y-135499999D01*
X172999972Y-135499999D01*
X172999986Y-135499998D01*
X173102697Y-135489505D01*
X173269119Y-135434358D01*
X173269124Y-135434356D01*
X173418345Y-135342315D01*
X173542315Y-135218345D01*
X173634356Y-135069124D01*
X173634358Y-135069119D01*
X173689505Y-134902697D01*
X173689506Y-134902690D01*
X173699999Y-134799986D01*
X173700000Y-134799973D01*
X173700000Y-133500000D01*
X172650000Y-133500000D01*
X172650000Y-135499999D01*
X172149999Y-135499999D01*
X172150000Y-135499998D01*
X172150000Y-133500000D01*
X171100001Y-133500000D01*
X171100001Y-134799986D01*
X167299900Y-134799986D01*
X167334356Y-134744124D01*
X167334358Y-134744119D01*
X167389505Y-134577697D01*
X167389506Y-134577690D01*
X167399999Y-134474986D01*
X167400000Y-134474973D01*
X167400000Y-134350000D01*
X166250000Y-134350000D01*
X166250000Y-135174999D01*
X165749999Y-135174999D01*
X165750000Y-135174998D01*
X165750000Y-134350000D01*
X164600001Y-134350000D01*
X164600001Y-134474986D01*
X148615499Y-134474986D01*
X148615499Y-133850000D01*
X148615499Y-132662129D01*
X148615498Y-132662123D01*
X148615497Y-132662116D01*
X148609091Y-132602517D01*
X148558796Y-132467669D01*
X148558795Y-132467668D01*
X148558793Y-132467664D01*
X148472547Y-132352455D01*
X148472544Y-132352452D01*
X148357335Y-132266206D01*
X148357328Y-132266202D01*
X148222482Y-132215908D01*
X148222483Y-132215908D01*
X148162883Y-132209501D01*
X148162881Y-132209500D01*
X148162873Y-132209500D01*
X148162864Y-132209500D01*
X146497129Y-132209500D01*
X146497123Y-132209501D01*
X146437516Y-132215908D01*
X146302671Y-132266202D01*
X146302664Y-132266206D01*
X146187455Y-132352452D01*
X146187452Y-132352455D01*
X146101206Y-132467664D01*
X146101202Y-132467671D01*
X146050908Y-132602517D01*
X146044501Y-132662116D01*
X146044501Y-132662123D01*
X146044500Y-132662135D01*
X135155499Y-132662135D01*
X135155499Y-132662128D01*
X135149091Y-132602517D01*
X135098796Y-132467669D01*
X135098795Y-132467668D01*
X135098793Y-132467664D01*
X135012547Y-132352455D01*
X135012544Y-132352452D01*
X134897335Y-132266206D01*
X134897328Y-132266202D01*
X134762482Y-132215908D01*
X134762483Y-132215908D01*
X134702883Y-132209501D01*
X134702881Y-132209500D01*
X134702873Y-132209500D01*
X134702864Y-132209500D01*
X133037129Y-132209500D01*
X133037123Y-132209501D01*
X132977516Y-132215908D01*
X132842671Y-132266202D01*
X132842664Y-132266206D01*
X132727455Y-132352452D01*
X132727452Y-132352455D01*
X132641206Y-132467664D01*
X132641202Y-132467671D01*
X132590908Y-132602517D01*
X132584501Y-132662116D01*
X132584501Y-132662123D01*
X132584500Y-132662135D01*
X125296519Y-132662135D01*
X125270914Y-132467645D01*
X125270911Y-132467632D01*
X125213236Y-132252381D01*
X125127954Y-132046497D01*
X125127949Y-132046485D01*
X125016533Y-131853507D01*
X124965956Y-131787595D01*
X124965955Y-131787595D01*
X124164612Y-132588939D01*
X124159111Y-132568409D01*
X124080119Y-132431592D01*
X123968408Y-132319881D01*
X123831591Y-132240889D01*
X123811058Y-132235387D01*
X124612403Y-131434043D01*
X124612403Y-131434040D01*
X124546504Y-131383473D01*
X124546491Y-131383464D01*
X124353520Y-131272054D01*
X124353502Y-131272045D01*
X124147618Y-131186763D01*
X123932367Y-131129088D01*
X123932354Y-131129085D01*
X123711425Y-131100000D01*
X123488575Y-131100000D01*
X123267645Y-131129085D01*
X123267632Y-131129088D01*
X123052381Y-131186763D01*
X122846497Y-131272045D01*
X122846479Y-131272054D01*
X122653511Y-131383462D01*
X122587595Y-131434042D01*
X123388941Y-132235387D01*
X123368409Y-132240889D01*
X123231592Y-132319881D01*
X123119881Y-132431592D01*
X123040889Y-132568409D01*
X123035387Y-132588940D01*
X122234042Y-131787595D01*
X122183462Y-131853511D01*
X122072054Y-132046479D01*
X122072045Y-132046497D01*
X121986763Y-132252381D01*
X121929088Y-132467632D01*
X121929085Y-132467645D01*
X121900000Y-132688575D01*
X115500500Y-132688575D01*
X115500500Y-127685258D01*
X121849500Y-127685258D01*
X121849500Y-127914741D01*
X121875708Y-128113800D01*
X121879452Y-128142238D01*
X121892850Y-128192240D01*
X121895275Y-128201290D01*
X121899500Y-128233383D01*
X121899500Y-128800015D01*
X121910000Y-128902795D01*
X121910001Y-128902797D01*
X121927850Y-128956661D01*
X121965186Y-129069335D01*
X121965187Y-129069337D01*
X122057286Y-129218651D01*
X122057289Y-129218655D01*
X122181344Y-129342710D01*
X122181348Y-129342713D01*
X122330662Y-129434812D01*
X122330664Y-129434813D01*
X122330666Y-129434814D01*
X122497203Y-129489999D01*
X122599992Y-129500500D01*
X123166617Y-129500500D01*
X123198708Y-129504724D01*
X123257762Y-129520548D01*
X123485266Y-129550500D01*
X132663412Y-129550500D01*
X132730451Y-129570185D01*
X132737716Y-129575228D01*
X132770807Y-129600000D01*
X132842669Y-129653796D01*
X132842671Y-129653797D01*
X132977517Y-129704091D01*
X132977516Y-129704091D01*
X132984444Y-129704835D01*
X133037127Y-129710500D01*
X134702872Y-129710499D01*
X134762483Y-129704091D01*
X134897331Y-129653796D01*
X135012546Y-129567546D01*
X135098796Y-129452331D01*
X135149091Y-129317483D01*
X135155500Y-129257873D01*
X135155499Y-129041439D01*
X135175183Y-128974400D01*
X135186270Y-128959681D01*
X135188906Y-128956673D01*
X135188919Y-128956661D01*
X135328611Y-128774612D01*
X135443344Y-128575888D01*
X135531158Y-128363887D01*
X135590548Y-128142238D01*
X135620500Y-127914734D01*
X135620500Y-127735258D01*
X145629500Y-127735258D01*
X145629500Y-127964741D01*
X145654446Y-128154215D01*
X145659452Y-128192238D01*
X145670477Y-128233383D01*
X145718842Y-128413887D01*
X145806650Y-128625876D01*
X145806657Y-128625891D01*
X145921388Y-128824611D01*
X146018876Y-128951660D01*
X146044070Y-129016829D01*
X146044500Y-129027145D01*
X146044500Y-129257869D01*
X146044501Y-129257876D01*
X146050908Y-129317483D01*
X146101202Y-129452328D01*
X146101206Y-129452335D01*
X146187452Y-129567544D01*
X146187455Y-129567547D01*
X146302664Y-129653793D01*
X146302671Y-129653797D01*
X146437517Y-129704091D01*
X146437516Y-129704091D01*
X146444444Y-129704835D01*
X146497127Y-129710500D01*
X148162872Y-129710499D01*
X148222483Y-129704091D01*
X148357331Y-129653796D01*
X148395486Y-129625232D01*
X148460950Y-129600816D01*
X148469797Y-129600500D01*
X152926000Y-129600500D01*
X152993039Y-129620185D01*
X153038794Y-129672989D01*
X153050000Y-129724500D01*
X153050000Y-133150000D01*
X153955346Y-133150000D01*
X154022385Y-133169685D01*
X154068140Y-133222489D01*
X154078084Y-133291647D01*
X154067729Y-133326403D01*
X154065642Y-133330877D01*
X154010494Y-133497302D01*
X154010493Y-133497309D01*
X154000000Y-133600013D01*
X154000000Y-134400000D01*
X158299999Y-134400000D01*
X158299999Y-133600028D01*
X158299998Y-133600013D01*
X158289505Y-133497302D01*
X158234357Y-133330877D01*
X158232271Y-133326403D01*
X158221780Y-133257325D01*
X158250301Y-133193542D01*
X158308779Y-133155303D01*
X158344654Y-133150000D01*
X159200000Y-133150000D01*
X159200000Y-129600000D01*
X158160730Y-129600000D01*
X158093691Y-129580315D01*
X158047936Y-129527511D01*
X158037992Y-129458353D01*
X158067017Y-129394797D01*
X158073049Y-129388319D01*
X158142712Y-129318656D01*
X158234814Y-129169334D01*
X158234814Y-129169332D01*
X158238605Y-129163187D01*
X158240399Y-129164293D01*
X158279687Y-129119663D01*
X158345908Y-129100500D01*
X162518416Y-129100500D01*
X162518417Y-129100500D01*
X162603486Y-129087025D01*
X162622884Y-129085499D01*
X163852871Y-129085499D01*
X163852872Y-129085499D01*
X163912483Y-129079091D01*
X164047331Y-129028796D01*
X164135689Y-128962650D01*
X164201153Y-128938234D01*
X164269426Y-128953085D01*
X164284309Y-128962650D01*
X164314236Y-128985053D01*
X164372669Y-129028796D01*
X164372671Y-129028797D01*
X164406569Y-129041440D01*
X164507517Y-129079091D01*
X164567127Y-129085500D01*
X164875500Y-129085499D01*
X164942539Y-129105183D01*
X164988294Y-129157987D01*
X164999500Y-129209499D01*
X164999500Y-130090201D01*
X164979815Y-130157240D01*
X164940598Y-130195739D01*
X164881344Y-130232287D01*
X164757289Y-130356342D01*
X164665187Y-130505663D01*
X164665186Y-130505666D01*
X164610001Y-130672203D01*
X164610001Y-130672204D01*
X164610000Y-130672204D01*
X164599500Y-130774983D01*
X164599500Y-131525001D01*
X164599501Y-131525019D01*
X164610000Y-131627796D01*
X164610001Y-131627799D01*
X164665185Y-131794331D01*
X164665187Y-131794336D01*
X164757289Y-131943657D01*
X164881344Y-132067712D01*
X165031096Y-132160079D01*
X165077821Y-132212027D01*
X165090000Y-132265618D01*
X165090000Y-132984968D01*
X165070315Y-133052007D01*
X165031097Y-133090506D01*
X164881659Y-133182680D01*
X164881655Y-133182683D01*
X164757684Y-133306654D01*
X164665643Y-133455875D01*
X164665641Y-133455880D01*
X164610494Y-133622302D01*
X164610493Y-133622309D01*
X164600000Y-133725013D01*
X164600000Y-133850000D01*
X167399999Y-133850000D01*
X167399999Y-133725028D01*
X167399998Y-133725013D01*
X167389505Y-133622302D01*
X167344883Y-133487642D01*
X167334358Y-133455880D01*
X167334356Y-133455875D01*
X167242315Y-133306654D01*
X167118344Y-133182683D01*
X167118340Y-133182680D01*
X166968903Y-133090506D01*
X166922178Y-133038559D01*
X166910000Y-132984968D01*
X166910000Y-132265618D01*
X166929685Y-132198579D01*
X166968904Y-132160079D01*
X166969334Y-132159814D01*
X167118656Y-132067712D01*
X167242712Y-131943656D01*
X167334814Y-131794334D01*
X167389999Y-131627797D01*
X167400500Y-131525009D01*
X167400499Y-130774992D01*
X167389999Y-130672203D01*
X167334814Y-130505666D01*
X167242712Y-130356344D01*
X167118656Y-130232288D01*
X167118655Y-130232287D01*
X167059402Y-130195739D01*
X167012678Y-130143791D01*
X167000500Y-130090201D01*
X167000500Y-129224500D01*
X167020185Y-129157461D01*
X167072989Y-129111706D01*
X167124500Y-129100500D01*
X168701583Y-129100500D01*
X170975501Y-129100500D01*
X171042540Y-129120185D01*
X171088295Y-129172989D01*
X171099501Y-129224500D01*
X171099501Y-129400018D01*
X171110000Y-129502796D01*
X171110001Y-129502799D01*
X171165185Y-129669331D01*
X171165189Y-129669340D01*
X171252506Y-129810904D01*
X171270946Y-129878296D01*
X171250023Y-129944960D01*
X171196381Y-129989729D01*
X171146967Y-130000000D01*
X169200000Y-130000000D01*
X169200000Y-131250000D01*
X171055346Y-131250000D01*
X171122385Y-131269685D01*
X171168140Y-131322489D01*
X171178084Y-131391647D01*
X171167729Y-131426403D01*
X171165642Y-131430877D01*
X171110494Y-131597302D01*
X171110493Y-131597309D01*
X171100000Y-131700013D01*
X171100000Y-133000000D01*
X173699999Y-133000000D01*
X173699999Y-131700028D01*
X173699998Y-131700013D01*
X173689505Y-131597302D01*
X173634357Y-131430877D01*
X173632271Y-131426403D01*
X173621780Y-131357325D01*
X173650301Y-131293542D01*
X173708779Y-131255303D01*
X173744654Y-131250000D01*
X175750000Y-131250000D01*
X175750000Y-130000000D01*
X173653033Y-130000000D01*
X173585994Y-129980315D01*
X173540239Y-129927511D01*
X173530295Y-129858353D01*
X173547494Y-129810904D01*
X173613376Y-129704091D01*
X173634814Y-129669334D01*
X173689999Y-129502797D01*
X173700500Y-129400009D01*
X173700499Y-126299992D01*
X173689999Y-126197203D01*
X173634814Y-126030666D01*
X173542712Y-125881344D01*
X173418656Y-125757288D01*
X173269334Y-125665186D01*
X173102797Y-125610001D01*
X173102795Y-125610000D01*
X173000010Y-125599500D01*
X171799998Y-125599500D01*
X171799981Y-125599501D01*
X171697203Y-125610000D01*
X171697200Y-125610001D01*
X171530668Y-125665185D01*
X171530663Y-125665187D01*
X171381342Y-125757289D01*
X171257289Y-125881342D01*
X171165187Y-126030663D01*
X171165185Y-126030668D01*
X171146723Y-126086384D01*
X171110001Y-126197203D01*
X171110001Y-126197204D01*
X171110000Y-126197204D01*
X171099500Y-126299983D01*
X171099500Y-126475500D01*
X171079815Y-126542539D01*
X171027011Y-126588294D01*
X170975500Y-126599500D01*
X170174500Y-126599500D01*
X170107461Y-126579815D01*
X170061706Y-126527011D01*
X170050500Y-126475500D01*
X170050500Y-126201577D01*
X170031157Y-126079453D01*
X170019709Y-126007174D01*
X169983557Y-125895909D01*
X169958884Y-125819974D01*
X169958882Y-125819971D01*
X169958882Y-125819969D01*
X169880016Y-125665187D01*
X169869524Y-125644595D01*
X169753828Y-125485354D01*
X168086819Y-123818345D01*
X168053334Y-123757022D01*
X168050500Y-123730664D01*
X168050500Y-119791583D01*
X168037026Y-119706513D01*
X168035499Y-119687115D01*
X168035499Y-118457129D01*
X168035498Y-118457123D01*
X168035497Y-118457116D01*
X168029091Y-118397517D01*
X168025032Y-118386635D01*
X167978797Y-118262671D01*
X167978796Y-118262669D01*
X167966961Y-118246859D01*
X167912650Y-118174310D01*
X167888234Y-118108847D01*
X167903085Y-118040574D01*
X167912651Y-118025689D01*
X167951405Y-117973920D01*
X167978796Y-117937331D01*
X168029091Y-117802483D01*
X168035500Y-117742873D01*
X168035500Y-117674500D01*
X168055185Y-117607461D01*
X168107989Y-117561706D01*
X168159500Y-117550500D01*
X169807993Y-117550500D01*
X169846997Y-117556794D01*
X169947203Y-117589999D01*
X170049991Y-117600500D01*
X170550500Y-117600499D01*
X170617539Y-117620183D01*
X170663294Y-117672987D01*
X170674500Y-117724499D01*
X170674500Y-120687770D01*
X170654815Y-120754809D01*
X170638181Y-120775451D01*
X170632289Y-120781342D01*
X170540187Y-120930663D01*
X170540185Y-120930668D01*
X170524560Y-120977822D01*
X170485001Y-121097203D01*
X170485001Y-121097204D01*
X170485000Y-121097204D01*
X170474500Y-121199983D01*
X170474500Y-122600001D01*
X170474501Y-122600018D01*
X170485000Y-122702796D01*
X170485001Y-122702799D01*
X170540185Y-122869331D01*
X170540187Y-122869336D01*
X170557376Y-122897203D01*
X170632288Y-123018656D01*
X170756344Y-123142712D01*
X170905666Y-123234814D01*
X171072203Y-123289999D01*
X171174991Y-123300500D01*
X171925008Y-123300499D01*
X171925016Y-123300498D01*
X171925019Y-123300498D01*
X171981302Y-123294748D01*
X172027797Y-123289999D01*
X172194334Y-123234814D01*
X172343656Y-123142712D01*
X172467712Y-123018656D01*
X172559814Y-122869334D01*
X172559814Y-122869333D01*
X172560079Y-122868904D01*
X172612027Y-122822179D01*
X172665618Y-122810000D01*
X173384968Y-122810000D01*
X173452007Y-122829685D01*
X173490506Y-122868903D01*
X173582680Y-123018340D01*
X173582683Y-123018344D01*
X173706654Y-123142315D01*
X173855875Y-123234356D01*
X173855880Y-123234358D01*
X174022302Y-123289505D01*
X174022309Y-123289506D01*
X174125019Y-123299999D01*
X174249999Y-123299999D01*
X174750000Y-123299999D01*
X174874972Y-123299999D01*
X174874986Y-123299998D01*
X174977697Y-123289505D01*
X175144119Y-123234358D01*
X175144124Y-123234356D01*
X175293345Y-123142315D01*
X175417315Y-123018345D01*
X175509356Y-122869124D01*
X175509358Y-122869119D01*
X175564505Y-122702697D01*
X175564506Y-122702690D01*
X175574999Y-122599986D01*
X175575000Y-122599973D01*
X175575000Y-122150000D01*
X174750000Y-122150000D01*
X174750000Y-123299999D01*
X174249999Y-123299999D01*
X174250000Y-123299998D01*
X174250000Y-121650000D01*
X174750000Y-121650000D01*
X175574999Y-121650000D01*
X175574999Y-121200028D01*
X175574998Y-121200013D01*
X175564505Y-121097302D01*
X175509358Y-120930880D01*
X175509356Y-120930875D01*
X175417315Y-120781654D01*
X175293345Y-120657684D01*
X175144124Y-120565643D01*
X175144119Y-120565641D01*
X174977697Y-120510494D01*
X174977690Y-120510493D01*
X174874986Y-120500000D01*
X174750000Y-120500000D01*
X174750000Y-121650000D01*
X174250000Y-121650000D01*
X174250000Y-120500000D01*
X174125027Y-120500000D01*
X174125012Y-120500001D01*
X174022302Y-120510494D01*
X173855880Y-120565641D01*
X173855875Y-120565643D01*
X173706654Y-120657684D01*
X173582683Y-120781655D01*
X173582680Y-120781659D01*
X173490506Y-120931097D01*
X173438559Y-120977822D01*
X173384968Y-120990000D01*
X172665618Y-120990000D01*
X172657304Y-120987558D01*
X172648737Y-120988845D01*
X172624292Y-120977865D01*
X172598579Y-120970315D01*
X172591235Y-120963017D01*
X172585001Y-120960217D01*
X172565569Y-120937511D01*
X172561723Y-120933689D01*
X172559876Y-120930854D01*
X172559814Y-120930666D01*
X172467712Y-120781344D01*
X172452667Y-120766299D01*
X172445605Y-120755459D01*
X172439125Y-120733891D01*
X172428334Y-120714128D01*
X172425628Y-120688963D01*
X172425502Y-120688543D01*
X172425560Y-120688337D01*
X172425500Y-120687770D01*
X172425500Y-117724499D01*
X172445185Y-117657460D01*
X172497989Y-117611705D01*
X172549500Y-117600499D01*
X173150002Y-117600499D01*
X173150008Y-117600499D01*
X173252797Y-117589999D01*
X173419334Y-117534814D01*
X173510906Y-117478332D01*
X173578295Y-117459893D01*
X173644959Y-117480815D01*
X173689729Y-117534457D01*
X173700000Y-117583872D01*
X173700000Y-119550000D01*
X174950000Y-119550000D01*
X174950000Y-117614125D01*
X174969685Y-117547086D01*
X175022489Y-117501331D01*
X175091647Y-117491387D01*
X175139098Y-117508587D01*
X175180873Y-117534355D01*
X175180880Y-117534358D01*
X175347302Y-117589505D01*
X175347309Y-117589506D01*
X175450019Y-117599999D01*
X176749999Y-117599999D01*
X177250000Y-117599999D01*
X178549972Y-117599999D01*
X178549986Y-117599998D01*
X178652697Y-117589505D01*
X178819119Y-117534358D01*
X178819124Y-117534356D01*
X178968345Y-117442315D01*
X179092315Y-117318345D01*
X179184356Y-117169124D01*
X179184358Y-117169119D01*
X179239505Y-117002697D01*
X179239506Y-117002690D01*
X179249999Y-116899986D01*
X179250000Y-116899973D01*
X179250000Y-116550000D01*
X177250000Y-116550000D01*
X177250000Y-117599999D01*
X176749999Y-117599999D01*
X176750000Y-117599998D01*
X176750000Y-116050000D01*
X177250000Y-116050000D01*
X179249999Y-116050000D01*
X179249999Y-115700028D01*
X179249998Y-115700013D01*
X179239505Y-115597302D01*
X179184358Y-115430880D01*
X179184356Y-115430875D01*
X179092315Y-115281654D01*
X178968345Y-115157684D01*
X178819124Y-115065643D01*
X178819119Y-115065641D01*
X178652697Y-115010494D01*
X178652690Y-115010493D01*
X178549986Y-115000000D01*
X177250000Y-115000000D01*
X177250000Y-116050000D01*
X176750000Y-116050000D01*
X176750000Y-115000000D01*
X175450028Y-115000000D01*
X175450012Y-115000001D01*
X175347302Y-115010494D01*
X175180880Y-115065641D01*
X175180871Y-115065645D01*
X175139096Y-115091413D01*
X175071704Y-115109853D01*
X175005040Y-115088930D01*
X174960271Y-115035288D01*
X174950000Y-114985874D01*
X174950000Y-113050000D01*
X173700000Y-113050000D01*
X173700000Y-115016127D01*
X173680315Y-115083166D01*
X173627511Y-115128921D01*
X173558353Y-115138865D01*
X173510904Y-115121666D01*
X173419340Y-115065189D01*
X173419335Y-115065187D01*
X173419334Y-115065186D01*
X173252797Y-115010001D01*
X173252795Y-115010000D01*
X173150010Y-114999500D01*
X170049998Y-114999500D01*
X170049981Y-114999501D01*
X169947203Y-115010000D01*
X169947200Y-115010001D01*
X169846997Y-115043206D01*
X169807993Y-115049500D01*
X168424500Y-115049500D01*
X168357461Y-115029815D01*
X168311706Y-114977011D01*
X168300500Y-114925500D01*
X168300500Y-112137000D01*
X168320185Y-112069961D01*
X168372989Y-112024206D01*
X168424500Y-112013000D01*
X168900270Y-112013000D01*
X168967309Y-112032685D01*
X168987951Y-112049319D01*
X169106344Y-112167712D01*
X169255666Y-112259814D01*
X169422203Y-112314999D01*
X169524991Y-112325500D01*
X170875008Y-112325499D01*
X170977797Y-112314999D01*
X171144334Y-112259814D01*
X171293656Y-112167712D01*
X171417712Y-112043656D01*
X171509814Y-111894334D01*
X171564999Y-111727797D01*
X171575500Y-111625009D01*
X171575499Y-110899992D01*
X171564999Y-110797203D01*
X171509814Y-110630666D01*
X171417712Y-110481344D01*
X171293656Y-110357288D01*
X171144334Y-110265186D01*
X170977797Y-110210001D01*
X170977795Y-110210000D01*
X170875010Y-110199500D01*
X169524998Y-110199500D01*
X169524981Y-110199501D01*
X169422203Y-110210000D01*
X169422200Y-110210001D01*
X169255668Y-110265185D01*
X169255663Y-110265187D01*
X169106342Y-110357289D01*
X168987951Y-110475681D01*
X168926628Y-110509166D01*
X168900270Y-110512000D01*
X168159499Y-110512000D01*
X168092460Y-110492315D01*
X168046705Y-110439511D01*
X168035499Y-110388000D01*
X168035499Y-110207129D01*
X168035498Y-110207123D01*
X168035497Y-110207116D01*
X168029091Y-110147517D01*
X167978796Y-110012669D01*
X167912650Y-109924310D01*
X167888234Y-109858847D01*
X167903085Y-109790574D01*
X167912651Y-109775689D01*
X167978796Y-109687331D01*
X168029091Y-109552483D01*
X168035500Y-109492873D01*
X168035500Y-109212000D01*
X168055185Y-109144961D01*
X168107989Y-109099206D01*
X168159500Y-109088000D01*
X168900270Y-109088000D01*
X168967309Y-109107685D01*
X168987951Y-109124319D01*
X169106344Y-109242712D01*
X169255666Y-109334814D01*
X169422203Y-109389999D01*
X169524991Y-109400500D01*
X170875008Y-109400499D01*
X170977797Y-109389999D01*
X171144334Y-109334814D01*
X171293656Y-109242712D01*
X171417712Y-109118656D01*
X171509814Y-108969334D01*
X171564999Y-108802797D01*
X171575500Y-108700009D01*
X171575499Y-107974992D01*
X171564999Y-107872203D01*
X171509814Y-107705666D01*
X171417712Y-107556344D01*
X171293656Y-107432288D01*
X171144334Y-107340186D01*
X170977797Y-107285001D01*
X170977795Y-107285000D01*
X170875010Y-107274500D01*
X169524998Y-107274500D01*
X169524981Y-107274501D01*
X169422203Y-107285000D01*
X169422200Y-107285001D01*
X169255668Y-107340185D01*
X169255663Y-107340187D01*
X169106342Y-107432289D01*
X168987951Y-107550681D01*
X168926628Y-107584166D01*
X168900270Y-107587000D01*
X168424500Y-107587000D01*
X168357461Y-107567315D01*
X168311706Y-107514511D01*
X168300500Y-107463000D01*
X168300500Y-100281947D01*
X181200000Y-100281947D01*
X181200000Y-100518052D01*
X181236934Y-100751247D01*
X181309897Y-100975802D01*
X181417087Y-101186174D01*
X181477338Y-101269104D01*
X181477340Y-101269105D01*
X182217037Y-100529408D01*
X182234075Y-100592993D01*
X182299901Y-100707007D01*
X182392993Y-100800099D01*
X182507007Y-100865925D01*
X182570590Y-100882962D01*
X181830893Y-101622658D01*
X181913828Y-101682914D01*
X182124197Y-101790102D01*
X182348752Y-101863065D01*
X182348751Y-101863065D01*
X182581948Y-101900000D01*
X182818052Y-101900000D01*
X183051247Y-101863065D01*
X183275802Y-101790102D01*
X183486163Y-101682918D01*
X183486169Y-101682914D01*
X183569104Y-101622658D01*
X183569105Y-101622658D01*
X182829408Y-100882962D01*
X182892993Y-100865925D01*
X183007007Y-100800099D01*
X183100099Y-100707007D01*
X183165925Y-100592993D01*
X183182962Y-100529409D01*
X183922658Y-101269105D01*
X183922658Y-101269104D01*
X183982914Y-101186169D01*
X183982918Y-101186163D01*
X184090102Y-100975802D01*
X184163065Y-100751247D01*
X184200000Y-100518052D01*
X184200000Y-100281947D01*
X184163065Y-100048752D01*
X184090102Y-99824197D01*
X183982914Y-99613828D01*
X183922658Y-99530894D01*
X183922658Y-99530893D01*
X183182962Y-100270590D01*
X183165925Y-100207007D01*
X183100099Y-100092993D01*
X183007007Y-99999901D01*
X182892993Y-99934075D01*
X182829409Y-99917037D01*
X183569105Y-99177340D01*
X183569104Y-99177338D01*
X183486174Y-99117087D01*
X183275802Y-99009897D01*
X183051247Y-98936934D01*
X183051248Y-98936934D01*
X182818052Y-98900000D01*
X182581948Y-98900000D01*
X182348752Y-98936934D01*
X182124197Y-99009897D01*
X181913830Y-99117084D01*
X181830894Y-99177340D01*
X182570591Y-99917037D01*
X182507007Y-99934075D01*
X182392993Y-99999901D01*
X182299901Y-100092993D01*
X182234075Y-100207007D01*
X182217037Y-100270590D01*
X181477340Y-99530894D01*
X181417084Y-99613830D01*
X181309897Y-99824197D01*
X181236934Y-100048752D01*
X181200000Y-100281947D01*
X168300500Y-100281947D01*
X168300500Y-94281902D01*
X181199500Y-94281902D01*
X181199500Y-94518097D01*
X181236446Y-94751368D01*
X181309433Y-94975996D01*
X181416519Y-95186163D01*
X181416657Y-95186433D01*
X181555483Y-95377510D01*
X181722490Y-95544517D01*
X181913567Y-95683343D01*
X182006141Y-95730512D01*
X182124003Y-95790566D01*
X182124005Y-95790566D01*
X182124008Y-95790568D01*
X182221361Y-95822200D01*
X182348631Y-95863553D01*
X182581903Y-95900500D01*
X182581908Y-95900500D01*
X182818097Y-95900500D01*
X183051368Y-95863553D01*
X183056394Y-95861920D01*
X183275992Y-95790568D01*
X183486433Y-95683343D01*
X183677510Y-95544517D01*
X183844517Y-95377510D01*
X183983343Y-95186433D01*
X184090568Y-94975992D01*
X184163553Y-94751368D01*
X184188637Y-94592993D01*
X184200500Y-94518097D01*
X184200500Y-94281902D01*
X184163553Y-94048631D01*
X184105221Y-93869105D01*
X184090568Y-93824008D01*
X184090566Y-93824005D01*
X184090566Y-93824003D01*
X183983477Y-93613830D01*
X183983343Y-93613567D01*
X183844517Y-93422490D01*
X183677510Y-93255483D01*
X183486433Y-93116657D01*
X183275996Y-93009433D01*
X183051368Y-92936446D01*
X182818097Y-92899500D01*
X182818092Y-92899500D01*
X182581908Y-92899500D01*
X182581903Y-92899500D01*
X182348631Y-92936446D01*
X182124003Y-93009433D01*
X181913566Y-93116657D01*
X181830047Y-93177338D01*
X181722490Y-93255483D01*
X181722488Y-93255485D01*
X181722487Y-93255485D01*
X181555485Y-93422487D01*
X181555485Y-93422488D01*
X181555483Y-93422490D01*
X181534436Y-93451459D01*
X181416657Y-93613566D01*
X181309433Y-93824003D01*
X181236446Y-94048631D01*
X181199500Y-94281902D01*
X168300500Y-94281902D01*
X168300500Y-90681902D01*
X168263553Y-90448631D01*
X168190566Y-90224003D01*
X168083342Y-90013566D01*
X167944517Y-89822490D01*
X167777510Y-89655483D01*
X166977510Y-88855483D01*
X166786434Y-88716657D01*
X166725375Y-88685546D01*
X166575996Y-88609433D01*
X166351368Y-88536446D01*
X166118097Y-88499500D01*
X166118092Y-88499500D01*
X165881908Y-88499500D01*
X165881903Y-88499500D01*
X165648631Y-88536446D01*
X165424003Y-88609433D01*
X165213562Y-88716659D01*
X165200956Y-88725818D01*
X165135150Y-88749298D01*
X165128071Y-88749500D01*
X162601578Y-88749500D01*
X162407173Y-88780290D01*
X162219970Y-88841117D01*
X162044594Y-88930476D01*
X162007613Y-88957345D01*
X161885354Y-89046172D01*
X161885352Y-89046174D01*
X161885351Y-89046174D01*
X161746174Y-89185351D01*
X161746174Y-89185352D01*
X161746172Y-89185354D01*
X161715126Y-89228085D01*
X161630476Y-89344594D01*
X161541117Y-89519970D01*
X161480290Y-89707173D01*
X161449500Y-89901577D01*
X161449500Y-90098422D01*
X161480290Y-90292826D01*
X161541117Y-90480029D01*
X161602246Y-90600000D01*
X161630476Y-90655405D01*
X161746172Y-90814646D01*
X161885354Y-90953828D01*
X162044595Y-91069524D01*
X162127455Y-91111743D01*
X162219970Y-91158882D01*
X162219972Y-91158882D01*
X162219975Y-91158884D01*
X162320317Y-91191487D01*
X162407173Y-91219709D01*
X162601578Y-91250500D01*
X162601583Y-91250500D01*
X163551583Y-91250500D01*
X164701583Y-91250500D01*
X165077111Y-91250500D01*
X165106551Y-91259144D01*
X165136538Y-91265668D01*
X165141553Y-91269422D01*
X165144150Y-91270185D01*
X165164792Y-91286819D01*
X165263181Y-91385208D01*
X165296666Y-91446531D01*
X165299500Y-91472889D01*
X165299500Y-108178097D01*
X165336446Y-108411368D01*
X165409433Y-108635996D01*
X165516656Y-108846431D01*
X165516658Y-108846435D01*
X165540818Y-108879688D01*
X165564298Y-108945494D01*
X165564500Y-108952573D01*
X165564500Y-109492870D01*
X165564501Y-109492876D01*
X165570908Y-109552483D01*
X165621202Y-109687328D01*
X165621203Y-109687330D01*
X165687349Y-109775689D01*
X165711766Y-109841153D01*
X165696915Y-109909426D01*
X165687349Y-109924311D01*
X165621203Y-110012669D01*
X165621202Y-110012671D01*
X165570908Y-110147517D01*
X165565320Y-110199500D01*
X165564501Y-110207123D01*
X165564500Y-110207135D01*
X165564500Y-110747426D01*
X165544815Y-110814465D01*
X165540819Y-110820310D01*
X165516657Y-110853566D01*
X165516656Y-110853568D01*
X165409433Y-111064003D01*
X165336446Y-111288631D01*
X165299500Y-111521902D01*
X165299500Y-116428097D01*
X165336446Y-116661368D01*
X165409433Y-116885996D01*
X165516656Y-117096431D01*
X165516658Y-117096435D01*
X165540818Y-117129688D01*
X165564298Y-117195494D01*
X165564500Y-117202573D01*
X165564500Y-117742870D01*
X165564501Y-117742876D01*
X165570908Y-117802483D01*
X165621202Y-117937328D01*
X165621203Y-117937330D01*
X165687349Y-118025689D01*
X165711766Y-118091153D01*
X165696915Y-118159426D01*
X165687349Y-118174311D01*
X165621203Y-118262669D01*
X165621202Y-118262671D01*
X165570908Y-118397517D01*
X165564501Y-118457116D01*
X165564501Y-118457123D01*
X165564500Y-118457135D01*
X165564500Y-119687110D01*
X165562974Y-119706507D01*
X165549500Y-119791583D01*
X165549500Y-124398422D01*
X165580292Y-124592833D01*
X165580679Y-124594447D01*
X165580647Y-124595076D01*
X165581053Y-124597638D01*
X165580514Y-124597723D01*
X165577174Y-124664229D01*
X165536498Y-124721038D01*
X165471566Y-124746838D01*
X165402993Y-124733437D01*
X165372420Y-124711052D01*
X165228416Y-124567048D01*
X165228415Y-124567047D01*
X165228414Y-124567046D01*
X165154729Y-124517812D01*
X165154729Y-124517813D01*
X165105491Y-124484913D01*
X164968917Y-124428343D01*
X164968907Y-124428340D01*
X164823920Y-124399500D01*
X164823918Y-124399500D01*
X153312229Y-124399500D01*
X153245190Y-124379815D01*
X153224548Y-124363181D01*
X151978421Y-123117052D01*
X151978414Y-123117046D01*
X151904729Y-123067812D01*
X151904729Y-123067813D01*
X151855491Y-123034913D01*
X151718917Y-122978343D01*
X151718907Y-122978340D01*
X151573920Y-122949500D01*
X151573918Y-122949500D01*
X150251085Y-122949500D01*
X150184046Y-122929815D01*
X150138291Y-122877011D01*
X150133381Y-122864510D01*
X150097314Y-122755666D01*
X150005212Y-122606344D01*
X149881156Y-122482288D01*
X149731834Y-122390186D01*
X149565297Y-122335001D01*
X149565295Y-122335000D01*
X149462510Y-122324500D01*
X148737498Y-122324500D01*
X148737480Y-122324501D01*
X148634703Y-122335000D01*
X148634700Y-122335001D01*
X148468168Y-122390185D01*
X148468163Y-122390187D01*
X148318842Y-122482289D01*
X148194789Y-122606342D01*
X148102687Y-122755663D01*
X148102685Y-122755668D01*
X148091309Y-122790000D01*
X148047501Y-122922203D01*
X148047501Y-122922204D01*
X148047500Y-122922204D01*
X148037000Y-123024983D01*
X148037000Y-124375001D01*
X148037001Y-124375018D01*
X148047500Y-124477796D01*
X148047501Y-124477799D01*
X148102685Y-124644331D01*
X148102687Y-124644336D01*
X148118104Y-124669331D01*
X148194788Y-124793656D01*
X148318844Y-124917712D01*
X148468166Y-125009814D01*
X148634703Y-125064999D01*
X148737491Y-125075500D01*
X149462508Y-125075499D01*
X149462516Y-125075498D01*
X149462519Y-125075498D01*
X149518802Y-125069748D01*
X149565297Y-125064999D01*
X149731834Y-125009814D01*
X149881156Y-124917712D01*
X150005212Y-124793656D01*
X150097314Y-124644334D01*
X150133379Y-124535494D01*
X150173152Y-124478051D01*
X150237667Y-124451228D01*
X150251085Y-124450500D01*
X151137770Y-124450500D01*
X151204809Y-124470185D01*
X151225451Y-124486819D01*
X152471582Y-125732950D01*
X152508008Y-125757289D01*
X152508007Y-125757289D01*
X152594502Y-125815083D01*
X152594506Y-125815085D01*
X152651075Y-125838516D01*
X152651080Y-125838518D01*
X152705209Y-125860939D01*
X152759612Y-125904781D01*
X152781676Y-125971075D01*
X152764396Y-126038774D01*
X152713259Y-126086384D01*
X152657755Y-126099500D01*
X148584806Y-126099500D01*
X148517767Y-126079815D01*
X148485540Y-126049812D01*
X148472546Y-126032454D01*
X148462278Y-126024767D01*
X148357335Y-125946206D01*
X148357328Y-125946202D01*
X148222482Y-125895908D01*
X148222483Y-125895908D01*
X148162883Y-125889501D01*
X148162881Y-125889500D01*
X148162873Y-125889500D01*
X148162864Y-125889500D01*
X146497129Y-125889500D01*
X146497123Y-125889501D01*
X146437516Y-125895908D01*
X146302671Y-125946202D01*
X146302664Y-125946206D01*
X146187455Y-126032452D01*
X146187452Y-126032455D01*
X146101206Y-126147664D01*
X146101202Y-126147671D01*
X146050908Y-126282517D01*
X146046225Y-126326082D01*
X146044501Y-126342123D01*
X146044500Y-126342135D01*
X146044500Y-126672853D01*
X146024815Y-126739892D01*
X146018876Y-126748339D01*
X145921388Y-126875388D01*
X145806657Y-127074108D01*
X145806650Y-127074123D01*
X145718842Y-127286112D01*
X145692897Y-127382941D01*
X145672852Y-127457754D01*
X145659453Y-127507759D01*
X145659451Y-127507770D01*
X145629500Y-127735258D01*
X135620500Y-127735258D01*
X135620500Y-127685266D01*
X135590548Y-127457762D01*
X135531158Y-127236113D01*
X135481190Y-127115480D01*
X135443349Y-127024123D01*
X135443346Y-127024117D01*
X135443344Y-127024112D01*
X135328611Y-126825388D01*
X135328608Y-126825385D01*
X135328607Y-126825382D01*
X135230251Y-126697204D01*
X135188919Y-126643339D01*
X135188917Y-126643337D01*
X135188914Y-126643333D01*
X135186257Y-126640302D01*
X135156865Y-126576915D01*
X135155499Y-126558559D01*
X135155499Y-126342129D01*
X135155498Y-126342123D01*
X135155497Y-126342116D01*
X135149091Y-126282517D01*
X135139681Y-126257288D01*
X135098797Y-126147671D01*
X135098793Y-126147664D01*
X135012547Y-126032455D01*
X135012544Y-126032452D01*
X134897335Y-125946206D01*
X134897328Y-125946202D01*
X134762482Y-125895908D01*
X134762483Y-125895908D01*
X134702883Y-125889501D01*
X134702881Y-125889500D01*
X134702873Y-125889500D01*
X134702864Y-125889500D01*
X133037129Y-125889500D01*
X133037123Y-125889501D01*
X132977516Y-125895908D01*
X132842671Y-125946202D01*
X132842669Y-125946203D01*
X132766507Y-126003218D01*
X132737721Y-126024767D01*
X132672259Y-126049184D01*
X132663412Y-126049500D01*
X123485258Y-126049500D01*
X123268715Y-126078009D01*
X123257762Y-126079452D01*
X123198708Y-126095275D01*
X123166617Y-126099500D01*
X122599984Y-126099500D01*
X122497204Y-126110000D01*
X122497203Y-126110001D01*
X122330664Y-126165186D01*
X122330662Y-126165187D01*
X122181348Y-126257286D01*
X122181344Y-126257289D01*
X122057289Y-126381344D01*
X122057286Y-126381348D01*
X121965187Y-126530662D01*
X121965186Y-126530664D01*
X121910001Y-126697203D01*
X121910000Y-126697204D01*
X121899500Y-126799984D01*
X121899500Y-127366616D01*
X121895275Y-127398708D01*
X121879452Y-127457762D01*
X121879451Y-127457770D01*
X121849500Y-127685258D01*
X115500500Y-127685258D01*
X115500500Y-124399986D01*
X135975001Y-124399986D01*
X135985494Y-124502697D01*
X136040641Y-124669119D01*
X136040643Y-124669124D01*
X136132684Y-124818345D01*
X136256654Y-124942315D01*
X136405875Y-125034356D01*
X136405880Y-125034358D01*
X136572302Y-125089505D01*
X136572309Y-125089506D01*
X136675019Y-125099999D01*
X136799999Y-125099999D01*
X136800000Y-125099998D01*
X136800000Y-123950000D01*
X135975001Y-123950000D01*
X135975001Y-124399986D01*
X115500500Y-124399986D01*
X115500500Y-123000013D01*
X135975000Y-123000013D01*
X135975000Y-123450000D01*
X136800000Y-123450000D01*
X136800000Y-122300000D01*
X136675027Y-122300000D01*
X136675012Y-122300001D01*
X136572302Y-122310494D01*
X136405880Y-122365641D01*
X136405875Y-122365643D01*
X136256654Y-122457684D01*
X136132684Y-122581654D01*
X136040643Y-122730875D01*
X136040641Y-122730880D01*
X135985494Y-122897302D01*
X135985493Y-122897309D01*
X135975000Y-123000013D01*
X115500500Y-123000013D01*
X115500500Y-117377973D01*
X119349500Y-117377973D01*
X119349500Y-117622026D01*
X119386426Y-117855170D01*
X119387679Y-117863076D01*
X119463096Y-118095185D01*
X119555806Y-118277140D01*
X119573896Y-118312642D01*
X119717339Y-118510076D01*
X119717343Y-118510081D01*
X119717345Y-118510083D01*
X119889917Y-118682655D01*
X120051308Y-118799912D01*
X120066097Y-118812544D01*
X120729765Y-119476212D01*
X120687708Y-119487482D01*
X120562292Y-119559890D01*
X120459890Y-119662292D01*
X120387482Y-119787708D01*
X120376212Y-119829765D01*
X119641544Y-119095097D01*
X119574319Y-119187626D01*
X119463560Y-119405001D01*
X119388165Y-119637040D01*
X119350000Y-119878006D01*
X119350000Y-120121993D01*
X119388165Y-120362959D01*
X119463560Y-120594998D01*
X119574323Y-120812380D01*
X119641543Y-120904901D01*
X119641544Y-120904902D01*
X120376212Y-120170234D01*
X120387482Y-120212292D01*
X120459890Y-120337708D01*
X120562292Y-120440110D01*
X120687708Y-120512518D01*
X120729765Y-120523787D01*
X119995096Y-121258454D01*
X119995097Y-121258456D01*
X120087619Y-121325676D01*
X120305001Y-121436439D01*
X120537040Y-121511834D01*
X120778007Y-121550000D01*
X121021993Y-121550000D01*
X121262959Y-121511834D01*
X121494998Y-121436439D01*
X121712377Y-121325678D01*
X121804901Y-121258454D01*
X121804902Y-121258454D01*
X121070234Y-120523787D01*
X121112292Y-120512518D01*
X121237708Y-120440110D01*
X121340110Y-120337708D01*
X121412518Y-120212292D01*
X121423787Y-120170234D01*
X122158454Y-120904902D01*
X122158454Y-120904901D01*
X122225678Y-120812377D01*
X122336439Y-120594998D01*
X122411834Y-120362959D01*
X122450000Y-120121993D01*
X122450000Y-119999983D01*
X127649500Y-119999983D01*
X127649500Y-121400001D01*
X127649501Y-121400018D01*
X127660000Y-121502796D01*
X127660001Y-121502799D01*
X127715185Y-121669331D01*
X127715187Y-121669336D01*
X127732801Y-121697893D01*
X127807288Y-121818656D01*
X127931344Y-121942712D01*
X128080666Y-122034814D01*
X128247203Y-122089999D01*
X128349991Y-122100500D01*
X129100008Y-122100499D01*
X129100016Y-122100498D01*
X129100019Y-122100498D01*
X129156302Y-122094748D01*
X129202797Y-122089999D01*
X129369334Y-122034814D01*
X129518656Y-121942712D01*
X129642712Y-121818656D01*
X129734814Y-121669334D01*
X129734815Y-121669331D01*
X129738605Y-121663187D01*
X129740261Y-121664208D01*
X129779939Y-121619152D01*
X129846142Y-121600000D01*
X130554413Y-121600000D01*
X130621452Y-121619685D01*
X130660171Y-121664010D01*
X130661851Y-121662975D01*
X130757684Y-121818345D01*
X130881654Y-121942315D01*
X131030875Y-122034356D01*
X131030880Y-122034358D01*
X131197302Y-122089505D01*
X131197309Y-122089506D01*
X131300019Y-122099999D01*
X131424999Y-122099999D01*
X131925000Y-122099999D01*
X132049972Y-122099999D01*
X132049986Y-122099998D01*
X132152697Y-122089505D01*
X132319119Y-122034358D01*
X132319124Y-122034356D01*
X132468345Y-121942315D01*
X132592315Y-121818345D01*
X132684356Y-121669124D01*
X132684358Y-121669119D01*
X132739505Y-121502697D01*
X132739506Y-121502690D01*
X132749999Y-121399986D01*
X132750000Y-121399973D01*
X132750000Y-120950000D01*
X131925000Y-120950000D01*
X131925000Y-122099999D01*
X131424999Y-122099999D01*
X131425000Y-122099998D01*
X131425000Y-120450000D01*
X131925000Y-120450000D01*
X132749999Y-120450000D01*
X132749999Y-120000028D01*
X132749998Y-120000013D01*
X132739505Y-119897302D01*
X132684358Y-119730880D01*
X132684356Y-119730875D01*
X132592315Y-119581654D01*
X132468345Y-119457684D01*
X132319124Y-119365643D01*
X132319119Y-119365641D01*
X132152697Y-119310494D01*
X132152690Y-119310493D01*
X132049986Y-119300000D01*
X131925000Y-119300000D01*
X131925000Y-120450000D01*
X131425000Y-120450000D01*
X131425000Y-119300000D01*
X131300027Y-119300000D01*
X131300012Y-119300001D01*
X131197302Y-119310494D01*
X131030880Y-119365641D01*
X131030875Y-119365643D01*
X130881654Y-119457684D01*
X130757683Y-119581655D01*
X130757680Y-119581659D01*
X130671674Y-119721097D01*
X130619726Y-119767822D01*
X130566136Y-119780000D01*
X129834450Y-119780000D01*
X129828071Y-119778127D01*
X129821534Y-119779325D01*
X129794967Y-119768406D01*
X129767411Y-119760315D01*
X129761544Y-119754670D01*
X129756909Y-119752765D01*
X129741775Y-119735647D01*
X129732788Y-119726999D01*
X129730769Y-119724108D01*
X129642712Y-119581344D01*
X129604092Y-119542724D01*
X129597838Y-119533769D01*
X129590052Y-119510588D01*
X129578334Y-119489128D01*
X129576210Y-119469377D01*
X129575592Y-119467536D01*
X129575886Y-119466367D01*
X129575500Y-119462770D01*
X129575500Y-118691195D01*
X129593960Y-118626099D01*
X129659814Y-118519334D01*
X129714999Y-118352797D01*
X129725500Y-118250009D01*
X129725500Y-118249500D01*
X129725531Y-118249394D01*
X129725660Y-118246861D01*
X129725820Y-118246869D01*
X129725821Y-118246868D01*
X129725844Y-118246870D01*
X129726265Y-118246891D01*
X129745185Y-118182461D01*
X129797989Y-118136706D01*
X129849500Y-118125500D01*
X130454217Y-118125500D01*
X130521256Y-118145185D01*
X130541893Y-118161814D01*
X130626938Y-118246859D01*
X130657219Y-118277140D01*
X130821079Y-118386628D01*
X130821092Y-118386635D01*
X131003160Y-118462049D01*
X131003165Y-118462051D01*
X131003169Y-118462051D01*
X131003170Y-118462052D01*
X131196456Y-118500500D01*
X131196459Y-118500500D01*
X131393543Y-118500500D01*
X131523582Y-118474632D01*
X131586835Y-118462051D01*
X131742635Y-118397517D01*
X131768907Y-118386635D01*
X131768907Y-118386634D01*
X131768914Y-118386632D01*
X131932782Y-118277139D01*
X132072139Y-118137782D01*
X132181632Y-117973914D01*
X132257051Y-117791835D01*
X132283780Y-117657460D01*
X132295500Y-117598543D01*
X132295500Y-117401456D01*
X132257052Y-117208170D01*
X132257051Y-117208169D01*
X132257051Y-117208165D01*
X132238047Y-117162284D01*
X132181635Y-117026092D01*
X132181628Y-117026079D01*
X132072139Y-116862218D01*
X132072136Y-116862214D01*
X131961819Y-116751897D01*
X131928334Y-116690574D01*
X131925500Y-116664216D01*
X131925500Y-116180034D01*
X131945185Y-116112995D01*
X131997989Y-116067240D01*
X132036897Y-116056676D01*
X132077797Y-116052499D01*
X132244334Y-115997314D01*
X132393656Y-115905212D01*
X132517712Y-115781156D01*
X132609814Y-115631834D01*
X132664999Y-115465297D01*
X132675500Y-115362509D01*
X132675499Y-114637492D01*
X132671383Y-114597203D01*
X132664999Y-114534703D01*
X132664998Y-114534700D01*
X132630595Y-114430880D01*
X132609814Y-114368166D01*
X132517712Y-114218844D01*
X132393656Y-114094788D01*
X132268903Y-114017840D01*
X132222179Y-113965892D01*
X132210000Y-113912301D01*
X132210000Y-113162110D01*
X132229685Y-113095071D01*
X132268904Y-113056571D01*
X132393343Y-112979817D01*
X132517315Y-112855845D01*
X132609356Y-112706624D01*
X132609358Y-112706619D01*
X132664505Y-112540197D01*
X132664506Y-112540190D01*
X132674999Y-112437486D01*
X132675000Y-112437473D01*
X132675000Y-112325000D01*
X129925001Y-112325000D01*
X129925001Y-112437486D01*
X129935494Y-112540197D01*
X129990641Y-112706619D01*
X129990643Y-112706624D01*
X130082684Y-112855845D01*
X130206656Y-112979817D01*
X130331096Y-113056571D01*
X130377821Y-113108518D01*
X130390000Y-113162110D01*
X130390000Y-113912301D01*
X130370315Y-113979340D01*
X130331097Y-114017840D01*
X130206342Y-114094789D01*
X130082289Y-114218842D01*
X129990187Y-114368163D01*
X129990185Y-114368168D01*
X129969475Y-114430668D01*
X129935001Y-114534703D01*
X129935001Y-114534704D01*
X129935000Y-114534704D01*
X129924500Y-114637483D01*
X129924500Y-115362501D01*
X129924501Y-115362519D01*
X129935000Y-115465296D01*
X129935001Y-115465299D01*
X129978743Y-115597302D01*
X129990186Y-115631834D01*
X130082288Y-115781156D01*
X130206344Y-115905212D01*
X130355666Y-115997314D01*
X130522203Y-116052499D01*
X130563103Y-116056677D01*
X130627793Y-116083073D01*
X130667945Y-116140253D01*
X130674500Y-116180035D01*
X130674500Y-116654217D01*
X130665855Y-116683657D01*
X130659332Y-116713644D01*
X130655577Y-116718659D01*
X130654815Y-116721256D01*
X130638181Y-116741898D01*
X130541898Y-116838181D01*
X130480575Y-116871666D01*
X130454217Y-116874500D01*
X129849499Y-116874500D01*
X129782460Y-116854815D01*
X129736705Y-116802011D01*
X129726068Y-116753120D01*
X129725659Y-116753141D01*
X129725532Y-116750653D01*
X129725499Y-116750500D01*
X129725499Y-116749998D01*
X129725498Y-116749981D01*
X129714999Y-116647203D01*
X129714998Y-116647200D01*
X129682789Y-116550000D01*
X129659814Y-116480666D01*
X129567712Y-116331344D01*
X129443656Y-116207288D01*
X129294334Y-116115186D01*
X129127797Y-116060001D01*
X129127795Y-116060000D01*
X129025010Y-116049500D01*
X128374998Y-116049500D01*
X128374980Y-116049501D01*
X128272203Y-116060000D01*
X128272200Y-116060001D01*
X128105668Y-116115185D01*
X128105663Y-116115187D01*
X127956342Y-116207289D01*
X127832289Y-116331342D01*
X127740187Y-116480663D01*
X127740185Y-116480668D01*
X127727597Y-116518656D01*
X127685001Y-116647203D01*
X127685001Y-116647204D01*
X127685000Y-116647204D01*
X127674500Y-116749983D01*
X127674500Y-118250001D01*
X127674501Y-118250018D01*
X127685000Y-118352796D01*
X127685001Y-118352799D01*
X127740185Y-118519331D01*
X127740186Y-118519334D01*
X127806039Y-118626099D01*
X127824500Y-118691195D01*
X127824500Y-119518272D01*
X127806039Y-119583368D01*
X127715189Y-119730659D01*
X127715185Y-119730668D01*
X127707863Y-119752765D01*
X127660001Y-119897203D01*
X127660001Y-119897204D01*
X127660000Y-119897204D01*
X127649500Y-119999983D01*
X122450000Y-119999983D01*
X122450000Y-119878006D01*
X122411834Y-119637040D01*
X122336439Y-119405001D01*
X122225676Y-119187619D01*
X122158456Y-119095097D01*
X122158454Y-119095096D01*
X121423787Y-119829764D01*
X121412518Y-119787708D01*
X121340110Y-119662292D01*
X121237708Y-119559890D01*
X121112292Y-119487482D01*
X121070232Y-119476212D01*
X121733901Y-118812544D01*
X121748684Y-118799917D01*
X121910083Y-118682655D01*
X122082655Y-118510083D01*
X122226106Y-118312639D01*
X122286961Y-118193205D01*
X122334936Y-118142409D01*
X122397446Y-118125500D01*
X124400501Y-118125500D01*
X124467540Y-118145185D01*
X124513295Y-118197989D01*
X124523931Y-118246879D01*
X124524341Y-118246859D01*
X124524467Y-118249346D01*
X124524501Y-118249500D01*
X124524501Y-118250018D01*
X124535000Y-118352796D01*
X124535001Y-118352799D01*
X124590185Y-118519331D01*
X124590186Y-118519334D01*
X124682288Y-118668656D01*
X124806344Y-118792712D01*
X124955666Y-118884814D01*
X125122203Y-118939999D01*
X125224991Y-118950500D01*
X125875008Y-118950499D01*
X125875016Y-118950498D01*
X125875019Y-118950498D01*
X125931302Y-118944748D01*
X125977797Y-118939999D01*
X126144334Y-118884814D01*
X126293656Y-118792712D01*
X126417712Y-118668656D01*
X126509814Y-118519334D01*
X126564999Y-118352797D01*
X126575500Y-118250009D01*
X126575499Y-116749992D01*
X126572230Y-116717995D01*
X126564999Y-116647203D01*
X126564998Y-116647200D01*
X126532789Y-116550000D01*
X126509814Y-116480666D01*
X126417712Y-116331344D01*
X126293656Y-116207288D01*
X126144334Y-116115186D01*
X125977797Y-116060001D01*
X125977795Y-116060000D01*
X125875010Y-116049500D01*
X125224998Y-116049500D01*
X125224980Y-116049501D01*
X125122203Y-116060000D01*
X125122200Y-116060001D01*
X124955668Y-116115185D01*
X124955663Y-116115187D01*
X124806342Y-116207289D01*
X124682289Y-116331342D01*
X124590187Y-116480663D01*
X124590185Y-116480668D01*
X124577597Y-116518656D01*
X124535001Y-116647203D01*
X124535001Y-116647204D01*
X124535000Y-116647204D01*
X124524500Y-116749983D01*
X124524500Y-116750500D01*
X124524468Y-116750605D01*
X124524340Y-116753139D01*
X124524179Y-116753130D01*
X124524179Y-116753132D01*
X124524155Y-116753129D01*
X124523734Y-116753108D01*
X124504815Y-116817539D01*
X124452011Y-116863294D01*
X124400500Y-116874500D01*
X122397446Y-116874500D01*
X122330407Y-116854815D01*
X122286961Y-116806795D01*
X122269388Y-116772308D01*
X122226106Y-116687361D01*
X122103536Y-116518657D01*
X122082660Y-116489923D01*
X122082656Y-116489918D01*
X121910081Y-116317343D01*
X121910076Y-116317339D01*
X121712642Y-116173896D01*
X121712641Y-116173895D01*
X121712639Y-116173894D01*
X121495185Y-116063096D01*
X121263076Y-115987679D01*
X121263074Y-115987678D01*
X121263072Y-115987678D01*
X121094769Y-115961021D01*
X121022027Y-115949500D01*
X120777973Y-115949500D01*
X120722093Y-115958350D01*
X120536927Y-115987678D01*
X120536924Y-115987679D01*
X120305111Y-116063000D01*
X120304812Y-116063097D01*
X120087357Y-116173896D01*
X119889923Y-116317339D01*
X119889918Y-116317343D01*
X119717343Y-116489918D01*
X119717339Y-116489923D01*
X119573896Y-116687357D01*
X119463097Y-116904812D01*
X119387678Y-117136927D01*
X119349500Y-117377973D01*
X115500500Y-117377973D01*
X115500500Y-111712513D01*
X129925000Y-111712513D01*
X129925000Y-111825000D01*
X131050000Y-111825000D01*
X131550000Y-111825000D01*
X132674999Y-111825000D01*
X132674999Y-111712528D01*
X132674998Y-111712513D01*
X132664505Y-111609802D01*
X132609358Y-111443380D01*
X132609356Y-111443375D01*
X132517315Y-111294154D01*
X132393345Y-111170184D01*
X132244124Y-111078143D01*
X132244119Y-111078141D01*
X132077697Y-111022994D01*
X132077690Y-111022993D01*
X131974986Y-111012500D01*
X131550000Y-111012500D01*
X131550000Y-111825000D01*
X131050000Y-111825000D01*
X131050000Y-111012500D01*
X130625028Y-111012500D01*
X130625012Y-111012501D01*
X130522302Y-111022994D01*
X130355880Y-111078141D01*
X130355875Y-111078143D01*
X130206654Y-111170184D01*
X130082684Y-111294154D01*
X129990643Y-111443375D01*
X129990641Y-111443380D01*
X129935494Y-111609802D01*
X129935493Y-111609809D01*
X129925000Y-111712513D01*
X115500500Y-111712513D01*
X115500500Y-97488394D01*
X129724500Y-97488394D01*
X129724500Y-97498894D01*
X129724500Y-103261611D01*
X129748535Y-103382444D01*
X129748540Y-103382461D01*
X129795685Y-103496280D01*
X129795687Y-103496283D01*
X129795688Y-103496286D01*
X129829915Y-103547509D01*
X129864142Y-103598733D01*
X129951267Y-103685858D01*
X129951270Y-103685860D01*
X129958554Y-103693144D01*
X131467619Y-105202209D01*
X131501104Y-105263532D01*
X131502411Y-105309287D01*
X131479500Y-105453944D01*
X131479500Y-105646054D01*
X131509553Y-105835802D01*
X131568916Y-106018506D01*
X131649744Y-106177139D01*
X131656135Y-106189681D01*
X131769055Y-106345102D01*
X131904898Y-106480945D01*
X132023386Y-106567031D01*
X132066051Y-106622359D01*
X132072312Y-106655702D01*
X132073903Y-106655546D01*
X132074500Y-106661611D01*
X132098535Y-106782444D01*
X132098540Y-106782461D01*
X132145685Y-106896280D01*
X132145687Y-106896283D01*
X132145688Y-106896286D01*
X132179915Y-106947509D01*
X132214142Y-106998733D01*
X132301267Y-107085858D01*
X132301270Y-107085860D01*
X132308554Y-107093144D01*
X139201840Y-113986430D01*
X139235325Y-114047753D01*
X139230341Y-114117445D01*
X139201840Y-114161792D01*
X139082289Y-114281342D01*
X138990187Y-114430663D01*
X138990185Y-114430668D01*
X138974560Y-114477822D01*
X138935001Y-114597203D01*
X138935001Y-114597204D01*
X138935000Y-114597204D01*
X138924500Y-114699983D01*
X138924500Y-116100001D01*
X138924501Y-116100018D01*
X138935000Y-116202796D01*
X138935001Y-116202799D01*
X138977597Y-116331342D01*
X138990186Y-116369334D01*
X139082287Y-116518655D01*
X139082289Y-116518657D01*
X139211451Y-116647819D01*
X139209559Y-116649710D01*
X139242774Y-116696583D01*
X139249500Y-116736867D01*
X139249500Y-117855170D01*
X139244576Y-117889765D01*
X139202402Y-118034926D01*
X139202401Y-118034932D01*
X139199500Y-118071798D01*
X139199500Y-119228201D01*
X139202401Y-119265067D01*
X139202402Y-119265073D01*
X139248254Y-119422893D01*
X139248255Y-119422896D01*
X139248256Y-119422898D01*
X139285681Y-119486181D01*
X139331917Y-119564362D01*
X139331923Y-119564370D01*
X139448129Y-119680576D01*
X139448140Y-119680585D01*
X139448455Y-119680771D01*
X139448650Y-119680980D01*
X139454298Y-119685361D01*
X139453591Y-119686272D01*
X139496136Y-119731843D01*
X139508637Y-119800585D01*
X139481988Y-119865173D01*
X139454078Y-119889356D01*
X139454298Y-119889639D01*
X139449092Y-119893676D01*
X139448455Y-119894229D01*
X139448140Y-119894414D01*
X139448129Y-119894423D01*
X139331923Y-120010629D01*
X139331917Y-120010637D01*
X139248255Y-120152103D01*
X139248254Y-120152106D01*
X139202402Y-120309926D01*
X139202401Y-120309932D01*
X139199500Y-120346798D01*
X139199500Y-121503201D01*
X139202401Y-121540067D01*
X139202402Y-121540073D01*
X139244576Y-121685233D01*
X139249500Y-121719828D01*
X139249500Y-122363132D01*
X139229815Y-122430171D01*
X139210616Y-122451346D01*
X139211451Y-122452181D01*
X139082288Y-122581343D01*
X139082287Y-122581344D01*
X139022208Y-122678749D01*
X139002641Y-122710474D01*
X138989921Y-122731096D01*
X138937973Y-122777821D01*
X138884382Y-122790000D01*
X138165032Y-122790000D01*
X138097993Y-122770315D01*
X138059494Y-122731097D01*
X137967319Y-122581659D01*
X137967316Y-122581655D01*
X137843345Y-122457684D01*
X137694124Y-122365643D01*
X137694119Y-122365641D01*
X137527697Y-122310494D01*
X137527690Y-122310493D01*
X137424986Y-122300000D01*
X137300000Y-122300000D01*
X137300000Y-125099999D01*
X137424972Y-125099999D01*
X137424986Y-125099998D01*
X137527697Y-125089505D01*
X137694119Y-125034358D01*
X137694124Y-125034356D01*
X137843345Y-124942315D01*
X137967316Y-124818344D01*
X137967319Y-124818340D01*
X138059494Y-124668903D01*
X138111441Y-124622178D01*
X138165032Y-124610000D01*
X138884382Y-124610000D01*
X138951421Y-124629685D01*
X138989921Y-124668904D01*
X138990185Y-124669333D01*
X138990186Y-124669334D01*
X139022077Y-124721038D01*
X139082095Y-124818344D01*
X139082288Y-124818656D01*
X139206344Y-124942712D01*
X139355666Y-125034814D01*
X139522203Y-125089999D01*
X139624991Y-125100500D01*
X140375008Y-125100499D01*
X140375016Y-125100498D01*
X140375019Y-125100498D01*
X140431302Y-125094748D01*
X140477797Y-125089999D01*
X140644334Y-125034814D01*
X140793656Y-124942712D01*
X140917712Y-124818656D01*
X141009814Y-124669334D01*
X141054164Y-124535494D01*
X141093936Y-124478051D01*
X141158451Y-124451228D01*
X141171869Y-124450500D01*
X145023915Y-124450500D01*
X145090954Y-124470185D01*
X145136709Y-124522989D01*
X145141618Y-124535489D01*
X145162241Y-124597723D01*
X145177685Y-124644331D01*
X145177687Y-124644336D01*
X145193104Y-124669331D01*
X145269788Y-124793656D01*
X145393844Y-124917712D01*
X145543166Y-125009814D01*
X145709703Y-125064999D01*
X145812491Y-125075500D01*
X146537508Y-125075499D01*
X146537516Y-125075498D01*
X146537519Y-125075498D01*
X146593802Y-125069748D01*
X146640297Y-125064999D01*
X146806834Y-125009814D01*
X146956156Y-124917712D01*
X147080212Y-124793656D01*
X147172314Y-124644334D01*
X147227499Y-124477797D01*
X147238000Y-124375009D01*
X147237999Y-123024992D01*
X147237319Y-123018340D01*
X147227499Y-122922203D01*
X147227498Y-122922200D01*
X147219215Y-122897203D01*
X147172314Y-122755666D01*
X147080212Y-122606344D01*
X146956156Y-122482288D01*
X146806834Y-122390186D01*
X146640297Y-122335001D01*
X146640295Y-122335000D01*
X146537510Y-122324500D01*
X145812498Y-122324500D01*
X145812480Y-122324501D01*
X145709703Y-122335000D01*
X145709700Y-122335001D01*
X145543168Y-122390185D01*
X145543163Y-122390187D01*
X145393842Y-122482289D01*
X145269789Y-122606342D01*
X145177687Y-122755663D01*
X145177685Y-122755668D01*
X145166309Y-122790000D01*
X145153159Y-122829685D01*
X145141621Y-122864504D01*
X145101848Y-122921949D01*
X145037333Y-122948772D01*
X145023915Y-122949500D01*
X141171870Y-122949500D01*
X141104831Y-122929815D01*
X141059076Y-122877011D01*
X141054164Y-122864505D01*
X141048862Y-122848506D01*
X141009814Y-122730666D01*
X140917712Y-122581344D01*
X140793656Y-122457288D01*
X140788549Y-122452181D01*
X140790435Y-122450294D01*
X140757212Y-122403375D01*
X140750500Y-122363132D01*
X140750500Y-121719828D01*
X140751047Y-121717962D01*
X140750557Y-121716082D01*
X140755424Y-121685233D01*
X140797597Y-121540073D01*
X140797598Y-121540067D01*
X140800499Y-121503201D01*
X140800500Y-121503194D01*
X140800500Y-120346806D01*
X140797598Y-120309931D01*
X140792615Y-120292780D01*
X140751745Y-120152106D01*
X140751745Y-120152105D01*
X140751744Y-120152103D01*
X140751744Y-120152102D01*
X140721879Y-120101603D01*
X140717267Y-120093804D01*
X140700000Y-120030684D01*
X140700000Y-119765202D01*
X140673765Y-119740961D01*
X140637887Y-119681007D01*
X140640118Y-119611173D01*
X140664533Y-119571488D01*
X140663298Y-119570531D01*
X140668075Y-119564370D01*
X140668081Y-119564365D01*
X140751744Y-119422898D01*
X140797598Y-119265069D01*
X140800500Y-119228194D01*
X140800500Y-118071806D01*
X140800499Y-118071798D01*
X141099500Y-118071798D01*
X141099500Y-119228201D01*
X141102401Y-119265067D01*
X141102402Y-119265073D01*
X141148254Y-119422893D01*
X141148255Y-119422896D01*
X141148256Y-119422898D01*
X141185681Y-119486181D01*
X141231917Y-119564362D01*
X141236702Y-119570531D01*
X141235018Y-119571836D01*
X141263246Y-119623531D01*
X141258262Y-119693223D01*
X141226234Y-119740961D01*
X141200000Y-119765202D01*
X141200000Y-120030684D01*
X141182733Y-120093804D01*
X141148254Y-120152105D01*
X141148254Y-120152106D01*
X141102402Y-120309926D01*
X141102401Y-120309932D01*
X141099500Y-120346798D01*
X141099500Y-121503201D01*
X141102401Y-121540067D01*
X141102402Y-121540073D01*
X141148254Y-121697893D01*
X141148255Y-121697896D01*
X141148256Y-121697898D01*
X141182732Y-121756194D01*
X141200000Y-121819314D01*
X141200000Y-122084795D01*
X141200001Y-122084795D01*
X141202486Y-122084600D01*
X141360197Y-122038781D01*
X141361382Y-122038081D01*
X141362436Y-122037813D01*
X141367357Y-122035684D01*
X141367700Y-122036477D01*
X141429105Y-122020895D01*
X141482289Y-122036508D01*
X141482446Y-122036147D01*
X141485371Y-122037413D01*
X141487624Y-122038074D01*
X141489602Y-122039244D01*
X141489604Y-122039244D01*
X141489605Y-122039245D01*
X141647426Y-122085097D01*
X141647429Y-122085097D01*
X141647431Y-122085098D01*
X141684306Y-122088000D01*
X141684314Y-122088000D01*
X142115686Y-122088000D01*
X142115694Y-122088000D01*
X142152569Y-122085098D01*
X142152571Y-122085097D01*
X142152573Y-122085097D01*
X142194191Y-122073005D01*
X142310398Y-122039244D01*
X142451865Y-121955581D01*
X142568081Y-121839365D01*
X142575625Y-121826607D01*
X142626688Y-121778927D01*
X142695430Y-121766420D01*
X142751247Y-121786627D01*
X142826079Y-121836628D01*
X142826092Y-121836635D01*
X143008160Y-121912049D01*
X143008165Y-121912051D01*
X143008169Y-121912051D01*
X143008170Y-121912052D01*
X143201456Y-121950500D01*
X143201459Y-121950500D01*
X143398543Y-121950500D01*
X143528582Y-121924632D01*
X143591835Y-121912051D01*
X143773914Y-121836632D01*
X143937782Y-121727139D01*
X144077139Y-121587782D01*
X144186632Y-121423914D01*
X144262051Y-121241835D01*
X144290820Y-121097204D01*
X144300500Y-121048543D01*
X144300500Y-120851456D01*
X144262052Y-120658170D01*
X144262051Y-120658169D01*
X144262051Y-120658165D01*
X144235887Y-120594998D01*
X144186635Y-120476092D01*
X144186628Y-120476079D01*
X144077139Y-120312218D01*
X144077136Y-120312214D01*
X143937785Y-120172863D01*
X143937781Y-120172860D01*
X143773920Y-120063371D01*
X143773907Y-120063364D01*
X143591839Y-119987950D01*
X143591829Y-119987947D01*
X143398543Y-119949500D01*
X143398541Y-119949500D01*
X143201459Y-119949500D01*
X143201457Y-119949500D01*
X143008170Y-119987947D01*
X143008160Y-119987950D01*
X142826092Y-120063364D01*
X142826076Y-120063373D01*
X142772440Y-120099211D01*
X142705763Y-120120088D01*
X142638383Y-120101603D01*
X142596819Y-120059229D01*
X142568081Y-120010635D01*
X142568076Y-120010629D01*
X142451870Y-119894423D01*
X142451867Y-119894421D01*
X142451865Y-119894419D01*
X142451549Y-119894232D01*
X142451353Y-119894022D01*
X142445702Y-119889639D01*
X142446409Y-119888727D01*
X142403866Y-119843164D01*
X142391362Y-119774423D01*
X142418006Y-119709833D01*
X142445921Y-119685644D01*
X142445702Y-119685361D01*
X142450911Y-119681320D01*
X142451550Y-119680767D01*
X142451865Y-119680581D01*
X142568081Y-119564365D01*
X142651744Y-119422898D01*
X142697598Y-119265069D01*
X142700500Y-119228194D01*
X142700500Y-118171379D01*
X150999500Y-118171379D01*
X150999500Y-118603620D01*
X151033412Y-119034513D01*
X151033412Y-119034514D01*
X151057662Y-119187619D01*
X151101028Y-119461422D01*
X151201930Y-119881710D01*
X151236449Y-119987947D01*
X151335494Y-120292780D01*
X151421328Y-120500001D01*
X151500904Y-120692115D01*
X151682513Y-121048541D01*
X151697136Y-121077240D01*
X151697142Y-121077251D01*
X151922966Y-121445762D01*
X151922971Y-121445769D01*
X151922973Y-121445772D01*
X151998699Y-121550000D01*
X152177025Y-121795446D01*
X152177035Y-121795460D01*
X152428597Y-122089999D01*
X152457743Y-122124124D01*
X152763376Y-122429757D01*
X152763382Y-122429762D01*
X153092039Y-122710464D01*
X153092046Y-122710469D01*
X153441728Y-122964527D01*
X153441732Y-122964529D01*
X153441737Y-122964533D01*
X153810248Y-123190357D01*
X153810254Y-123190360D01*
X153810265Y-123190367D01*
X154195385Y-123386596D01*
X154594714Y-123552003D01*
X154594719Y-123552005D01*
X154699240Y-123585965D01*
X155005790Y-123685570D01*
X155426078Y-123786472D01*
X155852987Y-123854088D01*
X156283885Y-123888000D01*
X156283893Y-123888000D01*
X156716107Y-123888000D01*
X156716115Y-123888000D01*
X157147013Y-123854088D01*
X157573922Y-123786472D01*
X157994210Y-123685570D01*
X158405286Y-123552003D01*
X158804615Y-123386596D01*
X159189735Y-123190367D01*
X159558272Y-122964527D01*
X159907954Y-122710469D01*
X160236624Y-122429757D01*
X160542257Y-122124124D01*
X160822969Y-121795454D01*
X161077027Y-121445772D01*
X161302867Y-121077235D01*
X161499096Y-120692115D01*
X161664503Y-120292786D01*
X161798070Y-119881710D01*
X161898972Y-119461422D01*
X161966588Y-119034513D01*
X162000500Y-118603615D01*
X162000500Y-118171385D01*
X161966588Y-117740487D01*
X161898972Y-117313578D01*
X161798070Y-116893290D01*
X161676344Y-116518656D01*
X161664505Y-116482219D01*
X161663862Y-116480666D01*
X161499096Y-116082885D01*
X161302867Y-115697765D01*
X161262466Y-115631836D01*
X161077033Y-115329237D01*
X161077029Y-115329232D01*
X161077027Y-115329228D01*
X160822969Y-114979546D01*
X160822964Y-114979539D01*
X160542262Y-114650882D01*
X160542257Y-114650876D01*
X160236624Y-114345243D01*
X160162177Y-114281659D01*
X159907960Y-114064535D01*
X159907946Y-114064525D01*
X159558273Y-113810474D01*
X159558262Y-113810466D01*
X159189751Y-113584642D01*
X159189740Y-113584636D01*
X159189739Y-113584635D01*
X159189735Y-113584633D01*
X158804615Y-113388404D01*
X158676677Y-113335410D01*
X158405280Y-113222994D01*
X158112796Y-113127961D01*
X157994210Y-113089430D01*
X157573922Y-112988528D01*
X157147013Y-112920912D01*
X156716120Y-112887000D01*
X156716115Y-112887000D01*
X156283885Y-112887000D01*
X156283879Y-112887000D01*
X155852986Y-112920912D01*
X155852985Y-112920912D01*
X155426083Y-112988527D01*
X155426080Y-112988527D01*
X155426078Y-112988528D01*
X155275562Y-113024663D01*
X155005801Y-113089427D01*
X155005795Y-113089428D01*
X155005790Y-113089430D01*
X155005778Y-113089434D01*
X154594719Y-113222994D01*
X154195387Y-113388403D01*
X153810259Y-113584636D01*
X153810248Y-113584642D01*
X153441737Y-113810466D01*
X153441726Y-113810474D01*
X153092053Y-114064525D01*
X153092039Y-114064535D01*
X152763382Y-114345237D01*
X152763368Y-114345250D01*
X152457750Y-114650868D01*
X152457737Y-114650882D01*
X152177035Y-114979539D01*
X152177025Y-114979553D01*
X151922974Y-115329226D01*
X151922966Y-115329237D01*
X151697142Y-115697748D01*
X151697136Y-115697759D01*
X151500903Y-116082887D01*
X151335494Y-116482219D01*
X151201934Y-116893278D01*
X151201927Y-116893301D01*
X151101027Y-117313583D01*
X151033412Y-117740485D01*
X151033412Y-117740486D01*
X150999500Y-118171379D01*
X142700500Y-118171379D01*
X142700500Y-118071806D01*
X142697598Y-118034931D01*
X142679872Y-117973920D01*
X142651745Y-117877106D01*
X142651744Y-117877103D01*
X142651744Y-117877102D01*
X142568081Y-117735635D01*
X142568079Y-117735633D01*
X142568076Y-117735629D01*
X142451870Y-117619423D01*
X142451862Y-117619417D01*
X142310396Y-117535755D01*
X142310393Y-117535754D01*
X142152573Y-117489902D01*
X142152567Y-117489901D01*
X142115701Y-117487000D01*
X142115694Y-117487000D01*
X141684306Y-117487000D01*
X141684298Y-117487000D01*
X141647432Y-117489901D01*
X141647426Y-117489902D01*
X141489606Y-117535754D01*
X141489603Y-117535755D01*
X141348137Y-117619417D01*
X141348129Y-117619423D01*
X141231923Y-117735629D01*
X141231917Y-117735637D01*
X141148255Y-117877103D01*
X141148254Y-117877106D01*
X141102402Y-118034926D01*
X141102401Y-118034932D01*
X141099500Y-118071798D01*
X140800499Y-118071798D01*
X140797598Y-118034931D01*
X140794913Y-118025689D01*
X140755424Y-117889765D01*
X140750500Y-117855170D01*
X140750500Y-116736867D01*
X140770185Y-116669828D01*
X140789386Y-116648656D01*
X140788549Y-116647819D01*
X140794053Y-116642315D01*
X140917712Y-116518656D01*
X141009814Y-116369334D01*
X141009814Y-116369333D01*
X141010079Y-116368904D01*
X141062027Y-116322179D01*
X141115618Y-116310000D01*
X141834968Y-116310000D01*
X141902007Y-116329685D01*
X141940506Y-116368903D01*
X142032680Y-116518340D01*
X142032683Y-116518344D01*
X142156654Y-116642315D01*
X142305875Y-116734356D01*
X142305880Y-116734358D01*
X142472302Y-116789505D01*
X142472309Y-116789506D01*
X142575019Y-116799999D01*
X142699999Y-116799999D01*
X143200000Y-116799999D01*
X143324972Y-116799999D01*
X143324986Y-116799998D01*
X143427697Y-116789505D01*
X143594119Y-116734358D01*
X143594124Y-116734356D01*
X143743345Y-116642315D01*
X143867315Y-116518345D01*
X143959356Y-116369124D01*
X143959358Y-116369119D01*
X144014505Y-116202697D01*
X144014506Y-116202690D01*
X144024999Y-116099986D01*
X144025000Y-116099973D01*
X144025000Y-115650000D01*
X143200000Y-115650000D01*
X143200000Y-116799999D01*
X142699999Y-116799999D01*
X142700000Y-116799998D01*
X142700000Y-115150000D01*
X143200000Y-115150000D01*
X144024999Y-115150000D01*
X144024999Y-114700028D01*
X144024998Y-114700013D01*
X144014505Y-114597302D01*
X143959358Y-114430880D01*
X143959356Y-114430875D01*
X143867315Y-114281654D01*
X143743345Y-114157684D01*
X143594124Y-114065643D01*
X143594119Y-114065641D01*
X143427697Y-114010494D01*
X143427690Y-114010493D01*
X143324986Y-114000000D01*
X143200000Y-114000000D01*
X143200000Y-115150000D01*
X142700000Y-115150000D01*
X142700000Y-114000000D01*
X142575027Y-114000000D01*
X142575012Y-114000001D01*
X142472302Y-114010494D01*
X142305880Y-114065641D01*
X142305875Y-114065643D01*
X142156654Y-114157684D01*
X142032683Y-114281655D01*
X142032680Y-114281659D01*
X141940506Y-114431097D01*
X141888559Y-114477822D01*
X141834968Y-114490000D01*
X141115618Y-114490000D01*
X141048579Y-114470315D01*
X141010079Y-114431096D01*
X140988675Y-114396395D01*
X140917712Y-114281344D01*
X140793656Y-114157288D01*
X140684402Y-114089900D01*
X140637679Y-114037953D01*
X140625500Y-113984362D01*
X140625500Y-113838396D01*
X140625500Y-113838394D01*
X140601463Y-113717548D01*
X140587652Y-113684207D01*
X140554312Y-113603714D01*
X140520084Y-113552490D01*
X140485858Y-113501267D01*
X140485856Y-113501264D01*
X140395637Y-113411045D01*
X140395606Y-113411016D01*
X133567999Y-106583409D01*
X133534514Y-106522086D01*
X133539498Y-106452394D01*
X133567995Y-106408051D01*
X133630945Y-106345102D01*
X133743865Y-106189681D01*
X133831082Y-106018509D01*
X133890447Y-105835801D01*
X133920500Y-105646055D01*
X133920500Y-105453945D01*
X133890447Y-105264199D01*
X133831082Y-105081491D01*
X133743865Y-104910319D01*
X133630945Y-104754898D01*
X133495102Y-104619055D01*
X133339681Y-104506135D01*
X133207618Y-104438845D01*
X133168504Y-104418915D01*
X133103919Y-104397931D01*
X133046243Y-104358494D01*
X133019044Y-104294136D01*
X133030958Y-104225289D01*
X133078202Y-104173813D01*
X133103919Y-104162069D01*
X133168504Y-104141084D01*
X133168506Y-104141082D01*
X133168509Y-104141082D01*
X133339681Y-104053865D01*
X133495102Y-103940945D01*
X133630945Y-103805102D01*
X133717031Y-103686615D01*
X133772361Y-103643949D01*
X133817349Y-103635500D01*
X134951607Y-103635500D01*
X135012029Y-103623481D01*
X135072452Y-103611463D01*
X135105792Y-103597652D01*
X135186286Y-103564312D01*
X135237509Y-103530084D01*
X135288733Y-103495858D01*
X135375858Y-103408733D01*
X135375859Y-103408731D01*
X135382925Y-103401665D01*
X135382927Y-103401661D01*
X135872771Y-102911819D01*
X135899698Y-102897115D01*
X135925517Y-102880523D01*
X135931717Y-102879631D01*
X135934094Y-102878334D01*
X135960452Y-102875500D01*
X136194965Y-102875500D01*
X136262004Y-102895185D01*
X136307759Y-102947989D01*
X136318323Y-102986898D01*
X136322501Y-103027797D01*
X136322501Y-103027799D01*
X136359149Y-103138393D01*
X136377686Y-103194334D01*
X136469788Y-103343656D01*
X136469789Y-103343657D01*
X136469790Y-103343658D01*
X136472766Y-103347422D01*
X136498907Y-103412217D01*
X136499500Y-103424333D01*
X136499500Y-104137770D01*
X136479815Y-104204809D01*
X136463181Y-104225451D01*
X136457289Y-104231342D01*
X136365187Y-104380663D01*
X136365185Y-104380668D01*
X136349560Y-104427822D01*
X136310001Y-104547203D01*
X136310001Y-104547204D01*
X136310000Y-104547204D01*
X136299500Y-104649983D01*
X136299500Y-106050001D01*
X136299501Y-106050018D01*
X136310000Y-106152796D01*
X136310001Y-106152799D01*
X136365185Y-106319331D01*
X136365187Y-106319336D01*
X136381080Y-106345102D01*
X136457288Y-106468656D01*
X136581344Y-106592712D01*
X136730666Y-106684814D01*
X136897203Y-106739999D01*
X136999991Y-106750500D01*
X137750008Y-106750499D01*
X137750016Y-106750498D01*
X137750019Y-106750498D01*
X137806302Y-106744748D01*
X137852797Y-106739999D01*
X138019334Y-106684814D01*
X138168656Y-106592712D01*
X138292712Y-106468656D01*
X138384814Y-106319334D01*
X138384814Y-106319333D01*
X138385079Y-106318904D01*
X138437027Y-106272179D01*
X138490618Y-106260000D01*
X139209968Y-106260000D01*
X139277007Y-106279685D01*
X139315506Y-106318903D01*
X139407680Y-106468340D01*
X139407683Y-106468344D01*
X139531654Y-106592315D01*
X139680875Y-106684356D01*
X139680880Y-106684358D01*
X139847302Y-106739505D01*
X139847309Y-106739506D01*
X139950019Y-106749999D01*
X140074999Y-106749999D01*
X140575000Y-106749999D01*
X140699972Y-106749999D01*
X140699986Y-106749998D01*
X140802697Y-106739505D01*
X140969119Y-106684358D01*
X140969124Y-106684356D01*
X141118345Y-106592315D01*
X141242315Y-106468345D01*
X141334356Y-106319124D01*
X141334358Y-106319119D01*
X141389505Y-106152697D01*
X141389506Y-106152690D01*
X141399999Y-106049986D01*
X141400000Y-106049973D01*
X141400000Y-105600000D01*
X140575000Y-105600000D01*
X140575000Y-106749999D01*
X140074999Y-106749999D01*
X140075000Y-106749998D01*
X140075000Y-105100000D01*
X140575000Y-105100000D01*
X141399999Y-105100000D01*
X141399999Y-104650028D01*
X141399998Y-104650013D01*
X141389505Y-104547302D01*
X141334358Y-104380880D01*
X141334356Y-104380875D01*
X141242315Y-104231654D01*
X141118345Y-104107684D01*
X140969124Y-104015643D01*
X140969119Y-104015641D01*
X140802697Y-103960494D01*
X140802690Y-103960493D01*
X140699986Y-103950000D01*
X140575000Y-103950000D01*
X140575000Y-105100000D01*
X140075000Y-105100000D01*
X140075000Y-103950000D01*
X139950027Y-103950000D01*
X139950012Y-103950001D01*
X139847302Y-103960494D01*
X139680880Y-104015641D01*
X139680875Y-104015643D01*
X139531654Y-104107684D01*
X139407683Y-104231655D01*
X139407680Y-104231659D01*
X139315506Y-104381097D01*
X139263559Y-104427822D01*
X139209968Y-104440000D01*
X138490618Y-104440000D01*
X138482304Y-104437558D01*
X138473737Y-104438845D01*
X138449292Y-104427865D01*
X138423579Y-104420315D01*
X138416235Y-104413017D01*
X138410001Y-104410217D01*
X138390569Y-104387511D01*
X138386723Y-104383689D01*
X138384876Y-104380854D01*
X138384814Y-104380666D01*
X138292712Y-104231344D01*
X138277667Y-104216299D01*
X138270605Y-104205459D01*
X138264125Y-104183891D01*
X138253334Y-104164128D01*
X138250628Y-104138963D01*
X138250502Y-104138543D01*
X138250560Y-104138337D01*
X138250500Y-104137770D01*
X138250500Y-103424333D01*
X138270185Y-103357294D01*
X138277234Y-103347422D01*
X138280205Y-103343662D01*
X138280212Y-103343656D01*
X138372314Y-103194334D01*
X138427499Y-103027797D01*
X138438000Y-102925009D01*
X138437999Y-101574992D01*
X138436919Y-101564424D01*
X138427499Y-101472203D01*
X138427498Y-101472200D01*
X138396121Y-101377511D01*
X138372314Y-101305666D01*
X138280212Y-101156344D01*
X138156156Y-101032288D01*
X138059402Y-100972610D01*
X138052578Y-100965023D01*
X138043297Y-100960785D01*
X138029608Y-100939485D01*
X138012679Y-100920663D01*
X138010034Y-100909027D01*
X138005523Y-100902007D01*
X138000500Y-100867072D01*
X138000500Y-100632927D01*
X138020185Y-100565888D01*
X138059401Y-100527390D01*
X138156156Y-100467712D01*
X138280212Y-100343656D01*
X138372314Y-100194334D01*
X138427499Y-100027797D01*
X138438000Y-99925009D01*
X138437999Y-98574992D01*
X138437998Y-98574983D01*
X139237000Y-98574983D01*
X139237000Y-99925001D01*
X139237001Y-99925018D01*
X139247500Y-100027796D01*
X139247501Y-100027799D01*
X139293864Y-100167710D01*
X139302686Y-100194334D01*
X139394788Y-100343656D01*
X139518844Y-100467712D01*
X139615597Y-100527389D01*
X139622419Y-100534974D01*
X139631703Y-100539214D01*
X139645390Y-100560512D01*
X139662321Y-100579335D01*
X139664965Y-100590971D01*
X139669477Y-100597992D01*
X139674500Y-100632927D01*
X139674500Y-100867072D01*
X139654815Y-100934111D01*
X139615598Y-100972609D01*
X139574478Y-100997973D01*
X139518842Y-101032289D01*
X139394789Y-101156342D01*
X139302687Y-101305663D01*
X139302685Y-101305668D01*
X139274849Y-101389670D01*
X139247501Y-101472203D01*
X139247501Y-101472204D01*
X139247500Y-101472204D01*
X139237000Y-101574983D01*
X139237000Y-102925001D01*
X139237001Y-102925018D01*
X139247500Y-103027796D01*
X139247501Y-103027799D01*
X139284149Y-103138393D01*
X139302686Y-103194334D01*
X139394788Y-103343656D01*
X139518844Y-103467712D01*
X139668166Y-103559814D01*
X139834703Y-103614999D01*
X139937491Y-103625500D01*
X140662508Y-103625499D01*
X140662516Y-103625498D01*
X140662519Y-103625498D01*
X140718802Y-103619748D01*
X140765297Y-103614999D01*
X140931834Y-103559814D01*
X141081156Y-103467712D01*
X141205212Y-103343656D01*
X141297314Y-103194334D01*
X141352499Y-103027797D01*
X141363000Y-102925009D01*
X141362999Y-101574992D01*
X141361919Y-101564424D01*
X141352499Y-101472203D01*
X141352498Y-101472200D01*
X141321121Y-101377511D01*
X141297314Y-101305666D01*
X141205212Y-101156344D01*
X141081156Y-101032288D01*
X140984402Y-100972610D01*
X140977578Y-100965023D01*
X140968297Y-100960785D01*
X140954608Y-100939485D01*
X140937679Y-100920663D01*
X140935034Y-100909027D01*
X140930523Y-100902007D01*
X140925500Y-100867072D01*
X140925500Y-100632927D01*
X140945185Y-100565888D01*
X140984401Y-100527390D01*
X141081156Y-100467712D01*
X141205212Y-100343656D01*
X141297314Y-100194334D01*
X141352499Y-100027797D01*
X141356677Y-99986896D01*
X141383073Y-99922207D01*
X141440253Y-99882055D01*
X141480035Y-99875500D01*
X141784362Y-99875500D01*
X141851401Y-99895185D01*
X141889899Y-99934401D01*
X141957288Y-100043656D01*
X142081344Y-100167712D01*
X142230666Y-100259814D01*
X142397203Y-100314999D01*
X142499991Y-100325500D01*
X142809217Y-100325499D01*
X142876256Y-100345183D01*
X142896898Y-100361818D01*
X144038181Y-101503101D01*
X144071666Y-101564424D01*
X144074500Y-101590782D01*
X144074500Y-102625001D01*
X144074501Y-102625019D01*
X144085000Y-102727796D01*
X144085001Y-102727799D01*
X144140185Y-102894331D01*
X144140187Y-102894336D01*
X144158243Y-102923610D01*
X144232288Y-103043656D01*
X144356344Y-103167712D01*
X144505666Y-103259814D01*
X144672203Y-103314999D01*
X144774991Y-103325500D01*
X145500008Y-103325499D01*
X145500016Y-103325498D01*
X145500019Y-103325498D01*
X145556302Y-103319748D01*
X145602797Y-103314999D01*
X145769334Y-103259814D01*
X145918656Y-103167712D01*
X146042712Y-103043656D01*
X146134814Y-102894334D01*
X146189999Y-102727797D01*
X146200500Y-102625009D01*
X146200499Y-101274992D01*
X146200498Y-101274983D01*
X146999500Y-101274983D01*
X146999500Y-102625001D01*
X146999501Y-102625018D01*
X147010000Y-102727796D01*
X147010001Y-102727799D01*
X147065185Y-102894331D01*
X147065187Y-102894336D01*
X147083243Y-102923610D01*
X147157288Y-103043656D01*
X147281344Y-103167712D01*
X147430666Y-103259814D01*
X147597203Y-103314999D01*
X147699991Y-103325500D01*
X148425008Y-103325499D01*
X148425016Y-103325498D01*
X148425019Y-103325498D01*
X148481302Y-103319748D01*
X148527797Y-103314999D01*
X148694334Y-103259814D01*
X148843656Y-103167712D01*
X148967712Y-103043656D01*
X148988839Y-103009402D01*
X148996426Y-103002578D01*
X149000665Y-102993297D01*
X149021964Y-102979608D01*
X149040787Y-102962679D01*
X149052422Y-102960034D01*
X149059443Y-102955523D01*
X149094378Y-102950500D01*
X149134218Y-102950500D01*
X149201257Y-102970185D01*
X149221899Y-102986819D01*
X152269735Y-106034655D01*
X152269764Y-106034686D01*
X152412217Y-106177139D01*
X152565689Y-106279685D01*
X152576086Y-106286632D01*
X152701052Y-106338394D01*
X152758164Y-106362051D01*
X152854812Y-106381275D01*
X152929329Y-106396098D01*
X152951458Y-106400500D01*
X152951459Y-106400500D01*
X157348542Y-106400500D01*
X157370814Y-106396069D01*
X157445188Y-106381275D01*
X157541836Y-106362051D01*
X157598948Y-106338394D01*
X157723914Y-106286632D01*
X157887782Y-106177139D01*
X158027139Y-106037782D01*
X158027139Y-106037780D01*
X158037347Y-106027573D01*
X158037348Y-106027570D01*
X159777140Y-104287781D01*
X159814640Y-104231659D01*
X159814850Y-104231345D01*
X159875161Y-104141082D01*
X159886632Y-104123914D01*
X159939961Y-103995165D01*
X159962051Y-103941836D01*
X160000500Y-103748540D01*
X160000500Y-103551460D01*
X160000500Y-102943214D01*
X160020185Y-102876175D01*
X160036819Y-102855533D01*
X160108286Y-102784066D01*
X160242717Y-102599038D01*
X160346548Y-102395258D01*
X160349069Y-102387500D01*
X160417221Y-102177749D01*
X160417221Y-102177748D01*
X160417222Y-102177745D01*
X160453000Y-101951854D01*
X160453000Y-101723146D01*
X160417222Y-101497255D01*
X160417221Y-101497251D01*
X160417221Y-101497250D01*
X160346549Y-101279744D01*
X160341128Y-101269104D01*
X160242717Y-101075962D01*
X160108286Y-100890934D01*
X159946566Y-100729214D01*
X159761538Y-100594783D01*
X159721732Y-100574501D01*
X159557755Y-100490950D01*
X159340248Y-100420278D01*
X159170826Y-100393444D01*
X159114354Y-100384500D01*
X158885646Y-100384500D01*
X158810349Y-100396426D01*
X158659753Y-100420278D01*
X158659750Y-100420278D01*
X158442244Y-100490950D01*
X158238461Y-100594783D01*
X158164051Y-100648846D01*
X158053434Y-100729214D01*
X158053432Y-100729216D01*
X158053431Y-100729216D01*
X157891718Y-100890930D01*
X157891709Y-100890940D01*
X157844943Y-100955307D01*
X157789613Y-100997973D01*
X157734898Y-101006039D01*
X157688651Y-101002399D01*
X157023787Y-101667264D01*
X157012518Y-101625208D01*
X156940110Y-101499792D01*
X156837708Y-101397390D01*
X156712292Y-101324982D01*
X156670233Y-101313712D01*
X157335099Y-100648847D01*
X157261276Y-100595211D01*
X157057568Y-100491417D01*
X156840124Y-100420765D01*
X156614313Y-100385000D01*
X156385687Y-100385000D01*
X156159875Y-100420765D01*
X156159874Y-100420765D01*
X155942431Y-100491417D01*
X155738719Y-100595213D01*
X155664900Y-100648846D01*
X155664899Y-100648847D01*
X156329765Y-101313712D01*
X156287708Y-101324982D01*
X156162292Y-101397390D01*
X156059890Y-101499792D01*
X155987482Y-101625208D01*
X155976212Y-101667265D01*
X155311347Y-101002399D01*
X155265101Y-101006039D01*
X155260270Y-101005024D01*
X155255536Y-101006421D01*
X155226415Y-100997911D01*
X155196724Y-100991674D01*
X155191911Y-100987829D01*
X155188471Y-100986824D01*
X155176390Y-100975429D01*
X155161767Y-100963747D01*
X155158230Y-100959676D01*
X155108286Y-100890934D01*
X155033741Y-100816389D01*
X155030894Y-100813112D01*
X155018075Y-100785140D01*
X155003334Y-100758144D01*
X155002607Y-100751389D01*
X155001785Y-100749594D01*
X155002143Y-100747074D01*
X155000500Y-100731786D01*
X155000500Y-99665782D01*
X155020185Y-99598743D01*
X155036819Y-99578101D01*
X156578101Y-98036819D01*
X156639424Y-98003334D01*
X156665782Y-98000500D01*
X157812837Y-98000500D01*
X157879876Y-98020185D01*
X157925631Y-98072989D01*
X157934089Y-98098541D01*
X157934999Y-98102792D01*
X157952744Y-98156342D01*
X157990186Y-98269334D01*
X158082288Y-98418656D01*
X158206344Y-98542712D01*
X158355666Y-98634814D01*
X158522203Y-98689999D01*
X158624991Y-98700500D01*
X159375008Y-98700499D01*
X159375016Y-98700498D01*
X159375019Y-98700498D01*
X159431302Y-98694748D01*
X159477797Y-98689999D01*
X159644334Y-98634814D01*
X159793656Y-98542712D01*
X159917712Y-98418656D01*
X160009814Y-98269334D01*
X160064999Y-98102797D01*
X160075500Y-98000009D01*
X160075499Y-96599992D01*
X160075498Y-96599983D01*
X160874500Y-96599983D01*
X160874500Y-98000001D01*
X160874501Y-98000018D01*
X160885000Y-98102796D01*
X160885001Y-98102799D01*
X160930527Y-98240185D01*
X160940186Y-98269334D01*
X161032288Y-98418656D01*
X161156344Y-98542712D01*
X161305666Y-98634814D01*
X161472203Y-98689999D01*
X161574991Y-98700500D01*
X161575469Y-98700499D01*
X161575568Y-98700529D01*
X161578139Y-98700660D01*
X161578130Y-98700820D01*
X161578132Y-98700821D01*
X161578129Y-98700844D01*
X161578107Y-98701273D01*
X161642511Y-98720165D01*
X161688280Y-98772957D01*
X161699500Y-98824499D01*
X161699500Y-99227111D01*
X161679815Y-99294150D01*
X161663181Y-99314792D01*
X161555485Y-99422487D01*
X161555485Y-99422488D01*
X161555483Y-99422490D01*
X161537096Y-99447798D01*
X161416657Y-99613566D01*
X161309433Y-99824003D01*
X161236446Y-100048631D01*
X161199500Y-100281902D01*
X161199500Y-100518097D01*
X161236446Y-100751368D01*
X161309433Y-100975996D01*
X161360369Y-101075962D01*
X161416657Y-101186433D01*
X161555483Y-101377510D01*
X161722490Y-101544517D01*
X161913567Y-101683343D01*
X161991685Y-101723146D01*
X162124003Y-101790566D01*
X162124005Y-101790566D01*
X162124008Y-101790568D01*
X162244412Y-101829689D01*
X162348631Y-101863553D01*
X162581903Y-101900500D01*
X162581908Y-101900500D01*
X162818097Y-101900500D01*
X163051368Y-101863553D01*
X163105627Y-101845923D01*
X163275992Y-101790568D01*
X163486433Y-101683343D01*
X163677510Y-101544517D01*
X163844517Y-101377510D01*
X163983343Y-101186433D01*
X164090568Y-100975992D01*
X164163553Y-100751368D01*
X164166575Y-100732288D01*
X164200500Y-100518097D01*
X164200500Y-100281902D01*
X164163553Y-100048631D01*
X164113418Y-99894334D01*
X164090568Y-99824008D01*
X164090566Y-99824005D01*
X164090566Y-99824003D01*
X164009948Y-99665782D01*
X163983343Y-99613567D01*
X163844517Y-99422490D01*
X163736819Y-99314792D01*
X163703334Y-99253469D01*
X163700500Y-99227111D01*
X163700500Y-97951456D01*
X163662052Y-97758170D01*
X163662051Y-97758169D01*
X163662051Y-97758165D01*
X163662049Y-97758160D01*
X163586635Y-97576092D01*
X163586628Y-97576079D01*
X163477139Y-97412218D01*
X163477136Y-97412214D01*
X163334686Y-97269764D01*
X163334655Y-97269735D01*
X163061818Y-96996898D01*
X163028333Y-96935575D01*
X163025499Y-96909217D01*
X163025499Y-96599998D01*
X163025498Y-96599981D01*
X163014999Y-96497203D01*
X163014998Y-96497200D01*
X162970269Y-96362218D01*
X162959814Y-96330666D01*
X162867712Y-96181344D01*
X162790129Y-96103761D01*
X162756644Y-96042438D01*
X162761628Y-95972746D01*
X162803500Y-95916813D01*
X162858413Y-95893607D01*
X163051246Y-95863066D01*
X163051247Y-95863065D01*
X163275802Y-95790102D01*
X163486163Y-95682918D01*
X163486169Y-95682914D01*
X163569104Y-95622658D01*
X163569105Y-95622658D01*
X162829408Y-94882962D01*
X162892993Y-94865925D01*
X163007007Y-94800099D01*
X163100099Y-94707007D01*
X163165925Y-94592993D01*
X163182962Y-94529408D01*
X163922658Y-95269105D01*
X163922658Y-95269104D01*
X163982914Y-95186169D01*
X163982918Y-95186163D01*
X164090102Y-94975802D01*
X164163065Y-94751247D01*
X164200000Y-94518052D01*
X164200000Y-94281947D01*
X164163065Y-94048752D01*
X164090102Y-93824197D01*
X163982914Y-93613828D01*
X163922658Y-93530894D01*
X163922658Y-93530893D01*
X163182962Y-94270590D01*
X163165925Y-94207007D01*
X163100099Y-94092993D01*
X163007007Y-93999901D01*
X162892993Y-93934075D01*
X162829409Y-93917037D01*
X163569105Y-93177340D01*
X163569104Y-93177338D01*
X163486174Y-93117087D01*
X163275802Y-93009897D01*
X163051247Y-92936934D01*
X163051248Y-92936934D01*
X162818052Y-92900000D01*
X162581948Y-92900000D01*
X162348752Y-92936934D01*
X162124197Y-93009897D01*
X161913830Y-93117084D01*
X161830894Y-93177340D01*
X162570591Y-93917037D01*
X162507007Y-93934075D01*
X162392993Y-93999901D01*
X162299901Y-94092993D01*
X162234075Y-94207007D01*
X162217037Y-94270590D01*
X161477340Y-93530894D01*
X161417084Y-93613830D01*
X161309897Y-93824197D01*
X161236934Y-94048752D01*
X161200000Y-94281947D01*
X161200000Y-94518052D01*
X161236934Y-94751247D01*
X161309897Y-94975802D01*
X161417087Y-95186174D01*
X161477338Y-95269104D01*
X161477340Y-95269105D01*
X162217037Y-94529408D01*
X162234075Y-94592993D01*
X162299901Y-94707007D01*
X162392993Y-94800099D01*
X162507007Y-94865925D01*
X162570590Y-94882962D01*
X161830893Y-95622658D01*
X161903186Y-95675182D01*
X161945851Y-95730512D01*
X161951830Y-95800125D01*
X161919224Y-95861920D01*
X161858385Y-95896278D01*
X161830300Y-95899500D01*
X161574999Y-95899500D01*
X161574980Y-95899501D01*
X161472203Y-95910000D01*
X161472200Y-95910001D01*
X161305668Y-95965185D01*
X161305663Y-95965187D01*
X161156342Y-96057289D01*
X161032289Y-96181342D01*
X160940187Y-96330663D01*
X160940185Y-96330668D01*
X160912349Y-96414670D01*
X160885001Y-96497203D01*
X160885001Y-96497204D01*
X160885000Y-96497204D01*
X160874500Y-96599983D01*
X160075498Y-96599983D01*
X160064999Y-96497203D01*
X160009814Y-96330666D01*
X160009813Y-96330664D01*
X160007542Y-96323811D01*
X160009364Y-96323207D01*
X160000500Y-96283202D01*
X160000500Y-93451457D01*
X159988014Y-93388689D01*
X159988004Y-93388641D01*
X159987955Y-93388393D01*
X159962051Y-93258164D01*
X159895933Y-93098541D01*
X159886632Y-93076086D01*
X159886628Y-93076080D01*
X159777140Y-92912219D01*
X159746823Y-92881902D01*
X159637782Y-92772861D01*
X159637781Y-92772860D01*
X159234208Y-92369288D01*
X159234206Y-92369285D01*
X159234206Y-92369286D01*
X159227139Y-92362219D01*
X159227139Y-92362218D01*
X159087782Y-92222861D01*
X159087781Y-92222860D01*
X159087780Y-92222859D01*
X158923920Y-92113371D01*
X158923911Y-92113366D01*
X158851315Y-92083296D01*
X158795165Y-92060038D01*
X158741836Y-92037949D01*
X158741832Y-92037948D01*
X158741828Y-92037946D01*
X158645188Y-92018724D01*
X158548544Y-91999500D01*
X158548541Y-91999500D01*
X152172889Y-91999500D01*
X152105850Y-91979815D01*
X152085208Y-91963181D01*
X151977512Y-91855485D01*
X151977510Y-91855483D01*
X151786433Y-91716657D01*
X151688191Y-91666600D01*
X151637396Y-91618627D01*
X151620601Y-91550806D01*
X151643138Y-91484671D01*
X151688190Y-91445632D01*
X151838845Y-91368870D01*
X152042656Y-91220793D01*
X152220793Y-91042656D01*
X152368870Y-90838845D01*
X152483241Y-90614379D01*
X152561090Y-90374785D01*
X152600500Y-90125962D01*
X152600500Y-89874038D01*
X152561090Y-89625215D01*
X152483241Y-89385621D01*
X152483239Y-89385618D01*
X152483239Y-89385616D01*
X152402972Y-89228085D01*
X152368870Y-89161155D01*
X152285330Y-89046172D01*
X152220798Y-88957350D01*
X152220794Y-88957345D01*
X152042654Y-88779205D01*
X152042649Y-88779201D01*
X151838848Y-88631132D01*
X151838847Y-88631131D01*
X151838845Y-88631130D01*
X151734234Y-88577828D01*
X151688192Y-88554368D01*
X151637396Y-88506393D01*
X151620601Y-88438572D01*
X151643139Y-88372437D01*
X151688190Y-88333399D01*
X151786433Y-88283343D01*
X151977510Y-88144517D01*
X152085208Y-88036819D01*
X152146531Y-88003334D01*
X152172889Y-88000500D01*
X158548543Y-88000500D01*
X158595866Y-87991086D01*
X158664118Y-87977510D01*
X158741836Y-87962051D01*
X158796008Y-87939612D01*
X158923914Y-87886632D01*
X159087782Y-87777139D01*
X159227139Y-87637782D01*
X159227140Y-87637779D01*
X159777139Y-87087782D01*
X159886631Y-86923915D01*
X159886632Y-86923914D01*
X159962051Y-86741835D01*
X159968749Y-86708165D01*
X160000500Y-86548541D01*
X160000500Y-86351460D01*
X160000500Y-84901459D01*
X160000500Y-83601459D01*
X160000500Y-83466561D01*
X160006794Y-83427557D01*
X160008569Y-83422200D01*
X160014999Y-83402797D01*
X160025500Y-83300009D01*
X160025499Y-81899992D01*
X160025498Y-81899983D01*
X160824500Y-81899983D01*
X160824500Y-83300001D01*
X160824501Y-83300018D01*
X160835000Y-83402796D01*
X160835001Y-83402799D01*
X160875492Y-83524991D01*
X160890186Y-83569334D01*
X160982288Y-83718656D01*
X161106344Y-83842712D01*
X161255666Y-83934814D01*
X161422203Y-83989999D01*
X161524991Y-84000500D01*
X162018667Y-84000499D01*
X162085705Y-84020183D01*
X162131460Y-84072987D01*
X162141404Y-84142146D01*
X162112379Y-84205702D01*
X162074961Y-84234984D01*
X161913830Y-84317084D01*
X161830894Y-84377340D01*
X162570591Y-85117037D01*
X162507007Y-85134075D01*
X162392993Y-85199901D01*
X162299901Y-85292993D01*
X162234075Y-85407007D01*
X162217037Y-85470590D01*
X161477340Y-84730894D01*
X161417084Y-84813830D01*
X161309897Y-85024197D01*
X161236934Y-85248752D01*
X161200000Y-85481947D01*
X161200000Y-85718052D01*
X161236934Y-85951247D01*
X161309897Y-86175802D01*
X161417087Y-86386174D01*
X161477338Y-86469104D01*
X161477340Y-86469105D01*
X162217037Y-85729408D01*
X162234075Y-85792993D01*
X162299901Y-85907007D01*
X162392993Y-86000099D01*
X162507007Y-86065925D01*
X162570590Y-86082962D01*
X161830893Y-86822658D01*
X161913828Y-86882914D01*
X162124197Y-86990102D01*
X162348752Y-87063065D01*
X162348751Y-87063065D01*
X162581948Y-87100000D01*
X162818052Y-87100000D01*
X163051247Y-87063065D01*
X163275802Y-86990102D01*
X163486163Y-86882918D01*
X163486169Y-86882914D01*
X163569104Y-86822658D01*
X163569105Y-86822658D01*
X162829408Y-86082962D01*
X162892993Y-86065925D01*
X163007007Y-86000099D01*
X163100099Y-85907007D01*
X163165925Y-85792993D01*
X163182962Y-85729408D01*
X163922658Y-86469105D01*
X163922658Y-86469104D01*
X163982914Y-86386169D01*
X163982918Y-86386163D01*
X164090102Y-86175802D01*
X164163065Y-85951247D01*
X164200000Y-85718052D01*
X164200000Y-85481947D01*
X181200000Y-85481947D01*
X181200000Y-85718052D01*
X181236934Y-85951247D01*
X181309897Y-86175802D01*
X181417087Y-86386174D01*
X181477338Y-86469104D01*
X181477340Y-86469105D01*
X182217037Y-85729408D01*
X182234075Y-85792993D01*
X182299901Y-85907007D01*
X182392993Y-86000099D01*
X182507007Y-86065925D01*
X182570590Y-86082962D01*
X181830893Y-86822658D01*
X181913828Y-86882914D01*
X182124197Y-86990102D01*
X182348752Y-87063065D01*
X182348751Y-87063065D01*
X182581948Y-87100000D01*
X182818052Y-87100000D01*
X183051247Y-87063065D01*
X183275802Y-86990102D01*
X183486163Y-86882918D01*
X183486169Y-86882914D01*
X183569104Y-86822658D01*
X183569105Y-86822658D01*
X182829408Y-86082962D01*
X182892993Y-86065925D01*
X183007007Y-86000099D01*
X183100099Y-85907007D01*
X183165925Y-85792993D01*
X183182962Y-85729409D01*
X183922658Y-86469105D01*
X183922658Y-86469104D01*
X183982914Y-86386169D01*
X183982918Y-86386163D01*
X184090102Y-86175802D01*
X184163065Y-85951247D01*
X184200000Y-85718052D01*
X184200000Y-85481947D01*
X184163065Y-85248752D01*
X184090102Y-85024197D01*
X183982914Y-84813828D01*
X183922658Y-84730894D01*
X183922658Y-84730893D01*
X183182962Y-85470590D01*
X183165925Y-85407007D01*
X183100099Y-85292993D01*
X183007007Y-85199901D01*
X182892993Y-85134075D01*
X182829409Y-85117037D01*
X183569105Y-84377340D01*
X183569104Y-84377338D01*
X183486174Y-84317087D01*
X183275802Y-84209897D01*
X183051247Y-84136934D01*
X183051248Y-84136934D01*
X182818052Y-84100000D01*
X182581948Y-84100000D01*
X182348752Y-84136934D01*
X182124197Y-84209897D01*
X181913830Y-84317084D01*
X181830894Y-84377340D01*
X182570591Y-85117037D01*
X182507007Y-85134075D01*
X182392993Y-85199901D01*
X182299901Y-85292993D01*
X182234075Y-85407007D01*
X182217037Y-85470590D01*
X181477340Y-84730894D01*
X181417084Y-84813830D01*
X181309897Y-85024197D01*
X181236934Y-85248752D01*
X181200000Y-85481947D01*
X164200000Y-85481947D01*
X164163065Y-85248752D01*
X164090102Y-85024197D01*
X163982914Y-84813828D01*
X163922658Y-84730894D01*
X163922658Y-84730893D01*
X163182962Y-85470590D01*
X163165925Y-85407007D01*
X163100099Y-85292993D01*
X163007007Y-85199901D01*
X162892993Y-85134075D01*
X162829409Y-85117037D01*
X163569105Y-84377340D01*
X163569104Y-84377339D01*
X163486174Y-84317087D01*
X163275802Y-84209897D01*
X163051247Y-84136934D01*
X163051248Y-84136934D01*
X162818052Y-84100000D01*
X162713764Y-84100000D01*
X162646725Y-84080315D01*
X162600970Y-84027511D01*
X162591026Y-83958353D01*
X162620051Y-83894797D01*
X162648667Y-83870461D01*
X162693656Y-83842712D01*
X162817712Y-83718656D01*
X162909814Y-83569334D01*
X162964999Y-83402797D01*
X162975500Y-83300009D01*
X162975499Y-81899992D01*
X162964999Y-81797203D01*
X162909814Y-81630666D01*
X162909813Y-81630664D01*
X162907542Y-81623811D01*
X162909364Y-81623207D01*
X162900500Y-81583202D01*
X162900500Y-81265782D01*
X162909143Y-81236345D01*
X162915667Y-81206356D01*
X162919422Y-81201338D01*
X162920185Y-81198743D01*
X162936814Y-81178104D01*
X163030316Y-81084602D01*
X163079676Y-81054355D01*
X163275992Y-80990568D01*
X163486433Y-80883343D01*
X163677510Y-80744517D01*
X163844517Y-80577510D01*
X163983343Y-80386433D01*
X164090568Y-80175992D01*
X164163553Y-79951368D01*
X164169601Y-79913181D01*
X164200500Y-79718097D01*
X164200500Y-79481902D01*
X181199500Y-79481902D01*
X181199500Y-79718097D01*
X181236446Y-79951368D01*
X181309433Y-80175996D01*
X181416657Y-80386433D01*
X181555483Y-80577510D01*
X181722490Y-80744517D01*
X181913567Y-80883343D01*
X182012991Y-80934002D01*
X182124003Y-80990566D01*
X182124005Y-80990566D01*
X182124008Y-80990568D01*
X182244412Y-81029689D01*
X182348631Y-81063553D01*
X182581903Y-81100500D01*
X182581908Y-81100500D01*
X182818097Y-81100500D01*
X183051368Y-81063553D01*
X183275992Y-80990568D01*
X183486433Y-80883343D01*
X183677510Y-80744517D01*
X183844517Y-80577510D01*
X183983343Y-80386433D01*
X184090568Y-80175992D01*
X184163553Y-79951368D01*
X184169601Y-79913181D01*
X184200500Y-79718097D01*
X184200500Y-79481902D01*
X184163553Y-79248631D01*
X184117260Y-79106157D01*
X184090568Y-79024008D01*
X184090566Y-79024005D01*
X184090566Y-79024003D01*
X183993648Y-78833792D01*
X183983343Y-78813567D01*
X183844517Y-78622490D01*
X183677510Y-78455483D01*
X183486433Y-78316657D01*
X183416943Y-78281250D01*
X183275996Y-78209433D01*
X183051368Y-78136446D01*
X182818097Y-78099500D01*
X182818092Y-78099500D01*
X182581908Y-78099500D01*
X182581903Y-78099500D01*
X182348631Y-78136446D01*
X182124003Y-78209433D01*
X181913566Y-78316657D01*
X181842203Y-78368506D01*
X181722490Y-78455483D01*
X181722488Y-78455485D01*
X181722487Y-78455485D01*
X181555485Y-78622487D01*
X181555485Y-78622488D01*
X181555483Y-78622490D01*
X181508250Y-78687501D01*
X181416657Y-78813566D01*
X181309433Y-79024003D01*
X181236446Y-79248631D01*
X181199500Y-79481902D01*
X164200500Y-79481902D01*
X164163553Y-79248631D01*
X164117260Y-79106157D01*
X164090568Y-79024008D01*
X164090566Y-79024005D01*
X164090566Y-79024003D01*
X163993648Y-78833792D01*
X163983343Y-78813567D01*
X163844517Y-78622490D01*
X163677510Y-78455483D01*
X163486433Y-78316657D01*
X163416943Y-78281250D01*
X163275996Y-78209433D01*
X163051368Y-78136446D01*
X162818097Y-78099500D01*
X162818092Y-78099500D01*
X162581908Y-78099500D01*
X162581903Y-78099500D01*
X162348631Y-78136446D01*
X162124003Y-78209433D01*
X161913566Y-78316657D01*
X161842203Y-78368506D01*
X161722490Y-78455483D01*
X161722488Y-78455485D01*
X161722487Y-78455485D01*
X161555485Y-78622487D01*
X161555485Y-78622488D01*
X161555483Y-78622490D01*
X161508250Y-78687501D01*
X161416657Y-78813566D01*
X161309433Y-79024003D01*
X161236446Y-79248631D01*
X161199500Y-79481902D01*
X161199500Y-79718097D01*
X161236447Y-79951368D01*
X161236450Y-79951380D01*
X161236821Y-79952523D01*
X161236834Y-79952980D01*
X161237586Y-79956114D01*
X161236927Y-79956271D01*
X161238809Y-80022365D01*
X161206569Y-80078508D01*
X161122858Y-80162221D01*
X161013371Y-80326079D01*
X161013364Y-80326092D01*
X160937950Y-80508160D01*
X160937947Y-80508170D01*
X160899500Y-80701456D01*
X160899500Y-81583202D01*
X160890635Y-81623207D01*
X160892458Y-81623811D01*
X160890187Y-81630664D01*
X160890186Y-81630666D01*
X160835001Y-81797203D01*
X160835001Y-81797204D01*
X160835000Y-81797204D01*
X160824500Y-81899983D01*
X160025498Y-81899983D01*
X160024474Y-81889961D01*
X160014999Y-81797203D01*
X160014998Y-81797200D01*
X160006794Y-81772441D01*
X160000500Y-81733437D01*
X160000500Y-79727214D01*
X160020185Y-79660175D01*
X160036819Y-79639533D01*
X160070637Y-79605715D01*
X160108286Y-79568066D01*
X160242717Y-79383038D01*
X160346548Y-79179258D01*
X160412898Y-78975053D01*
X160417221Y-78961749D01*
X160417221Y-78961748D01*
X160417222Y-78961745D01*
X160453000Y-78735854D01*
X160453000Y-78507146D01*
X160417222Y-78281255D01*
X160417221Y-78281251D01*
X160417221Y-78281250D01*
X160346549Y-78063744D01*
X160312059Y-77996054D01*
X160242717Y-77859962D01*
X160108286Y-77674934D01*
X159946566Y-77513214D01*
X159761538Y-77378783D01*
X159557755Y-77274950D01*
X159340248Y-77204278D01*
X159170826Y-77177444D01*
X159114354Y-77168500D01*
X158885646Y-77168500D01*
X158810349Y-77180426D01*
X158659753Y-77204278D01*
X158659750Y-77204278D01*
X158442244Y-77274950D01*
X158238461Y-77378783D01*
X158182022Y-77419789D01*
X158053434Y-77513214D01*
X158053432Y-77513216D01*
X158053431Y-77513216D01*
X157891716Y-77674931D01*
X157891709Y-77674940D01*
X157844943Y-77739307D01*
X157789613Y-77781973D01*
X157734898Y-77790039D01*
X157688651Y-77786399D01*
X157023787Y-78451264D01*
X157012518Y-78409208D01*
X156940110Y-78283792D01*
X156837708Y-78181390D01*
X156712292Y-78108982D01*
X156670233Y-78097712D01*
X157335099Y-77432847D01*
X157261276Y-77379211D01*
X157057568Y-77275417D01*
X156840124Y-77204765D01*
X156614313Y-77169000D01*
X156385687Y-77169000D01*
X156159875Y-77204765D01*
X156159874Y-77204765D01*
X155942431Y-77275417D01*
X155738719Y-77379213D01*
X155664900Y-77432846D01*
X155664899Y-77432847D01*
X156329765Y-78097712D01*
X156287708Y-78108982D01*
X156162292Y-78181390D01*
X156059890Y-78283792D01*
X155987482Y-78409208D01*
X155976212Y-78451265D01*
X155311347Y-77786399D01*
X155265101Y-77790039D01*
X155261146Y-77789208D01*
X155257289Y-77790406D01*
X155227239Y-77782084D01*
X155196724Y-77775674D01*
X155192729Y-77772528D01*
X155189954Y-77771760D01*
X155180016Y-77762519D01*
X155162926Y-77749062D01*
X155158745Y-77744385D01*
X155108286Y-77674934D01*
X154946566Y-77513214D01*
X154761538Y-77378783D01*
X154557755Y-77274950D01*
X154340248Y-77204278D01*
X154170826Y-77177444D01*
X154114354Y-77168500D01*
X153885646Y-77168500D01*
X153810349Y-77180426D01*
X153659753Y-77204278D01*
X153659750Y-77204278D01*
X153442244Y-77274950D01*
X153238461Y-77378783D01*
X153182022Y-77419789D01*
X153053434Y-77513214D01*
X153053432Y-77513216D01*
X153053431Y-77513216D01*
X152891716Y-77674931D01*
X152891716Y-77674932D01*
X152891714Y-77674934D01*
X152844944Y-77739307D01*
X152757283Y-77859961D01*
X152653450Y-78063744D01*
X152582778Y-78281250D01*
X152582778Y-78281253D01*
X152547000Y-78507146D01*
X152547000Y-78735853D01*
X152582778Y-78961746D01*
X152582778Y-78961749D01*
X152653450Y-79179255D01*
X152744719Y-79358379D01*
X152757283Y-79383038D01*
X152844943Y-79503692D01*
X152861150Y-79525998D01*
X152884630Y-79591805D01*
X152868805Y-79659859D01*
X152848515Y-79686562D01*
X152621897Y-79913182D01*
X152560577Y-79946666D01*
X152534218Y-79949500D01*
X150981878Y-79949500D01*
X150914839Y-79929815D01*
X150876339Y-79890597D01*
X150855212Y-79856344D01*
X150731156Y-79732288D01*
X150613729Y-79659859D01*
X150581836Y-79640187D01*
X150581831Y-79640185D01*
X150579863Y-79639533D01*
X150415297Y-79585001D01*
X150415295Y-79585000D01*
X150312510Y-79574500D01*
X149587498Y-79574500D01*
X149587480Y-79574501D01*
X149484703Y-79585000D01*
X149484700Y-79585001D01*
X149318168Y-79640185D01*
X149318163Y-79640187D01*
X149168842Y-79732289D01*
X149044789Y-79856342D01*
X148952687Y-80005663D01*
X148952685Y-80005668D01*
X148924849Y-80089670D01*
X148897501Y-80172203D01*
X148897501Y-80172204D01*
X148897500Y-80172204D01*
X148887000Y-80274983D01*
X148887000Y-81625001D01*
X148887001Y-81625018D01*
X148897500Y-81727796D01*
X148897501Y-81727799D01*
X148952685Y-81894331D01*
X148952687Y-81894336D01*
X148956180Y-81899999D01*
X149044788Y-82043656D01*
X149168844Y-82167712D01*
X149318166Y-82259814D01*
X149484703Y-82314999D01*
X149587491Y-82325500D01*
X150312508Y-82325499D01*
X150312516Y-82325498D01*
X150312519Y-82325498D01*
X150368802Y-82319748D01*
X150415297Y-82314999D01*
X150581834Y-82259814D01*
X150731156Y-82167712D01*
X150855212Y-82043656D01*
X150876339Y-82009402D01*
X150928287Y-81962679D01*
X150981878Y-81950500D01*
X153098542Y-81950500D01*
X153129566Y-81944328D01*
X153195188Y-81931275D01*
X153291836Y-81912051D01*
X153345165Y-81889961D01*
X153473914Y-81836632D01*
X153637782Y-81727139D01*
X153777139Y-81587782D01*
X153777139Y-81587780D01*
X153787347Y-81577573D01*
X153787348Y-81577570D01*
X154777140Y-80587781D01*
X154886632Y-80423914D01*
X154962052Y-80241835D01*
X155000501Y-80048540D01*
X155000501Y-79851459D01*
X155000501Y-79846349D01*
X155000500Y-79846323D01*
X155000500Y-79727214D01*
X155020185Y-79660175D01*
X155036819Y-79639533D01*
X155070637Y-79605715D01*
X155108286Y-79568066D01*
X155155057Y-79503691D01*
X155210385Y-79461026D01*
X155265103Y-79452959D01*
X155311348Y-79456598D01*
X155976212Y-78791734D01*
X155987482Y-78833792D01*
X156059890Y-78959208D01*
X156162292Y-79061610D01*
X156287708Y-79134018D01*
X156329765Y-79145287D01*
X155664899Y-79810151D01*
X155738725Y-79863788D01*
X155738731Y-79863792D01*
X155942431Y-79967582D01*
X156159875Y-80038234D01*
X156385687Y-80074000D01*
X156614313Y-80074000D01*
X156840124Y-80038234D01*
X156840125Y-80038234D01*
X157057568Y-79967582D01*
X157261276Y-79863788D01*
X157335098Y-79810151D01*
X156670234Y-79145287D01*
X156712292Y-79134018D01*
X156837708Y-79061610D01*
X156940110Y-78959208D01*
X157012518Y-78833792D01*
X157023787Y-78791735D01*
X157688650Y-79456598D01*
X157734896Y-79452959D01*
X157739727Y-79453973D01*
X157744462Y-79452577D01*
X157773583Y-79461086D01*
X157803273Y-79467323D01*
X157808084Y-79471167D01*
X157811527Y-79472173D01*
X157823613Y-79483573D01*
X157838231Y-79495251D01*
X157841771Y-79499325D01*
X157891714Y-79568066D01*
X157966258Y-79642610D01*
X157969106Y-79645888D01*
X157981924Y-79673859D01*
X157996666Y-79700856D01*
X157997392Y-79707610D01*
X157998215Y-79709406D01*
X157997856Y-79711925D01*
X157999500Y-79727214D01*
X157999500Y-81499336D01*
X157981039Y-81564432D01*
X157940189Y-81630659D01*
X157940186Y-81630666D01*
X157885001Y-81797203D01*
X157885001Y-81797204D01*
X157885000Y-81797204D01*
X157874500Y-81899983D01*
X157874500Y-83300001D01*
X157874501Y-83300018D01*
X157885000Y-83402796D01*
X157885001Y-83402799D01*
X157940185Y-83569331D01*
X157940190Y-83569342D01*
X157981038Y-83635566D01*
X157999500Y-83700663D01*
X157999500Y-85875500D01*
X157979815Y-85942539D01*
X157927011Y-85988294D01*
X157875500Y-85999500D01*
X152172889Y-85999500D01*
X152105850Y-85979815D01*
X152085208Y-85963181D01*
X151977512Y-85855485D01*
X151977510Y-85855483D01*
X151786433Y-85716657D01*
X151575996Y-85609433D01*
X151351368Y-85536446D01*
X151118097Y-85499500D01*
X151118092Y-85499500D01*
X150881908Y-85499500D01*
X150881903Y-85499500D01*
X150648631Y-85536446D01*
X150424003Y-85609433D01*
X150213566Y-85716657D01*
X150108500Y-85792993D01*
X150022490Y-85855483D01*
X150022488Y-85855485D01*
X150022487Y-85855485D01*
X149855485Y-86022487D01*
X149855485Y-86022488D01*
X149855483Y-86022490D01*
X149829965Y-86057613D01*
X149716657Y-86213566D01*
X149609433Y-86424003D01*
X149536446Y-86648631D01*
X149499500Y-86881902D01*
X149499500Y-87118097D01*
X149536446Y-87351368D01*
X149609433Y-87575996D01*
X149711921Y-87777139D01*
X149716657Y-87786433D01*
X149855483Y-87977510D01*
X150022490Y-88144517D01*
X150165797Y-88248636D01*
X150213568Y-88283344D01*
X150311806Y-88333398D01*
X150362603Y-88381372D01*
X150379398Y-88449193D01*
X150356861Y-88515328D01*
X150311807Y-88554367D01*
X150161156Y-88631128D01*
X150161155Y-88631129D01*
X149957350Y-88779201D01*
X149957345Y-88779205D01*
X149779205Y-88957345D01*
X149779201Y-88957350D01*
X149631132Y-89161151D01*
X149516760Y-89385616D01*
X149453601Y-89580000D01*
X149438910Y-89625215D01*
X149399500Y-89874038D01*
X149399500Y-90125962D01*
X149415028Y-90224003D01*
X149438910Y-90374785D01*
X149516760Y-90614383D01*
X149595413Y-90768747D01*
X149630995Y-90838581D01*
X149631132Y-90838848D01*
X149779201Y-91042649D01*
X149779205Y-91042654D01*
X149957345Y-91220794D01*
X149957350Y-91220798D01*
X150135117Y-91349952D01*
X150161155Y-91368870D01*
X150302182Y-91440727D01*
X150311807Y-91445631D01*
X150362603Y-91493606D01*
X150379398Y-91561427D01*
X150356861Y-91627562D01*
X150311807Y-91666601D01*
X150213566Y-91716657D01*
X150130047Y-91777338D01*
X150022490Y-91855483D01*
X150022488Y-91855485D01*
X150022487Y-91855485D01*
X149855485Y-92022487D01*
X149855485Y-92022488D01*
X149855483Y-92022490D01*
X149828203Y-92060038D01*
X149716657Y-92213566D01*
X149609433Y-92424003D01*
X149536446Y-92648631D01*
X149499500Y-92881902D01*
X149499500Y-93118097D01*
X149536446Y-93351368D01*
X149609433Y-93575996D01*
X149716519Y-93786163D01*
X149716657Y-93786433D01*
X149855483Y-93977510D01*
X150022490Y-94144517D01*
X150213567Y-94283343D01*
X150312991Y-94334002D01*
X150424003Y-94390566D01*
X150424005Y-94390566D01*
X150424008Y-94390568D01*
X150453034Y-94399999D01*
X150648631Y-94463553D01*
X150881903Y-94500500D01*
X150881908Y-94500500D01*
X151118097Y-94500500D01*
X151351368Y-94463553D01*
X151352870Y-94463065D01*
X151575992Y-94390568D01*
X151786433Y-94283343D01*
X151977510Y-94144517D01*
X152085208Y-94036819D01*
X152146531Y-94003334D01*
X152172889Y-94000500D01*
X157875500Y-94000500D01*
X157942539Y-94020185D01*
X157988294Y-94072989D01*
X157999500Y-94124500D01*
X157999500Y-95875500D01*
X157979815Y-95942539D01*
X157927011Y-95988294D01*
X157875500Y-95999500D01*
X156101455Y-95999500D01*
X156009133Y-96017864D01*
X156009126Y-96017865D01*
X156004812Y-96018724D01*
X155908164Y-96037949D01*
X155861476Y-96057288D01*
X155854286Y-96060265D01*
X155854279Y-96060268D01*
X155726092Y-96113364D01*
X155726079Y-96113371D01*
X155562219Y-96222859D01*
X155501877Y-96283202D01*
X155422861Y-96362218D01*
X155422858Y-96362221D01*
X153362221Y-98422858D01*
X153362218Y-98422861D01*
X153312879Y-98472200D01*
X153222859Y-98562219D01*
X153113371Y-98726080D01*
X153113364Y-98726093D01*
X153071511Y-98827139D01*
X153051690Y-98874992D01*
X153051689Y-98874991D01*
X153037950Y-98908160D01*
X153037947Y-98908170D01*
X152999500Y-99101456D01*
X152999500Y-100731786D01*
X152979815Y-100798825D01*
X152963181Y-100819467D01*
X152891714Y-100890934D01*
X152813945Y-100997973D01*
X152757283Y-101075961D01*
X152653450Y-101279744D01*
X152582778Y-101497250D01*
X152582778Y-101497253D01*
X152547000Y-101723146D01*
X152547000Y-101951853D01*
X152582778Y-102177746D01*
X152582778Y-102177749D01*
X152653450Y-102395255D01*
X152653452Y-102395258D01*
X152757283Y-102599038D01*
X152891714Y-102784066D01*
X153053434Y-102945786D01*
X153238462Y-103080217D01*
X153352639Y-103138393D01*
X153442244Y-103184049D01*
X153659751Y-103254721D01*
X153659752Y-103254721D01*
X153659755Y-103254722D01*
X153885646Y-103290500D01*
X153885647Y-103290500D01*
X154114353Y-103290500D01*
X154114354Y-103290500D01*
X154340245Y-103254722D01*
X154340248Y-103254721D01*
X154340249Y-103254721D01*
X154557755Y-103184049D01*
X154557755Y-103184048D01*
X154557758Y-103184048D01*
X154761538Y-103080217D01*
X154946566Y-102945786D01*
X155108286Y-102784066D01*
X155158749Y-102714609D01*
X155162927Y-102709936D01*
X155187488Y-102694682D01*
X155210385Y-102677026D01*
X155217641Y-102675956D01*
X155222282Y-102673074D01*
X155235776Y-102673282D01*
X155265103Y-102668959D01*
X155311348Y-102672598D01*
X155976212Y-102007734D01*
X155987482Y-102049792D01*
X156059890Y-102175208D01*
X156162292Y-102277610D01*
X156287708Y-102350018D01*
X156329765Y-102361287D01*
X155664899Y-103026151D01*
X155738725Y-103079788D01*
X155738731Y-103079792D01*
X155942431Y-103183582D01*
X156159875Y-103254234D01*
X156385687Y-103290000D01*
X156614313Y-103290000D01*
X156840124Y-103254234D01*
X156840125Y-103254234D01*
X157057568Y-103183582D01*
X157261276Y-103079788D01*
X157335098Y-103026151D01*
X156670234Y-102361287D01*
X156712292Y-102350018D01*
X156837708Y-102277610D01*
X156940110Y-102175208D01*
X157012518Y-102049792D01*
X157023787Y-102007735D01*
X157688650Y-102672598D01*
X157734896Y-102668959D01*
X157739727Y-102669973D01*
X157744462Y-102668577D01*
X157773583Y-102677086D01*
X157803273Y-102683323D01*
X157808084Y-102687167D01*
X157811527Y-102688173D01*
X157823613Y-102699573D01*
X157838231Y-102711251D01*
X157841771Y-102715325D01*
X157891714Y-102784066D01*
X157966258Y-102858610D01*
X157969106Y-102861888D01*
X157981924Y-102889859D01*
X157996666Y-102916856D01*
X157997392Y-102923610D01*
X157998215Y-102925406D01*
X157997856Y-102927925D01*
X157999500Y-102943214D01*
X157999500Y-103184217D01*
X157979815Y-103251256D01*
X157963181Y-103271898D01*
X156871899Y-104363181D01*
X156810576Y-104396666D01*
X156784218Y-104399500D01*
X153515782Y-104399500D01*
X153448743Y-104379815D01*
X153428101Y-104363181D01*
X150381479Y-101316559D01*
X150381459Y-101316537D01*
X150237785Y-101172863D01*
X150237781Y-101172860D01*
X150073920Y-101063371D01*
X150073907Y-101063364D01*
X149941980Y-101008719D01*
X149941976Y-101008717D01*
X149934608Y-101005666D01*
X149891836Y-100987949D01*
X149795188Y-100968724D01*
X149776582Y-100965023D01*
X149698544Y-100949500D01*
X149698541Y-100949500D01*
X149094378Y-100949500D01*
X149027339Y-100929815D01*
X148988839Y-100890597D01*
X148967712Y-100856344D01*
X148843656Y-100732288D01*
X148694334Y-100640186D01*
X148527797Y-100585001D01*
X148527795Y-100585000D01*
X148425010Y-100574500D01*
X147699998Y-100574500D01*
X147699980Y-100574501D01*
X147597203Y-100585000D01*
X147597200Y-100585001D01*
X147430668Y-100640185D01*
X147430663Y-100640187D01*
X147281342Y-100732289D01*
X147157289Y-100856342D01*
X147065187Y-101005663D01*
X147065185Y-101005668D01*
X147041892Y-101075962D01*
X147010001Y-101172203D01*
X147010001Y-101172204D01*
X147010000Y-101172204D01*
X146999500Y-101274983D01*
X146200498Y-101274983D01*
X146189999Y-101172203D01*
X146134814Y-101005666D01*
X146134812Y-101005663D01*
X146134809Y-101005657D01*
X146126786Y-100992650D01*
X146125785Y-100990244D01*
X146124779Y-100989280D01*
X146119236Y-100974496D01*
X146111744Y-100956481D01*
X146111180Y-100954131D01*
X146099551Y-100895665D01*
X146097591Y-100890934D01*
X146075251Y-100837000D01*
X146024132Y-100713586D01*
X145938214Y-100585001D01*
X145934428Y-100579335D01*
X145914642Y-100549721D01*
X144636818Y-99271897D01*
X144603333Y-99210574D01*
X144600499Y-99184216D01*
X144600499Y-98874990D01*
X144600498Y-98874981D01*
X144589999Y-98772203D01*
X144589998Y-98772200D01*
X144534814Y-98605666D01*
X144442712Y-98456344D01*
X144318656Y-98332288D01*
X144169334Y-98240186D01*
X144002797Y-98185001D01*
X144002795Y-98185000D01*
X143900010Y-98174500D01*
X142499998Y-98174500D01*
X142499981Y-98174501D01*
X142397203Y-98185000D01*
X142397200Y-98185001D01*
X142230668Y-98240185D01*
X142230663Y-98240187D01*
X142081342Y-98332289D01*
X141957289Y-98456342D01*
X141932033Y-98497288D01*
X141891985Y-98562219D01*
X141889901Y-98565597D01*
X141837953Y-98612321D01*
X141784362Y-98624500D01*
X141480035Y-98624500D01*
X141412996Y-98604815D01*
X141367241Y-98552011D01*
X141356677Y-98513102D01*
X141356163Y-98508071D01*
X141352499Y-98472203D01*
X141297314Y-98305666D01*
X141205212Y-98156344D01*
X141081156Y-98032288D01*
X140931834Y-97940186D01*
X140765297Y-97885001D01*
X140765295Y-97885000D01*
X140662510Y-97874500D01*
X139937498Y-97874500D01*
X139937480Y-97874501D01*
X139834703Y-97885000D01*
X139834700Y-97885001D01*
X139668168Y-97940185D01*
X139668163Y-97940187D01*
X139518842Y-98032289D01*
X139394789Y-98156342D01*
X139302687Y-98305663D01*
X139302686Y-98305666D01*
X139247501Y-98472203D01*
X139247501Y-98472204D01*
X139247500Y-98472204D01*
X139237000Y-98574983D01*
X138437998Y-98574983D01*
X138435651Y-98552011D01*
X138427499Y-98472203D01*
X138427498Y-98472200D01*
X138411149Y-98422862D01*
X138372314Y-98305666D01*
X138280212Y-98156344D01*
X138156156Y-98032288D01*
X138006834Y-97940186D01*
X137840297Y-97885001D01*
X137840295Y-97885000D01*
X137737510Y-97874500D01*
X137012498Y-97874500D01*
X137012480Y-97874501D01*
X136909703Y-97885000D01*
X136909700Y-97885001D01*
X136743168Y-97940185D01*
X136743163Y-97940187D01*
X136593842Y-98032289D01*
X136469789Y-98156342D01*
X136377687Y-98305663D01*
X136377686Y-98305666D01*
X136322501Y-98472203D01*
X136322501Y-98472204D01*
X136322500Y-98472204D01*
X136312000Y-98574983D01*
X136312000Y-99925001D01*
X136312001Y-99925018D01*
X136322500Y-100027796D01*
X136322501Y-100027799D01*
X136368864Y-100167710D01*
X136377686Y-100194334D01*
X136469788Y-100343656D01*
X136593844Y-100467712D01*
X136690597Y-100527389D01*
X136697419Y-100534974D01*
X136706703Y-100539214D01*
X136720390Y-100560512D01*
X136737321Y-100579335D01*
X136739965Y-100590971D01*
X136744477Y-100597992D01*
X136749500Y-100632927D01*
X136749500Y-100867072D01*
X136729815Y-100934111D01*
X136690598Y-100972609D01*
X136649478Y-100997973D01*
X136593842Y-101032289D01*
X136469789Y-101156342D01*
X136377687Y-101305663D01*
X136377685Y-101305668D01*
X136322501Y-101472204D01*
X136322500Y-101472205D01*
X136318323Y-101513102D01*
X136291927Y-101577793D01*
X136234747Y-101617945D01*
X136194965Y-101624500D01*
X135588389Y-101624500D01*
X135527971Y-101636518D01*
X135484743Y-101645116D01*
X135467546Y-101648537D01*
X135353716Y-101695687D01*
X135353707Y-101695692D01*
X135251268Y-101764140D01*
X135225909Y-101789500D01*
X135164142Y-101851267D01*
X135164139Y-101851270D01*
X134667229Y-102348181D01*
X134605906Y-102381666D01*
X134579548Y-102384500D01*
X133817349Y-102384500D01*
X133750310Y-102364815D01*
X133717031Y-102333385D01*
X133630947Y-102214901D01*
X133630942Y-102214895D01*
X133495104Y-102079057D01*
X133495102Y-102079055D01*
X133339681Y-101966135D01*
X133168509Y-101878918D01*
X133168508Y-101878917D01*
X133168505Y-101878916D01*
X133103108Y-101857667D01*
X133045432Y-101818229D01*
X133018234Y-101753871D01*
X133030149Y-101685024D01*
X133077393Y-101633549D01*
X133103108Y-101621805D01*
X133168319Y-101600616D01*
X133339419Y-101513436D01*
X133368646Y-101492201D01*
X133368646Y-101492200D01*
X132746447Y-100870000D01*
X132752661Y-100870000D01*
X132854394Y-100842741D01*
X132945606Y-100790080D01*
X133020080Y-100715606D01*
X133072741Y-100624394D01*
X133100000Y-100522661D01*
X133100000Y-100516446D01*
X133722200Y-101138646D01*
X133722201Y-101138646D01*
X133743436Y-101109419D01*
X133830616Y-100938321D01*
X133889959Y-100755684D01*
X133920000Y-100566015D01*
X133920000Y-100373984D01*
X133889959Y-100184315D01*
X133830616Y-100001678D01*
X133743434Y-99830577D01*
X133722201Y-99801352D01*
X133722200Y-99801351D01*
X133100000Y-100423552D01*
X133100000Y-100417339D01*
X133072741Y-100315606D01*
X133020080Y-100224394D01*
X132945606Y-100149920D01*
X132854394Y-100097259D01*
X132752661Y-100070000D01*
X132746447Y-100070000D01*
X133368646Y-99447798D01*
X133339415Y-99426561D01*
X133168321Y-99339383D01*
X132985684Y-99280040D01*
X132796015Y-99250000D01*
X132603985Y-99250000D01*
X132414315Y-99280040D01*
X132231678Y-99339383D01*
X132060578Y-99426564D01*
X132031352Y-99447798D01*
X132031351Y-99447798D01*
X132653554Y-100070000D01*
X132647339Y-100070000D01*
X132545606Y-100097259D01*
X132454394Y-100149920D01*
X132379920Y-100224394D01*
X132327259Y-100315606D01*
X132300000Y-100417339D01*
X132300000Y-100423553D01*
X131677798Y-99801351D01*
X131677798Y-99801352D01*
X131656564Y-99830578D01*
X131569383Y-100001678D01*
X131510040Y-100184315D01*
X131480000Y-100373984D01*
X131480000Y-100566015D01*
X131510040Y-100755684D01*
X131569383Y-100938321D01*
X131656561Y-101109415D01*
X131677798Y-101138646D01*
X132300000Y-100516445D01*
X132300000Y-100522661D01*
X132327259Y-100624394D01*
X132379920Y-100715606D01*
X132454394Y-100790080D01*
X132545606Y-100842741D01*
X132647339Y-100870000D01*
X132653554Y-100870000D01*
X132031351Y-101492200D01*
X132031352Y-101492201D01*
X132060577Y-101513434D01*
X132231680Y-101600616D01*
X132296891Y-101621805D01*
X132354567Y-101661242D01*
X132381765Y-101725601D01*
X132369850Y-101794447D01*
X132322606Y-101845923D01*
X132296892Y-101857667D01*
X132231492Y-101878917D01*
X132060318Y-101966135D01*
X131971645Y-102030560D01*
X131904898Y-102079055D01*
X131904896Y-102079057D01*
X131904895Y-102079057D01*
X131769057Y-102214895D01*
X131769057Y-102214896D01*
X131769055Y-102214898D01*
X131769053Y-102214901D01*
X131656135Y-102370318D01*
X131568916Y-102541493D01*
X131509553Y-102724197D01*
X131479500Y-102913945D01*
X131479500Y-103106055D01*
X131479499Y-103106055D01*
X131483569Y-103131747D01*
X131474614Y-103201040D01*
X131429618Y-103254492D01*
X131362866Y-103275131D01*
X131295552Y-103256406D01*
X131273415Y-103238825D01*
X131011819Y-102977229D01*
X130978334Y-102915906D01*
X130975500Y-102889548D01*
X130975500Y-97860452D01*
X130995185Y-97793413D01*
X131011819Y-97772771D01*
X132962387Y-95822204D01*
X134935858Y-93848733D01*
X135004312Y-93746285D01*
X135049255Y-93637782D01*
X135051463Y-93632452D01*
X135055451Y-93612402D01*
X135075501Y-93511606D01*
X135075501Y-93388393D01*
X135075501Y-93383283D01*
X135075500Y-93383257D01*
X135075500Y-89874071D01*
X141600000Y-89874071D01*
X141600000Y-90125928D01*
X141639397Y-90374669D01*
X141717219Y-90614184D01*
X141831557Y-90838583D01*
X141905748Y-90940697D01*
X141905748Y-90940698D01*
X142635387Y-90211059D01*
X142640889Y-90231591D01*
X142719881Y-90368408D01*
X142831592Y-90480119D01*
X142968409Y-90559111D01*
X142988940Y-90564612D01*
X142259300Y-91294250D01*
X142361416Y-91368442D01*
X142512356Y-91445351D01*
X142563152Y-91493326D01*
X142579947Y-91561147D01*
X142557409Y-91627282D01*
X142512356Y-91666321D01*
X142413566Y-91716657D01*
X142330047Y-91777338D01*
X142222490Y-91855483D01*
X142222488Y-91855485D01*
X142222487Y-91855485D01*
X142055485Y-92022487D01*
X142055485Y-92022488D01*
X142055483Y-92022490D01*
X142028203Y-92060038D01*
X141916657Y-92213566D01*
X141809433Y-92424003D01*
X141736446Y-92648631D01*
X141699500Y-92881902D01*
X141699500Y-93118097D01*
X141736446Y-93351368D01*
X141809433Y-93575996D01*
X141916519Y-93786163D01*
X141916657Y-93786433D01*
X142055483Y-93977510D01*
X142055485Y-93977512D01*
X142163181Y-94085208D01*
X142196666Y-94146531D01*
X142199500Y-94172889D01*
X142199500Y-95240201D01*
X142179815Y-95307240D01*
X142140598Y-95345739D01*
X142081344Y-95382287D01*
X141957289Y-95506342D01*
X141865187Y-95655663D01*
X141865185Y-95655668D01*
X141856015Y-95683342D01*
X141810001Y-95822203D01*
X141810001Y-95822204D01*
X141810000Y-95822204D01*
X141799500Y-95924983D01*
X141799500Y-96675001D01*
X141799501Y-96675019D01*
X141810000Y-96777796D01*
X141810001Y-96777799D01*
X141853549Y-96909217D01*
X141865186Y-96944334D01*
X141957288Y-97093656D01*
X142081344Y-97217712D01*
X142230666Y-97309814D01*
X142397203Y-97364999D01*
X142499991Y-97375500D01*
X143900008Y-97375499D01*
X144002797Y-97364999D01*
X144169334Y-97309814D01*
X144318656Y-97217712D01*
X144442712Y-97093656D01*
X144534814Y-96944334D01*
X144589999Y-96777797D01*
X144600500Y-96675009D01*
X144600499Y-95924992D01*
X144589999Y-95822203D01*
X144534814Y-95655666D01*
X144442712Y-95506344D01*
X144318656Y-95382288D01*
X144318655Y-95382287D01*
X144259402Y-95345739D01*
X144212678Y-95293791D01*
X144200500Y-95240201D01*
X144200500Y-94172889D01*
X144220185Y-94105850D01*
X144236819Y-94085208D01*
X144285208Y-94036819D01*
X144344517Y-93977510D01*
X144483343Y-93786433D01*
X144590568Y-93575992D01*
X144663553Y-93351368D01*
X144678562Y-93256607D01*
X144700500Y-93118097D01*
X144700500Y-92881902D01*
X144663553Y-92648631D01*
X144590566Y-92424003D01*
X144534002Y-92312991D01*
X144483343Y-92213567D01*
X144344517Y-92022490D01*
X144177510Y-91855483D01*
X143986433Y-91716657D01*
X143887643Y-91666321D01*
X143836847Y-91618346D01*
X143820052Y-91550525D01*
X143842589Y-91484390D01*
X143887643Y-91445351D01*
X144038575Y-91368446D01*
X144038581Y-91368442D01*
X144140697Y-91294250D01*
X144140698Y-91294250D01*
X143411059Y-90564612D01*
X143431591Y-90559111D01*
X143568408Y-90480119D01*
X143680119Y-90368408D01*
X143759111Y-90231591D01*
X143764612Y-90211060D01*
X144494250Y-90940698D01*
X144494250Y-90940697D01*
X144568442Y-90838581D01*
X144568446Y-90838575D01*
X144682780Y-90614184D01*
X144760602Y-90374669D01*
X144800000Y-90125928D01*
X144800000Y-89874071D01*
X144760602Y-89625330D01*
X144682780Y-89385815D01*
X144568442Y-89161416D01*
X144494250Y-89059301D01*
X144494250Y-89059300D01*
X143764612Y-89788939D01*
X143759111Y-89768409D01*
X143680119Y-89631592D01*
X143568408Y-89519881D01*
X143431591Y-89440889D01*
X143411058Y-89435387D01*
X144140698Y-88705748D01*
X144038581Y-88631555D01*
X143887642Y-88554647D01*
X143836847Y-88506673D01*
X143820052Y-88438852D01*
X143842590Y-88372717D01*
X143887642Y-88333679D01*
X143986433Y-88283343D01*
X144177510Y-88144517D01*
X144344517Y-87977510D01*
X144483343Y-87786433D01*
X144590568Y-87575992D01*
X144663553Y-87351368D01*
X144670542Y-87307240D01*
X144700500Y-87118097D01*
X144700500Y-86881902D01*
X144663553Y-86648631D01*
X144605221Y-86469105D01*
X144590568Y-86424008D01*
X144590566Y-86424005D01*
X144590566Y-86424003D01*
X144483342Y-86213566D01*
X144455905Y-86175802D01*
X144344517Y-86022490D01*
X144236819Y-85914792D01*
X144203334Y-85853469D01*
X144200500Y-85827111D01*
X144200500Y-84959797D01*
X144220185Y-84892758D01*
X144259403Y-84854258D01*
X144318656Y-84817712D01*
X144442712Y-84693656D01*
X144534814Y-84544334D01*
X144589999Y-84377797D01*
X144600500Y-84275009D01*
X144600499Y-83524992D01*
X144589999Y-83422203D01*
X144534814Y-83255666D01*
X144442712Y-83106344D01*
X144318656Y-82982288D01*
X144169334Y-82890186D01*
X144002797Y-82835001D01*
X144002795Y-82835000D01*
X143900010Y-82824500D01*
X142499998Y-82824500D01*
X142499981Y-82824501D01*
X142397203Y-82835000D01*
X142397200Y-82835001D01*
X142230668Y-82890185D01*
X142230663Y-82890187D01*
X142081342Y-82982289D01*
X141957289Y-83106342D01*
X141865187Y-83255663D01*
X141865186Y-83255666D01*
X141810001Y-83422203D01*
X141810001Y-83422204D01*
X141810000Y-83422204D01*
X141799500Y-83524983D01*
X141799500Y-84275001D01*
X141799501Y-84275019D01*
X141810000Y-84377796D01*
X141810001Y-84377799D01*
X141850495Y-84500000D01*
X141865186Y-84544334D01*
X141957288Y-84693656D01*
X142081344Y-84817712D01*
X142140596Y-84854258D01*
X142187321Y-84906204D01*
X142199500Y-84959797D01*
X142199500Y-85827111D01*
X142179815Y-85894150D01*
X142163181Y-85914792D01*
X142055485Y-86022487D01*
X142055485Y-86022488D01*
X142055483Y-86022490D01*
X142029965Y-86057613D01*
X141916657Y-86213566D01*
X141809433Y-86424003D01*
X141736446Y-86648631D01*
X141699500Y-86881902D01*
X141699500Y-87118097D01*
X141736446Y-87351368D01*
X141809433Y-87575996D01*
X141911921Y-87777139D01*
X141916657Y-87786433D01*
X142055483Y-87977510D01*
X142222490Y-88144517D01*
X142413567Y-88283343D01*
X142512357Y-88333679D01*
X142563152Y-88381652D01*
X142579947Y-88449473D01*
X142557410Y-88515608D01*
X142512357Y-88554647D01*
X142361415Y-88631557D01*
X142259301Y-88705747D01*
X142259300Y-88705748D01*
X142988940Y-89435387D01*
X142968409Y-89440889D01*
X142831592Y-89519881D01*
X142719881Y-89631592D01*
X142640889Y-89768409D01*
X142635387Y-89788940D01*
X141905748Y-89059300D01*
X141905747Y-89059301D01*
X141831559Y-89161413D01*
X141717219Y-89385815D01*
X141639397Y-89625330D01*
X141600000Y-89874071D01*
X135075500Y-89874071D01*
X135075500Y-79017348D01*
X135095185Y-78950309D01*
X135126612Y-78917032D01*
X135245102Y-78830945D01*
X135380945Y-78695102D01*
X135493865Y-78539681D01*
X135581082Y-78368509D01*
X135640447Y-78185801D01*
X135670500Y-77996055D01*
X135670500Y-77962483D01*
X138774500Y-77962483D01*
X138774500Y-78687501D01*
X138774501Y-78687519D01*
X138785000Y-78790296D01*
X138785001Y-78790299D01*
X138840185Y-78956831D01*
X138840187Y-78956836D01*
X138875069Y-79013388D01*
X138932288Y-79106156D01*
X139056344Y-79230212D01*
X139205666Y-79322314D01*
X139372203Y-79377499D01*
X139474991Y-79388000D01*
X140825008Y-79387999D01*
X140927797Y-79377499D01*
X141094334Y-79322314D01*
X141243656Y-79230212D01*
X141362049Y-79111819D01*
X141423372Y-79078334D01*
X141449730Y-79075500D01*
X141900270Y-79075500D01*
X141967309Y-79095185D01*
X141987951Y-79111819D01*
X142106344Y-79230212D01*
X142255666Y-79322314D01*
X142364505Y-79358379D01*
X142421949Y-79398152D01*
X142448772Y-79462667D01*
X142449500Y-79476085D01*
X142449500Y-79778130D01*
X142429815Y-79845169D01*
X142377011Y-79890924D01*
X142364505Y-79895836D01*
X142230666Y-79940186D01*
X142230663Y-79940187D01*
X142081342Y-80032289D01*
X141957289Y-80156342D01*
X141865187Y-80305663D01*
X141865186Y-80305666D01*
X141810001Y-80472203D01*
X141810001Y-80472204D01*
X141810000Y-80472204D01*
X141799500Y-80574983D01*
X141799500Y-81325001D01*
X141799501Y-81325019D01*
X141810000Y-81427796D01*
X141810001Y-81427799D01*
X141855277Y-81564432D01*
X141865186Y-81594334D01*
X141957288Y-81743656D01*
X142081344Y-81867712D01*
X142230666Y-81959814D01*
X142397203Y-82014999D01*
X142499991Y-82025500D01*
X143900008Y-82025499D01*
X144002797Y-82014999D01*
X144169334Y-81959814D01*
X144169334Y-81959813D01*
X144176190Y-81957542D01*
X144176795Y-81959368D01*
X144216798Y-81950500D01*
X145993122Y-81950500D01*
X146060161Y-81970185D01*
X146098659Y-82009401D01*
X146119788Y-82043656D01*
X146243844Y-82167712D01*
X146393166Y-82259814D01*
X146559703Y-82314999D01*
X146662491Y-82325500D01*
X147387508Y-82325499D01*
X147387516Y-82325498D01*
X147387519Y-82325498D01*
X147443802Y-82319748D01*
X147490297Y-82314999D01*
X147656834Y-82259814D01*
X147806156Y-82167712D01*
X147930212Y-82043656D01*
X148022314Y-81894334D01*
X148077499Y-81727797D01*
X148088000Y-81625009D01*
X148087999Y-80274992D01*
X148077499Y-80172203D01*
X148022314Y-80005666D01*
X147930212Y-79856344D01*
X147806156Y-79732288D01*
X147688729Y-79659859D01*
X147656836Y-79640187D01*
X147656831Y-79640185D01*
X147654863Y-79639533D01*
X147490297Y-79585001D01*
X147490295Y-79585000D01*
X147387510Y-79574500D01*
X146662498Y-79574500D01*
X146662480Y-79574501D01*
X146559703Y-79585000D01*
X146559700Y-79585001D01*
X146393168Y-79640185D01*
X146393163Y-79640187D01*
X146243842Y-79732289D01*
X146119789Y-79856342D01*
X146115194Y-79863792D01*
X146102113Y-79885001D01*
X146098661Y-79890597D01*
X146046713Y-79937321D01*
X145993122Y-79949500D01*
X144216798Y-79949500D01*
X144213897Y-79949029D01*
X144212365Y-79949421D01*
X144204215Y-79947460D01*
X144177632Y-79943152D01*
X144170051Y-79940628D01*
X144169334Y-79940186D01*
X144035802Y-79895937D01*
X144035334Y-79895782D01*
X144006578Y-79875814D01*
X143978051Y-79856063D01*
X143978017Y-79855981D01*
X143977944Y-79855931D01*
X143964595Y-79823698D01*
X143951228Y-79791547D01*
X143951220Y-79791402D01*
X143951210Y-79791378D01*
X143951216Y-79791340D01*
X143950500Y-79778130D01*
X143950500Y-79476085D01*
X143970185Y-79409046D01*
X144022989Y-79363291D01*
X144035489Y-79358381D01*
X144144334Y-79322314D01*
X144293656Y-79230212D01*
X144417712Y-79106156D01*
X144509814Y-78956834D01*
X144564999Y-78790297D01*
X144575500Y-78687509D01*
X144575499Y-77962492D01*
X144564999Y-77859703D01*
X144509814Y-77693166D01*
X144417712Y-77543844D01*
X144293656Y-77419788D01*
X144144334Y-77327686D01*
X143977797Y-77272501D01*
X143977795Y-77272500D01*
X143875010Y-77262000D01*
X142524998Y-77262000D01*
X142524981Y-77262001D01*
X142422203Y-77272500D01*
X142422200Y-77272501D01*
X142255668Y-77327685D01*
X142255663Y-77327687D01*
X142106342Y-77419789D01*
X141987951Y-77538181D01*
X141926628Y-77571666D01*
X141900270Y-77574500D01*
X141449730Y-77574500D01*
X141382691Y-77554815D01*
X141362049Y-77538181D01*
X141243657Y-77419789D01*
X141243656Y-77419788D01*
X141094334Y-77327686D01*
X140927797Y-77272501D01*
X140927795Y-77272500D01*
X140825010Y-77262000D01*
X139474998Y-77262000D01*
X139474981Y-77262001D01*
X139372203Y-77272500D01*
X139372200Y-77272501D01*
X139205668Y-77327685D01*
X139205663Y-77327687D01*
X139056342Y-77419789D01*
X138932289Y-77543842D01*
X138840187Y-77693163D01*
X138840185Y-77693168D01*
X138812349Y-77777170D01*
X138785001Y-77859703D01*
X138785001Y-77859704D01*
X138785000Y-77859704D01*
X138774500Y-77962483D01*
X135670500Y-77962483D01*
X135670500Y-77803945D01*
X135640447Y-77614199D01*
X135581523Y-77432847D01*
X135581083Y-77431493D01*
X135528190Y-77327685D01*
X135493865Y-77260319D01*
X135380945Y-77104898D01*
X135245102Y-76969055D01*
X135089681Y-76856135D01*
X134918504Y-76768915D01*
X134853919Y-76747931D01*
X134796243Y-76708494D01*
X134769044Y-76644136D01*
X134780958Y-76575289D01*
X134828202Y-76523813D01*
X134853919Y-76512069D01*
X134918504Y-76491084D01*
X134918506Y-76491082D01*
X134918509Y-76491082D01*
X135089681Y-76403865D01*
X135245102Y-76290945D01*
X135380945Y-76155102D01*
X135380949Y-76155097D01*
X135381923Y-76153958D01*
X135382400Y-76153646D01*
X135384390Y-76151657D01*
X135384808Y-76152075D01*
X135440434Y-76115771D01*
X135476204Y-76110500D01*
X138819500Y-76110500D01*
X138886539Y-76130185D01*
X138925038Y-76169402D01*
X138932288Y-76181156D01*
X139056344Y-76305212D01*
X139205666Y-76397314D01*
X139372203Y-76452499D01*
X139474991Y-76463000D01*
X140825008Y-76462999D01*
X140927797Y-76452499D01*
X141094334Y-76397314D01*
X141243656Y-76305212D01*
X141362049Y-76186819D01*
X141423372Y-76153334D01*
X141449730Y-76150500D01*
X141900270Y-76150500D01*
X141967309Y-76170185D01*
X141987951Y-76186819D01*
X142106344Y-76305212D01*
X142255666Y-76397314D01*
X142422203Y-76452499D01*
X142524991Y-76463000D01*
X143875008Y-76462999D01*
X143977797Y-76452499D01*
X144144334Y-76397314D01*
X144293656Y-76305212D01*
X144417712Y-76181156D01*
X144509814Y-76031834D01*
X144564999Y-75865297D01*
X144575500Y-75762509D01*
X144575499Y-75037492D01*
X144564999Y-74934703D01*
X144509814Y-74768166D01*
X144417712Y-74618844D01*
X144293656Y-74494788D01*
X144144334Y-74402686D01*
X144144332Y-74402685D01*
X144138187Y-74398895D01*
X144139290Y-74397105D01*
X144134069Y-74392506D01*
X144118297Y-74385304D01*
X144108394Y-74369895D01*
X144094649Y-74357790D01*
X144089765Y-74340907D01*
X144080523Y-74326526D01*
X144075500Y-74291591D01*
X144075500Y-74280448D01*
X144095185Y-74213409D01*
X144147989Y-74167654D01*
X144160488Y-74162744D01*
X144169334Y-74159814D01*
X144318656Y-74067712D01*
X144442712Y-73943656D01*
X144534814Y-73794334D01*
X144589999Y-73627797D01*
X144600500Y-73525009D01*
X144600499Y-72774992D01*
X144595288Y-72723984D01*
X144589999Y-72672203D01*
X144589998Y-72672200D01*
X144559398Y-72579855D01*
X144534814Y-72505666D01*
X144442712Y-72356344D01*
X144318656Y-72232288D01*
X144187437Y-72151352D01*
X144168903Y-72139920D01*
X144122179Y-72087972D01*
X144110000Y-72034381D01*
X144110000Y-71315031D01*
X144129685Y-71247992D01*
X144168903Y-71209492D01*
X144318345Y-71117315D01*
X144442315Y-70993345D01*
X144504292Y-70892866D01*
X144534356Y-70844124D01*
X144534358Y-70844119D01*
X144589505Y-70677697D01*
X144589506Y-70677690D01*
X144599999Y-70574986D01*
X144600000Y-70574973D01*
X144600000Y-70450000D01*
X141800001Y-70450000D01*
X141800001Y-70574986D01*
X141810494Y-70677697D01*
X141865641Y-70844119D01*
X141865643Y-70844124D01*
X141957684Y-70993345D01*
X142081654Y-71117315D01*
X142231097Y-71209492D01*
X142277821Y-71261440D01*
X142290000Y-71315031D01*
X142290000Y-72034381D01*
X142270315Y-72101420D01*
X142231097Y-72139920D01*
X142081342Y-72232289D01*
X141957289Y-72356342D01*
X141865187Y-72505663D01*
X141865185Y-72505668D01*
X141842412Y-72574394D01*
X141810001Y-72672203D01*
X141810001Y-72672204D01*
X141810000Y-72672204D01*
X141799500Y-72774983D01*
X141799500Y-73525001D01*
X141799501Y-73525019D01*
X141810000Y-73627796D01*
X141810001Y-73627799D01*
X141865185Y-73794331D01*
X141865186Y-73794334D01*
X141957288Y-73943656D01*
X142081344Y-74067712D01*
X142230666Y-74159814D01*
X142239498Y-74162740D01*
X142259535Y-74176611D01*
X142281703Y-74186735D01*
X142287748Y-74196142D01*
X142296944Y-74202508D01*
X142306301Y-74225011D01*
X142319477Y-74245513D01*
X142321934Y-74262605D01*
X142323771Y-74267022D01*
X142324500Y-74280448D01*
X142324500Y-74291591D01*
X142304815Y-74358630D01*
X142260731Y-74397141D01*
X142261813Y-74398895D01*
X142255667Y-74402685D01*
X142255666Y-74402686D01*
X142212915Y-74429055D01*
X142106342Y-74494789D01*
X141987951Y-74613181D01*
X141926628Y-74646666D01*
X141900270Y-74649500D01*
X141449730Y-74649500D01*
X141382691Y-74629815D01*
X141362049Y-74613181D01*
X141243657Y-74494789D01*
X141243656Y-74494788D01*
X141150888Y-74437569D01*
X141094336Y-74402687D01*
X141094331Y-74402685D01*
X141092862Y-74402198D01*
X140927797Y-74347501D01*
X140927795Y-74347500D01*
X140825010Y-74337000D01*
X139474998Y-74337000D01*
X139474981Y-74337001D01*
X139372203Y-74347500D01*
X139372200Y-74347501D01*
X139205668Y-74402685D01*
X139205663Y-74402687D01*
X139056342Y-74494789D01*
X138977951Y-74573181D01*
X138916628Y-74606666D01*
X138890270Y-74609500D01*
X135476204Y-74609500D01*
X135409165Y-74589815D01*
X135384469Y-74568263D01*
X135384390Y-74568343D01*
X135383226Y-74567179D01*
X135381923Y-74566042D01*
X135380949Y-74564902D01*
X135245104Y-74429057D01*
X135245102Y-74429055D01*
X135089681Y-74316135D01*
X134918509Y-74228918D01*
X134918508Y-74228917D01*
X134918505Y-74228916D01*
X134853108Y-74207667D01*
X134795432Y-74168229D01*
X134768234Y-74103871D01*
X134780149Y-74035024D01*
X134827393Y-73983549D01*
X134853108Y-73971805D01*
X134918319Y-73950616D01*
X135089419Y-73863436D01*
X135118646Y-73842201D01*
X135118646Y-73842200D01*
X134496447Y-73220000D01*
X134502661Y-73220000D01*
X134604394Y-73192741D01*
X134695606Y-73140080D01*
X134770080Y-73065606D01*
X134822741Y-72974394D01*
X134850000Y-72872661D01*
X134850000Y-72866446D01*
X135472200Y-73488646D01*
X135472201Y-73488646D01*
X135493436Y-73459419D01*
X135580616Y-73288321D01*
X135639959Y-73105684D01*
X135670000Y-72916015D01*
X135670000Y-72723984D01*
X135639959Y-72534315D01*
X135580616Y-72351678D01*
X135493434Y-72180577D01*
X135472201Y-72151352D01*
X135472200Y-72151351D01*
X134850000Y-72773552D01*
X134850000Y-72767339D01*
X134822741Y-72665606D01*
X134770080Y-72574394D01*
X134695606Y-72499920D01*
X134604394Y-72447259D01*
X134502661Y-72420000D01*
X134496447Y-72420000D01*
X135118646Y-71797798D01*
X135089415Y-71776561D01*
X134918321Y-71689383D01*
X134735684Y-71630040D01*
X134546015Y-71600000D01*
X134353985Y-71600000D01*
X134164315Y-71630040D01*
X133981678Y-71689383D01*
X133810578Y-71776564D01*
X133781352Y-71797798D01*
X133781351Y-71797798D01*
X134403554Y-72420000D01*
X134397339Y-72420000D01*
X134295606Y-72447259D01*
X134204394Y-72499920D01*
X134129920Y-72574394D01*
X134077259Y-72665606D01*
X134050000Y-72767339D01*
X134050000Y-72773553D01*
X133427798Y-72151351D01*
X133427798Y-72151352D01*
X133406564Y-72180578D01*
X133319383Y-72351678D01*
X133260040Y-72534315D01*
X133230000Y-72723984D01*
X133230000Y-72916015D01*
X133260040Y-73105684D01*
X133319383Y-73288321D01*
X133406561Y-73459415D01*
X133427798Y-73488646D01*
X134050000Y-72866445D01*
X134050000Y-72872661D01*
X134077259Y-72974394D01*
X134129920Y-73065606D01*
X134204394Y-73140080D01*
X134295606Y-73192741D01*
X134397339Y-73220000D01*
X134403554Y-73220000D01*
X133781351Y-73842200D01*
X133781352Y-73842201D01*
X133810577Y-73863434D01*
X133981680Y-73950616D01*
X134046891Y-73971805D01*
X134104567Y-74011242D01*
X134131765Y-74075601D01*
X134119850Y-74144447D01*
X134072606Y-74195923D01*
X134046892Y-74207667D01*
X133981492Y-74228917D01*
X133810318Y-74316135D01*
X133736325Y-74369895D01*
X133654898Y-74429055D01*
X133654896Y-74429057D01*
X133654895Y-74429057D01*
X133519057Y-74564895D01*
X133519057Y-74564896D01*
X133519055Y-74564898D01*
X133500952Y-74589815D01*
X133406135Y-74720318D01*
X133318916Y-74891493D01*
X133259553Y-75074197D01*
X133229500Y-75263945D01*
X133229500Y-75456054D01*
X133259553Y-75645802D01*
X133318916Y-75828506D01*
X133406135Y-75999681D01*
X133519055Y-76155102D01*
X133654898Y-76290945D01*
X133810319Y-76403865D01*
X133981491Y-76491082D01*
X133981493Y-76491083D01*
X134046081Y-76512069D01*
X134103756Y-76551506D01*
X134130955Y-76615865D01*
X134119041Y-76684711D01*
X134071797Y-76736187D01*
X134046081Y-76747931D01*
X133981493Y-76768916D01*
X133810318Y-76856135D01*
X133721645Y-76920560D01*
X133654898Y-76969055D01*
X133654896Y-76969057D01*
X133654895Y-76969057D01*
X133519057Y-77104895D01*
X133519057Y-77104896D01*
X133519055Y-77104898D01*
X133472845Y-77168500D01*
X133406135Y-77260318D01*
X133318916Y-77431493D01*
X133259553Y-77614197D01*
X133229500Y-77803945D01*
X133229500Y-77996054D01*
X133259553Y-78185802D01*
X133318916Y-78368506D01*
X133363235Y-78455485D01*
X133406135Y-78539681D01*
X133519055Y-78695102D01*
X133654898Y-78830945D01*
X133773386Y-78917031D01*
X133816051Y-78972359D01*
X133824500Y-79017348D01*
X133824500Y-93139547D01*
X133804815Y-93206586D01*
X133788181Y-93227228D01*
X129951269Y-97064140D01*
X129951267Y-97064142D01*
X129921753Y-97093656D01*
X129864141Y-97151267D01*
X129849008Y-97173914D01*
X129849009Y-97173915D01*
X129795689Y-97253712D01*
X129795685Y-97253719D01*
X129782907Y-97284569D01*
X129782905Y-97284575D01*
X129779898Y-97291836D01*
X129748537Y-97367548D01*
X129724500Y-97488394D01*
X115500500Y-97488394D01*
X115500500Y-92881947D01*
X125700000Y-92881947D01*
X125700000Y-93118052D01*
X125736934Y-93351247D01*
X125809897Y-93575802D01*
X125917087Y-93786174D01*
X125977338Y-93869104D01*
X125977340Y-93869105D01*
X126717037Y-93129408D01*
X126734075Y-93192993D01*
X126799901Y-93307007D01*
X126892993Y-93400099D01*
X127007007Y-93465925D01*
X127070590Y-93482962D01*
X126330893Y-94222658D01*
X126413828Y-94282914D01*
X126624197Y-94390102D01*
X126848752Y-94463065D01*
X126848751Y-94463065D01*
X127081948Y-94500000D01*
X127318052Y-94500000D01*
X127551247Y-94463065D01*
X127775802Y-94390102D01*
X127986163Y-94282918D01*
X127986169Y-94282914D01*
X128069104Y-94222658D01*
X128069105Y-94222658D01*
X127329408Y-93482962D01*
X127392993Y-93465925D01*
X127507007Y-93400099D01*
X127600099Y-93307007D01*
X127665925Y-93192993D01*
X127682962Y-93129409D01*
X128422658Y-93869105D01*
X128422658Y-93869104D01*
X128482914Y-93786169D01*
X128482918Y-93786163D01*
X128590102Y-93575802D01*
X128663065Y-93351247D01*
X128700000Y-93118052D01*
X128700000Y-92881947D01*
X128663065Y-92648752D01*
X128590102Y-92424197D01*
X128482914Y-92213828D01*
X128422658Y-92130894D01*
X128422658Y-92130893D01*
X127682962Y-92870590D01*
X127665925Y-92807007D01*
X127600099Y-92692993D01*
X127507007Y-92599901D01*
X127392993Y-92534075D01*
X127329409Y-92517037D01*
X128069105Y-91777340D01*
X128069104Y-91777338D01*
X127986174Y-91717087D01*
X127775802Y-91609897D01*
X127551247Y-91536934D01*
X127551248Y-91536934D01*
X127318052Y-91500000D01*
X127081948Y-91500000D01*
X126848752Y-91536934D01*
X126624197Y-91609897D01*
X126413830Y-91717084D01*
X126330894Y-91777340D01*
X127070591Y-92517037D01*
X127007007Y-92534075D01*
X126892993Y-92599901D01*
X126799901Y-92692993D01*
X126734075Y-92807007D01*
X126717037Y-92870591D01*
X125977340Y-92130894D01*
X125917084Y-92213830D01*
X125809897Y-92424197D01*
X125736934Y-92648752D01*
X125700000Y-92881947D01*
X115500500Y-92881947D01*
X115500500Y-84382014D01*
X116150000Y-84382014D01*
X116150000Y-84617985D01*
X116180799Y-84851914D01*
X116241870Y-85079837D01*
X116332160Y-85297819D01*
X116332165Y-85297828D01*
X116450144Y-85502171D01*
X116450145Y-85502172D01*
X116512721Y-85583723D01*
X117234152Y-84862292D01*
X117241049Y-84878942D01*
X117328599Y-85009970D01*
X117440030Y-85121401D01*
X117571058Y-85208951D01*
X117587706Y-85215846D01*
X116866275Y-85937277D01*
X116947827Y-85999854D01*
X116947828Y-85999855D01*
X117152171Y-86117834D01*
X117152180Y-86117839D01*
X117370163Y-86208129D01*
X117370161Y-86208129D01*
X117598085Y-86269200D01*
X117832014Y-86299999D01*
X117832029Y-86300000D01*
X118067971Y-86300000D01*
X118067985Y-86299999D01*
X118301914Y-86269200D01*
X118529837Y-86208129D01*
X118747819Y-86117839D01*
X118747828Y-86117834D01*
X118823602Y-86074086D01*
X118891502Y-86057613D01*
X118957529Y-86080465D01*
X119000720Y-86135386D01*
X119007362Y-86204939D01*
X119000164Y-86228925D01*
X118928842Y-86401111D01*
X118928842Y-86401112D01*
X118869453Y-86622759D01*
X118869451Y-86622770D01*
X118839500Y-86850258D01*
X118839500Y-87079741D01*
X118864446Y-87269215D01*
X118869452Y-87307238D01*
X118928842Y-87528887D01*
X119016650Y-87740876D01*
X119016656Y-87740888D01*
X119092278Y-87871870D01*
X119111315Y-87904842D01*
X119127788Y-87972742D01*
X119104935Y-88038769D01*
X119050014Y-88081960D01*
X118980461Y-88088601D01*
X118941928Y-88074229D01*
X118747835Y-87962168D01*
X118747819Y-87962160D01*
X118529836Y-87871870D01*
X118529838Y-87871870D01*
X118301914Y-87810799D01*
X118067985Y-87780000D01*
X117832014Y-87780000D01*
X117598085Y-87810799D01*
X117370162Y-87871870D01*
X117152180Y-87962160D01*
X117152171Y-87962165D01*
X116947828Y-88080144D01*
X116947818Y-88080150D01*
X116866275Y-88142720D01*
X116866275Y-88142721D01*
X117587706Y-88864152D01*
X117571058Y-88871049D01*
X117440030Y-88958599D01*
X117328599Y-89070030D01*
X117241049Y-89201058D01*
X117234152Y-89217706D01*
X116512721Y-88496275D01*
X116512720Y-88496275D01*
X116450150Y-88577818D01*
X116450144Y-88577828D01*
X116332165Y-88782171D01*
X116332160Y-88782180D01*
X116241870Y-89000162D01*
X116180799Y-89228085D01*
X116150000Y-89462014D01*
X116150000Y-89697985D01*
X116180799Y-89931914D01*
X116241870Y-90159837D01*
X116332160Y-90377819D01*
X116332165Y-90377828D01*
X116450144Y-90582171D01*
X116450145Y-90582172D01*
X116512721Y-90663723D01*
X117234152Y-89942292D01*
X117241049Y-89958942D01*
X117328599Y-90089970D01*
X117440030Y-90201401D01*
X117571058Y-90288951D01*
X117587706Y-90295846D01*
X116866275Y-91017277D01*
X116947827Y-91079854D01*
X116947828Y-91079855D01*
X117152171Y-91197834D01*
X117152180Y-91197839D01*
X117370163Y-91288129D01*
X117370161Y-91288129D01*
X117598085Y-91349200D01*
X117832014Y-91379999D01*
X117832029Y-91380000D01*
X118067971Y-91380000D01*
X118067985Y-91379999D01*
X118301914Y-91349200D01*
X118529837Y-91288129D01*
X118747819Y-91197839D01*
X118747828Y-91197834D01*
X118952181Y-91079850D01*
X119033723Y-91017279D01*
X119033723Y-91017276D01*
X118312293Y-90295847D01*
X118328942Y-90288951D01*
X118459970Y-90201401D01*
X118571401Y-90089970D01*
X118658951Y-89958942D01*
X118665847Y-89942293D01*
X119387276Y-90663723D01*
X119387279Y-90663723D01*
X119449850Y-90582181D01*
X119567834Y-90377828D01*
X119567839Y-90377819D01*
X119658129Y-90159837D01*
X119719200Y-89931914D01*
X119749999Y-89697985D01*
X119750000Y-89697971D01*
X119750000Y-89462028D01*
X119749999Y-89462014D01*
X119719200Y-89228085D01*
X119658129Y-89000162D01*
X119567839Y-88782180D01*
X119567834Y-88782171D01*
X119464920Y-88603921D01*
X119448447Y-88536021D01*
X119471299Y-88469994D01*
X119526220Y-88426803D01*
X119595773Y-88420161D01*
X119634302Y-88434531D01*
X119814112Y-88538344D01*
X119814117Y-88538346D01*
X119814123Y-88538349D01*
X119887721Y-88568834D01*
X120026113Y-88626158D01*
X120247762Y-88685548D01*
X120475266Y-88715500D01*
X120475273Y-88715500D01*
X120704727Y-88715500D01*
X120704734Y-88715500D01*
X120932238Y-88685548D01*
X121153887Y-88626158D01*
X121274247Y-88576302D01*
X121343714Y-88568834D01*
X121406194Y-88600109D01*
X121441846Y-88660198D01*
X121439353Y-88730023D01*
X121429086Y-88752863D01*
X121412166Y-88782169D01*
X121412160Y-88782180D01*
X121321870Y-89000162D01*
X121260799Y-89228085D01*
X121230000Y-89462014D01*
X121230000Y-89697985D01*
X121260799Y-89931914D01*
X121321870Y-90159837D01*
X121412160Y-90377819D01*
X121412165Y-90377828D01*
X121530144Y-90582171D01*
X121530145Y-90582172D01*
X121592721Y-90663723D01*
X122314152Y-89942291D01*
X122321049Y-89958942D01*
X122408599Y-90089970D01*
X122520030Y-90201401D01*
X122651058Y-90288951D01*
X122667706Y-90295846D01*
X121946275Y-91017277D01*
X122027827Y-91079854D01*
X122027828Y-91079855D01*
X122232171Y-91197834D01*
X122232180Y-91197839D01*
X122450163Y-91288129D01*
X122450161Y-91288129D01*
X122678085Y-91349200D01*
X122912014Y-91379999D01*
X122912029Y-91380000D01*
X123147971Y-91380000D01*
X123147985Y-91379999D01*
X123381914Y-91349200D01*
X123609837Y-91288129D01*
X123827819Y-91197839D01*
X123827828Y-91197834D01*
X124032181Y-91079850D01*
X124113723Y-91017279D01*
X124113723Y-91017276D01*
X123392293Y-90295847D01*
X123408942Y-90288951D01*
X123539970Y-90201401D01*
X123651401Y-90089970D01*
X123738951Y-89958942D01*
X123745846Y-89942293D01*
X124467276Y-90663723D01*
X124467279Y-90663723D01*
X124529850Y-90582181D01*
X124647834Y-90377828D01*
X124647839Y-90377819D01*
X124738129Y-90159837D01*
X124799200Y-89931914D01*
X124829999Y-89697985D01*
X124830000Y-89697971D01*
X124830000Y-89462028D01*
X124829999Y-89462014D01*
X124799200Y-89228085D01*
X124738129Y-89000162D01*
X124647839Y-88782180D01*
X124647834Y-88782171D01*
X124529855Y-88577828D01*
X124529849Y-88577819D01*
X124431760Y-88449986D01*
X124406566Y-88384817D01*
X124420604Y-88316372D01*
X124469418Y-88266383D01*
X124530136Y-88250500D01*
X126328072Y-88250500D01*
X126395111Y-88270185D01*
X126400957Y-88274182D01*
X126412247Y-88282384D01*
X126413567Y-88283343D01*
X126547659Y-88351666D01*
X126624003Y-88390566D01*
X126624005Y-88390566D01*
X126624008Y-88390568D01*
X126744412Y-88429689D01*
X126848631Y-88463553D01*
X127081903Y-88500500D01*
X127081908Y-88500500D01*
X127318097Y-88500500D01*
X127551368Y-88463553D01*
X127775992Y-88390568D01*
X127986433Y-88283343D01*
X128177510Y-88144517D01*
X128344517Y-87977510D01*
X128483343Y-87786433D01*
X128590568Y-87575992D01*
X128663553Y-87351368D01*
X128670542Y-87307240D01*
X128700500Y-87118097D01*
X128700500Y-86881902D01*
X128663553Y-86648631D01*
X128605221Y-86469105D01*
X128590568Y-86424008D01*
X128590566Y-86424005D01*
X128590566Y-86424003D01*
X128483342Y-86213566D01*
X128455905Y-86175802D01*
X128344517Y-86022490D01*
X128177510Y-85855483D01*
X127986433Y-85716657D01*
X127775996Y-85609433D01*
X127551368Y-85536446D01*
X127318097Y-85499500D01*
X127318092Y-85499500D01*
X127081908Y-85499500D01*
X127081903Y-85499500D01*
X126848631Y-85536446D01*
X126624003Y-85609433D01*
X126413563Y-85716659D01*
X126400957Y-85725818D01*
X126335151Y-85749298D01*
X126328072Y-85749500D01*
X124591522Y-85749500D01*
X124524483Y-85729815D01*
X124478728Y-85677011D01*
X124468784Y-85607853D01*
X124493146Y-85550014D01*
X124529849Y-85502180D01*
X124529855Y-85502171D01*
X124647834Y-85297828D01*
X124647839Y-85297819D01*
X124738129Y-85079837D01*
X124799200Y-84851914D01*
X124829999Y-84617985D01*
X124830000Y-84617971D01*
X124830000Y-84382028D01*
X124829999Y-84382014D01*
X124799200Y-84148085D01*
X124738129Y-83920162D01*
X124647839Y-83702180D01*
X124647834Y-83702171D01*
X124529855Y-83497828D01*
X124529854Y-83497827D01*
X124467277Y-83416275D01*
X123745846Y-84137705D01*
X123738951Y-84121058D01*
X123651401Y-83990030D01*
X123539970Y-83878599D01*
X123408942Y-83791049D01*
X123392293Y-83784152D01*
X124113723Y-83062721D01*
X124032172Y-83000145D01*
X124032171Y-83000144D01*
X123827828Y-82882165D01*
X123827819Y-82882160D01*
X123609836Y-82791870D01*
X123609838Y-82791870D01*
X123381914Y-82730799D01*
X123147985Y-82700000D01*
X122912014Y-82700000D01*
X122678085Y-82730799D01*
X122450162Y-82791870D01*
X122232180Y-82882160D01*
X122232171Y-82882165D01*
X122027828Y-83000144D01*
X122027818Y-83000150D01*
X121946275Y-83062720D01*
X121946275Y-83062721D01*
X122667706Y-83784152D01*
X122651058Y-83791049D01*
X122520030Y-83878599D01*
X122408599Y-83990030D01*
X122321049Y-84121058D01*
X122314152Y-84137706D01*
X121592721Y-83416275D01*
X121592720Y-83416275D01*
X121530150Y-83497818D01*
X121530144Y-83497828D01*
X121412165Y-83702171D01*
X121412160Y-83702180D01*
X121321870Y-83920162D01*
X121260799Y-84148085D01*
X121230000Y-84382014D01*
X121230000Y-84617985D01*
X121260799Y-84851914D01*
X121321870Y-85079837D01*
X121354102Y-85157653D01*
X121361571Y-85227123D01*
X121330295Y-85289602D01*
X121270206Y-85325253D01*
X121200381Y-85322759D01*
X121192101Y-85319671D01*
X121153887Y-85303842D01*
X121153885Y-85303841D01*
X121153884Y-85303841D01*
X121088035Y-85286197D01*
X120932238Y-85244452D01*
X120894215Y-85239446D01*
X120704741Y-85214500D01*
X120704734Y-85214500D01*
X120475266Y-85214500D01*
X120475258Y-85214500D01*
X120258715Y-85243009D01*
X120247762Y-85244452D01*
X120155187Y-85269257D01*
X120026112Y-85303842D01*
X119814123Y-85391650D01*
X119814106Y-85391659D01*
X119755696Y-85425381D01*
X119687796Y-85441852D01*
X119621769Y-85418999D01*
X119578580Y-85364077D01*
X119571939Y-85294524D01*
X119579137Y-85270540D01*
X119658130Y-85079834D01*
X119719200Y-84851914D01*
X119749999Y-84617985D01*
X119750000Y-84617971D01*
X119750000Y-84382028D01*
X119749999Y-84382014D01*
X119719200Y-84148085D01*
X119658129Y-83920162D01*
X119567839Y-83702180D01*
X119567834Y-83702171D01*
X119449855Y-83497828D01*
X119449854Y-83497827D01*
X119387277Y-83416275D01*
X118665846Y-84137706D01*
X118658951Y-84121058D01*
X118571401Y-83990030D01*
X118459970Y-83878599D01*
X118328942Y-83791049D01*
X118312293Y-83784152D01*
X119033723Y-83062721D01*
X118952172Y-83000145D01*
X118952171Y-83000144D01*
X118747828Y-82882165D01*
X118747819Y-82882160D01*
X118529836Y-82791870D01*
X118529838Y-82791870D01*
X118301914Y-82730799D01*
X118067985Y-82700000D01*
X117832014Y-82700000D01*
X117598085Y-82730799D01*
X117370162Y-82791870D01*
X117152180Y-82882160D01*
X117152171Y-82882165D01*
X116947828Y-83000144D01*
X116947818Y-83000150D01*
X116866275Y-83062720D01*
X116866275Y-83062721D01*
X117587706Y-83784152D01*
X117571058Y-83791049D01*
X117440030Y-83878599D01*
X117328599Y-83990030D01*
X117241049Y-84121058D01*
X117234152Y-84137706D01*
X116512721Y-83416275D01*
X116512720Y-83416275D01*
X116450150Y-83497818D01*
X116450144Y-83497828D01*
X116332165Y-83702171D01*
X116332160Y-83702180D01*
X116241870Y-83920162D01*
X116180799Y-84148085D01*
X116150000Y-84382014D01*
X115500500Y-84382014D01*
X115500500Y-69825013D01*
X141800000Y-69825013D01*
X141800000Y-69950000D01*
X142950000Y-69950000D01*
X143450000Y-69950000D01*
X144599999Y-69950000D01*
X144599999Y-69825028D01*
X144599998Y-69825013D01*
X144589505Y-69722302D01*
X144534358Y-69555880D01*
X144534356Y-69555875D01*
X144442315Y-69406654D01*
X144318345Y-69282684D01*
X144169124Y-69190643D01*
X144169119Y-69190641D01*
X144002697Y-69135494D01*
X144002690Y-69135493D01*
X143899986Y-69125000D01*
X143450000Y-69125000D01*
X143450000Y-69950000D01*
X142950000Y-69950000D01*
X142950000Y-69125000D01*
X142500028Y-69125000D01*
X142500012Y-69125001D01*
X142397302Y-69135494D01*
X142230880Y-69190641D01*
X142230875Y-69190643D01*
X142081654Y-69282684D01*
X141957684Y-69406654D01*
X141865643Y-69555875D01*
X141865641Y-69555880D01*
X141810494Y-69722302D01*
X141810493Y-69722309D01*
X141800000Y-69825013D01*
X115500500Y-69825013D01*
X115500500Y-58814437D01*
X115750000Y-58814437D01*
X115750000Y-59185562D01*
X115782345Y-59555267D01*
X115782345Y-59555271D01*
X115846787Y-59920735D01*
X115846791Y-59920752D01*
X115942837Y-60279206D01*
X116069775Y-60627963D01*
X116226607Y-60964292D01*
X116226615Y-60964307D01*
X116412166Y-61285690D01*
X116412175Y-61285705D01*
X116625040Y-61589707D01*
X116822005Y-61824439D01*
X116822006Y-61824440D01*
X118313098Y-60333348D01*
X118380076Y-60420635D01*
X118579365Y-60619924D01*
X118666650Y-60686900D01*
X117175558Y-62177992D01*
X117175559Y-62177993D01*
X117410292Y-62374959D01*
X117714294Y-62587824D01*
X117714309Y-62587833D01*
X118035692Y-62773384D01*
X118035707Y-62773392D01*
X118372036Y-62930224D01*
X118720793Y-63057162D01*
X119079247Y-63153208D01*
X119079264Y-63153212D01*
X119444730Y-63217654D01*
X119814437Y-63249999D01*
X119814440Y-63250000D01*
X120185560Y-63250000D01*
X120185562Y-63249999D01*
X120555267Y-63217654D01*
X120555271Y-63217654D01*
X120920735Y-63153212D01*
X120920752Y-63153208D01*
X121279206Y-63057162D01*
X121627963Y-62930224D01*
X121964292Y-62773392D01*
X121964307Y-62773384D01*
X122285690Y-62587833D01*
X122285705Y-62587824D01*
X122589700Y-62374964D01*
X122824439Y-62177993D01*
X122824440Y-62177992D01*
X122501833Y-61855385D01*
X150999500Y-61855385D01*
X150999500Y-61875235D01*
X150999500Y-62287615D01*
X151033412Y-62718513D01*
X151101028Y-63145422D01*
X151201930Y-63565710D01*
X151201934Y-63565721D01*
X151335494Y-63976780D01*
X151406887Y-64149138D01*
X151500904Y-64376115D01*
X151595985Y-64562721D01*
X151697136Y-64761240D01*
X151697142Y-64761251D01*
X151922966Y-65129762D01*
X151922971Y-65129769D01*
X151922973Y-65129772D01*
X152040147Y-65291049D01*
X152177025Y-65479446D01*
X152177035Y-65479460D01*
X152319656Y-65646446D01*
X152457743Y-65808124D01*
X152763376Y-66113757D01*
X152763382Y-66113762D01*
X153092039Y-66394464D01*
X153092046Y-66394469D01*
X153441728Y-66648527D01*
X153441732Y-66648529D01*
X153441737Y-66648533D01*
X153810248Y-66874357D01*
X153810254Y-66874360D01*
X153810265Y-66874367D01*
X154195385Y-67070596D01*
X154594714Y-67236003D01*
X154594719Y-67236005D01*
X154699240Y-67269965D01*
X155005790Y-67369570D01*
X155426078Y-67470472D01*
X155852987Y-67538088D01*
X156283885Y-67572000D01*
X156283893Y-67572000D01*
X156716107Y-67572000D01*
X156716115Y-67572000D01*
X157147013Y-67538088D01*
X157573922Y-67470472D01*
X157994210Y-67369570D01*
X158238276Y-67290267D01*
X158296365Y-67271394D01*
X158405280Y-67236005D01*
X158405280Y-67236004D01*
X158405286Y-67236003D01*
X158804615Y-67070596D01*
X159189735Y-66874367D01*
X159558272Y-66648527D01*
X159907954Y-66394469D01*
X160236624Y-66113757D01*
X160468367Y-65882014D01*
X171800000Y-65882014D01*
X171800000Y-66117985D01*
X171830799Y-66351914D01*
X171891870Y-66579837D01*
X171982160Y-66797819D01*
X171982165Y-66797828D01*
X172100144Y-67002171D01*
X172100145Y-67002172D01*
X172162721Y-67083723D01*
X172884152Y-66362292D01*
X172891049Y-66378942D01*
X172978599Y-66509970D01*
X173090030Y-66621401D01*
X173221058Y-66708951D01*
X173237706Y-66715846D01*
X172516275Y-67437277D01*
X172597827Y-67499854D01*
X172597828Y-67499855D01*
X172802171Y-67617834D01*
X172802180Y-67617839D01*
X173020163Y-67708129D01*
X173020161Y-67708129D01*
X173248085Y-67769200D01*
X173482014Y-67799999D01*
X173482029Y-67800000D01*
X173717971Y-67800000D01*
X173717985Y-67799999D01*
X173951914Y-67769200D01*
X174179837Y-67708129D01*
X174397819Y-67617839D01*
X174397828Y-67617834D01*
X174473602Y-67574086D01*
X174541502Y-67557613D01*
X174607529Y-67580465D01*
X174650720Y-67635386D01*
X174657362Y-67704939D01*
X174650164Y-67728925D01*
X174578842Y-67901111D01*
X174578842Y-67901112D01*
X174519453Y-68122759D01*
X174519451Y-68122770D01*
X174489500Y-68350258D01*
X174489500Y-68579741D01*
X174514446Y-68769215D01*
X174519452Y-68807238D01*
X174519453Y-68807240D01*
X174578842Y-69028887D01*
X174666650Y-69240876D01*
X174666656Y-69240888D01*
X174742278Y-69371870D01*
X174761315Y-69404842D01*
X174777788Y-69472742D01*
X174754935Y-69538769D01*
X174700014Y-69581960D01*
X174630461Y-69588601D01*
X174591928Y-69574229D01*
X174397835Y-69462168D01*
X174397819Y-69462160D01*
X174179836Y-69371870D01*
X174179838Y-69371870D01*
X173951914Y-69310799D01*
X173717985Y-69280000D01*
X173482014Y-69280000D01*
X173248085Y-69310799D01*
X173020162Y-69371870D01*
X172802180Y-69462160D01*
X172802171Y-69462165D01*
X172597828Y-69580144D01*
X172597818Y-69580150D01*
X172516275Y-69642720D01*
X172516275Y-69642721D01*
X173237706Y-70364152D01*
X173221058Y-70371049D01*
X173090030Y-70458599D01*
X172978599Y-70570030D01*
X172891049Y-70701058D01*
X172884152Y-70717706D01*
X172162721Y-69996275D01*
X172162720Y-69996275D01*
X172100150Y-70077818D01*
X172100144Y-70077828D01*
X171982165Y-70282171D01*
X171982160Y-70282180D01*
X171891870Y-70500162D01*
X171830799Y-70728085D01*
X171800000Y-70962014D01*
X171800000Y-71197985D01*
X171830799Y-71431914D01*
X171891870Y-71659837D01*
X171982160Y-71877819D01*
X171982165Y-71877828D01*
X172100144Y-72082171D01*
X172100145Y-72082172D01*
X172162721Y-72163723D01*
X172884152Y-71442292D01*
X172891049Y-71458942D01*
X172978599Y-71589970D01*
X173090030Y-71701401D01*
X173221058Y-71788951D01*
X173237706Y-71795846D01*
X172516275Y-72517277D01*
X172597827Y-72579854D01*
X172597828Y-72579855D01*
X172802171Y-72697834D01*
X172802180Y-72697839D01*
X173020163Y-72788129D01*
X173020161Y-72788129D01*
X173248085Y-72849200D01*
X173482014Y-72879999D01*
X173482029Y-72880000D01*
X173717971Y-72880000D01*
X173717985Y-72879999D01*
X173951914Y-72849200D01*
X174179837Y-72788129D01*
X174397819Y-72697839D01*
X174397828Y-72697834D01*
X174602181Y-72579850D01*
X174683723Y-72517279D01*
X174683723Y-72517276D01*
X173962293Y-71795847D01*
X173978942Y-71788951D01*
X174109970Y-71701401D01*
X174221401Y-71589970D01*
X174308951Y-71458942D01*
X174315847Y-71442293D01*
X175037276Y-72163723D01*
X175037279Y-72163723D01*
X175099850Y-72082181D01*
X175217834Y-71877828D01*
X175217839Y-71877819D01*
X175308129Y-71659837D01*
X175369200Y-71431914D01*
X175399999Y-71197985D01*
X175400000Y-71197971D01*
X175400000Y-70962028D01*
X175399999Y-70962014D01*
X175369200Y-70728085D01*
X175308129Y-70500162D01*
X175217839Y-70282180D01*
X175217834Y-70282171D01*
X175114920Y-70103921D01*
X175098447Y-70036021D01*
X175121299Y-69969994D01*
X175176220Y-69926803D01*
X175245773Y-69920161D01*
X175284302Y-69934531D01*
X175464112Y-70038344D01*
X175464117Y-70038346D01*
X175464123Y-70038349D01*
X175537721Y-70068834D01*
X175676113Y-70126158D01*
X175897762Y-70185548D01*
X176125266Y-70215500D01*
X176125273Y-70215500D01*
X176354727Y-70215500D01*
X176354734Y-70215500D01*
X176582238Y-70185548D01*
X176803887Y-70126158D01*
X176924247Y-70076302D01*
X176993714Y-70068834D01*
X177056194Y-70100109D01*
X177091846Y-70160198D01*
X177089353Y-70230023D01*
X177079086Y-70252863D01*
X177062166Y-70282169D01*
X177062160Y-70282180D01*
X176971870Y-70500162D01*
X176910799Y-70728085D01*
X176880000Y-70962014D01*
X176880000Y-71197985D01*
X176910799Y-71431914D01*
X176971870Y-71659837D01*
X177062160Y-71877819D01*
X177062165Y-71877828D01*
X177180144Y-72082171D01*
X177180145Y-72082172D01*
X177242721Y-72163723D01*
X177964152Y-71442292D01*
X177971049Y-71458942D01*
X178058599Y-71589970D01*
X178170030Y-71701401D01*
X178301058Y-71788951D01*
X178317706Y-71795846D01*
X177596275Y-72517277D01*
X177677827Y-72579854D01*
X177677828Y-72579855D01*
X177882171Y-72697834D01*
X177882180Y-72697839D01*
X178100163Y-72788129D01*
X178100161Y-72788129D01*
X178328085Y-72849200D01*
X178562014Y-72879999D01*
X178562029Y-72880000D01*
X178797971Y-72880000D01*
X178797985Y-72879999D01*
X179031914Y-72849200D01*
X179259837Y-72788129D01*
X179477819Y-72697839D01*
X179477828Y-72697834D01*
X179682181Y-72579850D01*
X179763723Y-72517279D01*
X179763723Y-72517276D01*
X179042293Y-71795847D01*
X179058942Y-71788951D01*
X179189970Y-71701401D01*
X179301401Y-71589970D01*
X179388951Y-71458942D01*
X179395846Y-71442293D01*
X180117276Y-72163723D01*
X180117279Y-72163723D01*
X180179850Y-72082181D01*
X180297834Y-71877828D01*
X180297839Y-71877819D01*
X180388129Y-71659837D01*
X180449200Y-71431914D01*
X180479999Y-71197985D01*
X180480000Y-71197971D01*
X180480000Y-70962028D01*
X180479999Y-70962014D01*
X180449200Y-70728085D01*
X180388129Y-70500162D01*
X180297839Y-70282180D01*
X180297834Y-70282171D01*
X180179855Y-70077828D01*
X180179854Y-70077827D01*
X180117277Y-69996275D01*
X179395846Y-70717705D01*
X179388951Y-70701058D01*
X179301401Y-70570030D01*
X179189970Y-70458599D01*
X179058942Y-70371049D01*
X179042292Y-70364152D01*
X179763723Y-69642721D01*
X179682172Y-69580145D01*
X179682171Y-69580144D01*
X179477828Y-69462165D01*
X179477819Y-69462160D01*
X179259836Y-69371870D01*
X179259838Y-69371870D01*
X179031914Y-69310799D01*
X178797985Y-69280000D01*
X178562014Y-69280000D01*
X178328085Y-69310799D01*
X178100162Y-69371870D01*
X177961286Y-69429394D01*
X177891817Y-69436863D01*
X177829338Y-69405587D01*
X177793686Y-69345498D01*
X177796180Y-69275673D01*
X177806449Y-69252830D01*
X177813344Y-69240888D01*
X177901158Y-69028887D01*
X177960548Y-68807238D01*
X177990500Y-68579734D01*
X177990500Y-68350266D01*
X177960548Y-68122762D01*
X177901158Y-67901113D01*
X177878010Y-67845230D01*
X177870542Y-67775763D01*
X177901817Y-67713284D01*
X177961906Y-67677632D01*
X178031731Y-67680126D01*
X178040025Y-67683219D01*
X178100165Y-67708130D01*
X178328085Y-67769200D01*
X178562014Y-67799999D01*
X178562029Y-67800000D01*
X178797971Y-67800000D01*
X178797985Y-67799999D01*
X179031914Y-67769200D01*
X179259837Y-67708129D01*
X179477819Y-67617839D01*
X179477828Y-67617834D01*
X179682181Y-67499850D01*
X179763723Y-67437279D01*
X179763723Y-67437276D01*
X179042293Y-66715847D01*
X179058942Y-66708951D01*
X179189970Y-66621401D01*
X179301401Y-66509970D01*
X179388951Y-66378942D01*
X179395846Y-66362293D01*
X180117276Y-67083723D01*
X180117279Y-67083723D01*
X180179850Y-67002181D01*
X180297834Y-66797828D01*
X180297839Y-66797819D01*
X180388129Y-66579837D01*
X180449200Y-66351914D01*
X180479999Y-66117985D01*
X180480000Y-66117971D01*
X180480000Y-65882028D01*
X180479999Y-65882014D01*
X180449200Y-65648085D01*
X180388129Y-65420162D01*
X180297839Y-65202180D01*
X180297834Y-65202171D01*
X180179855Y-64997828D01*
X180179854Y-64997827D01*
X180117277Y-64916275D01*
X179395846Y-65637705D01*
X179388951Y-65621058D01*
X179301401Y-65490030D01*
X179189970Y-65378599D01*
X179058942Y-65291049D01*
X179042293Y-65284152D01*
X179763723Y-64562721D01*
X179682172Y-64500145D01*
X179682171Y-64500144D01*
X179477828Y-64382165D01*
X179477819Y-64382160D01*
X179259836Y-64291870D01*
X179259838Y-64291870D01*
X179031914Y-64230799D01*
X178797985Y-64200000D01*
X178562014Y-64200000D01*
X178328085Y-64230799D01*
X178100162Y-64291870D01*
X177882180Y-64382160D01*
X177882171Y-64382165D01*
X177677828Y-64500144D01*
X177677818Y-64500150D01*
X177596275Y-64562720D01*
X177596275Y-64562721D01*
X178317706Y-65284152D01*
X178301058Y-65291049D01*
X178170030Y-65378599D01*
X178058599Y-65490030D01*
X177971049Y-65621058D01*
X177964152Y-65637706D01*
X177242721Y-64916275D01*
X177242720Y-64916275D01*
X177180150Y-64997818D01*
X177180144Y-64997828D01*
X177062165Y-65202171D01*
X177062160Y-65202180D01*
X176971870Y-65420162D01*
X176910799Y-65648085D01*
X176880000Y-65882014D01*
X176880000Y-66117985D01*
X176910799Y-66351914D01*
X176971870Y-66579837D01*
X177004102Y-66657653D01*
X177011571Y-66727123D01*
X176980295Y-66789602D01*
X176920206Y-66825253D01*
X176850381Y-66822759D01*
X176842101Y-66819671D01*
X176803887Y-66803842D01*
X176803885Y-66803841D01*
X176803884Y-66803841D01*
X176738035Y-66786197D01*
X176582238Y-66744452D01*
X176544215Y-66739446D01*
X176354741Y-66714500D01*
X176354734Y-66714500D01*
X176125266Y-66714500D01*
X176125258Y-66714500D01*
X175908715Y-66743009D01*
X175897762Y-66744452D01*
X175805187Y-66769257D01*
X175676112Y-66803842D01*
X175464123Y-66891650D01*
X175464106Y-66891659D01*
X175405696Y-66925381D01*
X175337796Y-66941852D01*
X175271769Y-66918999D01*
X175228580Y-66864077D01*
X175221939Y-66794524D01*
X175229137Y-66770540D01*
X175308130Y-66579834D01*
X175369200Y-66351914D01*
X175399999Y-66117985D01*
X175400000Y-66117971D01*
X175400000Y-65882028D01*
X175399999Y-65882014D01*
X175369200Y-65648085D01*
X175308129Y-65420162D01*
X175217839Y-65202180D01*
X175217834Y-65202171D01*
X175099855Y-64997828D01*
X175099854Y-64997827D01*
X175037277Y-64916275D01*
X174315846Y-65637706D01*
X174308951Y-65621058D01*
X174221401Y-65490030D01*
X174109970Y-65378599D01*
X173978942Y-65291049D01*
X173962293Y-65284152D01*
X174683723Y-64562721D01*
X174602172Y-64500145D01*
X174602171Y-64500144D01*
X174397828Y-64382165D01*
X174397819Y-64382160D01*
X174179836Y-64291870D01*
X174179838Y-64291870D01*
X173951914Y-64230799D01*
X173717985Y-64200000D01*
X173482014Y-64200000D01*
X173248085Y-64230799D01*
X173020162Y-64291870D01*
X172802180Y-64382160D01*
X172802171Y-64382165D01*
X172597828Y-64500144D01*
X172597818Y-64500150D01*
X172516275Y-64562720D01*
X172516275Y-64562721D01*
X173237706Y-65284152D01*
X173221058Y-65291049D01*
X173090030Y-65378599D01*
X172978599Y-65490030D01*
X172891049Y-65621058D01*
X172884152Y-65637706D01*
X172162721Y-64916275D01*
X172162720Y-64916275D01*
X172100150Y-64997818D01*
X172100144Y-64997828D01*
X171982165Y-65202171D01*
X171982160Y-65202180D01*
X171891870Y-65420162D01*
X171830799Y-65648085D01*
X171800000Y-65882014D01*
X160468367Y-65882014D01*
X160542257Y-65808124D01*
X160577681Y-65766649D01*
X160822964Y-65479460D01*
X160822964Y-65479459D01*
X160822969Y-65479454D01*
X161077027Y-65129772D01*
X161302867Y-64761235D01*
X161499096Y-64376115D01*
X161664503Y-63976786D01*
X161798070Y-63565710D01*
X161898972Y-63145422D01*
X161966588Y-62718513D01*
X162000500Y-62287615D01*
X162000500Y-61855385D01*
X161966588Y-61424487D01*
X161898972Y-60997578D01*
X161798070Y-60577290D01*
X161664503Y-60166214D01*
X161499096Y-59766885D01*
X161302867Y-59381765D01*
X161182634Y-59185562D01*
X161077033Y-59013237D01*
X161077029Y-59013232D01*
X161077027Y-59013228D01*
X160932597Y-58814437D01*
X175750000Y-58814437D01*
X175750000Y-59185562D01*
X175782345Y-59555267D01*
X175782345Y-59555271D01*
X175846787Y-59920735D01*
X175846791Y-59920752D01*
X175942837Y-60279206D01*
X176069775Y-60627963D01*
X176226607Y-60964292D01*
X176226615Y-60964307D01*
X176412166Y-61285690D01*
X176412175Y-61285705D01*
X176625040Y-61589707D01*
X176822005Y-61824439D01*
X176822006Y-61824440D01*
X178313098Y-60333348D01*
X178380076Y-60420635D01*
X178579365Y-60619924D01*
X178666650Y-60686900D01*
X177175558Y-62177992D01*
X177175559Y-62177993D01*
X177410292Y-62374959D01*
X177714294Y-62587824D01*
X177714309Y-62587833D01*
X178035692Y-62773384D01*
X178035707Y-62773392D01*
X178372036Y-62930224D01*
X178720793Y-63057162D01*
X179079247Y-63153208D01*
X179079264Y-63153212D01*
X179444730Y-63217654D01*
X179814437Y-63249999D01*
X179814440Y-63250000D01*
X180185560Y-63250000D01*
X180185562Y-63249999D01*
X180555267Y-63217654D01*
X180555271Y-63217654D01*
X180920735Y-63153212D01*
X180920752Y-63153208D01*
X181279206Y-63057162D01*
X181627963Y-62930224D01*
X181964292Y-62773392D01*
X181964307Y-62773384D01*
X182285690Y-62587833D01*
X182285705Y-62587824D01*
X182589700Y-62374964D01*
X182824439Y-62177993D01*
X182824440Y-62177992D01*
X181333348Y-60686901D01*
X181420635Y-60619924D01*
X181619924Y-60420635D01*
X181686900Y-60333348D01*
X183177992Y-61824440D01*
X183177993Y-61824439D01*
X183374964Y-61589700D01*
X183587824Y-61285705D01*
X183587833Y-61285690D01*
X183773384Y-60964307D01*
X183773392Y-60964292D01*
X183930224Y-60627963D01*
X184057162Y-60279206D01*
X184153208Y-59920752D01*
X184153212Y-59920735D01*
X184217654Y-59555271D01*
X184217654Y-59555267D01*
X184249999Y-59185562D01*
X184250000Y-59185560D01*
X184250000Y-58814440D01*
X184249999Y-58814437D01*
X184217654Y-58444732D01*
X184217654Y-58444728D01*
X184153212Y-58079264D01*
X184153208Y-58079247D01*
X184057162Y-57720793D01*
X183930224Y-57372036D01*
X183773392Y-57035707D01*
X183773384Y-57035692D01*
X183587833Y-56714309D01*
X183587824Y-56714294D01*
X183374959Y-56410292D01*
X183177993Y-56175559D01*
X183177992Y-56175558D01*
X181686900Y-57666650D01*
X181619924Y-57579365D01*
X181420635Y-57380076D01*
X181333347Y-57313098D01*
X182824440Y-55822006D01*
X182824439Y-55822005D01*
X182589707Y-55625040D01*
X182285705Y-55412175D01*
X182285690Y-55412166D01*
X181964307Y-55226615D01*
X181964292Y-55226607D01*
X181627963Y-55069775D01*
X181279206Y-54942837D01*
X180920752Y-54846791D01*
X180920735Y-54846787D01*
X180555269Y-54782345D01*
X180185562Y-54750000D01*
X179814437Y-54750000D01*
X179444732Y-54782345D01*
X179444728Y-54782345D01*
X179079264Y-54846787D01*
X179079247Y-54846791D01*
X178720793Y-54942837D01*
X178372036Y-55069775D01*
X178035707Y-55226607D01*
X178035692Y-55226615D01*
X177714309Y-55412166D01*
X177714294Y-55412175D01*
X177410292Y-55625040D01*
X177175559Y-55822005D01*
X177175558Y-55822006D01*
X178666651Y-57313098D01*
X178579365Y-57380076D01*
X178380076Y-57579365D01*
X178313098Y-57666651D01*
X176822006Y-56175558D01*
X176822005Y-56175559D01*
X176625040Y-56410292D01*
X176412175Y-56714294D01*
X176412166Y-56714309D01*
X176226615Y-57035692D01*
X176226607Y-57035707D01*
X176069775Y-57372036D01*
X175942837Y-57720793D01*
X175846791Y-58079247D01*
X175846787Y-58079264D01*
X175782345Y-58444728D01*
X175782345Y-58444732D01*
X175750000Y-58814437D01*
X160932597Y-58814437D01*
X160822969Y-58663546D01*
X160822964Y-58663539D01*
X160542262Y-58334882D01*
X160542257Y-58334876D01*
X160236624Y-58029243D01*
X160102283Y-57914504D01*
X159907960Y-57748535D01*
X159907946Y-57748525D01*
X159558273Y-57494474D01*
X159558262Y-57494466D01*
X159189751Y-57268642D01*
X159189740Y-57268636D01*
X159189739Y-57268635D01*
X159189735Y-57268633D01*
X158804615Y-57072404D01*
X158676677Y-57019410D01*
X158405280Y-56906994D01*
X158112796Y-56811961D01*
X157994210Y-56773430D01*
X157573922Y-56672528D01*
X157147013Y-56604912D01*
X156716120Y-56571000D01*
X156716115Y-56571000D01*
X156283885Y-56571000D01*
X156283879Y-56571000D01*
X155852986Y-56604912D01*
X155852985Y-56604912D01*
X155426083Y-56672527D01*
X155426080Y-56672527D01*
X155426078Y-56672528D01*
X155275562Y-56708663D01*
X155005801Y-56773427D01*
X155005795Y-56773428D01*
X155005790Y-56773430D01*
X155005778Y-56773434D01*
X154594719Y-56906994D01*
X154195387Y-57072403D01*
X153810259Y-57268636D01*
X153810248Y-57268642D01*
X153441737Y-57494466D01*
X153441726Y-57494474D01*
X153092053Y-57748525D01*
X153092039Y-57748535D01*
X152763382Y-58029237D01*
X152763368Y-58029250D01*
X152457750Y-58334868D01*
X152457737Y-58334882D01*
X152177035Y-58663539D01*
X152177025Y-58663553D01*
X151922974Y-59013226D01*
X151922966Y-59013237D01*
X151697142Y-59381748D01*
X151697136Y-59381759D01*
X151500903Y-59766887D01*
X151335494Y-60166219D01*
X151201934Y-60577278D01*
X151201927Y-60577301D01*
X151168035Y-60718474D01*
X151116673Y-60932414D01*
X151101027Y-60997583D01*
X151033412Y-61424485D01*
X151033412Y-61424486D01*
X151005965Y-61773244D01*
X150999500Y-61855385D01*
X122501833Y-61855385D01*
X121333348Y-60686901D01*
X121420635Y-60619924D01*
X121619924Y-60420635D01*
X121686900Y-60333348D01*
X123177992Y-61824440D01*
X123177993Y-61824439D01*
X123220952Y-61773244D01*
X123374964Y-61589700D01*
X123587824Y-61285705D01*
X123587833Y-61285690D01*
X123773384Y-60964307D01*
X123773392Y-60964292D01*
X123930224Y-60627963D01*
X124057162Y-60279206D01*
X124153208Y-59920752D01*
X124153212Y-59920735D01*
X124217654Y-59555271D01*
X124217654Y-59555267D01*
X124249999Y-59185562D01*
X124250000Y-59185560D01*
X124250000Y-58814440D01*
X124249999Y-58814437D01*
X124217654Y-58444732D01*
X124217654Y-58444728D01*
X124153212Y-58079264D01*
X124153208Y-58079247D01*
X124057162Y-57720793D01*
X123930224Y-57372036D01*
X123773392Y-57035707D01*
X123773384Y-57035692D01*
X123587833Y-56714309D01*
X123587824Y-56714294D01*
X123374959Y-56410292D01*
X123177993Y-56175559D01*
X123177992Y-56175558D01*
X121686900Y-57666650D01*
X121619924Y-57579365D01*
X121420635Y-57380076D01*
X121333347Y-57313098D01*
X122824440Y-55822006D01*
X122824439Y-55822005D01*
X122589707Y-55625040D01*
X122285705Y-55412175D01*
X122285690Y-55412166D01*
X121964307Y-55226615D01*
X121964292Y-55226607D01*
X121627963Y-55069775D01*
X121279206Y-54942837D01*
X120920752Y-54846791D01*
X120920735Y-54846787D01*
X120555269Y-54782345D01*
X120185562Y-54750000D01*
X119814437Y-54750000D01*
X119444732Y-54782345D01*
X119444728Y-54782345D01*
X119079264Y-54846787D01*
X119079247Y-54846791D01*
X118720793Y-54942837D01*
X118372036Y-55069775D01*
X118035707Y-55226607D01*
X118035692Y-55226615D01*
X117714309Y-55412166D01*
X117714294Y-55412175D01*
X117410292Y-55625040D01*
X117175559Y-55822005D01*
X117175558Y-55822006D01*
X118666651Y-57313098D01*
X118579365Y-57380076D01*
X118380076Y-57579365D01*
X118313098Y-57666651D01*
X116822006Y-56175558D01*
X116822005Y-56175559D01*
X116625040Y-56410292D01*
X116412175Y-56714294D01*
X116412166Y-56714309D01*
X116226615Y-57035692D01*
X116226607Y-57035707D01*
X116069775Y-57372036D01*
X115942837Y-57720793D01*
X115846791Y-58079247D01*
X115846787Y-58079264D01*
X115782345Y-58444728D01*
X115782345Y-58444732D01*
X115750000Y-58814437D01*
X115500500Y-58814437D01*
X115500500Y-54624500D01*
X115520185Y-54557461D01*
X115572989Y-54511706D01*
X115624500Y-54500500D01*
X185375500Y-54500500D01*
X185442539Y-54520185D01*
G37*
G04 #@! TD.AperFunction*
M02*
