G04 #@! TF.GenerationSoftware,KiCad,Pcbnew,9.0.2*
G04 #@! TF.CreationDate,2025-07-05T19:17:48-04:00*
G04 #@! TF.ProjectId,t41_2_power_amplifier,7434315f-325f-4706-9f77-65725f616d70,1.7*
G04 #@! TF.SameCoordinates,Original*
G04 #@! TF.FileFunction,Soldermask,Bot*
G04 #@! TF.FilePolarity,Negative*
%FSLAX46Y46*%
G04 Gerber Fmt 4.6, Leading zero omitted, Abs format (unit mm)*
G04 Created by KiCad (PCBNEW 9.0.2) date 2025-07-05 19:17:48*
%MOMM*%
%LPD*%
G01*
G04 APERTURE LIST*
G04 Aperture macros list*
%AMRoundRect*
0 Rectangle with rounded corners*
0 $1 Rounding radius*
0 $2 $3 $4 $5 $6 $7 $8 $9 X,Y pos of 4 corners*
0 Add a 4 corners polygon primitive as box body*
4,1,4,$2,$3,$4,$5,$6,$7,$8,$9,$2,$3,0*
0 Add four circle primitives for the rounded corners*
1,1,$1+$1,$2,$3*
1,1,$1+$1,$4,$5*
1,1,$1+$1,$6,$7*
1,1,$1+$1,$8,$9*
0 Add four rect primitives between the rounded corners*
20,1,$1+$1,$2,$3,$4,$5,0*
20,1,$1+$1,$4,$5,$6,$7,0*
20,1,$1+$1,$6,$7,$8,$9,0*
20,1,$1+$1,$8,$9,$2,$3,0*%
G04 Aperture macros list end*
%ADD10C,1.440000*%
%ADD11C,2.000000*%
%ADD12C,2.200000*%
%ADD13C,1.905000*%
%ADD14C,7.500000*%
%ADD15C,2.100000*%
%ADD16C,2.600000*%
%ADD17C,2.500000*%
%ADD18RoundRect,0.250001X-0.949999X0.949999X-0.949999X-0.949999X0.949999X-0.949999X0.949999X0.949999X0*%
%ADD19C,2.400000*%
%ADD20RoundRect,0.250000X-0.650000X0.325000X-0.650000X-0.325000X0.650000X-0.325000X0.650000X0.325000X0*%
%ADD21RoundRect,0.250000X0.650000X-0.325000X0.650000X0.325000X-0.650000X0.325000X-0.650000X-0.325000X0*%
G04 APERTURE END LIST*
D10*
X134450000Y-77900000D03*
X134450000Y-75360000D03*
X134450000Y-72820000D03*
D11*
X127200000Y-87000000D03*
X127200000Y-93000000D03*
X143200000Y-93000000D03*
D12*
X143200000Y-90000000D03*
D11*
X143200000Y-87000000D03*
D13*
X152500000Y-78621500D03*
X155000000Y-78621500D03*
X157500000Y-78621500D03*
D14*
X180000000Y-59000000D03*
D15*
X161300000Y-94400000D03*
X161300000Y-100400000D03*
D11*
X181300000Y-100400000D03*
X181300000Y-94400000D03*
D10*
X132700000Y-105550000D03*
X132700000Y-103010000D03*
X132700000Y-100470000D03*
D15*
X161300000Y-79600000D03*
X161300000Y-85600000D03*
D11*
X181300000Y-85600000D03*
X181300000Y-79600000D03*
D14*
X120500000Y-59000000D03*
X180000000Y-142000000D03*
D16*
X172200000Y-66000000D03*
X172200000Y-71080000D03*
X177280000Y-66000000D03*
X177280000Y-71080000D03*
D17*
X174840000Y-68465000D03*
D13*
X157500000Y-101837500D03*
X155000000Y-101837500D03*
X152500000Y-101837500D03*
D18*
X123600000Y-127800000D03*
D19*
X123600000Y-132800000D03*
D16*
X117950000Y-84500000D03*
X117950000Y-89580000D03*
X123030000Y-84500000D03*
X123030000Y-89580000D03*
D17*
X120590000Y-86965000D03*
D15*
X120900000Y-117500000D03*
X120900000Y-120000000D03*
D14*
X120500000Y-142000000D03*
X143000000Y-118000000D03*
D11*
X150000000Y-87000000D03*
D12*
X150000000Y-90000000D03*
D11*
X150000000Y-93000000D03*
D20*
X153500000Y-91500000D03*
X153500000Y-94450000D03*
D21*
X153500000Y-88500000D03*
X153500000Y-85550000D03*
M02*
