G04 #@! TF.GenerationSoftware,KiCad,Pcbnew,8.0.6*
G04 #@! TF.CreationDate,2024-12-01T17:41:07-05:00*
G04 #@! TF.ProjectId,t41_2_power_amplifier,7434315f-325f-4706-9f77-65725f616d70,rev?*
G04 #@! TF.SameCoordinates,Original*
G04 #@! TF.FileFunction,Copper,L2,Bot*
G04 #@! TF.FilePolarity,Positive*
%FSLAX46Y46*%
G04 Gerber Fmt 4.6, Leading zero omitted, Abs format (unit mm)*
G04 Created by KiCad (PCBNEW 8.0.6) date 2024-12-01 17:41:07*
%MOMM*%
%LPD*%
G01*
G04 APERTURE LIST*
G04 Aperture macros list*
%AMRoundRect*
0 Rectangle with rounded corners*
0 $1 Rounding radius*
0 $2 $3 $4 $5 $6 $7 $8 $9 X,Y pos of 4 corners*
0 Add a 4 corners polygon primitive as box body*
4,1,4,$2,$3,$4,$5,$6,$7,$8,$9,$2,$3,0*
0 Add four circle primitives for the rounded corners*
1,1,$1+$1,$2,$3*
1,1,$1+$1,$4,$5*
1,1,$1+$1,$6,$7*
1,1,$1+$1,$8,$9*
0 Add four rect primitives between the rounded corners*
20,1,$1+$1,$2,$3,$4,$5,0*
20,1,$1+$1,$4,$5,$6,$7,0*
20,1,$1+$1,$6,$7,$8,$9,0*
20,1,$1+$1,$8,$9,$2,$3,0*%
G04 Aperture macros list end*
G04 #@! TA.AperFunction,SMDPad,CuDef*
%ADD10RoundRect,0.250000X-0.650000X0.325000X-0.650000X-0.325000X0.650000X-0.325000X0.650000X0.325000X0*%
G04 #@! TD*
G04 #@! TA.AperFunction,ComponentPad*
%ADD11C,2.000000*%
G04 #@! TD*
G04 #@! TA.AperFunction,ComponentPad*
%ADD12C,1.440000*%
G04 #@! TD*
G04 #@! TA.AperFunction,ComponentPad*
%ADD13C,7.500000*%
G04 #@! TD*
G04 #@! TA.AperFunction,ComponentPad*
%ADD14C,2.600000*%
G04 #@! TD*
G04 #@! TA.AperFunction,ComponentPad*
%ADD15C,2.500000*%
G04 #@! TD*
G04 #@! TA.AperFunction,ComponentPad*
%ADD16R,2.400000X2.400000*%
G04 #@! TD*
G04 #@! TA.AperFunction,ComponentPad*
%ADD17C,2.400000*%
G04 #@! TD*
G04 #@! TA.AperFunction,ComponentPad*
%ADD18C,2.100000*%
G04 #@! TD*
G04 #@! TA.AperFunction,SMDPad,CuDef*
%ADD19RoundRect,0.250000X0.650000X-0.325000X0.650000X0.325000X-0.650000X0.325000X-0.650000X-0.325000X0*%
G04 #@! TD*
G04 #@! TA.AperFunction,ViaPad*
%ADD20C,1.000000*%
G04 #@! TD*
G04 #@! TA.AperFunction,Conductor*
%ADD21C,0.250000*%
G04 #@! TD*
G04 #@! TA.AperFunction,Conductor*
%ADD22C,1.500000*%
G04 #@! TD*
G04 #@! TA.AperFunction,Conductor*
%ADD23C,1.000000*%
G04 #@! TD*
G04 APERTURE END LIST*
D10*
X154600000Y-91500000D03*
X154600000Y-94450000D03*
D11*
X127200000Y-87000000D03*
X127200000Y-93000000D03*
X143200000Y-93000000D03*
X143200000Y-90000000D03*
X143200000Y-87000000D03*
D12*
X134450000Y-77900000D03*
X134450000Y-75360000D03*
X134450000Y-72820000D03*
D13*
X195000000Y-59000000D03*
D12*
X132700000Y-105550000D03*
X132700000Y-103010000D03*
X132700000Y-100470000D03*
D11*
X159000000Y-83000000D03*
X159000000Y-97000000D03*
X197000000Y-97000000D03*
X197000000Y-83000000D03*
D13*
X120000000Y-59000000D03*
X195000000Y-142000000D03*
D14*
X191650000Y-67535000D03*
X191650000Y-72615000D03*
X196730000Y-67535000D03*
X196730000Y-72615000D03*
D15*
X194290000Y-70000000D03*
D16*
X122300000Y-127800000D03*
D17*
X122300000Y-132800000D03*
D14*
X117950000Y-84500000D03*
X117950000Y-89580000D03*
X123030000Y-84500000D03*
X123030000Y-89580000D03*
D15*
X120590000Y-86965000D03*
D18*
X119995000Y-117500000D03*
X119995000Y-120000000D03*
D13*
X120000000Y-142000000D03*
D11*
X151000000Y-87000000D03*
X151000000Y-90000000D03*
X151000000Y-93000000D03*
D19*
X154650000Y-88500000D03*
X154650000Y-85550000D03*
D20*
X150000000Y-123400000D03*
X168200000Y-129800000D03*
X169400000Y-118300000D03*
X160000000Y-56100000D03*
X153200000Y-56000000D03*
X174600000Y-134800000D03*
X170200000Y-134800000D03*
X163650000Y-90000000D03*
X166000000Y-90000000D03*
X164800000Y-90000000D03*
X164500000Y-98800000D03*
X151700000Y-84850000D03*
X196900000Y-99900000D03*
X161500000Y-78400000D03*
X145100000Y-79300000D03*
X163550000Y-113550000D03*
X149350000Y-100300000D03*
X193700000Y-82200000D03*
X150150000Y-103600000D03*
X156500000Y-79900000D03*
X163500000Y-65800000D03*
X163750000Y-134100000D03*
X160150000Y-98800000D03*
X149300000Y-65850000D03*
X149600000Y-113450000D03*
X163550000Y-105650000D03*
X156500000Y-77200000D03*
X196200000Y-76700000D03*
X153000000Y-97800000D03*
X152100000Y-100300000D03*
X194300000Y-97000000D03*
X192300000Y-76700000D03*
X144800000Y-112000000D03*
X156500000Y-81700000D03*
X152050000Y-77200000D03*
X164150000Y-92000000D03*
X134250000Y-104350000D03*
X141400000Y-79900000D03*
X133150000Y-88650000D03*
X160850000Y-103300000D03*
X197200000Y-80700000D03*
X154550000Y-81750000D03*
X143200000Y-68300000D03*
X157000000Y-84950000D03*
X156500000Y-103350000D03*
X149600000Y-76000000D03*
X152450000Y-94750000D03*
X169400000Y-90700000D03*
X157800000Y-98800000D03*
X156150000Y-137300000D03*
X151300000Y-78300000D03*
X141750000Y-100700000D03*
X133200000Y-82100000D03*
X132795000Y-120700000D03*
X151500000Y-130250000D03*
X160150000Y-133200000D03*
X160900000Y-101800000D03*
X194700000Y-83200000D03*
X154650000Y-96200000D03*
X150800000Y-99700000D03*
X145300000Y-82750000D03*
X146600000Y-125200000D03*
X156500000Y-78491000D03*
X140300000Y-107600000D03*
X156500000Y-99000000D03*
X138400000Y-119300000D03*
X152150000Y-133200000D03*
X163900000Y-130400000D03*
X160700000Y-85450000D03*
X163850000Y-87900000D03*
X152050000Y-79400000D03*
X156500000Y-100400000D03*
X160950000Y-77200000D03*
X135700000Y-88650000D03*
X169400000Y-98000000D03*
X129000000Y-97900000D03*
X160250000Y-93100000D03*
X157100000Y-95100000D03*
X169400000Y-105600000D03*
X136000000Y-76800000D03*
X197000000Y-94200000D03*
X196200000Y-79700000D03*
X163500000Y-123200000D03*
X131000000Y-106500000D03*
X144500000Y-122200000D03*
X160850000Y-100300000D03*
X160950000Y-79600000D03*
X196900000Y-85300000D03*
X154650000Y-83700000D03*
X141250000Y-97300000D03*
X144800000Y-115400000D03*
X169700000Y-112900000D03*
X131295000Y-117500000D03*
X143300000Y-120950000D03*
X150900000Y-101950000D03*
X152200000Y-101950000D03*
X159000000Y-100400000D03*
X149600000Y-101950000D03*
X159000000Y-102800000D03*
X159000000Y-101600000D03*
D21*
X135707500Y-120950000D02*
X143300000Y-120950000D01*
X131295000Y-117500000D02*
X132257500Y-117500000D01*
X132257500Y-117500000D02*
X135707500Y-120950000D01*
D22*
X163650000Y-90000000D02*
X164800000Y-90000000D01*
D23*
X154650000Y-88500000D02*
X154650000Y-91500000D01*
D22*
X154250000Y-90000000D02*
X163650000Y-90000000D01*
X164800000Y-90000000D02*
X166000000Y-90000000D01*
X151000000Y-90000000D02*
X154250000Y-90000000D01*
D21*
X158150000Y-103750000D02*
X159800000Y-103750000D01*
D23*
X159000000Y-101959000D02*
X159000000Y-100400000D01*
X149600000Y-101950000D02*
X150900000Y-101950000D01*
X150900000Y-101950000D02*
X152200000Y-101950000D01*
X152200000Y-101950000D02*
X158991000Y-101950000D01*
X158991000Y-101950000D02*
X159000000Y-101959000D01*
X159000000Y-102800000D02*
X159000000Y-101600000D01*
G04 #@! TA.AperFunction,Conductor*
G36*
X199442539Y-54520185D02*
G01*
X199488294Y-54572989D01*
X199499500Y-54624500D01*
X199499500Y-58927373D01*
X199479815Y-58994412D01*
X199471757Y-59001393D01*
X199496005Y-59043392D01*
X199499500Y-59072626D01*
X199499500Y-141927373D01*
X199479815Y-141994412D01*
X199471757Y-142001393D01*
X199496005Y-142043392D01*
X199499500Y-142072626D01*
X199499500Y-146375500D01*
X199479815Y-146442539D01*
X199427011Y-146488294D01*
X199375500Y-146499500D01*
X115624500Y-146499500D01*
X115557461Y-146479815D01*
X115511706Y-146427011D01*
X115500500Y-146375500D01*
X115500500Y-142072626D01*
X115520185Y-142005587D01*
X115523400Y-142002801D01*
X115721054Y-142002801D01*
X115743477Y-142037691D01*
X115748360Y-142066726D01*
X115764447Y-142404450D01*
X115822071Y-142805231D01*
X115917531Y-143198722D01*
X115917534Y-143198733D01*
X116049956Y-143581340D01*
X116049966Y-143581365D01*
X116218168Y-143949675D01*
X116420621Y-144300335D01*
X116420627Y-144300343D01*
X116655485Y-144630154D01*
X116822985Y-144823460D01*
X118313098Y-143333347D01*
X118380076Y-143420635D01*
X118579365Y-143619924D01*
X118666650Y-143686900D01*
X117174928Y-145178622D01*
X117213676Y-145215568D01*
X117213695Y-145215585D01*
X117531968Y-145465877D01*
X117872594Y-145684782D01*
X118232485Y-145870319D01*
X118608383Y-146020806D01*
X118608395Y-146020810D01*
X118996882Y-146134880D01*
X118996899Y-146134884D01*
X119394460Y-146211508D01*
X119394472Y-146211510D01*
X119797554Y-146250000D01*
X120202446Y-146250000D01*
X120605527Y-146211510D01*
X120605539Y-146211508D01*
X121003100Y-146134884D01*
X121003117Y-146134880D01*
X121391604Y-146020810D01*
X121391616Y-146020806D01*
X121767507Y-145870322D01*
X121767511Y-145870320D01*
X122127406Y-145684782D01*
X122468031Y-145465877D01*
X122786314Y-145215578D01*
X122825069Y-145178622D01*
X121333348Y-143686901D01*
X121420635Y-143619924D01*
X121619924Y-143420635D01*
X121686901Y-143333348D01*
X123177012Y-144823459D01*
X123344512Y-144630156D01*
X123344523Y-144630143D01*
X123579372Y-144300343D01*
X123579378Y-144300335D01*
X123781831Y-143949675D01*
X123950033Y-143581365D01*
X123950043Y-143581340D01*
X124082465Y-143198733D01*
X124082468Y-143198722D01*
X124177928Y-142805231D01*
X124235552Y-142404450D01*
X124254818Y-142000000D01*
X190745181Y-142000000D01*
X190764447Y-142404450D01*
X190822071Y-142805231D01*
X190917531Y-143198722D01*
X190917534Y-143198733D01*
X191049956Y-143581340D01*
X191049966Y-143581365D01*
X191218168Y-143949675D01*
X191420621Y-144300335D01*
X191420627Y-144300343D01*
X191655485Y-144630154D01*
X191822985Y-144823460D01*
X193313098Y-143333347D01*
X193380076Y-143420635D01*
X193579365Y-143619924D01*
X193666650Y-143686900D01*
X192174928Y-145178622D01*
X192213676Y-145215568D01*
X192213695Y-145215585D01*
X192531968Y-145465877D01*
X192872594Y-145684782D01*
X193232485Y-145870319D01*
X193608383Y-146020806D01*
X193608395Y-146020810D01*
X193996882Y-146134880D01*
X193996899Y-146134884D01*
X194394460Y-146211508D01*
X194394472Y-146211510D01*
X194797554Y-146250000D01*
X195202446Y-146250000D01*
X195605527Y-146211510D01*
X195605539Y-146211508D01*
X196003100Y-146134884D01*
X196003117Y-146134880D01*
X196391604Y-146020810D01*
X196391616Y-146020806D01*
X196767507Y-145870322D01*
X196767511Y-145870320D01*
X197127406Y-145684782D01*
X197468031Y-145465877D01*
X197786314Y-145215578D01*
X197825069Y-145178622D01*
X196333348Y-143686901D01*
X196420635Y-143619924D01*
X196619924Y-143420635D01*
X196686901Y-143333348D01*
X198177012Y-144823459D01*
X198344512Y-144630156D01*
X198344523Y-144630143D01*
X198579372Y-144300343D01*
X198579378Y-144300335D01*
X198781831Y-143949675D01*
X198950033Y-143581365D01*
X198950043Y-143581340D01*
X199082465Y-143198733D01*
X199082468Y-143198722D01*
X199177928Y-142805231D01*
X199235552Y-142404450D01*
X199251640Y-142066726D01*
X199274493Y-142000699D01*
X199278945Y-141997197D01*
X199256523Y-141962308D01*
X199251640Y-141933273D01*
X199235552Y-141595549D01*
X199177928Y-141194768D01*
X199082468Y-140801277D01*
X199082465Y-140801266D01*
X198950043Y-140418659D01*
X198950033Y-140418634D01*
X198781831Y-140050324D01*
X198579378Y-139699664D01*
X198579372Y-139699656D01*
X198344523Y-139369856D01*
X198344512Y-139369843D01*
X198177013Y-139176538D01*
X196686900Y-140666650D01*
X196619924Y-140579365D01*
X196420635Y-140380076D01*
X196333348Y-140313098D01*
X197825070Y-138821376D01*
X197786323Y-138784431D01*
X197786304Y-138784414D01*
X197468031Y-138534122D01*
X197127406Y-138315217D01*
X196767511Y-138129679D01*
X196767507Y-138129677D01*
X196391616Y-137979193D01*
X196391604Y-137979189D01*
X196003117Y-137865119D01*
X196003100Y-137865115D01*
X195605539Y-137788491D01*
X195605527Y-137788489D01*
X195202446Y-137750000D01*
X194797554Y-137750000D01*
X194394472Y-137788489D01*
X194394460Y-137788491D01*
X193996899Y-137865115D01*
X193996882Y-137865119D01*
X193608395Y-137979189D01*
X193608383Y-137979193D01*
X193232485Y-138129680D01*
X192872594Y-138315217D01*
X192531968Y-138534122D01*
X192213685Y-138784421D01*
X192213673Y-138784432D01*
X192174929Y-138821375D01*
X192174929Y-138821376D01*
X193666651Y-140313098D01*
X193579365Y-140380076D01*
X193380076Y-140579365D01*
X193313098Y-140666651D01*
X191822986Y-139176539D01*
X191655485Y-139369845D01*
X191420627Y-139699656D01*
X191420621Y-139699664D01*
X191218168Y-140050324D01*
X191049966Y-140418634D01*
X191049956Y-140418659D01*
X190917534Y-140801266D01*
X190917531Y-140801277D01*
X190822071Y-141194768D01*
X190764447Y-141595549D01*
X190745181Y-142000000D01*
X124254818Y-142000000D01*
X124235552Y-141595549D01*
X124177928Y-141194768D01*
X124082468Y-140801277D01*
X124082465Y-140801266D01*
X123950043Y-140418659D01*
X123950033Y-140418634D01*
X123781831Y-140050324D01*
X123579378Y-139699664D01*
X123579372Y-139699656D01*
X123344523Y-139369856D01*
X123344512Y-139369843D01*
X123177013Y-139176538D01*
X121686900Y-140666650D01*
X121619924Y-140579365D01*
X121420635Y-140380076D01*
X121333348Y-140313098D01*
X122825070Y-138821376D01*
X122786323Y-138784431D01*
X122786304Y-138784414D01*
X122468031Y-138534122D01*
X122127406Y-138315217D01*
X121767511Y-138129679D01*
X121767507Y-138129677D01*
X121391616Y-137979193D01*
X121391604Y-137979189D01*
X121003117Y-137865119D01*
X121003100Y-137865115D01*
X120605539Y-137788491D01*
X120605527Y-137788489D01*
X120202446Y-137750000D01*
X119797554Y-137750000D01*
X119394472Y-137788489D01*
X119394460Y-137788491D01*
X118996899Y-137865115D01*
X118996882Y-137865119D01*
X118608395Y-137979189D01*
X118608383Y-137979193D01*
X118232485Y-138129680D01*
X117872594Y-138315217D01*
X117531968Y-138534122D01*
X117213685Y-138784421D01*
X117213673Y-138784432D01*
X117174929Y-138821375D01*
X117174929Y-138821376D01*
X118666651Y-140313098D01*
X118579365Y-140380076D01*
X118380076Y-140579365D01*
X118313098Y-140666651D01*
X116822986Y-139176539D01*
X116655485Y-139369845D01*
X116420627Y-139699656D01*
X116420621Y-139699664D01*
X116218168Y-140050324D01*
X116049966Y-140418634D01*
X116049956Y-140418659D01*
X115917534Y-140801266D01*
X115917531Y-140801277D01*
X115822071Y-141194768D01*
X115764447Y-141595549D01*
X115748360Y-141933273D01*
X115725507Y-141999300D01*
X115721054Y-142002801D01*
X115523400Y-142002801D01*
X115528242Y-141998605D01*
X115503995Y-141956607D01*
X115500500Y-141927373D01*
X115500500Y-132799995D01*
X120595233Y-132799995D01*
X120595233Y-132800004D01*
X120614273Y-133054079D01*
X120670968Y-133302477D01*
X120670973Y-133302494D01*
X120764058Y-133539671D01*
X120764057Y-133539671D01*
X120891454Y-133760327D01*
X120891461Y-133760338D01*
X120933452Y-133812991D01*
X120933453Y-133812992D01*
X121735387Y-133011058D01*
X121740889Y-133031591D01*
X121819881Y-133168408D01*
X121931592Y-133280119D01*
X122068409Y-133359111D01*
X122088940Y-133364612D01*
X121286813Y-134166738D01*
X121447616Y-134276371D01*
X121447624Y-134276376D01*
X121677176Y-134386921D01*
X121677174Y-134386921D01*
X121920652Y-134462024D01*
X121920658Y-134462026D01*
X122172595Y-134499999D01*
X122172604Y-134500000D01*
X122427396Y-134500000D01*
X122427404Y-134499999D01*
X122679341Y-134462026D01*
X122679347Y-134462024D01*
X122922824Y-134386921D01*
X123152376Y-134276376D01*
X123152377Y-134276375D01*
X123313185Y-134166738D01*
X122511060Y-133364612D01*
X122531591Y-133359111D01*
X122668408Y-133280119D01*
X122780119Y-133168408D01*
X122859111Y-133031591D01*
X122864612Y-133011059D01*
X123666544Y-133812992D01*
X123666546Y-133812991D01*
X123708544Y-133760330D01*
X123835941Y-133539671D01*
X123929026Y-133302494D01*
X123929031Y-133302477D01*
X123985726Y-133054079D01*
X124004767Y-132800004D01*
X124004767Y-132799995D01*
X123985726Y-132545920D01*
X123929031Y-132297522D01*
X123929026Y-132297505D01*
X123835941Y-132060328D01*
X123835942Y-132060328D01*
X123708545Y-131839672D01*
X123666545Y-131787006D01*
X122864612Y-132588939D01*
X122859111Y-132568409D01*
X122780119Y-132431592D01*
X122668408Y-132319881D01*
X122531591Y-132240889D01*
X122511059Y-132235387D01*
X123313185Y-131433260D01*
X123152384Y-131323628D01*
X123152376Y-131323623D01*
X122922823Y-131213078D01*
X122922825Y-131213078D01*
X122679347Y-131137975D01*
X122679341Y-131137973D01*
X122427404Y-131100000D01*
X122172595Y-131100000D01*
X121920658Y-131137973D01*
X121920652Y-131137975D01*
X121677175Y-131213078D01*
X121447622Y-131323625D01*
X121447609Y-131323632D01*
X121286813Y-131433259D01*
X122088941Y-132235387D01*
X122068409Y-132240889D01*
X121931592Y-132319881D01*
X121819881Y-132431592D01*
X121740889Y-132568409D01*
X121735387Y-132588941D01*
X120933452Y-131787006D01*
X120891457Y-131839667D01*
X120764058Y-132060328D01*
X120670973Y-132297505D01*
X120670968Y-132297522D01*
X120614273Y-132545920D01*
X120595233Y-132799995D01*
X115500500Y-132799995D01*
X115500500Y-126552135D01*
X120599500Y-126552135D01*
X120599500Y-129047870D01*
X120599501Y-129047876D01*
X120605908Y-129107483D01*
X120656202Y-129242328D01*
X120656206Y-129242335D01*
X120742452Y-129357544D01*
X120742455Y-129357547D01*
X120857664Y-129443793D01*
X120857671Y-129443797D01*
X120992517Y-129494091D01*
X120992516Y-129494091D01*
X120999444Y-129494835D01*
X121052127Y-129500500D01*
X123547872Y-129500499D01*
X123607483Y-129494091D01*
X123742331Y-129443796D01*
X123857546Y-129357546D01*
X123943796Y-129242331D01*
X123994091Y-129107483D01*
X124000500Y-129047873D01*
X124000499Y-126552128D01*
X123994091Y-126492517D01*
X123943796Y-126357669D01*
X123943795Y-126357668D01*
X123943793Y-126357664D01*
X123857547Y-126242455D01*
X123857544Y-126242452D01*
X123742335Y-126156206D01*
X123742328Y-126156202D01*
X123607482Y-126105908D01*
X123607483Y-126105908D01*
X123547883Y-126099501D01*
X123547881Y-126099500D01*
X123547873Y-126099500D01*
X123547864Y-126099500D01*
X121052129Y-126099500D01*
X121052123Y-126099501D01*
X120992516Y-126105908D01*
X120857671Y-126156202D01*
X120857664Y-126156206D01*
X120742455Y-126242452D01*
X120742452Y-126242455D01*
X120656206Y-126357664D01*
X120656202Y-126357671D01*
X120605908Y-126492517D01*
X120599501Y-126552116D01*
X120599501Y-126552123D01*
X120599500Y-126552135D01*
X115500500Y-126552135D01*
X115500500Y-117500000D01*
X118439706Y-117500000D01*
X118458853Y-117743297D01*
X118515830Y-117980619D01*
X118609222Y-118206089D01*
X118736737Y-118414173D01*
X118736738Y-118414176D01*
X118736741Y-118414179D01*
X118895241Y-118599759D01*
X119014030Y-118701214D01*
X119080818Y-118758257D01*
X119080819Y-118758258D01*
X119080821Y-118758259D01*
X119135436Y-118791727D01*
X119158327Y-118809773D01*
X119824766Y-119476212D01*
X119782708Y-119487482D01*
X119657292Y-119559890D01*
X119554890Y-119662292D01*
X119482482Y-119787708D01*
X119471212Y-119829765D01*
X118733504Y-119092057D01*
X118609668Y-119294138D01*
X118516303Y-119519542D01*
X118459348Y-119756780D01*
X118440207Y-120000000D01*
X118459348Y-120243219D01*
X118516303Y-120480457D01*
X118609668Y-120705861D01*
X118733504Y-120907941D01*
X119471212Y-120170233D01*
X119482482Y-120212292D01*
X119554890Y-120337708D01*
X119657292Y-120440110D01*
X119782708Y-120512518D01*
X119824765Y-120523787D01*
X119087057Y-121261494D01*
X119289138Y-121385331D01*
X119514542Y-121478696D01*
X119751780Y-121535651D01*
X119751779Y-121535651D01*
X119995000Y-121554792D01*
X120238219Y-121535651D01*
X120475457Y-121478696D01*
X120700861Y-121385331D01*
X120902941Y-121261495D01*
X120902941Y-121261494D01*
X120165235Y-120523787D01*
X120207292Y-120512518D01*
X120332708Y-120440110D01*
X120435110Y-120337708D01*
X120507518Y-120212292D01*
X120518787Y-120170234D01*
X121256494Y-120907941D01*
X121256495Y-120907941D01*
X121380331Y-120705861D01*
X121473696Y-120480457D01*
X121530651Y-120243219D01*
X121549792Y-120000000D01*
X121530651Y-119756780D01*
X121473696Y-119519542D01*
X121380331Y-119294138D01*
X121256494Y-119092057D01*
X120518787Y-119829764D01*
X120507518Y-119787708D01*
X120435110Y-119662292D01*
X120332708Y-119559890D01*
X120207292Y-119487482D01*
X120165233Y-119476212D01*
X120831670Y-118809774D01*
X120854553Y-118791733D01*
X120909179Y-118758259D01*
X121094759Y-118599759D01*
X121253259Y-118414179D01*
X121380777Y-118206089D01*
X121474172Y-117980612D01*
X121531146Y-117743302D01*
X121550294Y-117500000D01*
X130289659Y-117500000D01*
X130308975Y-117696129D01*
X130366188Y-117884733D01*
X130459086Y-118058532D01*
X130459090Y-118058539D01*
X130584116Y-118210883D01*
X130736460Y-118335909D01*
X130736467Y-118335913D01*
X130910266Y-118428811D01*
X130910269Y-118428811D01*
X130910273Y-118428814D01*
X131098868Y-118486024D01*
X131295000Y-118505341D01*
X131491132Y-118486024D01*
X131679727Y-118428814D01*
X131707119Y-118414173D01*
X131853532Y-118335913D01*
X131853531Y-118335913D01*
X131853538Y-118335910D01*
X131961801Y-118247060D01*
X132026107Y-118219749D01*
X132094975Y-118231540D01*
X132128144Y-118255234D01*
X135218516Y-121345606D01*
X135218545Y-121345637D01*
X135308764Y-121435856D01*
X135308767Y-121435858D01*
X135385690Y-121487256D01*
X135411210Y-121504309D01*
X135411212Y-121504310D01*
X135411215Y-121504312D01*
X135477896Y-121531931D01*
X135477898Y-121531933D01*
X135518140Y-121548601D01*
X135525048Y-121551463D01*
X135585471Y-121563481D01*
X135645893Y-121575500D01*
X135645894Y-121575500D01*
X142460397Y-121575500D01*
X142527436Y-121595185D01*
X142556250Y-121620835D01*
X142589116Y-121660883D01*
X142741460Y-121785909D01*
X142741467Y-121785913D01*
X142915266Y-121878811D01*
X142915269Y-121878811D01*
X142915273Y-121878814D01*
X143103868Y-121936024D01*
X143300000Y-121955341D01*
X143496132Y-121936024D01*
X143684727Y-121878814D01*
X143858538Y-121785910D01*
X144010883Y-121660883D01*
X144135910Y-121508538D01*
X144221330Y-121348729D01*
X144228811Y-121334733D01*
X144228811Y-121334732D01*
X144228814Y-121334727D01*
X144286024Y-121146132D01*
X144305341Y-120950000D01*
X144286024Y-120753868D01*
X144228814Y-120565273D01*
X144228811Y-120565269D01*
X144228811Y-120565266D01*
X144135913Y-120391467D01*
X144135909Y-120391460D01*
X144010883Y-120239116D01*
X143858539Y-120114090D01*
X143858532Y-120114086D01*
X143684733Y-120021188D01*
X143684727Y-120021186D01*
X143496132Y-119963976D01*
X143496129Y-119963975D01*
X143300000Y-119944659D01*
X143103870Y-119963975D01*
X142915266Y-120021188D01*
X142741467Y-120114086D01*
X142741460Y-120114090D01*
X142589116Y-120239116D01*
X142556250Y-120279165D01*
X142498505Y-120318499D01*
X142460397Y-120324500D01*
X136017952Y-120324500D01*
X135950913Y-120304815D01*
X135930271Y-120288181D01*
X132747698Y-117105608D01*
X132747678Y-117105586D01*
X132656233Y-117014141D01*
X132605009Y-116979915D01*
X132553787Y-116945689D01*
X132553786Y-116945688D01*
X132553783Y-116945686D01*
X132553780Y-116945685D01*
X132466476Y-116909523D01*
X132466476Y-116909524D01*
X132466474Y-116909523D01*
X132439952Y-116898537D01*
X132379529Y-116886518D01*
X132319110Y-116874500D01*
X132319107Y-116874500D01*
X132319106Y-116874500D01*
X132134603Y-116874500D01*
X132067564Y-116854815D01*
X132038750Y-116829165D01*
X132005883Y-116789116D01*
X131853539Y-116664090D01*
X131853532Y-116664086D01*
X131679733Y-116571188D01*
X131679727Y-116571186D01*
X131491132Y-116513976D01*
X131491129Y-116513975D01*
X131295000Y-116494659D01*
X131098870Y-116513975D01*
X130910266Y-116571188D01*
X130736467Y-116664086D01*
X130736460Y-116664090D01*
X130584116Y-116789116D01*
X130459090Y-116941460D01*
X130459086Y-116941467D01*
X130366188Y-117115266D01*
X130308975Y-117303870D01*
X130289659Y-117500000D01*
X121550294Y-117500000D01*
X121531146Y-117256698D01*
X121474172Y-117019388D01*
X121443645Y-116945688D01*
X121380777Y-116793910D01*
X121253262Y-116585826D01*
X121253261Y-116585823D01*
X121217453Y-116543897D01*
X121094759Y-116400241D01*
X120972063Y-116295449D01*
X120909176Y-116241738D01*
X120909173Y-116241737D01*
X120701089Y-116114222D01*
X120475618Y-116020830D01*
X120475621Y-116020830D01*
X120369992Y-115995470D01*
X120238302Y-115963854D01*
X120238300Y-115963853D01*
X120238297Y-115963853D01*
X119995000Y-115944706D01*
X119751702Y-115963853D01*
X119514380Y-116020830D01*
X119288910Y-116114222D01*
X119080826Y-116241737D01*
X119080823Y-116241738D01*
X118895241Y-116400241D01*
X118736738Y-116585823D01*
X118736737Y-116585826D01*
X118609222Y-116793910D01*
X118515830Y-117019380D01*
X118458853Y-117256702D01*
X118439706Y-117500000D01*
X115500500Y-117500000D01*
X115500500Y-103009998D01*
X131474838Y-103009998D01*
X131474838Y-103010001D01*
X131493450Y-103222741D01*
X131493452Y-103222752D01*
X131548721Y-103429022D01*
X131548723Y-103429026D01*
X131548724Y-103429030D01*
X131571287Y-103477416D01*
X131638977Y-103622578D01*
X131761472Y-103797521D01*
X131912478Y-103948527D01*
X131912481Y-103948529D01*
X132087419Y-104071021D01*
X132087421Y-104071022D01*
X132087420Y-104071022D01*
X132151936Y-104101106D01*
X132280970Y-104161276D01*
X132280983Y-104161279D01*
X132286064Y-104163130D01*
X132285292Y-104165250D01*
X132336710Y-104196594D01*
X132367237Y-104259442D01*
X132358939Y-104328817D01*
X132314452Y-104382693D01*
X132285685Y-104395830D01*
X132286064Y-104396870D01*
X132280972Y-104398723D01*
X132280970Y-104398724D01*
X132280968Y-104398725D01*
X132087421Y-104488977D01*
X131912478Y-104611472D01*
X131761472Y-104762478D01*
X131638977Y-104937421D01*
X131548725Y-105130968D01*
X131548721Y-105130977D01*
X131493452Y-105337247D01*
X131493450Y-105337258D01*
X131474838Y-105549998D01*
X131474838Y-105550001D01*
X131493450Y-105762741D01*
X131493452Y-105762752D01*
X131548721Y-105969022D01*
X131548723Y-105969026D01*
X131548724Y-105969030D01*
X131591171Y-106060058D01*
X131638977Y-106162578D01*
X131761472Y-106337521D01*
X131912478Y-106488527D01*
X131912481Y-106488529D01*
X132087419Y-106611021D01*
X132087421Y-106611022D01*
X132087420Y-106611022D01*
X132151936Y-106641106D01*
X132280970Y-106701276D01*
X132487253Y-106756549D01*
X132639215Y-106769844D01*
X132699998Y-106775162D01*
X132700000Y-106775162D01*
X132700002Y-106775162D01*
X132753186Y-106770508D01*
X132912747Y-106756549D01*
X133119030Y-106701276D01*
X133312581Y-106611021D01*
X133487519Y-106488529D01*
X133638529Y-106337519D01*
X133761021Y-106162581D01*
X133851276Y-105969030D01*
X133906549Y-105762747D01*
X133925162Y-105550000D01*
X133906549Y-105337253D01*
X133851276Y-105130970D01*
X133761021Y-104937419D01*
X133638529Y-104762481D01*
X133638527Y-104762478D01*
X133487521Y-104611472D01*
X133312578Y-104488977D01*
X133312579Y-104488977D01*
X133183547Y-104428809D01*
X133119030Y-104398724D01*
X133119023Y-104398722D01*
X133113936Y-104396870D01*
X133114709Y-104394746D01*
X133063305Y-104363424D01*
X133032766Y-104300581D01*
X133041050Y-104231204D01*
X133085528Y-104177320D01*
X133114315Y-104164172D01*
X133113936Y-104163130D01*
X133119013Y-104161280D01*
X133119030Y-104161276D01*
X133312581Y-104071021D01*
X133487519Y-103948529D01*
X133638529Y-103797519D01*
X133761021Y-103622581D01*
X133851276Y-103429030D01*
X133906549Y-103222747D01*
X133925162Y-103010000D01*
X133906549Y-102797253D01*
X133851276Y-102590970D01*
X133761021Y-102397419D01*
X133638529Y-102222481D01*
X133638527Y-102222478D01*
X133487521Y-102071472D01*
X133314038Y-101949999D01*
X148594659Y-101949999D01*
X148598903Y-101993090D01*
X148599500Y-102005244D01*
X148599500Y-102048544D01*
X148607945Y-102091006D01*
X148609730Y-102103035D01*
X148613975Y-102146130D01*
X148613976Y-102146134D01*
X148626547Y-102187575D01*
X148629503Y-102199378D01*
X148637946Y-102241827D01*
X148637948Y-102241834D01*
X148654517Y-102281834D01*
X148658612Y-102293277D01*
X148671186Y-102334727D01*
X148671187Y-102334729D01*
X148691597Y-102372913D01*
X148696800Y-102383915D01*
X148713368Y-102423914D01*
X148713370Y-102423918D01*
X148737425Y-102459918D01*
X148743683Y-102470358D01*
X148764088Y-102508535D01*
X148764094Y-102508543D01*
X148791552Y-102542002D01*
X148798799Y-102551772D01*
X148822862Y-102587783D01*
X148822865Y-102587787D01*
X148853479Y-102618401D01*
X148861651Y-102627416D01*
X148889118Y-102660884D01*
X148922581Y-102688346D01*
X148931599Y-102696520D01*
X148962214Y-102727136D01*
X148962218Y-102727139D01*
X148997699Y-102750847D01*
X148998219Y-102751194D01*
X149007988Y-102758438D01*
X149041462Y-102785910D01*
X149041464Y-102785911D01*
X149079640Y-102806316D01*
X149090078Y-102812572D01*
X149126086Y-102836632D01*
X149166095Y-102853203D01*
X149177091Y-102858404D01*
X149215273Y-102878814D01*
X149256710Y-102891383D01*
X149268160Y-102895480D01*
X149308165Y-102912051D01*
X149350640Y-102920499D01*
X149362414Y-102923448D01*
X149403868Y-102936024D01*
X149446964Y-102940268D01*
X149458990Y-102942052D01*
X149483753Y-102946978D01*
X149501458Y-102950500D01*
X149501459Y-102950500D01*
X149544756Y-102950500D01*
X149556909Y-102951096D01*
X149600000Y-102955341D01*
X149643090Y-102951096D01*
X149655244Y-102950500D01*
X150801459Y-102950500D01*
X150844756Y-102950500D01*
X150856909Y-102951096D01*
X150900000Y-102955341D01*
X150943090Y-102951096D01*
X150955244Y-102950500D01*
X152101459Y-102950500D01*
X152144756Y-102950500D01*
X152156909Y-102951096D01*
X152200000Y-102955341D01*
X152243090Y-102951096D01*
X152255244Y-102950500D01*
X157908071Y-102950500D01*
X157975110Y-102970185D01*
X158020865Y-103022989D01*
X158029688Y-103050308D01*
X158037947Y-103091829D01*
X158037948Y-103091834D01*
X158054517Y-103131834D01*
X158058612Y-103143277D01*
X158071186Y-103184726D01*
X158071187Y-103184729D01*
X158091597Y-103222913D01*
X158096800Y-103233915D01*
X158113368Y-103273914D01*
X158113370Y-103273918D01*
X158137425Y-103309918D01*
X158143678Y-103320350D01*
X158154948Y-103341436D01*
X158164088Y-103358535D01*
X158164094Y-103358543D01*
X158191552Y-103392002D01*
X158198799Y-103401772D01*
X158222860Y-103437781D01*
X158222862Y-103437783D01*
X158222865Y-103437787D01*
X158253479Y-103468401D01*
X158261651Y-103477416D01*
X158289117Y-103510883D01*
X158322579Y-103538345D01*
X158322581Y-103538346D01*
X158331599Y-103546520D01*
X158362214Y-103577136D01*
X158362217Y-103577138D01*
X158362218Y-103577139D01*
X158398217Y-103601193D01*
X158398219Y-103601194D01*
X158407988Y-103608438D01*
X158441462Y-103635910D01*
X158474636Y-103653641D01*
X158524480Y-103702604D01*
X158539941Y-103770741D01*
X158516110Y-103836421D01*
X158460552Y-103878790D01*
X158416183Y-103887000D01*
X150934108Y-103887000D01*
X150806812Y-103921108D01*
X150692686Y-103987000D01*
X150692683Y-103987002D01*
X150599502Y-104080183D01*
X150599500Y-104080186D01*
X150533608Y-104194312D01*
X150499500Y-104321608D01*
X150499500Y-122453391D01*
X150533608Y-122580687D01*
X150566554Y-122637750D01*
X150599500Y-122694814D01*
X150692686Y-122788000D01*
X150806814Y-122853892D01*
X150934108Y-122888000D01*
X150934110Y-122888000D01*
X162065890Y-122888000D01*
X162065892Y-122888000D01*
X162193186Y-122853892D01*
X162307314Y-122788000D01*
X162400500Y-122694814D01*
X162466392Y-122580686D01*
X162500500Y-122453392D01*
X162500500Y-104321608D01*
X162466392Y-104194314D01*
X162400500Y-104080186D01*
X162307314Y-103987000D01*
X162250250Y-103954054D01*
X162193187Y-103921108D01*
X162129539Y-103904054D01*
X162065892Y-103887000D01*
X159583815Y-103887000D01*
X159516776Y-103867315D01*
X159471021Y-103814511D01*
X159461077Y-103745353D01*
X159490102Y-103681797D01*
X159525366Y-103653640D01*
X159558534Y-103635912D01*
X159558538Y-103635910D01*
X159592005Y-103608444D01*
X159601782Y-103601193D01*
X159637781Y-103577140D01*
X159637783Y-103577138D01*
X159637785Y-103577136D01*
X159668408Y-103546512D01*
X159677402Y-103538359D01*
X159710883Y-103510883D01*
X159738359Y-103477402D01*
X159746512Y-103468408D01*
X159777139Y-103437782D01*
X159801200Y-103401772D01*
X159808444Y-103392005D01*
X159835909Y-103358539D01*
X159835912Y-103358535D01*
X159842295Y-103346591D01*
X159856320Y-103320351D01*
X159862560Y-103309938D01*
X159886632Y-103273914D01*
X159903202Y-103233906D01*
X159908402Y-103222913D01*
X159928814Y-103184727D01*
X159941386Y-103143280D01*
X159945476Y-103131847D01*
X159962051Y-103091835D01*
X159970500Y-103049353D01*
X159973450Y-103037580D01*
X159986024Y-102996132D01*
X159990268Y-102953037D01*
X159992054Y-102940999D01*
X159992200Y-102940268D01*
X160000500Y-102898541D01*
X160000500Y-102855244D01*
X160001097Y-102843090D01*
X160001733Y-102836631D01*
X160005341Y-102800000D01*
X160001097Y-102756908D01*
X160000500Y-102744754D01*
X160000500Y-101655244D01*
X160001097Y-101643090D01*
X160005341Y-101600000D01*
X160001097Y-101556908D01*
X160000500Y-101544754D01*
X160000500Y-100455244D01*
X160001097Y-100443090D01*
X160003633Y-100417339D01*
X160005341Y-100400000D01*
X160001097Y-100356907D01*
X160000500Y-100344754D01*
X160000500Y-100301458D01*
X159998117Y-100289480D01*
X159992052Y-100258990D01*
X159990268Y-100246961D01*
X159988045Y-100224394D01*
X159986024Y-100203868D01*
X159973448Y-100162414D01*
X159970499Y-100150640D01*
X159962051Y-100108165D01*
X159945480Y-100068159D01*
X159941383Y-100056710D01*
X159928814Y-100015273D01*
X159908404Y-99977091D01*
X159903203Y-99966095D01*
X159886632Y-99926086D01*
X159862572Y-99890078D01*
X159856316Y-99879640D01*
X159835911Y-99841464D01*
X159835910Y-99841462D01*
X159808438Y-99807988D01*
X159801194Y-99798219D01*
X159777140Y-99762219D01*
X159777136Y-99762214D01*
X159746520Y-99731599D01*
X159738346Y-99722581D01*
X159710884Y-99689118D01*
X159677416Y-99661651D01*
X159668401Y-99653479D01*
X159637787Y-99622865D01*
X159637783Y-99622862D01*
X159637780Y-99622860D01*
X159621139Y-99611740D01*
X159601772Y-99598799D01*
X159592002Y-99591552D01*
X159558543Y-99564094D01*
X159558535Y-99564088D01*
X159541436Y-99554948D01*
X159520350Y-99543678D01*
X159509918Y-99537425D01*
X159473918Y-99513370D01*
X159473914Y-99513368D01*
X159433915Y-99496800D01*
X159422913Y-99491597D01*
X159384729Y-99471187D01*
X159384728Y-99471186D01*
X159384727Y-99471186D01*
X159343277Y-99458612D01*
X159331834Y-99454517D01*
X159291834Y-99437948D01*
X159291827Y-99437946D01*
X159249378Y-99429503D01*
X159237575Y-99426547D01*
X159196134Y-99413976D01*
X159196130Y-99413975D01*
X159153035Y-99409730D01*
X159141006Y-99407945D01*
X159098544Y-99399500D01*
X159098541Y-99399500D01*
X159055244Y-99399500D01*
X159043090Y-99398903D01*
X159000000Y-99394659D01*
X158956910Y-99398903D01*
X158944756Y-99399500D01*
X158901453Y-99399500D01*
X158858991Y-99407945D01*
X158846963Y-99409730D01*
X158803867Y-99413976D01*
X158762427Y-99426546D01*
X158750626Y-99429502D01*
X158708166Y-99437948D01*
X158708161Y-99437949D01*
X158668159Y-99454518D01*
X158656707Y-99458616D01*
X158615272Y-99471186D01*
X158577091Y-99491594D01*
X158566093Y-99496795D01*
X158526091Y-99513364D01*
X158490080Y-99537426D01*
X158479645Y-99543680D01*
X158441465Y-99564087D01*
X158441460Y-99564091D01*
X158407990Y-99591557D01*
X158398225Y-99598799D01*
X158362225Y-99622855D01*
X158362219Y-99622860D01*
X158331595Y-99653483D01*
X158322584Y-99661650D01*
X158289117Y-99689117D01*
X158261650Y-99722584D01*
X158253483Y-99731595D01*
X158222860Y-99762219D01*
X158222855Y-99762225D01*
X158198799Y-99798225D01*
X158191557Y-99807990D01*
X158164091Y-99841460D01*
X158164087Y-99841465D01*
X158143680Y-99879645D01*
X158137426Y-99890080D01*
X158113364Y-99926091D01*
X158096795Y-99966093D01*
X158091594Y-99977091D01*
X158071186Y-100015272D01*
X158058616Y-100056707D01*
X158054518Y-100068159D01*
X158037949Y-100108161D01*
X158037948Y-100108166D01*
X158029502Y-100150626D01*
X158026546Y-100162427D01*
X158013976Y-100203867D01*
X158009730Y-100246963D01*
X158007945Y-100258991D01*
X157999500Y-100301453D01*
X157999500Y-100344754D01*
X157998903Y-100356907D01*
X157994659Y-100399999D01*
X157998903Y-100443090D01*
X157999500Y-100455244D01*
X157999500Y-100825500D01*
X157979815Y-100892539D01*
X157927011Y-100938294D01*
X157875500Y-100949500D01*
X152255244Y-100949500D01*
X152243090Y-100948903D01*
X152200000Y-100944659D01*
X152156910Y-100948903D01*
X152144756Y-100949500D01*
X150955244Y-100949500D01*
X150943090Y-100948903D01*
X150900000Y-100944659D01*
X150856910Y-100948903D01*
X150844756Y-100949500D01*
X149655244Y-100949500D01*
X149643090Y-100948903D01*
X149600000Y-100944659D01*
X149556910Y-100948903D01*
X149544756Y-100949500D01*
X149501453Y-100949500D01*
X149458991Y-100957945D01*
X149446963Y-100959730D01*
X149403867Y-100963976D01*
X149362427Y-100976546D01*
X149350626Y-100979502D01*
X149308166Y-100987948D01*
X149308161Y-100987949D01*
X149268159Y-101004518D01*
X149256707Y-101008616D01*
X149215272Y-101021186D01*
X149177091Y-101041594D01*
X149166093Y-101046795D01*
X149126091Y-101063364D01*
X149090080Y-101087426D01*
X149079645Y-101093680D01*
X149041465Y-101114087D01*
X149041460Y-101114091D01*
X149007990Y-101141557D01*
X148998225Y-101148799D01*
X148962225Y-101172855D01*
X148962219Y-101172860D01*
X148931595Y-101203483D01*
X148922584Y-101211650D01*
X148889117Y-101239117D01*
X148861650Y-101272584D01*
X148853483Y-101281595D01*
X148822860Y-101312219D01*
X148822855Y-101312225D01*
X148798799Y-101348225D01*
X148791557Y-101357990D01*
X148764091Y-101391460D01*
X148764087Y-101391465D01*
X148743680Y-101429645D01*
X148737426Y-101440080D01*
X148713364Y-101476091D01*
X148696795Y-101516093D01*
X148691594Y-101527091D01*
X148671186Y-101565272D01*
X148658616Y-101606707D01*
X148654518Y-101618159D01*
X148637949Y-101658161D01*
X148637948Y-101658166D01*
X148629502Y-101700626D01*
X148626546Y-101712427D01*
X148613976Y-101753867D01*
X148609730Y-101796963D01*
X148607945Y-101808991D01*
X148599500Y-101851453D01*
X148599500Y-101894754D01*
X148598903Y-101906907D01*
X148594659Y-101949999D01*
X133314038Y-101949999D01*
X133312578Y-101948977D01*
X133312579Y-101948977D01*
X133183547Y-101888809D01*
X133119030Y-101858724D01*
X133119023Y-101858722D01*
X133113936Y-101856870D01*
X133114606Y-101855028D01*
X133062293Y-101823114D01*
X133031789Y-101760255D01*
X133040111Y-101690883D01*
X133084617Y-101637022D01*
X133114097Y-101623574D01*
X133113764Y-101622658D01*
X133118864Y-101620801D01*
X133312325Y-101530589D01*
X133368030Y-101491583D01*
X132746448Y-100870000D01*
X132752661Y-100870000D01*
X132854394Y-100842741D01*
X132945606Y-100790080D01*
X133020080Y-100715606D01*
X133072741Y-100624394D01*
X133100000Y-100522661D01*
X133100000Y-100516446D01*
X133721583Y-101138029D01*
X133760589Y-101082325D01*
X133850801Y-100888864D01*
X133850805Y-100888853D01*
X133906054Y-100682662D01*
X133906055Y-100682654D01*
X133924660Y-100470002D01*
X133924660Y-100469997D01*
X133906055Y-100257345D01*
X133906054Y-100257337D01*
X133850805Y-100051146D01*
X133850802Y-100051140D01*
X133760586Y-99857669D01*
X133760582Y-99857663D01*
X133721584Y-99801968D01*
X133100000Y-100423552D01*
X133100000Y-100417339D01*
X133072741Y-100315606D01*
X133020080Y-100224394D01*
X132945606Y-100149920D01*
X132854394Y-100097259D01*
X132752661Y-100070000D01*
X132746447Y-100070000D01*
X133368030Y-99448415D01*
X133312329Y-99409413D01*
X133118859Y-99319197D01*
X133118853Y-99319194D01*
X132912662Y-99263945D01*
X132912654Y-99263944D01*
X132700002Y-99245340D01*
X132699998Y-99245340D01*
X132487345Y-99263944D01*
X132487337Y-99263945D01*
X132281146Y-99319194D01*
X132281140Y-99319197D01*
X132087671Y-99409412D01*
X132087669Y-99409413D01*
X132031969Y-99448415D01*
X132031968Y-99448415D01*
X132653554Y-100070000D01*
X132647339Y-100070000D01*
X132545606Y-100097259D01*
X132454394Y-100149920D01*
X132379920Y-100224394D01*
X132327259Y-100315606D01*
X132300000Y-100417339D01*
X132300000Y-100423553D01*
X131678415Y-99801968D01*
X131678415Y-99801969D01*
X131639413Y-99857669D01*
X131639412Y-99857671D01*
X131549197Y-100051140D01*
X131549194Y-100051146D01*
X131493945Y-100257337D01*
X131493944Y-100257345D01*
X131475340Y-100469997D01*
X131475340Y-100470002D01*
X131493944Y-100682654D01*
X131493945Y-100682662D01*
X131549194Y-100888853D01*
X131549197Y-100888859D01*
X131639413Y-101082329D01*
X131678415Y-101138030D01*
X132300000Y-100516445D01*
X132300000Y-100522661D01*
X132327259Y-100624394D01*
X132379920Y-100715606D01*
X132454394Y-100790080D01*
X132545606Y-100842741D01*
X132647339Y-100870000D01*
X132653553Y-100870000D01*
X132031968Y-101491584D01*
X132087663Y-101530582D01*
X132087669Y-101530586D01*
X132281140Y-101620802D01*
X132286236Y-101622658D01*
X132285542Y-101624563D01*
X132337647Y-101656302D01*
X132368196Y-101719139D01*
X132359922Y-101788518D01*
X132315454Y-101842409D01*
X132285744Y-101855991D01*
X132286064Y-101856870D01*
X132280972Y-101858723D01*
X132280970Y-101858724D01*
X132280968Y-101858725D01*
X132087421Y-101948977D01*
X131912478Y-102071472D01*
X131761472Y-102222478D01*
X131638977Y-102397421D01*
X131548725Y-102590968D01*
X131548721Y-102590977D01*
X131493452Y-102797247D01*
X131493450Y-102797258D01*
X131474838Y-103009998D01*
X115500500Y-103009998D01*
X115500500Y-96999994D01*
X157494357Y-96999994D01*
X157494357Y-97000005D01*
X157514890Y-97247812D01*
X157514892Y-97247824D01*
X157575936Y-97488881D01*
X157675826Y-97716606D01*
X157811833Y-97924782D01*
X157811836Y-97924785D01*
X157980256Y-98107738D01*
X158176491Y-98260474D01*
X158176493Y-98260475D01*
X158394332Y-98378364D01*
X158395190Y-98378828D01*
X158614141Y-98453994D01*
X158628964Y-98459083D01*
X158630386Y-98459571D01*
X158875665Y-98500500D01*
X159124335Y-98500500D01*
X159369614Y-98459571D01*
X159604810Y-98378828D01*
X159823509Y-98260474D01*
X160019744Y-98107738D01*
X160188164Y-97924785D01*
X160324173Y-97716607D01*
X160424063Y-97488881D01*
X160485108Y-97247821D01*
X160505643Y-97000000D01*
X160505643Y-96999994D01*
X195494859Y-96999994D01*
X195494859Y-97000005D01*
X195515385Y-97247729D01*
X195515387Y-97247738D01*
X195576412Y-97488717D01*
X195676266Y-97716364D01*
X195776564Y-97869882D01*
X196517037Y-97129409D01*
X196534075Y-97192993D01*
X196599901Y-97307007D01*
X196692993Y-97400099D01*
X196807007Y-97465925D01*
X196870590Y-97482962D01*
X196129942Y-98223609D01*
X196176768Y-98260055D01*
X196176770Y-98260056D01*
X196395385Y-98378364D01*
X196395396Y-98378369D01*
X196630506Y-98459083D01*
X196875707Y-98500000D01*
X197124293Y-98500000D01*
X197369493Y-98459083D01*
X197604603Y-98378369D01*
X197604614Y-98378364D01*
X197823228Y-98260057D01*
X197823231Y-98260055D01*
X197870056Y-98223609D01*
X197129409Y-97482962D01*
X197192993Y-97465925D01*
X197307007Y-97400099D01*
X197400099Y-97307007D01*
X197465925Y-97192993D01*
X197482962Y-97129410D01*
X198223434Y-97869882D01*
X198323731Y-97716369D01*
X198423587Y-97488717D01*
X198484612Y-97247738D01*
X198484614Y-97247729D01*
X198505141Y-97000005D01*
X198505141Y-96999994D01*
X198484614Y-96752270D01*
X198484612Y-96752261D01*
X198423587Y-96511282D01*
X198323731Y-96283630D01*
X198223434Y-96130116D01*
X197482962Y-96870589D01*
X197465925Y-96807007D01*
X197400099Y-96692993D01*
X197307007Y-96599901D01*
X197192993Y-96534075D01*
X197129410Y-96517037D01*
X197870057Y-95776390D01*
X197870056Y-95776389D01*
X197823229Y-95739943D01*
X197604614Y-95621635D01*
X197604603Y-95621630D01*
X197369493Y-95540916D01*
X197124293Y-95500000D01*
X196875707Y-95500000D01*
X196630506Y-95540916D01*
X196395396Y-95621630D01*
X196395390Y-95621632D01*
X196176761Y-95739949D01*
X196129942Y-95776388D01*
X196129942Y-95776390D01*
X196870590Y-96517037D01*
X196807007Y-96534075D01*
X196692993Y-96599901D01*
X196599901Y-96692993D01*
X196534075Y-96807007D01*
X196517037Y-96870589D01*
X195776564Y-96130116D01*
X195676267Y-96283632D01*
X195576412Y-96511282D01*
X195515387Y-96752261D01*
X195515385Y-96752270D01*
X195494859Y-96999994D01*
X160505643Y-96999994D01*
X160489651Y-96807007D01*
X160485109Y-96752187D01*
X160485107Y-96752175D01*
X160424063Y-96511118D01*
X160324173Y-96283393D01*
X160188166Y-96075217D01*
X160166557Y-96051744D01*
X160019744Y-95892262D01*
X159823509Y-95739526D01*
X159823507Y-95739525D01*
X159823506Y-95739524D01*
X159604811Y-95621172D01*
X159604802Y-95621169D01*
X159369616Y-95540429D01*
X159124335Y-95499500D01*
X158875665Y-95499500D01*
X158630383Y-95540429D01*
X158395197Y-95621169D01*
X158395188Y-95621172D01*
X158176493Y-95739524D01*
X157980257Y-95892261D01*
X157811833Y-96075217D01*
X157675826Y-96283393D01*
X157575936Y-96511118D01*
X157514892Y-96752175D01*
X157514890Y-96752187D01*
X157494357Y-96999994D01*
X115500500Y-96999994D01*
X115500500Y-94824986D01*
X153200001Y-94824986D01*
X153210494Y-94927697D01*
X153265641Y-95094119D01*
X153265643Y-95094124D01*
X153357684Y-95243345D01*
X153481654Y-95367315D01*
X153630875Y-95459356D01*
X153630880Y-95459358D01*
X153797302Y-95514505D01*
X153797309Y-95514506D01*
X153900019Y-95524999D01*
X154349999Y-95524999D01*
X154850000Y-95524999D01*
X155299972Y-95524999D01*
X155299986Y-95524998D01*
X155402697Y-95514505D01*
X155569119Y-95459358D01*
X155569124Y-95459356D01*
X155718345Y-95367315D01*
X155842315Y-95243345D01*
X155934356Y-95094124D01*
X155934358Y-95094119D01*
X155989505Y-94927697D01*
X155989506Y-94927690D01*
X155999999Y-94824986D01*
X156000000Y-94824973D01*
X156000000Y-94700000D01*
X154850000Y-94700000D01*
X154850000Y-95524999D01*
X154349999Y-95524999D01*
X154350000Y-95524998D01*
X154350000Y-94700000D01*
X153200001Y-94700000D01*
X153200001Y-94824986D01*
X115500500Y-94824986D01*
X115500500Y-92999994D01*
X125694859Y-92999994D01*
X125694859Y-93000005D01*
X125715385Y-93247729D01*
X125715387Y-93247738D01*
X125776412Y-93488717D01*
X125876266Y-93716364D01*
X125976564Y-93869882D01*
X126717037Y-93129409D01*
X126734075Y-93192993D01*
X126799901Y-93307007D01*
X126892993Y-93400099D01*
X127007007Y-93465925D01*
X127070590Y-93482962D01*
X126329942Y-94223609D01*
X126376768Y-94260055D01*
X126376770Y-94260056D01*
X126595385Y-94378364D01*
X126595396Y-94378369D01*
X126830506Y-94459083D01*
X127075707Y-94500000D01*
X127324293Y-94500000D01*
X127569493Y-94459083D01*
X127804603Y-94378369D01*
X127804614Y-94378364D01*
X128023228Y-94260057D01*
X128023231Y-94260055D01*
X128070056Y-94223609D01*
X127329409Y-93482962D01*
X127392993Y-93465925D01*
X127507007Y-93400099D01*
X127600099Y-93307007D01*
X127665925Y-93192993D01*
X127682962Y-93129410D01*
X128423434Y-93869882D01*
X128523731Y-93716369D01*
X128623587Y-93488717D01*
X128684612Y-93247738D01*
X128684614Y-93247729D01*
X128705141Y-93000005D01*
X128705141Y-92999994D01*
X128684614Y-92752270D01*
X128684612Y-92752261D01*
X128623587Y-92511282D01*
X128523731Y-92283630D01*
X128423434Y-92130116D01*
X127682962Y-92870589D01*
X127665925Y-92807007D01*
X127600099Y-92692993D01*
X127507007Y-92599901D01*
X127392993Y-92534075D01*
X127329410Y-92517037D01*
X128070057Y-91776390D01*
X128070056Y-91776389D01*
X128023229Y-91739943D01*
X127804614Y-91621635D01*
X127804603Y-91621630D01*
X127569493Y-91540916D01*
X127324293Y-91500000D01*
X127075707Y-91500000D01*
X126830506Y-91540916D01*
X126595396Y-91621630D01*
X126595390Y-91621632D01*
X126376761Y-91739949D01*
X126329942Y-91776388D01*
X126329942Y-91776390D01*
X127070590Y-92517037D01*
X127007007Y-92534075D01*
X126892993Y-92599901D01*
X126799901Y-92692993D01*
X126734075Y-92807007D01*
X126717037Y-92870589D01*
X125976564Y-92130116D01*
X125876267Y-92283632D01*
X125776412Y-92511282D01*
X125715387Y-92752261D01*
X125715385Y-92752270D01*
X125694859Y-92999994D01*
X115500500Y-92999994D01*
X115500500Y-84499995D01*
X116144953Y-84499995D01*
X116144953Y-84500004D01*
X116165113Y-84769026D01*
X116165113Y-84769028D01*
X116225142Y-85032033D01*
X116225148Y-85032052D01*
X116323709Y-85283181D01*
X116323708Y-85283181D01*
X116458602Y-85516822D01*
X116512294Y-85584151D01*
X116512295Y-85584151D01*
X117234153Y-84862293D01*
X117241049Y-84878942D01*
X117328599Y-85009970D01*
X117440030Y-85121401D01*
X117571058Y-85208951D01*
X117587705Y-85215846D01*
X116864848Y-85938702D01*
X117047483Y-86063220D01*
X117047485Y-86063221D01*
X117290539Y-86180269D01*
X117290537Y-86180269D01*
X117548337Y-86259790D01*
X117548343Y-86259792D01*
X117815101Y-86299999D01*
X117815110Y-86300000D01*
X118084890Y-86300000D01*
X118084898Y-86299999D01*
X118351656Y-86259792D01*
X118351662Y-86259790D01*
X118609458Y-86180270D01*
X118827927Y-86075061D01*
X118896869Y-86063709D01*
X118961003Y-86091431D01*
X118999969Y-86149426D01*
X119001394Y-86219281D01*
X118997158Y-86232081D01*
X118912583Y-86447578D01*
X118912578Y-86447590D01*
X118912576Y-86447597D01*
X118854197Y-86703374D01*
X118854196Y-86703379D01*
X118834592Y-86964995D01*
X118834592Y-86965004D01*
X118854196Y-87226620D01*
X118854197Y-87226625D01*
X118912576Y-87482402D01*
X118912578Y-87482411D01*
X118912580Y-87482416D01*
X118951777Y-87582288D01*
X119008432Y-87726643D01*
X119114256Y-87909937D01*
X119130729Y-87977837D01*
X119107876Y-88043864D01*
X119052955Y-88087055D01*
X118983402Y-88093696D01*
X118937017Y-88074390D01*
X118852526Y-88016784D01*
X118852516Y-88016778D01*
X118609460Y-87899730D01*
X118609462Y-87899730D01*
X118351662Y-87820209D01*
X118351656Y-87820207D01*
X118084898Y-87780000D01*
X117815101Y-87780000D01*
X117548343Y-87820207D01*
X117548337Y-87820209D01*
X117290538Y-87899730D01*
X117047485Y-88016778D01*
X117047476Y-88016783D01*
X116864848Y-88141296D01*
X117587705Y-88864153D01*
X117571058Y-88871049D01*
X117440030Y-88958599D01*
X117328599Y-89070030D01*
X117241049Y-89201058D01*
X117234153Y-89217706D01*
X116512295Y-88495848D01*
X116458600Y-88563180D01*
X116323709Y-88796818D01*
X116225148Y-89047947D01*
X116225142Y-89047966D01*
X116165113Y-89310971D01*
X116165113Y-89310973D01*
X116144953Y-89579995D01*
X116144953Y-89580004D01*
X116165113Y-89849026D01*
X116165113Y-89849028D01*
X116225142Y-90112033D01*
X116225148Y-90112052D01*
X116323709Y-90363181D01*
X116323708Y-90363181D01*
X116458602Y-90596822D01*
X116512294Y-90664151D01*
X116512295Y-90664151D01*
X117234153Y-89942293D01*
X117241049Y-89958942D01*
X117328599Y-90089970D01*
X117440030Y-90201401D01*
X117571058Y-90288951D01*
X117587705Y-90295846D01*
X116864848Y-91018702D01*
X117047483Y-91143220D01*
X117047485Y-91143221D01*
X117290539Y-91260269D01*
X117290537Y-91260269D01*
X117548337Y-91339790D01*
X117548343Y-91339792D01*
X117815101Y-91379999D01*
X117815110Y-91380000D01*
X118084890Y-91380000D01*
X118084898Y-91379999D01*
X118351656Y-91339792D01*
X118351662Y-91339790D01*
X118609461Y-91260269D01*
X118852521Y-91143218D01*
X119035150Y-91018702D01*
X118312294Y-90295846D01*
X118328942Y-90288951D01*
X118459970Y-90201401D01*
X118571401Y-90089970D01*
X118658951Y-89958942D01*
X118665846Y-89942294D01*
X119387703Y-90664151D01*
X119387704Y-90664150D01*
X119441393Y-90596828D01*
X119441400Y-90596817D01*
X119576290Y-90363181D01*
X119674851Y-90112052D01*
X119674857Y-90112033D01*
X119734886Y-89849028D01*
X119734886Y-89849026D01*
X119755047Y-89580004D01*
X119755047Y-89579995D01*
X119734886Y-89310973D01*
X119734886Y-89310971D01*
X119674857Y-89047966D01*
X119674851Y-89047947D01*
X119576290Y-88796818D01*
X119576291Y-88796818D01*
X119462961Y-88600527D01*
X119446488Y-88532627D01*
X119469340Y-88466600D01*
X119524261Y-88423410D01*
X119593815Y-88416768D01*
X119640197Y-88436071D01*
X119712296Y-88485228D01*
X119712301Y-88485230D01*
X119712302Y-88485231D01*
X119712303Y-88485232D01*
X119810721Y-88532627D01*
X119948673Y-88599061D01*
X119948674Y-88599061D01*
X119948677Y-88599063D01*
X120199385Y-88676396D01*
X120458818Y-88715500D01*
X120721182Y-88715500D01*
X120980615Y-88676396D01*
X121231323Y-88599063D01*
X121266056Y-88582336D01*
X121334994Y-88570985D01*
X121399128Y-88598706D01*
X121438094Y-88656701D01*
X121439520Y-88726556D01*
X121427243Y-88756056D01*
X121403708Y-88796820D01*
X121305148Y-89047947D01*
X121305142Y-89047966D01*
X121245113Y-89310971D01*
X121245113Y-89310973D01*
X121224953Y-89579995D01*
X121224953Y-89580004D01*
X121245113Y-89849026D01*
X121245113Y-89849028D01*
X121305142Y-90112033D01*
X121305148Y-90112052D01*
X121403709Y-90363181D01*
X121403708Y-90363181D01*
X121538602Y-90596822D01*
X121592294Y-90664151D01*
X122314152Y-89942293D01*
X122321049Y-89958942D01*
X122408599Y-90089970D01*
X122520030Y-90201401D01*
X122651058Y-90288951D01*
X122667705Y-90295846D01*
X121944848Y-91018702D01*
X122127483Y-91143220D01*
X122127485Y-91143221D01*
X122370539Y-91260269D01*
X122370537Y-91260269D01*
X122628337Y-91339790D01*
X122628343Y-91339792D01*
X122895101Y-91379999D01*
X122895110Y-91380000D01*
X123164890Y-91380000D01*
X123164898Y-91379999D01*
X123431656Y-91339792D01*
X123431662Y-91339790D01*
X123689461Y-91260269D01*
X123932521Y-91143218D01*
X124115150Y-91018702D01*
X123392294Y-90295846D01*
X123408942Y-90288951D01*
X123539970Y-90201401D01*
X123651401Y-90089970D01*
X123738951Y-89958942D01*
X123745846Y-89942294D01*
X124467703Y-90664151D01*
X124467704Y-90664150D01*
X124521393Y-90596828D01*
X124521400Y-90596817D01*
X124656290Y-90363181D01*
X124754851Y-90112052D01*
X124754857Y-90112033D01*
X124814886Y-89849028D01*
X124814886Y-89849026D01*
X124835047Y-89580004D01*
X124835047Y-89579995D01*
X124814886Y-89310973D01*
X124814886Y-89310971D01*
X124754857Y-89047966D01*
X124754851Y-89047947D01*
X124656290Y-88796818D01*
X124656291Y-88796818D01*
X124521397Y-88563177D01*
X124467704Y-88495847D01*
X123745846Y-89217705D01*
X123738951Y-89201058D01*
X123651401Y-89070030D01*
X123539970Y-88958599D01*
X123408942Y-88871049D01*
X123392293Y-88864153D01*
X124115150Y-88141296D01*
X123932517Y-88016779D01*
X123932516Y-88016778D01*
X123689460Y-87899730D01*
X123689462Y-87899730D01*
X123431662Y-87820209D01*
X123431656Y-87820207D01*
X123164898Y-87780000D01*
X122895101Y-87780000D01*
X122628343Y-87820207D01*
X122628337Y-87820209D01*
X122370544Y-87899728D01*
X122318711Y-87924690D01*
X122249769Y-87936041D01*
X122185635Y-87908318D01*
X122146670Y-87850323D01*
X122145245Y-87780468D01*
X122157522Y-87750970D01*
X122171568Y-87726643D01*
X122267420Y-87482416D01*
X122325802Y-87226630D01*
X122342786Y-86999994D01*
X125694357Y-86999994D01*
X125694357Y-87000005D01*
X125714890Y-87247812D01*
X125714892Y-87247824D01*
X125775936Y-87488881D01*
X125875826Y-87716606D01*
X126011833Y-87924782D01*
X126011836Y-87924785D01*
X126180256Y-88107738D01*
X126376491Y-88260474D01*
X126595190Y-88378828D01*
X126830386Y-88459571D01*
X127075665Y-88500500D01*
X127324335Y-88500500D01*
X127569614Y-88459571D01*
X127804810Y-88378828D01*
X128023509Y-88260474D01*
X128219744Y-88107738D01*
X128388164Y-87924785D01*
X128524173Y-87716607D01*
X128624063Y-87488881D01*
X128685108Y-87247821D01*
X128686864Y-87226630D01*
X128705643Y-87000005D01*
X128705643Y-86999994D01*
X141694357Y-86999994D01*
X141694357Y-87000005D01*
X141714890Y-87247812D01*
X141714892Y-87247824D01*
X141775936Y-87488881D01*
X141875826Y-87716606D01*
X142011833Y-87924782D01*
X142011836Y-87924785D01*
X142180256Y-88107738D01*
X142376491Y-88260474D01*
X142595190Y-88378828D01*
X142607292Y-88382982D01*
X142664307Y-88423365D01*
X142690439Y-88488164D01*
X142677391Y-88556804D01*
X142629304Y-88607493D01*
X142607300Y-88617543D01*
X142595398Y-88621629D01*
X142595390Y-88621632D01*
X142376761Y-88739949D01*
X142329942Y-88776388D01*
X142329942Y-88776390D01*
X143070590Y-89517037D01*
X143007007Y-89534075D01*
X142892993Y-89599901D01*
X142799901Y-89692993D01*
X142734075Y-89807007D01*
X142717037Y-89870589D01*
X141976564Y-89130116D01*
X141876267Y-89283632D01*
X141776412Y-89511282D01*
X141715387Y-89752261D01*
X141715385Y-89752270D01*
X141694859Y-89999994D01*
X141694859Y-90000005D01*
X141715385Y-90247729D01*
X141715387Y-90247738D01*
X141776412Y-90488717D01*
X141876266Y-90716364D01*
X141976564Y-90869882D01*
X142717037Y-90129409D01*
X142734075Y-90192993D01*
X142799901Y-90307007D01*
X142892993Y-90400099D01*
X143007007Y-90465925D01*
X143070590Y-90482962D01*
X142329942Y-91223609D01*
X142376768Y-91260055D01*
X142376770Y-91260056D01*
X142595385Y-91378364D01*
X142595396Y-91378369D01*
X142607294Y-91382454D01*
X142664309Y-91422839D01*
X142690440Y-91487639D01*
X142677389Y-91556279D01*
X142629300Y-91606967D01*
X142607296Y-91617016D01*
X142595191Y-91621171D01*
X142595188Y-91621172D01*
X142376493Y-91739524D01*
X142180257Y-91892261D01*
X142011833Y-92075217D01*
X141875826Y-92283393D01*
X141775936Y-92511118D01*
X141714892Y-92752175D01*
X141714890Y-92752187D01*
X141694357Y-92999994D01*
X141694357Y-93000005D01*
X141714890Y-93247812D01*
X141714892Y-93247824D01*
X141775936Y-93488881D01*
X141875826Y-93716606D01*
X142011833Y-93924782D01*
X142011836Y-93924785D01*
X142180256Y-94107738D01*
X142376491Y-94260474D01*
X142376493Y-94260475D01*
X142594332Y-94378364D01*
X142595190Y-94378828D01*
X142814141Y-94453994D01*
X142828964Y-94459083D01*
X142830386Y-94459571D01*
X143075665Y-94500500D01*
X143324335Y-94500500D01*
X143569614Y-94459571D01*
X143804810Y-94378828D01*
X144023509Y-94260474D01*
X144219744Y-94107738D01*
X144388164Y-93924785D01*
X144524173Y-93716607D01*
X144624063Y-93488881D01*
X144685108Y-93247821D01*
X144705643Y-93000000D01*
X144689651Y-92807007D01*
X144685109Y-92752187D01*
X144685107Y-92752175D01*
X144624063Y-92511118D01*
X144524173Y-92283393D01*
X144388166Y-92075217D01*
X144298484Y-91977797D01*
X144219744Y-91892262D01*
X144023509Y-91739526D01*
X144023507Y-91739525D01*
X144023506Y-91739524D01*
X143804811Y-91621172D01*
X143804802Y-91621169D01*
X143792705Y-91617016D01*
X143735690Y-91576631D01*
X143709559Y-91511831D01*
X143722610Y-91443191D01*
X143770699Y-91392504D01*
X143792707Y-91382453D01*
X143804608Y-91378367D01*
X143804614Y-91378364D01*
X144023228Y-91260057D01*
X144023231Y-91260055D01*
X144070056Y-91223609D01*
X143329409Y-90482962D01*
X143392993Y-90465925D01*
X143507007Y-90400099D01*
X143600099Y-90307007D01*
X143665925Y-90192993D01*
X143682962Y-90129409D01*
X144423434Y-90869882D01*
X144523731Y-90716369D01*
X144623587Y-90488717D01*
X144684612Y-90247738D01*
X144684614Y-90247729D01*
X144705141Y-90000005D01*
X144705141Y-89999994D01*
X144684614Y-89752270D01*
X144684612Y-89752261D01*
X144623587Y-89511282D01*
X144523731Y-89283630D01*
X144423434Y-89130116D01*
X143682962Y-89870589D01*
X143665925Y-89807007D01*
X143600099Y-89692993D01*
X143507007Y-89599901D01*
X143392993Y-89534075D01*
X143329410Y-89517037D01*
X144070057Y-88776390D01*
X144070056Y-88776389D01*
X144023229Y-88739943D01*
X143804614Y-88621635D01*
X143804605Y-88621631D01*
X143792701Y-88617544D01*
X143735687Y-88577156D01*
X143709559Y-88512356D01*
X143722612Y-88443716D01*
X143770703Y-88393030D01*
X143792705Y-88382983D01*
X143804810Y-88378828D01*
X144023509Y-88260474D01*
X144219744Y-88107738D01*
X144388164Y-87924785D01*
X144524173Y-87716607D01*
X144624063Y-87488881D01*
X144685108Y-87247821D01*
X144686864Y-87226630D01*
X144705643Y-87000005D01*
X144705643Y-86999994D01*
X149494357Y-86999994D01*
X149494357Y-87000005D01*
X149514890Y-87247812D01*
X149514892Y-87247824D01*
X149575936Y-87488881D01*
X149675826Y-87716606D01*
X149811833Y-87924782D01*
X149811836Y-87924785D01*
X149980256Y-88107738D01*
X150176491Y-88260474D01*
X150395190Y-88378828D01*
X150405682Y-88382430D01*
X150406524Y-88382719D01*
X150463539Y-88423106D01*
X150489668Y-88487906D01*
X150476615Y-88556546D01*
X150428526Y-88607233D01*
X150406524Y-88617281D01*
X150395191Y-88621171D01*
X150395188Y-88621172D01*
X150176493Y-88739524D01*
X149980257Y-88892261D01*
X149811833Y-89075217D01*
X149675826Y-89283393D01*
X149575936Y-89511118D01*
X149514892Y-89752175D01*
X149514890Y-89752187D01*
X149494357Y-89999994D01*
X149494357Y-90000005D01*
X149514890Y-90247812D01*
X149514892Y-90247824D01*
X149575936Y-90488881D01*
X149675826Y-90716606D01*
X149811833Y-90924782D01*
X149811836Y-90924785D01*
X149980256Y-91107738D01*
X150176491Y-91260474D01*
X150176493Y-91260475D01*
X150395182Y-91378824D01*
X150395190Y-91378828D01*
X150405682Y-91382430D01*
X150406524Y-91382719D01*
X150463539Y-91423106D01*
X150489668Y-91487906D01*
X150476615Y-91556546D01*
X150428526Y-91607233D01*
X150406524Y-91617281D01*
X150395191Y-91621171D01*
X150395188Y-91621172D01*
X150176493Y-91739524D01*
X149980257Y-91892261D01*
X149811833Y-92075217D01*
X149675826Y-92283393D01*
X149575936Y-92511118D01*
X149514892Y-92752175D01*
X149514890Y-92752187D01*
X149494357Y-92999994D01*
X149494357Y-93000005D01*
X149514890Y-93247812D01*
X149514892Y-93247824D01*
X149575936Y-93488881D01*
X149675826Y-93716606D01*
X149811833Y-93924782D01*
X149811836Y-93924785D01*
X149980256Y-94107738D01*
X150176491Y-94260474D01*
X150176493Y-94260475D01*
X150394332Y-94378364D01*
X150395190Y-94378828D01*
X150614141Y-94453994D01*
X150628964Y-94459083D01*
X150630386Y-94459571D01*
X150875665Y-94500500D01*
X151124335Y-94500500D01*
X151369614Y-94459571D01*
X151604810Y-94378828D01*
X151823509Y-94260474D01*
X152019744Y-94107738D01*
X152188164Y-93924785D01*
X152324173Y-93716607D01*
X152424063Y-93488881D01*
X152485108Y-93247821D01*
X152505643Y-93000000D01*
X152489651Y-92807007D01*
X152485109Y-92752187D01*
X152485107Y-92752175D01*
X152424063Y-92511118D01*
X152324173Y-92283393D01*
X152188166Y-92075217D01*
X152098484Y-91977797D01*
X152019744Y-91892262D01*
X151823509Y-91739526D01*
X151823507Y-91739525D01*
X151823506Y-91739524D01*
X151604811Y-91621172D01*
X151604802Y-91621169D01*
X151593477Y-91617281D01*
X151536462Y-91576896D01*
X151510331Y-91512096D01*
X151523382Y-91443456D01*
X151571471Y-91392768D01*
X151593477Y-91382719D01*
X151597235Y-91381428D01*
X151604810Y-91378828D01*
X151805565Y-91270185D01*
X151814324Y-91265445D01*
X151873341Y-91250500D01*
X153075500Y-91250500D01*
X153142539Y-91270185D01*
X153188294Y-91322989D01*
X153199500Y-91374500D01*
X153199500Y-91875001D01*
X153199501Y-91875019D01*
X153210000Y-91977796D01*
X153210001Y-91977799D01*
X153242282Y-92075215D01*
X153265186Y-92144334D01*
X153357288Y-92293656D01*
X153481344Y-92417712D01*
X153630666Y-92509814D01*
X153630667Y-92509814D01*
X153630670Y-92509816D01*
X153654999Y-92517877D01*
X153712446Y-92557647D01*
X153739271Y-92622162D01*
X153740000Y-92635584D01*
X153740000Y-93314941D01*
X153720315Y-93381980D01*
X153667511Y-93427735D01*
X153655006Y-93432646D01*
X153630880Y-93440640D01*
X153481654Y-93532684D01*
X153357684Y-93656654D01*
X153265643Y-93805875D01*
X153265641Y-93805880D01*
X153210494Y-93972302D01*
X153210493Y-93972309D01*
X153200000Y-94075013D01*
X153200000Y-94200000D01*
X155999999Y-94200000D01*
X155999999Y-94075028D01*
X155999998Y-94075013D01*
X155989505Y-93972302D01*
X155934358Y-93805880D01*
X155934356Y-93805875D01*
X155842315Y-93656654D01*
X155718344Y-93532683D01*
X155718340Y-93532680D01*
X155618903Y-93471346D01*
X155572178Y-93419398D01*
X155560000Y-93365808D01*
X155560000Y-92584778D01*
X155579685Y-92517739D01*
X155618904Y-92479239D01*
X155718656Y-92417712D01*
X155842712Y-92293656D01*
X155934814Y-92144334D01*
X155989999Y-91977797D01*
X156000500Y-91875009D01*
X156000499Y-91374499D01*
X156020183Y-91307461D01*
X156072987Y-91261706D01*
X156124499Y-91250500D01*
X166098422Y-91250500D01*
X166292826Y-91219709D01*
X166480025Y-91158884D01*
X166655405Y-91069524D01*
X166814646Y-90953828D01*
X166953828Y-90814646D01*
X167069524Y-90655405D01*
X167158884Y-90480025D01*
X167219709Y-90292826D01*
X167226837Y-90247821D01*
X167250500Y-90098422D01*
X167250500Y-89901577D01*
X167219709Y-89707173D01*
X167158882Y-89519970D01*
X167111743Y-89427455D01*
X167069524Y-89344595D01*
X166953828Y-89185354D01*
X166814646Y-89046172D01*
X166655405Y-88930476D01*
X166480029Y-88841117D01*
X166292826Y-88780290D01*
X166098422Y-88749500D01*
X166098417Y-88749500D01*
X164898417Y-88749500D01*
X163748417Y-88749500D01*
X156174500Y-88749500D01*
X156107461Y-88729815D01*
X156061706Y-88677011D01*
X156050500Y-88625500D01*
X156050499Y-88124998D01*
X156050498Y-88124980D01*
X156039999Y-88022203D01*
X156039998Y-88022200D01*
X156038201Y-88016778D01*
X155984814Y-87855666D01*
X155892712Y-87706344D01*
X155768656Y-87582288D01*
X155619334Y-87490186D01*
X155618903Y-87489920D01*
X155572179Y-87437972D01*
X155560000Y-87384381D01*
X155560000Y-86665031D01*
X155579685Y-86597992D01*
X155618903Y-86559492D01*
X155768345Y-86467315D01*
X155892315Y-86343345D01*
X155984356Y-86194124D01*
X155984358Y-86194119D01*
X156039505Y-86027697D01*
X156039506Y-86027690D01*
X156049999Y-85924986D01*
X156050000Y-85924973D01*
X156050000Y-85800000D01*
X153250001Y-85800000D01*
X153250001Y-85924986D01*
X153260494Y-86027697D01*
X153315641Y-86194119D01*
X153315643Y-86194124D01*
X153407684Y-86343345D01*
X153531654Y-86467315D01*
X153681097Y-86559492D01*
X153727821Y-86611440D01*
X153740000Y-86665031D01*
X153740000Y-87384381D01*
X153720315Y-87451420D01*
X153681097Y-87489920D01*
X153531342Y-87582289D01*
X153407289Y-87706342D01*
X153315187Y-87855663D01*
X153315185Y-87855668D01*
X153297739Y-87908318D01*
X153260001Y-88022203D01*
X153260001Y-88022204D01*
X153260000Y-88022204D01*
X153249500Y-88124983D01*
X153249500Y-88124991D01*
X153249500Y-88436073D01*
X153249501Y-88625500D01*
X153229817Y-88692539D01*
X153177013Y-88738294D01*
X153125501Y-88749500D01*
X151873341Y-88749500D01*
X151814324Y-88734555D01*
X151604816Y-88621175D01*
X151604813Y-88621174D01*
X151604810Y-88621172D01*
X151604804Y-88621170D01*
X151604802Y-88621169D01*
X151593477Y-88617281D01*
X151536462Y-88576896D01*
X151510331Y-88512096D01*
X151523382Y-88443456D01*
X151571471Y-88392768D01*
X151593477Y-88382719D01*
X151597235Y-88381428D01*
X151604810Y-88378828D01*
X151823509Y-88260474D01*
X152019744Y-88107738D01*
X152188164Y-87924785D01*
X152324173Y-87716607D01*
X152424063Y-87488881D01*
X152485108Y-87247821D01*
X152486864Y-87226630D01*
X152505643Y-87000005D01*
X152505643Y-86999994D01*
X152485109Y-86752187D01*
X152485107Y-86752175D01*
X152424063Y-86511118D01*
X152324173Y-86283393D01*
X152188166Y-86075217D01*
X152166557Y-86051744D01*
X152019744Y-85892262D01*
X151823509Y-85739526D01*
X151823507Y-85739525D01*
X151823506Y-85739524D01*
X151604811Y-85621172D01*
X151604802Y-85621169D01*
X151369616Y-85540429D01*
X151124335Y-85499500D01*
X150875665Y-85499500D01*
X150630383Y-85540429D01*
X150395197Y-85621169D01*
X150395188Y-85621172D01*
X150176493Y-85739524D01*
X149980257Y-85892261D01*
X149811833Y-86075217D01*
X149675826Y-86283393D01*
X149575936Y-86511118D01*
X149514892Y-86752175D01*
X149514890Y-86752187D01*
X149494357Y-86999994D01*
X144705643Y-86999994D01*
X144685109Y-86752187D01*
X144685107Y-86752175D01*
X144624063Y-86511118D01*
X144524173Y-86283393D01*
X144388166Y-86075217D01*
X144366557Y-86051744D01*
X144219744Y-85892262D01*
X144023509Y-85739526D01*
X144023507Y-85739525D01*
X144023506Y-85739524D01*
X143804811Y-85621172D01*
X143804802Y-85621169D01*
X143569616Y-85540429D01*
X143324335Y-85499500D01*
X143075665Y-85499500D01*
X142830383Y-85540429D01*
X142595197Y-85621169D01*
X142595188Y-85621172D01*
X142376493Y-85739524D01*
X142180257Y-85892261D01*
X142011833Y-86075217D01*
X141875826Y-86283393D01*
X141775936Y-86511118D01*
X141714892Y-86752175D01*
X141714890Y-86752187D01*
X141694357Y-86999994D01*
X128705643Y-86999994D01*
X128685109Y-86752187D01*
X128685107Y-86752175D01*
X128624063Y-86511118D01*
X128524173Y-86283393D01*
X128388166Y-86075217D01*
X128366557Y-86051744D01*
X128219744Y-85892262D01*
X128023509Y-85739526D01*
X128023507Y-85739525D01*
X128023506Y-85739524D01*
X127804811Y-85621172D01*
X127804802Y-85621169D01*
X127569616Y-85540429D01*
X127324335Y-85499500D01*
X127075665Y-85499500D01*
X126830383Y-85540429D01*
X126595197Y-85621169D01*
X126595188Y-85621172D01*
X126376493Y-85739524D01*
X126180257Y-85892261D01*
X126011833Y-86075217D01*
X125875826Y-86283393D01*
X125775936Y-86511118D01*
X125714892Y-86752175D01*
X125714890Y-86752187D01*
X125694357Y-86999994D01*
X122342786Y-86999994D01*
X122345408Y-86965000D01*
X122329460Y-86752187D01*
X122325803Y-86703379D01*
X122325802Y-86703374D01*
X122325802Y-86703370D01*
X122267420Y-86447584D01*
X122227923Y-86346949D01*
X122221755Y-86277353D01*
X122254193Y-86215470D01*
X122314938Y-86180947D01*
X122379902Y-86183157D01*
X122628337Y-86259790D01*
X122628343Y-86259792D01*
X122895101Y-86299999D01*
X122895110Y-86300000D01*
X123164890Y-86300000D01*
X123164898Y-86299999D01*
X123431656Y-86259792D01*
X123431662Y-86259790D01*
X123689461Y-86180269D01*
X123932521Y-86063218D01*
X124115150Y-85938702D01*
X123392294Y-85215846D01*
X123408942Y-85208951D01*
X123539970Y-85121401D01*
X123651401Y-85009970D01*
X123738951Y-84878942D01*
X123745846Y-84862294D01*
X124467703Y-85584151D01*
X124467704Y-85584150D01*
X124521393Y-85516828D01*
X124521400Y-85516817D01*
X124656290Y-85283181D01*
X124698743Y-85175013D01*
X153250000Y-85175013D01*
X153250000Y-85300000D01*
X154400000Y-85300000D01*
X154900000Y-85300000D01*
X156049999Y-85300000D01*
X156049999Y-85175028D01*
X156049998Y-85175013D01*
X156039505Y-85072302D01*
X155984358Y-84905880D01*
X155984356Y-84905875D01*
X155892315Y-84756654D01*
X155768345Y-84632684D01*
X155619124Y-84540643D01*
X155619119Y-84540641D01*
X155452697Y-84485494D01*
X155452690Y-84485493D01*
X155349986Y-84475000D01*
X154900000Y-84475000D01*
X154900000Y-85300000D01*
X154400000Y-85300000D01*
X154400000Y-84475000D01*
X153950028Y-84475000D01*
X153950012Y-84475001D01*
X153847302Y-84485494D01*
X153680880Y-84540641D01*
X153680875Y-84540643D01*
X153531654Y-84632684D01*
X153407684Y-84756654D01*
X153315643Y-84905875D01*
X153315641Y-84905880D01*
X153260494Y-85072302D01*
X153260493Y-85072309D01*
X153250000Y-85175013D01*
X124698743Y-85175013D01*
X124754851Y-85032052D01*
X124754857Y-85032033D01*
X124814886Y-84769028D01*
X124814886Y-84769026D01*
X124835047Y-84500004D01*
X124835047Y-84499995D01*
X124814886Y-84230973D01*
X124814886Y-84230971D01*
X124754857Y-83967966D01*
X124754851Y-83967947D01*
X124656290Y-83716818D01*
X124656291Y-83716818D01*
X124521397Y-83483177D01*
X124467704Y-83415847D01*
X123745846Y-84137705D01*
X123738951Y-84121058D01*
X123651401Y-83990030D01*
X123539970Y-83878599D01*
X123408942Y-83791049D01*
X123392294Y-83784153D01*
X124115150Y-83061296D01*
X124025236Y-82999994D01*
X157494357Y-82999994D01*
X157494357Y-83000005D01*
X157514890Y-83247812D01*
X157514892Y-83247824D01*
X157575936Y-83488881D01*
X157675826Y-83716606D01*
X157811833Y-83924782D01*
X157811836Y-83924785D01*
X157980256Y-84107738D01*
X158176491Y-84260474D01*
X158395190Y-84378828D01*
X158630386Y-84459571D01*
X158875665Y-84500500D01*
X159124335Y-84500500D01*
X159369614Y-84459571D01*
X159604810Y-84378828D01*
X159823509Y-84260474D01*
X160019744Y-84107738D01*
X160188164Y-83924785D01*
X160324173Y-83716607D01*
X160424063Y-83488881D01*
X160485108Y-83247821D01*
X160505643Y-83000000D01*
X160505643Y-82999994D01*
X195494357Y-82999994D01*
X195494357Y-83000005D01*
X195514890Y-83247812D01*
X195514892Y-83247824D01*
X195575936Y-83488881D01*
X195675826Y-83716606D01*
X195811833Y-83924782D01*
X195811836Y-83924785D01*
X195980256Y-84107738D01*
X196176491Y-84260474D01*
X196395190Y-84378828D01*
X196630386Y-84459571D01*
X196875665Y-84500500D01*
X197124335Y-84500500D01*
X197369614Y-84459571D01*
X197604810Y-84378828D01*
X197823509Y-84260474D01*
X198019744Y-84107738D01*
X198188164Y-83924785D01*
X198324173Y-83716607D01*
X198424063Y-83488881D01*
X198485108Y-83247821D01*
X198505643Y-83000000D01*
X198500404Y-82936779D01*
X198485109Y-82752187D01*
X198485107Y-82752175D01*
X198424063Y-82511118D01*
X198324173Y-82283393D01*
X198188166Y-82075217D01*
X198166557Y-82051744D01*
X198019744Y-81892262D01*
X197823509Y-81739526D01*
X197823507Y-81739525D01*
X197823506Y-81739524D01*
X197604811Y-81621172D01*
X197604802Y-81621169D01*
X197369616Y-81540429D01*
X197124335Y-81499500D01*
X196875665Y-81499500D01*
X196630383Y-81540429D01*
X196395197Y-81621169D01*
X196395188Y-81621172D01*
X196176493Y-81739524D01*
X195980257Y-81892261D01*
X195811833Y-82075217D01*
X195675826Y-82283393D01*
X195575936Y-82511118D01*
X195514892Y-82752175D01*
X195514890Y-82752187D01*
X195494357Y-82999994D01*
X160505643Y-82999994D01*
X160500404Y-82936779D01*
X160485109Y-82752187D01*
X160485107Y-82752175D01*
X160424063Y-82511118D01*
X160324173Y-82283393D01*
X160188166Y-82075217D01*
X160166557Y-82051744D01*
X160019744Y-81892262D01*
X159823509Y-81739526D01*
X159823507Y-81739525D01*
X159823506Y-81739524D01*
X159604811Y-81621172D01*
X159604802Y-81621169D01*
X159369616Y-81540429D01*
X159124335Y-81499500D01*
X158875665Y-81499500D01*
X158630383Y-81540429D01*
X158395197Y-81621169D01*
X158395188Y-81621172D01*
X158176493Y-81739524D01*
X157980257Y-81892261D01*
X157811833Y-82075217D01*
X157675826Y-82283393D01*
X157575936Y-82511118D01*
X157514892Y-82752175D01*
X157514890Y-82752187D01*
X157494357Y-82999994D01*
X124025236Y-82999994D01*
X123932517Y-82936779D01*
X123932516Y-82936778D01*
X123689460Y-82819730D01*
X123689462Y-82819730D01*
X123431662Y-82740209D01*
X123431656Y-82740207D01*
X123164898Y-82700000D01*
X122895101Y-82700000D01*
X122628343Y-82740207D01*
X122628337Y-82740209D01*
X122370538Y-82819730D01*
X122127485Y-82936778D01*
X122127476Y-82936783D01*
X121944848Y-83061296D01*
X122667705Y-83784153D01*
X122651058Y-83791049D01*
X122520030Y-83878599D01*
X122408599Y-83990030D01*
X122321049Y-84121058D01*
X122314153Y-84137706D01*
X121592295Y-83415848D01*
X121538600Y-83483180D01*
X121403709Y-83716818D01*
X121305148Y-83967947D01*
X121305142Y-83967966D01*
X121245113Y-84230971D01*
X121245113Y-84230973D01*
X121224953Y-84499995D01*
X121224953Y-84500004D01*
X121245113Y-84769026D01*
X121245113Y-84769028D01*
X121305142Y-85032033D01*
X121305148Y-85032052D01*
X121354706Y-85158324D01*
X121360875Y-85227921D01*
X121328437Y-85289804D01*
X121267692Y-85324327D01*
X121202729Y-85322117D01*
X121097973Y-85289804D01*
X120980623Y-85253606D01*
X120980619Y-85253605D01*
X120980615Y-85253604D01*
X120855823Y-85234794D01*
X120721187Y-85214500D01*
X120721182Y-85214500D01*
X120458818Y-85214500D01*
X120458812Y-85214500D01*
X120297247Y-85238853D01*
X120199385Y-85253604D01*
X120199382Y-85253605D01*
X120199376Y-85253606D01*
X119948673Y-85330938D01*
X119751052Y-85426107D01*
X119682111Y-85437459D01*
X119617976Y-85409736D01*
X119579011Y-85351741D01*
X119577586Y-85281886D01*
X119581823Y-85269085D01*
X119674851Y-85032052D01*
X119674857Y-85032033D01*
X119734886Y-84769028D01*
X119734886Y-84769026D01*
X119755047Y-84500004D01*
X119755047Y-84499995D01*
X119734886Y-84230973D01*
X119734886Y-84230971D01*
X119674857Y-83967966D01*
X119674851Y-83967947D01*
X119576290Y-83716818D01*
X119576291Y-83716818D01*
X119441397Y-83483177D01*
X119387704Y-83415847D01*
X118665846Y-84137705D01*
X118658951Y-84121058D01*
X118571401Y-83990030D01*
X118459970Y-83878599D01*
X118328942Y-83791049D01*
X118312294Y-83784153D01*
X119035150Y-83061296D01*
X118852517Y-82936779D01*
X118852516Y-82936778D01*
X118609460Y-82819730D01*
X118609462Y-82819730D01*
X118351662Y-82740209D01*
X118351656Y-82740207D01*
X118084898Y-82700000D01*
X117815101Y-82700000D01*
X117548343Y-82740207D01*
X117548337Y-82740209D01*
X117290538Y-82819730D01*
X117047485Y-82936778D01*
X117047476Y-82936783D01*
X116864848Y-83061296D01*
X117587705Y-83784153D01*
X117571058Y-83791049D01*
X117440030Y-83878599D01*
X117328599Y-83990030D01*
X117241049Y-84121058D01*
X117234153Y-84137706D01*
X116512295Y-83415848D01*
X116458600Y-83483180D01*
X116323709Y-83716818D01*
X116225148Y-83967947D01*
X116225142Y-83967966D01*
X116165113Y-84230971D01*
X116165113Y-84230973D01*
X116144953Y-84499995D01*
X115500500Y-84499995D01*
X115500500Y-75359998D01*
X133224838Y-75359998D01*
X133224838Y-75360001D01*
X133243450Y-75572741D01*
X133243452Y-75572752D01*
X133298721Y-75779022D01*
X133298723Y-75779026D01*
X133298724Y-75779030D01*
X133341171Y-75870058D01*
X133388977Y-75972578D01*
X133511472Y-76147521D01*
X133662478Y-76298527D01*
X133662481Y-76298529D01*
X133837419Y-76421021D01*
X133837421Y-76421022D01*
X133837420Y-76421022D01*
X133901936Y-76451106D01*
X134030970Y-76511276D01*
X134030983Y-76511279D01*
X134036064Y-76513130D01*
X134035292Y-76515250D01*
X134086710Y-76546594D01*
X134117237Y-76609442D01*
X134108939Y-76678817D01*
X134064452Y-76732693D01*
X134035685Y-76745830D01*
X134036064Y-76746870D01*
X134030972Y-76748723D01*
X134030970Y-76748724D01*
X134030968Y-76748725D01*
X133837421Y-76838977D01*
X133662478Y-76961472D01*
X133511472Y-77112478D01*
X133388977Y-77287421D01*
X133298725Y-77480968D01*
X133298721Y-77480977D01*
X133243452Y-77687247D01*
X133243450Y-77687258D01*
X133224838Y-77899998D01*
X133224838Y-77900001D01*
X133243450Y-78112741D01*
X133243452Y-78112752D01*
X133298721Y-78319022D01*
X133298723Y-78319026D01*
X133298724Y-78319030D01*
X133341171Y-78410058D01*
X133388977Y-78512578D01*
X133511472Y-78687521D01*
X133662478Y-78838527D01*
X133662481Y-78838529D01*
X133837419Y-78961021D01*
X133837421Y-78961022D01*
X133837420Y-78961022D01*
X133901936Y-78991106D01*
X134030970Y-79051276D01*
X134237253Y-79106549D01*
X134389215Y-79119844D01*
X134449998Y-79125162D01*
X134450000Y-79125162D01*
X134450002Y-79125162D01*
X134503186Y-79120508D01*
X134662747Y-79106549D01*
X134869030Y-79051276D01*
X135062581Y-78961021D01*
X135237519Y-78838529D01*
X135388529Y-78687519D01*
X135511021Y-78512581D01*
X135601276Y-78319030D01*
X135656549Y-78112747D01*
X135675162Y-77900000D01*
X135656549Y-77687253D01*
X135601276Y-77480970D01*
X135511021Y-77287419D01*
X135388529Y-77112481D01*
X135388527Y-77112478D01*
X135237521Y-76961472D01*
X135062578Y-76838977D01*
X135062579Y-76838977D01*
X134933547Y-76778809D01*
X134869030Y-76748724D01*
X134869023Y-76748722D01*
X134863936Y-76746870D01*
X134864709Y-76744746D01*
X134813305Y-76713424D01*
X134782766Y-76650581D01*
X134791050Y-76581204D01*
X134835528Y-76527320D01*
X134864315Y-76514172D01*
X134863936Y-76513130D01*
X134869013Y-76511280D01*
X134869030Y-76511276D01*
X135062581Y-76421021D01*
X135237519Y-76298529D01*
X135388529Y-76147519D01*
X135511021Y-75972581D01*
X135601276Y-75779030D01*
X135656549Y-75572747D01*
X135675162Y-75360000D01*
X135656549Y-75147253D01*
X135601276Y-74940970D01*
X135511021Y-74747419D01*
X135388529Y-74572481D01*
X135388527Y-74572478D01*
X135237521Y-74421472D01*
X135062578Y-74298977D01*
X135062579Y-74298977D01*
X134933547Y-74238809D01*
X134869030Y-74208724D01*
X134869023Y-74208722D01*
X134863936Y-74206870D01*
X134864606Y-74205028D01*
X134812293Y-74173114D01*
X134781789Y-74110255D01*
X134790111Y-74040883D01*
X134834617Y-73987022D01*
X134864097Y-73973574D01*
X134863764Y-73972658D01*
X134868864Y-73970801D01*
X135062325Y-73880589D01*
X135118030Y-73841583D01*
X134496448Y-73220000D01*
X134502661Y-73220000D01*
X134604394Y-73192741D01*
X134695606Y-73140080D01*
X134770080Y-73065606D01*
X134822741Y-72974394D01*
X134850000Y-72872661D01*
X134850000Y-72866446D01*
X135471583Y-73488029D01*
X135510589Y-73432325D01*
X135600801Y-73238864D01*
X135600805Y-73238853D01*
X135656054Y-73032662D01*
X135656055Y-73032654D01*
X135674660Y-72820002D01*
X135674660Y-72819997D01*
X135656055Y-72607345D01*
X135656054Y-72607337D01*
X135600805Y-72401146D01*
X135600802Y-72401140D01*
X135510586Y-72207669D01*
X135510582Y-72207663D01*
X135471584Y-72151968D01*
X134850000Y-72773552D01*
X134850000Y-72767339D01*
X134822741Y-72665606D01*
X134770080Y-72574394D01*
X134695606Y-72499920D01*
X134604394Y-72447259D01*
X134502661Y-72420000D01*
X134496447Y-72420000D01*
X135118030Y-71798415D01*
X135062329Y-71759413D01*
X134868859Y-71669197D01*
X134868853Y-71669194D01*
X134662662Y-71613945D01*
X134662654Y-71613944D01*
X134450002Y-71595340D01*
X134449998Y-71595340D01*
X134237345Y-71613944D01*
X134237337Y-71613945D01*
X134031146Y-71669194D01*
X134031140Y-71669197D01*
X133837671Y-71759412D01*
X133837669Y-71759413D01*
X133781969Y-71798415D01*
X133781968Y-71798415D01*
X134403554Y-72420000D01*
X134397339Y-72420000D01*
X134295606Y-72447259D01*
X134204394Y-72499920D01*
X134129920Y-72574394D01*
X134077259Y-72665606D01*
X134050000Y-72767339D01*
X134050000Y-72773553D01*
X133428415Y-72151968D01*
X133428415Y-72151969D01*
X133389413Y-72207669D01*
X133389412Y-72207671D01*
X133299197Y-72401140D01*
X133299194Y-72401146D01*
X133243945Y-72607337D01*
X133243944Y-72607345D01*
X133225340Y-72819997D01*
X133225340Y-72820002D01*
X133243944Y-73032654D01*
X133243945Y-73032662D01*
X133299194Y-73238853D01*
X133299197Y-73238859D01*
X133389413Y-73432329D01*
X133428415Y-73488030D01*
X134050000Y-72866445D01*
X134050000Y-72872661D01*
X134077259Y-72974394D01*
X134129920Y-73065606D01*
X134204394Y-73140080D01*
X134295606Y-73192741D01*
X134397339Y-73220000D01*
X134403553Y-73220000D01*
X133781968Y-73841584D01*
X133837663Y-73880582D01*
X133837669Y-73880586D01*
X134031140Y-73970802D01*
X134036236Y-73972658D01*
X134035542Y-73974563D01*
X134087647Y-74006302D01*
X134118196Y-74069139D01*
X134109922Y-74138518D01*
X134065454Y-74192409D01*
X134035744Y-74205991D01*
X134036064Y-74206870D01*
X134030972Y-74208723D01*
X134030970Y-74208724D01*
X134030968Y-74208725D01*
X133837421Y-74298977D01*
X133662478Y-74421472D01*
X133511472Y-74572478D01*
X133388977Y-74747421D01*
X133298725Y-74940968D01*
X133298721Y-74940977D01*
X133243452Y-75147247D01*
X133243450Y-75147258D01*
X133224838Y-75359998D01*
X115500500Y-75359998D01*
X115500500Y-59072626D01*
X115520185Y-59005587D01*
X115523400Y-59002801D01*
X115721054Y-59002801D01*
X115743477Y-59037691D01*
X115748360Y-59066726D01*
X115764447Y-59404450D01*
X115822071Y-59805231D01*
X115917531Y-60198722D01*
X115917534Y-60198733D01*
X116049956Y-60581340D01*
X116049966Y-60581365D01*
X116218168Y-60949675D01*
X116420621Y-61300335D01*
X116420627Y-61300343D01*
X116655485Y-61630154D01*
X116822985Y-61823460D01*
X118313098Y-60333347D01*
X118380076Y-60420635D01*
X118579365Y-60619924D01*
X118666650Y-60686900D01*
X117174928Y-62178622D01*
X117213676Y-62215568D01*
X117213695Y-62215585D01*
X117531968Y-62465877D01*
X117872594Y-62684782D01*
X118232485Y-62870319D01*
X118608383Y-63020806D01*
X118608395Y-63020810D01*
X118996882Y-63134880D01*
X118996899Y-63134884D01*
X119394460Y-63211508D01*
X119394472Y-63211510D01*
X119797554Y-63250000D01*
X120202446Y-63250000D01*
X120605527Y-63211510D01*
X120605539Y-63211508D01*
X121003100Y-63134884D01*
X121003117Y-63134880D01*
X121391604Y-63020810D01*
X121391616Y-63020806D01*
X121767507Y-62870322D01*
X121767511Y-62870320D01*
X122127406Y-62684782D01*
X122468031Y-62465877D01*
X122786314Y-62215578D01*
X122825069Y-62178622D01*
X121333348Y-60686901D01*
X121420635Y-60619924D01*
X121619924Y-60420635D01*
X121686901Y-60333348D01*
X123177012Y-61823459D01*
X123344512Y-61630156D01*
X123344523Y-61630143D01*
X123579372Y-61300343D01*
X123579378Y-61300335D01*
X123781831Y-60949675D01*
X123950033Y-60581365D01*
X123950043Y-60581340D01*
X124082465Y-60198733D01*
X124082468Y-60198722D01*
X124177928Y-59805231D01*
X124235552Y-59404450D01*
X124254818Y-59000000D01*
X124235552Y-58595549D01*
X124177928Y-58194768D01*
X124132038Y-58005608D01*
X150499500Y-58005608D01*
X150499500Y-76137392D01*
X150502214Y-76147521D01*
X150533608Y-76264687D01*
X150553146Y-76298527D01*
X150599500Y-76378814D01*
X150692686Y-76472000D01*
X150806814Y-76537892D01*
X150934108Y-76572000D01*
X150934110Y-76572000D01*
X162065890Y-76572000D01*
X162065892Y-76572000D01*
X162193186Y-76537892D01*
X162307314Y-76472000D01*
X162400500Y-76378814D01*
X162466392Y-76264686D01*
X162500500Y-76137392D01*
X162500500Y-67534995D01*
X189844953Y-67534995D01*
X189844953Y-67535004D01*
X189865113Y-67804026D01*
X189865113Y-67804028D01*
X189925142Y-68067033D01*
X189925148Y-68067052D01*
X190023709Y-68318181D01*
X190023708Y-68318181D01*
X190158602Y-68551822D01*
X190212294Y-68619151D01*
X190212295Y-68619151D01*
X190934153Y-67897293D01*
X190941049Y-67913942D01*
X191028599Y-68044970D01*
X191140030Y-68156401D01*
X191271058Y-68243951D01*
X191287705Y-68250846D01*
X190564848Y-68973702D01*
X190747483Y-69098220D01*
X190747485Y-69098221D01*
X190990539Y-69215269D01*
X190990537Y-69215269D01*
X191248337Y-69294790D01*
X191248343Y-69294792D01*
X191515101Y-69334999D01*
X191515110Y-69335000D01*
X191784890Y-69335000D01*
X191784898Y-69334999D01*
X192051656Y-69294792D01*
X192051662Y-69294790D01*
X192309458Y-69215270D01*
X192527927Y-69110061D01*
X192596869Y-69098709D01*
X192661003Y-69126431D01*
X192699969Y-69184426D01*
X192701394Y-69254281D01*
X192697158Y-69267081D01*
X192612583Y-69482578D01*
X192612578Y-69482590D01*
X192612576Y-69482597D01*
X192554197Y-69738374D01*
X192554196Y-69738379D01*
X192534592Y-69999995D01*
X192534592Y-70000004D01*
X192554196Y-70261620D01*
X192554197Y-70261625D01*
X192612576Y-70517402D01*
X192612582Y-70517421D01*
X192708432Y-70761643D01*
X192814256Y-70944937D01*
X192830729Y-71012837D01*
X192807876Y-71078864D01*
X192752955Y-71122055D01*
X192683402Y-71128696D01*
X192637017Y-71109390D01*
X192552526Y-71051784D01*
X192552516Y-71051778D01*
X192309460Y-70934730D01*
X192309462Y-70934730D01*
X192051662Y-70855209D01*
X192051656Y-70855207D01*
X191784898Y-70815000D01*
X191515101Y-70815000D01*
X191248343Y-70855207D01*
X191248337Y-70855209D01*
X190990538Y-70934730D01*
X190747485Y-71051778D01*
X190747476Y-71051783D01*
X190564848Y-71176296D01*
X191287705Y-71899153D01*
X191271058Y-71906049D01*
X191140030Y-71993599D01*
X191028599Y-72105030D01*
X190941049Y-72236058D01*
X190934153Y-72252705D01*
X190212295Y-71530848D01*
X190158600Y-71598180D01*
X190023709Y-71831818D01*
X189925148Y-72082947D01*
X189925142Y-72082966D01*
X189865113Y-72345971D01*
X189865113Y-72345973D01*
X189844953Y-72614995D01*
X189844953Y-72615004D01*
X189865113Y-72884026D01*
X189865113Y-72884028D01*
X189925142Y-73147033D01*
X189925148Y-73147052D01*
X190023709Y-73398181D01*
X190023708Y-73398181D01*
X190158602Y-73631822D01*
X190212294Y-73699151D01*
X190212295Y-73699151D01*
X190934153Y-72977293D01*
X190941049Y-72993942D01*
X191028599Y-73124970D01*
X191140030Y-73236401D01*
X191271058Y-73323951D01*
X191287705Y-73330846D01*
X190564848Y-74053702D01*
X190747483Y-74178220D01*
X190747485Y-74178221D01*
X190990539Y-74295269D01*
X190990537Y-74295269D01*
X191248337Y-74374790D01*
X191248343Y-74374792D01*
X191515101Y-74414999D01*
X191515110Y-74415000D01*
X191784890Y-74415000D01*
X191784898Y-74414999D01*
X192051656Y-74374792D01*
X192051662Y-74374790D01*
X192309461Y-74295269D01*
X192552521Y-74178218D01*
X192735150Y-74053702D01*
X192012294Y-73330846D01*
X192028942Y-73323951D01*
X192159970Y-73236401D01*
X192271401Y-73124970D01*
X192358951Y-72993942D01*
X192365846Y-72977294D01*
X193087703Y-73699151D01*
X193087704Y-73699150D01*
X193141393Y-73631828D01*
X193141400Y-73631817D01*
X193276290Y-73398181D01*
X193374851Y-73147052D01*
X193374857Y-73147033D01*
X193434886Y-72884028D01*
X193434886Y-72884026D01*
X193455047Y-72615004D01*
X193455047Y-72614995D01*
X193434886Y-72345973D01*
X193434886Y-72345971D01*
X193374857Y-72082966D01*
X193374851Y-72082947D01*
X193276290Y-71831818D01*
X193276291Y-71831818D01*
X193162961Y-71635527D01*
X193146488Y-71567627D01*
X193169340Y-71501600D01*
X193224261Y-71458410D01*
X193293815Y-71451768D01*
X193340197Y-71471071D01*
X193412296Y-71520228D01*
X193412301Y-71520230D01*
X193412302Y-71520231D01*
X193412303Y-71520232D01*
X193510721Y-71567627D01*
X193648673Y-71634061D01*
X193648674Y-71634061D01*
X193648677Y-71634063D01*
X193899385Y-71711396D01*
X194158818Y-71750500D01*
X194421182Y-71750500D01*
X194680615Y-71711396D01*
X194931323Y-71634063D01*
X194966056Y-71617336D01*
X195034994Y-71605985D01*
X195099128Y-71633706D01*
X195138094Y-71691701D01*
X195139520Y-71761556D01*
X195127243Y-71791056D01*
X195103708Y-71831820D01*
X195005148Y-72082947D01*
X195005142Y-72082966D01*
X194945113Y-72345971D01*
X194945113Y-72345973D01*
X194924953Y-72614995D01*
X194924953Y-72615004D01*
X194945113Y-72884026D01*
X194945113Y-72884028D01*
X195005142Y-73147033D01*
X195005148Y-73147052D01*
X195103709Y-73398181D01*
X195103708Y-73398181D01*
X195238602Y-73631822D01*
X195292294Y-73699151D01*
X196014152Y-72977293D01*
X196021049Y-72993942D01*
X196108599Y-73124970D01*
X196220030Y-73236401D01*
X196351058Y-73323951D01*
X196367705Y-73330846D01*
X195644848Y-74053702D01*
X195827483Y-74178220D01*
X195827485Y-74178221D01*
X196070539Y-74295269D01*
X196070537Y-74295269D01*
X196328337Y-74374790D01*
X196328343Y-74374792D01*
X196595101Y-74414999D01*
X196595110Y-74415000D01*
X196864890Y-74415000D01*
X196864898Y-74414999D01*
X197131656Y-74374792D01*
X197131662Y-74374790D01*
X197389461Y-74295269D01*
X197632521Y-74178218D01*
X197815150Y-74053702D01*
X197092294Y-73330846D01*
X197108942Y-73323951D01*
X197239970Y-73236401D01*
X197351401Y-73124970D01*
X197438951Y-72993942D01*
X197445846Y-72977294D01*
X198167703Y-73699151D01*
X198167704Y-73699150D01*
X198221393Y-73631828D01*
X198221400Y-73631817D01*
X198356290Y-73398181D01*
X198454851Y-73147052D01*
X198454857Y-73147033D01*
X198514886Y-72884028D01*
X198514886Y-72884026D01*
X198535047Y-72615004D01*
X198535047Y-72614995D01*
X198514886Y-72345973D01*
X198514886Y-72345971D01*
X198454857Y-72082966D01*
X198454851Y-72082947D01*
X198356290Y-71831818D01*
X198356291Y-71831818D01*
X198221397Y-71598177D01*
X198167704Y-71530847D01*
X197445846Y-72252705D01*
X197438951Y-72236058D01*
X197351401Y-72105030D01*
X197239970Y-71993599D01*
X197108942Y-71906049D01*
X197092293Y-71899153D01*
X197815150Y-71176296D01*
X197632517Y-71051779D01*
X197632516Y-71051778D01*
X197389460Y-70934730D01*
X197389462Y-70934730D01*
X197131662Y-70855209D01*
X197131656Y-70855207D01*
X196864898Y-70815000D01*
X196595101Y-70815000D01*
X196328343Y-70855207D01*
X196328337Y-70855209D01*
X196070544Y-70934728D01*
X196018711Y-70959690D01*
X195949769Y-70971041D01*
X195885635Y-70943318D01*
X195846670Y-70885323D01*
X195845245Y-70815468D01*
X195857522Y-70785970D01*
X195871568Y-70761643D01*
X195967420Y-70517416D01*
X196025802Y-70261630D01*
X196045408Y-70000000D01*
X196025802Y-69738370D01*
X195967420Y-69482584D01*
X195927923Y-69381949D01*
X195921755Y-69312353D01*
X195954193Y-69250470D01*
X196014938Y-69215947D01*
X196079902Y-69218157D01*
X196328337Y-69294790D01*
X196328343Y-69294792D01*
X196595101Y-69334999D01*
X196595110Y-69335000D01*
X196864890Y-69335000D01*
X196864898Y-69334999D01*
X197131656Y-69294792D01*
X197131662Y-69294790D01*
X197389461Y-69215269D01*
X197632521Y-69098218D01*
X197815150Y-68973702D01*
X197092294Y-68250846D01*
X197108942Y-68243951D01*
X197239970Y-68156401D01*
X197351401Y-68044970D01*
X197438951Y-67913942D01*
X197445846Y-67897294D01*
X198167703Y-68619151D01*
X198167704Y-68619150D01*
X198221393Y-68551828D01*
X198221400Y-68551817D01*
X198356290Y-68318181D01*
X198454851Y-68067052D01*
X198454857Y-68067033D01*
X198514886Y-67804028D01*
X198514886Y-67804026D01*
X198535047Y-67535004D01*
X198535047Y-67534995D01*
X198514886Y-67265973D01*
X198514886Y-67265971D01*
X198454857Y-67002966D01*
X198454851Y-67002947D01*
X198356290Y-66751818D01*
X198356291Y-66751818D01*
X198221397Y-66518177D01*
X198167704Y-66450847D01*
X197445846Y-67172705D01*
X197438951Y-67156058D01*
X197351401Y-67025030D01*
X197239970Y-66913599D01*
X197108942Y-66826049D01*
X197092294Y-66819153D01*
X197815150Y-66096296D01*
X197632517Y-65971779D01*
X197632516Y-65971778D01*
X197389460Y-65854730D01*
X197389462Y-65854730D01*
X197131662Y-65775209D01*
X197131656Y-65775207D01*
X196864898Y-65735000D01*
X196595101Y-65735000D01*
X196328343Y-65775207D01*
X196328337Y-65775209D01*
X196070538Y-65854730D01*
X195827485Y-65971778D01*
X195827476Y-65971783D01*
X195644848Y-66096296D01*
X196367705Y-66819153D01*
X196351058Y-66826049D01*
X196220030Y-66913599D01*
X196108599Y-67025030D01*
X196021049Y-67156058D01*
X196014153Y-67172706D01*
X195292295Y-66450848D01*
X195238600Y-66518180D01*
X195103709Y-66751818D01*
X195005148Y-67002947D01*
X195005142Y-67002966D01*
X194945113Y-67265971D01*
X194945113Y-67265973D01*
X194924953Y-67534995D01*
X194924953Y-67535004D01*
X194945113Y-67804026D01*
X194945113Y-67804028D01*
X195005142Y-68067033D01*
X195005148Y-68067052D01*
X195054706Y-68193324D01*
X195060875Y-68262921D01*
X195028437Y-68324804D01*
X194967692Y-68359327D01*
X194902729Y-68357117D01*
X194797973Y-68324804D01*
X194680623Y-68288606D01*
X194680619Y-68288605D01*
X194680615Y-68288604D01*
X194555823Y-68269794D01*
X194421187Y-68249500D01*
X194421182Y-68249500D01*
X194158818Y-68249500D01*
X194158812Y-68249500D01*
X193997247Y-68273853D01*
X193899385Y-68288604D01*
X193899382Y-68288605D01*
X193899376Y-68288606D01*
X193648673Y-68365938D01*
X193451052Y-68461107D01*
X193382111Y-68472459D01*
X193317976Y-68444736D01*
X193279011Y-68386741D01*
X193277586Y-68316886D01*
X193281823Y-68304085D01*
X193374851Y-68067052D01*
X193374857Y-68067033D01*
X193434886Y-67804028D01*
X193434886Y-67804026D01*
X193455047Y-67535004D01*
X193455047Y-67534995D01*
X193434886Y-67265973D01*
X193434886Y-67265971D01*
X193374857Y-67002966D01*
X193374851Y-67002947D01*
X193276290Y-66751818D01*
X193276291Y-66751818D01*
X193141397Y-66518177D01*
X193087704Y-66450847D01*
X192365846Y-67172705D01*
X192358951Y-67156058D01*
X192271401Y-67025030D01*
X192159970Y-66913599D01*
X192028942Y-66826049D01*
X192012294Y-66819153D01*
X192735150Y-66096296D01*
X192552517Y-65971779D01*
X192552516Y-65971778D01*
X192309460Y-65854730D01*
X192309462Y-65854730D01*
X192051662Y-65775209D01*
X192051656Y-65775207D01*
X191784898Y-65735000D01*
X191515101Y-65735000D01*
X191248343Y-65775207D01*
X191248337Y-65775209D01*
X190990538Y-65854730D01*
X190747485Y-65971778D01*
X190747476Y-65971783D01*
X190564848Y-66096296D01*
X191287705Y-66819153D01*
X191271058Y-66826049D01*
X191140030Y-66913599D01*
X191028599Y-67025030D01*
X190941049Y-67156058D01*
X190934153Y-67172705D01*
X190212295Y-66450848D01*
X190158600Y-66518180D01*
X190023709Y-66751818D01*
X189925148Y-67002947D01*
X189925142Y-67002966D01*
X189865113Y-67265971D01*
X189865113Y-67265973D01*
X189844953Y-67534995D01*
X162500500Y-67534995D01*
X162500500Y-59000000D01*
X190745181Y-59000000D01*
X190764447Y-59404450D01*
X190822071Y-59805231D01*
X190917531Y-60198722D01*
X190917534Y-60198733D01*
X191049956Y-60581340D01*
X191049966Y-60581365D01*
X191218168Y-60949675D01*
X191420621Y-61300335D01*
X191420627Y-61300343D01*
X191655485Y-61630154D01*
X191822985Y-61823460D01*
X193313098Y-60333347D01*
X193380076Y-60420635D01*
X193579365Y-60619924D01*
X193666650Y-60686900D01*
X192174928Y-62178622D01*
X192213676Y-62215568D01*
X192213695Y-62215585D01*
X192531968Y-62465877D01*
X192872594Y-62684782D01*
X193232485Y-62870319D01*
X193608383Y-63020806D01*
X193608395Y-63020810D01*
X193996882Y-63134880D01*
X193996899Y-63134884D01*
X194394460Y-63211508D01*
X194394472Y-63211510D01*
X194797554Y-63250000D01*
X195202446Y-63250000D01*
X195605527Y-63211510D01*
X195605539Y-63211508D01*
X196003100Y-63134884D01*
X196003117Y-63134880D01*
X196391604Y-63020810D01*
X196391616Y-63020806D01*
X196767507Y-62870322D01*
X196767511Y-62870320D01*
X197127406Y-62684782D01*
X197468031Y-62465877D01*
X197786314Y-62215578D01*
X197825069Y-62178622D01*
X196333348Y-60686901D01*
X196420635Y-60619924D01*
X196619924Y-60420635D01*
X196686901Y-60333348D01*
X198177012Y-61823459D01*
X198344512Y-61630156D01*
X198344523Y-61630143D01*
X198579372Y-61300343D01*
X198579378Y-61300335D01*
X198781831Y-60949675D01*
X198950033Y-60581365D01*
X198950043Y-60581340D01*
X199082465Y-60198733D01*
X199082468Y-60198722D01*
X199177928Y-59805231D01*
X199235552Y-59404450D01*
X199251640Y-59066726D01*
X199274493Y-59000699D01*
X199278945Y-58997197D01*
X199256523Y-58962308D01*
X199251640Y-58933273D01*
X199235552Y-58595549D01*
X199177928Y-58194768D01*
X199082468Y-57801277D01*
X199082465Y-57801266D01*
X198950043Y-57418659D01*
X198950033Y-57418634D01*
X198781831Y-57050324D01*
X198579378Y-56699664D01*
X198579372Y-56699656D01*
X198344523Y-56369856D01*
X198344512Y-56369843D01*
X198177013Y-56176538D01*
X196686900Y-57666650D01*
X196619924Y-57579365D01*
X196420635Y-57380076D01*
X196333348Y-57313098D01*
X197825070Y-55821376D01*
X197786323Y-55784431D01*
X197786304Y-55784414D01*
X197468031Y-55534122D01*
X197127406Y-55315217D01*
X196767511Y-55129679D01*
X196767507Y-55129677D01*
X196391616Y-54979193D01*
X196391604Y-54979189D01*
X196003117Y-54865119D01*
X196003100Y-54865115D01*
X195605539Y-54788491D01*
X195605527Y-54788489D01*
X195202446Y-54750000D01*
X194797554Y-54750000D01*
X194394472Y-54788489D01*
X194394460Y-54788491D01*
X193996899Y-54865115D01*
X193996882Y-54865119D01*
X193608395Y-54979189D01*
X193608383Y-54979193D01*
X193232485Y-55129680D01*
X192872594Y-55315217D01*
X192531968Y-55534122D01*
X192213685Y-55784421D01*
X192213673Y-55784432D01*
X192174929Y-55821375D01*
X192174929Y-55821376D01*
X193666651Y-57313098D01*
X193579365Y-57380076D01*
X193380076Y-57579365D01*
X193313098Y-57666651D01*
X191822986Y-56176539D01*
X191655485Y-56369845D01*
X191420627Y-56699656D01*
X191420621Y-56699664D01*
X191218168Y-57050324D01*
X191049966Y-57418634D01*
X191049956Y-57418659D01*
X190917534Y-57801266D01*
X190917531Y-57801277D01*
X190822071Y-58194768D01*
X190764447Y-58595549D01*
X190745181Y-59000000D01*
X162500500Y-59000000D01*
X162500500Y-58005608D01*
X162466392Y-57878314D01*
X162400500Y-57764186D01*
X162307314Y-57671000D01*
X162250250Y-57638054D01*
X162193187Y-57605108D01*
X162129539Y-57588054D01*
X162065892Y-57571000D01*
X151065892Y-57571000D01*
X150934108Y-57571000D01*
X150806812Y-57605108D01*
X150692686Y-57671000D01*
X150692683Y-57671002D01*
X150599502Y-57764183D01*
X150599500Y-57764186D01*
X150533608Y-57878312D01*
X150499500Y-58005608D01*
X124132038Y-58005608D01*
X124082468Y-57801277D01*
X124082465Y-57801266D01*
X123950043Y-57418659D01*
X123950033Y-57418634D01*
X123781831Y-57050324D01*
X123579378Y-56699664D01*
X123579372Y-56699656D01*
X123344523Y-56369856D01*
X123344512Y-56369843D01*
X123177013Y-56176538D01*
X121686900Y-57666650D01*
X121619924Y-57579365D01*
X121420635Y-57380076D01*
X121333348Y-57313098D01*
X122825070Y-55821376D01*
X122786323Y-55784431D01*
X122786304Y-55784414D01*
X122468031Y-55534122D01*
X122127406Y-55315217D01*
X121767511Y-55129679D01*
X121767507Y-55129677D01*
X121391616Y-54979193D01*
X121391604Y-54979189D01*
X121003117Y-54865119D01*
X121003100Y-54865115D01*
X120605539Y-54788491D01*
X120605527Y-54788489D01*
X120202446Y-54750000D01*
X119797554Y-54750000D01*
X119394472Y-54788489D01*
X119394460Y-54788491D01*
X118996899Y-54865115D01*
X118996882Y-54865119D01*
X118608395Y-54979189D01*
X118608383Y-54979193D01*
X118232485Y-55129680D01*
X117872594Y-55315217D01*
X117531968Y-55534122D01*
X117213685Y-55784421D01*
X117213673Y-55784432D01*
X117174929Y-55821375D01*
X117174929Y-55821376D01*
X118666651Y-57313098D01*
X118579365Y-57380076D01*
X118380076Y-57579365D01*
X118313098Y-57666651D01*
X116822986Y-56176539D01*
X116655485Y-56369845D01*
X116420627Y-56699656D01*
X116420621Y-56699664D01*
X116218168Y-57050324D01*
X116049966Y-57418634D01*
X116049956Y-57418659D01*
X115917534Y-57801266D01*
X115917531Y-57801277D01*
X115822071Y-58194768D01*
X115764447Y-58595549D01*
X115748360Y-58933273D01*
X115725507Y-58999300D01*
X115721054Y-59002801D01*
X115523400Y-59002801D01*
X115528242Y-58998605D01*
X115503995Y-58956607D01*
X115500500Y-58927373D01*
X115500500Y-54624500D01*
X115520185Y-54557461D01*
X115572989Y-54511706D01*
X115624500Y-54500500D01*
X199375500Y-54500500D01*
X199442539Y-54520185D01*
G37*
G04 #@! TD.AperFunction*
M02*
