%TF.GenerationSoftware,KiCad,Pcbnew,8.0.5-dirty*%
%TF.CreationDate,2024-10-12T08:13:24-04:00*%
%TF.ProjectId,t41_2_power_amplifier,7434315f-325f-4706-9f77-65725f616d70,rev?*%
%TF.SameCoordinates,Original*%
%TF.FileFunction,Legend,Top*%
%TF.FilePolarity,Positive*%
%FSLAX46Y46*%
G04 Gerber Fmt 4.6, Leading zero omitted, Abs format (unit mm)*
G04 Created by KiCad (PCBNEW 8.0.5-dirty) date 2024-10-12 08:13:24*
%MOMM*%
%LPD*%
G01*
G04 APERTURE LIST*
%ADD10C,0.150000*%
%ADD11C,0.100000*%
%ADD12C,0.120000*%
%ADD13C,0.127000*%
G04 APERTURE END LIST*
D10*
X70647142Y-28784819D02*
X70313809Y-28308628D01*
X70075714Y-28784819D02*
X70075714Y-27784819D01*
X70075714Y-27784819D02*
X70456666Y-27784819D01*
X70456666Y-27784819D02*
X70551904Y-27832438D01*
X70551904Y-27832438D02*
X70599523Y-27880057D01*
X70599523Y-27880057D02*
X70647142Y-27975295D01*
X70647142Y-27975295D02*
X70647142Y-28118152D01*
X70647142Y-28118152D02*
X70599523Y-28213390D01*
X70599523Y-28213390D02*
X70551904Y-28261009D01*
X70551904Y-28261009D02*
X70456666Y-28308628D01*
X70456666Y-28308628D02*
X70075714Y-28308628D01*
X71599523Y-28784819D02*
X71028095Y-28784819D01*
X71313809Y-28784819D02*
X71313809Y-27784819D01*
X71313809Y-27784819D02*
X71218571Y-27927676D01*
X71218571Y-27927676D02*
X71123333Y-28022914D01*
X71123333Y-28022914D02*
X71028095Y-28070533D01*
X72075714Y-28784819D02*
X72266190Y-28784819D01*
X72266190Y-28784819D02*
X72361428Y-28737200D01*
X72361428Y-28737200D02*
X72409047Y-28689580D01*
X72409047Y-28689580D02*
X72504285Y-28546723D01*
X72504285Y-28546723D02*
X72551904Y-28356247D01*
X72551904Y-28356247D02*
X72551904Y-27975295D01*
X72551904Y-27975295D02*
X72504285Y-27880057D01*
X72504285Y-27880057D02*
X72456666Y-27832438D01*
X72456666Y-27832438D02*
X72361428Y-27784819D01*
X72361428Y-27784819D02*
X72170952Y-27784819D01*
X72170952Y-27784819D02*
X72075714Y-27832438D01*
X72075714Y-27832438D02*
X72028095Y-27880057D01*
X72028095Y-27880057D02*
X71980476Y-27975295D01*
X71980476Y-27975295D02*
X71980476Y-28213390D01*
X71980476Y-28213390D02*
X72028095Y-28308628D01*
X72028095Y-28308628D02*
X72075714Y-28356247D01*
X72075714Y-28356247D02*
X72170952Y-28403866D01*
X72170952Y-28403866D02*
X72361428Y-28403866D01*
X72361428Y-28403866D02*
X72456666Y-28356247D01*
X72456666Y-28356247D02*
X72504285Y-28308628D01*
X72504285Y-28308628D02*
X72551904Y-28213390D01*
X183000595Y-138204819D02*
X183000595Y-139014342D01*
X183000595Y-139014342D02*
X183048214Y-139109580D01*
X183048214Y-139109580D02*
X183095833Y-139157200D01*
X183095833Y-139157200D02*
X183191071Y-139204819D01*
X183191071Y-139204819D02*
X183381547Y-139204819D01*
X183381547Y-139204819D02*
X183476785Y-139157200D01*
X183476785Y-139157200D02*
X183524404Y-139109580D01*
X183524404Y-139109580D02*
X183572023Y-139014342D01*
X183572023Y-139014342D02*
X183572023Y-138204819D01*
X184572023Y-139204819D02*
X184000595Y-139204819D01*
X184286309Y-139204819D02*
X184286309Y-138204819D01*
X184286309Y-138204819D02*
X184191071Y-138347676D01*
X184191071Y-138347676D02*
X184095833Y-138442914D01*
X184095833Y-138442914D02*
X184000595Y-138490533D01*
X40283333Y-59859580D02*
X40235714Y-59907200D01*
X40235714Y-59907200D02*
X40092857Y-59954819D01*
X40092857Y-59954819D02*
X39997619Y-59954819D01*
X39997619Y-59954819D02*
X39854762Y-59907200D01*
X39854762Y-59907200D02*
X39759524Y-59811961D01*
X39759524Y-59811961D02*
X39711905Y-59716723D01*
X39711905Y-59716723D02*
X39664286Y-59526247D01*
X39664286Y-59526247D02*
X39664286Y-59383390D01*
X39664286Y-59383390D02*
X39711905Y-59192914D01*
X39711905Y-59192914D02*
X39759524Y-59097676D01*
X39759524Y-59097676D02*
X39854762Y-59002438D01*
X39854762Y-59002438D02*
X39997619Y-58954819D01*
X39997619Y-58954819D02*
X40092857Y-58954819D01*
X40092857Y-58954819D02*
X40235714Y-59002438D01*
X40235714Y-59002438D02*
X40283333Y-59050057D01*
X40616667Y-58954819D02*
X41235714Y-58954819D01*
X41235714Y-58954819D02*
X40902381Y-59335771D01*
X40902381Y-59335771D02*
X41045238Y-59335771D01*
X41045238Y-59335771D02*
X41140476Y-59383390D01*
X41140476Y-59383390D02*
X41188095Y-59431009D01*
X41188095Y-59431009D02*
X41235714Y-59526247D01*
X41235714Y-59526247D02*
X41235714Y-59764342D01*
X41235714Y-59764342D02*
X41188095Y-59859580D01*
X41188095Y-59859580D02*
X41140476Y-59907200D01*
X41140476Y-59907200D02*
X41045238Y-59954819D01*
X41045238Y-59954819D02*
X40759524Y-59954819D01*
X40759524Y-59954819D02*
X40664286Y-59907200D01*
X40664286Y-59907200D02*
X40616667Y-59859580D01*
X169209580Y-140866666D02*
X169257200Y-140914285D01*
X169257200Y-140914285D02*
X169304819Y-141057142D01*
X169304819Y-141057142D02*
X169304819Y-141152380D01*
X169304819Y-141152380D02*
X169257200Y-141295237D01*
X169257200Y-141295237D02*
X169161961Y-141390475D01*
X169161961Y-141390475D02*
X169066723Y-141438094D01*
X169066723Y-141438094D02*
X168876247Y-141485713D01*
X168876247Y-141485713D02*
X168733390Y-141485713D01*
X168733390Y-141485713D02*
X168542914Y-141438094D01*
X168542914Y-141438094D02*
X168447676Y-141390475D01*
X168447676Y-141390475D02*
X168352438Y-141295237D01*
X168352438Y-141295237D02*
X168304819Y-141152380D01*
X168304819Y-141152380D02*
X168304819Y-141057142D01*
X168304819Y-141057142D02*
X168352438Y-140914285D01*
X168352438Y-140914285D02*
X168400057Y-140866666D01*
X169304819Y-140390475D02*
X169304819Y-140199999D01*
X169304819Y-140199999D02*
X169257200Y-140104761D01*
X169257200Y-140104761D02*
X169209580Y-140057142D01*
X169209580Y-140057142D02*
X169066723Y-139961904D01*
X169066723Y-139961904D02*
X168876247Y-139914285D01*
X168876247Y-139914285D02*
X168495295Y-139914285D01*
X168495295Y-139914285D02*
X168400057Y-139961904D01*
X168400057Y-139961904D02*
X168352438Y-140009523D01*
X168352438Y-140009523D02*
X168304819Y-140104761D01*
X168304819Y-140104761D02*
X168304819Y-140295237D01*
X168304819Y-140295237D02*
X168352438Y-140390475D01*
X168352438Y-140390475D02*
X168400057Y-140438094D01*
X168400057Y-140438094D02*
X168495295Y-140485713D01*
X168495295Y-140485713D02*
X168733390Y-140485713D01*
X168733390Y-140485713D02*
X168828628Y-140438094D01*
X168828628Y-140438094D02*
X168876247Y-140390475D01*
X168876247Y-140390475D02*
X168923866Y-140295237D01*
X168923866Y-140295237D02*
X168923866Y-140104761D01*
X168923866Y-140104761D02*
X168876247Y-140009523D01*
X168876247Y-140009523D02*
X168828628Y-139961904D01*
X168828628Y-139961904D02*
X168733390Y-139914285D01*
X182017142Y-122494819D02*
X181683809Y-122018628D01*
X181445714Y-122494819D02*
X181445714Y-121494819D01*
X181445714Y-121494819D02*
X181826666Y-121494819D01*
X181826666Y-121494819D02*
X181921904Y-121542438D01*
X181921904Y-121542438D02*
X181969523Y-121590057D01*
X181969523Y-121590057D02*
X182017142Y-121685295D01*
X182017142Y-121685295D02*
X182017142Y-121828152D01*
X182017142Y-121828152D02*
X181969523Y-121923390D01*
X181969523Y-121923390D02*
X181921904Y-121971009D01*
X181921904Y-121971009D02*
X181826666Y-122018628D01*
X181826666Y-122018628D02*
X181445714Y-122018628D01*
X182969523Y-122494819D02*
X182398095Y-122494819D01*
X182683809Y-122494819D02*
X182683809Y-121494819D01*
X182683809Y-121494819D02*
X182588571Y-121637676D01*
X182588571Y-121637676D02*
X182493333Y-121732914D01*
X182493333Y-121732914D02*
X182398095Y-121780533D01*
X183921904Y-122494819D02*
X183350476Y-122494819D01*
X183636190Y-122494819D02*
X183636190Y-121494819D01*
X183636190Y-121494819D02*
X183540952Y-121637676D01*
X183540952Y-121637676D02*
X183445714Y-121732914D01*
X183445714Y-121732914D02*
X183350476Y-121780533D01*
X65513333Y-22204819D02*
X65180000Y-21728628D01*
X64941905Y-22204819D02*
X64941905Y-21204819D01*
X64941905Y-21204819D02*
X65322857Y-21204819D01*
X65322857Y-21204819D02*
X65418095Y-21252438D01*
X65418095Y-21252438D02*
X65465714Y-21300057D01*
X65465714Y-21300057D02*
X65513333Y-21395295D01*
X65513333Y-21395295D02*
X65513333Y-21538152D01*
X65513333Y-21538152D02*
X65465714Y-21633390D01*
X65465714Y-21633390D02*
X65418095Y-21681009D01*
X65418095Y-21681009D02*
X65322857Y-21728628D01*
X65322857Y-21728628D02*
X64941905Y-21728628D01*
X66084762Y-21633390D02*
X65989524Y-21585771D01*
X65989524Y-21585771D02*
X65941905Y-21538152D01*
X65941905Y-21538152D02*
X65894286Y-21442914D01*
X65894286Y-21442914D02*
X65894286Y-21395295D01*
X65894286Y-21395295D02*
X65941905Y-21300057D01*
X65941905Y-21300057D02*
X65989524Y-21252438D01*
X65989524Y-21252438D02*
X66084762Y-21204819D01*
X66084762Y-21204819D02*
X66275238Y-21204819D01*
X66275238Y-21204819D02*
X66370476Y-21252438D01*
X66370476Y-21252438D02*
X66418095Y-21300057D01*
X66418095Y-21300057D02*
X66465714Y-21395295D01*
X66465714Y-21395295D02*
X66465714Y-21442914D01*
X66465714Y-21442914D02*
X66418095Y-21538152D01*
X66418095Y-21538152D02*
X66370476Y-21585771D01*
X66370476Y-21585771D02*
X66275238Y-21633390D01*
X66275238Y-21633390D02*
X66084762Y-21633390D01*
X66084762Y-21633390D02*
X65989524Y-21681009D01*
X65989524Y-21681009D02*
X65941905Y-21728628D01*
X65941905Y-21728628D02*
X65894286Y-21823866D01*
X65894286Y-21823866D02*
X65894286Y-22014342D01*
X65894286Y-22014342D02*
X65941905Y-22109580D01*
X65941905Y-22109580D02*
X65989524Y-22157200D01*
X65989524Y-22157200D02*
X66084762Y-22204819D01*
X66084762Y-22204819D02*
X66275238Y-22204819D01*
X66275238Y-22204819D02*
X66370476Y-22157200D01*
X66370476Y-22157200D02*
X66418095Y-22109580D01*
X66418095Y-22109580D02*
X66465714Y-22014342D01*
X66465714Y-22014342D02*
X66465714Y-21823866D01*
X66465714Y-21823866D02*
X66418095Y-21728628D01*
X66418095Y-21728628D02*
X66370476Y-21681009D01*
X66370476Y-21681009D02*
X66275238Y-21633390D01*
X45933333Y-56509580D02*
X45885714Y-56557200D01*
X45885714Y-56557200D02*
X45742857Y-56604819D01*
X45742857Y-56604819D02*
X45647619Y-56604819D01*
X45647619Y-56604819D02*
X45504762Y-56557200D01*
X45504762Y-56557200D02*
X45409524Y-56461961D01*
X45409524Y-56461961D02*
X45361905Y-56366723D01*
X45361905Y-56366723D02*
X45314286Y-56176247D01*
X45314286Y-56176247D02*
X45314286Y-56033390D01*
X45314286Y-56033390D02*
X45361905Y-55842914D01*
X45361905Y-55842914D02*
X45409524Y-55747676D01*
X45409524Y-55747676D02*
X45504762Y-55652438D01*
X45504762Y-55652438D02*
X45647619Y-55604819D01*
X45647619Y-55604819D02*
X45742857Y-55604819D01*
X45742857Y-55604819D02*
X45885714Y-55652438D01*
X45885714Y-55652438D02*
X45933333Y-55700057D01*
X46504762Y-56033390D02*
X46409524Y-55985771D01*
X46409524Y-55985771D02*
X46361905Y-55938152D01*
X46361905Y-55938152D02*
X46314286Y-55842914D01*
X46314286Y-55842914D02*
X46314286Y-55795295D01*
X46314286Y-55795295D02*
X46361905Y-55700057D01*
X46361905Y-55700057D02*
X46409524Y-55652438D01*
X46409524Y-55652438D02*
X46504762Y-55604819D01*
X46504762Y-55604819D02*
X46695238Y-55604819D01*
X46695238Y-55604819D02*
X46790476Y-55652438D01*
X46790476Y-55652438D02*
X46838095Y-55700057D01*
X46838095Y-55700057D02*
X46885714Y-55795295D01*
X46885714Y-55795295D02*
X46885714Y-55842914D01*
X46885714Y-55842914D02*
X46838095Y-55938152D01*
X46838095Y-55938152D02*
X46790476Y-55985771D01*
X46790476Y-55985771D02*
X46695238Y-56033390D01*
X46695238Y-56033390D02*
X46504762Y-56033390D01*
X46504762Y-56033390D02*
X46409524Y-56081009D01*
X46409524Y-56081009D02*
X46361905Y-56128628D01*
X46361905Y-56128628D02*
X46314286Y-56223866D01*
X46314286Y-56223866D02*
X46314286Y-56414342D01*
X46314286Y-56414342D02*
X46361905Y-56509580D01*
X46361905Y-56509580D02*
X46409524Y-56557200D01*
X46409524Y-56557200D02*
X46504762Y-56604819D01*
X46504762Y-56604819D02*
X46695238Y-56604819D01*
X46695238Y-56604819D02*
X46790476Y-56557200D01*
X46790476Y-56557200D02*
X46838095Y-56509580D01*
X46838095Y-56509580D02*
X46885714Y-56414342D01*
X46885714Y-56414342D02*
X46885714Y-56223866D01*
X46885714Y-56223866D02*
X46838095Y-56128628D01*
X46838095Y-56128628D02*
X46790476Y-56081009D01*
X46790476Y-56081009D02*
X46695238Y-56033390D01*
X45457142Y-69909580D02*
X45409523Y-69957200D01*
X45409523Y-69957200D02*
X45266666Y-70004819D01*
X45266666Y-70004819D02*
X45171428Y-70004819D01*
X45171428Y-70004819D02*
X45028571Y-69957200D01*
X45028571Y-69957200D02*
X44933333Y-69861961D01*
X44933333Y-69861961D02*
X44885714Y-69766723D01*
X44885714Y-69766723D02*
X44838095Y-69576247D01*
X44838095Y-69576247D02*
X44838095Y-69433390D01*
X44838095Y-69433390D02*
X44885714Y-69242914D01*
X44885714Y-69242914D02*
X44933333Y-69147676D01*
X44933333Y-69147676D02*
X45028571Y-69052438D01*
X45028571Y-69052438D02*
X45171428Y-69004819D01*
X45171428Y-69004819D02*
X45266666Y-69004819D01*
X45266666Y-69004819D02*
X45409523Y-69052438D01*
X45409523Y-69052438D02*
X45457142Y-69100057D01*
X46409523Y-70004819D02*
X45838095Y-70004819D01*
X46123809Y-70004819D02*
X46123809Y-69004819D01*
X46123809Y-69004819D02*
X46028571Y-69147676D01*
X46028571Y-69147676D02*
X45933333Y-69242914D01*
X45933333Y-69242914D02*
X45838095Y-69290533D01*
X47266666Y-69338152D02*
X47266666Y-70004819D01*
X47028571Y-68957200D02*
X46790476Y-69671485D01*
X46790476Y-69671485D02*
X47409523Y-69671485D01*
X117904761Y-109450057D02*
X117809523Y-109402438D01*
X117809523Y-109402438D02*
X117714285Y-109307200D01*
X117714285Y-109307200D02*
X117571428Y-109164342D01*
X117571428Y-109164342D02*
X117476190Y-109116723D01*
X117476190Y-109116723D02*
X117380952Y-109116723D01*
X117428571Y-109354819D02*
X117333333Y-109307200D01*
X117333333Y-109307200D02*
X117238095Y-109211961D01*
X117238095Y-109211961D02*
X117190476Y-109021485D01*
X117190476Y-109021485D02*
X117190476Y-108688152D01*
X117190476Y-108688152D02*
X117238095Y-108497676D01*
X117238095Y-108497676D02*
X117333333Y-108402438D01*
X117333333Y-108402438D02*
X117428571Y-108354819D01*
X117428571Y-108354819D02*
X117619047Y-108354819D01*
X117619047Y-108354819D02*
X117714285Y-108402438D01*
X117714285Y-108402438D02*
X117809523Y-108497676D01*
X117809523Y-108497676D02*
X117857142Y-108688152D01*
X117857142Y-108688152D02*
X117857142Y-109021485D01*
X117857142Y-109021485D02*
X117809523Y-109211961D01*
X117809523Y-109211961D02*
X117714285Y-109307200D01*
X117714285Y-109307200D02*
X117619047Y-109354819D01*
X117619047Y-109354819D02*
X117428571Y-109354819D01*
X118238095Y-108450057D02*
X118285714Y-108402438D01*
X118285714Y-108402438D02*
X118380952Y-108354819D01*
X118380952Y-108354819D02*
X118619047Y-108354819D01*
X118619047Y-108354819D02*
X118714285Y-108402438D01*
X118714285Y-108402438D02*
X118761904Y-108450057D01*
X118761904Y-108450057D02*
X118809523Y-108545295D01*
X118809523Y-108545295D02*
X118809523Y-108640533D01*
X118809523Y-108640533D02*
X118761904Y-108783390D01*
X118761904Y-108783390D02*
X118190476Y-109354819D01*
X118190476Y-109354819D02*
X118809523Y-109354819D01*
X59903333Y-38654819D02*
X59570000Y-38178628D01*
X59331905Y-38654819D02*
X59331905Y-37654819D01*
X59331905Y-37654819D02*
X59712857Y-37654819D01*
X59712857Y-37654819D02*
X59808095Y-37702438D01*
X59808095Y-37702438D02*
X59855714Y-37750057D01*
X59855714Y-37750057D02*
X59903333Y-37845295D01*
X59903333Y-37845295D02*
X59903333Y-37988152D01*
X59903333Y-37988152D02*
X59855714Y-38083390D01*
X59855714Y-38083390D02*
X59808095Y-38131009D01*
X59808095Y-38131009D02*
X59712857Y-38178628D01*
X59712857Y-38178628D02*
X59331905Y-38178628D01*
X60760476Y-37654819D02*
X60570000Y-37654819D01*
X60570000Y-37654819D02*
X60474762Y-37702438D01*
X60474762Y-37702438D02*
X60427143Y-37750057D01*
X60427143Y-37750057D02*
X60331905Y-37892914D01*
X60331905Y-37892914D02*
X60284286Y-38083390D01*
X60284286Y-38083390D02*
X60284286Y-38464342D01*
X60284286Y-38464342D02*
X60331905Y-38559580D01*
X60331905Y-38559580D02*
X60379524Y-38607200D01*
X60379524Y-38607200D02*
X60474762Y-38654819D01*
X60474762Y-38654819D02*
X60665238Y-38654819D01*
X60665238Y-38654819D02*
X60760476Y-38607200D01*
X60760476Y-38607200D02*
X60808095Y-38559580D01*
X60808095Y-38559580D02*
X60855714Y-38464342D01*
X60855714Y-38464342D02*
X60855714Y-38226247D01*
X60855714Y-38226247D02*
X60808095Y-38131009D01*
X60808095Y-38131009D02*
X60760476Y-38083390D01*
X60760476Y-38083390D02*
X60665238Y-38035771D01*
X60665238Y-38035771D02*
X60474762Y-38035771D01*
X60474762Y-38035771D02*
X60379524Y-38083390D01*
X60379524Y-38083390D02*
X60331905Y-38131009D01*
X60331905Y-38131009D02*
X60284286Y-38226247D01*
X140858333Y-100709580D02*
X140810714Y-100757200D01*
X140810714Y-100757200D02*
X140667857Y-100804819D01*
X140667857Y-100804819D02*
X140572619Y-100804819D01*
X140572619Y-100804819D02*
X140429762Y-100757200D01*
X140429762Y-100757200D02*
X140334524Y-100661961D01*
X140334524Y-100661961D02*
X140286905Y-100566723D01*
X140286905Y-100566723D02*
X140239286Y-100376247D01*
X140239286Y-100376247D02*
X140239286Y-100233390D01*
X140239286Y-100233390D02*
X140286905Y-100042914D01*
X140286905Y-100042914D02*
X140334524Y-99947676D01*
X140334524Y-99947676D02*
X140429762Y-99852438D01*
X140429762Y-99852438D02*
X140572619Y-99804819D01*
X140572619Y-99804819D02*
X140667857Y-99804819D01*
X140667857Y-99804819D02*
X140810714Y-99852438D01*
X140810714Y-99852438D02*
X140858333Y-99900057D01*
X141715476Y-99804819D02*
X141525000Y-99804819D01*
X141525000Y-99804819D02*
X141429762Y-99852438D01*
X141429762Y-99852438D02*
X141382143Y-99900057D01*
X141382143Y-99900057D02*
X141286905Y-100042914D01*
X141286905Y-100042914D02*
X141239286Y-100233390D01*
X141239286Y-100233390D02*
X141239286Y-100614342D01*
X141239286Y-100614342D02*
X141286905Y-100709580D01*
X141286905Y-100709580D02*
X141334524Y-100757200D01*
X141334524Y-100757200D02*
X141429762Y-100804819D01*
X141429762Y-100804819D02*
X141620238Y-100804819D01*
X141620238Y-100804819D02*
X141715476Y-100757200D01*
X141715476Y-100757200D02*
X141763095Y-100709580D01*
X141763095Y-100709580D02*
X141810714Y-100614342D01*
X141810714Y-100614342D02*
X141810714Y-100376247D01*
X141810714Y-100376247D02*
X141763095Y-100281009D01*
X141763095Y-100281009D02*
X141715476Y-100233390D01*
X141715476Y-100233390D02*
X141620238Y-100185771D01*
X141620238Y-100185771D02*
X141429762Y-100185771D01*
X141429762Y-100185771D02*
X141334524Y-100233390D01*
X141334524Y-100233390D02*
X141286905Y-100281009D01*
X141286905Y-100281009D02*
X141239286Y-100376247D01*
X141754819Y-141538094D02*
X140754819Y-141538094D01*
X140754819Y-141538094D02*
X140754819Y-141299999D01*
X140754819Y-141299999D02*
X140802438Y-141157142D01*
X140802438Y-141157142D02*
X140897676Y-141061904D01*
X140897676Y-141061904D02*
X140992914Y-141014285D01*
X140992914Y-141014285D02*
X141183390Y-140966666D01*
X141183390Y-140966666D02*
X141326247Y-140966666D01*
X141326247Y-140966666D02*
X141516723Y-141014285D01*
X141516723Y-141014285D02*
X141611961Y-141061904D01*
X141611961Y-141061904D02*
X141707200Y-141157142D01*
X141707200Y-141157142D02*
X141754819Y-141299999D01*
X141754819Y-141299999D02*
X141754819Y-141538094D01*
X141754819Y-140014285D02*
X141754819Y-140585713D01*
X141754819Y-140299999D02*
X140754819Y-140299999D01*
X140754819Y-140299999D02*
X140897676Y-140395237D01*
X140897676Y-140395237D02*
X140992914Y-140490475D01*
X140992914Y-140490475D02*
X141040533Y-140585713D01*
D11*
X125238095Y-79457419D02*
X125809523Y-79457419D01*
X125523809Y-80457419D02*
X125523809Y-79457419D01*
X126047619Y-79457419D02*
X126666666Y-79457419D01*
X126666666Y-79457419D02*
X126333333Y-79838371D01*
X126333333Y-79838371D02*
X126476190Y-79838371D01*
X126476190Y-79838371D02*
X126571428Y-79885990D01*
X126571428Y-79885990D02*
X126619047Y-79933609D01*
X126619047Y-79933609D02*
X126666666Y-80028847D01*
X126666666Y-80028847D02*
X126666666Y-80266942D01*
X126666666Y-80266942D02*
X126619047Y-80362180D01*
X126619047Y-80362180D02*
X126571428Y-80409800D01*
X126571428Y-80409800D02*
X126476190Y-80457419D01*
X126476190Y-80457419D02*
X126190476Y-80457419D01*
X126190476Y-80457419D02*
X126095238Y-80409800D01*
X126095238Y-80409800D02*
X126047619Y-80362180D01*
D10*
X121941666Y-133916009D02*
X121608333Y-133916009D01*
X121608333Y-134439819D02*
X121608333Y-133439819D01*
X121608333Y-133439819D02*
X122084523Y-133439819D01*
X122989285Y-134439819D02*
X122417857Y-134439819D01*
X122703571Y-134439819D02*
X122703571Y-133439819D01*
X122703571Y-133439819D02*
X122608333Y-133582676D01*
X122608333Y-133582676D02*
X122513095Y-133677914D01*
X122513095Y-133677914D02*
X122417857Y-133725533D01*
X45933333Y-53159580D02*
X45885714Y-53207200D01*
X45885714Y-53207200D02*
X45742857Y-53254819D01*
X45742857Y-53254819D02*
X45647619Y-53254819D01*
X45647619Y-53254819D02*
X45504762Y-53207200D01*
X45504762Y-53207200D02*
X45409524Y-53111961D01*
X45409524Y-53111961D02*
X45361905Y-53016723D01*
X45361905Y-53016723D02*
X45314286Y-52826247D01*
X45314286Y-52826247D02*
X45314286Y-52683390D01*
X45314286Y-52683390D02*
X45361905Y-52492914D01*
X45361905Y-52492914D02*
X45409524Y-52397676D01*
X45409524Y-52397676D02*
X45504762Y-52302438D01*
X45504762Y-52302438D02*
X45647619Y-52254819D01*
X45647619Y-52254819D02*
X45742857Y-52254819D01*
X45742857Y-52254819D02*
X45885714Y-52302438D01*
X45885714Y-52302438D02*
X45933333Y-52350057D01*
X46266667Y-52254819D02*
X46933333Y-52254819D01*
X46933333Y-52254819D02*
X46504762Y-53254819D01*
X40283333Y-63209580D02*
X40235714Y-63257200D01*
X40235714Y-63257200D02*
X40092857Y-63304819D01*
X40092857Y-63304819D02*
X39997619Y-63304819D01*
X39997619Y-63304819D02*
X39854762Y-63257200D01*
X39854762Y-63257200D02*
X39759524Y-63161961D01*
X39759524Y-63161961D02*
X39711905Y-63066723D01*
X39711905Y-63066723D02*
X39664286Y-62876247D01*
X39664286Y-62876247D02*
X39664286Y-62733390D01*
X39664286Y-62733390D02*
X39711905Y-62542914D01*
X39711905Y-62542914D02*
X39759524Y-62447676D01*
X39759524Y-62447676D02*
X39854762Y-62352438D01*
X39854762Y-62352438D02*
X39997619Y-62304819D01*
X39997619Y-62304819D02*
X40092857Y-62304819D01*
X40092857Y-62304819D02*
X40235714Y-62352438D01*
X40235714Y-62352438D02*
X40283333Y-62400057D01*
X41140476Y-62638152D02*
X41140476Y-63304819D01*
X40902381Y-62257200D02*
X40664286Y-62971485D01*
X40664286Y-62971485D02*
X41283333Y-62971485D01*
X160009580Y-141342857D02*
X160057200Y-141390476D01*
X160057200Y-141390476D02*
X160104819Y-141533333D01*
X160104819Y-141533333D02*
X160104819Y-141628571D01*
X160104819Y-141628571D02*
X160057200Y-141771428D01*
X160057200Y-141771428D02*
X159961961Y-141866666D01*
X159961961Y-141866666D02*
X159866723Y-141914285D01*
X159866723Y-141914285D02*
X159676247Y-141961904D01*
X159676247Y-141961904D02*
X159533390Y-141961904D01*
X159533390Y-141961904D02*
X159342914Y-141914285D01*
X159342914Y-141914285D02*
X159247676Y-141866666D01*
X159247676Y-141866666D02*
X159152438Y-141771428D01*
X159152438Y-141771428D02*
X159104819Y-141628571D01*
X159104819Y-141628571D02*
X159104819Y-141533333D01*
X159104819Y-141533333D02*
X159152438Y-141390476D01*
X159152438Y-141390476D02*
X159200057Y-141342857D01*
X160104819Y-140390476D02*
X160104819Y-140961904D01*
X160104819Y-140676190D02*
X159104819Y-140676190D01*
X159104819Y-140676190D02*
X159247676Y-140771428D01*
X159247676Y-140771428D02*
X159342914Y-140866666D01*
X159342914Y-140866666D02*
X159390533Y-140961904D01*
X159104819Y-139771428D02*
X159104819Y-139676190D01*
X159104819Y-139676190D02*
X159152438Y-139580952D01*
X159152438Y-139580952D02*
X159200057Y-139533333D01*
X159200057Y-139533333D02*
X159295295Y-139485714D01*
X159295295Y-139485714D02*
X159485771Y-139438095D01*
X159485771Y-139438095D02*
X159723866Y-139438095D01*
X159723866Y-139438095D02*
X159914342Y-139485714D01*
X159914342Y-139485714D02*
X160009580Y-139533333D01*
X160009580Y-139533333D02*
X160057200Y-139580952D01*
X160057200Y-139580952D02*
X160104819Y-139676190D01*
X160104819Y-139676190D02*
X160104819Y-139771428D01*
X160104819Y-139771428D02*
X160057200Y-139866666D01*
X160057200Y-139866666D02*
X160009580Y-139914285D01*
X160009580Y-139914285D02*
X159914342Y-139961904D01*
X159914342Y-139961904D02*
X159723866Y-140009523D01*
X159723866Y-140009523D02*
X159485771Y-140009523D01*
X159485771Y-140009523D02*
X159295295Y-139961904D01*
X159295295Y-139961904D02*
X159200057Y-139914285D01*
X159200057Y-139914285D02*
X159152438Y-139866666D01*
X159152438Y-139866666D02*
X159104819Y-139771428D01*
X65037142Y-32074819D02*
X64703809Y-31598628D01*
X64465714Y-32074819D02*
X64465714Y-31074819D01*
X64465714Y-31074819D02*
X64846666Y-31074819D01*
X64846666Y-31074819D02*
X64941904Y-31122438D01*
X64941904Y-31122438D02*
X64989523Y-31170057D01*
X64989523Y-31170057D02*
X65037142Y-31265295D01*
X65037142Y-31265295D02*
X65037142Y-31408152D01*
X65037142Y-31408152D02*
X64989523Y-31503390D01*
X64989523Y-31503390D02*
X64941904Y-31551009D01*
X64941904Y-31551009D02*
X64846666Y-31598628D01*
X64846666Y-31598628D02*
X64465714Y-31598628D01*
X65989523Y-32074819D02*
X65418095Y-32074819D01*
X65703809Y-32074819D02*
X65703809Y-31074819D01*
X65703809Y-31074819D02*
X65608571Y-31217676D01*
X65608571Y-31217676D02*
X65513333Y-31312914D01*
X65513333Y-31312914D02*
X65418095Y-31360533D01*
X66370476Y-31170057D02*
X66418095Y-31122438D01*
X66418095Y-31122438D02*
X66513333Y-31074819D01*
X66513333Y-31074819D02*
X66751428Y-31074819D01*
X66751428Y-31074819D02*
X66846666Y-31122438D01*
X66846666Y-31122438D02*
X66894285Y-31170057D01*
X66894285Y-31170057D02*
X66941904Y-31265295D01*
X66941904Y-31265295D02*
X66941904Y-31360533D01*
X66941904Y-31360533D02*
X66894285Y-31503390D01*
X66894285Y-31503390D02*
X66322857Y-32074819D01*
X66322857Y-32074819D02*
X66941904Y-32074819D01*
D11*
X142052657Y-65957738D02*
X142005038Y-66052976D01*
X142005038Y-66052976D02*
X141909800Y-66148214D01*
X141909800Y-66148214D02*
X141766942Y-66291071D01*
X141766942Y-66291071D02*
X141719323Y-66386309D01*
X141719323Y-66386309D02*
X141719323Y-66481547D01*
X141957419Y-66433928D02*
X141909800Y-66529166D01*
X141909800Y-66529166D02*
X141814561Y-66624404D01*
X141814561Y-66624404D02*
X141624085Y-66672023D01*
X141624085Y-66672023D02*
X141290752Y-66672023D01*
X141290752Y-66672023D02*
X141100276Y-66624404D01*
X141100276Y-66624404D02*
X141005038Y-66529166D01*
X141005038Y-66529166D02*
X140957419Y-66433928D01*
X140957419Y-66433928D02*
X140957419Y-66243452D01*
X140957419Y-66243452D02*
X141005038Y-66148214D01*
X141005038Y-66148214D02*
X141100276Y-66052976D01*
X141100276Y-66052976D02*
X141290752Y-66005357D01*
X141290752Y-66005357D02*
X141624085Y-66005357D01*
X141624085Y-66005357D02*
X141814561Y-66052976D01*
X141814561Y-66052976D02*
X141909800Y-66148214D01*
X141909800Y-66148214D02*
X141957419Y-66243452D01*
X141957419Y-66243452D02*
X141957419Y-66433928D01*
X140957419Y-65672023D02*
X140957419Y-65052976D01*
X140957419Y-65052976D02*
X141338371Y-65386309D01*
X141338371Y-65386309D02*
X141338371Y-65243452D01*
X141338371Y-65243452D02*
X141385990Y-65148214D01*
X141385990Y-65148214D02*
X141433609Y-65100595D01*
X141433609Y-65100595D02*
X141528847Y-65052976D01*
X141528847Y-65052976D02*
X141766942Y-65052976D01*
X141766942Y-65052976D02*
X141862180Y-65100595D01*
X141862180Y-65100595D02*
X141909800Y-65148214D01*
X141909800Y-65148214D02*
X141957419Y-65243452D01*
X141957419Y-65243452D02*
X141957419Y-65529166D01*
X141957419Y-65529166D02*
X141909800Y-65624404D01*
X141909800Y-65624404D02*
X141862180Y-65672023D01*
D10*
X51107142Y-53159580D02*
X51059523Y-53207200D01*
X51059523Y-53207200D02*
X50916666Y-53254819D01*
X50916666Y-53254819D02*
X50821428Y-53254819D01*
X50821428Y-53254819D02*
X50678571Y-53207200D01*
X50678571Y-53207200D02*
X50583333Y-53111961D01*
X50583333Y-53111961D02*
X50535714Y-53016723D01*
X50535714Y-53016723D02*
X50488095Y-52826247D01*
X50488095Y-52826247D02*
X50488095Y-52683390D01*
X50488095Y-52683390D02*
X50535714Y-52492914D01*
X50535714Y-52492914D02*
X50583333Y-52397676D01*
X50583333Y-52397676D02*
X50678571Y-52302438D01*
X50678571Y-52302438D02*
X50821428Y-52254819D01*
X50821428Y-52254819D02*
X50916666Y-52254819D01*
X50916666Y-52254819D02*
X51059523Y-52302438D01*
X51059523Y-52302438D02*
X51107142Y-52350057D01*
X52059523Y-53254819D02*
X51488095Y-53254819D01*
X51773809Y-53254819D02*
X51773809Y-52254819D01*
X51773809Y-52254819D02*
X51678571Y-52397676D01*
X51678571Y-52397676D02*
X51583333Y-52492914D01*
X51583333Y-52492914D02*
X51488095Y-52540533D01*
X52964285Y-52254819D02*
X52488095Y-52254819D01*
X52488095Y-52254819D02*
X52440476Y-52731009D01*
X52440476Y-52731009D02*
X52488095Y-52683390D01*
X52488095Y-52683390D02*
X52583333Y-52635771D01*
X52583333Y-52635771D02*
X52821428Y-52635771D01*
X52821428Y-52635771D02*
X52916666Y-52683390D01*
X52916666Y-52683390D02*
X52964285Y-52731009D01*
X52964285Y-52731009D02*
X53011904Y-52826247D01*
X53011904Y-52826247D02*
X53011904Y-53064342D01*
X53011904Y-53064342D02*
X52964285Y-53159580D01*
X52964285Y-53159580D02*
X52916666Y-53207200D01*
X52916666Y-53207200D02*
X52821428Y-53254819D01*
X52821428Y-53254819D02*
X52583333Y-53254819D01*
X52583333Y-53254819D02*
X52488095Y-53207200D01*
X52488095Y-53207200D02*
X52440476Y-53159580D01*
X182017142Y-129994819D02*
X181683809Y-129518628D01*
X181445714Y-129994819D02*
X181445714Y-128994819D01*
X181445714Y-128994819D02*
X181826666Y-128994819D01*
X181826666Y-128994819D02*
X181921904Y-129042438D01*
X181921904Y-129042438D02*
X181969523Y-129090057D01*
X181969523Y-129090057D02*
X182017142Y-129185295D01*
X182017142Y-129185295D02*
X182017142Y-129328152D01*
X182017142Y-129328152D02*
X181969523Y-129423390D01*
X181969523Y-129423390D02*
X181921904Y-129471009D01*
X181921904Y-129471009D02*
X181826666Y-129518628D01*
X181826666Y-129518628D02*
X181445714Y-129518628D01*
X182969523Y-129994819D02*
X182398095Y-129994819D01*
X182683809Y-129994819D02*
X182683809Y-128994819D01*
X182683809Y-128994819D02*
X182588571Y-129137676D01*
X182588571Y-129137676D02*
X182493333Y-129232914D01*
X182493333Y-129232914D02*
X182398095Y-129280533D01*
X183302857Y-128994819D02*
X183969523Y-128994819D01*
X183969523Y-128994819D02*
X183540952Y-129994819D01*
X65037142Y-41944819D02*
X64703809Y-41468628D01*
X64465714Y-41944819D02*
X64465714Y-40944819D01*
X64465714Y-40944819D02*
X64846666Y-40944819D01*
X64846666Y-40944819D02*
X64941904Y-40992438D01*
X64941904Y-40992438D02*
X64989523Y-41040057D01*
X64989523Y-41040057D02*
X65037142Y-41135295D01*
X65037142Y-41135295D02*
X65037142Y-41278152D01*
X65037142Y-41278152D02*
X64989523Y-41373390D01*
X64989523Y-41373390D02*
X64941904Y-41421009D01*
X64941904Y-41421009D02*
X64846666Y-41468628D01*
X64846666Y-41468628D02*
X64465714Y-41468628D01*
X65989523Y-41944819D02*
X65418095Y-41944819D01*
X65703809Y-41944819D02*
X65703809Y-40944819D01*
X65703809Y-40944819D02*
X65608571Y-41087676D01*
X65608571Y-41087676D02*
X65513333Y-41182914D01*
X65513333Y-41182914D02*
X65418095Y-41230533D01*
X66894285Y-40944819D02*
X66418095Y-40944819D01*
X66418095Y-40944819D02*
X66370476Y-41421009D01*
X66370476Y-41421009D02*
X66418095Y-41373390D01*
X66418095Y-41373390D02*
X66513333Y-41325771D01*
X66513333Y-41325771D02*
X66751428Y-41325771D01*
X66751428Y-41325771D02*
X66846666Y-41373390D01*
X66846666Y-41373390D02*
X66894285Y-41421009D01*
X66894285Y-41421009D02*
X66941904Y-41516247D01*
X66941904Y-41516247D02*
X66941904Y-41754342D01*
X66941904Y-41754342D02*
X66894285Y-41849580D01*
X66894285Y-41849580D02*
X66846666Y-41897200D01*
X66846666Y-41897200D02*
X66751428Y-41944819D01*
X66751428Y-41944819D02*
X66513333Y-41944819D01*
X66513333Y-41944819D02*
X66418095Y-41897200D01*
X66418095Y-41897200D02*
X66370476Y-41849580D01*
D11*
X150238095Y-72457419D02*
X150809523Y-72457419D01*
X150523809Y-73457419D02*
X150523809Y-72457419D01*
X151666666Y-73457419D02*
X151095238Y-73457419D01*
X151380952Y-73457419D02*
X151380952Y-72457419D01*
X151380952Y-72457419D02*
X151285714Y-72600276D01*
X151285714Y-72600276D02*
X151190476Y-72695514D01*
X151190476Y-72695514D02*
X151095238Y-72743133D01*
D10*
X162521638Y-114524905D02*
X162521638Y-114311571D01*
X162856876Y-114220143D02*
X162856876Y-114524905D01*
X162856876Y-114524905D02*
X162216876Y-114524905D01*
X162216876Y-114524905D02*
X162216876Y-114220143D01*
X162856876Y-113610618D02*
X162856876Y-113976333D01*
X162856876Y-113793476D02*
X162216876Y-113793476D01*
X162216876Y-113793476D02*
X162308304Y-113854428D01*
X162308304Y-113854428D02*
X162369257Y-113915380D01*
X162369257Y-113915380D02*
X162399733Y-113976333D01*
X45457142Y-59859580D02*
X45409523Y-59907200D01*
X45409523Y-59907200D02*
X45266666Y-59954819D01*
X45266666Y-59954819D02*
X45171428Y-59954819D01*
X45171428Y-59954819D02*
X45028571Y-59907200D01*
X45028571Y-59907200D02*
X44933333Y-59811961D01*
X44933333Y-59811961D02*
X44885714Y-59716723D01*
X44885714Y-59716723D02*
X44838095Y-59526247D01*
X44838095Y-59526247D02*
X44838095Y-59383390D01*
X44838095Y-59383390D02*
X44885714Y-59192914D01*
X44885714Y-59192914D02*
X44933333Y-59097676D01*
X44933333Y-59097676D02*
X45028571Y-59002438D01*
X45028571Y-59002438D02*
X45171428Y-58954819D01*
X45171428Y-58954819D02*
X45266666Y-58954819D01*
X45266666Y-58954819D02*
X45409523Y-59002438D01*
X45409523Y-59002438D02*
X45457142Y-59050057D01*
X46409523Y-59954819D02*
X45838095Y-59954819D01*
X46123809Y-59954819D02*
X46123809Y-58954819D01*
X46123809Y-58954819D02*
X46028571Y-59097676D01*
X46028571Y-59097676D02*
X45933333Y-59192914D01*
X45933333Y-59192914D02*
X45838095Y-59240533D01*
X47361904Y-59954819D02*
X46790476Y-59954819D01*
X47076190Y-59954819D02*
X47076190Y-58954819D01*
X47076190Y-58954819D02*
X46980952Y-59097676D01*
X46980952Y-59097676D02*
X46885714Y-59192914D01*
X46885714Y-59192914D02*
X46790476Y-59240533D01*
D11*
X177238095Y-75957419D02*
X177809523Y-75957419D01*
X177523809Y-76957419D02*
X177523809Y-75957419D01*
X178095238Y-76052657D02*
X178142857Y-76005038D01*
X178142857Y-76005038D02*
X178238095Y-75957419D01*
X178238095Y-75957419D02*
X178476190Y-75957419D01*
X178476190Y-75957419D02*
X178571428Y-76005038D01*
X178571428Y-76005038D02*
X178619047Y-76052657D01*
X178619047Y-76052657D02*
X178666666Y-76147895D01*
X178666666Y-76147895D02*
X178666666Y-76243133D01*
X178666666Y-76243133D02*
X178619047Y-76385990D01*
X178619047Y-76385990D02*
X178047619Y-76957419D01*
X178047619Y-76957419D02*
X178666666Y-76957419D01*
D10*
X59903333Y-32074819D02*
X59570000Y-31598628D01*
X59331905Y-32074819D02*
X59331905Y-31074819D01*
X59331905Y-31074819D02*
X59712857Y-31074819D01*
X59712857Y-31074819D02*
X59808095Y-31122438D01*
X59808095Y-31122438D02*
X59855714Y-31170057D01*
X59855714Y-31170057D02*
X59903333Y-31265295D01*
X59903333Y-31265295D02*
X59903333Y-31408152D01*
X59903333Y-31408152D02*
X59855714Y-31503390D01*
X59855714Y-31503390D02*
X59808095Y-31551009D01*
X59808095Y-31551009D02*
X59712857Y-31598628D01*
X59712857Y-31598628D02*
X59331905Y-31598628D01*
X60760476Y-31408152D02*
X60760476Y-32074819D01*
X60522381Y-31027200D02*
X60284286Y-31741485D01*
X60284286Y-31741485D02*
X60903333Y-31741485D01*
X59903333Y-28784819D02*
X59570000Y-28308628D01*
X59331905Y-28784819D02*
X59331905Y-27784819D01*
X59331905Y-27784819D02*
X59712857Y-27784819D01*
X59712857Y-27784819D02*
X59808095Y-27832438D01*
X59808095Y-27832438D02*
X59855714Y-27880057D01*
X59855714Y-27880057D02*
X59903333Y-27975295D01*
X59903333Y-27975295D02*
X59903333Y-28118152D01*
X59903333Y-28118152D02*
X59855714Y-28213390D01*
X59855714Y-28213390D02*
X59808095Y-28261009D01*
X59808095Y-28261009D02*
X59712857Y-28308628D01*
X59712857Y-28308628D02*
X59331905Y-28308628D01*
X60236667Y-27784819D02*
X60855714Y-27784819D01*
X60855714Y-27784819D02*
X60522381Y-28165771D01*
X60522381Y-28165771D02*
X60665238Y-28165771D01*
X60665238Y-28165771D02*
X60760476Y-28213390D01*
X60760476Y-28213390D02*
X60808095Y-28261009D01*
X60808095Y-28261009D02*
X60855714Y-28356247D01*
X60855714Y-28356247D02*
X60855714Y-28594342D01*
X60855714Y-28594342D02*
X60808095Y-28689580D01*
X60808095Y-28689580D02*
X60760476Y-28737200D01*
X60760476Y-28737200D02*
X60665238Y-28784819D01*
X60665238Y-28784819D02*
X60379524Y-28784819D01*
X60379524Y-28784819D02*
X60284286Y-28737200D01*
X60284286Y-28737200D02*
X60236667Y-28689580D01*
X65037142Y-28784819D02*
X64703809Y-28308628D01*
X64465714Y-28784819D02*
X64465714Y-27784819D01*
X64465714Y-27784819D02*
X64846666Y-27784819D01*
X64846666Y-27784819D02*
X64941904Y-27832438D01*
X64941904Y-27832438D02*
X64989523Y-27880057D01*
X64989523Y-27880057D02*
X65037142Y-27975295D01*
X65037142Y-27975295D02*
X65037142Y-28118152D01*
X65037142Y-28118152D02*
X64989523Y-28213390D01*
X64989523Y-28213390D02*
X64941904Y-28261009D01*
X64941904Y-28261009D02*
X64846666Y-28308628D01*
X64846666Y-28308628D02*
X64465714Y-28308628D01*
X65989523Y-28784819D02*
X65418095Y-28784819D01*
X65703809Y-28784819D02*
X65703809Y-27784819D01*
X65703809Y-27784819D02*
X65608571Y-27927676D01*
X65608571Y-27927676D02*
X65513333Y-28022914D01*
X65513333Y-28022914D02*
X65418095Y-28070533D01*
X66608571Y-27784819D02*
X66703809Y-27784819D01*
X66703809Y-27784819D02*
X66799047Y-27832438D01*
X66799047Y-27832438D02*
X66846666Y-27880057D01*
X66846666Y-27880057D02*
X66894285Y-27975295D01*
X66894285Y-27975295D02*
X66941904Y-28165771D01*
X66941904Y-28165771D02*
X66941904Y-28403866D01*
X66941904Y-28403866D02*
X66894285Y-28594342D01*
X66894285Y-28594342D02*
X66846666Y-28689580D01*
X66846666Y-28689580D02*
X66799047Y-28737200D01*
X66799047Y-28737200D02*
X66703809Y-28784819D01*
X66703809Y-28784819D02*
X66608571Y-28784819D01*
X66608571Y-28784819D02*
X66513333Y-28737200D01*
X66513333Y-28737200D02*
X66465714Y-28689580D01*
X66465714Y-28689580D02*
X66418095Y-28594342D01*
X66418095Y-28594342D02*
X66370476Y-28403866D01*
X66370476Y-28403866D02*
X66370476Y-28165771D01*
X66370476Y-28165771D02*
X66418095Y-27975295D01*
X66418095Y-27975295D02*
X66465714Y-27880057D01*
X66465714Y-27880057D02*
X66513333Y-27832438D01*
X66513333Y-27832438D02*
X66608571Y-27784819D01*
X119374819Y-121166666D02*
X119374819Y-121642856D01*
X119374819Y-121642856D02*
X118374819Y-121642856D01*
X119374819Y-120309523D02*
X119374819Y-120880951D01*
X119374819Y-120595237D02*
X118374819Y-120595237D01*
X118374819Y-120595237D02*
X118517676Y-120690475D01*
X118517676Y-120690475D02*
X118612914Y-120785713D01*
X118612914Y-120785713D02*
X118660533Y-120880951D01*
X45457142Y-66559580D02*
X45409523Y-66607200D01*
X45409523Y-66607200D02*
X45266666Y-66654819D01*
X45266666Y-66654819D02*
X45171428Y-66654819D01*
X45171428Y-66654819D02*
X45028571Y-66607200D01*
X45028571Y-66607200D02*
X44933333Y-66511961D01*
X44933333Y-66511961D02*
X44885714Y-66416723D01*
X44885714Y-66416723D02*
X44838095Y-66226247D01*
X44838095Y-66226247D02*
X44838095Y-66083390D01*
X44838095Y-66083390D02*
X44885714Y-65892914D01*
X44885714Y-65892914D02*
X44933333Y-65797676D01*
X44933333Y-65797676D02*
X45028571Y-65702438D01*
X45028571Y-65702438D02*
X45171428Y-65654819D01*
X45171428Y-65654819D02*
X45266666Y-65654819D01*
X45266666Y-65654819D02*
X45409523Y-65702438D01*
X45409523Y-65702438D02*
X45457142Y-65750057D01*
X46409523Y-66654819D02*
X45838095Y-66654819D01*
X46123809Y-66654819D02*
X46123809Y-65654819D01*
X46123809Y-65654819D02*
X46028571Y-65797676D01*
X46028571Y-65797676D02*
X45933333Y-65892914D01*
X45933333Y-65892914D02*
X45838095Y-65940533D01*
X46742857Y-65654819D02*
X47361904Y-65654819D01*
X47361904Y-65654819D02*
X47028571Y-66035771D01*
X47028571Y-66035771D02*
X47171428Y-66035771D01*
X47171428Y-66035771D02*
X47266666Y-66083390D01*
X47266666Y-66083390D02*
X47314285Y-66131009D01*
X47314285Y-66131009D02*
X47361904Y-66226247D01*
X47361904Y-66226247D02*
X47361904Y-66464342D01*
X47361904Y-66464342D02*
X47314285Y-66559580D01*
X47314285Y-66559580D02*
X47266666Y-66607200D01*
X47266666Y-66607200D02*
X47171428Y-66654819D01*
X47171428Y-66654819D02*
X46885714Y-66654819D01*
X46885714Y-66654819D02*
X46790476Y-66607200D01*
X46790476Y-66607200D02*
X46742857Y-66559580D01*
X51107142Y-56509580D02*
X51059523Y-56557200D01*
X51059523Y-56557200D02*
X50916666Y-56604819D01*
X50916666Y-56604819D02*
X50821428Y-56604819D01*
X50821428Y-56604819D02*
X50678571Y-56557200D01*
X50678571Y-56557200D02*
X50583333Y-56461961D01*
X50583333Y-56461961D02*
X50535714Y-56366723D01*
X50535714Y-56366723D02*
X50488095Y-56176247D01*
X50488095Y-56176247D02*
X50488095Y-56033390D01*
X50488095Y-56033390D02*
X50535714Y-55842914D01*
X50535714Y-55842914D02*
X50583333Y-55747676D01*
X50583333Y-55747676D02*
X50678571Y-55652438D01*
X50678571Y-55652438D02*
X50821428Y-55604819D01*
X50821428Y-55604819D02*
X50916666Y-55604819D01*
X50916666Y-55604819D02*
X51059523Y-55652438D01*
X51059523Y-55652438D02*
X51107142Y-55700057D01*
X52059523Y-56604819D02*
X51488095Y-56604819D01*
X51773809Y-56604819D02*
X51773809Y-55604819D01*
X51773809Y-55604819D02*
X51678571Y-55747676D01*
X51678571Y-55747676D02*
X51583333Y-55842914D01*
X51583333Y-55842914D02*
X51488095Y-55890533D01*
X52916666Y-55604819D02*
X52726190Y-55604819D01*
X52726190Y-55604819D02*
X52630952Y-55652438D01*
X52630952Y-55652438D02*
X52583333Y-55700057D01*
X52583333Y-55700057D02*
X52488095Y-55842914D01*
X52488095Y-55842914D02*
X52440476Y-56033390D01*
X52440476Y-56033390D02*
X52440476Y-56414342D01*
X52440476Y-56414342D02*
X52488095Y-56509580D01*
X52488095Y-56509580D02*
X52535714Y-56557200D01*
X52535714Y-56557200D02*
X52630952Y-56604819D01*
X52630952Y-56604819D02*
X52821428Y-56604819D01*
X52821428Y-56604819D02*
X52916666Y-56557200D01*
X52916666Y-56557200D02*
X52964285Y-56509580D01*
X52964285Y-56509580D02*
X53011904Y-56414342D01*
X53011904Y-56414342D02*
X53011904Y-56176247D01*
X53011904Y-56176247D02*
X52964285Y-56081009D01*
X52964285Y-56081009D02*
X52916666Y-56033390D01*
X52916666Y-56033390D02*
X52821428Y-55985771D01*
X52821428Y-55985771D02*
X52630952Y-55985771D01*
X52630952Y-55985771D02*
X52535714Y-56033390D01*
X52535714Y-56033390D02*
X52488095Y-56081009D01*
X52488095Y-56081009D02*
X52440476Y-56176247D01*
X194701666Y-60494819D02*
X194701666Y-61209104D01*
X194701666Y-61209104D02*
X194654047Y-61351961D01*
X194654047Y-61351961D02*
X194558809Y-61447200D01*
X194558809Y-61447200D02*
X194415952Y-61494819D01*
X194415952Y-61494819D02*
X194320714Y-61494819D01*
X195701666Y-61494819D02*
X195130238Y-61494819D01*
X195415952Y-61494819D02*
X195415952Y-60494819D01*
X195415952Y-60494819D02*
X195320714Y-60637676D01*
X195320714Y-60637676D02*
X195225476Y-60732914D01*
X195225476Y-60732914D02*
X195130238Y-60780533D01*
X143770833Y-75434819D02*
X143437500Y-74958628D01*
X143199405Y-75434819D02*
X143199405Y-74434819D01*
X143199405Y-74434819D02*
X143580357Y-74434819D01*
X143580357Y-74434819D02*
X143675595Y-74482438D01*
X143675595Y-74482438D02*
X143723214Y-74530057D01*
X143723214Y-74530057D02*
X143770833Y-74625295D01*
X143770833Y-74625295D02*
X143770833Y-74768152D01*
X143770833Y-74768152D02*
X143723214Y-74863390D01*
X143723214Y-74863390D02*
X143675595Y-74911009D01*
X143675595Y-74911009D02*
X143580357Y-74958628D01*
X143580357Y-74958628D02*
X143199405Y-74958628D01*
X144723214Y-75434819D02*
X144151786Y-75434819D01*
X144437500Y-75434819D02*
X144437500Y-74434819D01*
X144437500Y-74434819D02*
X144342262Y-74577676D01*
X144342262Y-74577676D02*
X144247024Y-74672914D01*
X144247024Y-74672914D02*
X144151786Y-74720533D01*
D11*
X159947342Y-114133261D02*
X159994961Y-114038023D01*
X159994961Y-114038023D02*
X160090200Y-113942785D01*
X160090200Y-113942785D02*
X160233057Y-113799928D01*
X160233057Y-113799928D02*
X160280676Y-113704690D01*
X160280676Y-113704690D02*
X160280676Y-113609452D01*
X160042580Y-113657071D02*
X160090200Y-113561833D01*
X160090200Y-113561833D02*
X160185438Y-113466595D01*
X160185438Y-113466595D02*
X160375914Y-113418976D01*
X160375914Y-113418976D02*
X160709247Y-113418976D01*
X160709247Y-113418976D02*
X160899723Y-113466595D01*
X160899723Y-113466595D02*
X160994961Y-113561833D01*
X160994961Y-113561833D02*
X161042580Y-113657071D01*
X161042580Y-113657071D02*
X161042580Y-113847547D01*
X161042580Y-113847547D02*
X160994961Y-113942785D01*
X160994961Y-113942785D02*
X160899723Y-114038023D01*
X160899723Y-114038023D02*
X160709247Y-114085642D01*
X160709247Y-114085642D02*
X160375914Y-114085642D01*
X160375914Y-114085642D02*
X160185438Y-114038023D01*
X160185438Y-114038023D02*
X160090200Y-113942785D01*
X160090200Y-113942785D02*
X160042580Y-113847547D01*
X160042580Y-113847547D02*
X160042580Y-113657071D01*
X160042580Y-115038023D02*
X160042580Y-114466595D01*
X160042580Y-114752309D02*
X161042580Y-114752309D01*
X161042580Y-114752309D02*
X160899723Y-114657071D01*
X160899723Y-114657071D02*
X160804485Y-114561833D01*
X160804485Y-114561833D02*
X160756866Y-114466595D01*
D10*
X40283333Y-56509580D02*
X40235714Y-56557200D01*
X40235714Y-56557200D02*
X40092857Y-56604819D01*
X40092857Y-56604819D02*
X39997619Y-56604819D01*
X39997619Y-56604819D02*
X39854762Y-56557200D01*
X39854762Y-56557200D02*
X39759524Y-56461961D01*
X39759524Y-56461961D02*
X39711905Y-56366723D01*
X39711905Y-56366723D02*
X39664286Y-56176247D01*
X39664286Y-56176247D02*
X39664286Y-56033390D01*
X39664286Y-56033390D02*
X39711905Y-55842914D01*
X39711905Y-55842914D02*
X39759524Y-55747676D01*
X39759524Y-55747676D02*
X39854762Y-55652438D01*
X39854762Y-55652438D02*
X39997619Y-55604819D01*
X39997619Y-55604819D02*
X40092857Y-55604819D01*
X40092857Y-55604819D02*
X40235714Y-55652438D01*
X40235714Y-55652438D02*
X40283333Y-55700057D01*
X40664286Y-55700057D02*
X40711905Y-55652438D01*
X40711905Y-55652438D02*
X40807143Y-55604819D01*
X40807143Y-55604819D02*
X41045238Y-55604819D01*
X41045238Y-55604819D02*
X41140476Y-55652438D01*
X41140476Y-55652438D02*
X41188095Y-55700057D01*
X41188095Y-55700057D02*
X41235714Y-55795295D01*
X41235714Y-55795295D02*
X41235714Y-55890533D01*
X41235714Y-55890533D02*
X41188095Y-56033390D01*
X41188095Y-56033390D02*
X40616667Y-56604819D01*
X40616667Y-56604819D02*
X41235714Y-56604819D01*
X65037142Y-38654819D02*
X64703809Y-38178628D01*
X64465714Y-38654819D02*
X64465714Y-37654819D01*
X64465714Y-37654819D02*
X64846666Y-37654819D01*
X64846666Y-37654819D02*
X64941904Y-37702438D01*
X64941904Y-37702438D02*
X64989523Y-37750057D01*
X64989523Y-37750057D02*
X65037142Y-37845295D01*
X65037142Y-37845295D02*
X65037142Y-37988152D01*
X65037142Y-37988152D02*
X64989523Y-38083390D01*
X64989523Y-38083390D02*
X64941904Y-38131009D01*
X64941904Y-38131009D02*
X64846666Y-38178628D01*
X64846666Y-38178628D02*
X64465714Y-38178628D01*
X65989523Y-38654819D02*
X65418095Y-38654819D01*
X65703809Y-38654819D02*
X65703809Y-37654819D01*
X65703809Y-37654819D02*
X65608571Y-37797676D01*
X65608571Y-37797676D02*
X65513333Y-37892914D01*
X65513333Y-37892914D02*
X65418095Y-37940533D01*
X66846666Y-37988152D02*
X66846666Y-38654819D01*
X66608571Y-37607200D02*
X66370476Y-38321485D01*
X66370476Y-38321485D02*
X66989523Y-38321485D01*
X133321638Y-131824905D02*
X133321638Y-131611571D01*
X133656876Y-131520143D02*
X133656876Y-131824905D01*
X133656876Y-131824905D02*
X133016876Y-131824905D01*
X133016876Y-131824905D02*
X133016876Y-131520143D01*
X133077828Y-131276333D02*
X133047352Y-131245857D01*
X133047352Y-131245857D02*
X133016876Y-131184904D01*
X133016876Y-131184904D02*
X133016876Y-131032523D01*
X133016876Y-131032523D02*
X133047352Y-130971571D01*
X133047352Y-130971571D02*
X133077828Y-130941095D01*
X133077828Y-130941095D02*
X133138780Y-130910618D01*
X133138780Y-130910618D02*
X133199733Y-130910618D01*
X133199733Y-130910618D02*
X133291161Y-130941095D01*
X133291161Y-130941095D02*
X133656876Y-131306809D01*
X133656876Y-131306809D02*
X133656876Y-130910618D01*
X102994819Y-139933333D02*
X103709104Y-139933333D01*
X103709104Y-139933333D02*
X103851961Y-139980952D01*
X103851961Y-139980952D02*
X103947200Y-140076190D01*
X103947200Y-140076190D02*
X103994819Y-140219047D01*
X103994819Y-140219047D02*
X103994819Y-140314285D01*
X102994819Y-138980952D02*
X102994819Y-139457142D01*
X102994819Y-139457142D02*
X103471009Y-139504761D01*
X103471009Y-139504761D02*
X103423390Y-139457142D01*
X103423390Y-139457142D02*
X103375771Y-139361904D01*
X103375771Y-139361904D02*
X103375771Y-139123809D01*
X103375771Y-139123809D02*
X103423390Y-139028571D01*
X103423390Y-139028571D02*
X103471009Y-138980952D01*
X103471009Y-138980952D02*
X103566247Y-138933333D01*
X103566247Y-138933333D02*
X103804342Y-138933333D01*
X103804342Y-138933333D02*
X103899580Y-138980952D01*
X103899580Y-138980952D02*
X103947200Y-139028571D01*
X103947200Y-139028571D02*
X103994819Y-139123809D01*
X103994819Y-139123809D02*
X103994819Y-139361904D01*
X103994819Y-139361904D02*
X103947200Y-139457142D01*
X103947200Y-139457142D02*
X103899580Y-139504761D01*
X108201666Y-101794819D02*
X108201666Y-102509104D01*
X108201666Y-102509104D02*
X108154047Y-102651961D01*
X108154047Y-102651961D02*
X108058809Y-102747200D01*
X108058809Y-102747200D02*
X107915952Y-102794819D01*
X107915952Y-102794819D02*
X107820714Y-102794819D01*
X108630238Y-101890057D02*
X108677857Y-101842438D01*
X108677857Y-101842438D02*
X108773095Y-101794819D01*
X108773095Y-101794819D02*
X109011190Y-101794819D01*
X109011190Y-101794819D02*
X109106428Y-101842438D01*
X109106428Y-101842438D02*
X109154047Y-101890057D01*
X109154047Y-101890057D02*
X109201666Y-101985295D01*
X109201666Y-101985295D02*
X109201666Y-102080533D01*
X109201666Y-102080533D02*
X109154047Y-102223390D01*
X109154047Y-102223390D02*
X108582619Y-102794819D01*
X108582619Y-102794819D02*
X109201666Y-102794819D01*
X111254819Y-125433333D02*
X111969104Y-125433333D01*
X111969104Y-125433333D02*
X112111961Y-125480952D01*
X112111961Y-125480952D02*
X112207200Y-125576190D01*
X112207200Y-125576190D02*
X112254819Y-125719047D01*
X112254819Y-125719047D02*
X112254819Y-125814285D01*
X111254819Y-125052380D02*
X111254819Y-124433333D01*
X111254819Y-124433333D02*
X111635771Y-124766666D01*
X111635771Y-124766666D02*
X111635771Y-124623809D01*
X111635771Y-124623809D02*
X111683390Y-124528571D01*
X111683390Y-124528571D02*
X111731009Y-124480952D01*
X111731009Y-124480952D02*
X111826247Y-124433333D01*
X111826247Y-124433333D02*
X112064342Y-124433333D01*
X112064342Y-124433333D02*
X112159580Y-124480952D01*
X112159580Y-124480952D02*
X112207200Y-124528571D01*
X112207200Y-124528571D02*
X112254819Y-124623809D01*
X112254819Y-124623809D02*
X112254819Y-124909523D01*
X112254819Y-124909523D02*
X112207200Y-125004761D01*
X112207200Y-125004761D02*
X112159580Y-125052380D01*
X155375094Y-128721638D02*
X155588428Y-128721638D01*
X155679856Y-129056876D02*
X155375094Y-129056876D01*
X155375094Y-129056876D02*
X155375094Y-128416876D01*
X155375094Y-128416876D02*
X155679856Y-128416876D01*
X156258904Y-128416876D02*
X155954142Y-128416876D01*
X155954142Y-128416876D02*
X155923666Y-128721638D01*
X155923666Y-128721638D02*
X155954142Y-128691161D01*
X155954142Y-128691161D02*
X156015095Y-128660685D01*
X156015095Y-128660685D02*
X156167476Y-128660685D01*
X156167476Y-128660685D02*
X156228428Y-128691161D01*
X156228428Y-128691161D02*
X156258904Y-128721638D01*
X156258904Y-128721638D02*
X156289381Y-128782590D01*
X156289381Y-128782590D02*
X156289381Y-128934971D01*
X156289381Y-128934971D02*
X156258904Y-128995923D01*
X156258904Y-128995923D02*
X156228428Y-129026400D01*
X156228428Y-129026400D02*
X156167476Y-129056876D01*
X156167476Y-129056876D02*
X156015095Y-129056876D01*
X156015095Y-129056876D02*
X155954142Y-129026400D01*
X155954142Y-129026400D02*
X155923666Y-128995923D01*
X70647142Y-32074819D02*
X70313809Y-31598628D01*
X70075714Y-32074819D02*
X70075714Y-31074819D01*
X70075714Y-31074819D02*
X70456666Y-31074819D01*
X70456666Y-31074819D02*
X70551904Y-31122438D01*
X70551904Y-31122438D02*
X70599523Y-31170057D01*
X70599523Y-31170057D02*
X70647142Y-31265295D01*
X70647142Y-31265295D02*
X70647142Y-31408152D01*
X70647142Y-31408152D02*
X70599523Y-31503390D01*
X70599523Y-31503390D02*
X70551904Y-31551009D01*
X70551904Y-31551009D02*
X70456666Y-31598628D01*
X70456666Y-31598628D02*
X70075714Y-31598628D01*
X71028095Y-31170057D02*
X71075714Y-31122438D01*
X71075714Y-31122438D02*
X71170952Y-31074819D01*
X71170952Y-31074819D02*
X71409047Y-31074819D01*
X71409047Y-31074819D02*
X71504285Y-31122438D01*
X71504285Y-31122438D02*
X71551904Y-31170057D01*
X71551904Y-31170057D02*
X71599523Y-31265295D01*
X71599523Y-31265295D02*
X71599523Y-31360533D01*
X71599523Y-31360533D02*
X71551904Y-31503390D01*
X71551904Y-31503390D02*
X70980476Y-32074819D01*
X70980476Y-32074819D02*
X71599523Y-32074819D01*
X72218571Y-31074819D02*
X72313809Y-31074819D01*
X72313809Y-31074819D02*
X72409047Y-31122438D01*
X72409047Y-31122438D02*
X72456666Y-31170057D01*
X72456666Y-31170057D02*
X72504285Y-31265295D01*
X72504285Y-31265295D02*
X72551904Y-31455771D01*
X72551904Y-31455771D02*
X72551904Y-31693866D01*
X72551904Y-31693866D02*
X72504285Y-31884342D01*
X72504285Y-31884342D02*
X72456666Y-31979580D01*
X72456666Y-31979580D02*
X72409047Y-32027200D01*
X72409047Y-32027200D02*
X72313809Y-32074819D01*
X72313809Y-32074819D02*
X72218571Y-32074819D01*
X72218571Y-32074819D02*
X72123333Y-32027200D01*
X72123333Y-32027200D02*
X72075714Y-31979580D01*
X72075714Y-31979580D02*
X72028095Y-31884342D01*
X72028095Y-31884342D02*
X71980476Y-31693866D01*
X71980476Y-31693866D02*
X71980476Y-31455771D01*
X71980476Y-31455771D02*
X72028095Y-31265295D01*
X72028095Y-31265295D02*
X72075714Y-31170057D01*
X72075714Y-31170057D02*
X72123333Y-31122438D01*
X72123333Y-31122438D02*
X72218571Y-31074819D01*
X51107142Y-63209580D02*
X51059523Y-63257200D01*
X51059523Y-63257200D02*
X50916666Y-63304819D01*
X50916666Y-63304819D02*
X50821428Y-63304819D01*
X50821428Y-63304819D02*
X50678571Y-63257200D01*
X50678571Y-63257200D02*
X50583333Y-63161961D01*
X50583333Y-63161961D02*
X50535714Y-63066723D01*
X50535714Y-63066723D02*
X50488095Y-62876247D01*
X50488095Y-62876247D02*
X50488095Y-62733390D01*
X50488095Y-62733390D02*
X50535714Y-62542914D01*
X50535714Y-62542914D02*
X50583333Y-62447676D01*
X50583333Y-62447676D02*
X50678571Y-62352438D01*
X50678571Y-62352438D02*
X50821428Y-62304819D01*
X50821428Y-62304819D02*
X50916666Y-62304819D01*
X50916666Y-62304819D02*
X51059523Y-62352438D01*
X51059523Y-62352438D02*
X51107142Y-62400057D01*
X52059523Y-63304819D02*
X51488095Y-63304819D01*
X51773809Y-63304819D02*
X51773809Y-62304819D01*
X51773809Y-62304819D02*
X51678571Y-62447676D01*
X51678571Y-62447676D02*
X51583333Y-62542914D01*
X51583333Y-62542914D02*
X51488095Y-62590533D01*
X52630952Y-62733390D02*
X52535714Y-62685771D01*
X52535714Y-62685771D02*
X52488095Y-62638152D01*
X52488095Y-62638152D02*
X52440476Y-62542914D01*
X52440476Y-62542914D02*
X52440476Y-62495295D01*
X52440476Y-62495295D02*
X52488095Y-62400057D01*
X52488095Y-62400057D02*
X52535714Y-62352438D01*
X52535714Y-62352438D02*
X52630952Y-62304819D01*
X52630952Y-62304819D02*
X52821428Y-62304819D01*
X52821428Y-62304819D02*
X52916666Y-62352438D01*
X52916666Y-62352438D02*
X52964285Y-62400057D01*
X52964285Y-62400057D02*
X53011904Y-62495295D01*
X53011904Y-62495295D02*
X53011904Y-62542914D01*
X53011904Y-62542914D02*
X52964285Y-62638152D01*
X52964285Y-62638152D02*
X52916666Y-62685771D01*
X52916666Y-62685771D02*
X52821428Y-62733390D01*
X52821428Y-62733390D02*
X52630952Y-62733390D01*
X52630952Y-62733390D02*
X52535714Y-62781009D01*
X52535714Y-62781009D02*
X52488095Y-62828628D01*
X52488095Y-62828628D02*
X52440476Y-62923866D01*
X52440476Y-62923866D02*
X52440476Y-63114342D01*
X52440476Y-63114342D02*
X52488095Y-63209580D01*
X52488095Y-63209580D02*
X52535714Y-63257200D01*
X52535714Y-63257200D02*
X52630952Y-63304819D01*
X52630952Y-63304819D02*
X52821428Y-63304819D01*
X52821428Y-63304819D02*
X52916666Y-63257200D01*
X52916666Y-63257200D02*
X52964285Y-63209580D01*
X52964285Y-63209580D02*
X53011904Y-63114342D01*
X53011904Y-63114342D02*
X53011904Y-62923866D01*
X53011904Y-62923866D02*
X52964285Y-62828628D01*
X52964285Y-62828628D02*
X52916666Y-62781009D01*
X52916666Y-62781009D02*
X52821428Y-62733390D01*
X173475094Y-139721638D02*
X173688428Y-139721638D01*
X173779856Y-140056876D02*
X173475094Y-140056876D01*
X173475094Y-140056876D02*
X173475094Y-139416876D01*
X173475094Y-139416876D02*
X173779856Y-139416876D01*
X174328428Y-139630209D02*
X174328428Y-140056876D01*
X174176047Y-139386400D02*
X174023666Y-139843542D01*
X174023666Y-139843542D02*
X174419857Y-139843542D01*
X162521638Y-123324905D02*
X162521638Y-123111571D01*
X162856876Y-123020143D02*
X162856876Y-123324905D01*
X162856876Y-123324905D02*
X162216876Y-123324905D01*
X162216876Y-123324905D02*
X162216876Y-123020143D01*
X162216876Y-122806809D02*
X162216876Y-122410618D01*
X162216876Y-122410618D02*
X162460685Y-122623952D01*
X162460685Y-122623952D02*
X162460685Y-122532523D01*
X162460685Y-122532523D02*
X162491161Y-122471571D01*
X162491161Y-122471571D02*
X162521638Y-122441095D01*
X162521638Y-122441095D02*
X162582590Y-122410618D01*
X162582590Y-122410618D02*
X162734971Y-122410618D01*
X162734971Y-122410618D02*
X162795923Y-122441095D01*
X162795923Y-122441095D02*
X162826400Y-122471571D01*
X162826400Y-122471571D02*
X162856876Y-122532523D01*
X162856876Y-122532523D02*
X162856876Y-122715380D01*
X162856876Y-122715380D02*
X162826400Y-122776333D01*
X162826400Y-122776333D02*
X162795923Y-122806809D01*
X59903333Y-35364819D02*
X59570000Y-34888628D01*
X59331905Y-35364819D02*
X59331905Y-34364819D01*
X59331905Y-34364819D02*
X59712857Y-34364819D01*
X59712857Y-34364819D02*
X59808095Y-34412438D01*
X59808095Y-34412438D02*
X59855714Y-34460057D01*
X59855714Y-34460057D02*
X59903333Y-34555295D01*
X59903333Y-34555295D02*
X59903333Y-34698152D01*
X59903333Y-34698152D02*
X59855714Y-34793390D01*
X59855714Y-34793390D02*
X59808095Y-34841009D01*
X59808095Y-34841009D02*
X59712857Y-34888628D01*
X59712857Y-34888628D02*
X59331905Y-34888628D01*
X60808095Y-34364819D02*
X60331905Y-34364819D01*
X60331905Y-34364819D02*
X60284286Y-34841009D01*
X60284286Y-34841009D02*
X60331905Y-34793390D01*
X60331905Y-34793390D02*
X60427143Y-34745771D01*
X60427143Y-34745771D02*
X60665238Y-34745771D01*
X60665238Y-34745771D02*
X60760476Y-34793390D01*
X60760476Y-34793390D02*
X60808095Y-34841009D01*
X60808095Y-34841009D02*
X60855714Y-34936247D01*
X60855714Y-34936247D02*
X60855714Y-35174342D01*
X60855714Y-35174342D02*
X60808095Y-35269580D01*
X60808095Y-35269580D02*
X60760476Y-35317200D01*
X60760476Y-35317200D02*
X60665238Y-35364819D01*
X60665238Y-35364819D02*
X60427143Y-35364819D01*
X60427143Y-35364819D02*
X60331905Y-35317200D01*
X60331905Y-35317200D02*
X60284286Y-35269580D01*
X127967261Y-125450057D02*
X127872023Y-125402438D01*
X127872023Y-125402438D02*
X127776785Y-125307200D01*
X127776785Y-125307200D02*
X127633928Y-125164342D01*
X127633928Y-125164342D02*
X127538690Y-125116723D01*
X127538690Y-125116723D02*
X127443452Y-125116723D01*
X127491071Y-125354819D02*
X127395833Y-125307200D01*
X127395833Y-125307200D02*
X127300595Y-125211961D01*
X127300595Y-125211961D02*
X127252976Y-125021485D01*
X127252976Y-125021485D02*
X127252976Y-124688152D01*
X127252976Y-124688152D02*
X127300595Y-124497676D01*
X127300595Y-124497676D02*
X127395833Y-124402438D01*
X127395833Y-124402438D02*
X127491071Y-124354819D01*
X127491071Y-124354819D02*
X127681547Y-124354819D01*
X127681547Y-124354819D02*
X127776785Y-124402438D01*
X127776785Y-124402438D02*
X127872023Y-124497676D01*
X127872023Y-124497676D02*
X127919642Y-124688152D01*
X127919642Y-124688152D02*
X127919642Y-125021485D01*
X127919642Y-125021485D02*
X127872023Y-125211961D01*
X127872023Y-125211961D02*
X127776785Y-125307200D01*
X127776785Y-125307200D02*
X127681547Y-125354819D01*
X127681547Y-125354819D02*
X127491071Y-125354819D01*
X128824404Y-124354819D02*
X128348214Y-124354819D01*
X128348214Y-124354819D02*
X128300595Y-124831009D01*
X128300595Y-124831009D02*
X128348214Y-124783390D01*
X128348214Y-124783390D02*
X128443452Y-124735771D01*
X128443452Y-124735771D02*
X128681547Y-124735771D01*
X128681547Y-124735771D02*
X128776785Y-124783390D01*
X128776785Y-124783390D02*
X128824404Y-124831009D01*
X128824404Y-124831009D02*
X128872023Y-124926247D01*
X128872023Y-124926247D02*
X128872023Y-125164342D01*
X128872023Y-125164342D02*
X128824404Y-125259580D01*
X128824404Y-125259580D02*
X128776785Y-125307200D01*
X128776785Y-125307200D02*
X128681547Y-125354819D01*
X128681547Y-125354819D02*
X128443452Y-125354819D01*
X128443452Y-125354819D02*
X128348214Y-125307200D01*
X128348214Y-125307200D02*
X128300595Y-125259580D01*
X126854761Y-108350057D02*
X126759523Y-108302438D01*
X126759523Y-108302438D02*
X126664285Y-108207200D01*
X126664285Y-108207200D02*
X126521428Y-108064342D01*
X126521428Y-108064342D02*
X126426190Y-108016723D01*
X126426190Y-108016723D02*
X126330952Y-108016723D01*
X126378571Y-108254819D02*
X126283333Y-108207200D01*
X126283333Y-108207200D02*
X126188095Y-108111961D01*
X126188095Y-108111961D02*
X126140476Y-107921485D01*
X126140476Y-107921485D02*
X126140476Y-107588152D01*
X126140476Y-107588152D02*
X126188095Y-107397676D01*
X126188095Y-107397676D02*
X126283333Y-107302438D01*
X126283333Y-107302438D02*
X126378571Y-107254819D01*
X126378571Y-107254819D02*
X126569047Y-107254819D01*
X126569047Y-107254819D02*
X126664285Y-107302438D01*
X126664285Y-107302438D02*
X126759523Y-107397676D01*
X126759523Y-107397676D02*
X126807142Y-107588152D01*
X126807142Y-107588152D02*
X126807142Y-107921485D01*
X126807142Y-107921485D02*
X126759523Y-108111961D01*
X126759523Y-108111961D02*
X126664285Y-108207200D01*
X126664285Y-108207200D02*
X126569047Y-108254819D01*
X126569047Y-108254819D02*
X126378571Y-108254819D01*
X127664285Y-107588152D02*
X127664285Y-108254819D01*
X127426190Y-107207200D02*
X127188095Y-107921485D01*
X127188095Y-107921485D02*
X127807142Y-107921485D01*
X70647142Y-22204819D02*
X70313809Y-21728628D01*
X70075714Y-22204819D02*
X70075714Y-21204819D01*
X70075714Y-21204819D02*
X70456666Y-21204819D01*
X70456666Y-21204819D02*
X70551904Y-21252438D01*
X70551904Y-21252438D02*
X70599523Y-21300057D01*
X70599523Y-21300057D02*
X70647142Y-21395295D01*
X70647142Y-21395295D02*
X70647142Y-21538152D01*
X70647142Y-21538152D02*
X70599523Y-21633390D01*
X70599523Y-21633390D02*
X70551904Y-21681009D01*
X70551904Y-21681009D02*
X70456666Y-21728628D01*
X70456666Y-21728628D02*
X70075714Y-21728628D01*
X71599523Y-22204819D02*
X71028095Y-22204819D01*
X71313809Y-22204819D02*
X71313809Y-21204819D01*
X71313809Y-21204819D02*
X71218571Y-21347676D01*
X71218571Y-21347676D02*
X71123333Y-21442914D01*
X71123333Y-21442914D02*
X71028095Y-21490533D01*
X72456666Y-21204819D02*
X72266190Y-21204819D01*
X72266190Y-21204819D02*
X72170952Y-21252438D01*
X72170952Y-21252438D02*
X72123333Y-21300057D01*
X72123333Y-21300057D02*
X72028095Y-21442914D01*
X72028095Y-21442914D02*
X71980476Y-21633390D01*
X71980476Y-21633390D02*
X71980476Y-22014342D01*
X71980476Y-22014342D02*
X72028095Y-22109580D01*
X72028095Y-22109580D02*
X72075714Y-22157200D01*
X72075714Y-22157200D02*
X72170952Y-22204819D01*
X72170952Y-22204819D02*
X72361428Y-22204819D01*
X72361428Y-22204819D02*
X72456666Y-22157200D01*
X72456666Y-22157200D02*
X72504285Y-22109580D01*
X72504285Y-22109580D02*
X72551904Y-22014342D01*
X72551904Y-22014342D02*
X72551904Y-21776247D01*
X72551904Y-21776247D02*
X72504285Y-21681009D01*
X72504285Y-21681009D02*
X72456666Y-21633390D01*
X72456666Y-21633390D02*
X72361428Y-21585771D01*
X72361428Y-21585771D02*
X72170952Y-21585771D01*
X72170952Y-21585771D02*
X72075714Y-21633390D01*
X72075714Y-21633390D02*
X72028095Y-21681009D01*
X72028095Y-21681009D02*
X71980476Y-21776247D01*
X145067261Y-127950057D02*
X144972023Y-127902438D01*
X144972023Y-127902438D02*
X144876785Y-127807200D01*
X144876785Y-127807200D02*
X144733928Y-127664342D01*
X144733928Y-127664342D02*
X144638690Y-127616723D01*
X144638690Y-127616723D02*
X144543452Y-127616723D01*
X144591071Y-127854819D02*
X144495833Y-127807200D01*
X144495833Y-127807200D02*
X144400595Y-127711961D01*
X144400595Y-127711961D02*
X144352976Y-127521485D01*
X144352976Y-127521485D02*
X144352976Y-127188152D01*
X144352976Y-127188152D02*
X144400595Y-126997676D01*
X144400595Y-126997676D02*
X144495833Y-126902438D01*
X144495833Y-126902438D02*
X144591071Y-126854819D01*
X144591071Y-126854819D02*
X144781547Y-126854819D01*
X144781547Y-126854819D02*
X144876785Y-126902438D01*
X144876785Y-126902438D02*
X144972023Y-126997676D01*
X144972023Y-126997676D02*
X145019642Y-127188152D01*
X145019642Y-127188152D02*
X145019642Y-127521485D01*
X145019642Y-127521485D02*
X144972023Y-127711961D01*
X144972023Y-127711961D02*
X144876785Y-127807200D01*
X144876785Y-127807200D02*
X144781547Y-127854819D01*
X144781547Y-127854819D02*
X144591071Y-127854819D01*
X145876785Y-126854819D02*
X145686309Y-126854819D01*
X145686309Y-126854819D02*
X145591071Y-126902438D01*
X145591071Y-126902438D02*
X145543452Y-126950057D01*
X145543452Y-126950057D02*
X145448214Y-127092914D01*
X145448214Y-127092914D02*
X145400595Y-127283390D01*
X145400595Y-127283390D02*
X145400595Y-127664342D01*
X145400595Y-127664342D02*
X145448214Y-127759580D01*
X145448214Y-127759580D02*
X145495833Y-127807200D01*
X145495833Y-127807200D02*
X145591071Y-127854819D01*
X145591071Y-127854819D02*
X145781547Y-127854819D01*
X145781547Y-127854819D02*
X145876785Y-127807200D01*
X145876785Y-127807200D02*
X145924404Y-127759580D01*
X145924404Y-127759580D02*
X145972023Y-127664342D01*
X145972023Y-127664342D02*
X145972023Y-127426247D01*
X145972023Y-127426247D02*
X145924404Y-127331009D01*
X145924404Y-127331009D02*
X145876785Y-127283390D01*
X145876785Y-127283390D02*
X145781547Y-127235771D01*
X145781547Y-127235771D02*
X145591071Y-127235771D01*
X145591071Y-127235771D02*
X145495833Y-127283390D01*
X145495833Y-127283390D02*
X145448214Y-127331009D01*
X145448214Y-127331009D02*
X145400595Y-127426247D01*
X45457142Y-63209580D02*
X45409523Y-63257200D01*
X45409523Y-63257200D02*
X45266666Y-63304819D01*
X45266666Y-63304819D02*
X45171428Y-63304819D01*
X45171428Y-63304819D02*
X45028571Y-63257200D01*
X45028571Y-63257200D02*
X44933333Y-63161961D01*
X44933333Y-63161961D02*
X44885714Y-63066723D01*
X44885714Y-63066723D02*
X44838095Y-62876247D01*
X44838095Y-62876247D02*
X44838095Y-62733390D01*
X44838095Y-62733390D02*
X44885714Y-62542914D01*
X44885714Y-62542914D02*
X44933333Y-62447676D01*
X44933333Y-62447676D02*
X45028571Y-62352438D01*
X45028571Y-62352438D02*
X45171428Y-62304819D01*
X45171428Y-62304819D02*
X45266666Y-62304819D01*
X45266666Y-62304819D02*
X45409523Y-62352438D01*
X45409523Y-62352438D02*
X45457142Y-62400057D01*
X46409523Y-63304819D02*
X45838095Y-63304819D01*
X46123809Y-63304819D02*
X46123809Y-62304819D01*
X46123809Y-62304819D02*
X46028571Y-62447676D01*
X46028571Y-62447676D02*
X45933333Y-62542914D01*
X45933333Y-62542914D02*
X45838095Y-62590533D01*
X46790476Y-62400057D02*
X46838095Y-62352438D01*
X46838095Y-62352438D02*
X46933333Y-62304819D01*
X46933333Y-62304819D02*
X47171428Y-62304819D01*
X47171428Y-62304819D02*
X47266666Y-62352438D01*
X47266666Y-62352438D02*
X47314285Y-62400057D01*
X47314285Y-62400057D02*
X47361904Y-62495295D01*
X47361904Y-62495295D02*
X47361904Y-62590533D01*
X47361904Y-62590533D02*
X47314285Y-62733390D01*
X47314285Y-62733390D02*
X46742857Y-63304819D01*
X46742857Y-63304819D02*
X47361904Y-63304819D01*
X70647142Y-25494819D02*
X70313809Y-25018628D01*
X70075714Y-25494819D02*
X70075714Y-24494819D01*
X70075714Y-24494819D02*
X70456666Y-24494819D01*
X70456666Y-24494819D02*
X70551904Y-24542438D01*
X70551904Y-24542438D02*
X70599523Y-24590057D01*
X70599523Y-24590057D02*
X70647142Y-24685295D01*
X70647142Y-24685295D02*
X70647142Y-24828152D01*
X70647142Y-24828152D02*
X70599523Y-24923390D01*
X70599523Y-24923390D02*
X70551904Y-24971009D01*
X70551904Y-24971009D02*
X70456666Y-25018628D01*
X70456666Y-25018628D02*
X70075714Y-25018628D01*
X71599523Y-25494819D02*
X71028095Y-25494819D01*
X71313809Y-25494819D02*
X71313809Y-24494819D01*
X71313809Y-24494819D02*
X71218571Y-24637676D01*
X71218571Y-24637676D02*
X71123333Y-24732914D01*
X71123333Y-24732914D02*
X71028095Y-24780533D01*
X72170952Y-24923390D02*
X72075714Y-24875771D01*
X72075714Y-24875771D02*
X72028095Y-24828152D01*
X72028095Y-24828152D02*
X71980476Y-24732914D01*
X71980476Y-24732914D02*
X71980476Y-24685295D01*
X71980476Y-24685295D02*
X72028095Y-24590057D01*
X72028095Y-24590057D02*
X72075714Y-24542438D01*
X72075714Y-24542438D02*
X72170952Y-24494819D01*
X72170952Y-24494819D02*
X72361428Y-24494819D01*
X72361428Y-24494819D02*
X72456666Y-24542438D01*
X72456666Y-24542438D02*
X72504285Y-24590057D01*
X72504285Y-24590057D02*
X72551904Y-24685295D01*
X72551904Y-24685295D02*
X72551904Y-24732914D01*
X72551904Y-24732914D02*
X72504285Y-24828152D01*
X72504285Y-24828152D02*
X72456666Y-24875771D01*
X72456666Y-24875771D02*
X72361428Y-24923390D01*
X72361428Y-24923390D02*
X72170952Y-24923390D01*
X72170952Y-24923390D02*
X72075714Y-24971009D01*
X72075714Y-24971009D02*
X72028095Y-25018628D01*
X72028095Y-25018628D02*
X71980476Y-25113866D01*
X71980476Y-25113866D02*
X71980476Y-25304342D01*
X71980476Y-25304342D02*
X72028095Y-25399580D01*
X72028095Y-25399580D02*
X72075714Y-25447200D01*
X72075714Y-25447200D02*
X72170952Y-25494819D01*
X72170952Y-25494819D02*
X72361428Y-25494819D01*
X72361428Y-25494819D02*
X72456666Y-25447200D01*
X72456666Y-25447200D02*
X72504285Y-25399580D01*
X72504285Y-25399580D02*
X72551904Y-25304342D01*
X72551904Y-25304342D02*
X72551904Y-25113866D01*
X72551904Y-25113866D02*
X72504285Y-25018628D01*
X72504285Y-25018628D02*
X72456666Y-24971009D01*
X72456666Y-24971009D02*
X72361428Y-24923390D01*
X138358333Y-79509580D02*
X138310714Y-79557200D01*
X138310714Y-79557200D02*
X138167857Y-79604819D01*
X138167857Y-79604819D02*
X138072619Y-79604819D01*
X138072619Y-79604819D02*
X137929762Y-79557200D01*
X137929762Y-79557200D02*
X137834524Y-79461961D01*
X137834524Y-79461961D02*
X137786905Y-79366723D01*
X137786905Y-79366723D02*
X137739286Y-79176247D01*
X137739286Y-79176247D02*
X137739286Y-79033390D01*
X137739286Y-79033390D02*
X137786905Y-78842914D01*
X137786905Y-78842914D02*
X137834524Y-78747676D01*
X137834524Y-78747676D02*
X137929762Y-78652438D01*
X137929762Y-78652438D02*
X138072619Y-78604819D01*
X138072619Y-78604819D02*
X138167857Y-78604819D01*
X138167857Y-78604819D02*
X138310714Y-78652438D01*
X138310714Y-78652438D02*
X138358333Y-78700057D01*
X139263095Y-78604819D02*
X138786905Y-78604819D01*
X138786905Y-78604819D02*
X138739286Y-79081009D01*
X138739286Y-79081009D02*
X138786905Y-79033390D01*
X138786905Y-79033390D02*
X138882143Y-78985771D01*
X138882143Y-78985771D02*
X139120238Y-78985771D01*
X139120238Y-78985771D02*
X139215476Y-79033390D01*
X139215476Y-79033390D02*
X139263095Y-79081009D01*
X139263095Y-79081009D02*
X139310714Y-79176247D01*
X139310714Y-79176247D02*
X139310714Y-79414342D01*
X139310714Y-79414342D02*
X139263095Y-79509580D01*
X139263095Y-79509580D02*
X139215476Y-79557200D01*
X139215476Y-79557200D02*
X139120238Y-79604819D01*
X139120238Y-79604819D02*
X138882143Y-79604819D01*
X138882143Y-79604819D02*
X138786905Y-79557200D01*
X138786905Y-79557200D02*
X138739286Y-79509580D01*
X65513333Y-25494819D02*
X65180000Y-25018628D01*
X64941905Y-25494819D02*
X64941905Y-24494819D01*
X64941905Y-24494819D02*
X65322857Y-24494819D01*
X65322857Y-24494819D02*
X65418095Y-24542438D01*
X65418095Y-24542438D02*
X65465714Y-24590057D01*
X65465714Y-24590057D02*
X65513333Y-24685295D01*
X65513333Y-24685295D02*
X65513333Y-24828152D01*
X65513333Y-24828152D02*
X65465714Y-24923390D01*
X65465714Y-24923390D02*
X65418095Y-24971009D01*
X65418095Y-24971009D02*
X65322857Y-25018628D01*
X65322857Y-25018628D02*
X64941905Y-25018628D01*
X65989524Y-25494819D02*
X66180000Y-25494819D01*
X66180000Y-25494819D02*
X66275238Y-25447200D01*
X66275238Y-25447200D02*
X66322857Y-25399580D01*
X66322857Y-25399580D02*
X66418095Y-25256723D01*
X66418095Y-25256723D02*
X66465714Y-25066247D01*
X66465714Y-25066247D02*
X66465714Y-24685295D01*
X66465714Y-24685295D02*
X66418095Y-24590057D01*
X66418095Y-24590057D02*
X66370476Y-24542438D01*
X66370476Y-24542438D02*
X66275238Y-24494819D01*
X66275238Y-24494819D02*
X66084762Y-24494819D01*
X66084762Y-24494819D02*
X65989524Y-24542438D01*
X65989524Y-24542438D02*
X65941905Y-24590057D01*
X65941905Y-24590057D02*
X65894286Y-24685295D01*
X65894286Y-24685295D02*
X65894286Y-24923390D01*
X65894286Y-24923390D02*
X65941905Y-25018628D01*
X65941905Y-25018628D02*
X65989524Y-25066247D01*
X65989524Y-25066247D02*
X66084762Y-25113866D01*
X66084762Y-25113866D02*
X66275238Y-25113866D01*
X66275238Y-25113866D02*
X66370476Y-25066247D01*
X66370476Y-25066247D02*
X66418095Y-25018628D01*
X66418095Y-25018628D02*
X66465714Y-24923390D01*
X51107142Y-66559580D02*
X51059523Y-66607200D01*
X51059523Y-66607200D02*
X50916666Y-66654819D01*
X50916666Y-66654819D02*
X50821428Y-66654819D01*
X50821428Y-66654819D02*
X50678571Y-66607200D01*
X50678571Y-66607200D02*
X50583333Y-66511961D01*
X50583333Y-66511961D02*
X50535714Y-66416723D01*
X50535714Y-66416723D02*
X50488095Y-66226247D01*
X50488095Y-66226247D02*
X50488095Y-66083390D01*
X50488095Y-66083390D02*
X50535714Y-65892914D01*
X50535714Y-65892914D02*
X50583333Y-65797676D01*
X50583333Y-65797676D02*
X50678571Y-65702438D01*
X50678571Y-65702438D02*
X50821428Y-65654819D01*
X50821428Y-65654819D02*
X50916666Y-65654819D01*
X50916666Y-65654819D02*
X51059523Y-65702438D01*
X51059523Y-65702438D02*
X51107142Y-65750057D01*
X52059523Y-66654819D02*
X51488095Y-66654819D01*
X51773809Y-66654819D02*
X51773809Y-65654819D01*
X51773809Y-65654819D02*
X51678571Y-65797676D01*
X51678571Y-65797676D02*
X51583333Y-65892914D01*
X51583333Y-65892914D02*
X51488095Y-65940533D01*
X52535714Y-66654819D02*
X52726190Y-66654819D01*
X52726190Y-66654819D02*
X52821428Y-66607200D01*
X52821428Y-66607200D02*
X52869047Y-66559580D01*
X52869047Y-66559580D02*
X52964285Y-66416723D01*
X52964285Y-66416723D02*
X53011904Y-66226247D01*
X53011904Y-66226247D02*
X53011904Y-65845295D01*
X53011904Y-65845295D02*
X52964285Y-65750057D01*
X52964285Y-65750057D02*
X52916666Y-65702438D01*
X52916666Y-65702438D02*
X52821428Y-65654819D01*
X52821428Y-65654819D02*
X52630952Y-65654819D01*
X52630952Y-65654819D02*
X52535714Y-65702438D01*
X52535714Y-65702438D02*
X52488095Y-65750057D01*
X52488095Y-65750057D02*
X52440476Y-65845295D01*
X52440476Y-65845295D02*
X52440476Y-66083390D01*
X52440476Y-66083390D02*
X52488095Y-66178628D01*
X52488095Y-66178628D02*
X52535714Y-66226247D01*
X52535714Y-66226247D02*
X52630952Y-66273866D01*
X52630952Y-66273866D02*
X52821428Y-66273866D01*
X52821428Y-66273866D02*
X52916666Y-66226247D01*
X52916666Y-66226247D02*
X52964285Y-66178628D01*
X52964285Y-66178628D02*
X53011904Y-66083390D01*
X65037142Y-35364819D02*
X64703809Y-34888628D01*
X64465714Y-35364819D02*
X64465714Y-34364819D01*
X64465714Y-34364819D02*
X64846666Y-34364819D01*
X64846666Y-34364819D02*
X64941904Y-34412438D01*
X64941904Y-34412438D02*
X64989523Y-34460057D01*
X64989523Y-34460057D02*
X65037142Y-34555295D01*
X65037142Y-34555295D02*
X65037142Y-34698152D01*
X65037142Y-34698152D02*
X64989523Y-34793390D01*
X64989523Y-34793390D02*
X64941904Y-34841009D01*
X64941904Y-34841009D02*
X64846666Y-34888628D01*
X64846666Y-34888628D02*
X64465714Y-34888628D01*
X65989523Y-35364819D02*
X65418095Y-35364819D01*
X65703809Y-35364819D02*
X65703809Y-34364819D01*
X65703809Y-34364819D02*
X65608571Y-34507676D01*
X65608571Y-34507676D02*
X65513333Y-34602914D01*
X65513333Y-34602914D02*
X65418095Y-34650533D01*
X66322857Y-34364819D02*
X66941904Y-34364819D01*
X66941904Y-34364819D02*
X66608571Y-34745771D01*
X66608571Y-34745771D02*
X66751428Y-34745771D01*
X66751428Y-34745771D02*
X66846666Y-34793390D01*
X66846666Y-34793390D02*
X66894285Y-34841009D01*
X66894285Y-34841009D02*
X66941904Y-34936247D01*
X66941904Y-34936247D02*
X66941904Y-35174342D01*
X66941904Y-35174342D02*
X66894285Y-35269580D01*
X66894285Y-35269580D02*
X66846666Y-35317200D01*
X66846666Y-35317200D02*
X66751428Y-35364819D01*
X66751428Y-35364819D02*
X66465714Y-35364819D01*
X66465714Y-35364819D02*
X66370476Y-35317200D01*
X66370476Y-35317200D02*
X66322857Y-35269580D01*
X59903333Y-41944819D02*
X59570000Y-41468628D01*
X59331905Y-41944819D02*
X59331905Y-40944819D01*
X59331905Y-40944819D02*
X59712857Y-40944819D01*
X59712857Y-40944819D02*
X59808095Y-40992438D01*
X59808095Y-40992438D02*
X59855714Y-41040057D01*
X59855714Y-41040057D02*
X59903333Y-41135295D01*
X59903333Y-41135295D02*
X59903333Y-41278152D01*
X59903333Y-41278152D02*
X59855714Y-41373390D01*
X59855714Y-41373390D02*
X59808095Y-41421009D01*
X59808095Y-41421009D02*
X59712857Y-41468628D01*
X59712857Y-41468628D02*
X59331905Y-41468628D01*
X60236667Y-40944819D02*
X60903333Y-40944819D01*
X60903333Y-40944819D02*
X60474762Y-41944819D01*
X51107142Y-59859580D02*
X51059523Y-59907200D01*
X51059523Y-59907200D02*
X50916666Y-59954819D01*
X50916666Y-59954819D02*
X50821428Y-59954819D01*
X50821428Y-59954819D02*
X50678571Y-59907200D01*
X50678571Y-59907200D02*
X50583333Y-59811961D01*
X50583333Y-59811961D02*
X50535714Y-59716723D01*
X50535714Y-59716723D02*
X50488095Y-59526247D01*
X50488095Y-59526247D02*
X50488095Y-59383390D01*
X50488095Y-59383390D02*
X50535714Y-59192914D01*
X50535714Y-59192914D02*
X50583333Y-59097676D01*
X50583333Y-59097676D02*
X50678571Y-59002438D01*
X50678571Y-59002438D02*
X50821428Y-58954819D01*
X50821428Y-58954819D02*
X50916666Y-58954819D01*
X50916666Y-58954819D02*
X51059523Y-59002438D01*
X51059523Y-59002438D02*
X51107142Y-59050057D01*
X52059523Y-59954819D02*
X51488095Y-59954819D01*
X51773809Y-59954819D02*
X51773809Y-58954819D01*
X51773809Y-58954819D02*
X51678571Y-59097676D01*
X51678571Y-59097676D02*
X51583333Y-59192914D01*
X51583333Y-59192914D02*
X51488095Y-59240533D01*
X52392857Y-58954819D02*
X53059523Y-58954819D01*
X53059523Y-58954819D02*
X52630952Y-59954819D01*
D12*
%TO.C,R19*%
X70562936Y-29240000D02*
X72017064Y-29240000D01*
X70562936Y-31060000D02*
X72017064Y-31060000D01*
%TO.C,U1*%
X183762500Y-139590000D02*
X182962500Y-139590000D01*
X183762500Y-139590000D02*
X184562500Y-139590000D01*
X183762500Y-142710000D02*
X182962500Y-142710000D01*
X183762500Y-142710000D02*
X184562500Y-142710000D01*
X182462500Y-139640000D02*
X182222500Y-139310000D01*
X182702500Y-139310000D01*
X182462500Y-139640000D01*
G36*
X182462500Y-139640000D02*
G01*
X182222500Y-139310000D01*
X182702500Y-139310000D01*
X182462500Y-139640000D01*
G37*
%TO.C,C3*%
X39738748Y-60440000D02*
X41161252Y-60440000D01*
X39738748Y-62260000D02*
X41161252Y-62260000D01*
%TO.C,C9*%
X161090000Y-138354437D02*
X161090000Y-144110000D01*
X161090000Y-144110000D02*
X163440000Y-144110000D01*
X162154437Y-137290000D02*
X161090000Y-138354437D01*
X162154437Y-137290000D02*
X163440000Y-137290000D01*
X166347500Y-136262500D02*
X166347500Y-137050000D01*
X166741250Y-136656250D02*
X165953750Y-136656250D01*
X166845563Y-137290000D02*
X165560000Y-137290000D01*
X166845563Y-137290000D02*
X167910000Y-138354437D01*
X167910000Y-138354437D02*
X167910000Y-144110000D01*
X167910000Y-144110000D02*
X165560000Y-144110000D01*
%TO.C,R11*%
X177775000Y-123170000D02*
X177775000Y-128240000D01*
X177775000Y-123170000D02*
X187545000Y-123170000D01*
X177775000Y-128240000D02*
X187545000Y-128240000D01*
X187545000Y-123170000D02*
X187545000Y-128240000D01*
%TO.C,R8*%
X64952936Y-22660000D02*
X66407064Y-22660000D01*
X64952936Y-24480000D02*
X66407064Y-24480000D01*
%TO.C,C8*%
X45388748Y-57090000D02*
X46811252Y-57090000D01*
X45388748Y-58910000D02*
X46811252Y-58910000D01*
%TO.C,C14*%
X45388748Y-70490000D02*
X46811252Y-70490000D01*
X45388748Y-72310000D02*
X46811252Y-72310000D01*
%TO.C,Q2*%
X116780000Y-110040000D02*
X119360000Y-110040000D01*
X119360000Y-111020000D02*
X119360000Y-110040000D01*
X119360000Y-113780000D02*
X119360000Y-114760000D01*
X119360000Y-114760000D02*
X116640000Y-114760000D01*
X116230000Y-110190000D02*
X115990000Y-109860000D01*
X116470000Y-109860000D01*
X116230000Y-110190000D01*
G36*
X116230000Y-110190000D02*
G01*
X115990000Y-109860000D01*
X116470000Y-109860000D01*
X116230000Y-110190000D01*
G37*
%TO.C,R6*%
X59342936Y-39110000D02*
X60797064Y-39110000D01*
X59342936Y-40930000D02*
X60797064Y-40930000D01*
%TO.C,C6*%
X141736252Y-97590000D02*
X140313748Y-97590000D01*
X141736252Y-99410000D02*
X140313748Y-99410000D01*
%TO.C,D1*%
X142150000Y-145710000D02*
X142150000Y-137200000D01*
X148650000Y-145710000D02*
X142150000Y-145710000D01*
X148650000Y-145710000D02*
X148650000Y-137200000D01*
D13*
%TO.C,F1*%
X119195000Y-136435000D02*
X119195000Y-143165000D01*
X121250000Y-136435000D02*
X119195000Y-136435000D01*
X121250000Y-143165000D02*
X119195000Y-143165000D01*
X123500000Y-136435000D02*
X134700000Y-136435000D01*
X134700000Y-143165000D02*
X123500000Y-143165000D01*
X136950000Y-136435000D02*
X139005000Y-136435000D01*
X136950000Y-143165000D02*
X139005000Y-143165000D01*
X139005000Y-136435000D02*
X139005000Y-143165000D01*
D12*
%TO.C,C7*%
X45388748Y-53740000D02*
X46811252Y-53740000D01*
X45388748Y-55560000D02*
X46811252Y-55560000D01*
%TO.C,C4*%
X39738748Y-63790000D02*
X41161252Y-63790000D01*
X39738748Y-65610000D02*
X41161252Y-65610000D01*
%TO.C,C10*%
X151890000Y-138354437D02*
X151890000Y-144110000D01*
X151890000Y-144110000D02*
X154240000Y-144110000D01*
X152954437Y-137290000D02*
X151890000Y-138354437D01*
X152954437Y-137290000D02*
X154240000Y-137290000D01*
X157147500Y-136262500D02*
X157147500Y-137050000D01*
X157541250Y-136656250D02*
X156753750Y-136656250D01*
X157645563Y-137290000D02*
X156360000Y-137290000D01*
X157645563Y-137290000D02*
X158710000Y-138354437D01*
X158710000Y-138354437D02*
X158710000Y-144110000D01*
X158710000Y-144110000D02*
X156360000Y-144110000D01*
%TO.C,R12*%
X64952936Y-32530000D02*
X66407064Y-32530000D01*
X64952936Y-34350000D02*
X66407064Y-34350000D01*
%TO.C,C15*%
X51038748Y-53740000D02*
X52461252Y-53740000D01*
X51038748Y-55560000D02*
X52461252Y-55560000D01*
%TO.C,R17*%
X177775000Y-130670000D02*
X177775000Y-135740000D01*
X177775000Y-130670000D02*
X187545000Y-130670000D01*
X177775000Y-135740000D02*
X187545000Y-135740000D01*
X187545000Y-130670000D02*
X187545000Y-135740000D01*
%TO.C,R15*%
X64952936Y-42400000D02*
X66407064Y-42400000D01*
X64952936Y-44220000D02*
X66407064Y-44220000D01*
D13*
%TO.C,E1*%
X163475000Y-114720000D02*
X163475000Y-110660000D01*
X166525000Y-114720000D02*
X166525000Y-110660000D01*
D12*
%TO.C,C11*%
X45388748Y-60440000D02*
X46811252Y-60440000D01*
X45388748Y-62260000D02*
X46811252Y-62260000D01*
%TO.C,R4*%
X59342936Y-32530000D02*
X60797064Y-32530000D01*
X59342936Y-34350000D02*
X60797064Y-34350000D01*
%TO.C,R3*%
X59342936Y-29240000D02*
X60797064Y-29240000D01*
X59342936Y-31060000D02*
X60797064Y-31060000D01*
%TO.C,R10*%
X64952936Y-29240000D02*
X66407064Y-29240000D01*
X64952936Y-31060000D02*
X66407064Y-31060000D01*
%TO.C,L1*%
X119840000Y-121602064D02*
X119840000Y-120397936D01*
X122560000Y-121602064D02*
X122560000Y-120397936D01*
%TO.C,C13*%
X45388748Y-67140000D02*
X46811252Y-67140000D01*
X45388748Y-68960000D02*
X46811252Y-68960000D01*
%TO.C,C16*%
X51038748Y-57090000D02*
X52461252Y-57090000D01*
X51038748Y-58910000D02*
X52461252Y-58910000D01*
D11*
%TO.C,J1*%
X191335000Y-67065000D02*
X191335000Y-64615000D01*
X193360000Y-69165000D02*
X195910000Y-69165000D01*
X193510000Y-62490000D02*
X195835000Y-62490000D01*
X198060000Y-64690000D02*
X198060000Y-66865000D01*
D12*
%TO.C,R1*%
X143210436Y-75890000D02*
X144664564Y-75890000D01*
X143210436Y-77710000D02*
X144664564Y-77710000D01*
%TO.C,C2*%
X39738748Y-57090000D02*
X41161252Y-57090000D01*
X39738748Y-58910000D02*
X41161252Y-58910000D01*
%TO.C,R14*%
X64952936Y-39110000D02*
X66407064Y-39110000D01*
X64952936Y-40930000D02*
X66407064Y-40930000D01*
D13*
%TO.C,E2*%
X134275000Y-132020000D02*
X134275000Y-127960000D01*
X137325000Y-132020000D02*
X137325000Y-127960000D01*
D12*
%TO.C,J5*%
X104540000Y-134540000D02*
X114860000Y-134540000D01*
X104540000Y-144660000D02*
X104540000Y-134540000D01*
X104540000Y-144660000D02*
X114860000Y-144660000D01*
X113200000Y-144660000D02*
X113200000Y-134540000D01*
X114300000Y-144660000D02*
X114300000Y-134540000D01*
X114360000Y-144900000D02*
X115100000Y-144900000D01*
X114860000Y-144660000D02*
X114860000Y-134540000D01*
X115100000Y-144900000D02*
X115100000Y-144400000D01*
X107967891Y-142707742D02*
G75*
G02*
X107968000Y-141492000I1432109J607742D01*
G01*
X108792258Y-140667891D02*
G75*
G02*
X110008000Y-140668000I607743J-1432112D01*
G01*
X110007742Y-143532109D02*
G75*
G02*
X108792000Y-143532000I-607742J1432109D01*
G01*
X110831385Y-141492413D02*
G75*
G02*
X110955000Y-142100000I-1431385J-607587D01*
G01*
X110955493Y-142072989D02*
G75*
G02*
X110832000Y-142708000I-1555481J-27013D01*
G01*
X110955000Y-137100000D02*
G75*
G02*
X107845000Y-137100000I-1555000J0D01*
G01*
X107845000Y-137100000D02*
G75*
G02*
X110955000Y-137100000I1555000J0D01*
G01*
D11*
%TO.C,J2*%
X104835000Y-108365000D02*
X104835000Y-105915000D01*
X106860000Y-110465000D02*
X109410000Y-110465000D01*
X107010000Y-103790000D02*
X109335000Y-103790000D01*
X111560000Y-105990000D02*
X111560000Y-108165000D01*
%TO.C,J3*%
X104800000Y-120700000D02*
X104800000Y-121200000D01*
X104800000Y-120700000D02*
X105300000Y-120700000D01*
X104800000Y-128900000D02*
X104800000Y-128400000D01*
X104800000Y-128900000D02*
X105300000Y-128900000D01*
X110800000Y-120700000D02*
X110300000Y-120700000D01*
X110800000Y-120700000D02*
X110800000Y-121200000D01*
X110800000Y-128900000D02*
X110300000Y-128900000D01*
X110800000Y-128900000D02*
X110800000Y-128400000D01*
D13*
%TO.C,E5*%
X155180000Y-129675000D02*
X159240000Y-129675000D01*
X155180000Y-132725000D02*
X159240000Y-132725000D01*
D12*
%TO.C,R20*%
X70562936Y-32530000D02*
X72017064Y-32530000D01*
X70562936Y-34350000D02*
X72017064Y-34350000D01*
%TO.C,C18*%
X51038748Y-63790000D02*
X52461252Y-63790000D01*
X51038748Y-65610000D02*
X52461252Y-65610000D01*
D13*
%TO.C,E4*%
X173280000Y-140675000D02*
X177340000Y-140675000D01*
X173280000Y-143725000D02*
X177340000Y-143725000D01*
%TO.C,E3*%
X163475000Y-123520000D02*
X163475000Y-119460000D01*
X166525000Y-123520000D02*
X166525000Y-119460000D01*
D12*
%TO.C,R5*%
X59342936Y-35820000D02*
X60797064Y-35820000D01*
X59342936Y-37640000D02*
X60797064Y-37640000D01*
%TO.C,Q5*%
X128062500Y-125740000D02*
X127412500Y-125740000D01*
X128062500Y-125740000D02*
X128712500Y-125740000D01*
X128062500Y-128860000D02*
X127412500Y-128860000D01*
X128062500Y-128860000D02*
X128712500Y-128860000D01*
X126900000Y-125790000D02*
X126660000Y-125460000D01*
X127140000Y-125460000D01*
X126900000Y-125790000D01*
G36*
X126900000Y-125790000D02*
G01*
X126660000Y-125460000D01*
X127140000Y-125460000D01*
X126900000Y-125790000D01*
G37*
%TO.C,Q4*%
X125100000Y-108890000D02*
X128860000Y-108890000D01*
X125100000Y-115710000D02*
X128860000Y-115710000D01*
X128860000Y-108890000D02*
X128860000Y-110150000D01*
X128860000Y-115710000D02*
X128860000Y-114450000D01*
X123820000Y-108990000D02*
X123580000Y-108660000D01*
X124060000Y-108660000D01*
X123820000Y-108990000D01*
G36*
X123820000Y-108990000D02*
G01*
X123580000Y-108660000D01*
X124060000Y-108660000D01*
X123820000Y-108990000D01*
G37*
%TO.C,R16*%
X70562936Y-22660000D02*
X72017064Y-22660000D01*
X70562936Y-24480000D02*
X72017064Y-24480000D01*
%TO.C,Q6*%
X145162500Y-128240000D02*
X144512500Y-128240000D01*
X145162500Y-128240000D02*
X145812500Y-128240000D01*
X145162500Y-131360000D02*
X144512500Y-131360000D01*
X145162500Y-131360000D02*
X145812500Y-131360000D01*
X144000000Y-128290000D02*
X143760000Y-127960000D01*
X144240000Y-127960000D01*
X144000000Y-128290000D01*
G36*
X144000000Y-128290000D02*
G01*
X143760000Y-127960000D01*
X144240000Y-127960000D01*
X144000000Y-128290000D01*
G37*
%TO.C,C12*%
X45388748Y-63790000D02*
X46811252Y-63790000D01*
X45388748Y-65610000D02*
X46811252Y-65610000D01*
%TO.C,R18*%
X70562936Y-25950000D02*
X72017064Y-25950000D01*
X70562936Y-27770000D02*
X72017064Y-27770000D01*
%TO.C,C5*%
X137813748Y-80090000D02*
X139236252Y-80090000D01*
X137813748Y-81910000D02*
X139236252Y-81910000D01*
%TO.C,R9*%
X64952936Y-25950000D02*
X66407064Y-25950000D01*
X64952936Y-27770000D02*
X66407064Y-27770000D01*
%TO.C,C19*%
X51038748Y-67140000D02*
X52461252Y-67140000D01*
X51038748Y-68960000D02*
X52461252Y-68960000D01*
%TO.C,R13*%
X64952936Y-35820000D02*
X66407064Y-35820000D01*
X64952936Y-37640000D02*
X66407064Y-37640000D01*
%TO.C,R7*%
X59342936Y-42400000D02*
X60797064Y-42400000D01*
X59342936Y-44220000D02*
X60797064Y-44220000D01*
%TO.C,C17*%
X51038748Y-60440000D02*
X52461252Y-60440000D01*
X51038748Y-62260000D02*
X52461252Y-62260000D01*
%TD*%
M02*
