M48
; DRILL file {KiCad 8.0.6} date 2024-12-01T17:41:10-0500
; FORMAT={-:-/ absolute / metric / decimal}
; #@! TF.CreationDate,2024-12-01T17:41:10-05:00
; #@! TF.GenerationSoftware,Kicad,Pcbnew,8.0.6
; #@! TF.FileFunction,Plated,1,2,PTH
FMAT,2
METRIC
; #@! TA.AperFunction,Plated,PTH,ViaDrill
T1C0.500
; #@! TA.AperFunction,Plated,PTH,ComponentDrill
T2C0.800
; #@! TA.AperFunction,Plated,PTH,ComponentDrill
T3C1.000
; #@! TA.AperFunction,Plated,PTH,ComponentDrill
T4C1.100
; #@! TA.AperFunction,Plated,PTH,ComponentDrill
T5C1.200
; #@! TA.AperFunction,Plated,PTH,ComponentDrill
T6C1.500
; #@! TA.AperFunction,Plated,PTH,ComponentDrill
T7C1.600
; #@! TA.AperFunction,Plated,PTH,ComponentDrill
T8C4.300
%
G90
G05
T1
X129.0Y-97.9
X131.0Y-106.5
X131.295Y-117.5
X132.795Y-120.7
X133.15Y-88.65
X133.2Y-82.1
X134.25Y-104.35
X135.7Y-88.65
X136.0Y-76.8
X138.4Y-119.3
X140.3Y-107.6
X141.25Y-97.3
X141.4Y-79.9
X141.75Y-100.7
X143.2Y-68.3
X143.3Y-120.95
X144.5Y-122.2
X144.8Y-112.0
X144.8Y-115.4
X145.1Y-79.3
X145.3Y-82.75
X146.6Y-125.2
X149.3Y-65.85
X149.35Y-100.3
X149.6Y-76.0
X149.6Y-101.95
X149.6Y-113.45
X150.0Y-123.4
X150.15Y-103.6
X150.8Y-99.7
X150.9Y-101.95
X151.3Y-78.3
X151.5Y-130.25
X151.7Y-84.85
X152.05Y-77.2
X152.05Y-79.4
X152.1Y-100.3
X152.15Y-133.2
X152.2Y-101.95
X152.45Y-94.75
X153.0Y-97.8
X153.2Y-56.0
X154.55Y-81.75
X154.65Y-83.7
X154.65Y-96.2
X156.15Y-137.3
X156.5Y-77.2
X156.5Y-78.491
X156.5Y-79.9
X156.5Y-81.7
X156.5Y-99.0
X156.5Y-100.4
X156.5Y-103.35
X157.0Y-84.95
X157.1Y-95.1
X157.8Y-98.8
X159.0Y-100.4
X159.0Y-101.6
X159.0Y-102.8
X160.0Y-56.1
X160.15Y-98.8
X160.15Y-133.2
X160.25Y-93.1
X160.7Y-85.45
X160.85Y-100.3
X160.85Y-103.3
X160.9Y-101.8
X160.95Y-77.2
X160.95Y-79.6
X161.5Y-78.4
X163.5Y-65.8
X163.5Y-123.2
X163.55Y-105.65
X163.55Y-113.55
X163.65Y-90.0
X163.75Y-134.1
X163.85Y-87.9
X163.9Y-130.4
X164.15Y-92.0
X164.5Y-98.8
X164.8Y-90.0
X166.0Y-90.0
X168.2Y-129.8
X169.4Y-90.7
X169.4Y-98.0
X169.4Y-105.6
X169.4Y-118.3
X169.7Y-112.9
X170.2Y-134.8
X174.6Y-134.8
X192.3Y-76.7
X193.7Y-82.2
X194.3Y-97.0
X194.7Y-83.2
X196.2Y-76.7
X196.2Y-79.7
X196.9Y-85.3
X196.9Y-99.9
X197.0Y-94.2
X197.2Y-80.7
T2
X132.7Y-100.47
X132.7Y-103.01
X132.7Y-105.55
X134.45Y-72.82
X134.45Y-75.36
X134.45Y-77.9
T3
X127.2Y-87.0
X127.2Y-93.0
X143.2Y-87.0
X143.2Y-90.0
X143.2Y-93.0
X151.0Y-87.0
X151.0Y-90.0
X151.0Y-93.0
X159.0Y-83.0
X159.0Y-97.0
X197.0Y-83.0
X197.0Y-97.0
T4
X119.995Y-117.5
X119.995Y-120.0
T5
X122.3Y-127.8
X122.3Y-132.8
T6
X120.59Y-86.965
X194.29Y-70.0
T7
X117.95Y-84.5
X117.95Y-89.58
X123.03Y-84.5
X123.03Y-89.58
X191.65Y-67.535
X191.65Y-72.615
X196.73Y-67.535
X196.73Y-72.615
T8
X120.0Y-59.0
X120.0Y-142.0
X195.0Y-59.0
X195.0Y-142.0
M30
