G04 #@! TF.GenerationSoftware,KiCad,Pcbnew,9.0.1*
G04 #@! TF.CreationDate,2025-04-20T18:42:32-04:00*
G04 #@! TF.ProjectId,t41_2_power_amplifier,7434315f-325f-4706-9f77-65725f616d70,rev?*
G04 #@! TF.SameCoordinates,Original*
G04 #@! TF.FileFunction,Legend,Bot*
G04 #@! TF.FilePolarity,Positive*
%FSLAX46Y46*%
G04 Gerber Fmt 4.6, Leading zero omitted, Abs format (unit mm)*
G04 Created by KiCad (PCBNEW 9.0.1) date 2025-04-20 18:42:32*
%MOMM*%
%LPD*%
G01*
G04 APERTURE LIST*
G04 Aperture macros list*
%AMRoundRect*
0 Rectangle with rounded corners*
0 $1 Rounding radius*
0 $2 $3 $4 $5 $6 $7 $8 $9 X,Y pos of 4 corners*
0 Add a 4 corners polygon primitive as box body*
4,1,4,$2,$3,$4,$5,$6,$7,$8,$9,$2,$3,0*
0 Add four circle primitives for the rounded corners*
1,1,$1+$1,$2,$3*
1,1,$1+$1,$4,$5*
1,1,$1+$1,$6,$7*
1,1,$1+$1,$8,$9*
0 Add four rect primitives between the rounded corners*
20,1,$1+$1,$2,$3,$4,$5,0*
20,1,$1+$1,$4,$5,$6,$7,0*
20,1,$1+$1,$6,$7,$8,$9,0*
20,1,$1+$1,$8,$9,$2,$3,0*%
G04 Aperture macros list end*
%ADD10C,0.150000*%
%ADD11C,0.120000*%
%ADD12C,1.440000*%
%ADD13C,2.000000*%
%ADD14C,2.200000*%
%ADD15C,7.500000*%
%ADD16C,2.600000*%
%ADD17C,2.500000*%
%ADD18R,2.400000X2.400000*%
%ADD19C,2.400000*%
%ADD20C,2.100000*%
%ADD21RoundRect,0.250000X-0.650000X0.325000X-0.650000X-0.325000X0.650000X-0.325000X0.650000X0.325000X0*%
%ADD22RoundRect,0.250000X0.650000X-0.325000X0.650000X0.325000X-0.650000X0.325000X-0.650000X-0.325000X0*%
%ADD23RoundRect,0.250000X-0.325000X-0.650000X0.325000X-0.650000X0.325000X0.650000X-0.325000X0.650000X0*%
G04 APERTURE END LIST*
D10*
X153109580Y-92808333D02*
X153157200Y-92760714D01*
X153157200Y-92760714D02*
X153204819Y-92617857D01*
X153204819Y-92617857D02*
X153204819Y-92522619D01*
X153204819Y-92522619D02*
X153157200Y-92379762D01*
X153157200Y-92379762D02*
X153061961Y-92284524D01*
X153061961Y-92284524D02*
X152966723Y-92236905D01*
X152966723Y-92236905D02*
X152776247Y-92189286D01*
X152776247Y-92189286D02*
X152633390Y-92189286D01*
X152633390Y-92189286D02*
X152442914Y-92236905D01*
X152442914Y-92236905D02*
X152347676Y-92284524D01*
X152347676Y-92284524D02*
X152252438Y-92379762D01*
X152252438Y-92379762D02*
X152204819Y-92522619D01*
X152204819Y-92522619D02*
X152204819Y-92617857D01*
X152204819Y-92617857D02*
X152252438Y-92760714D01*
X152252438Y-92760714D02*
X152300057Y-92808333D01*
X152538152Y-93665476D02*
X153204819Y-93665476D01*
X152157200Y-93427381D02*
X152871485Y-93189286D01*
X152871485Y-93189286D02*
X152871485Y-93808333D01*
X155904819Y-91332143D02*
X155904819Y-91427381D01*
X155904819Y-91427381D02*
X155952438Y-91522619D01*
X155952438Y-91522619D02*
X156000057Y-91570238D01*
X156000057Y-91570238D02*
X156095295Y-91617857D01*
X156095295Y-91617857D02*
X156285771Y-91665476D01*
X156285771Y-91665476D02*
X156523866Y-91665476D01*
X156523866Y-91665476D02*
X156714342Y-91617857D01*
X156714342Y-91617857D02*
X156809580Y-91570238D01*
X156809580Y-91570238D02*
X156857200Y-91522619D01*
X156857200Y-91522619D02*
X156904819Y-91427381D01*
X156904819Y-91427381D02*
X156904819Y-91332143D01*
X156904819Y-91332143D02*
X156857200Y-91236905D01*
X156857200Y-91236905D02*
X156809580Y-91189286D01*
X156809580Y-91189286D02*
X156714342Y-91141667D01*
X156714342Y-91141667D02*
X156523866Y-91094048D01*
X156523866Y-91094048D02*
X156285771Y-91094048D01*
X156285771Y-91094048D02*
X156095295Y-91141667D01*
X156095295Y-91141667D02*
X156000057Y-91189286D01*
X156000057Y-91189286D02*
X155952438Y-91236905D01*
X155952438Y-91236905D02*
X155904819Y-91332143D01*
X156809580Y-92094048D02*
X156857200Y-92141667D01*
X156857200Y-92141667D02*
X156904819Y-92094048D01*
X156904819Y-92094048D02*
X156857200Y-92046429D01*
X156857200Y-92046429D02*
X156809580Y-92094048D01*
X156809580Y-92094048D02*
X156904819Y-92094048D01*
X156904819Y-93094047D02*
X156904819Y-92522619D01*
X156904819Y-92808333D02*
X155904819Y-92808333D01*
X155904819Y-92808333D02*
X156047676Y-92713095D01*
X156047676Y-92713095D02*
X156142914Y-92617857D01*
X156142914Y-92617857D02*
X156190533Y-92522619D01*
X156238152Y-93951190D02*
X156904819Y-93951190D01*
X156238152Y-93522619D02*
X156761961Y-93522619D01*
X156761961Y-93522619D02*
X156857200Y-93570238D01*
X156857200Y-93570238D02*
X156904819Y-93665476D01*
X156904819Y-93665476D02*
X156904819Y-93808333D01*
X156904819Y-93808333D02*
X156857200Y-93903571D01*
X156857200Y-93903571D02*
X156809580Y-93951190D01*
X156381009Y-94760714D02*
X156381009Y-94427381D01*
X156904819Y-94427381D02*
X155904819Y-94427381D01*
X155904819Y-94427381D02*
X155904819Y-94903571D01*
X156859580Y-86858333D02*
X156907200Y-86810714D01*
X156907200Y-86810714D02*
X156954819Y-86667857D01*
X156954819Y-86667857D02*
X156954819Y-86572619D01*
X156954819Y-86572619D02*
X156907200Y-86429762D01*
X156907200Y-86429762D02*
X156811961Y-86334524D01*
X156811961Y-86334524D02*
X156716723Y-86286905D01*
X156716723Y-86286905D02*
X156526247Y-86239286D01*
X156526247Y-86239286D02*
X156383390Y-86239286D01*
X156383390Y-86239286D02*
X156192914Y-86286905D01*
X156192914Y-86286905D02*
X156097676Y-86334524D01*
X156097676Y-86334524D02*
X156002438Y-86429762D01*
X156002438Y-86429762D02*
X155954819Y-86572619D01*
X155954819Y-86572619D02*
X155954819Y-86667857D01*
X155954819Y-86667857D02*
X156002438Y-86810714D01*
X156002438Y-86810714D02*
X156050057Y-86858333D01*
X156954819Y-87810714D02*
X156954819Y-87239286D01*
X156954819Y-87525000D02*
X155954819Y-87525000D01*
X155954819Y-87525000D02*
X156097676Y-87429762D01*
X156097676Y-87429762D02*
X156192914Y-87334524D01*
X156192914Y-87334524D02*
X156240533Y-87239286D01*
X152254819Y-85382143D02*
X152254819Y-85477381D01*
X152254819Y-85477381D02*
X152302438Y-85572619D01*
X152302438Y-85572619D02*
X152350057Y-85620238D01*
X152350057Y-85620238D02*
X152445295Y-85667857D01*
X152445295Y-85667857D02*
X152635771Y-85715476D01*
X152635771Y-85715476D02*
X152873866Y-85715476D01*
X152873866Y-85715476D02*
X153064342Y-85667857D01*
X153064342Y-85667857D02*
X153159580Y-85620238D01*
X153159580Y-85620238D02*
X153207200Y-85572619D01*
X153207200Y-85572619D02*
X153254819Y-85477381D01*
X153254819Y-85477381D02*
X153254819Y-85382143D01*
X153254819Y-85382143D02*
X153207200Y-85286905D01*
X153207200Y-85286905D02*
X153159580Y-85239286D01*
X153159580Y-85239286D02*
X153064342Y-85191667D01*
X153064342Y-85191667D02*
X152873866Y-85144048D01*
X152873866Y-85144048D02*
X152635771Y-85144048D01*
X152635771Y-85144048D02*
X152445295Y-85191667D01*
X152445295Y-85191667D02*
X152350057Y-85239286D01*
X152350057Y-85239286D02*
X152302438Y-85286905D01*
X152302438Y-85286905D02*
X152254819Y-85382143D01*
X153159580Y-86144048D02*
X153207200Y-86191667D01*
X153207200Y-86191667D02*
X153254819Y-86144048D01*
X153254819Y-86144048D02*
X153207200Y-86096429D01*
X153207200Y-86096429D02*
X153159580Y-86144048D01*
X153159580Y-86144048D02*
X153254819Y-86144048D01*
X153254819Y-87144047D02*
X153254819Y-86572619D01*
X153254819Y-86858333D02*
X152254819Y-86858333D01*
X152254819Y-86858333D02*
X152397676Y-86763095D01*
X152397676Y-86763095D02*
X152492914Y-86667857D01*
X152492914Y-86667857D02*
X152540533Y-86572619D01*
X152588152Y-88001190D02*
X153254819Y-88001190D01*
X152588152Y-87572619D02*
X153111961Y-87572619D01*
X153111961Y-87572619D02*
X153207200Y-87620238D01*
X153207200Y-87620238D02*
X153254819Y-87715476D01*
X153254819Y-87715476D02*
X153254819Y-87858333D01*
X153254819Y-87858333D02*
X153207200Y-87953571D01*
X153207200Y-87953571D02*
X153159580Y-88001190D01*
X152731009Y-88810714D02*
X152731009Y-88477381D01*
X153254819Y-88477381D02*
X152254819Y-88477381D01*
X152254819Y-88477381D02*
X152254819Y-88953571D01*
X167517857Y-87809580D02*
X167565476Y-87857200D01*
X167565476Y-87857200D02*
X167708333Y-87904819D01*
X167708333Y-87904819D02*
X167803571Y-87904819D01*
X167803571Y-87904819D02*
X167946428Y-87857200D01*
X167946428Y-87857200D02*
X168041666Y-87761961D01*
X168041666Y-87761961D02*
X168089285Y-87666723D01*
X168089285Y-87666723D02*
X168136904Y-87476247D01*
X168136904Y-87476247D02*
X168136904Y-87333390D01*
X168136904Y-87333390D02*
X168089285Y-87142914D01*
X168089285Y-87142914D02*
X168041666Y-87047676D01*
X168041666Y-87047676D02*
X167946428Y-86952438D01*
X167946428Y-86952438D02*
X167803571Y-86904819D01*
X167803571Y-86904819D02*
X167708333Y-86904819D01*
X167708333Y-86904819D02*
X167565476Y-86952438D01*
X167565476Y-86952438D02*
X167517857Y-87000057D01*
X166565476Y-87904819D02*
X167136904Y-87904819D01*
X166851190Y-87904819D02*
X166851190Y-86904819D01*
X166851190Y-86904819D02*
X166946428Y-87047676D01*
X166946428Y-87047676D02*
X167041666Y-87142914D01*
X167041666Y-87142914D02*
X167136904Y-87190533D01*
X165660714Y-86904819D02*
X166136904Y-86904819D01*
X166136904Y-86904819D02*
X166184523Y-87381009D01*
X166184523Y-87381009D02*
X166136904Y-87333390D01*
X166136904Y-87333390D02*
X166041666Y-87285771D01*
X166041666Y-87285771D02*
X165803571Y-87285771D01*
X165803571Y-87285771D02*
X165708333Y-87333390D01*
X165708333Y-87333390D02*
X165660714Y-87381009D01*
X165660714Y-87381009D02*
X165613095Y-87476247D01*
X165613095Y-87476247D02*
X165613095Y-87714342D01*
X165613095Y-87714342D02*
X165660714Y-87809580D01*
X165660714Y-87809580D02*
X165708333Y-87857200D01*
X165708333Y-87857200D02*
X165803571Y-87904819D01*
X165803571Y-87904819D02*
X166041666Y-87904819D01*
X166041666Y-87904819D02*
X166136904Y-87857200D01*
X166136904Y-87857200D02*
X166184523Y-87809580D01*
X167542857Y-96609580D02*
X167590476Y-96657200D01*
X167590476Y-96657200D02*
X167733333Y-96704819D01*
X167733333Y-96704819D02*
X167828571Y-96704819D01*
X167828571Y-96704819D02*
X167971428Y-96657200D01*
X167971428Y-96657200D02*
X168066666Y-96561961D01*
X168066666Y-96561961D02*
X168114285Y-96466723D01*
X168114285Y-96466723D02*
X168161904Y-96276247D01*
X168161904Y-96276247D02*
X168161904Y-96133390D01*
X168161904Y-96133390D02*
X168114285Y-95942914D01*
X168114285Y-95942914D02*
X168066666Y-95847676D01*
X168066666Y-95847676D02*
X167971428Y-95752438D01*
X167971428Y-95752438D02*
X167828571Y-95704819D01*
X167828571Y-95704819D02*
X167733333Y-95704819D01*
X167733333Y-95704819D02*
X167590476Y-95752438D01*
X167590476Y-95752438D02*
X167542857Y-95800057D01*
X166590476Y-96704819D02*
X167161904Y-96704819D01*
X166876190Y-96704819D02*
X166876190Y-95704819D01*
X166876190Y-95704819D02*
X166971428Y-95847676D01*
X166971428Y-95847676D02*
X167066666Y-95942914D01*
X167066666Y-95942914D02*
X167161904Y-95990533D01*
X165733333Y-95704819D02*
X165923809Y-95704819D01*
X165923809Y-95704819D02*
X166019047Y-95752438D01*
X166019047Y-95752438D02*
X166066666Y-95800057D01*
X166066666Y-95800057D02*
X166161904Y-95942914D01*
X166161904Y-95942914D02*
X166209523Y-96133390D01*
X166209523Y-96133390D02*
X166209523Y-96514342D01*
X166209523Y-96514342D02*
X166161904Y-96609580D01*
X166161904Y-96609580D02*
X166114285Y-96657200D01*
X166114285Y-96657200D02*
X166019047Y-96704819D01*
X166019047Y-96704819D02*
X165828571Y-96704819D01*
X165828571Y-96704819D02*
X165733333Y-96657200D01*
X165733333Y-96657200D02*
X165685714Y-96609580D01*
X165685714Y-96609580D02*
X165638095Y-96514342D01*
X165638095Y-96514342D02*
X165638095Y-96276247D01*
X165638095Y-96276247D02*
X165685714Y-96181009D01*
X165685714Y-96181009D02*
X165733333Y-96133390D01*
X165733333Y-96133390D02*
X165828571Y-96085771D01*
X165828571Y-96085771D02*
X166019047Y-96085771D01*
X166019047Y-96085771D02*
X166114285Y-96133390D01*
X166114285Y-96133390D02*
X166161904Y-96181009D01*
X166161904Y-96181009D02*
X166209523Y-96276247D01*
D11*
X153690000Y-93686252D02*
X153690000Y-92263748D01*
X155510000Y-93686252D02*
X155510000Y-92263748D01*
X153740000Y-86313748D02*
X153740000Y-87736252D01*
X155560000Y-86313748D02*
X155560000Y-87736252D01*
X166163748Y-84690000D02*
X167586252Y-84690000D01*
X166163748Y-86510000D02*
X167586252Y-86510000D01*
X166188748Y-93490000D02*
X167611252Y-93490000D01*
X166188748Y-95310000D02*
X167611252Y-95310000D01*
%LPC*%
D12*
X134450000Y-77900000D03*
X134450000Y-75360000D03*
X134450000Y-72820000D03*
D13*
X127200000Y-87000000D03*
X127200000Y-93000000D03*
X143200000Y-93000000D03*
D14*
X143200000Y-90000000D03*
D13*
X143200000Y-87000000D03*
D15*
X188000000Y-59000000D03*
D13*
X162700000Y-94400000D03*
X162700000Y-100400000D03*
X182700000Y-100400000D03*
X182700000Y-94400000D03*
D12*
X132700000Y-105550000D03*
X132700000Y-103010000D03*
X132700000Y-100470000D03*
D13*
X162700000Y-79600000D03*
X162700000Y-85600000D03*
X182700000Y-85600000D03*
X182700000Y-79600000D03*
D15*
X120000000Y-59000000D03*
X188000000Y-142000000D03*
D16*
X184460000Y-67460000D03*
X184460000Y-72540000D03*
X189540000Y-67460000D03*
X189540000Y-72540000D03*
D17*
X187100000Y-69925000D03*
D18*
X123600000Y-127800000D03*
D19*
X123600000Y-132800000D03*
D16*
X117950000Y-84500000D03*
X117950000Y-89580000D03*
X123030000Y-84500000D03*
X123030000Y-89580000D03*
D17*
X120590000Y-86965000D03*
D20*
X120900000Y-117500000D03*
X120900000Y-120000000D03*
D15*
X120000000Y-142000000D03*
D13*
X151000000Y-87000000D03*
D14*
X151000000Y-90000000D03*
D13*
X151000000Y-93000000D03*
D21*
X154600000Y-91500000D03*
X154600000Y-94450000D03*
D22*
X154650000Y-88500000D03*
X154650000Y-85550000D03*
D23*
X165400000Y-85600000D03*
X168350000Y-85600000D03*
X165425000Y-94400000D03*
X168375000Y-94400000D03*
%LPD*%
M02*
