G04 #@! TF.GenerationSoftware,KiCad,Pcbnew,9.0.2*
G04 #@! TF.CreationDate,2025-06-22T18:57:44-04:00*
G04 #@! TF.ProjectId,t41_2_power_amplifier,7434315f-325f-4706-9f77-65725f616d70,1.7*
G04 #@! TF.SameCoordinates,Original*
G04 #@! TF.FileFunction,Copper,L2,Bot*
G04 #@! TF.FilePolarity,Positive*
%FSLAX46Y46*%
G04 Gerber Fmt 4.6, Leading zero omitted, Abs format (unit mm)*
G04 Created by KiCad (PCBNEW 9.0.2) date 2025-06-22 18:57:44*
%MOMM*%
%LPD*%
G01*
G04 APERTURE LIST*
G04 Aperture macros list*
%AMRoundRect*
0 Rectangle with rounded corners*
0 $1 Rounding radius*
0 $2 $3 $4 $5 $6 $7 $8 $9 X,Y pos of 4 corners*
0 Add a 4 corners polygon primitive as box body*
4,1,4,$2,$3,$4,$5,$6,$7,$8,$9,$2,$3,0*
0 Add four circle primitives for the rounded corners*
1,1,$1+$1,$2,$3*
1,1,$1+$1,$4,$5*
1,1,$1+$1,$6,$7*
1,1,$1+$1,$8,$9*
0 Add four rect primitives between the rounded corners*
20,1,$1+$1,$2,$3,$4,$5,0*
20,1,$1+$1,$4,$5,$6,$7,0*
20,1,$1+$1,$6,$7,$8,$9,0*
20,1,$1+$1,$8,$9,$2,$3,0*%
G04 Aperture macros list end*
G04 #@! TA.AperFunction,ComponentPad*
%ADD10C,1.440000*%
G04 #@! TD*
G04 #@! TA.AperFunction,ComponentPad*
%ADD11C,2.000000*%
G04 #@! TD*
G04 #@! TA.AperFunction,ComponentPad*
%ADD12C,2.200000*%
G04 #@! TD*
G04 #@! TA.AperFunction,ComponentPad*
%ADD13C,1.905000*%
G04 #@! TD*
G04 #@! TA.AperFunction,ComponentPad*
%ADD14C,7.500000*%
G04 #@! TD*
G04 #@! TA.AperFunction,ComponentPad*
%ADD15C,2.100000*%
G04 #@! TD*
G04 #@! TA.AperFunction,ComponentPad*
%ADD16C,2.600000*%
G04 #@! TD*
G04 #@! TA.AperFunction,ComponentPad*
%ADD17C,2.500000*%
G04 #@! TD*
G04 #@! TA.AperFunction,ComponentPad*
%ADD18RoundRect,0.250001X-0.949999X0.949999X-0.949999X-0.949999X0.949999X-0.949999X0.949999X0.949999X0*%
G04 #@! TD*
G04 #@! TA.AperFunction,ComponentPad*
%ADD19C,2.400000*%
G04 #@! TD*
G04 #@! TA.AperFunction,SMDPad,CuDef*
%ADD20RoundRect,0.250000X-0.650000X0.325000X-0.650000X-0.325000X0.650000X-0.325000X0.650000X0.325000X0*%
G04 #@! TD*
G04 #@! TA.AperFunction,SMDPad,CuDef*
%ADD21RoundRect,0.250000X0.650000X-0.325000X0.650000X0.325000X-0.650000X0.325000X-0.650000X-0.325000X0*%
G04 #@! TD*
G04 #@! TA.AperFunction,ViaPad*
%ADD22C,1.000000*%
G04 #@! TD*
G04 #@! TA.AperFunction,Conductor*
%ADD23C,1.500000*%
G04 #@! TD*
G04 #@! TA.AperFunction,Conductor*
%ADD24C,1.000000*%
G04 #@! TD*
G04 #@! TA.AperFunction,Conductor*
%ADD25C,0.250000*%
G04 #@! TD*
G04 APERTURE END LIST*
D10*
X134450000Y-77900000D03*
X134450000Y-75360000D03*
X134450000Y-72820000D03*
D11*
X127200000Y-87000000D03*
X127200000Y-93000000D03*
X143200000Y-93000000D03*
D12*
X143200000Y-90000000D03*
D11*
X143200000Y-87000000D03*
D13*
X152500000Y-78621500D03*
X155000000Y-78621500D03*
X157500000Y-78621500D03*
D14*
X180000000Y-59000000D03*
D15*
X161300000Y-94400000D03*
X161300000Y-100400000D03*
D11*
X181300000Y-100400000D03*
X181300000Y-94400000D03*
D10*
X132700000Y-105550000D03*
X132700000Y-103010000D03*
X132700000Y-100470000D03*
D15*
X161300000Y-79600000D03*
X161300000Y-85600000D03*
D11*
X181300000Y-85600000D03*
X181300000Y-79600000D03*
D14*
X120500000Y-59000000D03*
X180000000Y-142000000D03*
D16*
X172200000Y-66000000D03*
X172200000Y-71080000D03*
X177280000Y-66000000D03*
X177280000Y-71080000D03*
D17*
X174840000Y-68465000D03*
D13*
X157500000Y-101837500D03*
X155000000Y-101837500D03*
X152500000Y-101837500D03*
D18*
X123600000Y-127800000D03*
D19*
X123600000Y-132800000D03*
D16*
X117950000Y-84500000D03*
X117950000Y-89580000D03*
X123030000Y-84500000D03*
X123030000Y-89580000D03*
D17*
X120590000Y-86965000D03*
D15*
X120900000Y-117500000D03*
X120900000Y-120000000D03*
D14*
X120500000Y-142000000D03*
X143000000Y-118000000D03*
D11*
X150000000Y-87000000D03*
D12*
X150000000Y-90000000D03*
D11*
X150000000Y-93000000D03*
D20*
X153500000Y-91500000D03*
X153500000Y-94450000D03*
D21*
X153500000Y-88500000D03*
X153500000Y-85550000D03*
D22*
X161700000Y-91900000D03*
X163700000Y-90000000D03*
X164600000Y-90000000D03*
X162700000Y-90000000D03*
X164600000Y-100800000D03*
X150500000Y-110300000D03*
X150500000Y-122700000D03*
X151400000Y-85100000D03*
X155300000Y-99800000D03*
X158500000Y-76700000D03*
X145100000Y-79300000D03*
X164500000Y-114000000D03*
X155000000Y-107200000D03*
X181900000Y-92100000D03*
X179700000Y-89900000D03*
X150700000Y-100500000D03*
X169000000Y-123300000D03*
X155800000Y-82300000D03*
X150000000Y-82950000D03*
X156000000Y-80400000D03*
X163750000Y-134100000D03*
X163200000Y-78100000D03*
X181300000Y-77300000D03*
X150500000Y-66700000D03*
X155000000Y-104000000D03*
X181300000Y-98000000D03*
X164500000Y-105300000D03*
X157700000Y-99800000D03*
X151800000Y-98100000D03*
X150500000Y-102600000D03*
X149800000Y-106600000D03*
X153600000Y-80300000D03*
X159500000Y-114000000D03*
X172900000Y-80200000D03*
X140800000Y-112500000D03*
X164100000Y-92500000D03*
X134250000Y-104350000D03*
X134300000Y-108500000D03*
X141400000Y-79900000D03*
X133150000Y-88650000D03*
X159600000Y-102200000D03*
X175200000Y-116300000D03*
X154800000Y-80700000D03*
X164600000Y-96600000D03*
X169100000Y-100800000D03*
X143200000Y-68300000D03*
X153500000Y-83700000D03*
X157700000Y-88100000D03*
X153700000Y-103600000D03*
X149600000Y-76000000D03*
X153500000Y-96300000D03*
X168800000Y-91300000D03*
X145200000Y-95700000D03*
X147600000Y-90000000D03*
X159500000Y-66700000D03*
X156150000Y-137300000D03*
X150800000Y-77400000D03*
X163000000Y-84100000D03*
X157200000Y-97700000D03*
X141600000Y-100800000D03*
X133200000Y-82100000D03*
X151500000Y-130250000D03*
X160150000Y-133200000D03*
X161300000Y-98200000D03*
X139400000Y-123700000D03*
X158600000Y-105900000D03*
X129600000Y-125200000D03*
X145000000Y-126700000D03*
X176700000Y-81500000D03*
X136900000Y-125400000D03*
X145200000Y-99900000D03*
X145500000Y-83000000D03*
X157700000Y-91900000D03*
X155000000Y-76500000D03*
X150500000Y-114000000D03*
X140300000Y-107600000D03*
X137300000Y-113700000D03*
X179200000Y-95100000D03*
X161700000Y-88100000D03*
X171750000Y-134100000D03*
X181300000Y-102800000D03*
X177400000Y-134900000D03*
X161300000Y-96600000D03*
X131400000Y-113400000D03*
X175700000Y-88400000D03*
X152150000Y-133200000D03*
X156300000Y-103600000D03*
X163900000Y-130400000D03*
X158400000Y-86000000D03*
X151300000Y-94800000D03*
X156300000Y-88100000D03*
X181300000Y-83300000D03*
X150300000Y-78600000D03*
X134500000Y-116600000D03*
X159600000Y-78200000D03*
X135700000Y-88650000D03*
X117000000Y-102500000D03*
X129000000Y-97900000D03*
X150500000Y-57500000D03*
X155500000Y-91900000D03*
X175200000Y-113200000D03*
X159500000Y-57500000D03*
X156500000Y-100100000D03*
X183600000Y-79600000D03*
X169100000Y-105300000D03*
X136000000Y-76800000D03*
X153750000Y-76900000D03*
X151800000Y-103900000D03*
X164800000Y-123700000D03*
X131000000Y-106500000D03*
X150100000Y-145000000D03*
X147100000Y-104000000D03*
X183600000Y-94400000D03*
X181300000Y-87900000D03*
X169100000Y-96600000D03*
X156250000Y-76900000D03*
X135900000Y-111100000D03*
X155500000Y-84300000D03*
X141250000Y-97300000D03*
X166700000Y-89000000D03*
X159600000Y-122700000D03*
X171200000Y-129700000D03*
X179900000Y-121400000D03*
X169000000Y-111500000D03*
X152200000Y-76500000D03*
X154100000Y-100100000D03*
X152000000Y-81500000D03*
X126100000Y-112200000D03*
X135700000Y-109400000D03*
X129100000Y-113400000D03*
X135925000Y-114825000D03*
D23*
X163650000Y-90000000D02*
X164800000Y-90000000D01*
D24*
X153500000Y-91500000D02*
X153500000Y-90000000D01*
D23*
X151000000Y-90000000D02*
X153500000Y-90000000D01*
D24*
X153500000Y-88500000D02*
X153500000Y-90000000D01*
D23*
X154250000Y-90000000D02*
X163650000Y-90000000D01*
X163400000Y-90000000D02*
X164600000Y-90000000D01*
X153500000Y-90000000D02*
X154250000Y-90000000D01*
D25*
X135700000Y-109400000D02*
X132900000Y-112200000D01*
X132900000Y-112200000D02*
X126100000Y-112200000D01*
D23*
X174840000Y-85540000D02*
X175700000Y-86400000D01*
X177700000Y-83200000D02*
X181300000Y-79600000D01*
X174840000Y-68465000D02*
X174840000Y-85540000D01*
X177700000Y-86400000D02*
X177700000Y-83200000D01*
X175700000Y-86400000D02*
X177700000Y-86400000D01*
X181300000Y-94400000D02*
X177700000Y-90800000D01*
X177700000Y-90800000D02*
X177700000Y-86400000D01*
D25*
X130500000Y-114825000D02*
X135925000Y-114825000D01*
X129100000Y-113400000D02*
X130500000Y-114800000D01*
X130500000Y-114800000D02*
X130500000Y-114825000D01*
G04 #@! TA.AperFunction,Conductor*
G36*
X184442539Y-54520185D02*
G01*
X184488294Y-54572989D01*
X184499500Y-54624500D01*
X184499500Y-146375500D01*
X184479815Y-146442539D01*
X184427011Y-146488294D01*
X184375500Y-146499500D01*
X116124500Y-146499500D01*
X116057461Y-146479815D01*
X116011706Y-146427011D01*
X116000500Y-146375500D01*
X116000500Y-141814437D01*
X116250000Y-141814437D01*
X116250000Y-142185562D01*
X116282345Y-142555267D01*
X116282345Y-142555271D01*
X116346787Y-142920735D01*
X116346791Y-142920752D01*
X116442837Y-143279206D01*
X116569775Y-143627963D01*
X116726607Y-143964292D01*
X116726615Y-143964307D01*
X116912166Y-144285690D01*
X116912175Y-144285705D01*
X117125040Y-144589707D01*
X117322005Y-144824439D01*
X117322006Y-144824440D01*
X118813098Y-143333348D01*
X118880076Y-143420635D01*
X119079365Y-143619924D01*
X119166650Y-143686900D01*
X117675558Y-145177992D01*
X117675559Y-145177993D01*
X117910292Y-145374959D01*
X118214294Y-145587824D01*
X118214309Y-145587833D01*
X118535692Y-145773384D01*
X118535707Y-145773392D01*
X118872036Y-145930224D01*
X119220793Y-146057162D01*
X119579247Y-146153208D01*
X119579264Y-146153212D01*
X119944730Y-146217654D01*
X120314437Y-146249999D01*
X120314440Y-146250000D01*
X120685560Y-146250000D01*
X120685562Y-146249999D01*
X121055267Y-146217654D01*
X121055271Y-146217654D01*
X121420735Y-146153212D01*
X121420752Y-146153208D01*
X121779206Y-146057162D01*
X122127963Y-145930224D01*
X122464292Y-145773392D01*
X122464307Y-145773384D01*
X122785690Y-145587833D01*
X122785705Y-145587824D01*
X123089700Y-145374964D01*
X123324439Y-145177993D01*
X123324440Y-145177992D01*
X121833348Y-143686901D01*
X121920635Y-143619924D01*
X122119924Y-143420635D01*
X122186900Y-143333348D01*
X123677992Y-144824440D01*
X123677993Y-144824439D01*
X123874964Y-144589700D01*
X124087824Y-144285705D01*
X124087833Y-144285690D01*
X124273384Y-143964307D01*
X124273392Y-143964292D01*
X124430224Y-143627963D01*
X124557162Y-143279206D01*
X124653208Y-142920752D01*
X124653212Y-142920735D01*
X124717654Y-142555271D01*
X124717654Y-142555267D01*
X124749999Y-142185562D01*
X124750000Y-142185560D01*
X124750000Y-141814440D01*
X124749999Y-141814437D01*
X175750000Y-141814437D01*
X175750000Y-142185562D01*
X175782345Y-142555267D01*
X175782345Y-142555271D01*
X175846787Y-142920735D01*
X175846791Y-142920752D01*
X175942837Y-143279206D01*
X176069775Y-143627963D01*
X176226607Y-143964292D01*
X176226615Y-143964307D01*
X176412166Y-144285690D01*
X176412175Y-144285705D01*
X176625040Y-144589707D01*
X176822005Y-144824439D01*
X176822006Y-144824440D01*
X178313098Y-143333348D01*
X178380076Y-143420635D01*
X178579365Y-143619924D01*
X178666650Y-143686900D01*
X177175558Y-145177992D01*
X177175559Y-145177993D01*
X177410292Y-145374959D01*
X177714294Y-145587824D01*
X177714309Y-145587833D01*
X178035692Y-145773384D01*
X178035707Y-145773392D01*
X178372036Y-145930224D01*
X178720793Y-146057162D01*
X179079247Y-146153208D01*
X179079264Y-146153212D01*
X179444730Y-146217654D01*
X179814437Y-146249999D01*
X179814440Y-146250000D01*
X180185560Y-146250000D01*
X180185562Y-146249999D01*
X180555267Y-146217654D01*
X180555271Y-146217654D01*
X180920735Y-146153212D01*
X180920752Y-146153208D01*
X181279206Y-146057162D01*
X181627963Y-145930224D01*
X181964292Y-145773392D01*
X181964307Y-145773384D01*
X182285690Y-145587833D01*
X182285705Y-145587824D01*
X182589700Y-145374964D01*
X182824439Y-145177993D01*
X182824440Y-145177992D01*
X181333348Y-143686901D01*
X181420635Y-143619924D01*
X181619924Y-143420635D01*
X181686900Y-143333348D01*
X183177992Y-144824440D01*
X183177993Y-144824439D01*
X183374964Y-144589700D01*
X183587824Y-144285705D01*
X183587833Y-144285690D01*
X183773384Y-143964307D01*
X183773392Y-143964292D01*
X183930224Y-143627963D01*
X184057162Y-143279206D01*
X184153208Y-142920752D01*
X184153212Y-142920735D01*
X184217654Y-142555271D01*
X184217654Y-142555267D01*
X184249999Y-142185562D01*
X184250000Y-142185560D01*
X184250000Y-141814440D01*
X184249999Y-141814437D01*
X184217654Y-141444732D01*
X184217654Y-141444728D01*
X184153212Y-141079264D01*
X184153208Y-141079247D01*
X184057162Y-140720793D01*
X183930224Y-140372036D01*
X183773392Y-140035707D01*
X183773384Y-140035692D01*
X183587833Y-139714309D01*
X183587824Y-139714294D01*
X183374959Y-139410292D01*
X183177993Y-139175559D01*
X183177992Y-139175558D01*
X181686900Y-140666650D01*
X181619924Y-140579365D01*
X181420635Y-140380076D01*
X181333347Y-140313098D01*
X182824440Y-138822006D01*
X182824439Y-138822005D01*
X182589707Y-138625040D01*
X182285705Y-138412175D01*
X182285690Y-138412166D01*
X181964307Y-138226615D01*
X181964292Y-138226607D01*
X181627963Y-138069775D01*
X181279206Y-137942837D01*
X180920752Y-137846791D01*
X180920735Y-137846787D01*
X180555269Y-137782345D01*
X180185562Y-137750000D01*
X179814437Y-137750000D01*
X179444732Y-137782345D01*
X179444728Y-137782345D01*
X179079264Y-137846787D01*
X179079247Y-137846791D01*
X178720793Y-137942837D01*
X178372036Y-138069775D01*
X178035707Y-138226607D01*
X178035692Y-138226615D01*
X177714309Y-138412166D01*
X177714294Y-138412175D01*
X177410292Y-138625040D01*
X177175559Y-138822005D01*
X177175558Y-138822006D01*
X178666651Y-140313098D01*
X178579365Y-140380076D01*
X178380076Y-140579365D01*
X178313098Y-140666651D01*
X176822006Y-139175558D01*
X176822005Y-139175559D01*
X176625040Y-139410292D01*
X176412175Y-139714294D01*
X176412166Y-139714309D01*
X176226615Y-140035692D01*
X176226607Y-140035707D01*
X176069775Y-140372036D01*
X175942837Y-140720793D01*
X175846791Y-141079247D01*
X175846787Y-141079264D01*
X175782345Y-141444728D01*
X175782345Y-141444732D01*
X175750000Y-141814437D01*
X124749999Y-141814437D01*
X124717654Y-141444732D01*
X124717654Y-141444728D01*
X124653212Y-141079264D01*
X124653208Y-141079247D01*
X124557162Y-140720793D01*
X124430224Y-140372036D01*
X124273392Y-140035707D01*
X124273384Y-140035692D01*
X124087833Y-139714309D01*
X124087824Y-139714294D01*
X123874959Y-139410292D01*
X123677993Y-139175559D01*
X123677992Y-139175558D01*
X122186900Y-140666650D01*
X122119924Y-140579365D01*
X121920635Y-140380076D01*
X121833347Y-140313098D01*
X123324440Y-138822006D01*
X123324439Y-138822005D01*
X123089707Y-138625040D01*
X122785705Y-138412175D01*
X122785690Y-138412166D01*
X122464307Y-138226615D01*
X122464292Y-138226607D01*
X122127963Y-138069775D01*
X121779206Y-137942837D01*
X121420752Y-137846791D01*
X121420735Y-137846787D01*
X121055269Y-137782345D01*
X120685562Y-137750000D01*
X120314437Y-137750000D01*
X119944732Y-137782345D01*
X119944728Y-137782345D01*
X119579264Y-137846787D01*
X119579247Y-137846791D01*
X119220793Y-137942837D01*
X118872036Y-138069775D01*
X118535707Y-138226607D01*
X118535692Y-138226615D01*
X118214309Y-138412166D01*
X118214294Y-138412175D01*
X117910292Y-138625040D01*
X117675559Y-138822005D01*
X117675558Y-138822006D01*
X119166651Y-140313098D01*
X119079365Y-140380076D01*
X118880076Y-140579365D01*
X118813098Y-140666651D01*
X117322006Y-139175558D01*
X117322005Y-139175559D01*
X117125040Y-139410292D01*
X116912175Y-139714294D01*
X116912166Y-139714309D01*
X116726615Y-140035692D01*
X116726607Y-140035707D01*
X116569775Y-140372036D01*
X116442837Y-140720793D01*
X116346791Y-141079247D01*
X116346787Y-141079264D01*
X116282345Y-141444728D01*
X116282345Y-141444732D01*
X116250000Y-141814437D01*
X116000500Y-141814437D01*
X116000500Y-132688575D01*
X121900000Y-132688575D01*
X121900000Y-132911424D01*
X121929085Y-133132354D01*
X121929088Y-133132367D01*
X121986763Y-133347618D01*
X122072045Y-133553502D01*
X122072054Y-133553520D01*
X122183464Y-133746491D01*
X122183473Y-133746504D01*
X122234040Y-133812403D01*
X122234043Y-133812403D01*
X123035387Y-133011059D01*
X123040889Y-133031591D01*
X123119881Y-133168408D01*
X123231592Y-133280119D01*
X123368409Y-133359111D01*
X123388940Y-133364612D01*
X122587595Y-134165955D01*
X122587595Y-134165956D01*
X122653507Y-134216533D01*
X122846485Y-134327949D01*
X122846497Y-134327954D01*
X123052381Y-134413236D01*
X123267632Y-134470911D01*
X123267645Y-134470914D01*
X123488575Y-134500000D01*
X123711425Y-134500000D01*
X123932354Y-134470914D01*
X123932367Y-134470911D01*
X124147618Y-134413236D01*
X124353502Y-134327954D01*
X124353514Y-134327949D01*
X124546498Y-134216530D01*
X124612403Y-134165957D01*
X124612404Y-134165956D01*
X123811059Y-133364612D01*
X123831591Y-133359111D01*
X123968408Y-133280119D01*
X124080119Y-133168408D01*
X124159111Y-133031591D01*
X124164612Y-133011059D01*
X124965956Y-133812404D01*
X124965957Y-133812403D01*
X125016530Y-133746498D01*
X125127949Y-133553514D01*
X125127954Y-133553502D01*
X125213236Y-133347618D01*
X125270911Y-133132367D01*
X125270914Y-133132354D01*
X125300000Y-132911424D01*
X125300000Y-132688575D01*
X125270914Y-132467645D01*
X125270911Y-132467632D01*
X125213236Y-132252381D01*
X125127954Y-132046497D01*
X125127949Y-132046485D01*
X125016533Y-131853507D01*
X124965956Y-131787595D01*
X124965955Y-131787595D01*
X124164612Y-132588939D01*
X124159111Y-132568409D01*
X124080119Y-132431592D01*
X123968408Y-132319881D01*
X123831591Y-132240889D01*
X123811058Y-132235387D01*
X124612403Y-131434043D01*
X124612403Y-131434040D01*
X124546504Y-131383473D01*
X124546491Y-131383464D01*
X124353520Y-131272054D01*
X124353502Y-131272045D01*
X124147618Y-131186763D01*
X123932367Y-131129088D01*
X123932354Y-131129085D01*
X123711425Y-131100000D01*
X123488575Y-131100000D01*
X123267645Y-131129085D01*
X123267632Y-131129088D01*
X123052381Y-131186763D01*
X122846497Y-131272045D01*
X122846479Y-131272054D01*
X122653511Y-131383462D01*
X122587595Y-131434042D01*
X123388941Y-132235387D01*
X123368409Y-132240889D01*
X123231592Y-132319881D01*
X123119881Y-132431592D01*
X123040889Y-132568409D01*
X123035387Y-132588940D01*
X122234042Y-131787595D01*
X122183462Y-131853511D01*
X122072054Y-132046479D01*
X122072045Y-132046497D01*
X121986763Y-132252381D01*
X121929088Y-132467632D01*
X121929085Y-132467645D01*
X121900000Y-132688575D01*
X116000500Y-132688575D01*
X116000500Y-126799984D01*
X121899500Y-126799984D01*
X121899500Y-128800015D01*
X121910000Y-128902795D01*
X121910001Y-128902796D01*
X121965186Y-129069335D01*
X121965187Y-129069337D01*
X122057286Y-129218651D01*
X122057289Y-129218655D01*
X122181344Y-129342710D01*
X122181348Y-129342713D01*
X122330662Y-129434812D01*
X122330664Y-129434813D01*
X122330666Y-129434814D01*
X122497203Y-129489999D01*
X122599992Y-129500500D01*
X122599997Y-129500500D01*
X124600003Y-129500500D01*
X124600008Y-129500500D01*
X124702797Y-129489999D01*
X124869334Y-129434814D01*
X125018655Y-129342711D01*
X125142711Y-129218655D01*
X125234814Y-129069334D01*
X125289999Y-128902797D01*
X125300500Y-128800008D01*
X125300500Y-126799992D01*
X125289999Y-126697203D01*
X125234814Y-126530666D01*
X125142711Y-126381345D01*
X125018655Y-126257289D01*
X125018651Y-126257286D01*
X124869337Y-126165187D01*
X124869335Y-126165186D01*
X124786065Y-126137593D01*
X124702797Y-126110001D01*
X124702795Y-126110000D01*
X124600015Y-126099500D01*
X124600008Y-126099500D01*
X122599992Y-126099500D01*
X122599984Y-126099500D01*
X122497204Y-126110000D01*
X122497203Y-126110001D01*
X122330664Y-126165186D01*
X122330662Y-126165187D01*
X122181348Y-126257286D01*
X122181344Y-126257289D01*
X122057289Y-126381344D01*
X122057286Y-126381348D01*
X121965187Y-126530662D01*
X121965186Y-126530664D01*
X121910001Y-126697203D01*
X121910000Y-126697204D01*
X121899500Y-126799984D01*
X116000500Y-126799984D01*
X116000500Y-117377973D01*
X119349500Y-117377973D01*
X119349500Y-117622026D01*
X119387678Y-117863072D01*
X119463097Y-118095187D01*
X119573896Y-118312642D01*
X119717339Y-118510076D01*
X119717343Y-118510081D01*
X119717345Y-118510083D01*
X119889917Y-118682655D01*
X120051308Y-118799912D01*
X120066097Y-118812544D01*
X120729765Y-119476212D01*
X120687708Y-119487482D01*
X120562292Y-119559890D01*
X120459890Y-119662292D01*
X120387482Y-119787708D01*
X120376212Y-119829765D01*
X119641544Y-119095097D01*
X119574319Y-119187626D01*
X119463560Y-119405001D01*
X119388165Y-119637040D01*
X119350000Y-119878006D01*
X119350000Y-120121993D01*
X119388165Y-120362959D01*
X119463560Y-120594998D01*
X119574323Y-120812380D01*
X119641543Y-120904901D01*
X119641544Y-120904902D01*
X120376212Y-120170234D01*
X120387482Y-120212292D01*
X120459890Y-120337708D01*
X120562292Y-120440110D01*
X120687708Y-120512518D01*
X120729765Y-120523787D01*
X119995096Y-121258454D01*
X119995097Y-121258456D01*
X120087619Y-121325676D01*
X120305001Y-121436439D01*
X120537040Y-121511834D01*
X120778007Y-121550000D01*
X121021993Y-121550000D01*
X121262959Y-121511834D01*
X121494998Y-121436439D01*
X121712377Y-121325678D01*
X121804901Y-121258454D01*
X121804902Y-121258454D01*
X121763021Y-121216573D01*
X121070234Y-120523787D01*
X121112292Y-120512518D01*
X121237708Y-120440110D01*
X121340110Y-120337708D01*
X121412518Y-120212292D01*
X121423787Y-120170234D01*
X122158454Y-120904902D01*
X122158454Y-120904901D01*
X122225678Y-120812377D01*
X122336439Y-120594998D01*
X122411834Y-120362959D01*
X122450000Y-120121993D01*
X122450000Y-119878006D01*
X122411834Y-119637040D01*
X122336439Y-119405001D01*
X122225676Y-119187619D01*
X122158456Y-119095097D01*
X122158454Y-119095096D01*
X121423787Y-119829764D01*
X121412518Y-119787708D01*
X121340110Y-119662292D01*
X121237708Y-119559890D01*
X121112292Y-119487482D01*
X121070232Y-119476212D01*
X121733901Y-118812544D01*
X121748684Y-118799917D01*
X121910083Y-118682655D01*
X122082655Y-118510083D01*
X122226106Y-118312639D01*
X122336904Y-118095185D01*
X122412321Y-117863076D01*
X122420025Y-117814437D01*
X138750000Y-117814437D01*
X138750000Y-118185562D01*
X138782345Y-118555267D01*
X138782345Y-118555271D01*
X138846787Y-118920735D01*
X138846791Y-118920752D01*
X138942837Y-119279206D01*
X139069775Y-119627963D01*
X139226607Y-119964292D01*
X139226615Y-119964307D01*
X139412166Y-120285690D01*
X139412175Y-120285705D01*
X139625040Y-120589707D01*
X139822005Y-120824439D01*
X139822006Y-120824440D01*
X141313098Y-119333348D01*
X141380076Y-119420635D01*
X141579365Y-119619924D01*
X141666650Y-119686900D01*
X140175558Y-121177992D01*
X140175559Y-121177993D01*
X140410292Y-121374959D01*
X140714294Y-121587824D01*
X140714309Y-121587833D01*
X141035692Y-121773384D01*
X141035707Y-121773392D01*
X141372036Y-121930224D01*
X141720793Y-122057162D01*
X142079247Y-122153208D01*
X142079264Y-122153212D01*
X142444730Y-122217654D01*
X142814437Y-122249999D01*
X142814440Y-122250000D01*
X143185560Y-122250000D01*
X143185562Y-122249999D01*
X143555267Y-122217654D01*
X143555271Y-122217654D01*
X143920735Y-122153212D01*
X143920752Y-122153208D01*
X144279206Y-122057162D01*
X144627963Y-121930224D01*
X144964292Y-121773392D01*
X144964307Y-121773384D01*
X145285690Y-121587833D01*
X145285705Y-121587824D01*
X145589700Y-121374964D01*
X145824439Y-121177993D01*
X145824440Y-121177992D01*
X144333348Y-119686901D01*
X144420635Y-119619924D01*
X144619924Y-119420635D01*
X144686900Y-119333348D01*
X146177992Y-120824440D01*
X146177993Y-120824439D01*
X146374964Y-120589700D01*
X146587824Y-120285705D01*
X146587833Y-120285690D01*
X146773384Y-119964307D01*
X146773392Y-119964292D01*
X146930224Y-119627963D01*
X147057162Y-119279206D01*
X147153208Y-118920752D01*
X147153212Y-118920735D01*
X147217654Y-118555271D01*
X147217654Y-118555267D01*
X147249999Y-118185562D01*
X147250000Y-118185560D01*
X147250000Y-118171379D01*
X149499500Y-118171379D01*
X149499500Y-118603620D01*
X149533412Y-119034513D01*
X149533412Y-119034514D01*
X149557662Y-119187619D01*
X149601028Y-119461422D01*
X149701930Y-119881710D01*
X149740365Y-119999999D01*
X149835494Y-120292780D01*
X149896520Y-120440110D01*
X150000904Y-120692115D01*
X150109325Y-120904902D01*
X150197136Y-121077240D01*
X150197142Y-121077251D01*
X150422966Y-121445762D01*
X150422971Y-121445769D01*
X150422973Y-121445772D01*
X150526186Y-121587833D01*
X150677025Y-121795446D01*
X150677035Y-121795460D01*
X150900552Y-122057162D01*
X150957743Y-122124124D01*
X151263376Y-122429757D01*
X151263382Y-122429762D01*
X151592039Y-122710464D01*
X151592046Y-122710469D01*
X151941728Y-122964527D01*
X151941732Y-122964529D01*
X151941737Y-122964533D01*
X152310248Y-123190357D01*
X152310254Y-123190360D01*
X152310265Y-123190367D01*
X152695385Y-123386596D01*
X153094714Y-123552003D01*
X153094719Y-123552005D01*
X153199240Y-123585965D01*
X153505790Y-123685570D01*
X153926078Y-123786472D01*
X154352987Y-123854088D01*
X154783885Y-123888000D01*
X154783893Y-123888000D01*
X155216107Y-123888000D01*
X155216115Y-123888000D01*
X155647013Y-123854088D01*
X156073922Y-123786472D01*
X156494210Y-123685570D01*
X156905286Y-123552003D01*
X157304615Y-123386596D01*
X157689735Y-123190367D01*
X158058272Y-122964527D01*
X158407954Y-122710469D01*
X158736624Y-122429757D01*
X159042257Y-122124124D01*
X159322969Y-121795454D01*
X159577027Y-121445772D01*
X159802867Y-121077235D01*
X159999096Y-120692115D01*
X160164503Y-120292786D01*
X160298070Y-119881710D01*
X160398972Y-119461422D01*
X160466588Y-119034513D01*
X160500500Y-118603615D01*
X160500500Y-118171385D01*
X160466588Y-117740487D01*
X160398972Y-117313578D01*
X160298070Y-116893290D01*
X160167008Y-116489923D01*
X160164505Y-116482219D01*
X160096211Y-116317343D01*
X159999096Y-116082885D01*
X159802867Y-115697765D01*
X159744268Y-115602140D01*
X159577033Y-115329237D01*
X159577029Y-115329232D01*
X159577027Y-115329228D01*
X159322969Y-114979546D01*
X159322964Y-114979539D01*
X159042262Y-114650882D01*
X159042257Y-114650876D01*
X158736624Y-114345243D01*
X158602283Y-114230504D01*
X158407960Y-114064535D01*
X158407946Y-114064525D01*
X158170874Y-113892283D01*
X158058272Y-113810473D01*
X158058269Y-113810471D01*
X158058262Y-113810466D01*
X157689751Y-113584642D01*
X157689740Y-113584636D01*
X157689739Y-113584635D01*
X157689735Y-113584633D01*
X157304615Y-113388404D01*
X157094711Y-113301459D01*
X156905280Y-113222994D01*
X156612796Y-113127961D01*
X156494210Y-113089430D01*
X156482555Y-113086632D01*
X156404767Y-113067956D01*
X156073922Y-112988528D01*
X156002021Y-112977140D01*
X155647013Y-112920912D01*
X155216120Y-112887000D01*
X155216115Y-112887000D01*
X154783885Y-112887000D01*
X154783879Y-112887000D01*
X154352986Y-112920912D01*
X154352985Y-112920912D01*
X153926083Y-112988527D01*
X153926080Y-112988527D01*
X153926078Y-112988528D01*
X153775562Y-113024663D01*
X153505801Y-113089427D01*
X153505795Y-113089428D01*
X153505790Y-113089430D01*
X153505778Y-113089434D01*
X153094719Y-113222994D01*
X152695387Y-113388403D01*
X152310259Y-113584636D01*
X152310248Y-113584642D01*
X151941737Y-113810466D01*
X151941726Y-113810474D01*
X151592053Y-114064525D01*
X151592039Y-114064535D01*
X151263382Y-114345237D01*
X151263368Y-114345250D01*
X150957750Y-114650868D01*
X150957737Y-114650882D01*
X150677035Y-114979539D01*
X150677025Y-114979553D01*
X150422974Y-115329226D01*
X150422966Y-115329237D01*
X150197142Y-115697748D01*
X150197136Y-115697759D01*
X150000903Y-116082887D01*
X149835494Y-116482219D01*
X149701934Y-116893278D01*
X149701927Y-116893301D01*
X149601027Y-117313583D01*
X149533412Y-117740485D01*
X149533412Y-117740486D01*
X149499500Y-118171379D01*
X147250000Y-118171379D01*
X147250000Y-117814440D01*
X147249999Y-117814437D01*
X147217654Y-117444732D01*
X147217654Y-117444728D01*
X147153212Y-117079264D01*
X147153208Y-117079247D01*
X147057162Y-116720793D01*
X146930224Y-116372036D01*
X146773392Y-116035707D01*
X146773384Y-116035692D01*
X146587833Y-115714309D01*
X146587824Y-115714294D01*
X146374959Y-115410292D01*
X146177993Y-115175559D01*
X146177992Y-115175558D01*
X144686900Y-116666650D01*
X144619924Y-116579365D01*
X144420635Y-116380076D01*
X144333347Y-116313098D01*
X145824440Y-114822006D01*
X145824439Y-114822005D01*
X145589707Y-114625040D01*
X145285705Y-114412175D01*
X145285690Y-114412166D01*
X144964307Y-114226615D01*
X144964292Y-114226607D01*
X144627963Y-114069775D01*
X144279206Y-113942837D01*
X143920752Y-113846791D01*
X143920735Y-113846787D01*
X143555269Y-113782345D01*
X143185562Y-113750000D01*
X142814437Y-113750000D01*
X142444732Y-113782345D01*
X142444728Y-113782345D01*
X142079264Y-113846787D01*
X142079247Y-113846791D01*
X141720793Y-113942837D01*
X141372036Y-114069775D01*
X141035707Y-114226607D01*
X141035692Y-114226615D01*
X140714309Y-114412166D01*
X140714294Y-114412175D01*
X140410292Y-114625040D01*
X140175559Y-114822005D01*
X140175558Y-114822006D01*
X141666651Y-116313098D01*
X141579365Y-116380076D01*
X141380076Y-116579365D01*
X141313098Y-116666651D01*
X139822006Y-115175558D01*
X139822005Y-115175559D01*
X139625040Y-115410292D01*
X139412175Y-115714294D01*
X139412166Y-115714309D01*
X139226615Y-116035692D01*
X139226607Y-116035707D01*
X139069775Y-116372036D01*
X138942837Y-116720793D01*
X138846791Y-117079247D01*
X138846787Y-117079264D01*
X138782345Y-117444728D01*
X138782345Y-117444732D01*
X138750000Y-117814437D01*
X122420025Y-117814437D01*
X122450500Y-117622027D01*
X122450500Y-117377973D01*
X122412321Y-117136924D01*
X122336904Y-116904815D01*
X122226106Y-116687361D01*
X122147643Y-116579365D01*
X122082660Y-116489923D01*
X122082656Y-116489918D01*
X121910081Y-116317343D01*
X121910076Y-116317339D01*
X121712642Y-116173896D01*
X121712641Y-116173895D01*
X121712639Y-116173894D01*
X121495185Y-116063096D01*
X121263076Y-115987679D01*
X121263074Y-115987678D01*
X121263072Y-115987678D01*
X121086628Y-115959732D01*
X121022027Y-115949500D01*
X120777973Y-115949500D01*
X120722093Y-115958350D01*
X120536927Y-115987678D01*
X120304812Y-116063097D01*
X120087357Y-116173896D01*
X119889923Y-116317339D01*
X119889918Y-116317343D01*
X119717343Y-116489918D01*
X119717339Y-116489923D01*
X119573896Y-116687357D01*
X119463097Y-116904812D01*
X119387678Y-117136927D01*
X119349500Y-117377973D01*
X116000500Y-117377973D01*
X116000500Y-112298543D01*
X125099499Y-112298543D01*
X125137947Y-112491829D01*
X125137950Y-112491839D01*
X125213364Y-112673907D01*
X125213371Y-112673920D01*
X125322860Y-112837781D01*
X125322863Y-112837785D01*
X125462214Y-112977136D01*
X125462218Y-112977139D01*
X125626079Y-113086628D01*
X125626092Y-113086635D01*
X125808160Y-113162049D01*
X125808165Y-113162051D01*
X125808169Y-113162051D01*
X125808170Y-113162052D01*
X126001456Y-113200500D01*
X126001459Y-113200500D01*
X126198543Y-113200500D01*
X126328582Y-113174632D01*
X126391835Y-113162051D01*
X126532655Y-113103721D01*
X126573907Y-113086635D01*
X126573907Y-113086634D01*
X126573914Y-113086632D01*
X126737782Y-112977139D01*
X126853103Y-112861817D01*
X126914424Y-112828334D01*
X126940783Y-112825500D01*
X128069453Y-112825500D01*
X128136492Y-112845185D01*
X128182247Y-112897989D01*
X128192191Y-112967147D01*
X128184014Y-112996952D01*
X128137950Y-113108160D01*
X128137947Y-113108170D01*
X128099500Y-113301456D01*
X128099500Y-113301459D01*
X128099500Y-113498541D01*
X128099500Y-113498543D01*
X128099499Y-113498543D01*
X128137947Y-113691829D01*
X128137950Y-113691839D01*
X128213364Y-113873907D01*
X128213371Y-113873920D01*
X128322860Y-114037781D01*
X128322863Y-114037785D01*
X128462214Y-114177136D01*
X128462218Y-114177139D01*
X128626079Y-114286628D01*
X128626092Y-114286635D01*
X128767603Y-114345250D01*
X128808165Y-114362051D01*
X128808169Y-114362051D01*
X128808170Y-114362052D01*
X129001456Y-114400500D01*
X129164548Y-114400500D01*
X129231587Y-114420185D01*
X129252229Y-114436819D01*
X129955160Y-115139750D01*
X129970581Y-115158540D01*
X130014141Y-115223732D01*
X130014144Y-115223736D01*
X130101263Y-115310855D01*
X130101267Y-115310858D01*
X130203707Y-115379307D01*
X130203713Y-115379310D01*
X130203714Y-115379311D01*
X130317548Y-115426463D01*
X130438389Y-115450499D01*
X130438393Y-115450500D01*
X130438394Y-115450500D01*
X130561606Y-115450500D01*
X135084217Y-115450500D01*
X135151256Y-115470185D01*
X135171893Y-115486814D01*
X135287215Y-115602136D01*
X135287219Y-115602140D01*
X135451079Y-115711628D01*
X135451092Y-115711635D01*
X135633160Y-115787049D01*
X135633165Y-115787051D01*
X135633169Y-115787051D01*
X135633170Y-115787052D01*
X135826456Y-115825500D01*
X135826459Y-115825500D01*
X136023543Y-115825500D01*
X136153582Y-115799632D01*
X136216835Y-115787051D01*
X136392451Y-115714309D01*
X136398907Y-115711635D01*
X136398907Y-115711634D01*
X136398914Y-115711632D01*
X136562782Y-115602139D01*
X136702139Y-115462782D01*
X136811632Y-115298914D01*
X136887051Y-115116835D01*
X136899632Y-115053582D01*
X136925500Y-114923543D01*
X136925500Y-114726456D01*
X136887052Y-114533170D01*
X136887051Y-114533169D01*
X136887051Y-114533165D01*
X136887049Y-114533160D01*
X136811635Y-114351092D01*
X136811628Y-114351079D01*
X136702139Y-114187218D01*
X136702136Y-114187214D01*
X136562785Y-114047863D01*
X136562781Y-114047860D01*
X136398920Y-113938371D01*
X136398907Y-113938364D01*
X136216839Y-113862950D01*
X136216829Y-113862947D01*
X136023543Y-113824500D01*
X136023541Y-113824500D01*
X135826459Y-113824500D01*
X135826457Y-113824500D01*
X135633170Y-113862947D01*
X135633160Y-113862950D01*
X135451092Y-113938364D01*
X135451079Y-113938371D01*
X135287219Y-114047859D01*
X135238828Y-114096251D01*
X135171896Y-114163182D01*
X135110576Y-114196666D01*
X135084217Y-114199500D01*
X130835452Y-114199500D01*
X130768413Y-114179815D01*
X130747771Y-114163181D01*
X130136819Y-113552229D01*
X130103334Y-113490906D01*
X130100500Y-113464548D01*
X130100500Y-113301456D01*
X130062052Y-113108170D01*
X130062051Y-113108169D01*
X130062051Y-113108165D01*
X130062049Y-113108160D01*
X130015986Y-112996952D01*
X130008517Y-112927483D01*
X130039793Y-112865004D01*
X130099882Y-112829352D01*
X130130547Y-112825500D01*
X132961607Y-112825500D01*
X133022029Y-112813481D01*
X133082452Y-112801463D01*
X133127144Y-112782951D01*
X133196286Y-112754312D01*
X133247509Y-112720084D01*
X133298733Y-112685858D01*
X133385858Y-112598733D01*
X133385859Y-112598731D01*
X133392925Y-112591665D01*
X133392928Y-112591661D01*
X135547770Y-110436819D01*
X135609093Y-110403334D01*
X135635451Y-110400500D01*
X135798543Y-110400500D01*
X135928582Y-110374632D01*
X135991835Y-110362051D01*
X136173914Y-110286632D01*
X136337782Y-110177139D01*
X136477139Y-110037782D01*
X136586632Y-109873914D01*
X136662051Y-109691835D01*
X136693927Y-109531586D01*
X136700500Y-109498543D01*
X136700500Y-109301456D01*
X136662052Y-109108170D01*
X136662051Y-109108169D01*
X136662051Y-109108165D01*
X136662049Y-109108160D01*
X136586635Y-108926092D01*
X136586628Y-108926079D01*
X136477139Y-108762218D01*
X136477136Y-108762214D01*
X136337785Y-108622863D01*
X136337781Y-108622860D01*
X136173920Y-108513371D01*
X136173907Y-108513364D01*
X135991839Y-108437950D01*
X135991829Y-108437947D01*
X135798543Y-108399500D01*
X135798541Y-108399500D01*
X135601459Y-108399500D01*
X135601457Y-108399500D01*
X135408170Y-108437947D01*
X135408160Y-108437950D01*
X135226092Y-108513364D01*
X135226079Y-108513371D01*
X135062218Y-108622860D01*
X135062214Y-108622863D01*
X134922863Y-108762214D01*
X134922860Y-108762218D01*
X134813371Y-108926079D01*
X134813364Y-108926092D01*
X134737950Y-109108160D01*
X134737947Y-109108170D01*
X134699500Y-109301456D01*
X134699500Y-109464547D01*
X134679815Y-109531586D01*
X134663181Y-109552228D01*
X132677229Y-111538181D01*
X132615906Y-111571666D01*
X132589548Y-111574500D01*
X126940783Y-111574500D01*
X126873744Y-111554815D01*
X126853106Y-111538185D01*
X126737782Y-111422861D01*
X126737781Y-111422860D01*
X126737780Y-111422859D01*
X126573920Y-111313371D01*
X126573907Y-111313364D01*
X126391839Y-111237950D01*
X126391829Y-111237947D01*
X126198543Y-111199500D01*
X126198541Y-111199500D01*
X126001459Y-111199500D01*
X126001457Y-111199500D01*
X125808170Y-111237947D01*
X125808160Y-111237950D01*
X125626092Y-111313364D01*
X125626079Y-111313371D01*
X125462218Y-111422860D01*
X125462214Y-111422863D01*
X125322863Y-111562214D01*
X125322860Y-111562218D01*
X125213371Y-111726079D01*
X125213364Y-111726092D01*
X125137950Y-111908160D01*
X125137947Y-111908170D01*
X125099500Y-112101456D01*
X125099500Y-112101459D01*
X125099500Y-112298541D01*
X125099500Y-112298543D01*
X125099499Y-112298543D01*
X116000500Y-112298543D01*
X116000500Y-102913945D01*
X131479500Y-102913945D01*
X131479500Y-103106054D01*
X131509553Y-103295802D01*
X131568916Y-103478506D01*
X131568918Y-103478509D01*
X131656135Y-103649681D01*
X131769055Y-103805102D01*
X131904898Y-103940945D01*
X132060319Y-104053865D01*
X132231491Y-104141082D01*
X132231493Y-104141083D01*
X132296081Y-104162069D01*
X132353756Y-104201506D01*
X132380955Y-104265865D01*
X132369041Y-104334711D01*
X132321797Y-104386187D01*
X132296081Y-104397931D01*
X132231493Y-104418916D01*
X132060318Y-104506135D01*
X131971645Y-104570560D01*
X131904898Y-104619055D01*
X131904896Y-104619057D01*
X131904895Y-104619057D01*
X131769057Y-104754895D01*
X131769057Y-104754896D01*
X131769055Y-104754898D01*
X131720560Y-104821645D01*
X131656135Y-104910318D01*
X131568916Y-105081493D01*
X131509553Y-105264197D01*
X131479500Y-105453945D01*
X131479500Y-105646054D01*
X131509553Y-105835802D01*
X131568916Y-106018506D01*
X131568918Y-106018509D01*
X131656135Y-106189681D01*
X131769055Y-106345102D01*
X131904898Y-106480945D01*
X132060319Y-106593865D01*
X132231491Y-106681082D01*
X132231493Y-106681083D01*
X132322845Y-106710764D01*
X132414199Y-106740447D01*
X132603945Y-106770500D01*
X132603946Y-106770500D01*
X132796054Y-106770500D01*
X132796055Y-106770500D01*
X132985801Y-106740447D01*
X133168509Y-106681082D01*
X133339681Y-106593865D01*
X133495102Y-106480945D01*
X133630945Y-106345102D01*
X133743865Y-106189681D01*
X133831082Y-106018509D01*
X133890447Y-105835801D01*
X133920500Y-105646055D01*
X133920500Y-105453945D01*
X133890447Y-105264199D01*
X133831082Y-105081491D01*
X133743865Y-104910319D01*
X133630945Y-104754898D01*
X133495102Y-104619055D01*
X133339681Y-104506135D01*
X133168504Y-104418915D01*
X133103919Y-104397931D01*
X133046243Y-104358494D01*
X133019044Y-104294136D01*
X133030958Y-104225289D01*
X133078202Y-104173813D01*
X133103919Y-104162069D01*
X133168504Y-104141084D01*
X133168506Y-104141082D01*
X133168509Y-104141082D01*
X133339681Y-104053865D01*
X133495102Y-103940945D01*
X133630945Y-103805102D01*
X133743865Y-103649681D01*
X133831082Y-103478509D01*
X133890447Y-103295801D01*
X133920500Y-103106055D01*
X133920500Y-102913945D01*
X133890447Y-102724199D01*
X133831082Y-102541491D01*
X133743865Y-102370319D01*
X133630945Y-102214898D01*
X133495102Y-102079055D01*
X133339681Y-101966135D01*
X133168509Y-101878918D01*
X133168508Y-101878917D01*
X133168505Y-101878916D01*
X133103108Y-101857667D01*
X133077072Y-101839864D01*
X133050070Y-101823581D01*
X133048454Y-101820295D01*
X133045432Y-101818229D01*
X133033153Y-101789173D01*
X133019242Y-101760880D01*
X133019659Y-101757243D01*
X133018234Y-101753871D01*
X133023551Y-101723146D01*
X151047000Y-101723146D01*
X151047000Y-101951853D01*
X151082778Y-102177746D01*
X151082778Y-102177749D01*
X151153450Y-102395255D01*
X151153452Y-102395258D01*
X151257283Y-102599038D01*
X151391714Y-102784066D01*
X151553434Y-102945786D01*
X151738462Y-103080217D01*
X151941327Y-103183582D01*
X151942244Y-103184049D01*
X152159751Y-103254721D01*
X152159752Y-103254721D01*
X152159755Y-103254722D01*
X152385646Y-103290500D01*
X152385647Y-103290500D01*
X152614353Y-103290500D01*
X152614354Y-103290500D01*
X152840245Y-103254722D01*
X152840248Y-103254721D01*
X152840249Y-103254721D01*
X153057755Y-103184049D01*
X153057755Y-103184048D01*
X153057758Y-103184048D01*
X153261538Y-103080217D01*
X153446566Y-102945786D01*
X153608286Y-102784066D01*
X153658749Y-102714609D01*
X153662927Y-102709936D01*
X153687488Y-102694682D01*
X153710385Y-102677026D01*
X153717641Y-102675956D01*
X153722282Y-102673074D01*
X153735776Y-102673282D01*
X153765103Y-102668959D01*
X153811348Y-102672598D01*
X154476212Y-102007734D01*
X154487482Y-102049792D01*
X154559890Y-102175208D01*
X154662292Y-102277610D01*
X154787708Y-102350018D01*
X154829765Y-102361287D01*
X154164899Y-103026151D01*
X154238725Y-103079788D01*
X154238731Y-103079792D01*
X154442431Y-103183582D01*
X154659875Y-103254234D01*
X154885687Y-103290000D01*
X155114313Y-103290000D01*
X155340124Y-103254234D01*
X155340125Y-103254234D01*
X155557568Y-103183582D01*
X155761276Y-103079788D01*
X155835098Y-103026151D01*
X155170234Y-102361287D01*
X155212292Y-102350018D01*
X155337708Y-102277610D01*
X155440110Y-102175208D01*
X155512518Y-102049792D01*
X155523787Y-102007735D01*
X156188650Y-102672598D01*
X156234896Y-102668959D01*
X156303273Y-102683323D01*
X156344942Y-102719690D01*
X156391714Y-102784066D01*
X156553434Y-102945786D01*
X156738462Y-103080217D01*
X156941327Y-103183582D01*
X156942244Y-103184049D01*
X157159751Y-103254721D01*
X157159752Y-103254721D01*
X157159755Y-103254722D01*
X157385646Y-103290500D01*
X157385647Y-103290500D01*
X157614353Y-103290500D01*
X157614354Y-103290500D01*
X157840245Y-103254722D01*
X157840248Y-103254721D01*
X157840249Y-103254721D01*
X158057755Y-103184049D01*
X158057755Y-103184048D01*
X158057758Y-103184048D01*
X158261538Y-103080217D01*
X158446566Y-102945786D01*
X158608286Y-102784066D01*
X158742717Y-102599038D01*
X158846548Y-102395258D01*
X158854651Y-102370319D01*
X158917221Y-102177749D01*
X158917221Y-102177748D01*
X158917222Y-102177745D01*
X158953000Y-101951854D01*
X158953000Y-101723146D01*
X158917222Y-101497255D01*
X158917221Y-101497251D01*
X158917221Y-101497250D01*
X158846549Y-101279744D01*
X158742716Y-101075961D01*
X158692181Y-101006406D01*
X158608286Y-100890934D01*
X158446566Y-100729214D01*
X158261538Y-100594783D01*
X158205078Y-100566015D01*
X158057755Y-100490950D01*
X157840248Y-100420278D01*
X157684518Y-100395613D01*
X157682779Y-100395337D01*
X157614354Y-100384500D01*
X157385646Y-100384500D01*
X157315482Y-100395613D01*
X157159753Y-100420278D01*
X157159750Y-100420278D01*
X156942244Y-100490950D01*
X156738461Y-100594783D01*
X156664051Y-100648846D01*
X156553434Y-100729214D01*
X156553432Y-100729216D01*
X156553431Y-100729216D01*
X156391716Y-100890931D01*
X156391709Y-100890940D01*
X156344943Y-100955307D01*
X156289613Y-100997973D01*
X156234898Y-101006039D01*
X156188651Y-101002399D01*
X155523787Y-101667264D01*
X155512518Y-101625208D01*
X155440110Y-101499792D01*
X155337708Y-101397390D01*
X155212292Y-101324982D01*
X155170233Y-101313712D01*
X155835099Y-100648847D01*
X155761276Y-100595211D01*
X155557568Y-100491417D01*
X155340124Y-100420765D01*
X155114313Y-100385000D01*
X154885687Y-100385000D01*
X154659875Y-100420765D01*
X154659874Y-100420765D01*
X154442431Y-100491417D01*
X154238719Y-100595213D01*
X154164900Y-100648846D01*
X154164899Y-100648847D01*
X154829765Y-101313712D01*
X154787708Y-101324982D01*
X154662292Y-101397390D01*
X154559890Y-101499792D01*
X154487482Y-101625208D01*
X154476212Y-101667265D01*
X153811347Y-101002399D01*
X153765101Y-101006039D01*
X153761146Y-101005208D01*
X153757289Y-101006406D01*
X153727239Y-100998084D01*
X153696724Y-100991674D01*
X153692729Y-100988528D01*
X153689954Y-100987760D01*
X153680016Y-100978519D01*
X153662926Y-100965062D01*
X153658745Y-100960385D01*
X153608286Y-100890934D01*
X153446566Y-100729214D01*
X153261538Y-100594783D01*
X153205078Y-100566015D01*
X153057755Y-100490950D01*
X152840248Y-100420278D01*
X152670826Y-100393444D01*
X152614354Y-100384500D01*
X152385646Y-100384500D01*
X152315482Y-100395613D01*
X152159753Y-100420278D01*
X152159750Y-100420278D01*
X151942244Y-100490950D01*
X151738461Y-100594783D01*
X151664051Y-100648846D01*
X151553434Y-100729214D01*
X151553432Y-100729216D01*
X151553431Y-100729216D01*
X151391716Y-100890931D01*
X151391716Y-100890932D01*
X151391714Y-100890934D01*
X151357285Y-100938321D01*
X151257283Y-101075961D01*
X151153450Y-101279744D01*
X151082778Y-101497250D01*
X151082778Y-101497253D01*
X151047000Y-101723146D01*
X133023551Y-101723146D01*
X133023612Y-101722795D01*
X133027207Y-101691466D01*
X133029524Y-101688631D01*
X133030149Y-101685024D01*
X133051468Y-101661795D01*
X133071435Y-101637377D01*
X133075889Y-101635186D01*
X133077393Y-101633549D01*
X133103108Y-101621805D01*
X133168320Y-101600616D01*
X133339419Y-101513436D01*
X133368646Y-101492201D01*
X133368646Y-101492200D01*
X132746447Y-100870000D01*
X132752661Y-100870000D01*
X132854394Y-100842741D01*
X132945606Y-100790080D01*
X133020080Y-100715606D01*
X133072741Y-100624394D01*
X133100000Y-100522661D01*
X133100000Y-100516446D01*
X133722200Y-101138646D01*
X133722201Y-101138646D01*
X133743436Y-101109419D01*
X133830616Y-100938321D01*
X133889959Y-100755684D01*
X133920000Y-100566015D01*
X133920000Y-100373984D01*
X133904798Y-100278006D01*
X159750000Y-100278006D01*
X159750000Y-100521993D01*
X159788165Y-100762959D01*
X159863560Y-100994998D01*
X159974323Y-101212380D01*
X160041543Y-101304901D01*
X160041544Y-101304902D01*
X160776212Y-100570234D01*
X160787482Y-100612292D01*
X160859890Y-100737708D01*
X160962292Y-100840110D01*
X161087708Y-100912518D01*
X161129765Y-100923787D01*
X160395096Y-101658454D01*
X160395097Y-101658456D01*
X160487619Y-101725676D01*
X160705001Y-101836439D01*
X160937040Y-101911834D01*
X161178007Y-101950000D01*
X161421993Y-101950000D01*
X161662959Y-101911834D01*
X161894998Y-101836439D01*
X162112377Y-101725678D01*
X162204901Y-101658454D01*
X162204902Y-101658454D01*
X161470234Y-100923787D01*
X161512292Y-100912518D01*
X161637708Y-100840110D01*
X161740110Y-100737708D01*
X161812518Y-100612292D01*
X161823787Y-100570234D01*
X162558454Y-101304902D01*
X162558454Y-101304901D01*
X162625678Y-101212377D01*
X162736439Y-100994998D01*
X162811834Y-100762959D01*
X162850000Y-100521993D01*
X162850000Y-100281947D01*
X179800000Y-100281947D01*
X179800000Y-100518052D01*
X179836934Y-100751247D01*
X179909897Y-100975802D01*
X180017087Y-101186174D01*
X180077338Y-101269104D01*
X180077340Y-101269105D01*
X180817037Y-100529408D01*
X180834075Y-100592993D01*
X180899901Y-100707007D01*
X180992993Y-100800099D01*
X181107007Y-100865925D01*
X181170590Y-100882962D01*
X180430893Y-101622658D01*
X180513828Y-101682914D01*
X180724197Y-101790102D01*
X180948752Y-101863065D01*
X180948751Y-101863065D01*
X181181948Y-101900000D01*
X181418052Y-101900000D01*
X181651247Y-101863065D01*
X181875802Y-101790102D01*
X182086163Y-101682918D01*
X182086169Y-101682914D01*
X182169104Y-101622658D01*
X182169105Y-101622658D01*
X181429408Y-100882962D01*
X181492993Y-100865925D01*
X181607007Y-100800099D01*
X181700099Y-100707007D01*
X181765925Y-100592993D01*
X181782962Y-100529409D01*
X182522658Y-101269105D01*
X182522658Y-101269104D01*
X182582914Y-101186169D01*
X182582918Y-101186163D01*
X182690102Y-100975802D01*
X182763065Y-100751247D01*
X182800000Y-100518052D01*
X182800000Y-100281947D01*
X182763065Y-100048752D01*
X182690102Y-99824197D01*
X182582914Y-99613828D01*
X182522658Y-99530894D01*
X182522658Y-99530893D01*
X181782962Y-100270590D01*
X181765925Y-100207007D01*
X181700099Y-100092993D01*
X181607007Y-99999901D01*
X181492993Y-99934075D01*
X181429409Y-99917037D01*
X182169105Y-99177340D01*
X182169104Y-99177338D01*
X182086174Y-99117087D01*
X181875802Y-99009897D01*
X181651247Y-98936934D01*
X181651248Y-98936934D01*
X181418052Y-98900000D01*
X181181948Y-98900000D01*
X180948752Y-98936934D01*
X180724197Y-99009897D01*
X180513830Y-99117084D01*
X180430894Y-99177340D01*
X181170591Y-99917037D01*
X181107007Y-99934075D01*
X180992993Y-99999901D01*
X180899901Y-100092993D01*
X180834075Y-100207007D01*
X180817037Y-100270591D01*
X180077340Y-99530894D01*
X180017084Y-99613830D01*
X179909897Y-99824197D01*
X179836934Y-100048752D01*
X179800000Y-100281947D01*
X162850000Y-100281947D01*
X162850000Y-100278006D01*
X162811834Y-100037040D01*
X162736439Y-99805001D01*
X162625676Y-99587619D01*
X162558456Y-99495097D01*
X162558454Y-99495096D01*
X161823787Y-100229764D01*
X161812518Y-100187708D01*
X161740110Y-100062292D01*
X161637708Y-99959890D01*
X161512292Y-99887482D01*
X161470233Y-99876212D01*
X162204902Y-99141544D01*
X162204901Y-99141543D01*
X162112380Y-99074323D01*
X161894998Y-98963560D01*
X161662959Y-98888165D01*
X161421993Y-98850000D01*
X161178007Y-98850000D01*
X160937040Y-98888165D01*
X160705001Y-98963560D01*
X160487626Y-99074319D01*
X160395097Y-99141544D01*
X161129766Y-99876212D01*
X161087708Y-99887482D01*
X160962292Y-99959890D01*
X160859890Y-100062292D01*
X160787482Y-100187708D01*
X160776212Y-100229765D01*
X160041544Y-99495097D01*
X159974319Y-99587626D01*
X159863560Y-99805001D01*
X159788165Y-100037040D01*
X159750000Y-100278006D01*
X133904798Y-100278006D01*
X133889959Y-100184315D01*
X133830616Y-100001678D01*
X133743434Y-99830577D01*
X133722201Y-99801352D01*
X133722200Y-99801351D01*
X133100000Y-100423552D01*
X133100000Y-100417339D01*
X133072741Y-100315606D01*
X133020080Y-100224394D01*
X132945606Y-100149920D01*
X132854394Y-100097259D01*
X132752661Y-100070000D01*
X132746447Y-100070000D01*
X133368646Y-99447798D01*
X133339415Y-99426561D01*
X133168321Y-99339383D01*
X133067836Y-99306734D01*
X132985684Y-99280040D01*
X132796015Y-99250000D01*
X132603985Y-99250000D01*
X132414315Y-99280040D01*
X132231678Y-99339383D01*
X132060578Y-99426564D01*
X132031352Y-99447798D01*
X132031351Y-99447798D01*
X132653554Y-100070000D01*
X132647339Y-100070000D01*
X132545606Y-100097259D01*
X132454394Y-100149920D01*
X132379920Y-100224394D01*
X132327259Y-100315606D01*
X132300000Y-100417339D01*
X132300000Y-100423553D01*
X131677798Y-99801351D01*
X131677798Y-99801352D01*
X131656564Y-99830578D01*
X131569383Y-100001678D01*
X131510040Y-100184315D01*
X131480000Y-100373984D01*
X131480000Y-100566015D01*
X131510040Y-100755684D01*
X131569383Y-100938321D01*
X131656561Y-101109415D01*
X131677798Y-101138646D01*
X132300000Y-100516445D01*
X132300000Y-100522661D01*
X132327259Y-100624394D01*
X132379920Y-100715606D01*
X132454394Y-100790080D01*
X132545606Y-100842741D01*
X132647339Y-100870000D01*
X132653554Y-100870000D01*
X132031351Y-101492200D01*
X132031352Y-101492201D01*
X132060577Y-101513434D01*
X132231680Y-101600616D01*
X132296891Y-101621805D01*
X132354567Y-101661242D01*
X132381765Y-101725601D01*
X132369850Y-101794447D01*
X132322606Y-101845923D01*
X132296892Y-101857667D01*
X132231492Y-101878917D01*
X132060318Y-101966135D01*
X131971645Y-102030560D01*
X131904898Y-102079055D01*
X131904896Y-102079057D01*
X131904895Y-102079057D01*
X131769057Y-102214895D01*
X131769057Y-102214896D01*
X131769055Y-102214898D01*
X131723492Y-102277610D01*
X131656135Y-102370318D01*
X131568916Y-102541493D01*
X131509553Y-102724197D01*
X131479500Y-102913945D01*
X116000500Y-102913945D01*
X116000500Y-94824986D01*
X152100001Y-94824986D01*
X152110494Y-94927697D01*
X152165641Y-95094119D01*
X152165643Y-95094124D01*
X152257684Y-95243345D01*
X152381654Y-95367315D01*
X152530875Y-95459356D01*
X152530880Y-95459358D01*
X152697302Y-95514505D01*
X152697309Y-95514506D01*
X152800019Y-95524999D01*
X153249999Y-95524999D01*
X153750000Y-95524999D01*
X154199972Y-95524999D01*
X154199986Y-95524998D01*
X154302697Y-95514505D01*
X154469119Y-95459358D01*
X154469124Y-95459356D01*
X154618345Y-95367315D01*
X154742315Y-95243345D01*
X154834356Y-95094124D01*
X154834358Y-95094119D01*
X154889505Y-94927697D01*
X154889506Y-94927690D01*
X154899999Y-94824986D01*
X154900000Y-94824973D01*
X154900000Y-94700000D01*
X153750000Y-94700000D01*
X153750000Y-95524999D01*
X153249999Y-95524999D01*
X153250000Y-95524998D01*
X153250000Y-94700000D01*
X152100001Y-94700000D01*
X152100001Y-94824986D01*
X116000500Y-94824986D01*
X116000500Y-92881947D01*
X125700000Y-92881947D01*
X125700000Y-93118052D01*
X125736934Y-93351247D01*
X125809897Y-93575802D01*
X125917087Y-93786174D01*
X125977338Y-93869104D01*
X125977340Y-93869105D01*
X126717037Y-93129408D01*
X126734075Y-93192993D01*
X126799901Y-93307007D01*
X126892993Y-93400099D01*
X127007007Y-93465925D01*
X127070590Y-93482962D01*
X126330893Y-94222658D01*
X126413828Y-94282914D01*
X126624197Y-94390102D01*
X126848752Y-94463065D01*
X126848751Y-94463065D01*
X127081948Y-94500000D01*
X127318052Y-94500000D01*
X127551247Y-94463065D01*
X127775802Y-94390102D01*
X127986163Y-94282918D01*
X127986169Y-94282914D01*
X128069104Y-94222658D01*
X128069105Y-94222658D01*
X127329408Y-93482962D01*
X127392993Y-93465925D01*
X127507007Y-93400099D01*
X127600099Y-93307007D01*
X127665925Y-93192993D01*
X127682962Y-93129409D01*
X128422658Y-93869105D01*
X128422658Y-93869104D01*
X128482914Y-93786169D01*
X128482918Y-93786163D01*
X128590102Y-93575802D01*
X128663065Y-93351247D01*
X128700000Y-93118052D01*
X128700000Y-92881947D01*
X128663065Y-92648752D01*
X128590102Y-92424197D01*
X128482914Y-92213828D01*
X128422658Y-92130894D01*
X128422658Y-92130893D01*
X127682962Y-92870590D01*
X127665925Y-92807007D01*
X127600099Y-92692993D01*
X127507007Y-92599901D01*
X127392993Y-92534075D01*
X127329409Y-92517037D01*
X128069105Y-91777340D01*
X128069104Y-91777338D01*
X127986174Y-91717087D01*
X127775802Y-91609897D01*
X127551247Y-91536934D01*
X127551248Y-91536934D01*
X127318052Y-91500000D01*
X127081948Y-91500000D01*
X126848752Y-91536934D01*
X126624197Y-91609897D01*
X126413830Y-91717084D01*
X126330894Y-91777340D01*
X127070591Y-92517037D01*
X127007007Y-92534075D01*
X126892993Y-92599901D01*
X126799901Y-92692993D01*
X126734075Y-92807007D01*
X126717037Y-92870591D01*
X125977340Y-92130894D01*
X125917084Y-92213830D01*
X125809897Y-92424197D01*
X125736934Y-92648752D01*
X125700000Y-92881947D01*
X116000500Y-92881947D01*
X116000500Y-90199839D01*
X116020185Y-90132800D01*
X116072989Y-90087045D01*
X116142147Y-90077101D01*
X116205703Y-90106126D01*
X116239517Y-90156412D01*
X116240315Y-90156082D01*
X116332160Y-90377819D01*
X116332165Y-90377828D01*
X116450144Y-90582171D01*
X116450145Y-90582172D01*
X116512721Y-90663723D01*
X117234152Y-89942292D01*
X117241049Y-89958942D01*
X117328599Y-90089970D01*
X117440030Y-90201401D01*
X117571058Y-90288951D01*
X117587706Y-90295846D01*
X116866275Y-91017277D01*
X116947827Y-91079854D01*
X116947828Y-91079855D01*
X117152171Y-91197834D01*
X117152180Y-91197839D01*
X117370163Y-91288129D01*
X117370161Y-91288129D01*
X117598085Y-91349200D01*
X117832014Y-91379999D01*
X117832029Y-91380000D01*
X118067971Y-91380000D01*
X118067985Y-91379999D01*
X118301914Y-91349200D01*
X118529837Y-91288129D01*
X118747819Y-91197839D01*
X118747828Y-91197834D01*
X118952181Y-91079850D01*
X119033723Y-91017279D01*
X119033723Y-91017276D01*
X118312293Y-90295847D01*
X118328942Y-90288951D01*
X118459970Y-90201401D01*
X118571401Y-90089970D01*
X118658951Y-89958942D01*
X118665847Y-89942293D01*
X119387276Y-90663723D01*
X119387279Y-90663723D01*
X119449850Y-90582181D01*
X119567834Y-90377828D01*
X119567839Y-90377819D01*
X119658129Y-90159837D01*
X119719200Y-89931914D01*
X119749999Y-89697985D01*
X119750000Y-89697971D01*
X119750000Y-89462028D01*
X119749999Y-89462014D01*
X119719200Y-89228085D01*
X119658129Y-89000162D01*
X119567839Y-88782180D01*
X119567834Y-88782171D01*
X119464920Y-88603921D01*
X119448447Y-88536021D01*
X119471299Y-88469994D01*
X119526220Y-88426803D01*
X119595773Y-88420161D01*
X119634302Y-88434531D01*
X119814112Y-88538344D01*
X119814117Y-88538346D01*
X119814123Y-88538349D01*
X119887721Y-88568834D01*
X120026113Y-88626158D01*
X120247762Y-88685548D01*
X120475266Y-88715500D01*
X120475273Y-88715500D01*
X120704727Y-88715500D01*
X120704734Y-88715500D01*
X120932238Y-88685548D01*
X121153887Y-88626158D01*
X121274247Y-88576302D01*
X121343714Y-88568834D01*
X121406194Y-88600109D01*
X121441846Y-88660198D01*
X121439353Y-88730023D01*
X121429086Y-88752863D01*
X121412166Y-88782169D01*
X121412160Y-88782180D01*
X121321870Y-89000162D01*
X121260799Y-89228085D01*
X121230000Y-89462014D01*
X121230000Y-89697985D01*
X121260799Y-89931914D01*
X121321870Y-90159837D01*
X121412160Y-90377819D01*
X121412165Y-90377828D01*
X121530144Y-90582171D01*
X121530145Y-90582172D01*
X121592721Y-90663723D01*
X122314152Y-89942292D01*
X122321049Y-89958942D01*
X122408599Y-90089970D01*
X122520030Y-90201401D01*
X122651058Y-90288951D01*
X122667706Y-90295846D01*
X121946275Y-91017277D01*
X122027827Y-91079854D01*
X122027828Y-91079855D01*
X122232171Y-91197834D01*
X122232180Y-91197839D01*
X122450163Y-91288129D01*
X122450161Y-91288129D01*
X122678085Y-91349200D01*
X122912014Y-91379999D01*
X122912029Y-91380000D01*
X123147971Y-91380000D01*
X123147985Y-91379999D01*
X123381914Y-91349200D01*
X123609837Y-91288129D01*
X123827819Y-91197839D01*
X123827828Y-91197834D01*
X124032181Y-91079850D01*
X124113723Y-91017279D01*
X124113723Y-91017276D01*
X123392293Y-90295847D01*
X123408942Y-90288951D01*
X123539970Y-90201401D01*
X123651401Y-90089970D01*
X123738951Y-89958942D01*
X123745847Y-89942293D01*
X124467276Y-90663723D01*
X124467279Y-90663723D01*
X124529850Y-90582181D01*
X124647834Y-90377828D01*
X124647839Y-90377819D01*
X124738129Y-90159837D01*
X124799200Y-89931914D01*
X124806816Y-89874071D01*
X141600000Y-89874071D01*
X141600000Y-90125928D01*
X141639397Y-90374669D01*
X141717219Y-90614184D01*
X141831557Y-90838583D01*
X141905748Y-90940697D01*
X141905748Y-90940698D01*
X142635387Y-90211059D01*
X142640889Y-90231591D01*
X142719881Y-90368408D01*
X142831592Y-90480119D01*
X142968409Y-90559111D01*
X142988940Y-90564612D01*
X142259300Y-91294250D01*
X142361416Y-91368442D01*
X142512356Y-91445351D01*
X142563152Y-91493326D01*
X142579947Y-91561147D01*
X142557409Y-91627282D01*
X142512356Y-91666321D01*
X142413566Y-91716657D01*
X142330047Y-91777338D01*
X142222490Y-91855483D01*
X142222488Y-91855485D01*
X142222487Y-91855485D01*
X142055485Y-92022487D01*
X142055485Y-92022488D01*
X142055483Y-92022490D01*
X141995862Y-92104550D01*
X141916657Y-92213566D01*
X141809433Y-92424003D01*
X141736446Y-92648631D01*
X141699500Y-92881902D01*
X141699500Y-93118097D01*
X141736446Y-93351368D01*
X141809433Y-93575996D01*
X141828577Y-93613567D01*
X141916657Y-93786433D01*
X142055483Y-93977510D01*
X142222490Y-94144517D01*
X142413567Y-94283343D01*
X142512991Y-94334002D01*
X142624003Y-94390566D01*
X142624005Y-94390566D01*
X142624008Y-94390568D01*
X142744412Y-94429689D01*
X142848631Y-94463553D01*
X143081903Y-94500500D01*
X143081908Y-94500500D01*
X143318097Y-94500500D01*
X143551368Y-94463553D01*
X143552870Y-94463065D01*
X143775992Y-94390568D01*
X143986433Y-94283343D01*
X144177510Y-94144517D01*
X144344517Y-93977510D01*
X144483343Y-93786433D01*
X144590568Y-93575992D01*
X144663553Y-93351368D01*
X144663572Y-93351247D01*
X144700500Y-93118097D01*
X144700500Y-92881902D01*
X144663553Y-92648631D01*
X144615259Y-92500000D01*
X144590568Y-92424008D01*
X144590566Y-92424005D01*
X144590566Y-92424003D01*
X144483477Y-92213830D01*
X144483343Y-92213567D01*
X144344517Y-92022490D01*
X144177510Y-91855483D01*
X143986433Y-91716657D01*
X143887643Y-91666321D01*
X143836847Y-91618346D01*
X143820052Y-91550525D01*
X143842589Y-91484390D01*
X143887643Y-91445351D01*
X144038575Y-91368446D01*
X144038581Y-91368442D01*
X144140697Y-91294250D01*
X144140698Y-91294250D01*
X143411059Y-90564612D01*
X143431591Y-90559111D01*
X143568408Y-90480119D01*
X143680119Y-90368408D01*
X143759111Y-90231591D01*
X143764612Y-90211060D01*
X144494250Y-90940698D01*
X144494250Y-90940697D01*
X144568442Y-90838581D01*
X144568446Y-90838575D01*
X144682780Y-90614184D01*
X144760602Y-90374669D01*
X144800000Y-90125928D01*
X144800000Y-89874071D01*
X144799995Y-89874038D01*
X148399500Y-89874038D01*
X148399500Y-90125962D01*
X148416083Y-90230664D01*
X148438910Y-90374785D01*
X148516760Y-90614383D01*
X148595413Y-90768747D01*
X148630995Y-90838581D01*
X148631132Y-90838848D01*
X148779201Y-91042649D01*
X148779205Y-91042654D01*
X148957345Y-91220794D01*
X148957350Y-91220798D01*
X149135117Y-91349952D01*
X149161155Y-91368870D01*
X149302182Y-91440727D01*
X149311807Y-91445631D01*
X149362603Y-91493606D01*
X149379398Y-91561427D01*
X149356861Y-91627562D01*
X149311807Y-91666601D01*
X149213566Y-91716657D01*
X149130047Y-91777338D01*
X149022490Y-91855483D01*
X149022488Y-91855485D01*
X149022487Y-91855485D01*
X148855485Y-92022487D01*
X148855485Y-92022488D01*
X148855483Y-92022490D01*
X148795862Y-92104550D01*
X148716657Y-92213566D01*
X148609433Y-92424003D01*
X148536446Y-92648631D01*
X148499500Y-92881902D01*
X148499500Y-93118097D01*
X148536446Y-93351368D01*
X148609433Y-93575996D01*
X148628577Y-93613567D01*
X148716657Y-93786433D01*
X148855483Y-93977510D01*
X149022490Y-94144517D01*
X149213567Y-94283343D01*
X149312991Y-94334002D01*
X149424003Y-94390566D01*
X149424005Y-94390566D01*
X149424008Y-94390568D01*
X149544412Y-94429689D01*
X149648631Y-94463553D01*
X149881903Y-94500500D01*
X149881908Y-94500500D01*
X150118097Y-94500500D01*
X150351368Y-94463553D01*
X150352870Y-94463065D01*
X150575992Y-94390568D01*
X150786433Y-94283343D01*
X150793824Y-94277973D01*
X159749500Y-94277973D01*
X159749500Y-94522026D01*
X159785824Y-94751368D01*
X159787679Y-94763076D01*
X159863096Y-94995185D01*
X159960541Y-95186433D01*
X159973896Y-95212642D01*
X160117339Y-95410076D01*
X160117343Y-95410081D01*
X160289918Y-95582656D01*
X160289923Y-95582660D01*
X160462136Y-95707779D01*
X160487361Y-95726106D01*
X160704815Y-95836904D01*
X160936924Y-95912321D01*
X161177973Y-95950500D01*
X161177974Y-95950500D01*
X161422026Y-95950500D01*
X161422027Y-95950500D01*
X161663076Y-95912321D01*
X161895185Y-95836904D01*
X162112639Y-95726106D01*
X162310083Y-95582655D01*
X162482655Y-95410083D01*
X162626106Y-95212639D01*
X162736904Y-94995185D01*
X162812321Y-94763076D01*
X162850500Y-94522027D01*
X162850500Y-94277973D01*
X162812321Y-94036924D01*
X162736904Y-93804815D01*
X162626106Y-93587361D01*
X162562635Y-93500000D01*
X162482660Y-93389923D01*
X162482656Y-93389918D01*
X162310081Y-93217343D01*
X162310076Y-93217339D01*
X162112642Y-93073896D01*
X162112641Y-93073895D01*
X162112639Y-93073894D01*
X161895185Y-92963096D01*
X161663076Y-92887679D01*
X161663074Y-92887678D01*
X161663072Y-92887678D01*
X161494769Y-92861021D01*
X161422027Y-92849500D01*
X161177973Y-92849500D01*
X161122093Y-92858350D01*
X160936927Y-92887678D01*
X160704812Y-92963097D01*
X160487357Y-93073896D01*
X160289923Y-93217339D01*
X160289918Y-93217343D01*
X160117343Y-93389918D01*
X160117339Y-93389923D01*
X159973896Y-93587357D01*
X159863097Y-93804812D01*
X159787678Y-94036927D01*
X159749500Y-94277973D01*
X150793824Y-94277973D01*
X150977510Y-94144517D01*
X151144517Y-93977510D01*
X151283343Y-93786433D01*
X151390568Y-93575992D01*
X151463553Y-93351368D01*
X151463572Y-93351247D01*
X151500500Y-93118097D01*
X151500500Y-92881902D01*
X151463553Y-92648631D01*
X151415259Y-92500000D01*
X151390568Y-92424008D01*
X151390566Y-92424005D01*
X151390566Y-92424003D01*
X151283477Y-92213830D01*
X151283343Y-92213567D01*
X151144517Y-92022490D01*
X150977510Y-91855483D01*
X150786433Y-91716657D01*
X150688191Y-91666600D01*
X150637396Y-91618627D01*
X150620601Y-91550806D01*
X150643138Y-91484671D01*
X150688190Y-91445632D01*
X150838845Y-91368870D01*
X150949976Y-91288129D01*
X150969173Y-91274182D01*
X151034979Y-91250702D01*
X151042058Y-91250500D01*
X151975500Y-91250500D01*
X152042539Y-91270185D01*
X152088294Y-91322989D01*
X152099500Y-91374500D01*
X152099500Y-91875001D01*
X152099501Y-91875019D01*
X152110000Y-91977796D01*
X152110001Y-91977799D01*
X152160732Y-92130893D01*
X152165186Y-92144334D01*
X152257288Y-92293656D01*
X152381344Y-92417712D01*
X152530666Y-92509814D01*
X152530667Y-92509814D01*
X152530670Y-92509816D01*
X152554999Y-92517877D01*
X152612446Y-92557647D01*
X152639271Y-92622162D01*
X152640000Y-92635584D01*
X152640000Y-93314941D01*
X152620315Y-93381980D01*
X152567511Y-93427735D01*
X152555006Y-93432646D01*
X152530880Y-93440640D01*
X152381654Y-93532684D01*
X152257684Y-93656654D01*
X152165643Y-93805875D01*
X152165641Y-93805880D01*
X152110494Y-93972302D01*
X152110493Y-93972309D01*
X152100000Y-94075013D01*
X152100000Y-94200000D01*
X154899999Y-94200000D01*
X154899999Y-94075028D01*
X154899998Y-94075013D01*
X154889505Y-93972302D01*
X154834358Y-93805880D01*
X154834356Y-93805875D01*
X154742315Y-93656654D01*
X154618344Y-93532683D01*
X154618340Y-93532680D01*
X154518903Y-93471346D01*
X154472178Y-93419398D01*
X154460000Y-93365808D01*
X154460000Y-92584778D01*
X154479685Y-92517739D01*
X154518904Y-92479239D01*
X154618656Y-92417712D01*
X154742712Y-92293656D01*
X154834814Y-92144334D01*
X154889999Y-91977797D01*
X154900500Y-91875009D01*
X154900499Y-91374499D01*
X154920183Y-91307461D01*
X154972987Y-91261706D01*
X155024499Y-91250500D01*
X164898422Y-91250500D01*
X165092826Y-91219709D01*
X165280025Y-91158884D01*
X165455405Y-91069524D01*
X165614646Y-90953828D01*
X165753828Y-90814646D01*
X165869524Y-90655405D01*
X165958884Y-90480025D01*
X166019709Y-90292826D01*
X166029408Y-90231591D01*
X166050500Y-90098422D01*
X166050500Y-89901577D01*
X166019709Y-89707173D01*
X165958882Y-89519970D01*
X165897754Y-89400000D01*
X165869524Y-89344595D01*
X165753828Y-89185354D01*
X165614646Y-89046172D01*
X165455405Y-88930476D01*
X165280029Y-88841117D01*
X165092826Y-88780290D01*
X164898422Y-88749500D01*
X164898417Y-88749500D01*
X164698417Y-88749500D01*
X163748417Y-88749500D01*
X155024500Y-88749500D01*
X154957461Y-88729815D01*
X154911706Y-88677011D01*
X154900500Y-88625500D01*
X154900499Y-88124998D01*
X154900498Y-88124980D01*
X154889999Y-88022203D01*
X154889998Y-88022200D01*
X154875190Y-87977512D01*
X154834814Y-87855666D01*
X154742712Y-87706344D01*
X154618656Y-87582288D01*
X154518903Y-87520760D01*
X154472178Y-87468812D01*
X154460000Y-87415221D01*
X154460000Y-86634191D01*
X154479685Y-86567152D01*
X154518903Y-86528652D01*
X154618345Y-86467315D01*
X154742315Y-86343345D01*
X154834356Y-86194124D01*
X154834358Y-86194119D01*
X154889505Y-86027697D01*
X154889506Y-86027690D01*
X154899999Y-85924986D01*
X154900000Y-85924973D01*
X154900000Y-85800000D01*
X152100001Y-85800000D01*
X152100001Y-85924986D01*
X152110494Y-86027697D01*
X152165641Y-86194119D01*
X152165643Y-86194124D01*
X152257684Y-86343345D01*
X152381654Y-86467315D01*
X152530875Y-86559356D01*
X152530880Y-86559358D01*
X152555004Y-86567352D01*
X152612449Y-86607124D01*
X152639272Y-86671640D01*
X152640000Y-86685058D01*
X152640000Y-87364415D01*
X152620315Y-87431454D01*
X152567511Y-87477209D01*
X152555006Y-87482120D01*
X152530672Y-87490183D01*
X152530663Y-87490187D01*
X152381342Y-87582289D01*
X152257289Y-87706342D01*
X152165187Y-87855663D01*
X152165185Y-87855668D01*
X152148891Y-87904842D01*
X152110001Y-88022203D01*
X152110001Y-88022204D01*
X152110000Y-88022204D01*
X152099500Y-88124983D01*
X152099500Y-88124991D01*
X152099500Y-88434533D01*
X152099501Y-88625500D01*
X152079817Y-88692539D01*
X152027013Y-88738294D01*
X151975501Y-88749500D01*
X151042058Y-88749500D01*
X150975019Y-88729815D01*
X150969173Y-88725818D01*
X150838848Y-88631132D01*
X150838847Y-88631131D01*
X150838845Y-88631130D01*
X150734232Y-88577827D01*
X150688192Y-88554368D01*
X150637396Y-88506393D01*
X150620601Y-88438572D01*
X150643139Y-88372437D01*
X150688190Y-88333399D01*
X150786433Y-88283343D01*
X150977510Y-88144517D01*
X151144517Y-87977510D01*
X151283343Y-87786433D01*
X151390568Y-87575992D01*
X151463553Y-87351368D01*
X151470542Y-87307240D01*
X151500500Y-87118097D01*
X151500500Y-86881902D01*
X151463553Y-86648631D01*
X151405221Y-86469105D01*
X151390568Y-86424008D01*
X151390566Y-86424005D01*
X151390566Y-86424003D01*
X151283342Y-86213566D01*
X151283137Y-86213284D01*
X151144517Y-86022490D01*
X150977510Y-85855483D01*
X150786433Y-85716657D01*
X150686672Y-85665826D01*
X150575996Y-85609433D01*
X150545802Y-85599622D01*
X150484439Y-85579684D01*
X150351368Y-85536446D01*
X150118097Y-85499500D01*
X150118092Y-85499500D01*
X149881908Y-85499500D01*
X149881903Y-85499500D01*
X149648631Y-85536446D01*
X149424003Y-85609433D01*
X149213566Y-85716657D01*
X149108500Y-85792993D01*
X149022490Y-85855483D01*
X149022488Y-85855485D01*
X149022487Y-85855485D01*
X148855485Y-86022487D01*
X148855485Y-86022488D01*
X148855483Y-86022490D01*
X148851705Y-86027690D01*
X148716657Y-86213566D01*
X148609433Y-86424003D01*
X148536446Y-86648631D01*
X148499500Y-86881902D01*
X148499500Y-87118097D01*
X148536446Y-87351368D01*
X148609433Y-87575996D01*
X148713379Y-87780000D01*
X148716657Y-87786433D01*
X148855483Y-87977510D01*
X149022490Y-88144517D01*
X149165797Y-88248636D01*
X149213568Y-88283344D01*
X149311806Y-88333398D01*
X149362603Y-88381372D01*
X149379398Y-88449193D01*
X149356861Y-88515328D01*
X149311807Y-88554367D01*
X149161156Y-88631128D01*
X149161155Y-88631129D01*
X148957350Y-88779201D01*
X148957345Y-88779205D01*
X148779205Y-88957345D01*
X148779201Y-88957350D01*
X148631132Y-89161151D01*
X148516760Y-89385616D01*
X148453601Y-89580000D01*
X148438910Y-89625215D01*
X148399500Y-89874038D01*
X144799995Y-89874038D01*
X144760602Y-89625330D01*
X144682780Y-89385815D01*
X144568442Y-89161416D01*
X144494250Y-89059301D01*
X144494250Y-89059300D01*
X143764612Y-89788939D01*
X143759111Y-89768409D01*
X143680119Y-89631592D01*
X143568408Y-89519881D01*
X143431591Y-89440889D01*
X143411058Y-89435387D01*
X144140698Y-88705748D01*
X144038581Y-88631555D01*
X143887642Y-88554647D01*
X143836847Y-88506673D01*
X143820052Y-88438852D01*
X143842590Y-88372717D01*
X143887642Y-88333679D01*
X143986433Y-88283343D01*
X144177510Y-88144517D01*
X144344517Y-87977510D01*
X144483343Y-87786433D01*
X144590568Y-87575992D01*
X144663553Y-87351368D01*
X144670542Y-87307240D01*
X144700500Y-87118097D01*
X144700500Y-86881902D01*
X144663553Y-86648631D01*
X144605221Y-86469105D01*
X144590568Y-86424008D01*
X144590566Y-86424005D01*
X144590566Y-86424003D01*
X144483342Y-86213566D01*
X144483137Y-86213284D01*
X144344517Y-86022490D01*
X144177510Y-85855483D01*
X143986433Y-85716657D01*
X143886672Y-85665826D01*
X143775996Y-85609433D01*
X143551368Y-85536446D01*
X143318097Y-85499500D01*
X143318092Y-85499500D01*
X143081908Y-85499500D01*
X143081903Y-85499500D01*
X142848631Y-85536446D01*
X142624003Y-85609433D01*
X142413566Y-85716657D01*
X142308500Y-85792993D01*
X142222490Y-85855483D01*
X142222488Y-85855485D01*
X142222487Y-85855485D01*
X142055485Y-86022487D01*
X142055485Y-86022488D01*
X142055483Y-86022490D01*
X142051705Y-86027690D01*
X141916657Y-86213566D01*
X141809433Y-86424003D01*
X141736446Y-86648631D01*
X141699500Y-86881902D01*
X141699500Y-87118097D01*
X141736446Y-87351368D01*
X141809433Y-87575996D01*
X141913379Y-87780000D01*
X141916657Y-87786433D01*
X142055483Y-87977510D01*
X142222490Y-88144517D01*
X142413567Y-88283343D01*
X142512357Y-88333679D01*
X142563152Y-88381652D01*
X142579947Y-88449473D01*
X142557410Y-88515608D01*
X142512357Y-88554647D01*
X142361415Y-88631557D01*
X142259301Y-88705747D01*
X142259300Y-88705748D01*
X142988940Y-89435387D01*
X142968409Y-89440889D01*
X142831592Y-89519881D01*
X142719881Y-89631592D01*
X142640889Y-89768409D01*
X142635387Y-89788940D01*
X141905748Y-89059300D01*
X141905747Y-89059301D01*
X141831559Y-89161413D01*
X141717219Y-89385815D01*
X141639397Y-89625330D01*
X141600000Y-89874071D01*
X124806816Y-89874071D01*
X124809588Y-89853019D01*
X124829999Y-89697985D01*
X124830000Y-89697971D01*
X124830000Y-89462028D01*
X124829999Y-89462014D01*
X124799200Y-89228085D01*
X124738129Y-89000162D01*
X124647839Y-88782180D01*
X124647834Y-88782171D01*
X124529855Y-88577828D01*
X124529854Y-88577827D01*
X124467277Y-88496275D01*
X123745846Y-89217705D01*
X123738951Y-89201058D01*
X123651401Y-89070030D01*
X123539970Y-88958599D01*
X123408942Y-88871049D01*
X123392292Y-88864152D01*
X124113723Y-88142721D01*
X124032172Y-88080145D01*
X124032171Y-88080144D01*
X123827828Y-87962165D01*
X123827819Y-87962160D01*
X123609836Y-87871870D01*
X123609838Y-87871870D01*
X123381914Y-87810799D01*
X123147985Y-87780000D01*
X122912014Y-87780000D01*
X122678085Y-87810799D01*
X122450162Y-87871870D01*
X122311286Y-87929394D01*
X122241817Y-87936863D01*
X122179338Y-87905587D01*
X122143686Y-87845498D01*
X122146180Y-87775673D01*
X122156449Y-87752830D01*
X122163344Y-87740888D01*
X122251158Y-87528887D01*
X122310548Y-87307238D01*
X122340500Y-87079734D01*
X122340500Y-86881902D01*
X125699500Y-86881902D01*
X125699500Y-87118097D01*
X125736446Y-87351368D01*
X125809433Y-87575996D01*
X125913379Y-87780000D01*
X125916657Y-87786433D01*
X126055483Y-87977510D01*
X126222490Y-88144517D01*
X126413567Y-88283343D01*
X126511806Y-88333398D01*
X126624003Y-88390566D01*
X126624005Y-88390566D01*
X126624008Y-88390568D01*
X126744412Y-88429689D01*
X126848631Y-88463553D01*
X127081903Y-88500500D01*
X127081908Y-88500500D01*
X127318097Y-88500500D01*
X127551368Y-88463553D01*
X127775992Y-88390568D01*
X127986433Y-88283343D01*
X128177510Y-88144517D01*
X128344517Y-87977510D01*
X128483343Y-87786433D01*
X128590568Y-87575992D01*
X128663553Y-87351368D01*
X128670542Y-87307240D01*
X128700500Y-87118097D01*
X128700500Y-86881902D01*
X128663553Y-86648631D01*
X128605221Y-86469105D01*
X128590568Y-86424008D01*
X128590566Y-86424005D01*
X128590566Y-86424003D01*
X128483342Y-86213566D01*
X128483137Y-86213284D01*
X128344517Y-86022490D01*
X128177510Y-85855483D01*
X127986433Y-85716657D01*
X127886672Y-85665826D01*
X127775996Y-85609433D01*
X127551368Y-85536446D01*
X127318097Y-85499500D01*
X127318092Y-85499500D01*
X127081908Y-85499500D01*
X127081903Y-85499500D01*
X126848631Y-85536446D01*
X126624003Y-85609433D01*
X126413566Y-85716657D01*
X126308500Y-85792993D01*
X126222490Y-85855483D01*
X126222488Y-85855485D01*
X126222487Y-85855485D01*
X126055485Y-86022487D01*
X126055485Y-86022488D01*
X126055483Y-86022490D01*
X126051705Y-86027690D01*
X125916657Y-86213566D01*
X125809433Y-86424003D01*
X125736446Y-86648631D01*
X125699500Y-86881902D01*
X122340500Y-86881902D01*
X122340500Y-86850266D01*
X122310548Y-86622762D01*
X122251158Y-86401113D01*
X122228010Y-86345230D01*
X122220542Y-86275763D01*
X122251817Y-86213284D01*
X122311906Y-86177632D01*
X122381731Y-86180126D01*
X122390025Y-86183219D01*
X122450165Y-86208130D01*
X122678085Y-86269200D01*
X122912014Y-86299999D01*
X122912029Y-86300000D01*
X123147971Y-86300000D01*
X123147985Y-86299999D01*
X123381914Y-86269200D01*
X123609837Y-86208129D01*
X123827819Y-86117839D01*
X123827828Y-86117834D01*
X124032181Y-85999850D01*
X124113723Y-85937279D01*
X124113723Y-85937276D01*
X123392293Y-85215847D01*
X123408942Y-85208951D01*
X123539970Y-85121401D01*
X123651401Y-85009970D01*
X123738951Y-84878942D01*
X123745847Y-84862293D01*
X124467276Y-85583723D01*
X124467279Y-85583723D01*
X124529850Y-85502181D01*
X124543827Y-85477973D01*
X159749500Y-85477973D01*
X159749500Y-85722026D01*
X159786170Y-85953554D01*
X159787679Y-85963076D01*
X159863096Y-86195185D01*
X159968022Y-86401115D01*
X159973896Y-86412642D01*
X160117339Y-86610076D01*
X160117343Y-86610081D01*
X160289918Y-86782656D01*
X160289923Y-86782660D01*
X160462136Y-86907779D01*
X160487361Y-86926106D01*
X160704815Y-87036904D01*
X160936924Y-87112321D01*
X161177973Y-87150500D01*
X161177974Y-87150500D01*
X161422026Y-87150500D01*
X161422027Y-87150500D01*
X161663076Y-87112321D01*
X161895185Y-87036904D01*
X162112639Y-86926106D01*
X162310083Y-86782655D01*
X162482655Y-86610083D01*
X162626106Y-86412639D01*
X162736904Y-86195185D01*
X162812321Y-85963076D01*
X162850500Y-85722027D01*
X162850500Y-85477973D01*
X162812321Y-85236924D01*
X162736904Y-85004815D01*
X162626106Y-84787361D01*
X162586866Y-84733351D01*
X162482660Y-84589923D01*
X162482656Y-84589918D01*
X162310081Y-84417343D01*
X162310076Y-84417339D01*
X162112642Y-84273896D01*
X162112641Y-84273895D01*
X162112639Y-84273894D01*
X161895185Y-84163096D01*
X161663076Y-84087679D01*
X161663074Y-84087678D01*
X161663072Y-84087678D01*
X161494769Y-84061021D01*
X161422027Y-84049500D01*
X161177973Y-84049500D01*
X161122093Y-84058350D01*
X160936927Y-84087678D01*
X160704812Y-84163097D01*
X160487357Y-84273896D01*
X160289923Y-84417339D01*
X160289918Y-84417343D01*
X160117343Y-84589918D01*
X160117339Y-84589923D01*
X159973896Y-84787357D01*
X159863097Y-85004812D01*
X159787678Y-85236927D01*
X159749500Y-85477973D01*
X124543827Y-85477973D01*
X124647834Y-85297828D01*
X124647839Y-85297819D01*
X124698707Y-85175013D01*
X152100000Y-85175013D01*
X152100000Y-85300000D01*
X153250000Y-85300000D01*
X153750000Y-85300000D01*
X154899999Y-85300000D01*
X154899999Y-85175028D01*
X154899998Y-85175013D01*
X154889505Y-85072302D01*
X154834358Y-84905880D01*
X154834356Y-84905875D01*
X154742315Y-84756654D01*
X154618345Y-84632684D01*
X154469124Y-84540643D01*
X154469119Y-84540641D01*
X154302697Y-84485494D01*
X154302690Y-84485493D01*
X154199986Y-84475000D01*
X153750000Y-84475000D01*
X153750000Y-85300000D01*
X153250000Y-85300000D01*
X153250000Y-84475000D01*
X152800028Y-84475000D01*
X152800012Y-84475001D01*
X152697302Y-84485494D01*
X152530880Y-84540641D01*
X152530875Y-84540643D01*
X152381654Y-84632684D01*
X152257684Y-84756654D01*
X152165643Y-84905875D01*
X152165641Y-84905880D01*
X152110494Y-85072302D01*
X152110493Y-85072309D01*
X152100000Y-85175013D01*
X124698707Y-85175013D01*
X124719666Y-85124412D01*
X124719666Y-85124411D01*
X124738130Y-85079834D01*
X124799200Y-84851914D01*
X124829999Y-84617985D01*
X124830000Y-84617971D01*
X124830000Y-84382028D01*
X124829999Y-84382014D01*
X124799200Y-84148085D01*
X124738129Y-83920162D01*
X124647839Y-83702180D01*
X124647834Y-83702171D01*
X124529855Y-83497828D01*
X124529854Y-83497827D01*
X124467277Y-83416275D01*
X123745846Y-84137705D01*
X123738951Y-84121058D01*
X123651401Y-83990030D01*
X123539970Y-83878599D01*
X123408942Y-83791049D01*
X123392293Y-83784152D01*
X124113723Y-83062721D01*
X124032172Y-83000145D01*
X124032171Y-83000144D01*
X123827828Y-82882165D01*
X123827819Y-82882160D01*
X123609836Y-82791870D01*
X123609838Y-82791870D01*
X123381914Y-82730799D01*
X123147985Y-82700000D01*
X122912014Y-82700000D01*
X122678085Y-82730799D01*
X122450162Y-82791870D01*
X122232180Y-82882160D01*
X122232171Y-82882165D01*
X122027828Y-83000144D01*
X122027818Y-83000150D01*
X121946275Y-83062720D01*
X121946275Y-83062721D01*
X122667706Y-83784152D01*
X122651058Y-83791049D01*
X122520030Y-83878599D01*
X122408599Y-83990030D01*
X122321049Y-84121058D01*
X122314152Y-84137706D01*
X121592721Y-83416275D01*
X121592720Y-83416275D01*
X121530150Y-83497818D01*
X121530144Y-83497828D01*
X121412165Y-83702171D01*
X121412160Y-83702180D01*
X121321870Y-83920162D01*
X121260799Y-84148085D01*
X121230000Y-84382014D01*
X121230000Y-84617985D01*
X121260799Y-84851914D01*
X121321870Y-85079837D01*
X121354102Y-85157653D01*
X121361571Y-85227123D01*
X121330295Y-85289602D01*
X121270206Y-85325253D01*
X121200381Y-85322759D01*
X121192101Y-85319671D01*
X121153887Y-85303842D01*
X121153885Y-85303841D01*
X121153884Y-85303841D01*
X121088035Y-85286197D01*
X120932238Y-85244452D01*
X120894215Y-85239446D01*
X120704741Y-85214500D01*
X120704734Y-85214500D01*
X120475266Y-85214500D01*
X120475258Y-85214500D01*
X120258715Y-85243009D01*
X120247762Y-85244452D01*
X120155187Y-85269257D01*
X120026112Y-85303842D01*
X119814123Y-85391650D01*
X119814106Y-85391659D01*
X119755696Y-85425381D01*
X119687796Y-85441852D01*
X119621769Y-85418999D01*
X119578580Y-85364077D01*
X119571939Y-85294524D01*
X119579137Y-85270540D01*
X119658130Y-85079834D01*
X119719200Y-84851914D01*
X119749999Y-84617985D01*
X119750000Y-84617971D01*
X119750000Y-84382028D01*
X119749999Y-84382014D01*
X119719200Y-84148085D01*
X119658129Y-83920162D01*
X119567839Y-83702180D01*
X119567834Y-83702171D01*
X119449855Y-83497828D01*
X119449854Y-83497827D01*
X119387277Y-83416275D01*
X118665846Y-84137706D01*
X118658951Y-84121058D01*
X118571401Y-83990030D01*
X118459970Y-83878599D01*
X118328942Y-83791049D01*
X118312293Y-83784152D01*
X119033723Y-83062721D01*
X118952172Y-83000145D01*
X118952171Y-83000144D01*
X118747828Y-82882165D01*
X118747819Y-82882160D01*
X118529836Y-82791870D01*
X118529838Y-82791870D01*
X118301914Y-82730799D01*
X118067985Y-82700000D01*
X117832014Y-82700000D01*
X117598085Y-82730799D01*
X117370162Y-82791870D01*
X117152180Y-82882160D01*
X117152171Y-82882165D01*
X116947828Y-83000144D01*
X116947818Y-83000150D01*
X116866275Y-83062720D01*
X116866275Y-83062721D01*
X117587706Y-83784152D01*
X117571058Y-83791049D01*
X117440030Y-83878599D01*
X117328599Y-83990030D01*
X117241049Y-84121058D01*
X117234152Y-84137706D01*
X116512721Y-83416275D01*
X116512720Y-83416275D01*
X116450150Y-83497818D01*
X116450144Y-83497828D01*
X116332165Y-83702171D01*
X116332160Y-83702180D01*
X116240315Y-83923918D01*
X116239434Y-83923553D01*
X116201729Y-83977174D01*
X116137020Y-84003526D01*
X116068335Y-83990711D01*
X116017483Y-83942796D01*
X116000500Y-83880160D01*
X116000500Y-75263945D01*
X133229500Y-75263945D01*
X133229500Y-75456054D01*
X133259553Y-75645802D01*
X133318916Y-75828506D01*
X133318918Y-75828509D01*
X133406135Y-75999681D01*
X133519055Y-76155102D01*
X133654898Y-76290945D01*
X133810319Y-76403865D01*
X133981491Y-76491082D01*
X133981493Y-76491083D01*
X134046081Y-76512069D01*
X134103756Y-76551506D01*
X134130955Y-76615865D01*
X134119041Y-76684711D01*
X134071797Y-76736187D01*
X134046081Y-76747931D01*
X133981493Y-76768916D01*
X133810318Y-76856135D01*
X133721645Y-76920560D01*
X133654898Y-76969055D01*
X133654896Y-76969057D01*
X133654895Y-76969057D01*
X133519057Y-77104895D01*
X133519057Y-77104896D01*
X133519055Y-77104898D01*
X133472845Y-77168500D01*
X133406135Y-77260318D01*
X133318916Y-77431493D01*
X133259553Y-77614197D01*
X133229500Y-77803945D01*
X133229500Y-77996054D01*
X133259553Y-78185802D01*
X133318916Y-78368506D01*
X133363235Y-78455485D01*
X133406135Y-78539681D01*
X133519055Y-78695102D01*
X133654898Y-78830945D01*
X133810319Y-78943865D01*
X133967598Y-79024003D01*
X133981493Y-79031083D01*
X134039715Y-79050000D01*
X134164199Y-79090447D01*
X134353945Y-79120500D01*
X134353946Y-79120500D01*
X134546054Y-79120500D01*
X134546055Y-79120500D01*
X134735801Y-79090447D01*
X134918509Y-79031082D01*
X135089681Y-78943865D01*
X135245102Y-78830945D01*
X135380945Y-78695102D01*
X135493865Y-78539681D01*
X135510443Y-78507146D01*
X151047000Y-78507146D01*
X151047000Y-78735853D01*
X151082778Y-78961746D01*
X151082778Y-78961749D01*
X151153450Y-79179255D01*
X151195760Y-79262292D01*
X151257283Y-79383038D01*
X151391714Y-79568066D01*
X151553434Y-79729786D01*
X151738462Y-79864217D01*
X151909506Y-79951368D01*
X151942244Y-79968049D01*
X152159751Y-80038721D01*
X152159752Y-80038721D01*
X152159755Y-80038722D01*
X152385646Y-80074500D01*
X152385647Y-80074500D01*
X152614353Y-80074500D01*
X152614354Y-80074500D01*
X152840245Y-80038722D01*
X152840248Y-80038721D01*
X152840249Y-80038721D01*
X153057755Y-79968049D01*
X153057755Y-79968048D01*
X153057758Y-79968048D01*
X153261538Y-79864217D01*
X153446566Y-79729786D01*
X153608286Y-79568066D01*
X153658749Y-79498609D01*
X153662927Y-79493936D01*
X153687488Y-79478682D01*
X153710385Y-79461026D01*
X153717641Y-79459956D01*
X153722282Y-79457074D01*
X153735776Y-79457282D01*
X153765103Y-79452959D01*
X153811348Y-79456598D01*
X154476212Y-78791734D01*
X154487482Y-78833792D01*
X154559890Y-78959208D01*
X154662292Y-79061610D01*
X154787708Y-79134018D01*
X154829765Y-79145287D01*
X154164899Y-79810151D01*
X154238725Y-79863788D01*
X154238731Y-79863792D01*
X154442431Y-79967582D01*
X154659875Y-80038234D01*
X154885687Y-80074000D01*
X155114313Y-80074000D01*
X155340124Y-80038234D01*
X155340125Y-80038234D01*
X155557568Y-79967582D01*
X155761276Y-79863788D01*
X155835098Y-79810151D01*
X155170234Y-79145287D01*
X155212292Y-79134018D01*
X155337708Y-79061610D01*
X155440110Y-78959208D01*
X155512518Y-78833792D01*
X155523787Y-78791735D01*
X156188650Y-79456598D01*
X156234896Y-79452959D01*
X156303273Y-79467323D01*
X156344942Y-79503690D01*
X156391714Y-79568066D01*
X156553434Y-79729786D01*
X156738462Y-79864217D01*
X156909506Y-79951368D01*
X156942244Y-79968049D01*
X157159751Y-80038721D01*
X157159752Y-80038721D01*
X157159755Y-80038722D01*
X157385646Y-80074500D01*
X157385647Y-80074500D01*
X157614353Y-80074500D01*
X157614354Y-80074500D01*
X157840245Y-80038722D01*
X157840248Y-80038721D01*
X157840249Y-80038721D01*
X158057755Y-79968049D01*
X158057755Y-79968048D01*
X158057758Y-79968048D01*
X158261538Y-79864217D01*
X158446566Y-79729786D01*
X158608286Y-79568066D01*
X158673719Y-79478006D01*
X159750000Y-79478006D01*
X159750000Y-79721993D01*
X159788165Y-79962959D01*
X159863560Y-80194998D01*
X159974323Y-80412380D01*
X160041543Y-80504901D01*
X160041544Y-80504902D01*
X160776212Y-79770234D01*
X160787482Y-79812292D01*
X160859890Y-79937708D01*
X160962292Y-80040110D01*
X161087708Y-80112518D01*
X161129765Y-80123787D01*
X160395096Y-80858454D01*
X160395097Y-80858456D01*
X160487619Y-80925676D01*
X160705001Y-81036439D01*
X160937040Y-81111834D01*
X161178007Y-81150000D01*
X161421993Y-81150000D01*
X161662959Y-81111834D01*
X161894998Y-81036439D01*
X162112377Y-80925678D01*
X162204901Y-80858454D01*
X162204902Y-80858454D01*
X161470234Y-80123787D01*
X161512292Y-80112518D01*
X161637708Y-80040110D01*
X161740110Y-79937708D01*
X161812518Y-79812292D01*
X161823787Y-79770234D01*
X162558454Y-80504902D01*
X162558454Y-80504901D01*
X162625678Y-80412377D01*
X162736439Y-80194998D01*
X162811834Y-79962959D01*
X162850000Y-79721993D01*
X162850000Y-79478006D01*
X162811834Y-79237040D01*
X162736439Y-79005001D01*
X162625676Y-78787619D01*
X162558456Y-78695097D01*
X162558454Y-78695096D01*
X161823787Y-79429764D01*
X161812518Y-79387708D01*
X161740110Y-79262292D01*
X161637708Y-79159890D01*
X161512292Y-79087482D01*
X161470233Y-79076212D01*
X162204902Y-78341544D01*
X162204901Y-78341543D01*
X162112380Y-78274323D01*
X161894998Y-78163560D01*
X161662959Y-78088165D01*
X161421993Y-78050000D01*
X161178007Y-78050000D01*
X160937040Y-78088165D01*
X160705001Y-78163560D01*
X160487626Y-78274319D01*
X160395097Y-78341544D01*
X161129766Y-79076212D01*
X161087708Y-79087482D01*
X160962292Y-79159890D01*
X160859890Y-79262292D01*
X160787482Y-79387708D01*
X160776212Y-79429765D01*
X160041544Y-78695097D01*
X159974319Y-78787626D01*
X159863560Y-79005001D01*
X159788165Y-79237040D01*
X159750000Y-79478006D01*
X158673719Y-79478006D01*
X158742717Y-79383038D01*
X158846548Y-79179258D01*
X158884774Y-79061610D01*
X158917221Y-78961749D01*
X158917221Y-78961748D01*
X158917222Y-78961745D01*
X158953000Y-78735854D01*
X158953000Y-78507146D01*
X158917222Y-78281255D01*
X158917221Y-78281250D01*
X158846549Y-78063744D01*
X158742716Y-77859961D01*
X158692181Y-77790406D01*
X158608286Y-77674934D01*
X158446566Y-77513214D01*
X158261538Y-77378783D01*
X158057755Y-77274950D01*
X157840248Y-77204278D01*
X157670826Y-77177444D01*
X157614354Y-77168500D01*
X157385646Y-77168500D01*
X157310349Y-77180426D01*
X157159753Y-77204278D01*
X157159750Y-77204278D01*
X156942244Y-77274950D01*
X156738461Y-77378783D01*
X156665916Y-77431491D01*
X156553434Y-77513214D01*
X156553432Y-77513216D01*
X156553431Y-77513216D01*
X156391716Y-77674931D01*
X156391709Y-77674940D01*
X156344943Y-77739307D01*
X156289613Y-77781973D01*
X156234898Y-77790039D01*
X156188651Y-77786399D01*
X155523787Y-78451264D01*
X155512518Y-78409208D01*
X155440110Y-78283792D01*
X155337708Y-78181390D01*
X155212292Y-78108982D01*
X155170233Y-78097712D01*
X155835099Y-77432847D01*
X155761276Y-77379211D01*
X155557568Y-77275417D01*
X155340124Y-77204765D01*
X155114313Y-77169000D01*
X154885687Y-77169000D01*
X154659875Y-77204765D01*
X154659874Y-77204765D01*
X154442431Y-77275417D01*
X154238719Y-77379213D01*
X154164900Y-77432846D01*
X154164899Y-77432847D01*
X154829765Y-78097712D01*
X154787708Y-78108982D01*
X154662292Y-78181390D01*
X154559890Y-78283792D01*
X154487482Y-78409208D01*
X154476212Y-78451265D01*
X153811347Y-77786399D01*
X153765101Y-77790039D01*
X153761146Y-77789208D01*
X153757289Y-77790406D01*
X153727239Y-77782084D01*
X153696724Y-77775674D01*
X153692729Y-77772528D01*
X153689954Y-77771760D01*
X153680016Y-77762519D01*
X153662926Y-77749062D01*
X153658745Y-77744385D01*
X153608286Y-77674934D01*
X153446566Y-77513214D01*
X153261538Y-77378783D01*
X153057755Y-77274950D01*
X152840248Y-77204278D01*
X152670826Y-77177444D01*
X152614354Y-77168500D01*
X152385646Y-77168500D01*
X152310349Y-77180426D01*
X152159753Y-77204278D01*
X152159750Y-77204278D01*
X151942244Y-77274950D01*
X151738461Y-77378783D01*
X151665916Y-77431491D01*
X151553434Y-77513214D01*
X151553432Y-77513216D01*
X151553431Y-77513216D01*
X151391716Y-77674931D01*
X151391716Y-77674932D01*
X151391714Y-77674934D01*
X151391710Y-77674940D01*
X151257283Y-77859961D01*
X151153450Y-78063744D01*
X151082778Y-78281250D01*
X151082778Y-78281253D01*
X151047000Y-78507146D01*
X135510443Y-78507146D01*
X135581082Y-78368509D01*
X135640447Y-78185801D01*
X135670500Y-77996055D01*
X135670500Y-77803945D01*
X135640447Y-77614199D01*
X135581523Y-77432847D01*
X135581083Y-77431493D01*
X135554226Y-77378783D01*
X135493865Y-77260319D01*
X135380945Y-77104898D01*
X135245102Y-76969055D01*
X135089681Y-76856135D01*
X134918504Y-76768915D01*
X134853919Y-76747931D01*
X134796243Y-76708494D01*
X134769044Y-76644136D01*
X134780958Y-76575289D01*
X134828202Y-76523813D01*
X134853919Y-76512069D01*
X134918504Y-76491084D01*
X134918506Y-76491082D01*
X134918509Y-76491082D01*
X135089681Y-76403865D01*
X135245102Y-76290945D01*
X135380945Y-76155102D01*
X135493865Y-75999681D01*
X135581082Y-75828509D01*
X135640447Y-75645801D01*
X135670500Y-75456055D01*
X135670500Y-75263945D01*
X135640447Y-75074199D01*
X135581082Y-74891491D01*
X135493865Y-74720319D01*
X135380945Y-74564898D01*
X135245102Y-74429055D01*
X135089681Y-74316135D01*
X134918509Y-74228918D01*
X134918508Y-74228917D01*
X134918505Y-74228916D01*
X134853108Y-74207667D01*
X134795432Y-74168229D01*
X134768234Y-74103871D01*
X134780149Y-74035024D01*
X134827393Y-73983549D01*
X134853108Y-73971805D01*
X134918319Y-73950616D01*
X135089419Y-73863436D01*
X135118646Y-73842201D01*
X135118646Y-73842200D01*
X134496447Y-73220000D01*
X134502661Y-73220000D01*
X134604394Y-73192741D01*
X134695606Y-73140080D01*
X134770080Y-73065606D01*
X134822741Y-72974394D01*
X134850000Y-72872661D01*
X134850000Y-72866446D01*
X135472200Y-73488646D01*
X135472201Y-73488646D01*
X135493436Y-73459419D01*
X135580616Y-73288321D01*
X135639959Y-73105684D01*
X135670000Y-72916015D01*
X135670000Y-72723984D01*
X135639959Y-72534315D01*
X135580616Y-72351678D01*
X135493434Y-72180577D01*
X135472201Y-72151352D01*
X135472200Y-72151351D01*
X134850000Y-72773552D01*
X134850000Y-72767339D01*
X134822741Y-72665606D01*
X134770080Y-72574394D01*
X134695606Y-72499920D01*
X134604394Y-72447259D01*
X134502661Y-72420000D01*
X134496447Y-72420000D01*
X135118646Y-71797798D01*
X135089415Y-71776561D01*
X134918321Y-71689383D01*
X134735684Y-71630040D01*
X134546015Y-71600000D01*
X134353985Y-71600000D01*
X134164315Y-71630040D01*
X133981678Y-71689383D01*
X133810578Y-71776564D01*
X133781352Y-71797798D01*
X133781351Y-71797798D01*
X134403554Y-72420000D01*
X134397339Y-72420000D01*
X134295606Y-72447259D01*
X134204394Y-72499920D01*
X134129920Y-72574394D01*
X134077259Y-72665606D01*
X134050000Y-72767339D01*
X134050000Y-72773553D01*
X133427798Y-72151351D01*
X133427798Y-72151352D01*
X133406564Y-72180578D01*
X133319383Y-72351678D01*
X133260040Y-72534315D01*
X133230000Y-72723984D01*
X133230000Y-72916015D01*
X133260040Y-73105684D01*
X133319383Y-73288321D01*
X133406561Y-73459415D01*
X133427798Y-73488646D01*
X134050000Y-72866445D01*
X134050000Y-72872661D01*
X134077259Y-72974394D01*
X134129920Y-73065606D01*
X134204394Y-73140080D01*
X134295606Y-73192741D01*
X134397339Y-73220000D01*
X134403554Y-73220000D01*
X133781351Y-73842200D01*
X133781352Y-73842201D01*
X133810577Y-73863434D01*
X133981680Y-73950616D01*
X134046891Y-73971805D01*
X134104567Y-74011242D01*
X134131765Y-74075601D01*
X134119850Y-74144447D01*
X134072606Y-74195923D01*
X134046892Y-74207667D01*
X133981492Y-74228917D01*
X133810318Y-74316135D01*
X133721645Y-74380560D01*
X133654898Y-74429055D01*
X133654896Y-74429057D01*
X133654895Y-74429057D01*
X133519057Y-74564895D01*
X133519057Y-74564896D01*
X133519055Y-74564898D01*
X133470560Y-74631645D01*
X133406135Y-74720318D01*
X133318916Y-74891493D01*
X133259553Y-75074197D01*
X133229500Y-75263945D01*
X116000500Y-75263945D01*
X116000500Y-58814437D01*
X116250000Y-58814437D01*
X116250000Y-59185562D01*
X116282345Y-59555267D01*
X116282345Y-59555271D01*
X116346787Y-59920735D01*
X116346791Y-59920752D01*
X116442837Y-60279206D01*
X116569775Y-60627963D01*
X116726607Y-60964292D01*
X116726615Y-60964307D01*
X116912166Y-61285690D01*
X116912175Y-61285705D01*
X117125040Y-61589707D01*
X117322005Y-61824439D01*
X117322006Y-61824440D01*
X118813098Y-60333348D01*
X118880076Y-60420635D01*
X119079365Y-60619924D01*
X119166650Y-60686900D01*
X117675558Y-62177992D01*
X117675559Y-62177993D01*
X117910292Y-62374959D01*
X118214294Y-62587824D01*
X118214309Y-62587833D01*
X118535692Y-62773384D01*
X118535707Y-62773392D01*
X118872036Y-62930224D01*
X119220793Y-63057162D01*
X119579247Y-63153208D01*
X119579264Y-63153212D01*
X119944730Y-63217654D01*
X120314437Y-63249999D01*
X120314440Y-63250000D01*
X120685560Y-63250000D01*
X120685562Y-63249999D01*
X121055267Y-63217654D01*
X121055271Y-63217654D01*
X121420735Y-63153212D01*
X121420752Y-63153208D01*
X121779206Y-63057162D01*
X122127963Y-62930224D01*
X122464292Y-62773392D01*
X122464307Y-62773384D01*
X122785690Y-62587833D01*
X122785705Y-62587824D01*
X123089700Y-62374964D01*
X123324439Y-62177993D01*
X123324440Y-62177992D01*
X123001833Y-61855385D01*
X149499500Y-61855385D01*
X149499500Y-61875235D01*
X149499500Y-62287615D01*
X149533412Y-62718513D01*
X149601028Y-63145422D01*
X149701930Y-63565710D01*
X149701934Y-63565721D01*
X149835494Y-63976780D01*
X149906887Y-64149138D01*
X150000904Y-64376115D01*
X150095985Y-64562721D01*
X150197136Y-64761240D01*
X150197142Y-64761251D01*
X150422966Y-65129762D01*
X150422971Y-65129769D01*
X150422973Y-65129772D01*
X150540147Y-65291049D01*
X150677025Y-65479446D01*
X150677035Y-65479460D01*
X150819656Y-65646446D01*
X150957743Y-65808124D01*
X151263376Y-66113757D01*
X151263382Y-66113762D01*
X151592039Y-66394464D01*
X151592046Y-66394469D01*
X151941728Y-66648527D01*
X151941732Y-66648529D01*
X151941737Y-66648533D01*
X152310248Y-66874357D01*
X152310254Y-66874360D01*
X152310265Y-66874367D01*
X152695385Y-67070596D01*
X153094714Y-67236003D01*
X153094719Y-67236005D01*
X153199240Y-67269965D01*
X153505790Y-67369570D01*
X153926078Y-67470472D01*
X154352987Y-67538088D01*
X154783885Y-67572000D01*
X154783893Y-67572000D01*
X155216107Y-67572000D01*
X155216115Y-67572000D01*
X155647013Y-67538088D01*
X156073922Y-67470472D01*
X156494210Y-67369570D01*
X156738276Y-67290267D01*
X156796365Y-67271394D01*
X156905280Y-67236005D01*
X156905280Y-67236004D01*
X156905286Y-67236003D01*
X157304615Y-67070596D01*
X157689735Y-66874367D01*
X158058272Y-66648527D01*
X158407954Y-66394469D01*
X158736624Y-66113757D01*
X158968367Y-65882014D01*
X170400000Y-65882014D01*
X170400000Y-66117985D01*
X170430799Y-66351914D01*
X170491870Y-66579837D01*
X170582160Y-66797819D01*
X170582165Y-66797828D01*
X170700144Y-67002171D01*
X170700145Y-67002172D01*
X170762721Y-67083723D01*
X171484152Y-66362292D01*
X171491049Y-66378942D01*
X171578599Y-66509970D01*
X171690030Y-66621401D01*
X171821058Y-66708951D01*
X171837706Y-66715846D01*
X171116275Y-67437277D01*
X171197827Y-67499854D01*
X171197828Y-67499855D01*
X171402171Y-67617834D01*
X171402180Y-67617839D01*
X171620163Y-67708129D01*
X171620161Y-67708129D01*
X171848085Y-67769200D01*
X172082014Y-67799999D01*
X172082029Y-67800000D01*
X172317971Y-67800000D01*
X172317985Y-67799999D01*
X172551914Y-67769200D01*
X172779837Y-67708129D01*
X172997819Y-67617839D01*
X172997828Y-67617834D01*
X173073602Y-67574086D01*
X173141502Y-67557613D01*
X173207529Y-67580465D01*
X173250720Y-67635386D01*
X173257362Y-67704939D01*
X173250164Y-67728925D01*
X173178842Y-67901111D01*
X173178842Y-67901112D01*
X173119453Y-68122759D01*
X173119451Y-68122770D01*
X173089500Y-68350258D01*
X173089500Y-68579741D01*
X173114446Y-68769215D01*
X173119452Y-68807238D01*
X173119453Y-68807240D01*
X173178842Y-69028887D01*
X173266650Y-69240876D01*
X173266656Y-69240888D01*
X173342278Y-69371870D01*
X173361315Y-69404842D01*
X173377788Y-69472742D01*
X173354935Y-69538769D01*
X173300014Y-69581960D01*
X173230461Y-69588601D01*
X173191928Y-69574229D01*
X172997835Y-69462168D01*
X172997819Y-69462160D01*
X172779836Y-69371870D01*
X172779838Y-69371870D01*
X172551914Y-69310799D01*
X172317985Y-69280000D01*
X172082014Y-69280000D01*
X171848085Y-69310799D01*
X171620162Y-69371870D01*
X171402180Y-69462160D01*
X171402171Y-69462165D01*
X171197828Y-69580144D01*
X171197818Y-69580150D01*
X171116275Y-69642720D01*
X171116275Y-69642721D01*
X171837706Y-70364152D01*
X171821058Y-70371049D01*
X171690030Y-70458599D01*
X171578599Y-70570030D01*
X171491049Y-70701058D01*
X171484153Y-70717706D01*
X170762721Y-69996275D01*
X170762720Y-69996275D01*
X170700150Y-70077818D01*
X170700144Y-70077828D01*
X170582165Y-70282171D01*
X170582160Y-70282180D01*
X170491870Y-70500162D01*
X170430799Y-70728085D01*
X170400000Y-70962014D01*
X170400000Y-71197985D01*
X170430799Y-71431914D01*
X170491870Y-71659837D01*
X170582160Y-71877819D01*
X170582165Y-71877828D01*
X170700144Y-72082171D01*
X170700145Y-72082172D01*
X170762721Y-72163723D01*
X171484152Y-71442292D01*
X171491049Y-71458942D01*
X171578599Y-71589970D01*
X171690030Y-71701401D01*
X171821058Y-71788951D01*
X171837705Y-71795846D01*
X171116275Y-72517277D01*
X171197827Y-72579854D01*
X171197828Y-72579855D01*
X171402171Y-72697834D01*
X171402180Y-72697839D01*
X171620163Y-72788129D01*
X171620161Y-72788129D01*
X171848085Y-72849200D01*
X172082014Y-72879999D01*
X172082029Y-72880000D01*
X172317971Y-72880000D01*
X172317985Y-72879999D01*
X172551914Y-72849200D01*
X172779837Y-72788129D01*
X172997819Y-72697839D01*
X172997828Y-72697834D01*
X173202171Y-72579855D01*
X173202180Y-72579849D01*
X173390014Y-72435720D01*
X173455183Y-72410526D01*
X173523628Y-72424564D01*
X173573617Y-72473378D01*
X173589500Y-72534096D01*
X173589500Y-85638422D01*
X173620290Y-85832826D01*
X173681117Y-86020030D01*
X173760488Y-86175802D01*
X173770476Y-86195405D01*
X173886172Y-86354646D01*
X174885355Y-87353829D01*
X175044595Y-87469524D01*
X175127454Y-87511742D01*
X175219969Y-87558882D01*
X175219971Y-87558882D01*
X175219974Y-87558884D01*
X175292004Y-87582288D01*
X175407173Y-87619709D01*
X175601578Y-87650500D01*
X175601583Y-87650500D01*
X175601584Y-87650500D01*
X175798417Y-87650500D01*
X176325500Y-87650500D01*
X176392539Y-87670185D01*
X176438294Y-87722989D01*
X176449500Y-87774500D01*
X176449500Y-90898422D01*
X176480290Y-91092826D01*
X176541117Y-91280030D01*
X176592055Y-91380000D01*
X176630476Y-91455405D01*
X176746172Y-91614646D01*
X176746174Y-91614648D01*
X179799216Y-94667690D01*
X179832701Y-94729013D01*
X179834008Y-94735970D01*
X179836447Y-94751368D01*
X179909432Y-94975992D01*
X180016657Y-95186433D01*
X180155483Y-95377510D01*
X180322490Y-95544517D01*
X180513567Y-95683343D01*
X180597488Y-95726103D01*
X180724003Y-95790566D01*
X180724005Y-95790566D01*
X180724008Y-95790568D01*
X180844412Y-95829689D01*
X180948631Y-95863553D01*
X181181903Y-95900500D01*
X181181908Y-95900500D01*
X181418097Y-95900500D01*
X181651368Y-95863553D01*
X181875992Y-95790568D01*
X182086433Y-95683343D01*
X182277510Y-95544517D01*
X182444517Y-95377510D01*
X182583343Y-95186433D01*
X182690568Y-94975992D01*
X182763553Y-94751368D01*
X182776806Y-94667690D01*
X182800500Y-94518097D01*
X182800500Y-94281902D01*
X182763553Y-94048631D01*
X182705221Y-93869105D01*
X182690568Y-93824008D01*
X182690566Y-93824005D01*
X182690566Y-93824003D01*
X182583342Y-93613566D01*
X182564300Y-93587357D01*
X182444517Y-93422490D01*
X182277510Y-93255483D01*
X182086433Y-93116657D01*
X181875992Y-93009432D01*
X181651368Y-92936447D01*
X181644034Y-92935285D01*
X181635970Y-92934008D01*
X181572836Y-92904077D01*
X181567690Y-92899216D01*
X178986819Y-90318345D01*
X178953334Y-90257022D01*
X178950500Y-90230664D01*
X178950500Y-85481947D01*
X179800000Y-85481947D01*
X179800000Y-85718052D01*
X179836934Y-85951247D01*
X179909897Y-86175802D01*
X180017087Y-86386174D01*
X180077338Y-86469104D01*
X180077340Y-86469105D01*
X180817037Y-85729408D01*
X180834075Y-85792993D01*
X180899901Y-85907007D01*
X180992993Y-86000099D01*
X181107007Y-86065925D01*
X181170590Y-86082962D01*
X180430893Y-86822658D01*
X180513828Y-86882914D01*
X180724197Y-86990102D01*
X180948752Y-87063065D01*
X180948751Y-87063065D01*
X181181948Y-87100000D01*
X181418052Y-87100000D01*
X181651247Y-87063065D01*
X181875802Y-86990102D01*
X182086163Y-86882918D01*
X182086169Y-86882914D01*
X182169104Y-86822658D01*
X182169105Y-86822658D01*
X181429408Y-86082962D01*
X181492993Y-86065925D01*
X181607007Y-86000099D01*
X181700099Y-85907007D01*
X181765925Y-85792993D01*
X181782962Y-85729409D01*
X182522658Y-86469105D01*
X182522658Y-86469104D01*
X182582914Y-86386169D01*
X182582918Y-86386163D01*
X182690102Y-86175802D01*
X182763065Y-85951247D01*
X182800000Y-85718052D01*
X182800000Y-85481947D01*
X182763065Y-85248752D01*
X182690102Y-85024197D01*
X182582914Y-84813828D01*
X182522658Y-84730894D01*
X182522658Y-84730893D01*
X181782962Y-85470590D01*
X181765925Y-85407007D01*
X181700099Y-85292993D01*
X181607007Y-85199901D01*
X181492993Y-85134075D01*
X181429409Y-85117037D01*
X182169105Y-84377340D01*
X182169104Y-84377338D01*
X182086174Y-84317087D01*
X181875802Y-84209897D01*
X181651247Y-84136934D01*
X181651248Y-84136934D01*
X181418052Y-84100000D01*
X181181948Y-84100000D01*
X180948752Y-84136934D01*
X180724197Y-84209897D01*
X180513830Y-84317084D01*
X180430894Y-84377340D01*
X181170591Y-85117037D01*
X181107007Y-85134075D01*
X180992993Y-85199901D01*
X180899901Y-85292993D01*
X180834075Y-85407007D01*
X180817037Y-85470591D01*
X180077340Y-84730894D01*
X180017084Y-84813830D01*
X179909897Y-85024197D01*
X179836934Y-85248752D01*
X179800000Y-85481947D01*
X178950500Y-85481947D01*
X178950500Y-83769335D01*
X178970185Y-83702296D01*
X178986814Y-83681659D01*
X181567691Y-81100781D01*
X181629012Y-81067298D01*
X181635947Y-81065995D01*
X181651368Y-81063553D01*
X181875992Y-80990568D01*
X182086433Y-80883343D01*
X182277510Y-80744517D01*
X182444517Y-80577510D01*
X182583343Y-80386433D01*
X182690568Y-80175992D01*
X182763553Y-79951368D01*
X182765717Y-79937708D01*
X182800500Y-79718097D01*
X182800500Y-79481902D01*
X182763553Y-79248631D01*
X182711192Y-79087482D01*
X182690568Y-79024008D01*
X182690566Y-79024005D01*
X182690566Y-79024003D01*
X182593648Y-78833792D01*
X182583343Y-78813567D01*
X182444517Y-78622490D01*
X182277510Y-78455483D01*
X182086433Y-78316657D01*
X182016943Y-78281250D01*
X181875996Y-78209433D01*
X181651368Y-78136446D01*
X181418097Y-78099500D01*
X181418092Y-78099500D01*
X181181908Y-78099500D01*
X181181903Y-78099500D01*
X180948631Y-78136446D01*
X180724003Y-78209433D01*
X180513566Y-78316657D01*
X180442203Y-78368506D01*
X180322490Y-78455483D01*
X180322488Y-78455485D01*
X180322487Y-78455485D01*
X180155485Y-78622487D01*
X180155485Y-78622488D01*
X180155483Y-78622490D01*
X180102731Y-78695097D01*
X180016657Y-78813566D01*
X179909433Y-79024005D01*
X179836447Y-79248631D01*
X179834008Y-79264030D01*
X179804076Y-79327163D01*
X179799216Y-79332308D01*
X176746174Y-82385351D01*
X176746172Y-82385354D01*
X176696485Y-82453741D01*
X176630476Y-82544594D01*
X176540669Y-82720851D01*
X176539608Y-82724612D01*
X176480291Y-82907169D01*
X176480291Y-82907172D01*
X176449500Y-83101577D01*
X176449500Y-85025500D01*
X176446949Y-85034185D01*
X176448238Y-85043147D01*
X176437259Y-85067187D01*
X176429815Y-85092539D01*
X176422974Y-85098466D01*
X176419213Y-85106703D01*
X176396978Y-85120992D01*
X176377011Y-85138294D01*
X176366496Y-85140581D01*
X176360435Y-85144477D01*
X176325500Y-85149500D01*
X176269336Y-85149500D01*
X176202297Y-85129815D01*
X176181655Y-85113181D01*
X176126819Y-85058345D01*
X176093334Y-84997022D01*
X176090500Y-84970664D01*
X176090500Y-72686476D01*
X176110185Y-72619437D01*
X176162989Y-72573682D01*
X176232147Y-72563738D01*
X176276501Y-72579089D01*
X176482171Y-72697834D01*
X176482180Y-72697839D01*
X176700163Y-72788129D01*
X176700161Y-72788129D01*
X176928085Y-72849200D01*
X177162014Y-72879999D01*
X177162029Y-72880000D01*
X177397971Y-72880000D01*
X177397985Y-72879999D01*
X177631914Y-72849200D01*
X177859837Y-72788129D01*
X178077819Y-72697839D01*
X178077828Y-72697834D01*
X178282181Y-72579850D01*
X178363723Y-72517279D01*
X178363723Y-72517276D01*
X177642293Y-71795846D01*
X177658942Y-71788951D01*
X177789970Y-71701401D01*
X177901401Y-71589970D01*
X177988951Y-71458942D01*
X177995847Y-71442293D01*
X178717276Y-72163723D01*
X178717279Y-72163723D01*
X178779850Y-72082181D01*
X178897834Y-71877828D01*
X178897839Y-71877819D01*
X178988129Y-71659837D01*
X179049200Y-71431914D01*
X179079999Y-71197985D01*
X179080000Y-71197971D01*
X179080000Y-70962028D01*
X179079999Y-70962014D01*
X179049200Y-70728085D01*
X178988129Y-70500162D01*
X178897839Y-70282180D01*
X178897834Y-70282171D01*
X178779855Y-70077828D01*
X178779854Y-70077827D01*
X178717277Y-69996275D01*
X177995846Y-70717705D01*
X177988951Y-70701058D01*
X177901401Y-70570030D01*
X177789970Y-70458599D01*
X177658942Y-70371049D01*
X177642291Y-70364152D01*
X178363723Y-69642721D01*
X178282172Y-69580145D01*
X178282171Y-69580144D01*
X178077828Y-69462165D01*
X178077819Y-69462160D01*
X177859836Y-69371870D01*
X177859838Y-69371870D01*
X177631914Y-69310799D01*
X177397985Y-69280000D01*
X177162014Y-69280000D01*
X176928085Y-69310799D01*
X176700162Y-69371870D01*
X176561286Y-69429394D01*
X176491817Y-69436863D01*
X176429338Y-69405587D01*
X176393686Y-69345498D01*
X176396180Y-69275673D01*
X176406449Y-69252830D01*
X176413344Y-69240888D01*
X176501158Y-69028887D01*
X176560548Y-68807238D01*
X176590500Y-68579734D01*
X176590500Y-68350266D01*
X176560548Y-68122762D01*
X176501158Y-67901113D01*
X176478010Y-67845230D01*
X176470542Y-67775763D01*
X176501817Y-67713284D01*
X176561906Y-67677632D01*
X176631731Y-67680126D01*
X176640025Y-67683219D01*
X176700165Y-67708130D01*
X176928085Y-67769200D01*
X177162014Y-67799999D01*
X177162029Y-67800000D01*
X177397971Y-67800000D01*
X177397985Y-67799999D01*
X177631914Y-67769200D01*
X177859837Y-67708129D01*
X178077819Y-67617839D01*
X178077828Y-67617834D01*
X178282181Y-67499850D01*
X178363723Y-67437279D01*
X178363723Y-67437276D01*
X177642293Y-66715847D01*
X177658942Y-66708951D01*
X177789970Y-66621401D01*
X177901401Y-66509970D01*
X177988951Y-66378942D01*
X177995847Y-66362293D01*
X178717276Y-67083723D01*
X178717279Y-67083723D01*
X178779850Y-67002181D01*
X178897834Y-66797828D01*
X178897839Y-66797819D01*
X178988129Y-66579837D01*
X179049200Y-66351914D01*
X179079999Y-66117985D01*
X179080000Y-66117971D01*
X179080000Y-65882028D01*
X179079999Y-65882014D01*
X179049200Y-65648085D01*
X178988129Y-65420162D01*
X178897839Y-65202180D01*
X178897834Y-65202171D01*
X178779855Y-64997828D01*
X178779854Y-64997827D01*
X178717277Y-64916275D01*
X177995846Y-65637705D01*
X177988951Y-65621058D01*
X177901401Y-65490030D01*
X177789970Y-65378599D01*
X177658942Y-65291049D01*
X177642293Y-65284152D01*
X178363723Y-64562721D01*
X178282172Y-64500145D01*
X178282171Y-64500144D01*
X178077828Y-64382165D01*
X178077819Y-64382160D01*
X177859836Y-64291870D01*
X177859838Y-64291870D01*
X177631914Y-64230799D01*
X177397985Y-64200000D01*
X177162014Y-64200000D01*
X176928085Y-64230799D01*
X176700162Y-64291870D01*
X176482180Y-64382160D01*
X176482171Y-64382165D01*
X176277828Y-64500144D01*
X176277818Y-64500150D01*
X176196275Y-64562720D01*
X176196275Y-64562721D01*
X176917706Y-65284152D01*
X176901058Y-65291049D01*
X176770030Y-65378599D01*
X176658599Y-65490030D01*
X176571049Y-65621058D01*
X176564152Y-65637706D01*
X175842721Y-64916275D01*
X175842720Y-64916275D01*
X175780150Y-64997818D01*
X175780144Y-64997828D01*
X175662165Y-65202171D01*
X175662160Y-65202180D01*
X175571870Y-65420162D01*
X175510799Y-65648085D01*
X175480000Y-65882014D01*
X175480000Y-66117985D01*
X175510799Y-66351914D01*
X175571870Y-66579837D01*
X175604102Y-66657653D01*
X175611571Y-66727123D01*
X175580295Y-66789602D01*
X175520206Y-66825253D01*
X175450381Y-66822759D01*
X175442101Y-66819671D01*
X175403887Y-66803842D01*
X175403885Y-66803841D01*
X175403884Y-66803841D01*
X175338035Y-66786197D01*
X175182238Y-66744452D01*
X175144215Y-66739446D01*
X174954741Y-66714500D01*
X174954734Y-66714500D01*
X174725266Y-66714500D01*
X174725258Y-66714500D01*
X174508715Y-66743009D01*
X174497762Y-66744452D01*
X174405187Y-66769257D01*
X174276112Y-66803842D01*
X174064123Y-66891650D01*
X174064106Y-66891659D01*
X174005696Y-66925381D01*
X173937796Y-66941852D01*
X173871769Y-66918999D01*
X173828580Y-66864077D01*
X173821939Y-66794524D01*
X173829137Y-66770540D01*
X173908130Y-66579834D01*
X173969200Y-66351914D01*
X173999999Y-66117985D01*
X174000000Y-66117971D01*
X174000000Y-65882028D01*
X173999999Y-65882014D01*
X173969200Y-65648085D01*
X173908129Y-65420162D01*
X173817839Y-65202180D01*
X173817834Y-65202171D01*
X173699855Y-64997828D01*
X173699854Y-64997827D01*
X173637277Y-64916275D01*
X172915846Y-65637706D01*
X172908951Y-65621058D01*
X172821401Y-65490030D01*
X172709970Y-65378599D01*
X172578942Y-65291049D01*
X172562293Y-65284152D01*
X173283723Y-64562721D01*
X173202172Y-64500145D01*
X173202171Y-64500144D01*
X172997828Y-64382165D01*
X172997819Y-64382160D01*
X172779836Y-64291870D01*
X172779838Y-64291870D01*
X172551914Y-64230799D01*
X172317985Y-64200000D01*
X172082014Y-64200000D01*
X171848085Y-64230799D01*
X171620162Y-64291870D01*
X171402180Y-64382160D01*
X171402171Y-64382165D01*
X171197828Y-64500144D01*
X171197818Y-64500150D01*
X171116275Y-64562720D01*
X171116275Y-64562721D01*
X171837706Y-65284152D01*
X171821058Y-65291049D01*
X171690030Y-65378599D01*
X171578599Y-65490030D01*
X171491049Y-65621058D01*
X171484153Y-65637706D01*
X170762721Y-64916275D01*
X170762720Y-64916275D01*
X170700150Y-64997818D01*
X170700144Y-64997828D01*
X170582165Y-65202171D01*
X170582160Y-65202180D01*
X170491870Y-65420162D01*
X170430799Y-65648085D01*
X170400000Y-65882014D01*
X158968367Y-65882014D01*
X159042257Y-65808124D01*
X159077681Y-65766649D01*
X159322964Y-65479460D01*
X159322964Y-65479459D01*
X159322969Y-65479454D01*
X159577027Y-65129772D01*
X159802867Y-64761235D01*
X159999096Y-64376115D01*
X160164503Y-63976786D01*
X160298070Y-63565710D01*
X160398972Y-63145422D01*
X160466588Y-62718513D01*
X160500500Y-62287615D01*
X160500500Y-61855385D01*
X160466588Y-61424487D01*
X160398972Y-60997578D01*
X160298070Y-60577290D01*
X160164503Y-60166214D01*
X159999096Y-59766885D01*
X159802867Y-59381765D01*
X159682634Y-59185562D01*
X159577033Y-59013237D01*
X159577029Y-59013232D01*
X159577027Y-59013228D01*
X159432597Y-58814437D01*
X175750000Y-58814437D01*
X175750000Y-59185562D01*
X175782345Y-59555267D01*
X175782345Y-59555271D01*
X175846787Y-59920735D01*
X175846791Y-59920752D01*
X175942837Y-60279206D01*
X176069775Y-60627963D01*
X176226607Y-60964292D01*
X176226615Y-60964307D01*
X176412166Y-61285690D01*
X176412175Y-61285705D01*
X176625040Y-61589707D01*
X176822005Y-61824439D01*
X176822006Y-61824440D01*
X178313098Y-60333348D01*
X178380076Y-60420635D01*
X178579365Y-60619924D01*
X178666650Y-60686900D01*
X177175558Y-62177992D01*
X177175559Y-62177993D01*
X177410292Y-62374959D01*
X177714294Y-62587824D01*
X177714309Y-62587833D01*
X178035692Y-62773384D01*
X178035707Y-62773392D01*
X178372036Y-62930224D01*
X178720793Y-63057162D01*
X179079247Y-63153208D01*
X179079264Y-63153212D01*
X179444730Y-63217654D01*
X179814437Y-63249999D01*
X179814440Y-63250000D01*
X180185560Y-63250000D01*
X180185562Y-63249999D01*
X180555267Y-63217654D01*
X180555271Y-63217654D01*
X180920735Y-63153212D01*
X180920752Y-63153208D01*
X181279206Y-63057162D01*
X181627963Y-62930224D01*
X181964292Y-62773392D01*
X181964307Y-62773384D01*
X182285690Y-62587833D01*
X182285705Y-62587824D01*
X182589700Y-62374964D01*
X182824439Y-62177993D01*
X182824440Y-62177992D01*
X181333348Y-60686901D01*
X181420635Y-60619924D01*
X181619924Y-60420635D01*
X181686900Y-60333348D01*
X183177992Y-61824440D01*
X183177993Y-61824439D01*
X183374964Y-61589700D01*
X183587824Y-61285705D01*
X183587833Y-61285690D01*
X183773384Y-60964307D01*
X183773392Y-60964292D01*
X183930224Y-60627963D01*
X184057162Y-60279206D01*
X184153208Y-59920752D01*
X184153212Y-59920735D01*
X184217654Y-59555271D01*
X184217654Y-59555267D01*
X184249999Y-59185562D01*
X184250000Y-59185560D01*
X184250000Y-58814440D01*
X184249999Y-58814437D01*
X184217654Y-58444732D01*
X184217654Y-58444728D01*
X184153212Y-58079264D01*
X184153208Y-58079247D01*
X184057162Y-57720793D01*
X183930224Y-57372036D01*
X183773392Y-57035707D01*
X183773384Y-57035692D01*
X183587833Y-56714309D01*
X183587824Y-56714294D01*
X183374959Y-56410292D01*
X183177993Y-56175559D01*
X183177992Y-56175558D01*
X181686900Y-57666650D01*
X181619924Y-57579365D01*
X181420635Y-57380076D01*
X181333347Y-57313098D01*
X182824440Y-55822006D01*
X182824439Y-55822005D01*
X182589707Y-55625040D01*
X182285705Y-55412175D01*
X182285690Y-55412166D01*
X181964307Y-55226615D01*
X181964292Y-55226607D01*
X181627963Y-55069775D01*
X181279206Y-54942837D01*
X180920752Y-54846791D01*
X180920735Y-54846787D01*
X180555269Y-54782345D01*
X180185562Y-54750000D01*
X179814437Y-54750000D01*
X179444732Y-54782345D01*
X179444728Y-54782345D01*
X179079264Y-54846787D01*
X179079247Y-54846791D01*
X178720793Y-54942837D01*
X178372036Y-55069775D01*
X178035707Y-55226607D01*
X178035692Y-55226615D01*
X177714309Y-55412166D01*
X177714294Y-55412175D01*
X177410292Y-55625040D01*
X177175559Y-55822005D01*
X177175558Y-55822006D01*
X178666651Y-57313098D01*
X178579365Y-57380076D01*
X178380076Y-57579365D01*
X178313098Y-57666651D01*
X176822006Y-56175558D01*
X176822005Y-56175559D01*
X176625040Y-56410292D01*
X176412175Y-56714294D01*
X176412166Y-56714309D01*
X176226615Y-57035692D01*
X176226607Y-57035707D01*
X176069775Y-57372036D01*
X175942837Y-57720793D01*
X175846791Y-58079247D01*
X175846787Y-58079264D01*
X175782345Y-58444728D01*
X175782345Y-58444732D01*
X175750000Y-58814437D01*
X159432597Y-58814437D01*
X159322969Y-58663546D01*
X159322964Y-58663539D01*
X159042262Y-58334882D01*
X159042257Y-58334876D01*
X158736624Y-58029243D01*
X158602283Y-57914504D01*
X158407960Y-57748535D01*
X158407946Y-57748525D01*
X158058273Y-57494474D01*
X158058262Y-57494466D01*
X157689751Y-57268642D01*
X157689740Y-57268636D01*
X157689739Y-57268635D01*
X157689735Y-57268633D01*
X157304615Y-57072404D01*
X157176677Y-57019410D01*
X156905280Y-56906994D01*
X156612796Y-56811961D01*
X156494210Y-56773430D01*
X156073922Y-56672528D01*
X155647013Y-56604912D01*
X155216120Y-56571000D01*
X155216115Y-56571000D01*
X154783885Y-56571000D01*
X154783879Y-56571000D01*
X154352986Y-56604912D01*
X154352985Y-56604912D01*
X153926083Y-56672527D01*
X153926080Y-56672527D01*
X153926078Y-56672528D01*
X153775562Y-56708663D01*
X153505801Y-56773427D01*
X153505795Y-56773428D01*
X153505790Y-56773430D01*
X153505778Y-56773434D01*
X153094719Y-56906994D01*
X152695387Y-57072403D01*
X152310259Y-57268636D01*
X152310248Y-57268642D01*
X151941737Y-57494466D01*
X151941726Y-57494474D01*
X151592053Y-57748525D01*
X151592039Y-57748535D01*
X151263382Y-58029237D01*
X151263368Y-58029250D01*
X150957750Y-58334868D01*
X150957737Y-58334882D01*
X150677035Y-58663539D01*
X150677025Y-58663553D01*
X150422974Y-59013226D01*
X150422966Y-59013237D01*
X150197142Y-59381748D01*
X150197136Y-59381759D01*
X150000903Y-59766887D01*
X149835494Y-60166219D01*
X149701934Y-60577278D01*
X149701927Y-60577301D01*
X149668035Y-60718474D01*
X149616673Y-60932414D01*
X149601027Y-60997583D01*
X149533412Y-61424485D01*
X149533412Y-61424486D01*
X149505965Y-61773244D01*
X149499500Y-61855385D01*
X123001833Y-61855385D01*
X121833348Y-60686901D01*
X121920635Y-60619924D01*
X122119924Y-60420635D01*
X122186900Y-60333348D01*
X123677992Y-61824440D01*
X123677993Y-61824439D01*
X123720952Y-61773244D01*
X123874964Y-61589700D01*
X124087824Y-61285705D01*
X124087833Y-61285690D01*
X124273384Y-60964307D01*
X124273392Y-60964292D01*
X124430224Y-60627963D01*
X124557162Y-60279206D01*
X124653208Y-59920752D01*
X124653212Y-59920735D01*
X124717654Y-59555271D01*
X124717654Y-59555267D01*
X124749999Y-59185562D01*
X124750000Y-59185560D01*
X124750000Y-58814440D01*
X124749999Y-58814437D01*
X124717654Y-58444732D01*
X124717654Y-58444728D01*
X124653212Y-58079264D01*
X124653208Y-58079247D01*
X124557162Y-57720793D01*
X124430224Y-57372036D01*
X124273392Y-57035707D01*
X124273384Y-57035692D01*
X124087833Y-56714309D01*
X124087824Y-56714294D01*
X123874959Y-56410292D01*
X123677993Y-56175559D01*
X123677992Y-56175558D01*
X122186900Y-57666650D01*
X122119924Y-57579365D01*
X121920635Y-57380076D01*
X121833347Y-57313098D01*
X123324440Y-55822006D01*
X123324439Y-55822005D01*
X123089707Y-55625040D01*
X122785705Y-55412175D01*
X122785690Y-55412166D01*
X122464307Y-55226615D01*
X122464292Y-55226607D01*
X122127963Y-55069775D01*
X121779206Y-54942837D01*
X121420752Y-54846791D01*
X121420735Y-54846787D01*
X121055269Y-54782345D01*
X120685562Y-54750000D01*
X120314437Y-54750000D01*
X119944732Y-54782345D01*
X119944728Y-54782345D01*
X119579264Y-54846787D01*
X119579247Y-54846791D01*
X119220793Y-54942837D01*
X118872036Y-55069775D01*
X118535707Y-55226607D01*
X118535692Y-55226615D01*
X118214309Y-55412166D01*
X118214294Y-55412175D01*
X117910292Y-55625040D01*
X117675559Y-55822005D01*
X117675558Y-55822006D01*
X119166651Y-57313098D01*
X119079365Y-57380076D01*
X118880076Y-57579365D01*
X118813098Y-57666651D01*
X117322006Y-56175558D01*
X117322005Y-56175559D01*
X117125040Y-56410292D01*
X116912175Y-56714294D01*
X116912166Y-56714309D01*
X116726615Y-57035692D01*
X116726607Y-57035707D01*
X116569775Y-57372036D01*
X116442837Y-57720793D01*
X116346791Y-58079247D01*
X116346787Y-58079264D01*
X116282345Y-58444728D01*
X116282345Y-58444732D01*
X116250000Y-58814437D01*
X116000500Y-58814437D01*
X116000500Y-54624500D01*
X116020185Y-54557461D01*
X116072989Y-54511706D01*
X116124500Y-54500500D01*
X184375500Y-54500500D01*
X184442539Y-54520185D01*
G37*
G04 #@! TD.AperFunction*
G04 #@! TA.AperFunction,Conductor*
G36*
X117241049Y-84878942D02*
G01*
X117328599Y-85009970D01*
X117440030Y-85121401D01*
X117571058Y-85208951D01*
X117587706Y-85215846D01*
X116866275Y-85937277D01*
X116947827Y-85999854D01*
X116947828Y-85999855D01*
X117152171Y-86117834D01*
X117152180Y-86117839D01*
X117370163Y-86208129D01*
X117370161Y-86208129D01*
X117598085Y-86269200D01*
X117832014Y-86299999D01*
X117832029Y-86300000D01*
X118067971Y-86300000D01*
X118067985Y-86299999D01*
X118301914Y-86269200D01*
X118529837Y-86208129D01*
X118747819Y-86117839D01*
X118747828Y-86117834D01*
X118823602Y-86074086D01*
X118891502Y-86057613D01*
X118957529Y-86080465D01*
X119000720Y-86135386D01*
X119007362Y-86204939D01*
X119000164Y-86228925D01*
X118928842Y-86401111D01*
X118928842Y-86401112D01*
X118922707Y-86424008D01*
X118884353Y-86567152D01*
X118869453Y-86622759D01*
X118869451Y-86622770D01*
X118839500Y-86850258D01*
X118839500Y-87079741D01*
X118864446Y-87269215D01*
X118869452Y-87307238D01*
X118926664Y-87520760D01*
X118928842Y-87528887D01*
X119016650Y-87740876D01*
X119016656Y-87740888D01*
X119092278Y-87871870D01*
X119111315Y-87904842D01*
X119127788Y-87972742D01*
X119104935Y-88038769D01*
X119050014Y-88081960D01*
X118980461Y-88088601D01*
X118941928Y-88074229D01*
X118747835Y-87962168D01*
X118747819Y-87962160D01*
X118529836Y-87871870D01*
X118529838Y-87871870D01*
X118301914Y-87810799D01*
X118067985Y-87780000D01*
X117832014Y-87780000D01*
X117598085Y-87810799D01*
X117370162Y-87871870D01*
X117152180Y-87962160D01*
X117152171Y-87962165D01*
X116947828Y-88080144D01*
X116947818Y-88080150D01*
X116866275Y-88142720D01*
X116866275Y-88142721D01*
X117587706Y-88864152D01*
X117571058Y-88871049D01*
X117440030Y-88958599D01*
X117328599Y-89070030D01*
X117241049Y-89201058D01*
X117234152Y-89217706D01*
X116512721Y-88496275D01*
X116512720Y-88496275D01*
X116450150Y-88577818D01*
X116450144Y-88577828D01*
X116332165Y-88782171D01*
X116332160Y-88782180D01*
X116240315Y-89003918D01*
X116239434Y-89003553D01*
X116201729Y-89057174D01*
X116137020Y-89083526D01*
X116068335Y-89070711D01*
X116017483Y-89022796D01*
X116000500Y-88960160D01*
X116000500Y-85119839D01*
X116020185Y-85052800D01*
X116072989Y-85007045D01*
X116142147Y-84997101D01*
X116205703Y-85026126D01*
X116239517Y-85076412D01*
X116240315Y-85076082D01*
X116332160Y-85297819D01*
X116332165Y-85297828D01*
X116450144Y-85502171D01*
X116450145Y-85502172D01*
X116512721Y-85583723D01*
X117234152Y-84862292D01*
X117241049Y-84878942D01*
G37*
G04 #@! TD.AperFunction*
M02*
