G04 #@! TF.GenerationSoftware,KiCad,Pcbnew,8.0.6*
G04 #@! TF.CreationDate,2024-12-01T17:41:07-05:00*
G04 #@! TF.ProjectId,t41_2_power_amplifier,7434315f-325f-4706-9f77-65725f616d70,rev?*
G04 #@! TF.SameCoordinates,Original*
G04 #@! TF.FileFunction,Copper,L1,Top*
G04 #@! TF.FilePolarity,Positive*
%FSLAX46Y46*%
G04 Gerber Fmt 4.6, Leading zero omitted, Abs format (unit mm)*
G04 Created by KiCad (PCBNEW 8.0.6) date 2024-12-01 17:41:07*
%MOMM*%
%LPD*%
G01*
G04 APERTURE LIST*
G04 Aperture macros list*
%AMRoundRect*
0 Rectangle with rounded corners*
0 $1 Rounding radius*
0 $2 $3 $4 $5 $6 $7 $8 $9 X,Y pos of 4 corners*
0 Add a 4 corners polygon primitive as box body*
4,1,4,$2,$3,$4,$5,$6,$7,$8,$9,$2,$3,0*
0 Add four circle primitives for the rounded corners*
1,1,$1+$1,$2,$3*
1,1,$1+$1,$4,$5*
1,1,$1+$1,$6,$7*
1,1,$1+$1,$8,$9*
0 Add four rect primitives between the rounded corners*
20,1,$1+$1,$2,$3,$4,$5,0*
20,1,$1+$1,$4,$5,$6,$7,0*
20,1,$1+$1,$6,$7,$8,$9,0*
20,1,$1+$1,$8,$9,$2,$3,0*%
G04 Aperture macros list end*
G04 #@! TA.AperFunction,ComponentPad*
%ADD10C,2.000000*%
G04 #@! TD*
G04 #@! TA.AperFunction,SMDPad,CuDef*
%ADD11RoundRect,0.250000X0.625000X-0.312500X0.625000X0.312500X-0.625000X0.312500X-0.625000X-0.312500X0*%
G04 #@! TD*
G04 #@! TA.AperFunction,SMDPad,CuDef*
%ADD12RoundRect,0.150000X0.150000X-0.512500X0.150000X0.512500X-0.150000X0.512500X-0.150000X-0.512500X0*%
G04 #@! TD*
G04 #@! TA.AperFunction,SMDPad,CuDef*
%ADD13RoundRect,0.250000X0.325000X0.650000X-0.325000X0.650000X-0.325000X-0.650000X0.325000X-0.650000X0*%
G04 #@! TD*
G04 #@! TA.AperFunction,SMDPad,CuDef*
%ADD14RoundRect,0.250000X-1.500000X-0.550000X1.500000X-0.550000X1.500000X0.550000X-1.500000X0.550000X0*%
G04 #@! TD*
G04 #@! TA.AperFunction,ComponentPad*
%ADD15C,1.440000*%
G04 #@! TD*
G04 #@! TA.AperFunction,SMDPad,CuDef*
%ADD16RoundRect,0.250000X-0.650000X0.325000X-0.650000X-0.325000X0.650000X-0.325000X0.650000X0.325000X0*%
G04 #@! TD*
G04 #@! TA.AperFunction,SMDPad,CuDef*
%ADD17RoundRect,0.250000X-0.325000X-0.650000X0.325000X-0.650000X0.325000X0.650000X-0.325000X0.650000X0*%
G04 #@! TD*
G04 #@! TA.AperFunction,SMDPad,CuDef*
%ADD18RoundRect,0.250000X-0.312500X-0.625000X0.312500X-0.625000X0.312500X0.625000X-0.312500X0.625000X0*%
G04 #@! TD*
G04 #@! TA.AperFunction,SMDPad,CuDef*
%ADD19RoundRect,0.250000X0.650000X-0.325000X0.650000X0.325000X-0.650000X0.325000X-0.650000X-0.325000X0*%
G04 #@! TD*
G04 #@! TA.AperFunction,SMDPad,CuDef*
%ADD20RoundRect,0.250000X-1.400000X-1.000000X1.400000X-1.000000X1.400000X1.000000X-1.400000X1.000000X0*%
G04 #@! TD*
G04 #@! TA.AperFunction,SMDPad,CuDef*
%ADD21R,1.570000X2.820000*%
G04 #@! TD*
G04 #@! TA.AperFunction,SMDPad,CuDef*
%ADD22RoundRect,0.250000X-0.550000X1.500000X-0.550000X-1.500000X0.550000X-1.500000X0.550000X1.500000X0*%
G04 #@! TD*
G04 #@! TA.AperFunction,SMDPad,CuDef*
%ADD23R,1.524000X3.900000*%
G04 #@! TD*
G04 #@! TA.AperFunction,ComponentPad*
%ADD24C,7.500000*%
G04 #@! TD*
G04 #@! TA.AperFunction,SMDPad,CuDef*
%ADD25R,1.470000X2.770000*%
G04 #@! TD*
G04 #@! TA.AperFunction,ComponentPad*
%ADD26C,2.600000*%
G04 #@! TD*
G04 #@! TA.AperFunction,ComponentPad*
%ADD27C,2.500000*%
G04 #@! TD*
G04 #@! TA.AperFunction,SMDPad,CuDef*
%ADD28R,2.770000X1.470000*%
G04 #@! TD*
G04 #@! TA.AperFunction,ComponentPad*
%ADD29R,2.400000X2.400000*%
G04 #@! TD*
G04 #@! TA.AperFunction,ComponentPad*
%ADD30C,2.400000*%
G04 #@! TD*
G04 #@! TA.AperFunction,ComponentPad*
%ADD31C,2.100000*%
G04 #@! TD*
G04 #@! TA.AperFunction,SMDPad,CuDef*
%ADD32RoundRect,0.250000X-0.275000X-0.700000X0.275000X-0.700000X0.275000X0.700000X-0.275000X0.700000X0*%
G04 #@! TD*
G04 #@! TA.AperFunction,ViaPad*
%ADD33C,1.000000*%
G04 #@! TD*
G04 #@! TA.AperFunction,Conductor*
%ADD34C,0.250000*%
G04 #@! TD*
G04 #@! TA.AperFunction,Conductor*
%ADD35C,0.750000*%
G04 #@! TD*
G04 #@! TA.AperFunction,Conductor*
%ADD36C,0.500000*%
G04 #@! TD*
G04 #@! TA.AperFunction,Conductor*
%ADD37C,1.500000*%
G04 #@! TD*
G04 #@! TA.AperFunction,Conductor*
%ADD38C,2.000000*%
G04 #@! TD*
G04 #@! TA.AperFunction,Conductor*
%ADD39C,1.000000*%
G04 #@! TD*
G04 #@! TA.AperFunction,Conductor*
%ADD40C,0.200000*%
G04 #@! TD*
G04 #@! TA.AperFunction,Conductor*
%ADD41C,2.500000*%
G04 #@! TD*
G04 APERTURE END LIST*
D10*
X127200000Y-87000000D03*
X127200000Y-93000000D03*
X143200000Y-93000000D03*
X143200000Y-90000000D03*
X143200000Y-87000000D03*
D11*
X170200000Y-111262500D03*
X170200000Y-108337500D03*
D12*
X140000000Y-120925000D03*
X140950000Y-120925000D03*
X141900000Y-120925000D03*
X141900000Y-118650000D03*
X140000000Y-118650000D03*
D13*
X140000000Y-123700000D03*
X137050000Y-123700000D03*
D14*
X171600000Y-116300000D03*
X177000000Y-116300000D03*
D15*
X134450000Y-77900000D03*
X134450000Y-75360000D03*
X134450000Y-72820000D03*
D11*
X143200000Y-78325000D03*
X143200000Y-75400000D03*
D16*
X143200000Y-70200000D03*
X143200000Y-73150000D03*
D17*
X140000000Y-115400000D03*
X142950000Y-115400000D03*
D18*
X137375000Y-102250000D03*
X140300000Y-102250000D03*
D19*
X143200000Y-99250000D03*
X143200000Y-96300000D03*
D20*
X156150000Y-127850000D03*
X156150000Y-134650000D03*
D21*
X133250000Y-127800000D03*
X133250000Y-134120000D03*
X146710000Y-127800000D03*
X146710000Y-134120000D03*
D17*
X137375000Y-105350000D03*
X140325000Y-105350000D03*
D22*
X172400000Y-133250000D03*
X172400000Y-127850000D03*
D23*
X154000000Y-78621500D03*
X156500000Y-78621500D03*
X159000000Y-78621500D03*
D24*
X195000000Y-59000000D03*
D15*
X132700000Y-105550000D03*
X132700000Y-103010000D03*
X132700000Y-100470000D03*
D25*
X166800000Y-111640000D03*
X166800000Y-108060000D03*
D13*
X130895000Y-120700000D03*
X127945000Y-120700000D03*
D10*
X159000000Y-83000000D03*
X159000000Y-97000000D03*
X197000000Y-97000000D03*
X197000000Y-83000000D03*
D24*
X120000000Y-59000000D03*
X195000000Y-142000000D03*
D17*
X171550000Y-121900000D03*
X174500000Y-121900000D03*
D26*
X191650000Y-67535000D03*
X191650000Y-72615000D03*
X196730000Y-67535000D03*
X196730000Y-72615000D03*
D27*
X194290000Y-70000000D03*
D18*
X147025000Y-80950000D03*
X149950000Y-80950000D03*
D23*
X159000000Y-101837500D03*
X156500000Y-101837500D03*
X154000000Y-101837500D03*
D16*
X158450000Y-88500000D03*
X158450000Y-91450000D03*
D28*
X162420000Y-127850000D03*
X166000000Y-127850000D03*
D29*
X122300000Y-127800000D03*
D30*
X122300000Y-132800000D03*
D26*
X117950000Y-84500000D03*
X117950000Y-89580000D03*
X123030000Y-84500000D03*
X123030000Y-89580000D03*
D27*
X120590000Y-86965000D03*
D31*
X119995000Y-117500000D03*
X119995000Y-120000000D03*
D32*
X124820000Y-117500000D03*
X127970000Y-117500000D03*
D25*
X166800000Y-119890000D03*
X166800000Y-116310000D03*
D18*
X137375000Y-99250000D03*
X140300000Y-99250000D03*
D24*
X120000000Y-142000000D03*
D16*
X166000000Y-131150000D03*
X166000000Y-134100000D03*
X161450000Y-88500000D03*
X161450000Y-91450000D03*
X143200000Y-80950000D03*
X143200000Y-83900000D03*
D11*
X140150000Y-78325000D03*
X140150000Y-75400000D03*
D10*
X151000000Y-87000000D03*
X151000000Y-90000000D03*
X151000000Y-93000000D03*
D18*
X145137500Y-101950000D03*
X148062500Y-101950000D03*
D33*
X150000000Y-123400000D03*
X168200000Y-129800000D03*
X169400000Y-118300000D03*
X160000000Y-56100000D03*
X153200000Y-56000000D03*
X174600000Y-134800000D03*
X170200000Y-134800000D03*
X163650000Y-90000000D03*
X166000000Y-90000000D03*
X164800000Y-90000000D03*
X164500000Y-98800000D03*
X151700000Y-84850000D03*
X196900000Y-99900000D03*
X161500000Y-78400000D03*
X145100000Y-79300000D03*
X163550000Y-113550000D03*
X149350000Y-100300000D03*
X193700000Y-82200000D03*
X150150000Y-103600000D03*
X156500000Y-79900000D03*
X163500000Y-65800000D03*
X163750000Y-134100000D03*
X160150000Y-98800000D03*
X149300000Y-65850000D03*
X149600000Y-113450000D03*
X163550000Y-105650000D03*
X156500000Y-77200000D03*
X196200000Y-76700000D03*
X153000000Y-97800000D03*
X152100000Y-100300000D03*
X194300000Y-97000000D03*
X192300000Y-76700000D03*
X144800000Y-112000000D03*
X156500000Y-81700000D03*
X152050000Y-77200000D03*
X164150000Y-92000000D03*
X134250000Y-104350000D03*
X141400000Y-79900000D03*
X133150000Y-88650000D03*
X160850000Y-103300000D03*
X197200000Y-80700000D03*
X154550000Y-81750000D03*
X143200000Y-68300000D03*
X157000000Y-84950000D03*
X156500000Y-103350000D03*
X149600000Y-76000000D03*
X152450000Y-94750000D03*
X169400000Y-90700000D03*
X157800000Y-98800000D03*
X156150000Y-137300000D03*
X151300000Y-78300000D03*
X141750000Y-100700000D03*
X133200000Y-82100000D03*
X132795000Y-120700000D03*
X151500000Y-130250000D03*
X160150000Y-133200000D03*
X160900000Y-101800000D03*
X194700000Y-83200000D03*
X154650000Y-96200000D03*
X150800000Y-99700000D03*
X145300000Y-82750000D03*
X146600000Y-125200000D03*
X156500000Y-78491000D03*
X140300000Y-107600000D03*
X156500000Y-99000000D03*
X138400000Y-119300000D03*
X152150000Y-133200000D03*
X163900000Y-130400000D03*
X160700000Y-85450000D03*
X163850000Y-87900000D03*
X152050000Y-79400000D03*
X156500000Y-100400000D03*
X160950000Y-77200000D03*
X135700000Y-88650000D03*
X169400000Y-98000000D03*
X129000000Y-97900000D03*
X160250000Y-93100000D03*
X157100000Y-95100000D03*
X169400000Y-105600000D03*
X136000000Y-76800000D03*
X197000000Y-94200000D03*
X196200000Y-79700000D03*
X163500000Y-123200000D03*
X131000000Y-106500000D03*
X144500000Y-122200000D03*
X160850000Y-100300000D03*
X160950000Y-79600000D03*
X196900000Y-85300000D03*
X154650000Y-83700000D03*
X141250000Y-97300000D03*
X144800000Y-115400000D03*
X169700000Y-112900000D03*
X131295000Y-117500000D03*
X143300000Y-120950000D03*
X150900000Y-101950000D03*
X152200000Y-101950000D03*
X159000000Y-100400000D03*
X149600000Y-101950000D03*
X159000000Y-102800000D03*
X159000000Y-101600000D03*
D34*
X140000000Y-115400000D02*
X140000000Y-113900000D01*
X132700000Y-106400000D02*
X132700000Y-105550000D01*
X140000000Y-113900000D02*
X132700000Y-106600000D01*
X132700000Y-106600000D02*
X132700000Y-106400000D01*
D35*
X171550000Y-121900000D02*
X171550000Y-116350000D01*
X171550000Y-116350000D02*
X171600000Y-116300000D01*
D36*
X164750000Y-125150000D02*
X166000000Y-126400000D01*
X148600000Y-125150000D02*
X164750000Y-125150000D01*
X166000000Y-126400000D02*
X166000000Y-127850000D01*
X140000000Y-123700000D02*
X147150000Y-123700000D01*
D37*
X166800000Y-119890000D02*
X166800000Y-124300000D01*
X166800000Y-124300000D02*
X168800000Y-126300000D01*
X168800000Y-126300000D02*
X168800000Y-127850000D01*
X171600000Y-116300000D02*
X166810000Y-116300000D01*
X166810000Y-116300000D02*
X166800000Y-116310000D01*
D38*
X166800000Y-116310000D02*
X166800000Y-111640000D01*
D39*
X194290000Y-70000000D02*
X194290000Y-80290000D01*
D36*
X147150000Y-123700000D02*
X148600000Y-125150000D01*
D37*
X166000000Y-127850000D02*
X168800000Y-127850000D01*
X168800000Y-127850000D02*
X172400000Y-127850000D01*
D39*
X127200000Y-87000000D02*
X120625000Y-87000000D01*
X120625000Y-87000000D02*
X120590000Y-86965000D01*
D36*
X170200000Y-108337500D02*
X167077500Y-108337500D01*
X167077500Y-108337500D02*
X166800000Y-108060000D01*
X170200000Y-111262500D02*
X167177500Y-111262500D01*
X167177500Y-111262500D02*
X166800000Y-111640000D01*
D37*
X164800000Y-90000000D02*
X166000000Y-90000000D01*
X164800000Y-90000000D02*
X163650000Y-90000000D01*
D38*
X166800000Y-108060000D02*
X166800000Y-90800000D01*
X166800000Y-90800000D02*
X166000000Y-90000000D01*
D39*
X156500000Y-101959000D02*
X156500000Y-100400000D01*
D37*
X156500000Y-79900000D02*
X156500000Y-81700000D01*
D34*
X157800000Y-98800000D02*
X157800000Y-99100000D01*
D40*
X156500000Y-78491000D02*
X156500000Y-77062500D01*
D37*
X156500000Y-100400000D02*
X156500000Y-99000000D01*
D40*
X156500000Y-78491000D02*
X156500000Y-79900000D01*
X156500000Y-79900000D02*
X156600000Y-79900000D01*
D39*
X158450000Y-86000000D02*
X159000000Y-85450000D01*
X158450000Y-88500000D02*
X161450000Y-88500000D01*
X159000000Y-85450000D02*
X159000000Y-83000000D01*
X151000000Y-87000000D02*
X158450000Y-87000000D01*
X158450000Y-87000000D02*
X158450000Y-86000000D01*
X158450000Y-88500000D02*
X158450000Y-87000000D01*
X159000000Y-78500000D02*
X159000000Y-83000000D01*
X156200000Y-97000000D02*
X159000000Y-97000000D01*
X158450000Y-93700000D02*
X159000000Y-94250000D01*
D40*
X153500000Y-103300000D02*
X154000000Y-103300000D01*
D39*
X151000000Y-93000000D02*
X158450000Y-93000000D01*
X154000000Y-99200000D02*
X156200000Y-97000000D01*
X154000000Y-101959000D02*
X154000000Y-99200000D01*
X158450000Y-93000000D02*
X158450000Y-91450000D01*
X158450000Y-93000000D02*
X158450000Y-93700000D01*
X159000000Y-94250000D02*
X159000000Y-97000000D01*
X158450000Y-91450000D02*
X161450000Y-91450000D01*
X143200000Y-87000000D02*
X143200000Y-83900000D01*
X143200000Y-80950000D02*
X147025000Y-80950000D01*
D36*
X143200000Y-78325000D02*
X143200000Y-80950000D01*
X143200000Y-78325000D02*
X140150000Y-78325000D01*
D39*
X143200000Y-96300000D02*
X143200000Y-93000000D01*
D34*
X140300000Y-99250000D02*
X140300000Y-102250000D01*
X140300000Y-99250000D02*
X143200000Y-99250000D01*
D39*
X145137500Y-101950000D02*
X145137500Y-101187500D01*
X145137500Y-101187500D02*
X143200000Y-99250000D01*
D34*
X132700000Y-103010000D02*
X134890000Y-103010000D01*
X134890000Y-103010000D02*
X135650000Y-102250000D01*
X135650000Y-102250000D02*
X137375000Y-102250000D01*
X137375000Y-102250000D02*
X137375000Y-99250000D01*
X137375000Y-105350000D02*
X137375000Y-102250000D01*
D36*
X140110000Y-75360000D02*
X140150000Y-75400000D01*
X134450000Y-75360000D02*
X140110000Y-75360000D01*
X143200000Y-75400000D02*
X140150000Y-75400000D01*
X143200000Y-73150000D02*
X143200000Y-75400000D01*
D34*
X139975000Y-120950000D02*
X140000000Y-120925000D01*
D36*
X140000000Y-123700000D02*
X140000000Y-120925000D01*
D34*
X143275000Y-120925000D02*
X143300000Y-120950000D01*
X127970000Y-120675000D02*
X127945000Y-120700000D01*
X131295000Y-117500000D02*
X127970000Y-117500000D01*
X141900000Y-120925000D02*
X143275000Y-120925000D01*
X127970000Y-117500000D02*
X127970000Y-120675000D01*
D39*
X166000000Y-127850000D02*
X166000000Y-131150000D01*
D34*
X140000000Y-118650000D02*
X140000000Y-115400000D01*
X134450000Y-77900000D02*
X134450000Y-93450000D01*
X130350000Y-103200000D02*
X132700000Y-105550000D01*
X130350000Y-97550000D02*
X130350000Y-103200000D01*
X134450000Y-93450000D02*
X130350000Y-97550000D01*
D39*
X156100000Y-127800000D02*
X156150000Y-127850000D01*
D41*
X146710000Y-127800000D02*
X156100000Y-127800000D01*
D37*
X156150000Y-127850000D02*
X162420000Y-127850000D01*
D34*
X119995000Y-117500000D02*
X124820000Y-117500000D01*
D41*
X122300000Y-127800000D02*
X133250000Y-127800000D01*
D39*
X194290000Y-80290000D02*
X197000000Y-83000000D01*
X159000000Y-101959000D02*
X159000000Y-100400000D01*
X149600000Y-101950000D02*
X152200000Y-101950000D01*
X148062500Y-101950000D02*
X149600000Y-101950000D01*
X154000000Y-79950000D02*
X154000000Y-78500000D01*
X153000000Y-80950000D02*
X154000000Y-79950000D01*
X149950000Y-80950000D02*
X153000000Y-80950000D01*
G04 #@! TA.AperFunction,Conductor*
G36*
X199442539Y-54520185D02*
G01*
X199488294Y-54572989D01*
X199499500Y-54624500D01*
X199499500Y-58927373D01*
X199479815Y-58994412D01*
X199471757Y-59001393D01*
X199496005Y-59043392D01*
X199499500Y-59072626D01*
X199499500Y-141927373D01*
X199479815Y-141994412D01*
X199471757Y-142001393D01*
X199496005Y-142043392D01*
X199499500Y-142072626D01*
X199499500Y-146375500D01*
X199479815Y-146442539D01*
X199427011Y-146488294D01*
X199375500Y-146499500D01*
X115624500Y-146499500D01*
X115557461Y-146479815D01*
X115511706Y-146427011D01*
X115500500Y-146375500D01*
X115500500Y-142072626D01*
X115520185Y-142005587D01*
X115523400Y-142002801D01*
X115721054Y-142002801D01*
X115743477Y-142037691D01*
X115748360Y-142066726D01*
X115764447Y-142404450D01*
X115822071Y-142805231D01*
X115917531Y-143198722D01*
X115917534Y-143198733D01*
X116049956Y-143581340D01*
X116049966Y-143581365D01*
X116218168Y-143949675D01*
X116420621Y-144300335D01*
X116420627Y-144300343D01*
X116655485Y-144630154D01*
X116822985Y-144823460D01*
X118313098Y-143333347D01*
X118380076Y-143420635D01*
X118579365Y-143619924D01*
X118666650Y-143686900D01*
X117174928Y-145178622D01*
X117213676Y-145215568D01*
X117213695Y-145215585D01*
X117531968Y-145465877D01*
X117872594Y-145684782D01*
X118232485Y-145870319D01*
X118608383Y-146020806D01*
X118608395Y-146020810D01*
X118996882Y-146134880D01*
X118996899Y-146134884D01*
X119394460Y-146211508D01*
X119394472Y-146211510D01*
X119797554Y-146250000D01*
X120202446Y-146250000D01*
X120605527Y-146211510D01*
X120605539Y-146211508D01*
X121003100Y-146134884D01*
X121003117Y-146134880D01*
X121391604Y-146020810D01*
X121391616Y-146020806D01*
X121767507Y-145870322D01*
X121767511Y-145870320D01*
X122127406Y-145684782D01*
X122468031Y-145465877D01*
X122786314Y-145215578D01*
X122825069Y-145178622D01*
X121333348Y-143686901D01*
X121420635Y-143619924D01*
X121619924Y-143420635D01*
X121686901Y-143333348D01*
X123177012Y-144823459D01*
X123344512Y-144630156D01*
X123344523Y-144630143D01*
X123579372Y-144300343D01*
X123579378Y-144300335D01*
X123781831Y-143949675D01*
X123950033Y-143581365D01*
X123950043Y-143581340D01*
X124082465Y-143198733D01*
X124082468Y-143198722D01*
X124177928Y-142805231D01*
X124235552Y-142404450D01*
X124254818Y-142000000D01*
X190745181Y-142000000D01*
X190764447Y-142404450D01*
X190822071Y-142805231D01*
X190917531Y-143198722D01*
X190917534Y-143198733D01*
X191049956Y-143581340D01*
X191049966Y-143581365D01*
X191218168Y-143949675D01*
X191420621Y-144300335D01*
X191420627Y-144300343D01*
X191655485Y-144630154D01*
X191822985Y-144823460D01*
X193313098Y-143333347D01*
X193380076Y-143420635D01*
X193579365Y-143619924D01*
X193666650Y-143686900D01*
X192174928Y-145178622D01*
X192213676Y-145215568D01*
X192213695Y-145215585D01*
X192531968Y-145465877D01*
X192872594Y-145684782D01*
X193232485Y-145870319D01*
X193608383Y-146020806D01*
X193608395Y-146020810D01*
X193996882Y-146134880D01*
X193996899Y-146134884D01*
X194394460Y-146211508D01*
X194394472Y-146211510D01*
X194797554Y-146250000D01*
X195202446Y-146250000D01*
X195605527Y-146211510D01*
X195605539Y-146211508D01*
X196003100Y-146134884D01*
X196003117Y-146134880D01*
X196391604Y-146020810D01*
X196391616Y-146020806D01*
X196767507Y-145870322D01*
X196767511Y-145870320D01*
X197127406Y-145684782D01*
X197468031Y-145465877D01*
X197786314Y-145215578D01*
X197825069Y-145178622D01*
X196333348Y-143686901D01*
X196420635Y-143619924D01*
X196619924Y-143420635D01*
X196686901Y-143333348D01*
X198177012Y-144823459D01*
X198344512Y-144630156D01*
X198344523Y-144630143D01*
X198579372Y-144300343D01*
X198579378Y-144300335D01*
X198781831Y-143949675D01*
X198950033Y-143581365D01*
X198950043Y-143581340D01*
X199082465Y-143198733D01*
X199082468Y-143198722D01*
X199177928Y-142805231D01*
X199235552Y-142404450D01*
X199251640Y-142066726D01*
X199274493Y-142000699D01*
X199278945Y-141997197D01*
X199256523Y-141962308D01*
X199251640Y-141933273D01*
X199235552Y-141595549D01*
X199177928Y-141194768D01*
X199082468Y-140801277D01*
X199082465Y-140801266D01*
X198950043Y-140418659D01*
X198950033Y-140418634D01*
X198781831Y-140050324D01*
X198579378Y-139699664D01*
X198579372Y-139699656D01*
X198344523Y-139369856D01*
X198344512Y-139369843D01*
X198177013Y-139176538D01*
X196686900Y-140666650D01*
X196619924Y-140579365D01*
X196420635Y-140380076D01*
X196333348Y-140313098D01*
X197825070Y-138821376D01*
X197786323Y-138784431D01*
X197786304Y-138784414D01*
X197468031Y-138534122D01*
X197127406Y-138315217D01*
X196767511Y-138129679D01*
X196767507Y-138129677D01*
X196391616Y-137979193D01*
X196391604Y-137979189D01*
X196003117Y-137865119D01*
X196003100Y-137865115D01*
X195605539Y-137788491D01*
X195605527Y-137788489D01*
X195202446Y-137750000D01*
X194797554Y-137750000D01*
X194394472Y-137788489D01*
X194394460Y-137788491D01*
X193996899Y-137865115D01*
X193996882Y-137865119D01*
X193608395Y-137979189D01*
X193608383Y-137979193D01*
X193232485Y-138129680D01*
X192872594Y-138315217D01*
X192531968Y-138534122D01*
X192213685Y-138784421D01*
X192213673Y-138784432D01*
X192174929Y-138821375D01*
X192174929Y-138821376D01*
X193666651Y-140313098D01*
X193579365Y-140380076D01*
X193380076Y-140579365D01*
X193313098Y-140666651D01*
X191822986Y-139176539D01*
X191655485Y-139369845D01*
X191420627Y-139699656D01*
X191420621Y-139699664D01*
X191218168Y-140050324D01*
X191049966Y-140418634D01*
X191049956Y-140418659D01*
X190917534Y-140801266D01*
X190917531Y-140801277D01*
X190822071Y-141194768D01*
X190764447Y-141595549D01*
X190745181Y-142000000D01*
X124254818Y-142000000D01*
X124235552Y-141595549D01*
X124177928Y-141194768D01*
X124082468Y-140801277D01*
X124082465Y-140801266D01*
X123950043Y-140418659D01*
X123950033Y-140418634D01*
X123781831Y-140050324D01*
X123579378Y-139699664D01*
X123579372Y-139699656D01*
X123344523Y-139369856D01*
X123344512Y-139369843D01*
X123177013Y-139176538D01*
X121686900Y-140666650D01*
X121619924Y-140579365D01*
X121420635Y-140380076D01*
X121333348Y-140313098D01*
X122825070Y-138821376D01*
X122786323Y-138784431D01*
X122786304Y-138784414D01*
X122468031Y-138534122D01*
X122127406Y-138315217D01*
X121767511Y-138129679D01*
X121767507Y-138129677D01*
X121391616Y-137979193D01*
X121391604Y-137979189D01*
X121003117Y-137865119D01*
X121003100Y-137865115D01*
X120605539Y-137788491D01*
X120605527Y-137788489D01*
X120202446Y-137750000D01*
X119797554Y-137750000D01*
X119394472Y-137788489D01*
X119394460Y-137788491D01*
X118996899Y-137865115D01*
X118996882Y-137865119D01*
X118608395Y-137979189D01*
X118608383Y-137979193D01*
X118232485Y-138129680D01*
X117872594Y-138315217D01*
X117531968Y-138534122D01*
X117213685Y-138784421D01*
X117213673Y-138784432D01*
X117174929Y-138821375D01*
X117174929Y-138821376D01*
X118666651Y-140313098D01*
X118579365Y-140380076D01*
X118380076Y-140579365D01*
X118313098Y-140666651D01*
X116822986Y-139176539D01*
X116655485Y-139369845D01*
X116420627Y-139699656D01*
X116420621Y-139699664D01*
X116218168Y-140050324D01*
X116049966Y-140418634D01*
X116049956Y-140418659D01*
X115917534Y-140801266D01*
X115917531Y-140801277D01*
X115822071Y-141194768D01*
X115764447Y-141595549D01*
X115748360Y-141933273D01*
X115725507Y-141999300D01*
X115721054Y-142002801D01*
X115523400Y-142002801D01*
X115528242Y-141998605D01*
X115503995Y-141956607D01*
X115500500Y-141927373D01*
X115500500Y-132799995D01*
X120595233Y-132799995D01*
X120595233Y-132800004D01*
X120614273Y-133054079D01*
X120670968Y-133302477D01*
X120670973Y-133302494D01*
X120764058Y-133539671D01*
X120764057Y-133539671D01*
X120891454Y-133760327D01*
X120891461Y-133760338D01*
X120933452Y-133812991D01*
X120933453Y-133812992D01*
X121735387Y-133011058D01*
X121740889Y-133031591D01*
X121819881Y-133168408D01*
X121931592Y-133280119D01*
X122068409Y-133359111D01*
X122088940Y-133364612D01*
X121286813Y-134166738D01*
X121447616Y-134276371D01*
X121447624Y-134276376D01*
X121677176Y-134386921D01*
X121677174Y-134386921D01*
X121920652Y-134462024D01*
X121920658Y-134462026D01*
X122172595Y-134499999D01*
X122172604Y-134500000D01*
X122427396Y-134500000D01*
X122427404Y-134499999D01*
X122679341Y-134462026D01*
X122679347Y-134462024D01*
X122922824Y-134386921D01*
X123152376Y-134276376D01*
X123152377Y-134276375D01*
X123313185Y-134166738D01*
X122511060Y-133364612D01*
X122531591Y-133359111D01*
X122668408Y-133280119D01*
X122780119Y-133168408D01*
X122859111Y-133031591D01*
X122864612Y-133011059D01*
X123666544Y-133812992D01*
X123666546Y-133812991D01*
X123708544Y-133760330D01*
X123835941Y-133539671D01*
X123929026Y-133302494D01*
X123929031Y-133302477D01*
X123985726Y-133054079D01*
X124004767Y-132800004D01*
X124004767Y-132799995D01*
X123994435Y-132662135D01*
X131964500Y-132662135D01*
X131964500Y-135577870D01*
X131964501Y-135577876D01*
X131970908Y-135637483D01*
X132021202Y-135772328D01*
X132021206Y-135772335D01*
X132107452Y-135887544D01*
X132107455Y-135887547D01*
X132222664Y-135973793D01*
X132222671Y-135973797D01*
X132357517Y-136024091D01*
X132357516Y-136024091D01*
X132364444Y-136024835D01*
X132417127Y-136030500D01*
X134082872Y-136030499D01*
X134142483Y-136024091D01*
X134277331Y-135973796D01*
X134392546Y-135887546D01*
X134478796Y-135772331D01*
X134529091Y-135637483D01*
X134535500Y-135577873D01*
X134535499Y-132662135D01*
X145424500Y-132662135D01*
X145424500Y-135577870D01*
X145424501Y-135577876D01*
X145430908Y-135637483D01*
X145481202Y-135772328D01*
X145481206Y-135772335D01*
X145567452Y-135887544D01*
X145567455Y-135887547D01*
X145682664Y-135973793D01*
X145682671Y-135973797D01*
X145817517Y-136024091D01*
X145817516Y-136024091D01*
X145824444Y-136024835D01*
X145877127Y-136030500D01*
X147542872Y-136030499D01*
X147602483Y-136024091D01*
X147737331Y-135973796D01*
X147852546Y-135887546D01*
X147938796Y-135772331D01*
X147965779Y-135699986D01*
X154000001Y-135699986D01*
X154010494Y-135802697D01*
X154065641Y-135969119D01*
X154065643Y-135969124D01*
X154157684Y-136118345D01*
X154281654Y-136242315D01*
X154430875Y-136334356D01*
X154430880Y-136334358D01*
X154597302Y-136389505D01*
X154597309Y-136389506D01*
X154700019Y-136399999D01*
X155899999Y-136399999D01*
X156400000Y-136399999D01*
X157599972Y-136399999D01*
X157599986Y-136399998D01*
X157702697Y-136389505D01*
X157869119Y-136334358D01*
X157869124Y-136334356D01*
X158018345Y-136242315D01*
X158142315Y-136118345D01*
X158234356Y-135969124D01*
X158234358Y-135969119D01*
X158289505Y-135802697D01*
X158289506Y-135802690D01*
X158299999Y-135699986D01*
X158300000Y-135699973D01*
X158300000Y-134900000D01*
X156400000Y-134900000D01*
X156400000Y-136399999D01*
X155899999Y-136399999D01*
X155900000Y-136399998D01*
X155900000Y-134900000D01*
X154000001Y-134900000D01*
X154000001Y-135699986D01*
X147965779Y-135699986D01*
X147989091Y-135637483D01*
X147995500Y-135577873D01*
X147995500Y-134474986D01*
X164600001Y-134474986D01*
X164610494Y-134577697D01*
X164665641Y-134744119D01*
X164665643Y-134744124D01*
X164757684Y-134893345D01*
X164881654Y-135017315D01*
X165030875Y-135109356D01*
X165030880Y-135109358D01*
X165197302Y-135164505D01*
X165197309Y-135164506D01*
X165300019Y-135174999D01*
X165749999Y-135174999D01*
X166250000Y-135174999D01*
X166699972Y-135174999D01*
X166699986Y-135174998D01*
X166802697Y-135164505D01*
X166969119Y-135109358D01*
X166969124Y-135109356D01*
X167118345Y-135017315D01*
X167242315Y-134893345D01*
X167299900Y-134799986D01*
X171100001Y-134799986D01*
X171110494Y-134902697D01*
X171165641Y-135069119D01*
X171165643Y-135069124D01*
X171257684Y-135218345D01*
X171381654Y-135342315D01*
X171530875Y-135434356D01*
X171530880Y-135434358D01*
X171697302Y-135489505D01*
X171697309Y-135489506D01*
X171800019Y-135499999D01*
X172149999Y-135499999D01*
X172650000Y-135499999D01*
X172999972Y-135499999D01*
X172999986Y-135499998D01*
X173102697Y-135489505D01*
X173269119Y-135434358D01*
X173269124Y-135434356D01*
X173418345Y-135342315D01*
X173542315Y-135218345D01*
X173634356Y-135069124D01*
X173634358Y-135069119D01*
X173689505Y-134902697D01*
X173689506Y-134902690D01*
X173699999Y-134799986D01*
X173700000Y-134799973D01*
X173700000Y-133500000D01*
X172650000Y-133500000D01*
X172650000Y-135499999D01*
X172149999Y-135499999D01*
X172150000Y-135499998D01*
X172150000Y-133500000D01*
X171100001Y-133500000D01*
X171100001Y-134799986D01*
X167299900Y-134799986D01*
X167334356Y-134744124D01*
X167334358Y-134744119D01*
X167389505Y-134577697D01*
X167389506Y-134577690D01*
X167399999Y-134474986D01*
X167400000Y-134474973D01*
X167400000Y-134350000D01*
X166250000Y-134350000D01*
X166250000Y-135174999D01*
X165749999Y-135174999D01*
X165750000Y-135174998D01*
X165750000Y-134350000D01*
X164600001Y-134350000D01*
X164600001Y-134474986D01*
X147995500Y-134474986D01*
X147995499Y-132662128D01*
X147989091Y-132602517D01*
X147938796Y-132467669D01*
X147938795Y-132467668D01*
X147938793Y-132467664D01*
X147852547Y-132352455D01*
X147852544Y-132352452D01*
X147737335Y-132266206D01*
X147737328Y-132266202D01*
X147602482Y-132215908D01*
X147602483Y-132215908D01*
X147542883Y-132209501D01*
X147542881Y-132209500D01*
X147542873Y-132209500D01*
X147542864Y-132209500D01*
X145877129Y-132209500D01*
X145877123Y-132209501D01*
X145817516Y-132215908D01*
X145682671Y-132266202D01*
X145682664Y-132266206D01*
X145567455Y-132352452D01*
X145567452Y-132352455D01*
X145481206Y-132467664D01*
X145481202Y-132467671D01*
X145430908Y-132602517D01*
X145424501Y-132662116D01*
X145424501Y-132662123D01*
X145424500Y-132662135D01*
X134535499Y-132662135D01*
X134535499Y-132662128D01*
X134529091Y-132602517D01*
X134478796Y-132467669D01*
X134478795Y-132467668D01*
X134478793Y-132467664D01*
X134392547Y-132352455D01*
X134392544Y-132352452D01*
X134277335Y-132266206D01*
X134277328Y-132266202D01*
X134142482Y-132215908D01*
X134142483Y-132215908D01*
X134082883Y-132209501D01*
X134082881Y-132209500D01*
X134082873Y-132209500D01*
X134082864Y-132209500D01*
X132417129Y-132209500D01*
X132417123Y-132209501D01*
X132357516Y-132215908D01*
X132222671Y-132266202D01*
X132222664Y-132266206D01*
X132107455Y-132352452D01*
X132107452Y-132352455D01*
X132021206Y-132467664D01*
X132021202Y-132467671D01*
X131970908Y-132602517D01*
X131964501Y-132662116D01*
X131964501Y-132662123D01*
X131964500Y-132662135D01*
X123994435Y-132662135D01*
X123985726Y-132545920D01*
X123929031Y-132297522D01*
X123929026Y-132297505D01*
X123835941Y-132060328D01*
X123835942Y-132060328D01*
X123708545Y-131839672D01*
X123666545Y-131787006D01*
X122864612Y-132588939D01*
X122859111Y-132568409D01*
X122780119Y-132431592D01*
X122668408Y-132319881D01*
X122531591Y-132240889D01*
X122511059Y-132235387D01*
X123313185Y-131433260D01*
X123152384Y-131323628D01*
X123152376Y-131323623D01*
X122922823Y-131213078D01*
X122922825Y-131213078D01*
X122679347Y-131137975D01*
X122679341Y-131137973D01*
X122427404Y-131100000D01*
X122172595Y-131100000D01*
X121920658Y-131137973D01*
X121920652Y-131137975D01*
X121677175Y-131213078D01*
X121447622Y-131323625D01*
X121447609Y-131323632D01*
X121286813Y-131433259D01*
X122088941Y-132235387D01*
X122068409Y-132240889D01*
X121931592Y-132319881D01*
X121819881Y-132431592D01*
X121740889Y-132568409D01*
X121735387Y-132588941D01*
X120933452Y-131787006D01*
X120891457Y-131839667D01*
X120764058Y-132060328D01*
X120670973Y-132297505D01*
X120670968Y-132297522D01*
X120614273Y-132545920D01*
X120595233Y-132799995D01*
X115500500Y-132799995D01*
X115500500Y-127685258D01*
X120549500Y-127685258D01*
X120549500Y-127914741D01*
X120579452Y-128142236D01*
X120579454Y-128142247D01*
X120595275Y-128201292D01*
X120599500Y-128233385D01*
X120599500Y-129047870D01*
X120599501Y-129047876D01*
X120605908Y-129107483D01*
X120656202Y-129242328D01*
X120656206Y-129242335D01*
X120742452Y-129357544D01*
X120742455Y-129357547D01*
X120857664Y-129443793D01*
X120857671Y-129443797D01*
X120992517Y-129494091D01*
X120992516Y-129494091D01*
X120999444Y-129494835D01*
X121052127Y-129500500D01*
X121866613Y-129500499D01*
X121898706Y-129504724D01*
X121908343Y-129507306D01*
X121957762Y-129520548D01*
X122185266Y-129550500D01*
X132043412Y-129550500D01*
X132110451Y-129570185D01*
X132117716Y-129575228D01*
X132150807Y-129600000D01*
X132222669Y-129653796D01*
X132222671Y-129653797D01*
X132357517Y-129704091D01*
X132357516Y-129704091D01*
X132364444Y-129704835D01*
X132417127Y-129710500D01*
X134082872Y-129710499D01*
X134142483Y-129704091D01*
X134277331Y-129653796D01*
X134392546Y-129567546D01*
X134478796Y-129452331D01*
X134529091Y-129317483D01*
X134535500Y-129257873D01*
X134535499Y-129041439D01*
X134555183Y-128974400D01*
X134566270Y-128959681D01*
X134568906Y-128956673D01*
X134568919Y-128956661D01*
X134708611Y-128774612D01*
X134823344Y-128575888D01*
X134911158Y-128363887D01*
X134970548Y-128142238D01*
X135000500Y-127914734D01*
X135000500Y-127685266D01*
X134970548Y-127457762D01*
X134911158Y-127236113D01*
X134823344Y-127024112D01*
X134708611Y-126825388D01*
X134708608Y-126825385D01*
X134708607Y-126825382D01*
X134624233Y-126715426D01*
X134568919Y-126643339D01*
X134568917Y-126643337D01*
X134568914Y-126643333D01*
X134566257Y-126640302D01*
X134536865Y-126576915D01*
X134535499Y-126558559D01*
X134535499Y-126342129D01*
X134535498Y-126342123D01*
X134535497Y-126342116D01*
X134529091Y-126282517D01*
X134519681Y-126257288D01*
X134478797Y-126147671D01*
X134478793Y-126147664D01*
X134392547Y-126032455D01*
X134392544Y-126032452D01*
X134277335Y-125946206D01*
X134277328Y-125946202D01*
X134142482Y-125895908D01*
X134142483Y-125895908D01*
X134082883Y-125889501D01*
X134082881Y-125889500D01*
X134082873Y-125889500D01*
X134082864Y-125889500D01*
X132417129Y-125889500D01*
X132417123Y-125889501D01*
X132357516Y-125895908D01*
X132222671Y-125946202D01*
X132222669Y-125946203D01*
X132152243Y-125998925D01*
X132117721Y-126024767D01*
X132052259Y-126049184D01*
X132043412Y-126049500D01*
X122185258Y-126049500D01*
X121957758Y-126079452D01*
X121957755Y-126079453D01*
X121898706Y-126095275D01*
X121866614Y-126099500D01*
X121052129Y-126099500D01*
X121052123Y-126099501D01*
X120992516Y-126105908D01*
X120857671Y-126156202D01*
X120857664Y-126156206D01*
X120742455Y-126242452D01*
X120742452Y-126242455D01*
X120656206Y-126357664D01*
X120656202Y-126357671D01*
X120605908Y-126492517D01*
X120599501Y-126552116D01*
X120599500Y-126552135D01*
X120599500Y-127366615D01*
X120595275Y-127398708D01*
X120579454Y-127457752D01*
X120579452Y-127457763D01*
X120549500Y-127685258D01*
X115500500Y-127685258D01*
X115500500Y-124399986D01*
X135975001Y-124399986D01*
X135985494Y-124502697D01*
X136040641Y-124669119D01*
X136040643Y-124669124D01*
X136132684Y-124818345D01*
X136256654Y-124942315D01*
X136405875Y-125034356D01*
X136405880Y-125034358D01*
X136572302Y-125089505D01*
X136572309Y-125089506D01*
X136675019Y-125099999D01*
X136799999Y-125099999D01*
X136800000Y-125099998D01*
X136800000Y-123950000D01*
X135975001Y-123950000D01*
X135975001Y-124399986D01*
X115500500Y-124399986D01*
X115500500Y-123000013D01*
X135975000Y-123000013D01*
X135975000Y-123450000D01*
X136800000Y-123450000D01*
X136800000Y-122300000D01*
X136675027Y-122300000D01*
X136675012Y-122300001D01*
X136572302Y-122310494D01*
X136405880Y-122365641D01*
X136405875Y-122365643D01*
X136256654Y-122457684D01*
X136132684Y-122581654D01*
X136040643Y-122730875D01*
X136040641Y-122730880D01*
X135985494Y-122897302D01*
X135985493Y-122897309D01*
X135975000Y-123000013D01*
X115500500Y-123000013D01*
X115500500Y-117500000D01*
X118439706Y-117500000D01*
X118458853Y-117743297D01*
X118458853Y-117743300D01*
X118458854Y-117743302D01*
X118505436Y-117937328D01*
X118515830Y-117980619D01*
X118609222Y-118206089D01*
X118736737Y-118414173D01*
X118736738Y-118414176D01*
X118773422Y-118457127D01*
X118895241Y-118599759D01*
X119014030Y-118701214D01*
X119080818Y-118758257D01*
X119080819Y-118758258D01*
X119080821Y-118758259D01*
X119135436Y-118791727D01*
X119158327Y-118809773D01*
X119824766Y-119476212D01*
X119782708Y-119487482D01*
X119657292Y-119559890D01*
X119554890Y-119662292D01*
X119482482Y-119787708D01*
X119471212Y-119829765D01*
X118733504Y-119092057D01*
X118609668Y-119294138D01*
X118516303Y-119519542D01*
X118459348Y-119756780D01*
X118440207Y-120000000D01*
X118459348Y-120243219D01*
X118516303Y-120480457D01*
X118609668Y-120705861D01*
X118733504Y-120907941D01*
X119471212Y-120170233D01*
X119482482Y-120212292D01*
X119554890Y-120337708D01*
X119657292Y-120440110D01*
X119782708Y-120512518D01*
X119824765Y-120523787D01*
X119087057Y-121261494D01*
X119289138Y-121385331D01*
X119514542Y-121478696D01*
X119751780Y-121535651D01*
X119751779Y-121535651D01*
X119995000Y-121554792D01*
X120238219Y-121535651D01*
X120475457Y-121478696D01*
X120700861Y-121385331D01*
X120902941Y-121261495D01*
X120902941Y-121261494D01*
X120165235Y-120523787D01*
X120207292Y-120512518D01*
X120332708Y-120440110D01*
X120435110Y-120337708D01*
X120507518Y-120212292D01*
X120518787Y-120170234D01*
X121256494Y-120907941D01*
X121256495Y-120907941D01*
X121380331Y-120705861D01*
X121473696Y-120480457D01*
X121530651Y-120243219D01*
X121549792Y-120000000D01*
X121549791Y-119999983D01*
X126869500Y-119999983D01*
X126869500Y-121400001D01*
X126869501Y-121400018D01*
X126880000Y-121502796D01*
X126880001Y-121502799D01*
X126935185Y-121669331D01*
X126935187Y-121669336D01*
X126952801Y-121697893D01*
X127027288Y-121818656D01*
X127151344Y-121942712D01*
X127300666Y-122034814D01*
X127467203Y-122089999D01*
X127569991Y-122100500D01*
X128320008Y-122100499D01*
X128320016Y-122100498D01*
X128320019Y-122100498D01*
X128376302Y-122094748D01*
X128422797Y-122089999D01*
X128589334Y-122034814D01*
X128738656Y-121942712D01*
X128862712Y-121818656D01*
X128954814Y-121669334D01*
X128954815Y-121669331D01*
X128958605Y-121663187D01*
X128960261Y-121664208D01*
X128999939Y-121619152D01*
X129066142Y-121600000D01*
X129774413Y-121600000D01*
X129841452Y-121619685D01*
X129880171Y-121664010D01*
X129881851Y-121662975D01*
X129977684Y-121818345D01*
X130101654Y-121942315D01*
X130250875Y-122034356D01*
X130250880Y-122034358D01*
X130417302Y-122089505D01*
X130417309Y-122089506D01*
X130520019Y-122099999D01*
X130644999Y-122099999D01*
X131145000Y-122099999D01*
X131269972Y-122099999D01*
X131269986Y-122099998D01*
X131372697Y-122089505D01*
X131539119Y-122034358D01*
X131539124Y-122034356D01*
X131688345Y-121942315D01*
X131812315Y-121818345D01*
X131904356Y-121669124D01*
X131904358Y-121669119D01*
X131959505Y-121502697D01*
X131959506Y-121502690D01*
X131969999Y-121399986D01*
X131970000Y-121399973D01*
X131970000Y-120950000D01*
X131145000Y-120950000D01*
X131145000Y-122099999D01*
X130644999Y-122099999D01*
X130645000Y-122099998D01*
X130645000Y-120450000D01*
X131145000Y-120450000D01*
X131969999Y-120450000D01*
X131969999Y-120000028D01*
X131969998Y-120000013D01*
X131959505Y-119897302D01*
X131904358Y-119730880D01*
X131904356Y-119730875D01*
X131812315Y-119581654D01*
X131688345Y-119457684D01*
X131539124Y-119365643D01*
X131539119Y-119365641D01*
X131372697Y-119310494D01*
X131372690Y-119310493D01*
X131269986Y-119300000D01*
X131145000Y-119300000D01*
X131145000Y-120450000D01*
X130645000Y-120450000D01*
X130645000Y-119300000D01*
X130520027Y-119300000D01*
X130520012Y-119300001D01*
X130417302Y-119310494D01*
X130250880Y-119365641D01*
X130250875Y-119365643D01*
X130101654Y-119457684D01*
X129977683Y-119581655D01*
X129977680Y-119581659D01*
X129891674Y-119721097D01*
X129839726Y-119767822D01*
X129786136Y-119780000D01*
X129054450Y-119780000D01*
X128987411Y-119760315D01*
X128948911Y-119721096D01*
X128927948Y-119687110D01*
X128862712Y-119581344D01*
X128738656Y-119457288D01*
X128738652Y-119457285D01*
X128654403Y-119405319D01*
X128607678Y-119353371D01*
X128595500Y-119299781D01*
X128595500Y-118934797D01*
X128615185Y-118867758D01*
X128654403Y-118829258D01*
X128713656Y-118792712D01*
X128837712Y-118668656D01*
X128929814Y-118519334D01*
X128984999Y-118352797D01*
X128995500Y-118250009D01*
X128995500Y-118249500D01*
X128995531Y-118249394D01*
X128995660Y-118246861D01*
X128995820Y-118246869D01*
X128995821Y-118246868D01*
X128995844Y-118246870D01*
X128996265Y-118246891D01*
X129015185Y-118182461D01*
X129067989Y-118136706D01*
X129119500Y-118125500D01*
X130455397Y-118125500D01*
X130522436Y-118145185D01*
X130551250Y-118170835D01*
X130584116Y-118210883D01*
X130736460Y-118335909D01*
X130736467Y-118335913D01*
X130910266Y-118428811D01*
X130910269Y-118428811D01*
X130910273Y-118428814D01*
X131098868Y-118486024D01*
X131295000Y-118505341D01*
X131491132Y-118486024D01*
X131679727Y-118428814D01*
X131707119Y-118414173D01*
X131821941Y-118352799D01*
X131853538Y-118335910D01*
X132005883Y-118210883D01*
X132130910Y-118058538D01*
X132223814Y-117884727D01*
X132281024Y-117696132D01*
X132300341Y-117500000D01*
X132281024Y-117303868D01*
X132223814Y-117115273D01*
X132223811Y-117115269D01*
X132223811Y-117115266D01*
X132130913Y-116941467D01*
X132130909Y-116941460D01*
X132005883Y-116789116D01*
X131853539Y-116664090D01*
X131853532Y-116664086D01*
X131679733Y-116571188D01*
X131679727Y-116571186D01*
X131505535Y-116518345D01*
X131491129Y-116513975D01*
X131295000Y-116494659D01*
X131098870Y-116513975D01*
X130910266Y-116571188D01*
X130736467Y-116664086D01*
X130736460Y-116664090D01*
X130584116Y-116789116D01*
X130551250Y-116829165D01*
X130493505Y-116868499D01*
X130455397Y-116874500D01*
X129119499Y-116874500D01*
X129052460Y-116854815D01*
X129006705Y-116802011D01*
X128996068Y-116753120D01*
X128995659Y-116753141D01*
X128995532Y-116750653D01*
X128995499Y-116750500D01*
X128995499Y-116749998D01*
X128995498Y-116749981D01*
X128984999Y-116647203D01*
X128984998Y-116647200D01*
X128983379Y-116642315D01*
X128929814Y-116480666D01*
X128837712Y-116331344D01*
X128713656Y-116207288D01*
X128564334Y-116115186D01*
X128397797Y-116060001D01*
X128397795Y-116060000D01*
X128295010Y-116049500D01*
X127644998Y-116049500D01*
X127644980Y-116049501D01*
X127542203Y-116060000D01*
X127542200Y-116060001D01*
X127375668Y-116115185D01*
X127375663Y-116115187D01*
X127226342Y-116207289D01*
X127102289Y-116331342D01*
X127010187Y-116480663D01*
X127010185Y-116480668D01*
X126997597Y-116518656D01*
X126955001Y-116647203D01*
X126955001Y-116647204D01*
X126955000Y-116647204D01*
X126944500Y-116749983D01*
X126944500Y-118250001D01*
X126944501Y-118250018D01*
X126955000Y-118352796D01*
X126955001Y-118352799D01*
X126989573Y-118457128D01*
X127010186Y-118519334D01*
X127102288Y-118668656D01*
X127226344Y-118792712D01*
X127285596Y-118829258D01*
X127332321Y-118881204D01*
X127344500Y-118934797D01*
X127344500Y-119268942D01*
X127324815Y-119335981D01*
X127285598Y-119374479D01*
X127235600Y-119405319D01*
X127151342Y-119457289D01*
X127027289Y-119581342D01*
X126935187Y-119730663D01*
X126935185Y-119730668D01*
X126925361Y-119760315D01*
X126880001Y-119897203D01*
X126880001Y-119897204D01*
X126880000Y-119897204D01*
X126869500Y-119999983D01*
X121549791Y-119999983D01*
X121530651Y-119756780D01*
X121473696Y-119519542D01*
X121380331Y-119294138D01*
X121256494Y-119092057D01*
X120518787Y-119829764D01*
X120507518Y-119787708D01*
X120435110Y-119662292D01*
X120332708Y-119559890D01*
X120207292Y-119487482D01*
X120165233Y-119476212D01*
X120831670Y-118809774D01*
X120854553Y-118791733D01*
X120909179Y-118758259D01*
X121094759Y-118599759D01*
X121253259Y-118414179D01*
X121380777Y-118206089D01*
X121380881Y-118205837D01*
X121382454Y-118202043D01*
X121426297Y-118147641D01*
X121492592Y-118125579D01*
X121497013Y-118125500D01*
X123670501Y-118125500D01*
X123737540Y-118145185D01*
X123783295Y-118197989D01*
X123793931Y-118246879D01*
X123794341Y-118246859D01*
X123794467Y-118249346D01*
X123794501Y-118249500D01*
X123794501Y-118250018D01*
X123805000Y-118352796D01*
X123805001Y-118352799D01*
X123839573Y-118457128D01*
X123860186Y-118519334D01*
X123952288Y-118668656D01*
X124076344Y-118792712D01*
X124225666Y-118884814D01*
X124392203Y-118939999D01*
X124494991Y-118950500D01*
X125145008Y-118950499D01*
X125145016Y-118950498D01*
X125145019Y-118950498D01*
X125201302Y-118944748D01*
X125247797Y-118939999D01*
X125414334Y-118884814D01*
X125563656Y-118792712D01*
X125687712Y-118668656D01*
X125779814Y-118519334D01*
X125834999Y-118352797D01*
X125845500Y-118250009D01*
X125845499Y-116749992D01*
X125834999Y-116647203D01*
X125779814Y-116480666D01*
X125687712Y-116331344D01*
X125563656Y-116207288D01*
X125414334Y-116115186D01*
X125247797Y-116060001D01*
X125247795Y-116060000D01*
X125145010Y-116049500D01*
X124494998Y-116049500D01*
X124494980Y-116049501D01*
X124392203Y-116060000D01*
X124392200Y-116060001D01*
X124225668Y-116115185D01*
X124225663Y-116115187D01*
X124076342Y-116207289D01*
X123952289Y-116331342D01*
X123860187Y-116480663D01*
X123860185Y-116480668D01*
X123847597Y-116518656D01*
X123805001Y-116647203D01*
X123805001Y-116647204D01*
X123805000Y-116647204D01*
X123794500Y-116749983D01*
X123794500Y-116750500D01*
X123794468Y-116750605D01*
X123794340Y-116753139D01*
X123794179Y-116753130D01*
X123794179Y-116753132D01*
X123794155Y-116753129D01*
X123793734Y-116753108D01*
X123774815Y-116817539D01*
X123722011Y-116863294D01*
X123670500Y-116874500D01*
X121497013Y-116874500D01*
X121429974Y-116854815D01*
X121384219Y-116802011D01*
X121382454Y-116797957D01*
X121380779Y-116793915D01*
X121380777Y-116793911D01*
X121253262Y-116585826D01*
X121253261Y-116585823D01*
X121217453Y-116543897D01*
X121094759Y-116400241D01*
X120972063Y-116295449D01*
X120909176Y-116241738D01*
X120909173Y-116241737D01*
X120701089Y-116114222D01*
X120475618Y-116020830D01*
X120475621Y-116020830D01*
X120369992Y-115995470D01*
X120238302Y-115963854D01*
X120238300Y-115963853D01*
X120238297Y-115963853D01*
X119995000Y-115944706D01*
X119751702Y-115963853D01*
X119514380Y-116020830D01*
X119288910Y-116114222D01*
X119080826Y-116241737D01*
X119080823Y-116241738D01*
X118895241Y-116400241D01*
X118736738Y-116585823D01*
X118736737Y-116585826D01*
X118609222Y-116793910D01*
X118515830Y-117019380D01*
X118458853Y-117256702D01*
X118439706Y-117500000D01*
X115500500Y-117500000D01*
X115500500Y-97488389D01*
X129724500Y-97488389D01*
X129724500Y-103261611D01*
X129748535Y-103382444D01*
X129748540Y-103382461D01*
X129795684Y-103496278D01*
X129795687Y-103496285D01*
X129805443Y-103510884D01*
X129805444Y-103510886D01*
X129864141Y-103598732D01*
X129864144Y-103598736D01*
X129955586Y-103690178D01*
X129955608Y-103690198D01*
X131465907Y-105200497D01*
X131499392Y-105261820D01*
X131498001Y-105320269D01*
X131493453Y-105337241D01*
X131493450Y-105337258D01*
X131474838Y-105549998D01*
X131474838Y-105550001D01*
X131493450Y-105762741D01*
X131493452Y-105762752D01*
X131548721Y-105969022D01*
X131548723Y-105969026D01*
X131548724Y-105969030D01*
X131586469Y-106049973D01*
X131638977Y-106162578D01*
X131761472Y-106337521D01*
X131912478Y-106488527D01*
X131912481Y-106488529D01*
X132021623Y-106564950D01*
X132065248Y-106619526D01*
X132072368Y-106655697D01*
X132073903Y-106655546D01*
X132074500Y-106661611D01*
X132098535Y-106782444D01*
X132098540Y-106782461D01*
X132145685Y-106896280D01*
X132145690Y-106896289D01*
X132179914Y-106947507D01*
X132179915Y-106947509D01*
X132214141Y-106998733D01*
X132305586Y-107090178D01*
X132305608Y-107090198D01*
X139201840Y-113986430D01*
X139235325Y-114047753D01*
X139230341Y-114117445D01*
X139201840Y-114161792D01*
X139082289Y-114281342D01*
X138990187Y-114430663D01*
X138990185Y-114430668D01*
X138974560Y-114477822D01*
X138935001Y-114597203D01*
X138935001Y-114597204D01*
X138935000Y-114597204D01*
X138924500Y-114699983D01*
X138924500Y-116100001D01*
X138924501Y-116100018D01*
X138935000Y-116202796D01*
X138935001Y-116202799D01*
X138977597Y-116331342D01*
X138990186Y-116369334D01*
X139082288Y-116518656D01*
X139206344Y-116642712D01*
X139315597Y-116710099D01*
X139362321Y-116762047D01*
X139374500Y-116815638D01*
X139374500Y-117641691D01*
X139354815Y-117708730D01*
X139338181Y-117729372D01*
X139331923Y-117735629D01*
X139331917Y-117735637D01*
X139248255Y-117877103D01*
X139248254Y-117877106D01*
X139202402Y-118034926D01*
X139202401Y-118034932D01*
X139199500Y-118071798D01*
X139199500Y-119228201D01*
X139202401Y-119265067D01*
X139202402Y-119265073D01*
X139248254Y-119422893D01*
X139248255Y-119422896D01*
X139331917Y-119564362D01*
X139331923Y-119564370D01*
X139448129Y-119680576D01*
X139448140Y-119680585D01*
X139448455Y-119680771D01*
X139448650Y-119680980D01*
X139454298Y-119685361D01*
X139453591Y-119686272D01*
X139496136Y-119731843D01*
X139508637Y-119800585D01*
X139481988Y-119865173D01*
X139454078Y-119889356D01*
X139454298Y-119889639D01*
X139449092Y-119893676D01*
X139448455Y-119894229D01*
X139448140Y-119894414D01*
X139448129Y-119894423D01*
X139331923Y-120010629D01*
X139331917Y-120010637D01*
X139248255Y-120152103D01*
X139248254Y-120152106D01*
X139202402Y-120309926D01*
X139202401Y-120309932D01*
X139199500Y-120346798D01*
X139199500Y-121503201D01*
X139202401Y-121540067D01*
X139202402Y-121540073D01*
X139244576Y-121685233D01*
X139249500Y-121719828D01*
X139249500Y-122363132D01*
X139229815Y-122430171D01*
X139210616Y-122451346D01*
X139211451Y-122452181D01*
X139082288Y-122581343D01*
X139082287Y-122581344D01*
X138989921Y-122731096D01*
X138937973Y-122777821D01*
X138884382Y-122790000D01*
X138165032Y-122790000D01*
X138097993Y-122770315D01*
X138059494Y-122731097D01*
X137967319Y-122581659D01*
X137967316Y-122581655D01*
X137843345Y-122457684D01*
X137694124Y-122365643D01*
X137694119Y-122365641D01*
X137527697Y-122310494D01*
X137527690Y-122310493D01*
X137424986Y-122300000D01*
X137300000Y-122300000D01*
X137300000Y-125099999D01*
X137424972Y-125099999D01*
X137424986Y-125099998D01*
X137527697Y-125089505D01*
X137694119Y-125034358D01*
X137694124Y-125034356D01*
X137843345Y-124942315D01*
X137967316Y-124818344D01*
X137967319Y-124818340D01*
X138059494Y-124668903D01*
X138111441Y-124622178D01*
X138165032Y-124610000D01*
X138884382Y-124610000D01*
X138951421Y-124629685D01*
X138989921Y-124668904D01*
X138990185Y-124669333D01*
X138990186Y-124669334D01*
X139022077Y-124721038D01*
X139082095Y-124818344D01*
X139082288Y-124818656D01*
X139206344Y-124942712D01*
X139355666Y-125034814D01*
X139522203Y-125089999D01*
X139624991Y-125100500D01*
X140375008Y-125100499D01*
X140375016Y-125100498D01*
X140375019Y-125100498D01*
X140431302Y-125094748D01*
X140477797Y-125089999D01*
X140644334Y-125034814D01*
X140793656Y-124942712D01*
X140917712Y-124818656D01*
X141009814Y-124669334D01*
X141054164Y-124535494D01*
X141093936Y-124478051D01*
X141158451Y-124451228D01*
X141171869Y-124450500D01*
X146787770Y-124450500D01*
X146854809Y-124470185D01*
X146875451Y-124486819D01*
X148121582Y-125732950D01*
X148158008Y-125757289D01*
X148158007Y-125757289D01*
X148244503Y-125815083D01*
X148246487Y-125816144D01*
X148247330Y-125816972D01*
X148249570Y-125818469D01*
X148249286Y-125818893D01*
X148296330Y-125865108D01*
X148311788Y-125933246D01*
X148287954Y-125998925D01*
X148232395Y-126041292D01*
X148188030Y-126049500D01*
X147916588Y-126049500D01*
X147849549Y-126029815D01*
X147842283Y-126024771D01*
X147737331Y-125946204D01*
X147737330Y-125946203D01*
X147737328Y-125946202D01*
X147602482Y-125895908D01*
X147602483Y-125895908D01*
X147542883Y-125889501D01*
X147542881Y-125889500D01*
X147542873Y-125889500D01*
X147542864Y-125889500D01*
X145877129Y-125889500D01*
X145877123Y-125889501D01*
X145817516Y-125895908D01*
X145682671Y-125946202D01*
X145682664Y-125946206D01*
X145567455Y-126032452D01*
X145567452Y-126032455D01*
X145481206Y-126147664D01*
X145481202Y-126147671D01*
X145430908Y-126282517D01*
X145426225Y-126326082D01*
X145424501Y-126342123D01*
X145424500Y-126342135D01*
X145424500Y-126558560D01*
X145404815Y-126625599D01*
X145393736Y-126640310D01*
X145391088Y-126643329D01*
X145251389Y-126825387D01*
X145136657Y-127024109D01*
X145136650Y-127024123D01*
X145048842Y-127236112D01*
X144989453Y-127457759D01*
X144989451Y-127457770D01*
X144959500Y-127685258D01*
X144959500Y-127914741D01*
X144984446Y-128104215D01*
X144989452Y-128142238D01*
X145048842Y-128363887D01*
X145136650Y-128575876D01*
X145136657Y-128575890D01*
X145251392Y-128774617D01*
X145324255Y-128869572D01*
X145391081Y-128956661D01*
X145391088Y-128956668D01*
X145393737Y-128959690D01*
X145423133Y-129023075D01*
X145424500Y-129041438D01*
X145424500Y-129257869D01*
X145424501Y-129257876D01*
X145430908Y-129317483D01*
X145481202Y-129452328D01*
X145481206Y-129452335D01*
X145567452Y-129567544D01*
X145567455Y-129567547D01*
X145682664Y-129653793D01*
X145682671Y-129653797D01*
X145817517Y-129704091D01*
X145817516Y-129704091D01*
X145824444Y-129704835D01*
X145877127Y-129710500D01*
X147542872Y-129710499D01*
X147602483Y-129704091D01*
X147737331Y-129653796D01*
X147842278Y-129575232D01*
X147907741Y-129550816D01*
X147916588Y-129550500D01*
X152926000Y-129550500D01*
X152993039Y-129570185D01*
X153038794Y-129622989D01*
X153050000Y-129674500D01*
X153050000Y-133150000D01*
X153955346Y-133150000D01*
X154022385Y-133169685D01*
X154068140Y-133222489D01*
X154078084Y-133291647D01*
X154067729Y-133326403D01*
X154065642Y-133330877D01*
X154010494Y-133497302D01*
X154010493Y-133497309D01*
X154000000Y-133600013D01*
X154000000Y-134400000D01*
X158299999Y-134400000D01*
X158299999Y-133600028D01*
X158299998Y-133600013D01*
X158289505Y-133497302D01*
X158234357Y-133330877D01*
X158232271Y-133326403D01*
X158221780Y-133257325D01*
X158250301Y-133193542D01*
X158308779Y-133155303D01*
X158344654Y-133150000D01*
X159200000Y-133150000D01*
X159200000Y-129600000D01*
X158160730Y-129600000D01*
X158093691Y-129580315D01*
X158047936Y-129527511D01*
X158037992Y-129458353D01*
X158067017Y-129394797D01*
X158073049Y-129388319D01*
X158103824Y-129357544D01*
X158142712Y-129318656D01*
X158234814Y-129169334D01*
X158234814Y-129169332D01*
X158238605Y-129163187D01*
X158240399Y-129164293D01*
X158279687Y-129119663D01*
X158345908Y-129100500D01*
X162518416Y-129100500D01*
X162518417Y-129100500D01*
X162603486Y-129087025D01*
X162622884Y-129085499D01*
X163852871Y-129085499D01*
X163852872Y-129085499D01*
X163912483Y-129079091D01*
X164047331Y-129028796D01*
X164135689Y-128962650D01*
X164201153Y-128938234D01*
X164269426Y-128953085D01*
X164284309Y-128962650D01*
X164320951Y-128990080D01*
X164372669Y-129028796D01*
X164372671Y-129028797D01*
X164406564Y-129041438D01*
X164507517Y-129079091D01*
X164567127Y-129085500D01*
X164875500Y-129085499D01*
X164942539Y-129105183D01*
X164988294Y-129157987D01*
X164999500Y-129209499D01*
X164999500Y-130090201D01*
X164979815Y-130157240D01*
X164940598Y-130195739D01*
X164881344Y-130232287D01*
X164757289Y-130356342D01*
X164665187Y-130505663D01*
X164665186Y-130505666D01*
X164610001Y-130672203D01*
X164610001Y-130672204D01*
X164610000Y-130672204D01*
X164599500Y-130774983D01*
X164599500Y-131525001D01*
X164599501Y-131525019D01*
X164610000Y-131627796D01*
X164610001Y-131627799D01*
X164665185Y-131794331D01*
X164665187Y-131794336D01*
X164757289Y-131943657D01*
X164881344Y-132067712D01*
X165031096Y-132160079D01*
X165077821Y-132212027D01*
X165090000Y-132265618D01*
X165090000Y-132984968D01*
X165070315Y-133052007D01*
X165031097Y-133090506D01*
X164881659Y-133182680D01*
X164881655Y-133182683D01*
X164757684Y-133306654D01*
X164665643Y-133455875D01*
X164665641Y-133455880D01*
X164610494Y-133622302D01*
X164610493Y-133622309D01*
X164600000Y-133725013D01*
X164600000Y-133850000D01*
X167399999Y-133850000D01*
X167399999Y-133725028D01*
X167399998Y-133725013D01*
X167389505Y-133622302D01*
X167334358Y-133455880D01*
X167334356Y-133455875D01*
X167242315Y-133306654D01*
X167118344Y-133182683D01*
X167118340Y-133182680D01*
X166968903Y-133090506D01*
X166922178Y-133038559D01*
X166910000Y-132984968D01*
X166910000Y-132265618D01*
X166929685Y-132198579D01*
X166968904Y-132160079D01*
X166969334Y-132159814D01*
X167118656Y-132067712D01*
X167242712Y-131943656D01*
X167334814Y-131794334D01*
X167389999Y-131627797D01*
X167400500Y-131525009D01*
X167400499Y-130774992D01*
X167389999Y-130672203D01*
X167334814Y-130505666D01*
X167242712Y-130356344D01*
X167118656Y-130232288D01*
X167118655Y-130232287D01*
X167059402Y-130195739D01*
X167012678Y-130143791D01*
X167000500Y-130090201D01*
X167000500Y-129224500D01*
X167020185Y-129157461D01*
X167072989Y-129111706D01*
X167124500Y-129100500D01*
X168701583Y-129100500D01*
X170975501Y-129100500D01*
X171042540Y-129120185D01*
X171088295Y-129172989D01*
X171099501Y-129224500D01*
X171099501Y-129400018D01*
X171110000Y-129502796D01*
X171110001Y-129502799D01*
X171165185Y-129669331D01*
X171165189Y-129669340D01*
X171252506Y-129810904D01*
X171270946Y-129878296D01*
X171250023Y-129944960D01*
X171196381Y-129989729D01*
X171146967Y-130000000D01*
X169200000Y-130000000D01*
X169200000Y-131250000D01*
X171055346Y-131250000D01*
X171122385Y-131269685D01*
X171168140Y-131322489D01*
X171178084Y-131391647D01*
X171167729Y-131426403D01*
X171165642Y-131430877D01*
X171110494Y-131597302D01*
X171110493Y-131597309D01*
X171100000Y-131700013D01*
X171100000Y-133000000D01*
X173699999Y-133000000D01*
X173699999Y-131700028D01*
X173699998Y-131700013D01*
X173689505Y-131597302D01*
X173634357Y-131430877D01*
X173632271Y-131426403D01*
X173621780Y-131357325D01*
X173650301Y-131293542D01*
X173708779Y-131255303D01*
X173744654Y-131250000D01*
X175750000Y-131250000D01*
X175750000Y-130000000D01*
X173653033Y-130000000D01*
X173585994Y-129980315D01*
X173540239Y-129927511D01*
X173530295Y-129858353D01*
X173547494Y-129810904D01*
X173613376Y-129704091D01*
X173634814Y-129669334D01*
X173689999Y-129502797D01*
X173700500Y-129400009D01*
X173700499Y-126299992D01*
X173689999Y-126197203D01*
X173634814Y-126030666D01*
X173542712Y-125881344D01*
X173418656Y-125757288D01*
X173269334Y-125665186D01*
X173102797Y-125610001D01*
X173102795Y-125610000D01*
X173000010Y-125599500D01*
X171799998Y-125599500D01*
X171799981Y-125599501D01*
X171697203Y-125610000D01*
X171697200Y-125610001D01*
X171530668Y-125665185D01*
X171530663Y-125665187D01*
X171381342Y-125757289D01*
X171257289Y-125881342D01*
X171165187Y-126030663D01*
X171165185Y-126030668D01*
X171143777Y-126095275D01*
X171110001Y-126197203D01*
X171110001Y-126197204D01*
X171110000Y-126197204D01*
X171099500Y-126299983D01*
X171099500Y-126475500D01*
X171079815Y-126542539D01*
X171027011Y-126588294D01*
X170975500Y-126599500D01*
X170174500Y-126599500D01*
X170107461Y-126579815D01*
X170061706Y-126527011D01*
X170050500Y-126475500D01*
X170050500Y-126201577D01*
X170031157Y-126079453D01*
X170019709Y-126007174D01*
X169983557Y-125895909D01*
X169958884Y-125819974D01*
X169958882Y-125819971D01*
X169958882Y-125819969D01*
X169880016Y-125665187D01*
X169869524Y-125644595D01*
X169753828Y-125485354D01*
X168086819Y-123818345D01*
X168053334Y-123757022D01*
X168050500Y-123730664D01*
X168050500Y-119791583D01*
X168037026Y-119706513D01*
X168035499Y-119687115D01*
X168035499Y-118457129D01*
X168035498Y-118457123D01*
X168035497Y-118457116D01*
X168029091Y-118397517D01*
X168012412Y-118352799D01*
X167978797Y-118262671D01*
X167978796Y-118262669D01*
X167933411Y-118202043D01*
X167912650Y-118174310D01*
X167888234Y-118108847D01*
X167903085Y-118040574D01*
X167912651Y-118025689D01*
X167978796Y-117937331D01*
X168029091Y-117802483D01*
X168035500Y-117742873D01*
X168035500Y-117674500D01*
X168055185Y-117607461D01*
X168107989Y-117561706D01*
X168159500Y-117550500D01*
X169807993Y-117550500D01*
X169846997Y-117556794D01*
X169947203Y-117589999D01*
X170049991Y-117600500D01*
X170550500Y-117600499D01*
X170617539Y-117620183D01*
X170663294Y-117672987D01*
X170674500Y-117724499D01*
X170674500Y-120687770D01*
X170654815Y-120754809D01*
X170638181Y-120775451D01*
X170632289Y-120781342D01*
X170540187Y-120930663D01*
X170540185Y-120930668D01*
X170524560Y-120977822D01*
X170485001Y-121097203D01*
X170485001Y-121097204D01*
X170485000Y-121097204D01*
X170474500Y-121199983D01*
X170474500Y-122600001D01*
X170474501Y-122600018D01*
X170485000Y-122702796D01*
X170485001Y-122702799D01*
X170540185Y-122869331D01*
X170540187Y-122869336D01*
X170551699Y-122888000D01*
X170632288Y-123018656D01*
X170756344Y-123142712D01*
X170905666Y-123234814D01*
X171072203Y-123289999D01*
X171174991Y-123300500D01*
X171925008Y-123300499D01*
X171925016Y-123300498D01*
X171925019Y-123300498D01*
X171981302Y-123294748D01*
X172027797Y-123289999D01*
X172194334Y-123234814D01*
X172343656Y-123142712D01*
X172467712Y-123018656D01*
X172559814Y-122869334D01*
X172559814Y-122869333D01*
X172560079Y-122868904D01*
X172612027Y-122822179D01*
X172665618Y-122810000D01*
X173384968Y-122810000D01*
X173452007Y-122829685D01*
X173490506Y-122868903D01*
X173582680Y-123018340D01*
X173582683Y-123018344D01*
X173706654Y-123142315D01*
X173855875Y-123234356D01*
X173855880Y-123234358D01*
X174022302Y-123289505D01*
X174022309Y-123289506D01*
X174125019Y-123299999D01*
X174249999Y-123299999D01*
X174750000Y-123299999D01*
X174874972Y-123299999D01*
X174874986Y-123299998D01*
X174977697Y-123289505D01*
X175144119Y-123234358D01*
X175144124Y-123234356D01*
X175293345Y-123142315D01*
X175417315Y-123018345D01*
X175509356Y-122869124D01*
X175509358Y-122869119D01*
X175564505Y-122702697D01*
X175564506Y-122702690D01*
X175574999Y-122599986D01*
X175575000Y-122599973D01*
X175575000Y-122150000D01*
X174750000Y-122150000D01*
X174750000Y-123299999D01*
X174249999Y-123299999D01*
X174250000Y-123299998D01*
X174250000Y-121650000D01*
X174750000Y-121650000D01*
X175574999Y-121650000D01*
X175574999Y-121200028D01*
X175574998Y-121200013D01*
X175564505Y-121097302D01*
X175509358Y-120930880D01*
X175509356Y-120930875D01*
X175417315Y-120781654D01*
X175293345Y-120657684D01*
X175144124Y-120565643D01*
X175144119Y-120565641D01*
X174977697Y-120510494D01*
X174977690Y-120510493D01*
X174874986Y-120500000D01*
X174750000Y-120500000D01*
X174750000Y-121650000D01*
X174250000Y-121650000D01*
X174250000Y-120500000D01*
X174125027Y-120500000D01*
X174125012Y-120500001D01*
X174022302Y-120510494D01*
X173855880Y-120565641D01*
X173855875Y-120565643D01*
X173706654Y-120657684D01*
X173582683Y-120781655D01*
X173582680Y-120781659D01*
X173490506Y-120931097D01*
X173438559Y-120977822D01*
X173384968Y-120990000D01*
X172665618Y-120990000D01*
X172598579Y-120970315D01*
X172560079Y-120931096D01*
X172467712Y-120781344D01*
X172461819Y-120775451D01*
X172428334Y-120714128D01*
X172425500Y-120687770D01*
X172425500Y-117724499D01*
X172445185Y-117657460D01*
X172497989Y-117611705D01*
X172549500Y-117600499D01*
X173150002Y-117600499D01*
X173150008Y-117600499D01*
X173252797Y-117589999D01*
X173419334Y-117534814D01*
X173510906Y-117478332D01*
X173578295Y-117459893D01*
X173644959Y-117480815D01*
X173689729Y-117534457D01*
X173700000Y-117583872D01*
X173700000Y-119550000D01*
X174950000Y-119550000D01*
X174950000Y-117614125D01*
X174969685Y-117547086D01*
X175022489Y-117501331D01*
X175091647Y-117491387D01*
X175139098Y-117508587D01*
X175180873Y-117534355D01*
X175180880Y-117534358D01*
X175347302Y-117589505D01*
X175347309Y-117589506D01*
X175450019Y-117599999D01*
X176749999Y-117599999D01*
X177250000Y-117599999D01*
X178549972Y-117599999D01*
X178549986Y-117599998D01*
X178652697Y-117589505D01*
X178819119Y-117534358D01*
X178819124Y-117534356D01*
X178968345Y-117442315D01*
X179092315Y-117318345D01*
X179184356Y-117169124D01*
X179184358Y-117169119D01*
X179239505Y-117002697D01*
X179239506Y-117002690D01*
X179249999Y-116899986D01*
X179250000Y-116899973D01*
X179250000Y-116550000D01*
X177250000Y-116550000D01*
X177250000Y-117599999D01*
X176749999Y-117599999D01*
X176750000Y-117599998D01*
X176750000Y-116050000D01*
X177250000Y-116050000D01*
X179249999Y-116050000D01*
X179249999Y-115700028D01*
X179249998Y-115700013D01*
X179239505Y-115597302D01*
X179184358Y-115430880D01*
X179184356Y-115430875D01*
X179092315Y-115281654D01*
X178968345Y-115157684D01*
X178819124Y-115065643D01*
X178819119Y-115065641D01*
X178652697Y-115010494D01*
X178652690Y-115010493D01*
X178549986Y-115000000D01*
X177250000Y-115000000D01*
X177250000Y-116050000D01*
X176750000Y-116050000D01*
X176750000Y-115000000D01*
X175450028Y-115000000D01*
X175450012Y-115000001D01*
X175347302Y-115010494D01*
X175180880Y-115065641D01*
X175180871Y-115065645D01*
X175139096Y-115091413D01*
X175071704Y-115109853D01*
X175005040Y-115088930D01*
X174960271Y-115035288D01*
X174950000Y-114985874D01*
X174950000Y-113050000D01*
X173700000Y-113050000D01*
X173700000Y-115016127D01*
X173680315Y-115083166D01*
X173627511Y-115128921D01*
X173558353Y-115138865D01*
X173510904Y-115121666D01*
X173419340Y-115065189D01*
X173419335Y-115065187D01*
X173419334Y-115065186D01*
X173252797Y-115010001D01*
X173252795Y-115010000D01*
X173150010Y-114999500D01*
X170049998Y-114999500D01*
X170049981Y-114999501D01*
X169947203Y-115010000D01*
X169947200Y-115010001D01*
X169846997Y-115043206D01*
X169807993Y-115049500D01*
X168424500Y-115049500D01*
X168357461Y-115029815D01*
X168311706Y-114977011D01*
X168300500Y-114925500D01*
X168300500Y-112137000D01*
X168320185Y-112069961D01*
X168372989Y-112024206D01*
X168424500Y-112013000D01*
X168900270Y-112013000D01*
X168967309Y-112032685D01*
X168987951Y-112049319D01*
X169106344Y-112167712D01*
X169255666Y-112259814D01*
X169422203Y-112314999D01*
X169524991Y-112325500D01*
X170875008Y-112325499D01*
X170977797Y-112314999D01*
X171144334Y-112259814D01*
X171293656Y-112167712D01*
X171417712Y-112043656D01*
X171509814Y-111894334D01*
X171564999Y-111727797D01*
X171575500Y-111625009D01*
X171575499Y-110899992D01*
X171564999Y-110797203D01*
X171509814Y-110630666D01*
X171417712Y-110481344D01*
X171293656Y-110357288D01*
X171144334Y-110265186D01*
X170977797Y-110210001D01*
X170977795Y-110210000D01*
X170875010Y-110199500D01*
X169524998Y-110199500D01*
X169524981Y-110199501D01*
X169422203Y-110210000D01*
X169422200Y-110210001D01*
X169255668Y-110265185D01*
X169255663Y-110265187D01*
X169106342Y-110357289D01*
X168987951Y-110475681D01*
X168926628Y-110509166D01*
X168900270Y-110512000D01*
X168159499Y-110512000D01*
X168092460Y-110492315D01*
X168046705Y-110439511D01*
X168035499Y-110388000D01*
X168035499Y-110207129D01*
X168035498Y-110207123D01*
X168035497Y-110207116D01*
X168029091Y-110147517D01*
X167978796Y-110012669D01*
X167912650Y-109924310D01*
X167888234Y-109858847D01*
X167903085Y-109790574D01*
X167912651Y-109775689D01*
X167978796Y-109687331D01*
X168029091Y-109552483D01*
X168035500Y-109492873D01*
X168035500Y-109212000D01*
X168055185Y-109144961D01*
X168107989Y-109099206D01*
X168159500Y-109088000D01*
X168900270Y-109088000D01*
X168967309Y-109107685D01*
X168987951Y-109124319D01*
X169106344Y-109242712D01*
X169255666Y-109334814D01*
X169422203Y-109389999D01*
X169524991Y-109400500D01*
X170875008Y-109400499D01*
X170977797Y-109389999D01*
X171144334Y-109334814D01*
X171293656Y-109242712D01*
X171417712Y-109118656D01*
X171509814Y-108969334D01*
X171564999Y-108802797D01*
X171575500Y-108700009D01*
X171575499Y-107974992D01*
X171564999Y-107872203D01*
X171509814Y-107705666D01*
X171417712Y-107556344D01*
X171293656Y-107432288D01*
X171144334Y-107340186D01*
X170977797Y-107285001D01*
X170977795Y-107285000D01*
X170875010Y-107274500D01*
X169524998Y-107274500D01*
X169524981Y-107274501D01*
X169422203Y-107285000D01*
X169422200Y-107285001D01*
X169255668Y-107340185D01*
X169255663Y-107340187D01*
X169106342Y-107432289D01*
X168987951Y-107550681D01*
X168926628Y-107584166D01*
X168900270Y-107587000D01*
X168424500Y-107587000D01*
X168357461Y-107567315D01*
X168311706Y-107514511D01*
X168300500Y-107463000D01*
X168300500Y-96999994D01*
X195494859Y-96999994D01*
X195494859Y-97000005D01*
X195515385Y-97247729D01*
X195515387Y-97247738D01*
X195576412Y-97488717D01*
X195676266Y-97716364D01*
X195776564Y-97869882D01*
X196517037Y-97129409D01*
X196534075Y-97192993D01*
X196599901Y-97307007D01*
X196692993Y-97400099D01*
X196807007Y-97465925D01*
X196870590Y-97482962D01*
X196129942Y-98223609D01*
X196176768Y-98260055D01*
X196176770Y-98260056D01*
X196395385Y-98378364D01*
X196395396Y-98378369D01*
X196630506Y-98459083D01*
X196875707Y-98500000D01*
X197124293Y-98500000D01*
X197369493Y-98459083D01*
X197604603Y-98378369D01*
X197604614Y-98378364D01*
X197823228Y-98260057D01*
X197823231Y-98260055D01*
X197870056Y-98223609D01*
X197129409Y-97482962D01*
X197192993Y-97465925D01*
X197307007Y-97400099D01*
X197400099Y-97307007D01*
X197465925Y-97192993D01*
X197482962Y-97129410D01*
X198223434Y-97869882D01*
X198323731Y-97716369D01*
X198423587Y-97488717D01*
X198484612Y-97247738D01*
X198484614Y-97247729D01*
X198505141Y-97000005D01*
X198505141Y-96999994D01*
X198484614Y-96752270D01*
X198484612Y-96752261D01*
X198423587Y-96511282D01*
X198323731Y-96283630D01*
X198223434Y-96130116D01*
X197482962Y-96870589D01*
X197465925Y-96807007D01*
X197400099Y-96692993D01*
X197307007Y-96599901D01*
X197192993Y-96534075D01*
X197129410Y-96517037D01*
X197870057Y-95776390D01*
X197870056Y-95776389D01*
X197823229Y-95739943D01*
X197604614Y-95621635D01*
X197604603Y-95621630D01*
X197369493Y-95540916D01*
X197124293Y-95500000D01*
X196875707Y-95500000D01*
X196630506Y-95540916D01*
X196395396Y-95621630D01*
X196395390Y-95621632D01*
X196176761Y-95739949D01*
X196129942Y-95776388D01*
X196129942Y-95776390D01*
X196870590Y-96517037D01*
X196807007Y-96534075D01*
X196692993Y-96599901D01*
X196599901Y-96692993D01*
X196534075Y-96807007D01*
X196517037Y-96870589D01*
X195776564Y-96130116D01*
X195676267Y-96283632D01*
X195576412Y-96511282D01*
X195515387Y-96752261D01*
X195515385Y-96752270D01*
X195494859Y-96999994D01*
X168300500Y-96999994D01*
X168300500Y-90681902D01*
X168263553Y-90448631D01*
X168229689Y-90344412D01*
X168190568Y-90224008D01*
X168190566Y-90224005D01*
X168190566Y-90224003D01*
X168083342Y-90013566D01*
X167944517Y-89822490D01*
X167777510Y-89655483D01*
X166977510Y-88855483D01*
X166786434Y-88716657D01*
X166784161Y-88715499D01*
X166575996Y-88609433D01*
X166351368Y-88536446D01*
X166118097Y-88499500D01*
X166118092Y-88499500D01*
X165881908Y-88499500D01*
X165881903Y-88499500D01*
X165648631Y-88536446D01*
X165424003Y-88609433D01*
X165213562Y-88716659D01*
X165200956Y-88725818D01*
X165135150Y-88749298D01*
X165128071Y-88749500D01*
X163551578Y-88749500D01*
X163357173Y-88780290D01*
X163169967Y-88841118D01*
X163030793Y-88912031D01*
X162962124Y-88924927D01*
X162897384Y-88898650D01*
X162857127Y-88841543D01*
X162850499Y-88801551D01*
X162850499Y-88124992D01*
X162848736Y-88107738D01*
X162839999Y-88022203D01*
X162839998Y-88022200D01*
X162832807Y-88000500D01*
X162784814Y-87855666D01*
X162692712Y-87706344D01*
X162568656Y-87582288D01*
X162475888Y-87525069D01*
X162419336Y-87490187D01*
X162419331Y-87490185D01*
X162395901Y-87482421D01*
X162252797Y-87435001D01*
X162252795Y-87435000D01*
X162150010Y-87424500D01*
X160749998Y-87424500D01*
X160749981Y-87424501D01*
X160647203Y-87435000D01*
X160647200Y-87435001D01*
X160473810Y-87492458D01*
X160473204Y-87490631D01*
X160433202Y-87499500D01*
X159574500Y-87499500D01*
X159507461Y-87479815D01*
X159461706Y-87427011D01*
X159450500Y-87375500D01*
X159450500Y-86465782D01*
X159470185Y-86398743D01*
X159486814Y-86378105D01*
X159777139Y-86087782D01*
X159828328Y-86011172D01*
X159886632Y-85923914D01*
X159949963Y-85771019D01*
X159962051Y-85741836D01*
X160000500Y-85548541D01*
X160000500Y-85351460D01*
X160000500Y-84177027D01*
X160020185Y-84109988D01*
X160033265Y-84093049D01*
X160188164Y-83924785D01*
X160324173Y-83716607D01*
X160424063Y-83488881D01*
X160485108Y-83247821D01*
X160496831Y-83106344D01*
X160505643Y-83000005D01*
X160505643Y-82999994D01*
X160485109Y-82752187D01*
X160485107Y-82752175D01*
X160424063Y-82511118D01*
X160324173Y-82283393D01*
X160188163Y-82075214D01*
X160033270Y-81906953D01*
X160002348Y-81844299D01*
X160000500Y-81822971D01*
X160000500Y-81080232D01*
X160020185Y-81013193D01*
X160050187Y-80980968D01*
X160119546Y-80929046D01*
X160205796Y-80813831D01*
X160256091Y-80678983D01*
X160262500Y-80619373D01*
X160262499Y-76695999D01*
X160282184Y-76628961D01*
X160334988Y-76583206D01*
X160386499Y-76572000D01*
X162065890Y-76572000D01*
X162065892Y-76572000D01*
X162193186Y-76537892D01*
X162307314Y-76472000D01*
X162400500Y-76378814D01*
X162466392Y-76264686D01*
X162500500Y-76137392D01*
X162500500Y-67534995D01*
X189844953Y-67534995D01*
X189844953Y-67535004D01*
X189865113Y-67804026D01*
X189865113Y-67804028D01*
X189925142Y-68067033D01*
X189925148Y-68067052D01*
X190023709Y-68318181D01*
X190023708Y-68318181D01*
X190158602Y-68551822D01*
X190212294Y-68619151D01*
X190212295Y-68619151D01*
X190934153Y-67897293D01*
X190941049Y-67913942D01*
X191028599Y-68044970D01*
X191140030Y-68156401D01*
X191271058Y-68243951D01*
X191287705Y-68250846D01*
X190564848Y-68973702D01*
X190747483Y-69098220D01*
X190747485Y-69098221D01*
X190990539Y-69215269D01*
X190990537Y-69215269D01*
X191248337Y-69294790D01*
X191248343Y-69294792D01*
X191515101Y-69334999D01*
X191515110Y-69335000D01*
X191784890Y-69335000D01*
X191784898Y-69334999D01*
X192051656Y-69294792D01*
X192051662Y-69294790D01*
X192309458Y-69215270D01*
X192527927Y-69110061D01*
X192596869Y-69098709D01*
X192661003Y-69126431D01*
X192699969Y-69184426D01*
X192701394Y-69254281D01*
X192697158Y-69267081D01*
X192612583Y-69482578D01*
X192612578Y-69482590D01*
X192612576Y-69482597D01*
X192554197Y-69738374D01*
X192554196Y-69738379D01*
X192534592Y-69999995D01*
X192534592Y-70000004D01*
X192554196Y-70261620D01*
X192554197Y-70261625D01*
X192612576Y-70517402D01*
X192612582Y-70517421D01*
X192708432Y-70761643D01*
X192814256Y-70944937D01*
X192830729Y-71012837D01*
X192807876Y-71078864D01*
X192752955Y-71122055D01*
X192683402Y-71128696D01*
X192637017Y-71109390D01*
X192552526Y-71051784D01*
X192552516Y-71051778D01*
X192309460Y-70934730D01*
X192309462Y-70934730D01*
X192051662Y-70855209D01*
X192051656Y-70855207D01*
X191784898Y-70815000D01*
X191515101Y-70815000D01*
X191248343Y-70855207D01*
X191248337Y-70855209D01*
X190990538Y-70934730D01*
X190747485Y-71051778D01*
X190747476Y-71051783D01*
X190564848Y-71176296D01*
X191287705Y-71899153D01*
X191271058Y-71906049D01*
X191140030Y-71993599D01*
X191028599Y-72105030D01*
X190941049Y-72236058D01*
X190934153Y-72252705D01*
X190212295Y-71530848D01*
X190158600Y-71598180D01*
X190023709Y-71831818D01*
X189925148Y-72082947D01*
X189925142Y-72082966D01*
X189865113Y-72345971D01*
X189865113Y-72345973D01*
X189844953Y-72614995D01*
X189844953Y-72615004D01*
X189865113Y-72884026D01*
X189865113Y-72884028D01*
X189925142Y-73147033D01*
X189925148Y-73147052D01*
X190023709Y-73398181D01*
X190023708Y-73398181D01*
X190158602Y-73631822D01*
X190212294Y-73699151D01*
X190212295Y-73699151D01*
X190934153Y-72977293D01*
X190941049Y-72993942D01*
X191028599Y-73124970D01*
X191140030Y-73236401D01*
X191271058Y-73323951D01*
X191287705Y-73330846D01*
X190564848Y-74053702D01*
X190747483Y-74178220D01*
X190747485Y-74178221D01*
X190990539Y-74295269D01*
X190990537Y-74295269D01*
X191248337Y-74374790D01*
X191248343Y-74374792D01*
X191515101Y-74414999D01*
X191515110Y-74415000D01*
X191784890Y-74415000D01*
X191784898Y-74414999D01*
X192051656Y-74374792D01*
X192051662Y-74374790D01*
X192309461Y-74295269D01*
X192552521Y-74178218D01*
X192735150Y-74053702D01*
X192012294Y-73330846D01*
X192028942Y-73323951D01*
X192159970Y-73236401D01*
X192271401Y-73124970D01*
X192358951Y-72993942D01*
X192365846Y-72977294D01*
X193087703Y-73699151D01*
X193104074Y-73698231D01*
X193125740Y-73683024D01*
X193195551Y-73680174D01*
X193255822Y-73715518D01*
X193287416Y-73777837D01*
X193289500Y-73800477D01*
X193289500Y-80388544D01*
X193319169Y-80537700D01*
X193326585Y-80574983D01*
X193326587Y-80574990D01*
X193327948Y-80581835D01*
X193403364Y-80763907D01*
X193403371Y-80763920D01*
X193512859Y-80927780D01*
X193512860Y-80927781D01*
X193512861Y-80927782D01*
X193652218Y-81067139D01*
X193652219Y-81067139D01*
X193659286Y-81074206D01*
X193659285Y-81074206D01*
X193659289Y-81074209D01*
X195460657Y-82875577D01*
X195494142Y-82936900D01*
X195496553Y-82973495D01*
X195495426Y-82987097D01*
X195494358Y-82999994D01*
X195494357Y-83000002D01*
X195494357Y-83000005D01*
X195514890Y-83247812D01*
X195514892Y-83247824D01*
X195575936Y-83488881D01*
X195675826Y-83716606D01*
X195811833Y-83924782D01*
X195811836Y-83924785D01*
X195980256Y-84107738D01*
X196176491Y-84260474D01*
X196203349Y-84275009D01*
X196393288Y-84377799D01*
X196395190Y-84378828D01*
X196630386Y-84459571D01*
X196875665Y-84500500D01*
X197124335Y-84500500D01*
X197369614Y-84459571D01*
X197604810Y-84378828D01*
X197823509Y-84260474D01*
X198019744Y-84107738D01*
X198188164Y-83924785D01*
X198324173Y-83716607D01*
X198424063Y-83488881D01*
X198485108Y-83247821D01*
X198496831Y-83106344D01*
X198505643Y-83000005D01*
X198505643Y-82999994D01*
X198485109Y-82752187D01*
X198485107Y-82752175D01*
X198424063Y-82511118D01*
X198324173Y-82283393D01*
X198188166Y-82075217D01*
X198084567Y-81962679D01*
X198019744Y-81892262D01*
X197823509Y-81739526D01*
X197823507Y-81739525D01*
X197823506Y-81739524D01*
X197604811Y-81621172D01*
X197604802Y-81621169D01*
X197369616Y-81540429D01*
X197124335Y-81499500D01*
X196965783Y-81499500D01*
X196898744Y-81479815D01*
X196878102Y-81463181D01*
X195326819Y-79911898D01*
X195293334Y-79850575D01*
X195290500Y-79824217D01*
X195290500Y-73752309D01*
X195310185Y-73685270D01*
X195326819Y-73664628D01*
X196014153Y-72977293D01*
X196021049Y-72993942D01*
X196108599Y-73124970D01*
X196220030Y-73236401D01*
X196351058Y-73323951D01*
X196367705Y-73330846D01*
X195644848Y-74053702D01*
X195827483Y-74178220D01*
X195827485Y-74178221D01*
X196070539Y-74295269D01*
X196070537Y-74295269D01*
X196328337Y-74374790D01*
X196328343Y-74374792D01*
X196595101Y-74414999D01*
X196595110Y-74415000D01*
X196864890Y-74415000D01*
X196864898Y-74414999D01*
X197131656Y-74374792D01*
X197131662Y-74374790D01*
X197389461Y-74295269D01*
X197632521Y-74178218D01*
X197815150Y-74053702D01*
X197092294Y-73330846D01*
X197108942Y-73323951D01*
X197239970Y-73236401D01*
X197351401Y-73124970D01*
X197438951Y-72993942D01*
X197445846Y-72977294D01*
X198167703Y-73699151D01*
X198167704Y-73699150D01*
X198221393Y-73631828D01*
X198221400Y-73631817D01*
X198356290Y-73398181D01*
X198454851Y-73147052D01*
X198454857Y-73147033D01*
X198514886Y-72884028D01*
X198514886Y-72884026D01*
X198535047Y-72615004D01*
X198535047Y-72614995D01*
X198514886Y-72345973D01*
X198514886Y-72345971D01*
X198454857Y-72082966D01*
X198454851Y-72082947D01*
X198356290Y-71831818D01*
X198356291Y-71831818D01*
X198221397Y-71598177D01*
X198167704Y-71530847D01*
X197445846Y-72252705D01*
X197438951Y-72236058D01*
X197351401Y-72105030D01*
X197239970Y-71993599D01*
X197108942Y-71906049D01*
X197092293Y-71899152D01*
X197815150Y-71176296D01*
X197632517Y-71051779D01*
X197632516Y-71051778D01*
X197389460Y-70934730D01*
X197389462Y-70934730D01*
X197131662Y-70855209D01*
X197131656Y-70855207D01*
X196864898Y-70815000D01*
X196595101Y-70815000D01*
X196328343Y-70855207D01*
X196328337Y-70855209D01*
X196070544Y-70934728D01*
X196018711Y-70959690D01*
X195949769Y-70971041D01*
X195885635Y-70943318D01*
X195846670Y-70885323D01*
X195845245Y-70815468D01*
X195857522Y-70785970D01*
X195871568Y-70761643D01*
X195967420Y-70517416D01*
X196025802Y-70261630D01*
X196045408Y-70000000D01*
X196025802Y-69738370D01*
X195967420Y-69482584D01*
X195927923Y-69381949D01*
X195921755Y-69312353D01*
X195954193Y-69250470D01*
X196014938Y-69215947D01*
X196079902Y-69218157D01*
X196328337Y-69294790D01*
X196328343Y-69294792D01*
X196595101Y-69334999D01*
X196595110Y-69335000D01*
X196864890Y-69335000D01*
X196864898Y-69334999D01*
X197131656Y-69294792D01*
X197131662Y-69294790D01*
X197389461Y-69215269D01*
X197632521Y-69098218D01*
X197815150Y-68973702D01*
X197092294Y-68250846D01*
X197108942Y-68243951D01*
X197239970Y-68156401D01*
X197351401Y-68044970D01*
X197438951Y-67913942D01*
X197445846Y-67897294D01*
X198167703Y-68619151D01*
X198167704Y-68619150D01*
X198221393Y-68551828D01*
X198221400Y-68551817D01*
X198356290Y-68318181D01*
X198454851Y-68067052D01*
X198454857Y-68067033D01*
X198514886Y-67804028D01*
X198514886Y-67804026D01*
X198535047Y-67535004D01*
X198535047Y-67534995D01*
X198514886Y-67265973D01*
X198514886Y-67265971D01*
X198454857Y-67002966D01*
X198454851Y-67002947D01*
X198356290Y-66751818D01*
X198356291Y-66751818D01*
X198221397Y-66518177D01*
X198167704Y-66450847D01*
X197445846Y-67172705D01*
X197438951Y-67156058D01*
X197351401Y-67025030D01*
X197239970Y-66913599D01*
X197108942Y-66826049D01*
X197092294Y-66819153D01*
X197815150Y-66096296D01*
X197632517Y-65971779D01*
X197632516Y-65971778D01*
X197389460Y-65854730D01*
X197389462Y-65854730D01*
X197131662Y-65775209D01*
X197131656Y-65775207D01*
X196864898Y-65735000D01*
X196595101Y-65735000D01*
X196328343Y-65775207D01*
X196328337Y-65775209D01*
X196070538Y-65854730D01*
X195827485Y-65971778D01*
X195827476Y-65971783D01*
X195644848Y-66096296D01*
X196367705Y-66819153D01*
X196351058Y-66826049D01*
X196220030Y-66913599D01*
X196108599Y-67025030D01*
X196021049Y-67156058D01*
X196014153Y-67172706D01*
X195292295Y-66450848D01*
X195238600Y-66518180D01*
X195103709Y-66751818D01*
X195005148Y-67002947D01*
X195005142Y-67002966D01*
X194945113Y-67265971D01*
X194945113Y-67265973D01*
X194924953Y-67534995D01*
X194924953Y-67535004D01*
X194945113Y-67804026D01*
X194945113Y-67804028D01*
X195005142Y-68067033D01*
X195005148Y-68067052D01*
X195054706Y-68193324D01*
X195060875Y-68262921D01*
X195028437Y-68324804D01*
X194967692Y-68359327D01*
X194902729Y-68357117D01*
X194797973Y-68324804D01*
X194680623Y-68288606D01*
X194680619Y-68288605D01*
X194680615Y-68288604D01*
X194555823Y-68269794D01*
X194421187Y-68249500D01*
X194421182Y-68249500D01*
X194158818Y-68249500D01*
X194158812Y-68249500D01*
X193997247Y-68273853D01*
X193899385Y-68288604D01*
X193899382Y-68288605D01*
X193899376Y-68288606D01*
X193648673Y-68365938D01*
X193451052Y-68461107D01*
X193382111Y-68472459D01*
X193317976Y-68444736D01*
X193279011Y-68386741D01*
X193277586Y-68316886D01*
X193281823Y-68304085D01*
X193374851Y-68067052D01*
X193374857Y-68067033D01*
X193434886Y-67804028D01*
X193434886Y-67804026D01*
X193455047Y-67535004D01*
X193455047Y-67534995D01*
X193434886Y-67265973D01*
X193434886Y-67265971D01*
X193374857Y-67002966D01*
X193374851Y-67002947D01*
X193276290Y-66751818D01*
X193276291Y-66751818D01*
X193141397Y-66518177D01*
X193087704Y-66450847D01*
X192365846Y-67172705D01*
X192358951Y-67156058D01*
X192271401Y-67025030D01*
X192159970Y-66913599D01*
X192028942Y-66826049D01*
X192012294Y-66819153D01*
X192735150Y-66096296D01*
X192552517Y-65971779D01*
X192552516Y-65971778D01*
X192309460Y-65854730D01*
X192309462Y-65854730D01*
X192051662Y-65775209D01*
X192051656Y-65775207D01*
X191784898Y-65735000D01*
X191515101Y-65735000D01*
X191248343Y-65775207D01*
X191248337Y-65775209D01*
X190990538Y-65854730D01*
X190747485Y-65971778D01*
X190747476Y-65971783D01*
X190564848Y-66096296D01*
X191287705Y-66819153D01*
X191271058Y-66826049D01*
X191140030Y-66913599D01*
X191028599Y-67025030D01*
X190941049Y-67156058D01*
X190934153Y-67172705D01*
X190212295Y-66450848D01*
X190158600Y-66518180D01*
X190023709Y-66751818D01*
X189925148Y-67002947D01*
X189925142Y-67002966D01*
X189865113Y-67265971D01*
X189865113Y-67265973D01*
X189844953Y-67534995D01*
X162500500Y-67534995D01*
X162500500Y-59000000D01*
X190745181Y-59000000D01*
X190764447Y-59404450D01*
X190822071Y-59805231D01*
X190917531Y-60198722D01*
X190917534Y-60198733D01*
X191049956Y-60581340D01*
X191049966Y-60581365D01*
X191218168Y-60949675D01*
X191420621Y-61300335D01*
X191420627Y-61300343D01*
X191655485Y-61630154D01*
X191822985Y-61823460D01*
X193313098Y-60333347D01*
X193380076Y-60420635D01*
X193579365Y-60619924D01*
X193666650Y-60686900D01*
X192174928Y-62178622D01*
X192213676Y-62215568D01*
X192213695Y-62215585D01*
X192531968Y-62465877D01*
X192872594Y-62684782D01*
X193232485Y-62870319D01*
X193608383Y-63020806D01*
X193608395Y-63020810D01*
X193996882Y-63134880D01*
X193996899Y-63134884D01*
X194394460Y-63211508D01*
X194394472Y-63211510D01*
X194797554Y-63250000D01*
X195202446Y-63250000D01*
X195605527Y-63211510D01*
X195605539Y-63211508D01*
X196003100Y-63134884D01*
X196003117Y-63134880D01*
X196391604Y-63020810D01*
X196391616Y-63020806D01*
X196767507Y-62870322D01*
X196767511Y-62870320D01*
X197127406Y-62684782D01*
X197468031Y-62465877D01*
X197786314Y-62215578D01*
X197825069Y-62178622D01*
X196333348Y-60686901D01*
X196420635Y-60619924D01*
X196619924Y-60420635D01*
X196686901Y-60333348D01*
X198177012Y-61823459D01*
X198344512Y-61630156D01*
X198344523Y-61630143D01*
X198579372Y-61300343D01*
X198579378Y-61300335D01*
X198781831Y-60949675D01*
X198950033Y-60581365D01*
X198950043Y-60581340D01*
X199082465Y-60198733D01*
X199082468Y-60198722D01*
X199177928Y-59805231D01*
X199235552Y-59404450D01*
X199251640Y-59066726D01*
X199274493Y-59000699D01*
X199278945Y-58997197D01*
X199256523Y-58962308D01*
X199251640Y-58933273D01*
X199235552Y-58595549D01*
X199177928Y-58194768D01*
X199082468Y-57801277D01*
X199082465Y-57801266D01*
X198950043Y-57418659D01*
X198950033Y-57418634D01*
X198781831Y-57050324D01*
X198579378Y-56699664D01*
X198579372Y-56699656D01*
X198344523Y-56369856D01*
X198344512Y-56369843D01*
X198177013Y-56176538D01*
X196686900Y-57666650D01*
X196619924Y-57579365D01*
X196420635Y-57380076D01*
X196333348Y-57313098D01*
X197825070Y-55821376D01*
X197786323Y-55784431D01*
X197786304Y-55784414D01*
X197468031Y-55534122D01*
X197127406Y-55315217D01*
X196767511Y-55129679D01*
X196767507Y-55129677D01*
X196391616Y-54979193D01*
X196391604Y-54979189D01*
X196003117Y-54865119D01*
X196003100Y-54865115D01*
X195605539Y-54788491D01*
X195605527Y-54788489D01*
X195202446Y-54750000D01*
X194797554Y-54750000D01*
X194394472Y-54788489D01*
X194394460Y-54788491D01*
X193996899Y-54865115D01*
X193996882Y-54865119D01*
X193608395Y-54979189D01*
X193608383Y-54979193D01*
X193232485Y-55129680D01*
X192872594Y-55315217D01*
X192531968Y-55534122D01*
X192213685Y-55784421D01*
X192213673Y-55784432D01*
X192174929Y-55821375D01*
X192174929Y-55821376D01*
X193666651Y-57313098D01*
X193579365Y-57380076D01*
X193380076Y-57579365D01*
X193313098Y-57666651D01*
X191822986Y-56176539D01*
X191655485Y-56369845D01*
X191420627Y-56699656D01*
X191420621Y-56699664D01*
X191218168Y-57050324D01*
X191049966Y-57418634D01*
X191049956Y-57418659D01*
X190917534Y-57801266D01*
X190917531Y-57801277D01*
X190822071Y-58194768D01*
X190764447Y-58595549D01*
X190745181Y-59000000D01*
X162500500Y-59000000D01*
X162500500Y-58005608D01*
X162466392Y-57878314D01*
X162400500Y-57764186D01*
X162307314Y-57671000D01*
X162250250Y-57638054D01*
X162193187Y-57605108D01*
X162129539Y-57588054D01*
X162065892Y-57571000D01*
X151065892Y-57571000D01*
X150934108Y-57571000D01*
X150806812Y-57605108D01*
X150692686Y-57671000D01*
X150692683Y-57671002D01*
X150599502Y-57764183D01*
X150599500Y-57764186D01*
X150533608Y-57878312D01*
X150499500Y-58005608D01*
X150499500Y-76137392D01*
X150511227Y-76181157D01*
X150533608Y-76264687D01*
X150557006Y-76305212D01*
X150599500Y-76378814D01*
X150692686Y-76472000D01*
X150806814Y-76537892D01*
X150934108Y-76572000D01*
X151065892Y-76572000D01*
X152613500Y-76572000D01*
X152680539Y-76591685D01*
X152726294Y-76644489D01*
X152737500Y-76696000D01*
X152737500Y-79746215D01*
X152717815Y-79813254D01*
X152701182Y-79833895D01*
X152621899Y-79913180D01*
X152560577Y-79946666D01*
X152534217Y-79949500D01*
X150981878Y-79949500D01*
X150914839Y-79929815D01*
X150876339Y-79890597D01*
X150855212Y-79856344D01*
X150731156Y-79732288D01*
X150581834Y-79640186D01*
X150415297Y-79585001D01*
X150415295Y-79585000D01*
X150312510Y-79574500D01*
X149587498Y-79574500D01*
X149587480Y-79574501D01*
X149484703Y-79585000D01*
X149484700Y-79585001D01*
X149318168Y-79640185D01*
X149318163Y-79640187D01*
X149168842Y-79732289D01*
X149044789Y-79856342D01*
X148952687Y-80005663D01*
X148952686Y-80005666D01*
X148897501Y-80172203D01*
X148897501Y-80172204D01*
X148897500Y-80172204D01*
X148887000Y-80274983D01*
X148887000Y-81625001D01*
X148887001Y-81625018D01*
X148897500Y-81727796D01*
X148897501Y-81727799D01*
X148933564Y-81836628D01*
X148952686Y-81894334D01*
X149044788Y-82043656D01*
X149168844Y-82167712D01*
X149318166Y-82259814D01*
X149484703Y-82314999D01*
X149587491Y-82325500D01*
X150312508Y-82325499D01*
X150312516Y-82325498D01*
X150312519Y-82325498D01*
X150368802Y-82319748D01*
X150415297Y-82314999D01*
X150581834Y-82259814D01*
X150731156Y-82167712D01*
X150855212Y-82043656D01*
X150876339Y-82009402D01*
X150928287Y-81962679D01*
X150981878Y-81950500D01*
X153098542Y-81950500D01*
X153117870Y-81946655D01*
X153195188Y-81931275D01*
X153291836Y-81912051D01*
X153345165Y-81889961D01*
X153473914Y-81836632D01*
X153637782Y-81727139D01*
X153777139Y-81587782D01*
X153777139Y-81587780D01*
X153787347Y-81577573D01*
X153787348Y-81577570D01*
X154256602Y-81108318D01*
X154317925Y-81074833D01*
X154344283Y-81071999D01*
X154809871Y-81071999D01*
X154809872Y-81071999D01*
X154869483Y-81065591D01*
X155004331Y-81015296D01*
X155119546Y-80929046D01*
X155151046Y-80886966D01*
X155206979Y-80845097D01*
X155276671Y-80840113D01*
X155337994Y-80873598D01*
X155349578Y-80886968D01*
X155380809Y-80928687D01*
X155380812Y-80928690D01*
X155495906Y-81014850D01*
X155495913Y-81014854D01*
X155630620Y-81065096D01*
X155630627Y-81065098D01*
X155690155Y-81071499D01*
X155690172Y-81071500D01*
X157309828Y-81071500D01*
X157309844Y-81071499D01*
X157369372Y-81065098D01*
X157369379Y-81065096D01*
X157504086Y-81014854D01*
X157504093Y-81014850D01*
X157619187Y-80928690D01*
X157619188Y-80928689D01*
X157650420Y-80886969D01*
X157706353Y-80845097D01*
X157776045Y-80840113D01*
X157837368Y-80873598D01*
X157848953Y-80886967D01*
X157879506Y-80927780D01*
X157880454Y-80929046D01*
X157949811Y-80980967D01*
X157991682Y-81036898D01*
X157999500Y-81080232D01*
X157999500Y-81822971D01*
X157979815Y-81890010D01*
X157966730Y-81906953D01*
X157811836Y-82075214D01*
X157675826Y-82283393D01*
X157575936Y-82511118D01*
X157514892Y-82752175D01*
X157514890Y-82752187D01*
X157494357Y-82999994D01*
X157494357Y-83000005D01*
X157514890Y-83247812D01*
X157514892Y-83247824D01*
X157575936Y-83488881D01*
X157675826Y-83716606D01*
X157811833Y-83924782D01*
X157811836Y-83924785D01*
X157966730Y-84093045D01*
X157997652Y-84155698D01*
X157999500Y-84177027D01*
X157999500Y-84984217D01*
X157979815Y-85051256D01*
X157963181Y-85071898D01*
X157812220Y-85222859D01*
X157812218Y-85222861D01*
X157765994Y-85269085D01*
X157672859Y-85362219D01*
X157563371Y-85526079D01*
X157563366Y-85526089D01*
X157539316Y-85584151D01*
X157523982Y-85621172D01*
X157510038Y-85654835D01*
X157487949Y-85708161D01*
X157487947Y-85708167D01*
X157481251Y-85741835D01*
X157481251Y-85741836D01*
X157449851Y-85899692D01*
X157417466Y-85961603D01*
X157356750Y-85996177D01*
X157328234Y-85999500D01*
X152172855Y-85999500D01*
X152105816Y-85979815D01*
X152081626Y-85959483D01*
X152019747Y-85892265D01*
X152019744Y-85892262D01*
X151863971Y-85771019D01*
X151823509Y-85739526D01*
X151823507Y-85739525D01*
X151823506Y-85739524D01*
X151604811Y-85621172D01*
X151604802Y-85621169D01*
X151369616Y-85540429D01*
X151124335Y-85499500D01*
X150875665Y-85499500D01*
X150630383Y-85540429D01*
X150395197Y-85621169D01*
X150395188Y-85621172D01*
X150176493Y-85739524D01*
X149980257Y-85892261D01*
X149811833Y-86075217D01*
X149675826Y-86283393D01*
X149575936Y-86511118D01*
X149514892Y-86752175D01*
X149514890Y-86752187D01*
X149494357Y-86999994D01*
X149494357Y-87000005D01*
X149514890Y-87247812D01*
X149514892Y-87247824D01*
X149575936Y-87488881D01*
X149675826Y-87716606D01*
X149811833Y-87924782D01*
X149811836Y-87924785D01*
X149980256Y-88107738D01*
X150176491Y-88260474D01*
X150395190Y-88378828D01*
X150405682Y-88382430D01*
X150406524Y-88382719D01*
X150463539Y-88423106D01*
X150489668Y-88487906D01*
X150476615Y-88556546D01*
X150428526Y-88607233D01*
X150406524Y-88617281D01*
X150395191Y-88621171D01*
X150395188Y-88621172D01*
X150176493Y-88739524D01*
X149980257Y-88892261D01*
X149811833Y-89075217D01*
X149675826Y-89283393D01*
X149575936Y-89511118D01*
X149514892Y-89752175D01*
X149514890Y-89752187D01*
X149494357Y-89999994D01*
X149494357Y-90000005D01*
X149514890Y-90247812D01*
X149514892Y-90247824D01*
X149575936Y-90488881D01*
X149675826Y-90716606D01*
X149811833Y-90924782D01*
X149838572Y-90953828D01*
X149980256Y-91107738D01*
X150176491Y-91260474D01*
X150176493Y-91260475D01*
X150394332Y-91378364D01*
X150395190Y-91378828D01*
X150405682Y-91382430D01*
X150406524Y-91382719D01*
X150463539Y-91423106D01*
X150489668Y-91487906D01*
X150476615Y-91556546D01*
X150428526Y-91607233D01*
X150406524Y-91617281D01*
X150395191Y-91621171D01*
X150395188Y-91621172D01*
X150176493Y-91739524D01*
X149980257Y-91892261D01*
X149811833Y-92075217D01*
X149675826Y-92283393D01*
X149575936Y-92511118D01*
X149514892Y-92752175D01*
X149514890Y-92752187D01*
X149494357Y-92999994D01*
X149494357Y-93000005D01*
X149514890Y-93247812D01*
X149514892Y-93247824D01*
X149575936Y-93488881D01*
X149675826Y-93716606D01*
X149811833Y-93924782D01*
X149811836Y-93924785D01*
X149980256Y-94107738D01*
X150176491Y-94260474D01*
X150176493Y-94260475D01*
X150394332Y-94378364D01*
X150395190Y-94378828D01*
X150614141Y-94453994D01*
X150628964Y-94459083D01*
X150630386Y-94459571D01*
X150875665Y-94500500D01*
X151124335Y-94500500D01*
X151369614Y-94459571D01*
X151604810Y-94378828D01*
X151823509Y-94260474D01*
X152019744Y-94107738D01*
X152051733Y-94072989D01*
X152081626Y-94040517D01*
X152141513Y-94004526D01*
X152172855Y-94000500D01*
X157408683Y-94000500D01*
X157475722Y-94020185D01*
X157521477Y-94072989D01*
X157523244Y-94077047D01*
X157563366Y-94173910D01*
X157563371Y-94173920D01*
X157672859Y-94337780D01*
X157672860Y-94337781D01*
X157672861Y-94337782D01*
X157812218Y-94477139D01*
X157812219Y-94477139D01*
X157819286Y-94484206D01*
X157819285Y-94484206D01*
X157819289Y-94484209D01*
X157963181Y-94628101D01*
X157996666Y-94689424D01*
X157999500Y-94715782D01*
X157999500Y-95822972D01*
X157979815Y-95890011D01*
X157966730Y-95906955D01*
X157918375Y-95959483D01*
X157858488Y-95995473D01*
X157827145Y-95999500D01*
X156101455Y-95999500D01*
X156004812Y-96018724D01*
X155908167Y-96037947D01*
X155908161Y-96037949D01*
X155854834Y-96060037D01*
X155854834Y-96060038D01*
X155818194Y-96075215D01*
X155726089Y-96113366D01*
X155726079Y-96113371D01*
X155562219Y-96222859D01*
X155501686Y-96283393D01*
X155422861Y-96362218D01*
X155422858Y-96362221D01*
X153362221Y-98422858D01*
X153362218Y-98422861D01*
X153325996Y-98459083D01*
X153222859Y-98562219D01*
X153113371Y-98726080D01*
X153113364Y-98726093D01*
X153061517Y-98851267D01*
X153061516Y-98851270D01*
X153051689Y-98874993D01*
X153037950Y-98908160D01*
X153037947Y-98908170D01*
X152999500Y-99101456D01*
X152999500Y-99378766D01*
X152979815Y-99445805D01*
X152949812Y-99478032D01*
X152880452Y-99529955D01*
X152794206Y-99645164D01*
X152794202Y-99645171D01*
X152743908Y-99780017D01*
X152737501Y-99839616D01*
X152737501Y-99839623D01*
X152737500Y-99839635D01*
X152737500Y-100900334D01*
X152717815Y-100967373D01*
X152665011Y-101013128D01*
X152595853Y-101023072D01*
X152577507Y-101018995D01*
X152543293Y-101008617D01*
X152531834Y-101004517D01*
X152491834Y-100987948D01*
X152491827Y-100987946D01*
X152449378Y-100979503D01*
X152437575Y-100976547D01*
X152396134Y-100963976D01*
X152396130Y-100963975D01*
X152353035Y-100959730D01*
X152341006Y-100957945D01*
X152298544Y-100949500D01*
X152298541Y-100949500D01*
X152255244Y-100949500D01*
X152243090Y-100948903D01*
X152200000Y-100944659D01*
X152156910Y-100948903D01*
X152144756Y-100949500D01*
X150955244Y-100949500D01*
X150943090Y-100948903D01*
X150900000Y-100944659D01*
X150856910Y-100948903D01*
X150844756Y-100949500D01*
X149655244Y-100949500D01*
X149643090Y-100948903D01*
X149600000Y-100944659D01*
X149556910Y-100948903D01*
X149544756Y-100949500D01*
X149094378Y-100949500D01*
X149027339Y-100929815D01*
X148988839Y-100890597D01*
X148987767Y-100888859D01*
X148967712Y-100856344D01*
X148843656Y-100732288D01*
X148694334Y-100640186D01*
X148527797Y-100585001D01*
X148527795Y-100585000D01*
X148425010Y-100574500D01*
X147699998Y-100574500D01*
X147699980Y-100574501D01*
X147597203Y-100585000D01*
X147597200Y-100585001D01*
X147430668Y-100640185D01*
X147430663Y-100640187D01*
X147281342Y-100732289D01*
X147157289Y-100856342D01*
X147065187Y-101005663D01*
X147065185Y-101005668D01*
X147046065Y-101063368D01*
X147010001Y-101172203D01*
X147010001Y-101172204D01*
X147010000Y-101172204D01*
X146999500Y-101274983D01*
X146999500Y-102625001D01*
X146999501Y-102625018D01*
X147010000Y-102727796D01*
X147010001Y-102727799D01*
X147065185Y-102894331D01*
X147065187Y-102894336D01*
X147079553Y-102917627D01*
X147157288Y-103043656D01*
X147281344Y-103167712D01*
X147430666Y-103259814D01*
X147597203Y-103314999D01*
X147699991Y-103325500D01*
X148425008Y-103325499D01*
X148425016Y-103325498D01*
X148425019Y-103325498D01*
X148481302Y-103319748D01*
X148527797Y-103314999D01*
X148694334Y-103259814D01*
X148843656Y-103167712D01*
X148967712Y-103043656D01*
X148988839Y-103009402D01*
X149040787Y-102962679D01*
X149094378Y-102950500D01*
X149501459Y-102950500D01*
X149544756Y-102950500D01*
X149556909Y-102951096D01*
X149600000Y-102955341D01*
X149643090Y-102951096D01*
X149655244Y-102950500D01*
X150844756Y-102950500D01*
X150856909Y-102951096D01*
X150900000Y-102955341D01*
X150943090Y-102951096D01*
X150955244Y-102950500D01*
X152144756Y-102950500D01*
X152156909Y-102951096D01*
X152200000Y-102955341D01*
X152243090Y-102951096D01*
X152255244Y-102950500D01*
X152298542Y-102950500D01*
X152314454Y-102947334D01*
X152341005Y-102942053D01*
X152353037Y-102940268D01*
X152396132Y-102936024D01*
X152437580Y-102923450D01*
X152449353Y-102920500D01*
X152491835Y-102912051D01*
X152531847Y-102895476D01*
X152543278Y-102891386D01*
X152577507Y-102881003D01*
X152647370Y-102880379D01*
X152706484Y-102917627D01*
X152736075Y-102980921D01*
X152737500Y-102999664D01*
X152737501Y-103763000D01*
X152717817Y-103830039D01*
X152665013Y-103875794D01*
X152613501Y-103887000D01*
X150934108Y-103887000D01*
X150806812Y-103921108D01*
X150692686Y-103987000D01*
X150692683Y-103987002D01*
X150599502Y-104080183D01*
X150599500Y-104080186D01*
X150533608Y-104194312D01*
X150499500Y-104321608D01*
X150499500Y-122453391D01*
X150533608Y-122580687D01*
X150544769Y-122600018D01*
X150599500Y-122694814D01*
X150692686Y-122788000D01*
X150806814Y-122853892D01*
X150934108Y-122888000D01*
X150934110Y-122888000D01*
X162065890Y-122888000D01*
X162065892Y-122888000D01*
X162193186Y-122853892D01*
X162307314Y-122788000D01*
X162400500Y-122694814D01*
X162466392Y-122580686D01*
X162500500Y-122453392D01*
X162500500Y-104321608D01*
X162466392Y-104194314D01*
X162400500Y-104080186D01*
X162307314Y-103987000D01*
X162243228Y-103950000D01*
X162193187Y-103921108D01*
X162129539Y-103904054D01*
X162065892Y-103887000D01*
X162065891Y-103887000D01*
X160386500Y-103887000D01*
X160319461Y-103867315D01*
X160273706Y-103814511D01*
X160262500Y-103763000D01*
X160262499Y-99839629D01*
X160262498Y-99839623D01*
X160262497Y-99839616D01*
X160256091Y-99780017D01*
X160205796Y-99645169D01*
X160205795Y-99645168D01*
X160205793Y-99645164D01*
X160119547Y-99529955D01*
X160119544Y-99529952D01*
X160004335Y-99443706D01*
X160004328Y-99443702D01*
X159869482Y-99393408D01*
X159869483Y-99393408D01*
X159809883Y-99387001D01*
X159809881Y-99387000D01*
X159809873Y-99387000D01*
X159809864Y-99387000D01*
X158190129Y-99387000D01*
X158190123Y-99387001D01*
X158130516Y-99393408D01*
X157995671Y-99443702D01*
X157995664Y-99443706D01*
X157880455Y-99529952D01*
X157880453Y-99529954D01*
X157848952Y-99572033D01*
X157793017Y-99613903D01*
X157723325Y-99618885D01*
X157662003Y-99585399D01*
X157650420Y-99572031D01*
X157619186Y-99530309D01*
X157504093Y-99444149D01*
X157504086Y-99444145D01*
X157369379Y-99393903D01*
X157369372Y-99393901D01*
X157309844Y-99387500D01*
X155690155Y-99387500D01*
X155630627Y-99393901D01*
X155630617Y-99393903D01*
X155511441Y-99438353D01*
X155441750Y-99443337D01*
X155380427Y-99409851D01*
X155346943Y-99348528D01*
X155351928Y-99278836D01*
X155380425Y-99234493D01*
X156578101Y-98036819D01*
X156639424Y-98003334D01*
X156665782Y-98000500D01*
X157827145Y-98000500D01*
X157894184Y-98020185D01*
X157918374Y-98040517D01*
X157980252Y-98107734D01*
X157980256Y-98107738D01*
X158176491Y-98260474D01*
X158260002Y-98305668D01*
X158394332Y-98378364D01*
X158395190Y-98378828D01*
X158614141Y-98453994D01*
X158628964Y-98459083D01*
X158630386Y-98459571D01*
X158875665Y-98500500D01*
X159124335Y-98500500D01*
X159369614Y-98459571D01*
X159604810Y-98378828D01*
X159823509Y-98260474D01*
X160019744Y-98107738D01*
X160188164Y-97924785D01*
X160324173Y-97716607D01*
X160424063Y-97488881D01*
X160485108Y-97247821D01*
X160489651Y-97192993D01*
X160505643Y-97000005D01*
X160505643Y-96999994D01*
X160485109Y-96752187D01*
X160485107Y-96752175D01*
X160424063Y-96511118D01*
X160324173Y-96283393D01*
X160213092Y-96113371D01*
X160188164Y-96075215D01*
X160174192Y-96060037D01*
X160033270Y-95906953D01*
X160002348Y-95844299D01*
X160000500Y-95822971D01*
X160000500Y-94151456D01*
X159968749Y-93991836D01*
X159968749Y-93991835D01*
X159962052Y-93958171D01*
X159962051Y-93958164D01*
X159895933Y-93798541D01*
X159886632Y-93776086D01*
X159866720Y-93746285D01*
X159777140Y-93612219D01*
X159777139Y-93612218D01*
X159637782Y-93472861D01*
X159637781Y-93472860D01*
X159486819Y-93321898D01*
X159453334Y-93260575D01*
X159450500Y-93234217D01*
X159450500Y-92574500D01*
X159470185Y-92507461D01*
X159522989Y-92461706D01*
X159574500Y-92450500D01*
X160433202Y-92450500D01*
X160473204Y-92459368D01*
X160473810Y-92457542D01*
X160480665Y-92459813D01*
X160480666Y-92459814D01*
X160647203Y-92514999D01*
X160749991Y-92525500D01*
X162150008Y-92525499D01*
X162252797Y-92514999D01*
X162419334Y-92459814D01*
X162568656Y-92367712D01*
X162692712Y-92243656D01*
X162784814Y-92094334D01*
X162839999Y-91927797D01*
X162850500Y-91825009D01*
X162850499Y-91198452D01*
X162870183Y-91131414D01*
X162922987Y-91085659D01*
X162992146Y-91075715D01*
X163030794Y-91087968D01*
X163169970Y-91158882D01*
X163169972Y-91158882D01*
X163169975Y-91158884D01*
X163270317Y-91191487D01*
X163357173Y-91219709D01*
X163551578Y-91250500D01*
X163551583Y-91250500D01*
X164701583Y-91250500D01*
X165077111Y-91250500D01*
X165144150Y-91270185D01*
X165164792Y-91286819D01*
X165263181Y-91385208D01*
X165296666Y-91446531D01*
X165299500Y-91472889D01*
X165299500Y-108178097D01*
X165336446Y-108411368D01*
X165409433Y-108635996D01*
X165516656Y-108846431D01*
X165516658Y-108846435D01*
X165540818Y-108879688D01*
X165564298Y-108945494D01*
X165564500Y-108952573D01*
X165564500Y-109492870D01*
X165564501Y-109492876D01*
X165570908Y-109552483D01*
X165621202Y-109687328D01*
X165621203Y-109687330D01*
X165687349Y-109775689D01*
X165711766Y-109841153D01*
X165696915Y-109909426D01*
X165687349Y-109924311D01*
X165621203Y-110012669D01*
X165621202Y-110012671D01*
X165570908Y-110147517D01*
X165565320Y-110199500D01*
X165564501Y-110207123D01*
X165564500Y-110207135D01*
X165564500Y-110747426D01*
X165544815Y-110814465D01*
X165540819Y-110820310D01*
X165516657Y-110853566D01*
X165516656Y-110853568D01*
X165409433Y-111064003D01*
X165336446Y-111288631D01*
X165299500Y-111521902D01*
X165299500Y-116428097D01*
X165336446Y-116661368D01*
X165409433Y-116885996D01*
X165516656Y-117096431D01*
X165516658Y-117096435D01*
X165540818Y-117129688D01*
X165564298Y-117195494D01*
X165564500Y-117202573D01*
X165564500Y-117742870D01*
X165564501Y-117742876D01*
X165570908Y-117802483D01*
X165621202Y-117937328D01*
X165621203Y-117937330D01*
X165687349Y-118025689D01*
X165711766Y-118091153D01*
X165696915Y-118159426D01*
X165687349Y-118174311D01*
X165621203Y-118262669D01*
X165621202Y-118262671D01*
X165570908Y-118397517D01*
X165567544Y-118428811D01*
X165564501Y-118457123D01*
X165564500Y-118457135D01*
X165564500Y-119687110D01*
X165562974Y-119706507D01*
X165549500Y-119791583D01*
X165549500Y-124398422D01*
X165580292Y-124592833D01*
X165580679Y-124594447D01*
X165580647Y-124595076D01*
X165581053Y-124597638D01*
X165580514Y-124597723D01*
X165577174Y-124664229D01*
X165536498Y-124721038D01*
X165471566Y-124746838D01*
X165402993Y-124733437D01*
X165372420Y-124711052D01*
X165228416Y-124567048D01*
X165228415Y-124567047D01*
X165228414Y-124567046D01*
X165154729Y-124517812D01*
X165154729Y-124517813D01*
X165105491Y-124484913D01*
X164968917Y-124428343D01*
X164968907Y-124428340D01*
X164823920Y-124399500D01*
X164823918Y-124399500D01*
X148962229Y-124399500D01*
X148895190Y-124379815D01*
X148874548Y-124363181D01*
X147628421Y-123117052D01*
X147628414Y-123117046D01*
X147554729Y-123067812D01*
X147554729Y-123067813D01*
X147505491Y-123034913D01*
X147368917Y-122978343D01*
X147368907Y-122978340D01*
X147223920Y-122949500D01*
X147223918Y-122949500D01*
X141171870Y-122949500D01*
X141104831Y-122929815D01*
X141059076Y-122877011D01*
X141054164Y-122864505D01*
X141050647Y-122853891D01*
X141009814Y-122730666D01*
X140917712Y-122581344D01*
X140793656Y-122457288D01*
X140788549Y-122452181D01*
X140790435Y-122450294D01*
X140757212Y-122403375D01*
X140750500Y-122363132D01*
X140750500Y-121719828D01*
X140755424Y-121685233D01*
X140797597Y-121540073D01*
X140797598Y-121540067D01*
X140800500Y-121503194D01*
X140800500Y-120346806D01*
X140797598Y-120309931D01*
X140777024Y-120239117D01*
X140751745Y-120152106D01*
X140751745Y-120152105D01*
X140751744Y-120152103D01*
X140751744Y-120152102D01*
X140724249Y-120105611D01*
X140717267Y-120093804D01*
X140700000Y-120030684D01*
X140700000Y-119765202D01*
X140673765Y-119740961D01*
X140637887Y-119681007D01*
X140640118Y-119611173D01*
X140664533Y-119571488D01*
X140663298Y-119570531D01*
X140668075Y-119564370D01*
X140668081Y-119564365D01*
X140751744Y-119422898D01*
X140797598Y-119265069D01*
X140800500Y-119228194D01*
X140800500Y-118071806D01*
X140800499Y-118071798D01*
X141099500Y-118071798D01*
X141099500Y-119228201D01*
X141102401Y-119265067D01*
X141102402Y-119265073D01*
X141148254Y-119422893D01*
X141148255Y-119422896D01*
X141231917Y-119564362D01*
X141236702Y-119570531D01*
X141235018Y-119571836D01*
X141263246Y-119623531D01*
X141258262Y-119693223D01*
X141226234Y-119740961D01*
X141200000Y-119765202D01*
X141200000Y-120030684D01*
X141182733Y-120093804D01*
X141148254Y-120152105D01*
X141148254Y-120152106D01*
X141102402Y-120309926D01*
X141102401Y-120309932D01*
X141099500Y-120346798D01*
X141099500Y-121503201D01*
X141102401Y-121540067D01*
X141102402Y-121540073D01*
X141148254Y-121697893D01*
X141148255Y-121697896D01*
X141148256Y-121697898D01*
X141182732Y-121756194D01*
X141200000Y-121819314D01*
X141200000Y-122084795D01*
X141200001Y-122084795D01*
X141202486Y-122084600D01*
X141360197Y-122038781D01*
X141361382Y-122038081D01*
X141362436Y-122037813D01*
X141367357Y-122035684D01*
X141367700Y-122036477D01*
X141429105Y-122020895D01*
X141482289Y-122036508D01*
X141482446Y-122036147D01*
X141485371Y-122037413D01*
X141487624Y-122038074D01*
X141489602Y-122039244D01*
X141489604Y-122039244D01*
X141489605Y-122039245D01*
X141647426Y-122085097D01*
X141647429Y-122085097D01*
X141647431Y-122085098D01*
X141684306Y-122088000D01*
X141684314Y-122088000D01*
X142115686Y-122088000D01*
X142115694Y-122088000D01*
X142152569Y-122085098D01*
X142152571Y-122085097D01*
X142152573Y-122085097D01*
X142194191Y-122073005D01*
X142310398Y-122039244D01*
X142451865Y-121955581D01*
X142568081Y-121839365D01*
X142573291Y-121830555D01*
X142624355Y-121782872D01*
X142693096Y-121770364D01*
X142738477Y-121784315D01*
X142915267Y-121878811D01*
X142915273Y-121878814D01*
X143103868Y-121936024D01*
X143300000Y-121955341D01*
X143496132Y-121936024D01*
X143684727Y-121878814D01*
X143758522Y-121839370D01*
X143775008Y-121830558D01*
X143858538Y-121785910D01*
X144010883Y-121660883D01*
X144135910Y-121508538D01*
X144228814Y-121334727D01*
X144286024Y-121146132D01*
X144305341Y-120950000D01*
X144286024Y-120753868D01*
X144228814Y-120565273D01*
X144228811Y-120565269D01*
X144228811Y-120565266D01*
X144135913Y-120391467D01*
X144135909Y-120391460D01*
X144010883Y-120239116D01*
X143858539Y-120114090D01*
X143858532Y-120114086D01*
X143684733Y-120021188D01*
X143684727Y-120021186D01*
X143496132Y-119963976D01*
X143496129Y-119963975D01*
X143300000Y-119944659D01*
X143103870Y-119963975D01*
X142915266Y-120021188D01*
X142760945Y-120103675D01*
X142692542Y-120117917D01*
X142627298Y-120092917D01*
X142595760Y-120057437D01*
X142568085Y-120010641D01*
X142568076Y-120010629D01*
X142451870Y-119894423D01*
X142451867Y-119894421D01*
X142451865Y-119894419D01*
X142451549Y-119894232D01*
X142451353Y-119894022D01*
X142445702Y-119889639D01*
X142446409Y-119888727D01*
X142403866Y-119843164D01*
X142391362Y-119774423D01*
X142418006Y-119709833D01*
X142445921Y-119685644D01*
X142445702Y-119685361D01*
X142450911Y-119681320D01*
X142451550Y-119680767D01*
X142451865Y-119680581D01*
X142568081Y-119564365D01*
X142651744Y-119422898D01*
X142697598Y-119265069D01*
X142700500Y-119228194D01*
X142700500Y-118071806D01*
X142697598Y-118034931D01*
X142669241Y-117937328D01*
X142651745Y-117877106D01*
X142651744Y-117877103D01*
X142651744Y-117877102D01*
X142568081Y-117735635D01*
X142568079Y-117735633D01*
X142568076Y-117735629D01*
X142451870Y-117619423D01*
X142451862Y-117619417D01*
X142310396Y-117535755D01*
X142310393Y-117535754D01*
X142152573Y-117489902D01*
X142152567Y-117489901D01*
X142115701Y-117487000D01*
X142115694Y-117487000D01*
X141684306Y-117487000D01*
X141684298Y-117487000D01*
X141647432Y-117489901D01*
X141647426Y-117489902D01*
X141489606Y-117535754D01*
X141489603Y-117535755D01*
X141348137Y-117619417D01*
X141348129Y-117619423D01*
X141231923Y-117735629D01*
X141231917Y-117735637D01*
X141148255Y-117877103D01*
X141148254Y-117877106D01*
X141102402Y-118034926D01*
X141102401Y-118034932D01*
X141099500Y-118071798D01*
X140800499Y-118071798D01*
X140797598Y-118034931D01*
X140769241Y-117937328D01*
X140751745Y-117877106D01*
X140751744Y-117877103D01*
X140751744Y-117877102D01*
X140668081Y-117735635D01*
X140668079Y-117735633D01*
X140668076Y-117735629D01*
X140661819Y-117729372D01*
X140628334Y-117668049D01*
X140625500Y-117641691D01*
X140625500Y-116815638D01*
X140645185Y-116748599D01*
X140684401Y-116710100D01*
X140793656Y-116642712D01*
X140917712Y-116518656D01*
X141009814Y-116369334D01*
X141009814Y-116369333D01*
X141010079Y-116368904D01*
X141062027Y-116322179D01*
X141115618Y-116310000D01*
X141834968Y-116310000D01*
X141902007Y-116329685D01*
X141940506Y-116368903D01*
X142032680Y-116518340D01*
X142032683Y-116518344D01*
X142156654Y-116642315D01*
X142305875Y-116734356D01*
X142305880Y-116734358D01*
X142472302Y-116789505D01*
X142472309Y-116789506D01*
X142575019Y-116799999D01*
X142699999Y-116799999D01*
X143200000Y-116799999D01*
X143324972Y-116799999D01*
X143324986Y-116799998D01*
X143427697Y-116789505D01*
X143594119Y-116734358D01*
X143594124Y-116734356D01*
X143743345Y-116642315D01*
X143867315Y-116518345D01*
X143959356Y-116369124D01*
X143959358Y-116369119D01*
X144014505Y-116202697D01*
X144014506Y-116202690D01*
X144024999Y-116099986D01*
X144025000Y-116099973D01*
X144025000Y-115650000D01*
X143200000Y-115650000D01*
X143200000Y-116799999D01*
X142699999Y-116799999D01*
X142700000Y-116799998D01*
X142700000Y-115150000D01*
X143200000Y-115150000D01*
X144024999Y-115150000D01*
X144024999Y-114700028D01*
X144024998Y-114700013D01*
X144014505Y-114597302D01*
X143959358Y-114430880D01*
X143959356Y-114430875D01*
X143867315Y-114281654D01*
X143743345Y-114157684D01*
X143594124Y-114065643D01*
X143594119Y-114065641D01*
X143427697Y-114010494D01*
X143427690Y-114010493D01*
X143324986Y-114000000D01*
X143200000Y-114000000D01*
X143200000Y-115150000D01*
X142700000Y-115150000D01*
X142700000Y-114000000D01*
X142575027Y-114000000D01*
X142575012Y-114000001D01*
X142472302Y-114010494D01*
X142305880Y-114065641D01*
X142305875Y-114065643D01*
X142156654Y-114157684D01*
X142032683Y-114281655D01*
X142032680Y-114281659D01*
X141940506Y-114431097D01*
X141888559Y-114477822D01*
X141834968Y-114490000D01*
X141115618Y-114490000D01*
X141048579Y-114470315D01*
X141010079Y-114431096D01*
X140917712Y-114281344D01*
X140793657Y-114157289D01*
X140793656Y-114157288D01*
X140684402Y-114089900D01*
X140637679Y-114037953D01*
X140625500Y-113984362D01*
X140625500Y-113838396D01*
X140625500Y-113838394D01*
X140601463Y-113717548D01*
X140587652Y-113684207D01*
X140554312Y-113603714D01*
X140520084Y-113552490D01*
X140485858Y-113501267D01*
X140485856Y-113501264D01*
X140395637Y-113411045D01*
X140395606Y-113411016D01*
X133568000Y-106583410D01*
X133534515Y-106522087D01*
X133539499Y-106452395D01*
X133567998Y-106408049D01*
X133638529Y-106337519D01*
X133761021Y-106162581D01*
X133851276Y-105969030D01*
X133906549Y-105762747D01*
X133925162Y-105550000D01*
X133906549Y-105337253D01*
X133851276Y-105130970D01*
X133761021Y-104937419D01*
X133638529Y-104762481D01*
X133638527Y-104762478D01*
X133487521Y-104611472D01*
X133312578Y-104488977D01*
X133312579Y-104488977D01*
X133181430Y-104427822D01*
X133119030Y-104398724D01*
X133119023Y-104398722D01*
X133113936Y-104396870D01*
X133114709Y-104394746D01*
X133063305Y-104363424D01*
X133032766Y-104300581D01*
X133041050Y-104231204D01*
X133085528Y-104177320D01*
X133114315Y-104164172D01*
X133113936Y-104163130D01*
X133119013Y-104161280D01*
X133119030Y-104161276D01*
X133312581Y-104071021D01*
X133487519Y-103948529D01*
X133638529Y-103797519D01*
X133664806Y-103759990D01*
X133714951Y-103688377D01*
X133769528Y-103644752D01*
X133816526Y-103635500D01*
X134951608Y-103635500D01*
X134951608Y-103635499D01*
X135016556Y-103622581D01*
X135016557Y-103622581D01*
X135035532Y-103618806D01*
X135072452Y-103611463D01*
X135105792Y-103597652D01*
X135186286Y-103564312D01*
X135237509Y-103530084D01*
X135288733Y-103495858D01*
X135375858Y-103408733D01*
X135375859Y-103408731D01*
X135382925Y-103401665D01*
X135382927Y-103401661D01*
X135872771Y-102911819D01*
X135934094Y-102878334D01*
X135960452Y-102875500D01*
X136194965Y-102875500D01*
X136262004Y-102895185D01*
X136307759Y-102947989D01*
X136318323Y-102986898D01*
X136322501Y-103027797D01*
X136322501Y-103027799D01*
X136327756Y-103043656D01*
X136377686Y-103194334D01*
X136469788Y-103343656D01*
X136593844Y-103467712D01*
X136690597Y-103527389D01*
X136737321Y-103579335D01*
X136749500Y-103632927D01*
X136749500Y-103934362D01*
X136729815Y-104001401D01*
X136690598Y-104039899D01*
X136640143Y-104071021D01*
X136581342Y-104107289D01*
X136457289Y-104231342D01*
X136365187Y-104380663D01*
X136365185Y-104380668D01*
X136349560Y-104427822D01*
X136310001Y-104547203D01*
X136310001Y-104547204D01*
X136310000Y-104547204D01*
X136299500Y-104649983D01*
X136299500Y-106050001D01*
X136299501Y-106050018D01*
X136310000Y-106152796D01*
X136310001Y-106152799D01*
X136365185Y-106319331D01*
X136365187Y-106319336D01*
X136376404Y-106337521D01*
X136457288Y-106468656D01*
X136581344Y-106592712D01*
X136730666Y-106684814D01*
X136897203Y-106739999D01*
X136999991Y-106750500D01*
X137750008Y-106750499D01*
X137750016Y-106750498D01*
X137750019Y-106750498D01*
X137806302Y-106744748D01*
X137852797Y-106739999D01*
X138019334Y-106684814D01*
X138168656Y-106592712D01*
X138292712Y-106468656D01*
X138384814Y-106319334D01*
X138384814Y-106319333D01*
X138385079Y-106318904D01*
X138437027Y-106272179D01*
X138490618Y-106260000D01*
X139209968Y-106260000D01*
X139277007Y-106279685D01*
X139315506Y-106318903D01*
X139407680Y-106468340D01*
X139407683Y-106468344D01*
X139531654Y-106592315D01*
X139680875Y-106684356D01*
X139680880Y-106684358D01*
X139847302Y-106739505D01*
X139847309Y-106739506D01*
X139950019Y-106749999D01*
X140074999Y-106749999D01*
X140575000Y-106749999D01*
X140699972Y-106749999D01*
X140699986Y-106749998D01*
X140802697Y-106739505D01*
X140969119Y-106684358D01*
X140969124Y-106684356D01*
X141118345Y-106592315D01*
X141242315Y-106468345D01*
X141334356Y-106319124D01*
X141334358Y-106319119D01*
X141389505Y-106152697D01*
X141389506Y-106152690D01*
X141399999Y-106049986D01*
X141400000Y-106049973D01*
X141400000Y-105600000D01*
X140575000Y-105600000D01*
X140575000Y-106749999D01*
X140074999Y-106749999D01*
X140075000Y-106749998D01*
X140075000Y-105100000D01*
X140575000Y-105100000D01*
X141399999Y-105100000D01*
X141399999Y-104650028D01*
X141399998Y-104650013D01*
X141389505Y-104547302D01*
X141334358Y-104380880D01*
X141334356Y-104380875D01*
X141242315Y-104231654D01*
X141118345Y-104107684D01*
X140969124Y-104015643D01*
X140969119Y-104015641D01*
X140802697Y-103960494D01*
X140802690Y-103960493D01*
X140699986Y-103950000D01*
X140575000Y-103950000D01*
X140575000Y-105100000D01*
X140075000Y-105100000D01*
X140075000Y-103950000D01*
X139950027Y-103950000D01*
X139950012Y-103950001D01*
X139847302Y-103960494D01*
X139680880Y-104015641D01*
X139680875Y-104015643D01*
X139531654Y-104107684D01*
X139407683Y-104231655D01*
X139407680Y-104231659D01*
X139315506Y-104381097D01*
X139263559Y-104427822D01*
X139209968Y-104440000D01*
X138490618Y-104440000D01*
X138423579Y-104420315D01*
X138385079Y-104381096D01*
X138292712Y-104231344D01*
X138168657Y-104107289D01*
X138168656Y-104107288D01*
X138059402Y-104039900D01*
X138012679Y-103987953D01*
X138000500Y-103934362D01*
X138000500Y-103632927D01*
X138020185Y-103565888D01*
X138059401Y-103527390D01*
X138156156Y-103467712D01*
X138280212Y-103343656D01*
X138372314Y-103194334D01*
X138427499Y-103027797D01*
X138438000Y-102925009D01*
X138437999Y-101574992D01*
X138436919Y-101564424D01*
X138427499Y-101472203D01*
X138427498Y-101472200D01*
X138372314Y-101305666D01*
X138280212Y-101156344D01*
X138156156Y-101032288D01*
X138059402Y-100972610D01*
X138012679Y-100920663D01*
X138000500Y-100867072D01*
X138000500Y-100632927D01*
X138020185Y-100565888D01*
X138059401Y-100527390D01*
X138156156Y-100467712D01*
X138280212Y-100343656D01*
X138372314Y-100194334D01*
X138427499Y-100027797D01*
X138438000Y-99925009D01*
X138437999Y-98574992D01*
X138437998Y-98574983D01*
X139237000Y-98574983D01*
X139237000Y-99925001D01*
X139237001Y-99925018D01*
X139247500Y-100027796D01*
X139247501Y-100027799D01*
X139293864Y-100167710D01*
X139302686Y-100194334D01*
X139394788Y-100343656D01*
X139518844Y-100467712D01*
X139615597Y-100527389D01*
X139662321Y-100579335D01*
X139674500Y-100632927D01*
X139674500Y-100867072D01*
X139654815Y-100934111D01*
X139615598Y-100972609D01*
X139583113Y-100992647D01*
X139518842Y-101032289D01*
X139394789Y-101156342D01*
X139302687Y-101305663D01*
X139302686Y-101305666D01*
X139247501Y-101472203D01*
X139247501Y-101472204D01*
X139247500Y-101472204D01*
X139237000Y-101574983D01*
X139237000Y-102925001D01*
X139237001Y-102925018D01*
X139247500Y-103027796D01*
X139247501Y-103027799D01*
X139252756Y-103043656D01*
X139302686Y-103194334D01*
X139394788Y-103343656D01*
X139518844Y-103467712D01*
X139668166Y-103559814D01*
X139834703Y-103614999D01*
X139937491Y-103625500D01*
X140662508Y-103625499D01*
X140662516Y-103625498D01*
X140662519Y-103625498D01*
X140718802Y-103619748D01*
X140765297Y-103614999D01*
X140931834Y-103559814D01*
X141081156Y-103467712D01*
X141205212Y-103343656D01*
X141297314Y-103194334D01*
X141352499Y-103027797D01*
X141363000Y-102925009D01*
X141362999Y-101574992D01*
X141361919Y-101564424D01*
X141352499Y-101472203D01*
X141352498Y-101472200D01*
X141297314Y-101305666D01*
X141205212Y-101156344D01*
X141081156Y-101032288D01*
X140984402Y-100972610D01*
X140937679Y-100920663D01*
X140925500Y-100867072D01*
X140925500Y-100632927D01*
X140945185Y-100565888D01*
X140984401Y-100527390D01*
X141081156Y-100467712D01*
X141205212Y-100343656D01*
X141297314Y-100194334D01*
X141352499Y-100027797D01*
X141356677Y-99986896D01*
X141383073Y-99922207D01*
X141440253Y-99882055D01*
X141480035Y-99875500D01*
X141784362Y-99875500D01*
X141851401Y-99895185D01*
X141889899Y-99934401D01*
X141957288Y-100043656D01*
X142081344Y-100167712D01*
X142230666Y-100259814D01*
X142397203Y-100314999D01*
X142499991Y-100325500D01*
X142809217Y-100325499D01*
X142876256Y-100345183D01*
X142896898Y-100361818D01*
X144038181Y-101503101D01*
X144071666Y-101564424D01*
X144074500Y-101590782D01*
X144074500Y-102625001D01*
X144074501Y-102625019D01*
X144085000Y-102727796D01*
X144085001Y-102727799D01*
X144140185Y-102894331D01*
X144140187Y-102894336D01*
X144154553Y-102917627D01*
X144232288Y-103043656D01*
X144356344Y-103167712D01*
X144505666Y-103259814D01*
X144672203Y-103314999D01*
X144774991Y-103325500D01*
X145500008Y-103325499D01*
X145500016Y-103325498D01*
X145500019Y-103325498D01*
X145556302Y-103319748D01*
X145602797Y-103314999D01*
X145769334Y-103259814D01*
X145918656Y-103167712D01*
X146042712Y-103043656D01*
X146134814Y-102894334D01*
X146189999Y-102727797D01*
X146200500Y-102625009D01*
X146200499Y-101274992D01*
X146189999Y-101172203D01*
X146134814Y-101005666D01*
X146134812Y-101005663D01*
X146134811Y-101005660D01*
X146126784Y-100992647D01*
X146110705Y-100951740D01*
X146104523Y-100920663D01*
X146099551Y-100895665D01*
X146086305Y-100863687D01*
X146045051Y-100764090D01*
X146024132Y-100713586D01*
X145938214Y-100585001D01*
X145934428Y-100579335D01*
X145914642Y-100549721D01*
X144636818Y-99271897D01*
X144603333Y-99210574D01*
X144600499Y-99184216D01*
X144600499Y-98874990D01*
X144600498Y-98874981D01*
X144589999Y-98772203D01*
X144589998Y-98772200D01*
X144534814Y-98605666D01*
X144442712Y-98456344D01*
X144318656Y-98332288D01*
X144169334Y-98240186D01*
X144002797Y-98185001D01*
X144002795Y-98185000D01*
X143900010Y-98174500D01*
X142499998Y-98174500D01*
X142499981Y-98174501D01*
X142397203Y-98185000D01*
X142397200Y-98185001D01*
X142230668Y-98240185D01*
X142230663Y-98240187D01*
X142081342Y-98332289D01*
X141957289Y-98456342D01*
X141932033Y-98497288D01*
X141891985Y-98562219D01*
X141889901Y-98565597D01*
X141837953Y-98612321D01*
X141784362Y-98624500D01*
X141480035Y-98624500D01*
X141412996Y-98604815D01*
X141367241Y-98552011D01*
X141356677Y-98513102D01*
X141356163Y-98508071D01*
X141352499Y-98472203D01*
X141297314Y-98305666D01*
X141205212Y-98156344D01*
X141081156Y-98032288D01*
X140931834Y-97940186D01*
X140765297Y-97885001D01*
X140765295Y-97885000D01*
X140662510Y-97874500D01*
X139937498Y-97874500D01*
X139937480Y-97874501D01*
X139834703Y-97885000D01*
X139834700Y-97885001D01*
X139668168Y-97940185D01*
X139668163Y-97940187D01*
X139518842Y-98032289D01*
X139394789Y-98156342D01*
X139302687Y-98305663D01*
X139302686Y-98305666D01*
X139247501Y-98472203D01*
X139247501Y-98472204D01*
X139247500Y-98472204D01*
X139237000Y-98574983D01*
X138437998Y-98574983D01*
X138435651Y-98552011D01*
X138427499Y-98472203D01*
X138427498Y-98472200D01*
X138411149Y-98422862D01*
X138372314Y-98305666D01*
X138280212Y-98156344D01*
X138156156Y-98032288D01*
X138006834Y-97940186D01*
X137840297Y-97885001D01*
X137840295Y-97885000D01*
X137737510Y-97874500D01*
X137012498Y-97874500D01*
X137012480Y-97874501D01*
X136909703Y-97885000D01*
X136909700Y-97885001D01*
X136743168Y-97940185D01*
X136743163Y-97940187D01*
X136593842Y-98032289D01*
X136469789Y-98156342D01*
X136377687Y-98305663D01*
X136377686Y-98305666D01*
X136322501Y-98472203D01*
X136322501Y-98472204D01*
X136322500Y-98472204D01*
X136312000Y-98574983D01*
X136312000Y-99925001D01*
X136312001Y-99925018D01*
X136322500Y-100027796D01*
X136322501Y-100027799D01*
X136368864Y-100167710D01*
X136377686Y-100194334D01*
X136469788Y-100343656D01*
X136593844Y-100467712D01*
X136690597Y-100527389D01*
X136737321Y-100579335D01*
X136749500Y-100632927D01*
X136749500Y-100867072D01*
X136729815Y-100934111D01*
X136690598Y-100972609D01*
X136658113Y-100992647D01*
X136593842Y-101032289D01*
X136469789Y-101156342D01*
X136377687Y-101305663D01*
X136377685Y-101305668D01*
X136322501Y-101472204D01*
X136322500Y-101472205D01*
X136318323Y-101513102D01*
X136291927Y-101577793D01*
X136234747Y-101617945D01*
X136194965Y-101624500D01*
X135588389Y-101624500D01*
X135527971Y-101636518D01*
X135484743Y-101645116D01*
X135467546Y-101648537D01*
X135353716Y-101695687D01*
X135353707Y-101695692D01*
X135251268Y-101764140D01*
X135226891Y-101788518D01*
X135164142Y-101851267D01*
X135164139Y-101851270D01*
X134667229Y-102348181D01*
X134605906Y-102381666D01*
X134579548Y-102384500D01*
X133816526Y-102384500D01*
X133749487Y-102364815D01*
X133714951Y-102331623D01*
X133638528Y-102222479D01*
X133487521Y-102071472D01*
X133312578Y-101948977D01*
X133312579Y-101948977D01*
X133183547Y-101888809D01*
X133119030Y-101858724D01*
X133119023Y-101858722D01*
X133113936Y-101856870D01*
X133114606Y-101855028D01*
X133062293Y-101823114D01*
X133031789Y-101760255D01*
X133040111Y-101690883D01*
X133084617Y-101637022D01*
X133114097Y-101623574D01*
X133113764Y-101622658D01*
X133118864Y-101620801D01*
X133312325Y-101530589D01*
X133368030Y-101491583D01*
X132746448Y-100870000D01*
X132752661Y-100870000D01*
X132854394Y-100842741D01*
X132945606Y-100790080D01*
X133020080Y-100715606D01*
X133072741Y-100624394D01*
X133100000Y-100522661D01*
X133100000Y-100516447D01*
X133721583Y-101138029D01*
X133760589Y-101082325D01*
X133850801Y-100888864D01*
X133850805Y-100888853D01*
X133906054Y-100682662D01*
X133906055Y-100682654D01*
X133924660Y-100470002D01*
X133924660Y-100469997D01*
X133906055Y-100257345D01*
X133906054Y-100257337D01*
X133850805Y-100051146D01*
X133850802Y-100051140D01*
X133760586Y-99857669D01*
X133760582Y-99857663D01*
X133721584Y-99801968D01*
X133100000Y-100423552D01*
X133100000Y-100417339D01*
X133072741Y-100315606D01*
X133020080Y-100224394D01*
X132945606Y-100149920D01*
X132854394Y-100097259D01*
X132752661Y-100070000D01*
X132746447Y-100070000D01*
X133368030Y-99448415D01*
X133312329Y-99409413D01*
X133118859Y-99319197D01*
X133118853Y-99319194D01*
X132912662Y-99263945D01*
X132912654Y-99263944D01*
X132700002Y-99245340D01*
X132699998Y-99245340D01*
X132487345Y-99263944D01*
X132487337Y-99263945D01*
X132281146Y-99319194D01*
X132281140Y-99319197D01*
X132087671Y-99409412D01*
X132087669Y-99409413D01*
X132031969Y-99448415D01*
X132031968Y-99448415D01*
X132653554Y-100070000D01*
X132647339Y-100070000D01*
X132545606Y-100097259D01*
X132454394Y-100149920D01*
X132379920Y-100224394D01*
X132327259Y-100315606D01*
X132300000Y-100417339D01*
X132300000Y-100423553D01*
X131678415Y-99801968D01*
X131678415Y-99801969D01*
X131639413Y-99857669D01*
X131639412Y-99857671D01*
X131549197Y-100051140D01*
X131549194Y-100051146D01*
X131493945Y-100257337D01*
X131493944Y-100257345D01*
X131475340Y-100469997D01*
X131475340Y-100470002D01*
X131493944Y-100682654D01*
X131493945Y-100682662D01*
X131549194Y-100888853D01*
X131549197Y-100888859D01*
X131639413Y-101082329D01*
X131678415Y-101138030D01*
X132300000Y-100516445D01*
X132300000Y-100522661D01*
X132327259Y-100624394D01*
X132379920Y-100715606D01*
X132454394Y-100790080D01*
X132545606Y-100842741D01*
X132647339Y-100870000D01*
X132653553Y-100870000D01*
X132031968Y-101491584D01*
X132087663Y-101530582D01*
X132087669Y-101530586D01*
X132281140Y-101620802D01*
X132286236Y-101622658D01*
X132285542Y-101624563D01*
X132337647Y-101656302D01*
X132368196Y-101719139D01*
X132359922Y-101788518D01*
X132315454Y-101842409D01*
X132285744Y-101855991D01*
X132286064Y-101856870D01*
X132280972Y-101858723D01*
X132280970Y-101858724D01*
X132280968Y-101858725D01*
X132087421Y-101948977D01*
X131912478Y-102071472D01*
X131761472Y-102222478D01*
X131638977Y-102397421D01*
X131548725Y-102590968D01*
X131548721Y-102590977D01*
X131493452Y-102797247D01*
X131493450Y-102797258D01*
X131474838Y-103009998D01*
X131474838Y-103010001D01*
X131486396Y-103142109D01*
X131472629Y-103210609D01*
X131424014Y-103260792D01*
X131355986Y-103276725D01*
X131290142Y-103253350D01*
X131275187Y-103240597D01*
X131011819Y-102977229D01*
X130978334Y-102915906D01*
X130975500Y-102889548D01*
X130975500Y-97860452D01*
X130995185Y-97793413D01*
X131011819Y-97772771D01*
X132961619Y-95822972D01*
X134935858Y-93848733D01*
X135004312Y-93746285D01*
X135051463Y-93632451D01*
X135075501Y-93511606D01*
X135075501Y-93388393D01*
X135075501Y-93383283D01*
X135075500Y-93383257D01*
X135075500Y-86999994D01*
X141694357Y-86999994D01*
X141694357Y-87000005D01*
X141714890Y-87247812D01*
X141714892Y-87247824D01*
X141775936Y-87488881D01*
X141875826Y-87716606D01*
X142011833Y-87924782D01*
X142011836Y-87924785D01*
X142180256Y-88107738D01*
X142376491Y-88260474D01*
X142595190Y-88378828D01*
X142607292Y-88382982D01*
X142664307Y-88423365D01*
X142690439Y-88488164D01*
X142677391Y-88556804D01*
X142629304Y-88607493D01*
X142607300Y-88617543D01*
X142595398Y-88621629D01*
X142595390Y-88621632D01*
X142376761Y-88739949D01*
X142329942Y-88776388D01*
X142329942Y-88776390D01*
X143070590Y-89517037D01*
X143007007Y-89534075D01*
X142892993Y-89599901D01*
X142799901Y-89692993D01*
X142734075Y-89807007D01*
X142717037Y-89870589D01*
X141976564Y-89130116D01*
X141876267Y-89283632D01*
X141776412Y-89511282D01*
X141715387Y-89752261D01*
X141715385Y-89752270D01*
X141694859Y-89999994D01*
X141694859Y-90000005D01*
X141715385Y-90247729D01*
X141715387Y-90247738D01*
X141776412Y-90488717D01*
X141876266Y-90716364D01*
X141976564Y-90869882D01*
X142717037Y-90129409D01*
X142734075Y-90192993D01*
X142799901Y-90307007D01*
X142892993Y-90400099D01*
X143007007Y-90465925D01*
X143070590Y-90482962D01*
X142329942Y-91223609D01*
X142376768Y-91260055D01*
X142376770Y-91260056D01*
X142595385Y-91378364D01*
X142595396Y-91378369D01*
X142607294Y-91382454D01*
X142664309Y-91422839D01*
X142690440Y-91487639D01*
X142677389Y-91556279D01*
X142629300Y-91606967D01*
X142607296Y-91617016D01*
X142595191Y-91621171D01*
X142595188Y-91621172D01*
X142376493Y-91739524D01*
X142180257Y-91892261D01*
X142011833Y-92075217D01*
X141875826Y-92283393D01*
X141775936Y-92511118D01*
X141714892Y-92752175D01*
X141714890Y-92752187D01*
X141694357Y-92999994D01*
X141694357Y-93000005D01*
X141714890Y-93247812D01*
X141714892Y-93247824D01*
X141775936Y-93488881D01*
X141875826Y-93716606D01*
X142011833Y-93924782D01*
X142042570Y-93958171D01*
X142166730Y-94093045D01*
X142197652Y-94155698D01*
X142199500Y-94177027D01*
X142199500Y-95240201D01*
X142179815Y-95307240D01*
X142140598Y-95345739D01*
X142081344Y-95382287D01*
X141957289Y-95506342D01*
X141865187Y-95655663D01*
X141865186Y-95655666D01*
X141810001Y-95822203D01*
X141810001Y-95822204D01*
X141810000Y-95822204D01*
X141799500Y-95924983D01*
X141799500Y-96675001D01*
X141799501Y-96675019D01*
X141810000Y-96777796D01*
X141810001Y-96777799D01*
X141819680Y-96807007D01*
X141865186Y-96944334D01*
X141957288Y-97093656D01*
X142081344Y-97217712D01*
X142230666Y-97309814D01*
X142397203Y-97364999D01*
X142499991Y-97375500D01*
X143900008Y-97375499D01*
X144002797Y-97364999D01*
X144169334Y-97309814D01*
X144318656Y-97217712D01*
X144442712Y-97093656D01*
X144534814Y-96944334D01*
X144589999Y-96777797D01*
X144600500Y-96675009D01*
X144600499Y-95924992D01*
X144595625Y-95877283D01*
X144589999Y-95822203D01*
X144589998Y-95822200D01*
X144574817Y-95776388D01*
X144534814Y-95655666D01*
X144442712Y-95506344D01*
X144318656Y-95382288D01*
X144318655Y-95382287D01*
X144259402Y-95345739D01*
X144212678Y-95293791D01*
X144200500Y-95240201D01*
X144200500Y-94177027D01*
X144220185Y-94109988D01*
X144233265Y-94093049D01*
X144388164Y-93924785D01*
X144524173Y-93716607D01*
X144624063Y-93488881D01*
X144685108Y-93247821D01*
X144685116Y-93247729D01*
X144705643Y-93000005D01*
X144705643Y-92999994D01*
X144685109Y-92752187D01*
X144685107Y-92752175D01*
X144624063Y-92511118D01*
X144524173Y-92283393D01*
X144388166Y-92075217D01*
X144318463Y-91999500D01*
X144219744Y-91892262D01*
X144023509Y-91739526D01*
X144023507Y-91739525D01*
X144023506Y-91739524D01*
X143804811Y-91621172D01*
X143804802Y-91621169D01*
X143792705Y-91617016D01*
X143735690Y-91576631D01*
X143709559Y-91511831D01*
X143722610Y-91443191D01*
X143770699Y-91392504D01*
X143792707Y-91382453D01*
X143804608Y-91378367D01*
X143804614Y-91378364D01*
X144023228Y-91260057D01*
X144023231Y-91260055D01*
X144070056Y-91223609D01*
X143329409Y-90482962D01*
X143392993Y-90465925D01*
X143507007Y-90400099D01*
X143600099Y-90307007D01*
X143665925Y-90192993D01*
X143682962Y-90129409D01*
X144423434Y-90869882D01*
X144523731Y-90716369D01*
X144623587Y-90488717D01*
X144684612Y-90247738D01*
X144684614Y-90247729D01*
X144705141Y-90000005D01*
X144705141Y-89999994D01*
X144684614Y-89752270D01*
X144684612Y-89752261D01*
X144623587Y-89511282D01*
X144523731Y-89283630D01*
X144423434Y-89130116D01*
X143682962Y-89870589D01*
X143665925Y-89807007D01*
X143600099Y-89692993D01*
X143507007Y-89599901D01*
X143392993Y-89534075D01*
X143329410Y-89517037D01*
X144070057Y-88776390D01*
X144070056Y-88776389D01*
X144023229Y-88739943D01*
X143804614Y-88621635D01*
X143804605Y-88621631D01*
X143792701Y-88617544D01*
X143735687Y-88577156D01*
X143709559Y-88512356D01*
X143722612Y-88443716D01*
X143770703Y-88393030D01*
X143792705Y-88382983D01*
X143804810Y-88378828D01*
X144023509Y-88260474D01*
X144219744Y-88107738D01*
X144388164Y-87924785D01*
X144524173Y-87716607D01*
X144624063Y-87488881D01*
X144685108Y-87247821D01*
X144686864Y-87226630D01*
X144705643Y-87000005D01*
X144705643Y-86999994D01*
X144685109Y-86752187D01*
X144685107Y-86752175D01*
X144624063Y-86511118D01*
X144524173Y-86283393D01*
X144471883Y-86203357D01*
X144388164Y-86075215D01*
X144377122Y-86063220D01*
X144233270Y-85906953D01*
X144202348Y-85844299D01*
X144200500Y-85822971D01*
X144200500Y-84959797D01*
X144220185Y-84892758D01*
X144259403Y-84854258D01*
X144318656Y-84817712D01*
X144442712Y-84693656D01*
X144534814Y-84544334D01*
X144589999Y-84377797D01*
X144600500Y-84275009D01*
X144600499Y-83524992D01*
X144589999Y-83422203D01*
X144534814Y-83255666D01*
X144442712Y-83106344D01*
X144318656Y-82982288D01*
X144225888Y-82925069D01*
X144169336Y-82890187D01*
X144169331Y-82890185D01*
X144125247Y-82875577D01*
X144002797Y-82835001D01*
X144002795Y-82835000D01*
X143900010Y-82824500D01*
X142499998Y-82824500D01*
X142499981Y-82824501D01*
X142397203Y-82835000D01*
X142397200Y-82835001D01*
X142230668Y-82890185D01*
X142230663Y-82890187D01*
X142081342Y-82982289D01*
X141957289Y-83106342D01*
X141865187Y-83255663D01*
X141865186Y-83255666D01*
X141810001Y-83422203D01*
X141810001Y-83422204D01*
X141810000Y-83422204D01*
X141799500Y-83524983D01*
X141799500Y-84275001D01*
X141799501Y-84275019D01*
X141810000Y-84377796D01*
X141810001Y-84377799D01*
X141837098Y-84459570D01*
X141865186Y-84544334D01*
X141957288Y-84693656D01*
X142081344Y-84817712D01*
X142140596Y-84854258D01*
X142187321Y-84906204D01*
X142199500Y-84959797D01*
X142199500Y-85822971D01*
X142179815Y-85890010D01*
X142166730Y-85906953D01*
X142011836Y-86075214D01*
X141875826Y-86283393D01*
X141775936Y-86511118D01*
X141714892Y-86752175D01*
X141714890Y-86752187D01*
X141694357Y-86999994D01*
X135075500Y-86999994D01*
X135075500Y-79016525D01*
X135095185Y-78949486D01*
X135128375Y-78914951D01*
X135237519Y-78838529D01*
X135388529Y-78687519D01*
X135511021Y-78512581D01*
X135601276Y-78319030D01*
X135656549Y-78112747D01*
X135669695Y-77962483D01*
X138774500Y-77962483D01*
X138774500Y-78687501D01*
X138774501Y-78687519D01*
X138785000Y-78790296D01*
X138785001Y-78790299D01*
X138826307Y-78914950D01*
X138840186Y-78956834D01*
X138932288Y-79106156D01*
X139056344Y-79230212D01*
X139205666Y-79322314D01*
X139372203Y-79377499D01*
X139474991Y-79388000D01*
X140825008Y-79387999D01*
X140927797Y-79377499D01*
X141094334Y-79322314D01*
X141243656Y-79230212D01*
X141362049Y-79111819D01*
X141423372Y-79078334D01*
X141449730Y-79075500D01*
X141900270Y-79075500D01*
X141967309Y-79095185D01*
X141987951Y-79111819D01*
X142106344Y-79230212D01*
X142255666Y-79322314D01*
X142364505Y-79358379D01*
X142421949Y-79398152D01*
X142448772Y-79462667D01*
X142449500Y-79476085D01*
X142449500Y-79778130D01*
X142429815Y-79845169D01*
X142377011Y-79890924D01*
X142364505Y-79895836D01*
X142230666Y-79940186D01*
X142230663Y-79940187D01*
X142081342Y-80032289D01*
X141957289Y-80156342D01*
X141865187Y-80305663D01*
X141865186Y-80305666D01*
X141810001Y-80472203D01*
X141810001Y-80472204D01*
X141810000Y-80472204D01*
X141799500Y-80574983D01*
X141799500Y-81325001D01*
X141799501Y-81325019D01*
X141810000Y-81427796D01*
X141810001Y-81427799D01*
X141859630Y-81577567D01*
X141865186Y-81594334D01*
X141957288Y-81743656D01*
X142081344Y-81867712D01*
X142230666Y-81959814D01*
X142397203Y-82014999D01*
X142499991Y-82025500D01*
X143900008Y-82025499D01*
X144002797Y-82014999D01*
X144169334Y-81959814D01*
X144169334Y-81959813D01*
X144176190Y-81957542D01*
X144176795Y-81959368D01*
X144216798Y-81950500D01*
X145993122Y-81950500D01*
X146060161Y-81970185D01*
X146098659Y-82009401D01*
X146119788Y-82043656D01*
X146243844Y-82167712D01*
X146393166Y-82259814D01*
X146559703Y-82314999D01*
X146662491Y-82325500D01*
X147387508Y-82325499D01*
X147387516Y-82325498D01*
X147387519Y-82325498D01*
X147443802Y-82319748D01*
X147490297Y-82314999D01*
X147656834Y-82259814D01*
X147806156Y-82167712D01*
X147930212Y-82043656D01*
X148022314Y-81894334D01*
X148077499Y-81727797D01*
X148088000Y-81625009D01*
X148087999Y-80274992D01*
X148077499Y-80172203D01*
X148022314Y-80005666D01*
X147930212Y-79856344D01*
X147806156Y-79732288D01*
X147656834Y-79640186D01*
X147490297Y-79585001D01*
X147490295Y-79585000D01*
X147387510Y-79574500D01*
X146662498Y-79574500D01*
X146662480Y-79574501D01*
X146559703Y-79585000D01*
X146559700Y-79585001D01*
X146393168Y-79640185D01*
X146393163Y-79640187D01*
X146243842Y-79732289D01*
X146119789Y-79856342D01*
X146119788Y-79856344D01*
X146102113Y-79885001D01*
X146098661Y-79890597D01*
X146046713Y-79937321D01*
X145993122Y-79949500D01*
X144216798Y-79949500D01*
X144176795Y-79940631D01*
X144176190Y-79942458D01*
X144035496Y-79895836D01*
X143978051Y-79856063D01*
X143951228Y-79791547D01*
X143950500Y-79778130D01*
X143950500Y-79476085D01*
X143970185Y-79409046D01*
X144022989Y-79363291D01*
X144035489Y-79358381D01*
X144144334Y-79322314D01*
X144293656Y-79230212D01*
X144417712Y-79106156D01*
X144509814Y-78956834D01*
X144564999Y-78790297D01*
X144575500Y-78687509D01*
X144575499Y-77962492D01*
X144569115Y-77900001D01*
X144564999Y-77859703D01*
X144564998Y-77859700D01*
X144509814Y-77693166D01*
X144417712Y-77543844D01*
X144293656Y-77419788D01*
X144144334Y-77327686D01*
X143977797Y-77272501D01*
X143977795Y-77272500D01*
X143875010Y-77262000D01*
X142524998Y-77262000D01*
X142524981Y-77262001D01*
X142422203Y-77272500D01*
X142422200Y-77272501D01*
X142255668Y-77327685D01*
X142255663Y-77327687D01*
X142106342Y-77419789D01*
X141987951Y-77538181D01*
X141926628Y-77571666D01*
X141900270Y-77574500D01*
X141449730Y-77574500D01*
X141382691Y-77554815D01*
X141362049Y-77538181D01*
X141243657Y-77419789D01*
X141243656Y-77419788D01*
X141094334Y-77327686D01*
X140927797Y-77272501D01*
X140927795Y-77272500D01*
X140825010Y-77262000D01*
X139474998Y-77262000D01*
X139474981Y-77262001D01*
X139372203Y-77272500D01*
X139372200Y-77272501D01*
X139205668Y-77327685D01*
X139205663Y-77327687D01*
X139056342Y-77419789D01*
X138932289Y-77543842D01*
X138840187Y-77693163D01*
X138840186Y-77693166D01*
X138785001Y-77859703D01*
X138785001Y-77859704D01*
X138785000Y-77859704D01*
X138774500Y-77962483D01*
X135669695Y-77962483D01*
X135675162Y-77900000D01*
X135671636Y-77859703D01*
X135656549Y-77687258D01*
X135656549Y-77687253D01*
X135601276Y-77480970D01*
X135511021Y-77287419D01*
X135388529Y-77112481D01*
X135388527Y-77112478D01*
X135237521Y-76961472D01*
X135062578Y-76838977D01*
X135062579Y-76838977D01*
X134933547Y-76778809D01*
X134869030Y-76748724D01*
X134869023Y-76748722D01*
X134863936Y-76746870D01*
X134864709Y-76744746D01*
X134813305Y-76713424D01*
X134782766Y-76650581D01*
X134791050Y-76581204D01*
X134835528Y-76527320D01*
X134864315Y-76514172D01*
X134863936Y-76513130D01*
X134869013Y-76511280D01*
X134869030Y-76511276D01*
X135062581Y-76421021D01*
X135237519Y-76298529D01*
X135388529Y-76147519D01*
X135388531Y-76147515D01*
X135389228Y-76146819D01*
X135450552Y-76113334D01*
X135476910Y-76110500D01*
X138819500Y-76110500D01*
X138886539Y-76130185D01*
X138925038Y-76169402D01*
X138932288Y-76181156D01*
X139056344Y-76305212D01*
X139205666Y-76397314D01*
X139372203Y-76452499D01*
X139474991Y-76463000D01*
X140825008Y-76462999D01*
X140927797Y-76452499D01*
X141094334Y-76397314D01*
X141243656Y-76305212D01*
X141362049Y-76186819D01*
X141423372Y-76153334D01*
X141449730Y-76150500D01*
X141900270Y-76150500D01*
X141967309Y-76170185D01*
X141987951Y-76186819D01*
X142106344Y-76305212D01*
X142255666Y-76397314D01*
X142422203Y-76452499D01*
X142524991Y-76463000D01*
X143875008Y-76462999D01*
X143977797Y-76452499D01*
X144144334Y-76397314D01*
X144293656Y-76305212D01*
X144417712Y-76181156D01*
X144509814Y-76031834D01*
X144564999Y-75865297D01*
X144575500Y-75762509D01*
X144575499Y-75037492D01*
X144564999Y-74934703D01*
X144509814Y-74768166D01*
X144417712Y-74618844D01*
X144293656Y-74494788D01*
X144174786Y-74421469D01*
X144144336Y-74402687D01*
X144137791Y-74399636D01*
X144138470Y-74398178D01*
X144088131Y-74363325D01*
X144061308Y-74298809D01*
X144073623Y-74230033D01*
X144121166Y-74178833D01*
X144145574Y-74167687D01*
X144169334Y-74159814D01*
X144318656Y-74067712D01*
X144442712Y-73943656D01*
X144534814Y-73794334D01*
X144589999Y-73627797D01*
X144600500Y-73525009D01*
X144600499Y-72774992D01*
X144589999Y-72672203D01*
X144534814Y-72505666D01*
X144442712Y-72356344D01*
X144318656Y-72232288D01*
X144212750Y-72166965D01*
X144168903Y-72139920D01*
X144122179Y-72087972D01*
X144110000Y-72034381D01*
X144110000Y-71315031D01*
X144129685Y-71247992D01*
X144168903Y-71209492D01*
X144318345Y-71117315D01*
X144442315Y-70993345D01*
X144534356Y-70844124D01*
X144534358Y-70844119D01*
X144589505Y-70677697D01*
X144589506Y-70677690D01*
X144599999Y-70574986D01*
X144600000Y-70574973D01*
X144600000Y-70450000D01*
X141800001Y-70450000D01*
X141800001Y-70574986D01*
X141810494Y-70677697D01*
X141865641Y-70844119D01*
X141865643Y-70844124D01*
X141957684Y-70993345D01*
X142081654Y-71117315D01*
X142231097Y-71209492D01*
X142277821Y-71261440D01*
X142290000Y-71315031D01*
X142290000Y-72034381D01*
X142270315Y-72101420D01*
X142231097Y-72139920D01*
X142081342Y-72232289D01*
X141957289Y-72356342D01*
X141865187Y-72505663D01*
X141865185Y-72505668D01*
X141842412Y-72574394D01*
X141810001Y-72672203D01*
X141810001Y-72672204D01*
X141810000Y-72672204D01*
X141799500Y-72774983D01*
X141799500Y-73525001D01*
X141799501Y-73525019D01*
X141810000Y-73627796D01*
X141810001Y-73627799D01*
X141833645Y-73699150D01*
X141865186Y-73794334D01*
X141957288Y-73943656D01*
X142081344Y-74067712D01*
X142230666Y-74159814D01*
X142254425Y-74167687D01*
X142311868Y-74207459D01*
X142338691Y-74271975D01*
X142326376Y-74340751D01*
X142278833Y-74391951D01*
X142262173Y-74399559D01*
X142262209Y-74399636D01*
X142255663Y-74402687D01*
X142106342Y-74494789D01*
X141987951Y-74613181D01*
X141926628Y-74646666D01*
X141900270Y-74649500D01*
X141449730Y-74649500D01*
X141382691Y-74629815D01*
X141362049Y-74613181D01*
X141243657Y-74494789D01*
X141243656Y-74494788D01*
X141124786Y-74421469D01*
X141094336Y-74402687D01*
X141094331Y-74402685D01*
X141061938Y-74391951D01*
X140927797Y-74347501D01*
X140927795Y-74347500D01*
X140825010Y-74337000D01*
X139474998Y-74337000D01*
X139474981Y-74337001D01*
X139372203Y-74347500D01*
X139372200Y-74347501D01*
X139205668Y-74402685D01*
X139205663Y-74402687D01*
X139056342Y-74494789D01*
X138977951Y-74573181D01*
X138916628Y-74606666D01*
X138890270Y-74609500D01*
X135476910Y-74609500D01*
X135409871Y-74589815D01*
X135389228Y-74573181D01*
X135388531Y-74572484D01*
X135388529Y-74572481D01*
X135237519Y-74421471D01*
X135237518Y-74421470D01*
X135237517Y-74421469D01*
X135062578Y-74298977D01*
X135062579Y-74298977D01*
X134914727Y-74230033D01*
X134869030Y-74208724D01*
X134869023Y-74208722D01*
X134863936Y-74206870D01*
X134864606Y-74205028D01*
X134812293Y-74173114D01*
X134781789Y-74110255D01*
X134790111Y-74040883D01*
X134834617Y-73987022D01*
X134864097Y-73973574D01*
X134863764Y-73972658D01*
X134868864Y-73970801D01*
X135062325Y-73880589D01*
X135118030Y-73841583D01*
X134496448Y-73220000D01*
X134502661Y-73220000D01*
X134604394Y-73192741D01*
X134695606Y-73140080D01*
X134770080Y-73065606D01*
X134822741Y-72974394D01*
X134850000Y-72872661D01*
X134850000Y-72866446D01*
X135471583Y-73488029D01*
X135510589Y-73432325D01*
X135600801Y-73238864D01*
X135600805Y-73238853D01*
X135656054Y-73032662D01*
X135656055Y-73032654D01*
X135674660Y-72820002D01*
X135674660Y-72819997D01*
X135656055Y-72607345D01*
X135656054Y-72607337D01*
X135600805Y-72401146D01*
X135600802Y-72401140D01*
X135510586Y-72207669D01*
X135510582Y-72207663D01*
X135471584Y-72151968D01*
X134850000Y-72773552D01*
X134850000Y-72767339D01*
X134822741Y-72665606D01*
X134770080Y-72574394D01*
X134695606Y-72499920D01*
X134604394Y-72447259D01*
X134502661Y-72420000D01*
X134496447Y-72420000D01*
X135118030Y-71798415D01*
X135062329Y-71759413D01*
X134868859Y-71669197D01*
X134868853Y-71669194D01*
X134662662Y-71613945D01*
X134662654Y-71613944D01*
X134450002Y-71595340D01*
X134449998Y-71595340D01*
X134237345Y-71613944D01*
X134237337Y-71613945D01*
X134031146Y-71669194D01*
X134031140Y-71669197D01*
X133837671Y-71759412D01*
X133837669Y-71759413D01*
X133781969Y-71798415D01*
X133781968Y-71798415D01*
X134403554Y-72420000D01*
X134397339Y-72420000D01*
X134295606Y-72447259D01*
X134204394Y-72499920D01*
X134129920Y-72574394D01*
X134077259Y-72665606D01*
X134050000Y-72767339D01*
X134050000Y-72773553D01*
X133428415Y-72151968D01*
X133428415Y-72151969D01*
X133389413Y-72207669D01*
X133389412Y-72207671D01*
X133299197Y-72401140D01*
X133299194Y-72401146D01*
X133243945Y-72607337D01*
X133243944Y-72607345D01*
X133225340Y-72819997D01*
X133225340Y-72820002D01*
X133243944Y-73032654D01*
X133243945Y-73032662D01*
X133299194Y-73238853D01*
X133299197Y-73238859D01*
X133389413Y-73432329D01*
X133428415Y-73488030D01*
X134050000Y-72866445D01*
X134050000Y-72872661D01*
X134077259Y-72974394D01*
X134129920Y-73065606D01*
X134204394Y-73140080D01*
X134295606Y-73192741D01*
X134397339Y-73220000D01*
X134403553Y-73220000D01*
X133781968Y-73841584D01*
X133837663Y-73880582D01*
X133837669Y-73880586D01*
X134031140Y-73970802D01*
X134036236Y-73972658D01*
X134035542Y-73974563D01*
X134087647Y-74006302D01*
X134118196Y-74069139D01*
X134109922Y-74138518D01*
X134065454Y-74192409D01*
X134035744Y-74205991D01*
X134036064Y-74206870D01*
X134030972Y-74208723D01*
X134030970Y-74208724D01*
X134030968Y-74208725D01*
X133837421Y-74298977D01*
X133662478Y-74421472D01*
X133511472Y-74572478D01*
X133388977Y-74747421D01*
X133298725Y-74940968D01*
X133298721Y-74940977D01*
X133243452Y-75147247D01*
X133243450Y-75147258D01*
X133224838Y-75359998D01*
X133224838Y-75360001D01*
X133243450Y-75572741D01*
X133243452Y-75572752D01*
X133298721Y-75779022D01*
X133298723Y-75779026D01*
X133298724Y-75779030D01*
X133338950Y-75865295D01*
X133388977Y-75972578D01*
X133511472Y-76147521D01*
X133662478Y-76298527D01*
X133672025Y-76305212D01*
X133837419Y-76421021D01*
X133837421Y-76421022D01*
X133837420Y-76421022D01*
X133901936Y-76451106D01*
X134030970Y-76511276D01*
X134030983Y-76511279D01*
X134036064Y-76513130D01*
X134035292Y-76515250D01*
X134086710Y-76546594D01*
X134117237Y-76609442D01*
X134108939Y-76678817D01*
X134064452Y-76732693D01*
X134035685Y-76745830D01*
X134036064Y-76746870D01*
X134030972Y-76748723D01*
X134030970Y-76748724D01*
X134030968Y-76748725D01*
X133837421Y-76838977D01*
X133662478Y-76961472D01*
X133511472Y-77112478D01*
X133388977Y-77287421D01*
X133298725Y-77480968D01*
X133298721Y-77480977D01*
X133243452Y-77687247D01*
X133243450Y-77687258D01*
X133224838Y-77899998D01*
X133224838Y-77900001D01*
X133243450Y-78112741D01*
X133243452Y-78112752D01*
X133298721Y-78319022D01*
X133298723Y-78319026D01*
X133298724Y-78319030D01*
X133341171Y-78410058D01*
X133388977Y-78512578D01*
X133511472Y-78687521D01*
X133662478Y-78838527D01*
X133662481Y-78838529D01*
X133771623Y-78914950D01*
X133815248Y-78969526D01*
X133824500Y-79016525D01*
X133824500Y-93139547D01*
X133804815Y-93206586D01*
X133788181Y-93227228D01*
X129951269Y-97064140D01*
X129951267Y-97064142D01*
X129921753Y-97093656D01*
X129864140Y-97151268D01*
X129840514Y-97186629D01*
X129840512Y-97186632D01*
X129795690Y-97253710D01*
X129795685Y-97253719D01*
X129779898Y-97291835D01*
X129779898Y-97291836D01*
X129748538Y-97367545D01*
X129748535Y-97367555D01*
X129724500Y-97488389D01*
X115500500Y-97488389D01*
X115500500Y-92999994D01*
X125694859Y-92999994D01*
X125694859Y-93000005D01*
X125715385Y-93247729D01*
X125715387Y-93247738D01*
X125776412Y-93488717D01*
X125876266Y-93716364D01*
X125976564Y-93869882D01*
X126717037Y-93129409D01*
X126734075Y-93192993D01*
X126799901Y-93307007D01*
X126892993Y-93400099D01*
X127007007Y-93465925D01*
X127070590Y-93482962D01*
X126329942Y-94223609D01*
X126376768Y-94260055D01*
X126376770Y-94260056D01*
X126595385Y-94378364D01*
X126595396Y-94378369D01*
X126830506Y-94459083D01*
X127075707Y-94500000D01*
X127324293Y-94500000D01*
X127569493Y-94459083D01*
X127804603Y-94378369D01*
X127804614Y-94378364D01*
X128023228Y-94260057D01*
X128023231Y-94260055D01*
X128070056Y-94223609D01*
X127329409Y-93482962D01*
X127392993Y-93465925D01*
X127507007Y-93400099D01*
X127600099Y-93307007D01*
X127665925Y-93192993D01*
X127682962Y-93129410D01*
X128423434Y-93869882D01*
X128523731Y-93716369D01*
X128623587Y-93488717D01*
X128684612Y-93247738D01*
X128684614Y-93247729D01*
X128705141Y-93000005D01*
X128705141Y-92999994D01*
X128684614Y-92752270D01*
X128684612Y-92752261D01*
X128623587Y-92511282D01*
X128523731Y-92283630D01*
X128423434Y-92130116D01*
X127682962Y-92870589D01*
X127665925Y-92807007D01*
X127600099Y-92692993D01*
X127507007Y-92599901D01*
X127392993Y-92534075D01*
X127329410Y-92517037D01*
X128070057Y-91776390D01*
X128070056Y-91776389D01*
X128023229Y-91739943D01*
X127804614Y-91621635D01*
X127804603Y-91621630D01*
X127569493Y-91540916D01*
X127324293Y-91500000D01*
X127075707Y-91500000D01*
X126830506Y-91540916D01*
X126595396Y-91621630D01*
X126595390Y-91621632D01*
X126376761Y-91739949D01*
X126329942Y-91776388D01*
X126329942Y-91776390D01*
X127070590Y-92517037D01*
X127007007Y-92534075D01*
X126892993Y-92599901D01*
X126799901Y-92692993D01*
X126734075Y-92807007D01*
X126717037Y-92870589D01*
X125976564Y-92130116D01*
X125876267Y-92283632D01*
X125776412Y-92511282D01*
X125715387Y-92752261D01*
X125715385Y-92752270D01*
X125694859Y-92999994D01*
X115500500Y-92999994D01*
X115500500Y-84499995D01*
X116144953Y-84499995D01*
X116144953Y-84500004D01*
X116165113Y-84769026D01*
X116165113Y-84769028D01*
X116225142Y-85032033D01*
X116225148Y-85032052D01*
X116323709Y-85283181D01*
X116323708Y-85283181D01*
X116458602Y-85516822D01*
X116512294Y-85584151D01*
X116512295Y-85584151D01*
X117234153Y-84862293D01*
X117241049Y-84878942D01*
X117328599Y-85009970D01*
X117440030Y-85121401D01*
X117571058Y-85208951D01*
X117587705Y-85215846D01*
X116864848Y-85938702D01*
X117047483Y-86063220D01*
X117047485Y-86063221D01*
X117290539Y-86180269D01*
X117290537Y-86180269D01*
X117548337Y-86259790D01*
X117548343Y-86259792D01*
X117815101Y-86299999D01*
X117815110Y-86300000D01*
X118084890Y-86300000D01*
X118084898Y-86299999D01*
X118351656Y-86259792D01*
X118351662Y-86259790D01*
X118609458Y-86180270D01*
X118827927Y-86075061D01*
X118896869Y-86063709D01*
X118961003Y-86091431D01*
X118999969Y-86149426D01*
X119001394Y-86219281D01*
X118997158Y-86232081D01*
X118939851Y-86378100D01*
X118912578Y-86447590D01*
X118912576Y-86447597D01*
X118854197Y-86703374D01*
X118854196Y-86703379D01*
X118834592Y-86964995D01*
X118834592Y-86965004D01*
X118854196Y-87226620D01*
X118854197Y-87226625D01*
X118912576Y-87482402D01*
X118912578Y-87482411D01*
X118912580Y-87482416D01*
X118915630Y-87490187D01*
X119008432Y-87726643D01*
X119114256Y-87909937D01*
X119130729Y-87977837D01*
X119107876Y-88043864D01*
X119052955Y-88087055D01*
X118983402Y-88093696D01*
X118937017Y-88074390D01*
X118852526Y-88016784D01*
X118852516Y-88016778D01*
X118609460Y-87899730D01*
X118609462Y-87899730D01*
X118351662Y-87820209D01*
X118351656Y-87820207D01*
X118084898Y-87780000D01*
X117815101Y-87780000D01*
X117548343Y-87820207D01*
X117548337Y-87820209D01*
X117290538Y-87899730D01*
X117047485Y-88016778D01*
X117047476Y-88016783D01*
X116864848Y-88141296D01*
X117587705Y-88864153D01*
X117571058Y-88871049D01*
X117440030Y-88958599D01*
X117328599Y-89070030D01*
X117241049Y-89201058D01*
X117234153Y-89217706D01*
X116512295Y-88495848D01*
X116458600Y-88563180D01*
X116323709Y-88796818D01*
X116225148Y-89047947D01*
X116225142Y-89047966D01*
X116165113Y-89310971D01*
X116165113Y-89310973D01*
X116144953Y-89579995D01*
X116144953Y-89580004D01*
X116165113Y-89849026D01*
X116165113Y-89849028D01*
X116225142Y-90112033D01*
X116225148Y-90112052D01*
X116323709Y-90363181D01*
X116323708Y-90363181D01*
X116458602Y-90596822D01*
X116512294Y-90664151D01*
X116512295Y-90664151D01*
X117234153Y-89942293D01*
X117241049Y-89958942D01*
X117328599Y-90089970D01*
X117440030Y-90201401D01*
X117571058Y-90288951D01*
X117587705Y-90295846D01*
X116864848Y-91018702D01*
X117047483Y-91143220D01*
X117047485Y-91143221D01*
X117290539Y-91260269D01*
X117290537Y-91260269D01*
X117548337Y-91339790D01*
X117548343Y-91339792D01*
X117815101Y-91379999D01*
X117815110Y-91380000D01*
X118084890Y-91380000D01*
X118084898Y-91379999D01*
X118351656Y-91339792D01*
X118351662Y-91339790D01*
X118609461Y-91260269D01*
X118852521Y-91143218D01*
X119035150Y-91018702D01*
X118312294Y-90295846D01*
X118328942Y-90288951D01*
X118459970Y-90201401D01*
X118571401Y-90089970D01*
X118658951Y-89958942D01*
X118665846Y-89942294D01*
X119387703Y-90664151D01*
X119387704Y-90664150D01*
X119441393Y-90596828D01*
X119441400Y-90596817D01*
X119576290Y-90363181D01*
X119674851Y-90112052D01*
X119674857Y-90112033D01*
X119734886Y-89849028D01*
X119734886Y-89849026D01*
X119755047Y-89580004D01*
X119755047Y-89579995D01*
X119734886Y-89310973D01*
X119734886Y-89310971D01*
X119674857Y-89047966D01*
X119674851Y-89047947D01*
X119576290Y-88796818D01*
X119576291Y-88796818D01*
X119462961Y-88600527D01*
X119446488Y-88532627D01*
X119469340Y-88466600D01*
X119524261Y-88423410D01*
X119593815Y-88416768D01*
X119640197Y-88436071D01*
X119712296Y-88485228D01*
X119712301Y-88485230D01*
X119712302Y-88485231D01*
X119712303Y-88485232D01*
X119810721Y-88532627D01*
X119948673Y-88599061D01*
X119948674Y-88599061D01*
X119948677Y-88599063D01*
X120199385Y-88676396D01*
X120458818Y-88715500D01*
X120721182Y-88715500D01*
X120980615Y-88676396D01*
X121231323Y-88599063D01*
X121266056Y-88582336D01*
X121334994Y-88570985D01*
X121399128Y-88598706D01*
X121438094Y-88656701D01*
X121439520Y-88726556D01*
X121427243Y-88756056D01*
X121403708Y-88796820D01*
X121305148Y-89047947D01*
X121305142Y-89047966D01*
X121245113Y-89310971D01*
X121245113Y-89310973D01*
X121224953Y-89579995D01*
X121224953Y-89580004D01*
X121245113Y-89849026D01*
X121245113Y-89849028D01*
X121305142Y-90112033D01*
X121305148Y-90112052D01*
X121403709Y-90363181D01*
X121403708Y-90363181D01*
X121538602Y-90596822D01*
X121592294Y-90664151D01*
X122314152Y-89942293D01*
X122321049Y-89958942D01*
X122408599Y-90089970D01*
X122520030Y-90201401D01*
X122651058Y-90288951D01*
X122667705Y-90295846D01*
X121944848Y-91018702D01*
X122127483Y-91143220D01*
X122127485Y-91143221D01*
X122370539Y-91260269D01*
X122370537Y-91260269D01*
X122628337Y-91339790D01*
X122628343Y-91339792D01*
X122895101Y-91379999D01*
X122895110Y-91380000D01*
X123164890Y-91380000D01*
X123164898Y-91379999D01*
X123431656Y-91339792D01*
X123431662Y-91339790D01*
X123689461Y-91260269D01*
X123932521Y-91143218D01*
X124115150Y-91018702D01*
X123392294Y-90295846D01*
X123408942Y-90288951D01*
X123539970Y-90201401D01*
X123651401Y-90089970D01*
X123738951Y-89958942D01*
X123745846Y-89942294D01*
X124467703Y-90664151D01*
X124467704Y-90664150D01*
X124521393Y-90596828D01*
X124521400Y-90596817D01*
X124656290Y-90363181D01*
X124754851Y-90112052D01*
X124754857Y-90112033D01*
X124814886Y-89849028D01*
X124814886Y-89849026D01*
X124835047Y-89580004D01*
X124835047Y-89579995D01*
X124814886Y-89310973D01*
X124814886Y-89310971D01*
X124754857Y-89047966D01*
X124754851Y-89047947D01*
X124656290Y-88796818D01*
X124656291Y-88796818D01*
X124521397Y-88563177D01*
X124467704Y-88495847D01*
X123745846Y-89217705D01*
X123738951Y-89201058D01*
X123651401Y-89070030D01*
X123539970Y-88958599D01*
X123408942Y-88871049D01*
X123392293Y-88864153D01*
X124115150Y-88141296D01*
X124114661Y-88136077D01*
X124128000Y-88067493D01*
X124176301Y-88017008D01*
X124238119Y-88000500D01*
X126027145Y-88000500D01*
X126094184Y-88020185D01*
X126118374Y-88040517D01*
X126161216Y-88087055D01*
X126180256Y-88107738D01*
X126376491Y-88260474D01*
X126595190Y-88378828D01*
X126830386Y-88459571D01*
X127075665Y-88500500D01*
X127324335Y-88500500D01*
X127569614Y-88459571D01*
X127804810Y-88378828D01*
X128023509Y-88260474D01*
X128219744Y-88107738D01*
X128388164Y-87924785D01*
X128524173Y-87716607D01*
X128624063Y-87488881D01*
X128685108Y-87247821D01*
X128686864Y-87226630D01*
X128705643Y-87000005D01*
X128705643Y-86999994D01*
X128685109Y-86752187D01*
X128685107Y-86752175D01*
X128624063Y-86511118D01*
X128524173Y-86283393D01*
X128388166Y-86075217D01*
X128300342Y-85979815D01*
X128219744Y-85892262D01*
X128023509Y-85739526D01*
X128023507Y-85739525D01*
X128023506Y-85739524D01*
X127804811Y-85621172D01*
X127804802Y-85621169D01*
X127569616Y-85540429D01*
X127324335Y-85499500D01*
X127075665Y-85499500D01*
X126830383Y-85540429D01*
X126595197Y-85621169D01*
X126595188Y-85621172D01*
X126376493Y-85739524D01*
X126180255Y-85892262D01*
X126180252Y-85892265D01*
X126118374Y-85959483D01*
X126058487Y-85995474D01*
X126027145Y-85999500D01*
X124227310Y-85999500D01*
X124160271Y-85979815D01*
X124139629Y-85963181D01*
X123392294Y-85215846D01*
X123408942Y-85208951D01*
X123539970Y-85121401D01*
X123651401Y-85009970D01*
X123738951Y-84878942D01*
X123745846Y-84862294D01*
X124467703Y-85584151D01*
X124467704Y-85584150D01*
X124521393Y-85516828D01*
X124521400Y-85516817D01*
X124656290Y-85283181D01*
X124754851Y-85032052D01*
X124754857Y-85032033D01*
X124814886Y-84769028D01*
X124814886Y-84769026D01*
X124835047Y-84500004D01*
X124835047Y-84499995D01*
X124814886Y-84230973D01*
X124814886Y-84230971D01*
X124754857Y-83967966D01*
X124754851Y-83967947D01*
X124656290Y-83716818D01*
X124656291Y-83716818D01*
X124521397Y-83483177D01*
X124467704Y-83415847D01*
X123745846Y-84137705D01*
X123738951Y-84121058D01*
X123651401Y-83990030D01*
X123539970Y-83878599D01*
X123408942Y-83791049D01*
X123392294Y-83784153D01*
X124115150Y-83061296D01*
X123932517Y-82936779D01*
X123932516Y-82936778D01*
X123689460Y-82819730D01*
X123689462Y-82819730D01*
X123431662Y-82740209D01*
X123431656Y-82740207D01*
X123164898Y-82700000D01*
X122895101Y-82700000D01*
X122628343Y-82740207D01*
X122628337Y-82740209D01*
X122370538Y-82819730D01*
X122127485Y-82936778D01*
X122127476Y-82936783D01*
X121944848Y-83061296D01*
X122667705Y-83784153D01*
X122651058Y-83791049D01*
X122520030Y-83878599D01*
X122408599Y-83990030D01*
X122321049Y-84121058D01*
X122314153Y-84137706D01*
X121592295Y-83415848D01*
X121538600Y-83483180D01*
X121403709Y-83716818D01*
X121305148Y-83967947D01*
X121305142Y-83967966D01*
X121245113Y-84230971D01*
X121245113Y-84230973D01*
X121224953Y-84499995D01*
X121224953Y-84500004D01*
X121245113Y-84769026D01*
X121245113Y-84769028D01*
X121305142Y-85032033D01*
X121305148Y-85032052D01*
X121354706Y-85158324D01*
X121360875Y-85227921D01*
X121328437Y-85289804D01*
X121267692Y-85324327D01*
X121202729Y-85322117D01*
X121097973Y-85289804D01*
X120980623Y-85253606D01*
X120980619Y-85253605D01*
X120980615Y-85253604D01*
X120855823Y-85234794D01*
X120721187Y-85214500D01*
X120721182Y-85214500D01*
X120458818Y-85214500D01*
X120458812Y-85214500D01*
X120297247Y-85238853D01*
X120199385Y-85253604D01*
X120199382Y-85253605D01*
X120199376Y-85253606D01*
X119948673Y-85330938D01*
X119751052Y-85426107D01*
X119682111Y-85437459D01*
X119617976Y-85409736D01*
X119579011Y-85351741D01*
X119577586Y-85281886D01*
X119581823Y-85269085D01*
X119674851Y-85032052D01*
X119674857Y-85032033D01*
X119734886Y-84769028D01*
X119734886Y-84769026D01*
X119755047Y-84500004D01*
X119755047Y-84499995D01*
X119734886Y-84230973D01*
X119734886Y-84230971D01*
X119674857Y-83967966D01*
X119674851Y-83967947D01*
X119576290Y-83716818D01*
X119576291Y-83716818D01*
X119441397Y-83483177D01*
X119387704Y-83415847D01*
X118665846Y-84137705D01*
X118658951Y-84121058D01*
X118571401Y-83990030D01*
X118459970Y-83878599D01*
X118328942Y-83791049D01*
X118312294Y-83784153D01*
X119035150Y-83061296D01*
X118852517Y-82936779D01*
X118852516Y-82936778D01*
X118609460Y-82819730D01*
X118609462Y-82819730D01*
X118351662Y-82740209D01*
X118351656Y-82740207D01*
X118084898Y-82700000D01*
X117815101Y-82700000D01*
X117548343Y-82740207D01*
X117548337Y-82740209D01*
X117290538Y-82819730D01*
X117047485Y-82936778D01*
X117047476Y-82936783D01*
X116864848Y-83061296D01*
X117587705Y-83784153D01*
X117571058Y-83791049D01*
X117440030Y-83878599D01*
X117328599Y-83990030D01*
X117241049Y-84121058D01*
X117234153Y-84137706D01*
X116512295Y-83415848D01*
X116458600Y-83483180D01*
X116323709Y-83716818D01*
X116225148Y-83967947D01*
X116225142Y-83967966D01*
X116165113Y-84230971D01*
X116165113Y-84230973D01*
X116144953Y-84499995D01*
X115500500Y-84499995D01*
X115500500Y-69825013D01*
X141800000Y-69825013D01*
X141800000Y-69950000D01*
X142950000Y-69950000D01*
X143450000Y-69950000D01*
X144599999Y-69950000D01*
X144599999Y-69825028D01*
X144599998Y-69825013D01*
X144589505Y-69722302D01*
X144534358Y-69555880D01*
X144534356Y-69555875D01*
X144442315Y-69406654D01*
X144318345Y-69282684D01*
X144169124Y-69190643D01*
X144169119Y-69190641D01*
X144002697Y-69135494D01*
X144002690Y-69135493D01*
X143899986Y-69125000D01*
X143450000Y-69125000D01*
X143450000Y-69950000D01*
X142950000Y-69950000D01*
X142950000Y-69125000D01*
X142500028Y-69125000D01*
X142500012Y-69125001D01*
X142397302Y-69135494D01*
X142230880Y-69190641D01*
X142230875Y-69190643D01*
X142081654Y-69282684D01*
X141957684Y-69406654D01*
X141865643Y-69555875D01*
X141865641Y-69555880D01*
X141810494Y-69722302D01*
X141810493Y-69722309D01*
X141800000Y-69825013D01*
X115500500Y-69825013D01*
X115500500Y-59072626D01*
X115520185Y-59005587D01*
X115523400Y-59002801D01*
X115721054Y-59002801D01*
X115743477Y-59037691D01*
X115748360Y-59066726D01*
X115764447Y-59404450D01*
X115822071Y-59805231D01*
X115917531Y-60198722D01*
X115917534Y-60198733D01*
X116049956Y-60581340D01*
X116049966Y-60581365D01*
X116218168Y-60949675D01*
X116420621Y-61300335D01*
X116420627Y-61300343D01*
X116655485Y-61630154D01*
X116822985Y-61823460D01*
X118313098Y-60333347D01*
X118380076Y-60420635D01*
X118579365Y-60619924D01*
X118666650Y-60686900D01*
X117174928Y-62178622D01*
X117213676Y-62215568D01*
X117213695Y-62215585D01*
X117531968Y-62465877D01*
X117872594Y-62684782D01*
X118232485Y-62870319D01*
X118608383Y-63020806D01*
X118608395Y-63020810D01*
X118996882Y-63134880D01*
X118996899Y-63134884D01*
X119394460Y-63211508D01*
X119394472Y-63211510D01*
X119797554Y-63250000D01*
X120202446Y-63250000D01*
X120605527Y-63211510D01*
X120605539Y-63211508D01*
X121003100Y-63134884D01*
X121003117Y-63134880D01*
X121391604Y-63020810D01*
X121391616Y-63020806D01*
X121767507Y-62870322D01*
X121767511Y-62870320D01*
X122127406Y-62684782D01*
X122468031Y-62465877D01*
X122786314Y-62215578D01*
X122825069Y-62178622D01*
X121333348Y-60686901D01*
X121420635Y-60619924D01*
X121619924Y-60420635D01*
X121686901Y-60333348D01*
X123177012Y-61823459D01*
X123344512Y-61630156D01*
X123344523Y-61630143D01*
X123579372Y-61300343D01*
X123579378Y-61300335D01*
X123781831Y-60949675D01*
X123950033Y-60581365D01*
X123950043Y-60581340D01*
X124082465Y-60198733D01*
X124082468Y-60198722D01*
X124177928Y-59805231D01*
X124235552Y-59404450D01*
X124254818Y-59000000D01*
X124235552Y-58595549D01*
X124177928Y-58194768D01*
X124082468Y-57801277D01*
X124082465Y-57801266D01*
X123950043Y-57418659D01*
X123950033Y-57418634D01*
X123781831Y-57050324D01*
X123579378Y-56699664D01*
X123579372Y-56699656D01*
X123344523Y-56369856D01*
X123344512Y-56369843D01*
X123177013Y-56176538D01*
X121686900Y-57666650D01*
X121619924Y-57579365D01*
X121420635Y-57380076D01*
X121333348Y-57313098D01*
X122825070Y-55821376D01*
X122786323Y-55784431D01*
X122786304Y-55784414D01*
X122468031Y-55534122D01*
X122127406Y-55315217D01*
X121767511Y-55129679D01*
X121767507Y-55129677D01*
X121391616Y-54979193D01*
X121391604Y-54979189D01*
X121003117Y-54865119D01*
X121003100Y-54865115D01*
X120605539Y-54788491D01*
X120605527Y-54788489D01*
X120202446Y-54750000D01*
X119797554Y-54750000D01*
X119394472Y-54788489D01*
X119394460Y-54788491D01*
X118996899Y-54865115D01*
X118996882Y-54865119D01*
X118608395Y-54979189D01*
X118608383Y-54979193D01*
X118232485Y-55129680D01*
X117872594Y-55315217D01*
X117531968Y-55534122D01*
X117213685Y-55784421D01*
X117213673Y-55784432D01*
X117174929Y-55821375D01*
X117174929Y-55821376D01*
X118666651Y-57313098D01*
X118579365Y-57380076D01*
X118380076Y-57579365D01*
X118313098Y-57666651D01*
X116822986Y-56176539D01*
X116655485Y-56369845D01*
X116420627Y-56699656D01*
X116420621Y-56699664D01*
X116218168Y-57050324D01*
X116049966Y-57418634D01*
X116049956Y-57418659D01*
X115917534Y-57801266D01*
X115917531Y-57801277D01*
X115822071Y-58194768D01*
X115764447Y-58595549D01*
X115748360Y-58933273D01*
X115725507Y-58999300D01*
X115721054Y-59002801D01*
X115523400Y-59002801D01*
X115528242Y-58998605D01*
X115503995Y-58956607D01*
X115500500Y-58927373D01*
X115500500Y-54624500D01*
X115520185Y-54557461D01*
X115572989Y-54511706D01*
X115624500Y-54500500D01*
X199375500Y-54500500D01*
X199442539Y-54520185D01*
G37*
G04 #@! TD.AperFunction*
M02*
